<?xml version="1.0" encoding="UTF-8"?><svg id="Layer_1" xmlns="http://www.w3.org/2000/svg" width="101.4" height="150.5" viewBox="0 0 101.4 150.5"><defs><style>.cls-1{fill:none;}.cls-1,.cls-2,.cls-3,.cls-4,.cls-5,.cls-6,.cls-7,.cls-8,.cls-9,.cls-10,.cls-11,.cls-12,.cls-13{stroke:#000;stroke-linecap:round;stroke-linejoin:round;stroke-width:.8px;}.cls-2{fill:#4d4c4d;}.cls-3{fill:#5c5c5c;}.cls-4{fill:#764f29;}.cls-5{fill:#ac8768;}.cls-6{fill:#161616;}.cls-7{fill:#707171;}.cls-8{fill:#30302f;}.cls-9{fill:#8c6538;}.cls-10{fill:#b99572;}.cls-11{fill:#9e744c;}.cls-12{fill:#996e43;}.cls-13{fill:#a77c58;}</style></defs><path class="cls-10" d="M11.3,33.1c-4.4.1-7.6.2-8.5.2.7-5.4,1.4-10.1,2.1-14.1,1,0,4.1-.2,8.2-.5-.8,5.4-1.4,10.1-1.9,14.4Z"/><path class="cls-10" d="M11.7,111.8H2.2C-.3,92.2,0,57.8,2.2,38.8c1.1,0,4.2,0,8.5-.1-2.3,32.3-.9,42.2,1,73.1Z"/><path class="cls-10" d="M13.5,133.2H5.3c-.9-4.4-1.7-9.7-2.5-15.8h9.4c.5,5.7.9,11.1,1.4,15.8Z"/><path class="cls-10" d="M15.2,150h-5.7s-1.4-3.8-3-11.2h7.6c.6,6,1,10.2,1.1,11.2Z"/><path class="cls-10" d="M14.1,13.1c-4.3.3-7.2.5-8,.6,1.6-7.1,2.9-10.8,3.4-11.1.4-.3,2.5-.7,6.4-1.1-.5,4.1-1.3,8-1.8,11.6Z"/><path class="cls-5" d="M27,1.1c-.2,3.5-.5,7.3-.7,11.3-4.7.2-8.9.5-12.2.7.5-3.6,1.3-7.5,1.8-11.6,2.8-.3,6.5-.5,11.1-.7v.4Z"/><path class="cls-5" d="M25.1,32.7c-5,.1-9.9.2-13.8.3.5-4.2,1.1-9,1.9-14.4,3.6-.2,8-.4,12.7-.6-.3,4.8-.6,9.8-.8,14.7Z"/><path class="cls-5" d="M24.5,111.8h-12.8c-1.9-31-3.3-40.8-1-73.1,4,0,8.9-.1,14.1-.2-1.5,24.6-1.4,48.8-.3,73.4Z"/><path class="cls-5" d="M25.4,133.2h-11.9c-.4-4.7-.9-10.2-1.4-15.8h12.6c.2,5.3.4,10.6.7,15.8Z"/><path class="cls-5" d="M26.2,149.9h0c0,.1-11,.1-11,.1-.1-1-.5-5.2-1.1-11.2h11.6c.2,3.6.4,7.7.5,11.1Z"/><path class="cls-13" d="M42.7,11.8c-5.7.1-11.3.4-16.4.6.2-4.2.6-8,.7-11.7,4.5-.2,9.8-.4,16-.4-.1,3.2-.2,8-.3,11.5Z"/><path class="cls-13" d="M42.1,32.4c-5.1,0-11.2.2-17,.3.3-4.9.5-9.8.8-14.7,5.5-.2,11.3-.5,16.6-.6-.1,5-.2,9.9-.4,14.9Z"/><path class="cls-13" d="M42.1,111.8h-17.6c-1.1-24.6-1.2-48.8.3-73.4,5.8,0,11.8-.2,17.2-.2-.6,24.6-.6,49,0,73.6Z"/><path class="cls-13" d="M43.2,149.8v.2h-16.9c-.2-3.4-.4-7.6-.5-11.2h17.1c.1,3.7.2,7.4.3,11Z"/><path class="cls-13" d="M42.7,133.2h-17.2c-.2-5.2-.5-10.5-.7-15.8h17.5c.1,5.3.3,10.6.4,15.8Z"/><path class="cls-11" d="M50.9,11.6c-2.7,0-5.5,0-8.2.1.1-3.8.2-8.1.3-11.5,4.4,0,9.7,0,14.2,0,0,0,.2,4.4.5,11.4-2.3,0-4.6,0-6.8,0Z"/><path class="cls-11" d="M50.2,32.3c-2.1,0-4.9,0-8.1,0,.1-5,.2-9.9.4-14.9,5.8-.1,9.8-.1,15.4,0,.2,4.5.4,9.5.6,14.9-3.3,0-6.2,0-8.3,0Z"/><path class="cls-11" d="M42.8,138.8h15.3c-.2,7.1-.4,10.7-.3,11.2h-14.6c0-3.7-.2-7.5-.3-11.2Z"/><path class="cls-11" d="M58.8,117.4c-.2,5.7-.3,11.1-.5,15.8h-15.6c-.1-5.3-.3-10.5-.4-15.8h16.5Z"/><path class="cls-11" d="M59.5,73.9c0,9.8-.3,24.2-.7,37.9h-16.8c-.7-24.6-.7-49,0-73.6,6.4,0,10.3-.1,16.7,0,.4,12.8.8,26.3.8,35.7Z"/><path class="cls-12" d="M72.6,12.2c-4.7-.2-9.7-.4-14.9-.5-.3-7-.5-11.3-.5-11.4,5.5,0,10.4.2,14.6.3.2,2.3.4,5.5.8,11.6Z"/><path class="cls-12" d="M58.5,32.4c-.2-5.3-.4-10.4-.6-14.9,4.7.1,10,.4,15.1.6.3,4.4.6,9.4.9,14.5-5.4-.1-10.8-.2-15.5-.3Z"/><path class="cls-12" d="M74.2,117.4c-.3,5.3-.5,10.6-.8,15.8h-15.1c.1-4.7.3-10.1.5-15.8h15.5Z"/><path class="cls-12" d="M58.1,138.8h15c-.2,3-.6,9.7-.7,11.2h-14.6c0-.6.1-4.2.3-11.2Z"/><path class="cls-12" d="M75.7,74.5c0,12.3-.6,24.9-1.2,37.2h-15.6c.8-28.9.9-45.1-.2-73.7,4.9,0,10.3.1,15.6.2.7,12,1.3,24.4,1.4,36.2Z"/><path class="cls-9" d="M72.6,12.2c-.4-6.1-.7-9.3-.8-11.6,4.5.2,8.2.4,11.1.6.3,3.7,1,7.9,1.4,11.7-3.3-.3-7.3-.5-11.6-.8Z"/><path class="cls-9" d="M89.4,76c0,11.9-1,23.9-2,35.8h-12.9c1.4-24.5,1.5-48.9-.2-73.5,4.5,0,8.9.2,12.7.2,1.2,12.4,2.3,25,2.4,37.4Z"/><path class="cls-9" d="M73.1,138.8h11.8c-.4,3.4-.9,8.4-1.2,11.2h-11.3c0-1.6.5-8.2.7-11.2Z"/><path class="cls-9" d="M87,117.4c-.5,5.3-1,10.6-1.5,15.8h-12.1c.3-5.2.6-10.5.8-15.8h12.7Z"/><path class="cls-9" d="M74,32.7c-.3-5.2-.6-10.1-.9-14.5,4.2.2,8.3.4,11.8.6.5,4.7,1,9.4,1.5,14.2-3.8,0-8.1-.2-12.5-.3Z"/><path class="cls-4" d="M83.7,8.8c-.2-2.5-.8-5.3-.9-7.6,5.1.4,7.8.9,8.4,1.3.4.4,1.8,4.3,3.4,11.3-.2,0-4.3-.5-10.4-.9-.2-1.4-.3-2.8-.5-4.2Z"/><path class="cls-4" d="M98.1,117.4c-.8,6-1.8,11.3-2.7,15.8h-9.9c.5-5.2,1-10.5,1.5-15.8h11.2Z"/><path class="cls-4" d="M84.9,138.8h9.3c-1.7,7.2-3,11.2-3,11.2h-7.5c.3-2.8.9-7.9,1.2-11.2Z"/><path class="cls-4" d="M101,76.3c0,13.3-.9,25.3-2.1,35.5h-11.4c2.5-24.4,2.4-48.9-.4-73.2,6,.1,10.6.2,11.8.3,1.2,10.6,2.1,23.2,2.1,37.4Z"/><path class="cls-4" d="M85.4,22.8c-.2-1.4-.3-2.7-.5-4,5.5.3,9.7.6,10.9.6.8,4,1.6,8.6,2.3,13.9-1,0-5.6-.1-11.7-.3-.4-3.5-.7-6.8-1.1-10.2Z"/><path class="cls-1" d="M15.2,150.3s0,0,0-.2"/><path class="cls-3" d="M14.1,138.8h-7.6c-.4-1.7-.8-3.5-1.2-5.6h8.2c.2,2,.4,3.9.5,5.6Z"/><path class="cls-1" d="M5.3,133.2c.4,2,.8,3.9,1.2,5.6h-.2l-1.3-5.6h.4Z"/><path class="cls-7" d="M25.7,138.8h-11.6c-.2-1.7-.3-3.6-.5-5.6h11.9c0,1.9.2,3.7.2,5.6Z"/><path class="cls-2" d="M42.8,138.8h-17.1c0-1.9-.2-3.7-.2-5.6h17.2c0,1.9.1,3.8.2,5.6Z"/><path class="cls-8" d="M58.3,133.2c0,2-.1,3.9-.2,5.6h-15.3c0-1.8-.1-3.7-.2-5.6h15.6Z"/><path class="cls-6" d="M73.4,133.2c-.1,2-.2,3.9-.3,5.6h-15c0-1.7.1-3.6.2-5.6h15.1Z"/><path class="cls-6" d="M85.5,133.2c-.2,2-.4,3.9-.6,5.6h-11.8c.1-1.7.2-3.6.3-5.6h12.1Z"/><path class="cls-6" d="M95.4,133.2c-.4,2-.8,3.9-1.2,5.6h-9.3c.2-1.7.4-3.6.6-5.6h9.9Z"/><path class="cls-1" d="M95.7,133.2l-1.2,5.6h-.2c.4-1.7.8-3.6,1.2-5.6h.2Z"/><path class="cls-3" d="M14.1,13.1c-.3,2-.6,3.8-.8,5.6-4.2.2-7.2.4-8.2.5.4-2,.8-3.9,1.1-5.6.7,0,3.6-.3,8-.6Z"/><path class="cls-1" d="M5.9,13.7s0,0,.2,0c-.4,1.7-.8,3.5-1.1,5.6-.2,0-.4,0-.4,0l1.3-5.6Z"/><path class="cls-7" d="M26.3,12.4c-.1,1.8-.2,3.7-.3,5.7-4.7.2-9.1.4-12.7.6.3-1.8.5-3.7.8-5.6,3.3-.2,7.5-.5,12.2-.7Z"/><path class="cls-2" d="M42.7,11.8c0,1.8,0,3.8-.1,5.7-5.2.1-11.1.3-16.6.6.1-2,.2-4,.3-5.7,5-.2,10.7-.5,16.4-.6Z"/><path class="cls-8" d="M57.9,17.6c-5.7-.2-9.6-.2-15.4,0,0-1.9.1-3.9.1-5.7,5-.1,10.1-.2,15-.1,0,1.8.2,3.8.2,5.9Z"/><path class="cls-1" d="M42.5,16c0-1.5,0-2.9.1-4.2,0,1.3,0,2.7-.1,4.2Z"/><path class="cls-8" d="M73.1,18.2c-5.1-.2-10.4-.5-15.1-.6,0-2.1-.2-4.1-.2-5.9,5.2,0,10.3.3,14.9.5.1,2,.3,3.9.4,6Z"/><path class="cls-8" d="M84.9,18.8c-3.5-.2-7.6-.4-11.8-.6-.1-2-.3-4-.4-6,4.3.2,8.3.5,11.6.8.2,2,.4,3.8.7,5.8Z"/><path class="cls-6" d="M95.8,19.4c-1.2,0-5.4-.3-10.9-.6-.2-2-.4-3.9-.7-5.8,6.2.5,10.2.9,10.4.9.4,1.7.8,3.5,1.2,5.5Z"/><path class="cls-1" d="M96.2,19.4s-.1,0-.4,0c-.4-2-.8-3.9-1.2-5.5h0l1.5,5.5Z"/><path class="cls-3" d="M11.3,33.1c-.2,2-.4,3.8-.6,5.6-4.3,0-7.4.1-8.5.1.2-1.9.4-3.7.6-5.5.8,0,4,0,8.5-.2Z"/><path class="cls-1" d="M2.6,33.3s0,0,.2,0c-.2,1.8-.4,3.6-.6,5.5-.3,0-.4,0-.4,0l.8-5.5Z"/><path class="cls-7" d="M25.1,32.7c0,1.9-.2,3.8-.3,5.7-5.2,0-10.1.2-14.1.2.2-1.8.4-3.6.6-5.6,3.9-.1,8.8-.2,13.8-.3Z"/><path class="cls-2" d="M42.1,32.4c0,1.9,0,3.8-.1,5.8-5.4,0-11.5.1-17.2.2,0-1.9.2-3.8.3-5.7,5.9-.1,12-.2,17-.3Z"/><path class="cls-8" d="M58.7,38.1c-6.4,0-10.4,0-16.7,0,0-2,0-3.9.1-5.8,6.9,0,9.5,0,16.4,0,0,1.9.1,3.8.2,5.7Z"/><path class="cls-8" d="M74.3,38.3c-5.3,0-10.7-.2-15.6-.2,0-1.9-.1-3.8-.2-5.7,4.6,0,10.1.2,15.5.3.1,1.9.2,3.8.3,5.6Z"/><path class="cls-8" d="M87,38.6c-3.8,0-8.2-.2-12.7-.2-.1-1.9-.2-3.8-.3-5.6,4.4,0,8.7.2,12.5.3.2,1.8.4,3.7.6,5.6Z"/><path class="cls-6" d="M98.9,38.9c-1.3,0-5.8-.1-11.8-.3-.2-1.9-.4-3.8-.6-5.6,6.1.1,10.7.3,11.7.3.2,1.8.5,3.7.7,5.6Z"/><path class="cls-1" d="M99.2,38.9s-.1,0-.4,0c-.2-1.9-.5-3.8-.7-5.6.1,0,.2,0,.2,0l.9,5.6Z"/><path class="cls-3" d="M12.2,117.4H2.8c-.2-1.8-.4-3.6-.6-5.6h9.6c.1,1.9.3,3.7.4,5.6Z"/><path class="cls-1" d="M2.2,111.8c.2,1.9.4,3.8.6,5.6h-.2l-.8-5.6h.4Z"/><path class="cls-7" d="M24.8,117.4h-12.6c-.2-1.8-.3-3.7-.4-5.6h12.8c0,1.9.2,3.7.2,5.6Z"/><path class="cls-2" d="M42.2,117.4h-17.5c0-1.8-.1-3.7-.2-5.6h17.6c0,1.9,0,3.8.1,5.6Z"/><path class="cls-8" d="M58.9,111.8c0,1.9,0,3.8-.1,5.6h-16.5c0-1.8,0-3.7-.1-5.6h16.8Z"/><path class="cls-8" d="M74.5,111.8c0,1.9-.2,3.7-.3,5.6h-15.5c0-1.8,0-3.7.1-5.6h15.6Z"/><path class="cls-6" d="M87.4,111.8c-.1,1.9-.3,3.7-.5,5.6h-12.7c.1-1.9.2-3.7.3-5.6h12.9Z"/><path class="cls-6" d="M98.9,111.8c-.2,1.9-.5,3.8-.7,5.6h-11.2c.2-1.9.3-3.7.5-5.6h11.4Z"/><path class="cls-1" d="M99.4,111.8l-.9,5.6h-.4c.3-1.8.5-3.7.7-5.6h.5Z"/></svg>