<?xml version="1.0" encoding="UTF-8"?><svg id="a" xmlns="http://www.w3.org/2000/svg" width="46.11" height="60.74" xmlns:xlink="http://www.w3.org/1999/xlink" viewBox="0 0 46.11 60.74"><defs><style>.c{stroke:#000;}.c,.d{fill:none;stroke-linecap:round;stroke-width:.75px;}.d{stroke:#231f20;}.e{fill:#f7c2d9;}.e,.f,.g,.h,.i,.j,.k,.l{stroke-width:0px;}.f{fill:#4aa2d9;}.g{fill:#348bca;}.h{fill:#0d699b;}.i{fill:#4299d1;}.j{fill:#1f7ab2;}.k{fill:#db94b7;}.l{fill:url(#b);}</style><linearGradient id="b" x1="5.84" y1=".41" x2="24.1" y2=".41" gradientUnits="userSpaceOnUse"><stop offset="0" stop-color="#f7c1d8"/><stop offset="1" stop-color="#eb008b"/></linearGradient></defs><path class="h" d="m43.15,29.09c-1.03.27-2.49.54-4.28.78.03-.34.05-.68.09-1.02.93-.22,1.81-1.4,1.81-3.49,0-.23,0-.5-.03-.83,3.11-.44,4.95-.93,4.95-1.28h.05l-.82,4.95h-.05c0,.28-.61.58-1.72.87Z"/><path class="h" d="m38.87,29.88c1.79-.24,3.25-.51,4.28-.78l-.24,1.98c-1.88.35-3.81.66-5.76.91.05-.85.09-1.5.11-1.91.57-.06,1.11-.14,1.62-.2Z"/><path class="j" d="m42.91,31.07l-3.57,28.51h0c0,.29-2.53.5-6.18.63,2.18-6.13,3.56-22.14,3.97-28.23,1.95-.25,3.88-.56,5.76-.91Z"/><path class="h" d="m45.69,23.26c0,.35-1.84.84-4.95,1.28-.03-.6-.09-1.35-.19-2.22,3.21.26,5.13.59,5.13.94Z"/><path class="e" d="m39.08,27.54c.39-.13.68-.55.68-1.05,0-.42-.2-.79-.5-.97-.13-.08-.27-.13-.42-.13-.51,0-.93.49-.93,1.1s.41,1.1.93,1.1c.08,0,.17-.02.24-.05Zm-.12,1.32c-1.05.24-2.18-.77-2.18-3.12,0-.22,0-.46-.03-.73,1.49-.14,2.83-.31,3.99-.47.02.32.03.59.03.83,0,2.09-.88,3.27-1.81,3.49Z"/><path class="e" d="m40.56,22.33c.1.86.16,1.61.19,2.22-1.16.16-2.5.32-3.99.47-.04-.78-.14-1.78-.31-2.94,1.53.08,2.91.16,4.11.25Z"/><path class="e" d="m40.56,22.33c-1.2-.09-2.58-.17-4.11-.25-1-6.37-4.44-17.29-13.64-21.29.37-.13.75-.23,1.14-.33,12.17,1.13,15.76,14.97,16.6,21.87Z"/><path class="f" d="m39.26,25.52c.3.18.5.55.5.97,0,.5-.29.93-.68,1.05.06-.68.12-1.35.18-2.03Z"/><path class="f" d="m39.26,25.52c-.06.68-.12,1.35-.18,2.03-.07.03-.16.05-.24.05-.51,0-.93-.5-.93-1.1s.41-1.1.93-1.1c.15,0,.3.05.42.13Z"/><path class="g" d="m37.25,30.07c-3.85.44-8.84.75-14.28.75s-10.62-.32-14.47-.77c-.42-.05-.84-.11-1.23-.15l.03-.21c-.31-1.45.07-4.11.2-4.91,4.17.46,9.8.83,15.91.83,5.04,0,9.65-.25,13.34-.59.02.27.03.51.03.73,0,2.35,1.13,3.36,2.18,3.12-.04.34-.06.68-.09,1.02-.51.06-1.05.14-1.62.2Z"/><path class="j" d="m37.25,30.07c-.02.41-.05,1.06-.11,1.91-10.04,1.32-20.67,1.41-28.35.32-.13-.81-.24-1.47-.32-1.91l.04-.34c3.85.45,8.91.77,14.47.77s10.43-.31,14.28-.75Z"/><path class="j" d="m7.51,24.78c-1.02-.12-1.95-.23-2.77-.36-2.43-.36-3.98-.74-4.3-1.04-.05-.05-.06-.08-.06-.12,0-.41,2.54-.77,6.64-1.04,4.1-.27,9.76-.43,16.02-.43,5.03,0,9.67.11,13.42.28.17,1.15.27,2.15.31,2.94-3.69.34-8.3.59-13.34.59-6.11,0-11.74-.37-15.91-.83Z"/><path class="g" d="m37.14,31.98c-.41,6.09-1.79,22.1-3.97,28.23-5.92.21-14.77.21-20.58,0-.51-5.48-2.77-21.59-3.79-27.91,7.67,1.09,18.3,1,28.35-.32Z"/><path class="l" d="m24.1.42s-.1.03-.14.04c-.51-.05-1.04-.08-1.59-.08.56-.02,1.13,0,1.73.05Z"/><path class="e" d="m22.37.38c.54,0,1.07.03,1.59.08-.4.1-.77.21-1.14.33-.32-.14-.65-.27-.98-.39.16-.02.32-.03.49-.03h.05Z"/><path class="k" d="m21.83.4c.33.12.67.25.98.39-11.8,3.98-13.47,21.26-13.47,21.26l-2.33.14-1.19.07S7.76,1.3,21.83.4Z"/><path class="e" d="m21.79.38c.18,0,.35,0,.53,0-.16,0-.32,0-.49.03-.02,0-.03,0-.05-.02Z"/><path class="f" d="m8.8,32.3c1.03,6.31,3.28,22.43,3.79,27.91-1.07-.05-2.04-.09-2.86-.14-.32-4.35-2.68-21.25-3.78-28.25.89.18,1.85.34,2.86.49Z"/><path class="g" d="m8.47,30.39c.08.44.2,1.1.32,1.91-1.01-.14-1.96-.31-2.86-.49-.14-.91-.27-1.65-.37-2.17.53.08,1.1.17,1.71.25.39.05.8.1,1.23.15l-.04.34Z"/><path class="i" d="m5.94,31.81c1.11,7,3.46,23.9,3.78,28.25-1.86-.13-3-.28-3-.48h0l-3.77-28.53c.9.28,1.91.53,3,.76Z"/><path class="f" d="m5.57,29.64c-.44-.08-.86-.15-1.25-.23-.14-1.8.33-4.45.33-4.45l.08-.55c.83.13,1.76.24,2.77.36-.13.8-.5,3.46-.2,4.91l-.03.21c-.61-.08-1.18-.17-1.71-.25Z"/><path class="g" d="m4.32,29.42c.39.07.81.14,1.25.23.1.52.23,1.26.37,2.17-1.09-.23-2.1-.48-3-.76l-.27-2.04c.46.14,1.01.26,1.65.4Z"/><path class="i" d="m2.67,29.02c-.95-.27-1.48-.54-1.48-.79h.04s-.79-4.85-.79-4.85c.32.3,1.86.68,4.3,1.04l-.08.55s-.47,2.65-.33,4.45c-.64-.14-1.19-.26-1.65-.4Z"/><path class="c" d="m40.56,22.33c3.21.26,5.13.59,5.13.94s-1.84.84-4.95,1.28"/><path class="c" d="m36.76,25.01c-3.69.34-8.3.59-13.34.59-6.11,0-11.74-.37-15.91-.83-1.02-.12-1.95-.23-2.77-.36-2.43-.36-3.98-.74-4.3-1.04-.05-.05-.06-.08-.06-.12,0-.41,2.54-.77,6.64-1.04,4.1-.27,9.76-.43,16.02-.43,5.03,0,9.67.11,13.42.28"/><path class="c" d="m44.87,28.23c0,.27-.61.57-1.72.86-1.03.27-2.49.54-4.28.78-.51.06-1.05.14-1.62.2-3.85.44-8.84.75-14.28.75s-10.62-.32-14.47-.77c-.42-.05-.84-.11-1.23-.15-.61-.08-1.18-.17-1.71-.25-.44-.08-.86-.15-1.25-.23-.64-.14-1.19-.26-1.65-.4-.95-.27-1.48-.54-1.48-.79"/><path class="c" d="m39.35,59.58c0,.29-2.53.5-6.18.63-5.92.21-14.77.21-20.58,0-1.07-.05-2.04-.09-2.86-.14-1.86-.13-3-.28-3-.48"/><polyline class="c" points=".42 23.26 .44 23.38 1.23 28.22"/><line class="c" x1="45.74" y1="23.26" x2="44.92" y2="28.22"/><polyline class="c" points="6.72 59.58 2.94 31.06 2.67 29.02 2.66 28.95"/><polyline class="c" points="39.34 59.58 42.91 31.07 43.15 29.09 43.17 28.97"/><path class="c" d="m22.81.79c-11.8,3.98-13.47,21.26-13.47,21.26l-2.33.14-1.19.07S7.76,1.3,21.83.4"/><path class="d" d="m22.37.38c.56-.02,1.13,0,1.73.05-.05,0-.1.03-.14.04"/><path class="c" d="m22.32.38c-.18,0-.35,0-.53,0,.02,0,.03,0,.05.02.33.12.67.25.98.39,9.2,3.99,12.64,14.92,13.64,21.29.17,1.15.27,2.15.31,2.94.02.27.03.51.03.73,0,2.35,1.13,3.36,2.18,3.12.93-.22,1.81-1.4,1.81-3.49,0-.23,0-.5-.03-.83-.03-.6-.09-1.35-.19-2.22-.84-6.9-4.43-20.74-16.6-21.87-.51-.05-1.04-.08-1.59-.08"/><path class="d" d="m39.26,25.52c.3.18.5.55.5.97,0,.5-.29.93-.68,1.05-.07.03-.16.05-.24.05-.51,0-.93-.5-.93-1.1s.41-1.1.93-1.1c.15,0,.3.05.42.13Z"/></svg>