<?xml version="1.0" encoding="UTF-8"?><svg id="a" xmlns="http://www.w3.org/2000/svg" width="46.1" height="60.7" xmlns:xlink="http://www.w3.org/1999/xlink" viewBox="0 0 46.1 60.7"><defs><style>.c{stroke:#000;}.c,.d{fill:none;stroke-linecap:round;stroke-width:.8px;}.d{stroke:#231f20;}.e{fill:#f7c2d9;}.e,.f,.g,.h,.i,.j,.k,.l{stroke-width:0px;}.f{fill:#4aa2d9;}.g{fill:#348bca;}.h{fill:#0d699b;}.i{fill:#4299d1;}.j{fill:#1f7ab2;}.k{fill:#db94b7;}.l{fill:url(#b);}</style><linearGradient id="b" x1="5.8" y1=".4" x2="24.1" y2=".4" gradientUnits="userSpaceOnUse"><stop offset="0" stop-color="#f7c1d8"/><stop offset="1" stop-color="#eb008b"/></linearGradient></defs><path class="h" d="m43.2,29.1c-1,.3-2.5.5-4.3.8,0-.3,0-.7,0-1,.9-.2,1.8-1.4,1.8-3.5s0-.5,0-.8c3.1-.4,4.9-.9,4.9-1.3h0l-.8,5h0c0,.3-.6.6-1.7.9Z"/><path class="h" d="m38.9,29.9c1.8-.2,3.3-.5,4.3-.8l-.2,2c-1.9.4-3.8.7-5.8.9,0-.8,0-1.5.1-1.9.6,0,1.1-.1,1.6-.2Z"/><path class="j" d="m42.9,31.1l-3.6,28.5h0c0,.3-2.5.5-6.2.6,2.2-6.1,3.6-22.1,4-28.2,2-.3,3.9-.6,5.8-.9Z"/><path class="h" d="m45.7,23.3c0,.4-1.8.8-4.9,1.3,0-.6,0-1.4-.2-2.2,3.2.3,5.1.6,5.1.9Z"/><path class="e" d="m39.1,27.5c.4-.1.7-.5.7-1.1s-.2-.8-.5-1c-.1,0-.3-.1-.4-.1-.5,0-.9.5-.9,1.1s.4,1.1.9,1.1.2,0,.2,0Zm-.1,1.3c-1.1.2-2.2-.8-2.2-3.1s0-.5,0-.7c1.5-.1,2.8-.3,4-.5,0,.3,0,.6,0,.8,0,2.1-.9,3.3-1.8,3.5Z"/><path class="e" d="m40.6,22.3c0,.9.2,1.6.2,2.2-1.2.2-2.5.3-4,.5,0-.8-.1-1.8-.3-2.9,1.5,0,2.9.2,4.1.3Z"/><path class="e" d="m40.6,22.3c-1.2,0-2.6-.2-4.1-.3-1-6.4-4.4-17.3-13.6-21.3.4-.1.7-.2,1.1-.3,12.2,1.1,15.8,15,16.6,21.9Z"/><path class="f" d="m39.3,25.5c.3.2.5.5.5,1s-.3.9-.7,1.1c0-.7.1-1.4.2-2Z"/><path class="f" d="m39.3,25.5c0,.7-.1,1.4-.2,2,0,0-.2,0-.2,0-.5,0-.9-.5-.9-1.1s.4-1.1.9-1.1.3,0,.4.1Z"/><path class="g" d="m37.3,30.1c-3.8.4-8.8.7-14.3.7s-10.6-.3-14.5-.8c-.4,0-.8-.1-1.2-.2v-.2c-.3-1.5,0-4.1.2-4.9,4.2.5,9.8.8,15.9.8s9.6-.3,13.3-.6c0,.3,0,.5,0,.7,0,2.4,1.1,3.4,2.2,3.1,0,.3,0,.7,0,1-.5,0-1.1.1-1.6.2Z"/><path class="j" d="m37.3,30.1c0,.4,0,1.1-.1,1.9-10,1.3-20.7,1.4-28.3.3-.1-.8-.2-1.5-.3-1.9v-.3c3.9.5,8.9.8,14.5.8s10.4-.3,14.3-.7Z"/><path class="j" d="m7.5,24.8c-1-.1-1.9-.2-2.8-.4-2.4-.4-4-.7-4.3-1,0,0,0,0,0-.1,0-.4,2.5-.8,6.6-1,4.1-.3,9.8-.4,16-.4s9.7.1,13.4.3c.2,1.2.3,2.2.3,2.9-3.7.3-8.3.6-13.3.6s-11.7-.4-15.9-.8Z"/><path class="g" d="m37.1,32c-.4,6.1-1.8,22.1-4,28.2-5.9.2-14.8.2-20.6,0-.5-5.5-2.8-21.6-3.8-27.9,7.7,1.1,18.3,1,28.3-.3Z"/><path class="l" d="m24.1.4s0,0-.1,0c-.5,0-1,0-1.6,0,.6,0,1.1,0,1.7,0Z"/><path class="e" d="m22.4.4c.5,0,1.1,0,1.6,0-.4,0-.8.2-1.1.3-.3-.1-.6-.3-1-.4.2,0,.3,0,.5,0h0Z"/><path class="k" d="m21.8.4c.3.1.7.3,1,.4-11.8,4-13.5,21.3-13.5,21.3h-2.3c0,.1-1.2.2-1.2.2,0,0,1.9-21,16-21.9Z"/><path class="e" d="m21.8.4c.2,0,.4,0,.5,0-.2,0-.3,0-.5,0,0,0,0,0,0,0Z"/><path class="f" d="m8.8,32.3c1,6.3,3.3,22.4,3.8,27.9-1.1,0-2,0-2.9-.1-.3-4.4-2.7-21.2-3.8-28.2.9.2,1.8.3,2.9.5Z"/><path class="g" d="m8.5,30.4c0,.4.2,1.1.3,1.9-1-.1-2-.3-2.9-.5-.1-.9-.3-1.6-.4-2.2.5,0,1.1.2,1.7.3.4,0,.8,0,1.2.2v.3Z"/><path class="i" d="m5.9,31.8c1.1,7,3.5,23.9,3.8,28.2-1.9-.1-3-.3-3-.5h0l-3.8-28.5c.9.3,1.9.5,3,.8Z"/><path class="f" d="m5.6,29.6c-.4,0-.9-.2-1.3-.2-.1-1.8.3-4.4.3-4.4v-.5c.9.1,1.8.2,2.9.4-.1.8-.5,3.5-.2,4.9v.2c-.6,0-1.2-.2-1.7-.3Z"/><path class="g" d="m4.3,29.4c.4,0,.8.1,1.3.2,0,.5.2,1.3.4,2.2-1.1-.2-2.1-.5-3-.8l-.3-2c.5.1,1,.3,1.6.4Z"/><path class="i" d="m2.7,29c-1-.3-1.5-.5-1.5-.8h0s-.8-4.8-.8-4.8c.3.3,1.9.7,4.3,1v.5c0,0-.5,2.6-.4,4.4-.6-.1-1.2-.3-1.6-.4Z"/><path class="c" d="m40.6,22.3c3.2.3,5.1.6,5.1.9s-1.8.8-4.9,1.3"/><path class="c" d="m36.8,25c-3.7.3-8.3.6-13.3.6s-11.7-.4-15.9-.8c-1-.1-1.9-.2-2.8-.4-2.4-.4-4-.7-4.3-1,0,0,0,0,0-.1,0-.4,2.5-.8,6.6-1,4.1-.3,9.8-.4,16-.4s9.7.1,13.4.3"/><path class="c" d="m44.9,28.2c0,.3-.6.6-1.7.9-1,.3-2.5.5-4.3.8-.5,0-1.1.1-1.6.2-3.8.4-8.8.7-14.3.7s-10.6-.3-14.5-.8c-.4,0-.8-.1-1.2-.2-.6,0-1.2-.2-1.7-.3-.4,0-.9-.2-1.3-.2-.6-.1-1.2-.3-1.6-.4-1-.3-1.5-.5-1.5-.8"/><path class="c" d="m39.4,59.6c0,.3-2.5.5-6.2.6-5.9.2-14.8.2-20.6,0-1.1,0-2,0-2.9-.1-1.9-.1-3-.3-3-.5"/><polyline class="c" points=".4 23.3 .4 23.4 1.2 28.2"/><line class="c" x1="45.7" y1="23.3" x2="44.9" y2="28.2"/><polyline class="c" points="6.7 59.6 2.9 31.1 2.7 29 2.7 28.9"/><polyline class="c" points="39.3 59.6 42.9 31.1 43.2 29.1 43.2 29"/><path class="c" d="m22.8.8c-11.8,4-13.5,21.3-13.5,21.3h-2.3c0,.1-1.2.2-1.2.2,0,0,1.9-21,16-21.9"/><path class="d" d="m22.4.4c.6,0,1.1,0,1.7,0,0,0,0,0-.1,0"/><path class="c" d="m22.3.4c-.2,0-.4,0-.5,0,0,0,0,0,0,0,.3.1.7.3,1,.4,9.2,4,12.6,14.9,13.6,21.3.2,1.2.3,2.2.3,2.9,0,.3,0,.5,0,.7,0,2.4,1.1,3.4,2.2,3.1.9-.2,1.8-1.4,1.8-3.5s0-.5,0-.8c0-.6,0-1.4-.2-2.2-.8-6.9-4.4-20.7-16.6-21.9-.5,0-1,0-1.6,0"/><path class="d" d="m39.3,25.5c.3.2.5.5.5,1s-.3.9-.7,1.1c0,0-.2,0-.2,0-.5,0-.9-.5-.9-1.1s.4-1.1.9-1.1.3,0,.4.1Z"/></svg>