<?xml version="1.0" encoding="UTF-8"?><svg id="a" xmlns="http://www.w3.org/2000/svg" width="57.2" height="100.75" xmlns:xlink="http://www.w3.org/1999/xlink" viewBox="0 0 57.2 100.75"><defs><style>.m,.n{stroke-linecap:round;stroke-linejoin:round;}.m,.n,.o,.p{fill:none;stroke-width:.75px;}.m,.o{stroke:#000;}.n{stroke:#231f20;}.p{stroke:#fff;}.q{fill:#5e0f10;}.q,.r,.s,.t,.u,.v,.w,.x,.y,.z,.aa,.ab,.ac,.ad,.ae,.af,.ag{stroke-width:0px;}.r{fill:#383838;}.s{fill:#bf3b47;}.t{fill:#9b1f25;}.u{fill:#fff;}.v{fill:#68151a;}.w{fill:url(#b);}.x{fill:url(#c);}.y{fill:url(#e);}.z{fill:url(#f);}.aa{fill:url(#d);}.ab{fill:url(#j);}.ac{fill:url(#i);}.ad{fill:url(#h);}.ae{fill:url(#g);}.af{fill:url(#k);}.ag{fill:url(#l);}</style><linearGradient id="b" x1="36.28" y1="19.43" x2="44.85" y2="19.43" gradientUnits="userSpaceOnUse"><stop offset="0" stop-color="#1a180e"/><stop offset=".5" stop-color="#b19b50"/><stop offset="1" stop-color="#ebc63f"/></linearGradient><linearGradient id="c" x1="28.28" y1="19.76" x2="45" y2="19.76" xlink:href="#b"/><linearGradient id="d" x1="49.17" y1="91.1" x2="55.17" y2="90.5" gradientUnits="userSpaceOnUse"><stop offset="0" stop-color="#971b1e"/><stop offset="1" stop-color="#f29c9d"/></linearGradient><linearGradient id="e" x1="30.31" y1="16.53" x2="41.13" y2="16.53" xlink:href="#b"/><linearGradient id="f" x1="30.31" y1="17.6" x2="39.59" y2="17.6" xlink:href="#b"/><linearGradient id="g" x1="31.39" y1="12.81" x2="42.21" y2="12.81" xlink:href="#b"/><linearGradient id="h" x1="31.42" y1="15.46" x2="42.2" y2="15.46" xlink:href="#b"/><linearGradient id="i" x1="28.44" y1="19.5" x2="36.6" y2="19.5" xlink:href="#b"/><linearGradient id="j" x1="29.88" y1="14.12" x2="31.06" y2="3.85" xlink:href="#b"/><radialGradient id="k" cx="-19.96" cy="24.24" fx="-19.96" fy="24.24" r="39.46" gradientTransform="translate(0 -53.25) scale(1 3.2)" gradientUnits="userSpaceOnUse"><stop offset="0" stop-color="#858485"/><stop offset="1" stop-color="#000"/></radialGradient><radialGradient id="l" cx="-29.45" cy="24.25" fx="-29.45" fy="24.25" r="47.03" gradientTransform="translate(0 -53.26) scale(1 3.2)" xlink:href="#k"/></defs><path class="q" d="m54.7.61c1.81.42,1.7,4.44,1.69,6.97l-16.1-3.58-.29-1.52c4.73-.61,10.68-2.81,14.7-1.87Z"/><path class="s" d="m43.92,23.68c-.83.21-1.68.38-2.55.51,1.81,1.55,4.48,1.69,4.7,4.3.08.9.14,1.75.19,2.59.16,2.5.23,4.86.26,7.5.05,4.25.09,8.51.11,12.77.07,13.42.02,26.84-.18,40.25,0,.19,0,.37,0,.55-.02,1.32-.04,2.65-.06,3.97.7-.14,1.39-.29,2.08-.45.81-.19,1.61-.38,2.4-.59l.02-4.21.22-60.42v-3.25c-.03-3.03-4.85-2.68-7.18-3.54Z"/><path class="u" d="m42.78,52.06c-.63.94,1.43-.79,3.15-.69-.84.46-1.6,1.9-1.95,4.17-.16,1.08-2.32,3.21-5.13,3.14h-.25c.76-.24,2.85-1.4,2.65-3.01,0,0-.64.45-1.39.29.39-.6,2.02-2.89,1.23-3.67,0,0-1.57,1.94-1.81,1.61-.24-.32.46-2.94.06-3.43,0,0-.84,1.88-1.11,1.73-.46-.25-.88-2.65-1.02-2.96,0,0-.08,3.04-.44,2.7s-1.14-1.59-1.26-2.01c-.75.4-.34,3.67,0,4.55-1.07-.68-1.42-1.6-2.28-2.16,0,0-.18,2.36,1.01,3.19,0,0-.59.17-1.23-.03-.05.58,1.45,2.65,3.02,3.16-2.39-.14-5.08-1.62-5.18-4.73-.09-2.62-1.41-3.69-1.41-3.69,2.06-.22,1.98,1.05,2.52,1.05,0,0,.49-2.22-.47-3.26,1.88-.19,2.14,1.82,2.41,1.39.02-.54.4-2.91-.89-4.41,0,0,1.08.02,2.81,1.59-.2-.94-.37-2.83,1.49-5.47.03.9.26,2.84,1.04,4.09.93,1.53.18,3.32.93,3.4.61.05,1.1-2.83,1.21-3.64.69.06.3,4.76.96,5.04.54.23,1.15-1.66,1.49-2.44.16-.4.74,3.18-.16,4.51Z"/><path class="w" d="m44.68,17.52v3.81s-2.21,0-2.21,0c-.77-2.13-3.41-3.22-6.02-3.22v-.54s1.08-.02,1.08-.02h.78s6.37-.04,6.37-.04Z"/><path class="x" d="m39.8,21.36l-6.95.03-2.27.02c.72-2.21,3.29-3.29,5.87-3.29s5.25,1.1,6.02,3.22l-2.66.02Z"/><path class="aa" d="m33.62,92.31l7.73-.09c-2.55.21-5.05.26-7.73.09Z"/><polygon class="y" points="41.11 17.53 38.31 17.55 37.53 17.56 30.3 17.6 32.63 15.48 34.96 15.46 36.82 15.48 36.83 15.48 41.11 17.53"/><polygon class="z" points="37.53 17.56 36.44 17.58 30.26 17.63 30.3 17.6 37.53 17.56"/><polygon class="ae" points="36.85 10.28 36.83 15.48 36.82 15.48 36.76 15.44 34.96 15.46 32.74 15.44 32.74 14.22 32.76 10.14 36.85 10.28"/><polygon class="ad" points="36.82 15.48 34.96 15.46 36.76 15.44 36.82 15.48"/><path class="ac" d="m36.44,17.58v.54c-2.58,0-5.15,1.07-5.86,3.29h-1.99s0-3.8,0-3.8h1.7s-.04.02-.04.02l6.18-.05Z"/><path class="t" d="m46.64,51.36c-.02-4.26-.06-8.52-.11-12.77-.03-2.65-.1-5.01-.26-7.5-.05-.84-.12-1.7-.19-2.59-.23-2.62-2.89-2.76-4.7-4.3-3.5.54-7.22.51-10.74.06-1,.74-1.99,1.54-2.1,3.41-.08,1.18-.14,2.31-.19,3.42-.1,2.2-.14,4.32-.16,6.68-.04,4.1-.08,8.26-.11,12.44-.12,13.77-.2,27.84-.09,41.48,0,.23,0,.46,0,.69,0,1.42.02,2.85.05,4.27.36.06.71.12,1.06.17,1.95.29,3.87.43,5.75.46,1.32.02,2.61,0,3.89-.09,1.97-.12,3.89-.37,5.76-.68.63-.11,1.26-.23,1.88-.35.02-1.32.05-2.65.06-3.97,0-.19,0-.37,0-.55.19-13.41.25-26.83.18-40.25Zm-14.67-.09s.49-2.22-.47-3.26c1.88-.19,2.14,1.82,2.41,1.39.02-.54.4-2.91-.89-4.41,0,0,1.08.02,2.81,1.59-.2-.94-.37-2.83,1.49-5.47.03.9.26,2.84,1.04,4.09.93,1.53.18,3.32.93,3.4.61.05,1.1-2.83,1.21-3.64.69.06.3,4.76.96,5.04.54.23,1.15-1.66,1.49-2.44.16-.4.74,3.18-.16,4.51-.63.94,1.43-.79,3.15-.69-.84.46-1.6,1.9-1.95,4.17-.16,1.08-2.32,3.21-5.13,3.14h-.25c.76-.24,2.85-1.4,2.65-3.01,0,0-.64.45-1.39.29.39-.6,2.02-2.89,1.23-3.67,0,0-1.57,1.94-1.81,1.61-.24-.32.46-2.94.06-3.43,0,0-.84,1.88-1.11,1.73-.46-.25-.88-2.65-1.02-2.96,0,0-.08,3.04-.44,2.7-.37-.33-1.14-1.59-1.26-2.01-.75.4-.34,3.67,0,4.55-1.07-.68-1.42-1.6-2.28-2.16,0,0-.18,2.36,1.01,3.19,0,0-.59.17-1.23-.03-.05.58,1.45,2.65,3.02,3.16-2.39-.14-5.08-1.62-5.18-4.73-.09-2.62-1.41-3.69-1.41-3.69,2.06-.22,1.98,1.05,2.52,1.05Z"/><path class="t" d="m42.69,22.42c-.02-.38-.1-.74-.23-1.07l-2.66.02c.24,1.35.83,2.21,1.57,2.83.86-.13,1.72-.3,2.55-.51-.72-.26-1.19-.64-1.23-1.26Z"/><path class="ab" d="m32.6,10.91l.04,3.32-5.15.05v-.43h.04v-2.72h-.04v-.25l5.11.04Z"/><path class="r" d="m56.78,7.66l-.4-.09-16.1-3.58-.29-1.52-.07-.35c-2.71-.08-4.53,0-7.06-.02-1.57-.02-1.95,1.23-2.38,1.95-1.22.02-2.09.19-2.12,1.18-.02,1.06.94,1.42,2.17,1.41l.24,3.43,1.98.07,4.09.15.55.02,1.56-1.99h2.65c1.08.85,2.6,2.04,3.85,2.57,2.8,1.2,4.13,1.7,7.03,2.35,1.14.26,1.53,1.36,1.88,1.52.49.23,1.25.26,1.5-.24.93-1.91,1.04-4.36.91-6.86Z"/><path class="r" d="m46.39,96.14c-.61.12-1.25.24-1.88.35.63,1.99,1.45,4.27,3.11,3.83.93-.25.99-2.54.84-4.63-.68.16-1.38.31-2.08.45Z"/><path class="r" d="m36.83,100.29c1.04-.04,1.52-1.53,1.92-3.12-1.28.09-2.58.12-3.89.09.37,1.61.77,3.07,1.97,3.03Z"/><path class="r" d="m24.79,95.93c-.19,2.11-.11,4.2.72,4.42,2.17.13,2.85-1.74,3.6-3.55-.35-.05-.7-.11-1.06-.17-1.08-.19-2.16-.42-3.26-.7Z"/><path class="v" d="m39.8,21.36l-6.95.03-2.27.02c-.09.25-.16.51-.19.78-.12.93-1.14,1.32-2.44,1.63-2.41.57-5.75.86-5.85,3.77l.02,2.76.54,60.42.04,4.58c.7.22,1.39.41,2.09.59,1.1.28,2.18.51,3.26.7-.02-1.42-.04-2.84-.05-4.27,0-.23,0-.46,0-.69-.12-13.64-.03-27.71.09-41.48.03-4.18.07-8.34.11-12.44.02-2.36.06-4.48.16-6.68.05-1.11.11-2.23.19-3.42.12-1.87,1.1-2.67,2.1-3.41,3.52.45,7.24.47,10.74-.06-.74-.62-1.33-1.48-1.57-2.83Z"/><path class="af" d="m27.53,11.12v2.72h-.04v-2.72h.04Z"/><path class="ag" d="m27.49,11.12v2.72c-10.6.15-20.93,6.32-23.36,14.94-3.94,14,11.65,23.26,12.13,36.08l5.11,30.7.24,1.46c-5.74,1.28-10.42,1.45-15.31-.26l5.7-31.49c-.27-12.6-15.41-19.34-10.72-38.08,2.83-11.28,14.92-16.47,26.21-16.08Z"/><path class="m" d="m34.86,97.26c.37,1.61.77,3.07,1.97,3.03,1.04-.04,1.52-1.53,1.92-3.12"/><path class="m" d="m24.79,95.93c-.19,2.11-.11,4.2.72,4.42,2.17.13,2.85-1.74,3.6-3.55"/><path class="m" d="m44.51,96.49c.63,1.99,1.45,4.27,3.11,3.83.93-.25.99-2.54.84-4.63"/><path class="m" d="m30.58,21.41c-.09.25-.16.51-.19.78-.12.93-1.14,1.32-2.44,1.63-2.41.57-5.75.86-5.85,3.77l.02,2.76.54,60.42.04,4.58c.7.22,1.39.41,2.09.59,1.1.28,2.18.51,3.26.7.36.06.71.12,1.06.17,1.95.29,3.87.43,5.75.46,1.32.02,2.61,0,3.89-.09,1.97-.12,3.89-.37,5.76-.68.63-.11,1.26-.23,1.88-.35.7-.14,1.39-.29,2.08-.45.81-.19,1.61-.38,2.4-.59l.02-4.21.22-60.42v-3.25c-.03-3.03-4.85-2.68-7.18-3.54-.72-.26-1.19-.64-1.23-1.26-.02-.38-.1-.74-.23-1.07"/><path class="m" d="m41.38,92.23c1.65-.14,3.33-.34,5.08-.61,1.37-.21,2.79-.46,4.3-.73"/><path class="m" d="m23.02,90.76c1.77.37,3.41.69,4.97.92,2,.31,3.85.51,5.63.63,2.68.17,5.18.12,7.73-.09"/><path class="m" d="m22.48,30.34c1.98.3,3.93.55,5.87.74,6.17.6,12.14.61,17.92,0,1.62-.16,3.22-.37,4.8-.62"/><polyline class="m" points="30.3 17.6 28.6 17.61 28.59 21.42 30.58 21.41 32.85 21.39 39.8 21.36 42.47 21.35 44.68 21.34 44.68 17.52 38.31 17.55"/><polyline class="m" points="34.96 15.46 32.63 15.48 30.3 17.6 30.26 17.63 36.44 17.58 37.53 17.56 38.31 17.55 41.11 17.53 36.83 15.48"/><path class="n" d="m40,2.47c4.73-.61,10.68-2.81,14.7-1.87,1.81.42,1.7,4.44,1.69,6.97"/><polyline class="m" points="32.76 10.14 32.74 14.22 32.74 15.44 34.96 15.46 36.82 15.48 36.83 15.48 36.85 10.28"/><path class="m" d="m32.76,10.14l-1.98-.07-.24-3.43c-1.23,0-2.2-.35-2.17-1.41.02-1,.9-1.16,2.12-1.18.44-.72.81-1.97,2.38-1.95,2.53.03,4.35-.05,7.06.02l.07.35.29,1.52,16.1,3.58.4.09c.13,2.5.02,4.95-.91,6.86-.25.5-1.01.47-1.5.24-.35-.16-.74-1.26-1.88-1.52-2.9-.65-4.23-1.15-7.03-2.35-1.25-.53-2.76-1.72-3.85-2.57h-2.65l-1.56,1.99-.55-.02-4.09-.15Z"/><polyline class="m" points="27.49 13.84 27.49 14.27 32.63 14.22 32.6 10.91 27.49 10.87 27.49 11.12"/><path class="o" d="m27.49,13.84h.04v-2.72h-.04c-11.3-.39-23.39,4.8-26.21,16.08-4.69,18.75,10.45,25.49,10.72,38.08l-5.7,31.49c4.89,1.7,9.58,1.53,15.31.26l-.24-1.46-5.11-30.7C15.77,52.04.19,42.78,4.13,28.78c2.43-8.62,12.77-14.79,23.36-14.94Z"/><path class="p" d="m45.92,51.36c-1.71-.09-3.78,1.63-3.15.69.9-1.33.33-4.9.16-4.51-.34.78-.96,2.66-1.49,2.44-.66-.28-.26-4.97-.96-5.04-.11.82-.6,3.7-1.21,3.64-.76-.08,0-1.88-.93-3.4-.77-1.25-1-3.18-1.04-4.09-1.87,2.64-1.7,4.53-1.49,5.47-1.73-1.57-2.81-1.59-2.81-1.59,1.29,1.49.91,3.87.89,4.41-.26.44-.52-1.58-2.41-1.39.97,1.04.47,3.26.47,3.26-.54,0-.47-1.27-2.52-1.05,0,0,1.32,1.07,1.41,3.69.1,3.11,2.79,4.59,5.18,4.73-1.57-.51-3.07-2.58-3.02-3.16.64.2,1.23.03,1.23.03-1.19-.83-1.01-3.19-1.01-3.19.86.56,1.21,1.49,2.28,2.16-.34-.88-.75-4.15,0-4.55.12.42.9,1.67,1.26,2.01s.44-2.7.44-2.7c.14.31.56,2.71,1.02,2.96.27.16,1.11-1.73,1.11-1.73.4.48-.3,3.11-.06,3.43.23.33,1.81-1.61,1.81-1.61.79.78-.84,3.07-1.23,3.67.75.16,1.39-.29,1.39-.29.19,1.61-1.9,2.77-2.65,3.01h.25c2.81.07,4.97-2.06,5.13-3.14.35-2.27,1.11-3.71,1.95-4.17Z"/><line class="p" x1="31.11" y1="61.25" x2="44.02" y2="61.25"/></svg>