<?xml version="1.0" encoding="UTF-8"?><svg id="Layer_1" xmlns="http://www.w3.org/2000/svg" width="72.48" height="150.56" xmlns:xlink="http://www.w3.org/1999/xlink" viewBox="0 0 72.48 150.56"><defs><style>.cls-1{fill:url(#linear-gradient);}.cls-1,.cls-2,.cls-3,.cls-4,.cls-5,.cls-6,.cls-7,.cls-8,.cls-9,.cls-10,.cls-11,.cls-12,.cls-13,.cls-14,.cls-15,.cls-16,.cls-17,.cls-18,.cls-19,.cls-20,.cls-21{stroke-width:0px;}.cls-2{fill:url(#linear-gradient-11);}.cls-3{fill:url(#linear-gradient-12);}.cls-4{fill:url(#linear-gradient-13);}.cls-5{fill:url(#linear-gradient-10);}.cls-6{fill:url(#linear-gradient-14);}.cls-7{fill:url(#linear-gradient-4);}.cls-8{fill:url(#linear-gradient-2);}.cls-9{fill:url(#linear-gradient-3);}.cls-10{fill:url(#linear-gradient-8);}.cls-11{fill:url(#linear-gradient-9);}.cls-12{fill:url(#linear-gradient-7);}.cls-13{fill:url(#linear-gradient-5);}.cls-14{fill:url(#linear-gradient-6);}.cls-22{fill:none;stroke:#000;stroke-width:.75px;}.cls-15{fill:#961b1e;}.cls-16{fill:#ce2127;}.cls-17{fill:#dd2a29;}.cls-18{fill:#c0272d;}.cls-19{fill:#c52627;}.cls-20{fill:#bb2126;}.cls-21{fill:#ec1c24;}</style><linearGradient id="linear-gradient" x1="8.2" y1="44.34" x2="61.9" y2="44.34" gradientUnits="userSpaceOnUse"><stop offset="0" stop-color="#c0272d"/><stop offset=".03" stop-color="#ec1c24"/><stop offset=".78" stop-color="#c0272d"/><stop offset="1" stop-color="#961b1e"/></linearGradient><linearGradient id="linear-gradient-2" x1="10.09" y1="145.49" x2="56.09" y2="145.49" xlink:href="#linear-gradient"/><linearGradient id="linear-gradient-3" x1="53.11" y1="31.07" x2="41.93" y2="31.07" gradientUnits="userSpaceOnUse"><stop offset="0" stop-color="#961b1e"/><stop offset=".76" stop-color="#c0272d"/><stop offset=".99" stop-color="#c0272d"/></linearGradient><linearGradient id="linear-gradient-4" x1="26.37" y1="8.62" x2="43.45" y2="8.62" xlink:href="#linear-gradient"/><linearGradient id="linear-gradient-5" x1="26.43" y1="10.48" x2="43.43" y2="10.48" xlink:href="#linear-gradient"/><linearGradient id="linear-gradient-6" x1="26.37" y1="6.7" x2="43.45" y2="6.7" xlink:href="#linear-gradient"/><linearGradient id="linear-gradient-7" x1="31.75" y1="3.44" x2="38.24" y2="3.44" gradientUnits="userSpaceOnUse"><stop offset="0" stop-color="#c0272d"/><stop offset=".03" stop-color="#ec1c24"/><stop offset=".58" stop-color="#c0272d"/><stop offset=".88" stop-color="#961b1e"/><stop offset=".98" stop-color="#231f20"/></linearGradient><linearGradient id="linear-gradient-8" x1="26.41" y1="10.65" x2="43.44" y2="10.65" xlink:href="#linear-gradient"/><linearGradient id="linear-gradient-9" x1="17.74" y1="26.32" x2="28.49" y2="26.32" gradientUnits="userSpaceOnUse"><stop offset="0" stop-color="#961b1e"/><stop offset=".51" stop-color="#c0272d"/><stop offset=".92" stop-color="#ec1c24"/><stop offset=".99" stop-color="#c0272d"/></linearGradient><linearGradient id="linear-gradient-10" x1="11.88" y1="64.94" x2="11.88" y2="96.13" xlink:href="#linear-gradient"/><linearGradient id="linear-gradient-11" x1="11.92" y1="64.94" x2="11.92" y2="95.71" xlink:href="#linear-gradient"/><linearGradient id="linear-gradient-12" x1=".43" y1="65.04" x2="18.75" y2="65.04" gradientUnits="userSpaceOnUse"><stop offset="0" stop-color="#c0272d"/><stop offset="1" stop-color="#ec1c24"/></linearGradient><linearGradient id="linear-gradient-13" x1=".37" y1="96.03" x2="18.81" y2="96.03" xlink:href="#linear-gradient-12"/><linearGradient id="linear-gradient-14" x1="10.02" y1="64.94" x2="10.02" y2="96.13" xlink:href="#linear-gradient"/></defs><path class="cls-16" d="M12.74,140.8c-.22.69-2.42.61-2.53,1.36-.31,2.01.06,5.42.45,7.42.19.94,34.06.66,45.17.05,2.05-.11,3.33-.24,3.47-.37,1.38-1.27.81-5.56.55-7.19-.13-.8-2.53-.54-2.53-1.38v-44.6h9.11v-.06c-.28-.05-.56-.2-.83-.45.27.24.54.39.83.45.07,0,.14.02.22.02,2,0,3.68-4.99,4.15-11.71h.35l.96-4.2-.94-4.21h-.43c-.52-6.37-2.16-10.99-4.09-10.99-.11,0-.22.02-.33.05h-9v-15.31c-.32.03-.65.07-.98.1.33-.03.65-.06.98-.1,2.35-.23,4.46-.53,4.46-.83v-5.63c0-1.07.3-2.6,0-3.63-.44-1.55-1.86-1.23-3.37-1.15-.77.04-1.53.08-2.28.11v-.11s1.31-23.96-16.31-27.71h3.14c.28,0,.5-.22.5-.5v-3.22c0-.27-.22-.5-.5-.5h-4.71V.37h-6.5v6.14h-4.88c-.27,0-.5.23-.5.5v3.22c0,.28.23.5.5.5h3.65c-14.83,3.5-16.46,24.58-16.62,27.5.58.04,1.19.09,1.83.14-.64-.05-1.25-.1-1.83-.14-3.14-.21-5.41-.22-5.59.5-.23.85,0,2.98,0,3.89v3.57c0,1.84-.21,2.58,1.79,2.93.88.15,1.77.29,2.66.4v15.86l-1.66-.23h0c-.49-.14-.99-.21-1.49-.21h0c-5.09,0-9.22,6.98-9.22,15.6s4.13,15.6,9.22,15.6c.13,0,.25,0,.38-.02v.02l.1-.02s.05,0,.07,0l.78-.13s.05,0,.08-.02l1.75-.3v45.03s0,.08-.02.11"/><polygon class="cls-18" points="69.7 75.93 69.27 75.93 68.31 80.13 67.14 79.92 66.42 79.92 66.42 75.84 69.7 75.93"/><polygon class="cls-18" points="69.53 84.33 69.53 84.35 66.42 84.24 66.42 79.92 67.14 79.92 68.31 80.13 69.24 84.33 69.53 84.33"/><path class="cls-18" d="M66.42,96.03v.06h-9.11v-31.1h9c-2.23.6-3.97,7.32-3.97,15.51s1.8,15.12,4.08,15.54Z"/><polygon class="cls-18" points="66.42 79.92 66.42 84.24 66.31 84.24 65.17 80.04 66.34 75.84 66.42 75.84 66.42 79.92"/><path class="cls-1" d="M23.45,38.91c7.55.43,15.16.37,24.84-.02,2.47-.1,5.07-.22,7.83-.36.74-.03,1.51-.07,2.28-.11,1.51-.08,2.93-.41,3.37,1.15.3,1.03,0,2.56,0,3.63v5.63c0,.3-2.11.6-4.46.83-2.58.27-5.47.46-6.07.49-.49.02-.97.04-1.46.05-8.94.34-17.75.56-27.22.12-1.41-.07-2.83-.15-4.28-.25-1.84-.13-3.69-.32-5.54-.57-.89-.11-1.78-.25-2.66-.4-2-.35-1.79-1.09-1.79-2.93v-3.57c0-.91-.22-3.04,0-3.89.19-.71,2.46-.7,5.59-.5,2.33.16,5.15.43,7.95.6.53.04,1.06.07,1.59.09Z"/><path class="cls-19" d="M57.31,64.99v31.1h-3.56s-3.2-1.55-3.2-15.47c0-12.41,3.2-15.64,3.2-15.64h3.56Z"/><path class="cls-8" d="M23.06,141.72c9.6.58,18.44.37,27.52-.39h0c.02,1.05,1.16.23,2.17-.19.4-.04.78-.07,1.18-.11.11.08.2.19.25.36.5,1.5,1.94.62,1.91,4.32,0,1.31.07,2.66-.26,3.91-11.11.61-44.99.89-45.17-.05-.39-2-.75-5.41-.45-7.42.11-.74,2.31-.66,2.53-1.36,3.56.42,6.99.71,10.33.92Z"/><path class="cls-9" d="M47.55,34.52c-.44-.27-.73-.64-.76-1.12-.06-.81-.5-3.09-1.07-5.78.66,2.29,1.32,4.56,1.83,6.9Z"/><path class="cls-7" d="M31.17,10.58c-.22.04-.44.09-.65.14h-3.65c-.27,0-.5-.22-.5-.5v-3.22c0-.27.23-.5.5-.5h4.88v.37h6.5v-.37h4.71c.28,0,.5.23.5.5v3.22c0,.28-.22.5-.5.5h-3.14c-1.5-.33-3.12-.5-4.9-.5-1.33,0-2.57.12-3.74.36Z"/><path class="cls-13" d="M39.82,10.72h-8.72s.05-.1.08-.14c1.17-.24,2.42-.36,3.74-.36,1.78,0,3.41.17,4.9.5Z"/><path class="cls-19" d="M39.62,115.28c0,2.69.21,18.65,0,21.13-.08.93-1.22,1.5-2.63,1.72l-.02-.16c.8-6.75.4-16.46,0-24.56v-.06c1.48.24,2.65.87,2.65,1.92Z"/><rect class="cls-14" x="31.75" y="6.51" width="6.5" height=".37"/><rect class="cls-12" x="31.75" y=".38" width="6.5" height="6.14"/><path class="cls-20" d="M36.96,113.42c.4,8.1.8,17.8,0,24.56l.02.16c-2.36.37-5.46-.24-5.58-1.72-.22-2.39.42-19.06,0-21.13.26-1.64,3.27-2.29,5.57-1.92v.06Z"/><path class="cls-20" d="M34.95,13.1c1.52,7.31,1.76,14.86.71,22.25v.04c-1.78.09-3.62-.42-3.75-1.51-.26-2.14,1.78-17.17,1.35-19.02.12-1.08.88-1.64,1.69-1.76Z"/><path class="cls-10" d="M31.17,10.58s-.06.09-.08.14h-.57c.22-.05.44-.1.65-.14Z"/><path class="cls-11" d="M27.22,18.29c-1.34,4.68-3.28,13.59-3.4,15.36-.02.28-.12.51-.29.71.35-5.51,1.59-10.96,3.68-16.07Z"/><path class="cls-20" d="M22.72,66.77c.79.32,5.01,2.51,5.01,13.81,0,10.07-3.51,12.65-4.86,13.26-.05-9.67-.09-19.25-.15-27.07Z"/><path class="cls-16" d="M52.75,141.14c.4-.04.78-.07,1.18-.11-.28-.2-.71-.09-1.18.11Z"/><path class="cls-16" d="M47.53,135.46c-.16-2.39.3-19.06,0-21.13.14-1.26,1.45-1.93,2.8-2.01-.07-11.36-.12-23.15-.21-31.7-.02-2.45-.05-4.63-.08-6.46h-.02c-.04-7.5-.18-18.16-.24-23.95-8.94.34-17.75.56-27.22.12.06,2.73.12,8.74.16,16.44.79.32,5.01,2.51,5.01,13.81,0,10.07-3.51,12.65-4.86,13.26.09,21.24.16,42.99.19,47.88,9.6.58,18.44.37,27.52-.39-.02-1.23-.04-2.58-.06-4.05-1.46,0-2.91-.63-2.99-1.82ZM39.62,136.41c-.08.93-1.22,1.5-2.63,1.72-2.36.37-5.46-.24-5.58-1.72-.22-2.39.42-19.06,0-21.13.26-1.64,3.27-2.29,5.57-1.92,1.47.24,2.64.87,2.64,1.92,0,2.69.21,18.65,0,21.13Z"/><path class="cls-16" d="M48.29,38.89v-.07c-.18-1.47-.44-2.9-.74-4.31-.44-.27-.73-.64-.76-1.12-.06-.81-.5-3.09-1.07-5.78,0-.02,0-.04-.02-.06-.84-2.85-1.71-5.71-2.38-8.72-.67-3.1-1.69-6.55-4.5-8v-.11h-7.73c-1.51,2.41-2.8,4.94-3.87,7.57-1.34,4.68-3.28,13.59-3.4,15.36-.02.28-.12.51-.29.71-.11,1.52-.14,3.03-.09,4.55,7.55.43,15.16.37,24.84-.02ZM33.26,14.86c.12-1.08.88-1.64,1.69-1.76,1.52,7.31,1.76,14.86.71,22.25v.04c-1.78.09-3.62-.42-3.75-1.51-.26-2.14,1.78-17.17,1.35-19.02Z"/><path class="cls-16" d="M16.74,114.47c.31,2.07-.16,18.74,0,21.13.12,1.77,3.33,2.28,5.05,1.42.6-.31,1.02-.77,1.06-1.42.16-2.49,0-18.44,0-21.13s-5.8-2.69-6.11,0Z"/><path class="cls-20" d="M22.72,66.77c.06,7.82.1,17.4.15,27.07-.33.15-.52.19-.52.19l-9.6,1.62v-.46c3.54-2.19,6.06-7.93,6.06-14.67s-2.53-12.48-6.06-14.67v-.5l9.84,1.36s.05,0,.13.04Z"/><path class="cls-18" d="M12.75,77.97v-.52l.9.62-.07,3.78-.83.58v-4.47Z"/><path class="cls-5" d="M12.75,95.2v.46l-1.75.3c.6-.16,1.19-.42,1.75-.75Z"/><path class="cls-18" d="M12.75,77.97v4.47l-1.91,1.36-1.02.08-.02-1.44.64-.58.09-4.13-.79-.68-.02-1.04,1.26.23,1.77,1.22v.52Z"/><path class="cls-2" d="M12.75,65.37v.5c-.53-.32-1.09-.56-1.66-.72l1.66.23Z"/><path class="cls-3" d="M11.09,65.14l-1.5-.21c.51,0,1.01.07,1.5.21Z"/><path class="cls-4" d="M10.14,96.1l.78-.13c-.26.06-.51.11-.78.13Z"/><polygon class="cls-21" points="10.53 77.72 10.45 81.85 9.8 82.43 9.74 77.04 10.53 77.72"/><path class="cls-6" d="M10.07,96.11l-.1.02v-.02h.1Z"/><path class="cls-17" d="M30.52,10.72c-14.83,3.5-16.46,24.58-16.62,27.5,2.33.16,5.15.43,7.95.6.53.04,1.06.07,1.59.09-.05-1.52-.02-3.04.09-4.55.35-5.51,1.59-10.96,3.68-16.07,1.07-2.62,2.37-5.16,3.87-7.57h-.57Z"/><path class="cls-17" d="M22.35,94.03l-9.6,1.62v45.03s0,.08-.02.11c3.56.42,6.99.71,10.33.92-.03-4.89-.1-26.64-.19-47.88-.33.15-.52.19-.52.19ZM22.85,135.6c-.04.64-.46,1.11-1.06,1.42-1.72.86-4.93.36-5.05-1.42-.16-2.39.31-19.06,0-21.13.31-2.69,6.11-2.69,6.11,0s.16,18.65,0,21.13Z"/><path class="cls-17" d="M22.72,66.77c-.04-7.69-.1-13.7-.16-16.44-1.41-.07-2.83-.15-4.28-.25-1.84-.13-3.69-.32-5.54-.57v15.86l9.84,1.36s.05,0,.13.04Z"/><path class="cls-17" d="M18.81,80.53c0-6.73-2.53-12.48-6.06-14.67-.53-.32-1.09-.56-1.66-.72l-1.5-.21c-5.09,0-9.22,6.98-9.22,15.6s4.13,15.6,9.22,15.6c.13,0,.25,0,.38-.02h.1s.05,0,.07,0l.78-.13s.05,0,.08-.02c.6-.16,1.19-.42,1.75-.75,3.54-2.19,6.06-7.93,6.06-14.67ZM10.84,83.79l-1.02.08-1.76.14h-.02v-.02l-2.27-1.96.1-4.13,2.38-2.16.03.03v-.03l1.45.26,1.26.23,1.77,1.22.9.62-.07,3.78-.83.58-1.91,1.36Z"/><polygon class="cls-18" points="9.8 82.43 9.82 83.87 8.06 84.01 9.8 82.43"/><polygon class="cls-21" points="9.74 77.04 9.8 82.43 8.06 84.01 8.04 83.99 8.28 75.77 9.74 77.04"/><polygon class="cls-18" points="9.74 77.04 8.28 75.77 8.28 75.74 9.72 76 9.74 77.04"/><polygon class="cls-21" points="8.25 75.74 8.28 75.77 8.04 83.99 5.77 82.03 5.87 77.9 8.25 75.74"/><path class="cls-15" d="M71.16,75.93h-.43c-.52-6.37-2.16-10.99-4.09-10.99-.11,0-.22.02-.33.05-2.23.6-3.97,7.32-3.97,15.51s1.8,15.12,4.08,15.54c.07,0,.14.02.22.02,2,0,3.68-4.99,4.15-11.71h.35l.96-4.2-.94-4.21ZM69.53,84.35l-3.11-.11h-.11l-1.14-4.2,1.17-4.2h.08l3.28.09h-.43l-.96,4.2.93,4.2h.29v.02Z"/><path class="cls-15" d="M57.31,140.69v-44.6h-3.56s-3.2-1.55-3.2-15.47c0-12.41,3.2-15.64,3.2-15.64h3.56v-15.31c-2.58.27-5.47.46-6.07.49-.49.02-.97.04-1.46.05.06,5.79.2,16.46.24,23.95h.02c.03,1.82.06,4.01.08,6.46.09,8.55.14,20.34.21,31.7-1.36.08-2.66.75-2.8,2.01.3,2.07-.16,18.74,0,21.13.08,1.19,1.53,1.81,2.99,1.82.02,1.47.04,2.82.06,4.05h0c.02,1.05,1.16.23,2.17-.19.47-.2.9-.31,1.18-.11.11.08.2.19.25.36.5,1.5,1.94.62,1.91,4.32,0,1.31.07,2.66-.26,3.91,2.05-.11,3.33-.24,3.47-.37,1.38-1.27.81-5.56.55-7.19-.13-.8-2.53-.54-2.53-1.38Z"/><path class="cls-15" d="M48.29,38.83v.07c2.47-.1,5.07-.22,7.83-.36v-.11s1.31-23.96-16.31-27.71h-.99v.11c2.8,1.46,3.82,4.9,4.5,8,.66,3.01,1.53,5.87,2.38,8.72,0,.02,0,.04.02.06.66,2.29,1.32,4.56,1.83,6.9.31,1.41.56,2.84.74,4.31Z"/><polygon class="cls-15" points="8.04 84.01 8.06 84.01 8.04 83.99 8.04 84.01"/><path class="cls-22" d="M39.82,10.72c17.62,3.74,16.3,27.71,16.3,27.71"/><path class="cls-22" d="M13.89,38.56s0-.12,0-.34c.16-2.92,1.78-24,16.62-27.5"/><path class="cls-22" d="M56.12,38.54c.74-.03,1.51-.07,2.28-.11,1.51-.08,2.93-.41,3.37,1.15.3,1.03,0,2.56,0,3.63v5.63c0,.3-2.11.6-4.46.83-2.58.27-5.47.46-6.07.49-.49.02-.97.04-1.46.05-8.94.34-17.75.56-27.22.12-1.41-.07-2.83-.15-4.28-.25-1.84-.13-3.69-.32-5.54-.57-.89-.11-1.78-.25-2.66-.4-2-.35-1.79-1.09-1.79-2.93v-3.57c0-.91-.22-3.04,0-3.89.19-.71,2.46-.7,5.59-.5,2.33.16,5.15.43,7.95.6.53.04,1.06.07,1.59.09,7.55.43,15.16.37,24.84-.02,2.47-.1,5.07-.22,7.83-.36Z"/><path class="cls-22" d="M12.75,65.37v-16.03"/><path class="cls-22" d="M57.31,96.09v44.6c0,.83,2.41.57,2.53,1.38.26,1.63.82,5.92-.55,7.19-.14.13-1.42.26-3.47.37-11.11.61-44.99.89-45.17-.05-.39-2-.75-5.41-.45-7.42.11-.74,2.31-.66,2.53-1.36,0-.03.02-.07.02-.11v-45.03"/><path class="cls-22" d="M57.31,49.34v15.65"/><path class="cls-22" d="M11.09,65.14l1.66.23,9.84,1.36s.05,0,.13.04c.79.32,5.01,2.51,5.01,13.81,0,10.07-3.51,12.65-4.86,13.26-.33.15-.52.19-.52.19l-9.6,1.62-1.75.3"/><polyline class="cls-22" points="10.07 96.11 9.97 96.13 9.97 96.11"/><path class="cls-22" d="M12.75,65.87c3.54,2.19,6.06,7.93,6.06,14.67s-2.53,12.48-6.06,14.67c-.56.34-1.15.59-1.75.75-.03,0-.05,0-.08.02-.26.06-.51.11-.78.13-.02,0-.05,0-.07,0h-.1c-.13.02-.25.02-.38.02-5.09,0-9.22-6.98-9.22-15.6s4.13-15.6,9.22-15.6c.51,0,1.01.07,1.5.21.57.16,1.13.41,1.66.72Z"/><polyline class="cls-22" points="8.28 75.77 8.28 75.74 9.72 76 10.98 76.23 12.75 77.44 13.65 78.07 13.58 81.85 12.75 82.43 10.84 83.79 9.82 83.87 8.06 84.01 8.04 84.01 8.04 83.99"/><polygon class="cls-22" points="8.06 84.01 8.04 83.99 5.77 82.03 5.87 77.9 8.25 75.74 8.28 75.77 9.74 77.04 10.53 77.72 10.45 81.85 9.8 82.43 8.06 84.01"/><polyline class="cls-22" points="11.66 77.77 12.75 77.97 12.77 77.97"/><line class="cls-22" x1="11.61" y1="81.9" x2="12.74" y2="81.85"/><path class="cls-22" d="M66.42,96.03v.06h-12.67s-3.2-1.55-3.2-15.47c0-12.41,3.2-15.64,3.2-15.64h12.57"/><path class="cls-22" d="M70.79,84.34c-.47,6.72-2.15,11.71-4.15,11.71-.08,0-.15,0-.22-.02-2.28-.42-4.08-7.22-4.08-15.54s1.74-14.9,3.97-15.51c.11-.03.22-.05.33-.05,1.93,0,3.56,4.62,4.09,10.99"/><polyline class="cls-22" points="69.53 84.33 69.53 84.35 66.42 84.24 66.31 84.24 65.17 80.04 66.34 75.84 66.42 75.84 69.7 75.93"/><polygon class="cls-22" points="70.73 75.93 71.16 75.93 72.1 80.14 71.14 84.34 70.79 84.34 69.53 84.33 69.24 84.33 68.31 80.13 69.27 75.93 69.7 75.93 70.73 75.93"/><polyline class="cls-22" points="66.15 79.92 66.42 79.92 67.14 79.92"/><polyline class="cls-22" points="31.75 6.51 31.75 .38 38.24 .38 38.24 6.51"/><line class="cls-22" x1="32.89" y1=".56" x2="32.89" y2="5.13"/><line class="cls-22" x1="36.38" y1=".56" x2="36.38" y2="5.13"/><path class="cls-22" d="M38.24,6.51h4.71c.28,0,.5.23.5.5v3.22c0,.28-.22.5-.5.5h-16.09c-.27,0-.5-.22-.5-.5v-3.22c0-.27.23-.5.5-.5h11.38Z"/><path class="cls-22" d="M22.85,135.6c-.04.64-.46,1.11-1.06,1.42-1.72.86-4.93.36-5.05-1.42-.16-2.39.31-19.06,0-21.13.31-2.69,6.11-2.69,6.11,0s.16,18.65,0,21.13Z"/><path class="cls-22" d="M36.97,113.36c1.47.24,2.64.87,2.64,1.92,0,2.69.21,18.65,0,21.13-.08.93-1.22,1.5-2.63,1.72-2.36.37-5.46-.24-5.58-1.72-.22-2.39.42-19.06,0-21.13.26-1.64,3.27-2.29,5.57-1.92Z"/><path class="cls-22" d="M50.33,112.32c1.53-.1,3.14.57,3.14,2.01,0,2.69.16,18.65,0,21.13-.05.91-.85,1.48-1.85,1.7-.35.08-.72.12-1.1.12-1.46,0-2.91-.63-2.99-1.82-.16-2.39.3-19.06,0-21.13.14-1.26,1.45-1.93,2.8-2.01Z"/><path class="cls-22" d="M34.95,13.1c1.1-.17,2.32.46,2.37,1.74.09,2.43,1.84,16.54,1.74,18.78-.06,1.1-1.7,1.69-3.4,1.76-1.78.09-3.62-.42-3.75-1.51-.26-2.14,1.78-17.17,1.35-19.02.12-1.08.88-1.64,1.69-1.76Z"/><path class="cls-22" d="M27.22,18.29c-1.34,4.68-3.28,13.59-3.4,15.36-.02.28-.12.51-.29.71"/><path class="cls-22" d="M45.72,27.62c.57,2.69,1.01,4.97,1.07,5.78.03.48.33.85.76,1.12.64.4,1.62.56,2.55.51,1.4-.07,2.72-.62,2.79-1.63.16-2.15-5.69-15.37-7.79-18.09-1.67-2.01-2.78-2.27-2.98-1.53"/><path class="cls-22" d="M12.44,140.77l.3.03c3.56.42,6.99.71,10.33.92,9.6.58,18.44.37,27.52-.39.72-.06,1.45-.12,2.17-.19.4-.04.78-.07,1.18-.11,1.12-.11,2.25-.23,3.39-.35"/></svg>