<?xml version="1.0" encoding="UTF-8"?><svg id="Layer_1" xmlns="http://www.w3.org/2000/svg" width="72.5" height="150.6" xmlns:xlink="http://www.w3.org/1999/xlink" viewBox="0 0 72.5 150.6"><defs><style>.cls-1{stroke-linecap:round;stroke-linejoin:round;}.cls-1,.cls-2{fill:none;stroke:#000;stroke-width:.8px;}.cls-3{fill:url(#linear-gradient);}.cls-3,.cls-4,.cls-5,.cls-6,.cls-7,.cls-8,.cls-9,.cls-10,.cls-11,.cls-12,.cls-13,.cls-14,.cls-15,.cls-16,.cls-17,.cls-18,.cls-19,.cls-20,.cls-21,.cls-22,.cls-23{stroke-width:0px;}.cls-4{fill:url(#linear-gradient-11);}.cls-5{fill:url(#linear-gradient-12);}.cls-6{fill:url(#linear-gradient-13);}.cls-7{fill:url(#linear-gradient-10);}.cls-8{fill:url(#linear-gradient-14);}.cls-9{fill:url(#linear-gradient-4);}.cls-10{fill:url(#linear-gradient-2);}.cls-11{fill:url(#linear-gradient-3);}.cls-12{fill:url(#linear-gradient-8);}.cls-13{fill:url(#linear-gradient-9);}.cls-14{fill:url(#linear-gradient-7);}.cls-15{fill:url(#linear-gradient-5);}.cls-16{fill:url(#linear-gradient-6);}.cls-17{fill:#961b1e;}.cls-18{fill:#ce2127;}.cls-19{fill:#dd2a29;}.cls-20{fill:#c0272d;}.cls-21{fill:#c52627;}.cls-22{fill:#bb2126;}.cls-23{fill:#ec1c24;}</style><linearGradient id="linear-gradient" x1="8.2" y1="44.3" x2="61.9" y2="44.3" gradientUnits="userSpaceOnUse"><stop offset="0" stop-color="#c0272d"/><stop offset="0" stop-color="#ec1c24"/><stop offset=".8" stop-color="#c0272d"/><stop offset="1" stop-color="#961b1e"/></linearGradient><linearGradient id="linear-gradient-2" x1="10.1" y1="145.5" x2="56.1" y2="145.5" xlink:href="#linear-gradient"/><linearGradient id="linear-gradient-3" x1="53.1" y1="31.1" x2="41.9" y2="31.1" gradientUnits="userSpaceOnUse"><stop offset="0" stop-color="#961b1e"/><stop offset=".8" stop-color="#c0272d"/><stop offset="1" stop-color="#c0272d"/></linearGradient><linearGradient id="linear-gradient-4" x1="26.4" y1="8.6" x2="43.4" y2="8.6" xlink:href="#linear-gradient"/><linearGradient id="linear-gradient-5" x1="26.4" y1="10.5" x2="43.4" y2="10.5" xlink:href="#linear-gradient"/><linearGradient id="linear-gradient-6" x1="26.4" y1="6.7" x2="43.4" y2="6.7" xlink:href="#linear-gradient"/><linearGradient id="linear-gradient-7" x1="31.7" y1="3.4" x2="38.2" y2="3.4" gradientUnits="userSpaceOnUse"><stop offset="0" stop-color="#c0272d"/><stop offset="0" stop-color="#ec1c24"/><stop offset=".6" stop-color="#c0272d"/><stop offset=".9" stop-color="#961b1e"/><stop offset="1" stop-color="#231f20"/></linearGradient><linearGradient id="linear-gradient-8" x1="26.4" y1="10.7" x2="43.4" y2="10.7" xlink:href="#linear-gradient"/><linearGradient id="linear-gradient-9" x1="17.7" y1="26.3" x2="28.5" y2="26.3" gradientUnits="userSpaceOnUse"><stop offset="0" stop-color="#961b1e"/><stop offset=".5" stop-color="#c0272d"/><stop offset=".9" stop-color="#ec1c24"/><stop offset="1" stop-color="#c0272d"/></linearGradient><linearGradient id="linear-gradient-10" x1="11.9" y1="64.9" x2="11.9" y2="96.1" xlink:href="#linear-gradient"/><linearGradient id="linear-gradient-11" x1="11.9" y1="64.9" x2="11.9" y2="95.7" xlink:href="#linear-gradient"/><linearGradient id="linear-gradient-12" x1=".4" y1="65" x2="18.7" y2="65" gradientUnits="userSpaceOnUse"><stop offset="0" stop-color="#c0272d"/><stop offset="1" stop-color="#ec1c24"/></linearGradient><linearGradient id="linear-gradient-13" x1=".4" y1="96" x2="18.8" y2="96" xlink:href="#linear-gradient-12"/><linearGradient id="linear-gradient-14" x1="10" y1="64.9" x2="10" y2="96.1" xlink:href="#linear-gradient"/></defs><path class="cls-18" d="M12.7,140.8c-.2.7-2.4.6-2.5,1.4-.3,2,0,5.4.4,7.4.2.9,34.1.7,45.2,0,2-.1,3.3-.2,3.5-.4,1.4-1.3.8-5.6.6-7.2-.1-.8-2.5-.5-2.5-1.4v-44.6h9.1c-.3-.1-.6-.3-.8-.5.3.2.5.4.8.4,0,0,.1,0,.2,0,2,0,3.7-5,4.1-11.7h.3l1-4.2-.9-4.2h-.4c-.5-6.4-2.2-11-4.1-11s-.2,0-.3,0h-9v-15.3c-.3,0-.7,0-1,0,.3,0,.7,0,1,0,2.3-.2,4.5-.5,4.5-.8v-5.6c0-1.1.3-2.6,0-3.6-.4-1.6-1.9-1.2-3.4-1.1-.8,0-1.5,0-2.3.1h0c0-.1,1.3-24.1-16.3-27.8h3.1c.3,0,.5-.2.5-.5v-3.2c0-.3-.2-.5-.5-.5h-4.7V.4h-6.5v6.1h-4.9c-.3,0-.5.2-.5.5v3.2c0,.3.2.5.5.5h3.7c-14.8,3.5-16.5,24.6-16.6,27.5.6,0,1.2,0,1.8.1-.6,0-1.2,0-1.8-.1-3.1-.2-5.4-.2-5.6.5-.2.9,0,3,0,3.9v3.6c0,1.8-.2,2.6,1.8,2.9.9.1,1.8.3,2.7.4v15.9l-1.7-.2h0c-.5-.1-1-.2-1.5-.2h0c-5.1,0-9.2,7-9.2,15.6s4.1,15.6,9.2,15.6.2,0,.4,0h0s0,0,0,0c0,0,0,0,0,0h.8c0-.1,0-.1,0-.1l1.8-.3v45s0,0,0,.1"/><polygon class="cls-20" points="69.7 75.9 69.3 75.9 68.3 80.1 67.1 79.9 66.4 79.9 66.4 75.8 69.7 75.9"/><polygon class="cls-20" points="69.5 84.3 69.5 84.3 66.4 84.2 66.4 79.9 67.1 79.9 68.3 80.1 69.2 84.3 69.5 84.3"/><path class="cls-20" d="M66.4,96h0c0,0-9.1,0-9.1,0v-31.1h9c-2.2.6-4,7.3-4,15.5s1.8,15.1,4.1,15.5Z"/><polygon class="cls-20" points="66.4 79.9 66.4 84.2 66.3 84.2 65.2 80 66.3 75.8 66.4 75.8 66.4 79.9"/><path class="cls-3" d="M23.4,38.9c7.5.4,15.2.4,24.8,0,2.5,0,5.1-.2,7.8-.4.7,0,1.5,0,2.3-.1,1.5,0,2.9-.4,3.4,1.1.3,1,0,2.6,0,3.6v5.6c0,.3-2.1.6-4.5.8-2.6.3-5.5.5-6.1.5-.5,0-1,0-1.5,0-8.9.3-17.8.6-27.2.1-1.4,0-2.8-.1-4.3-.2-1.8-.1-3.7-.3-5.5-.6-.9-.1-1.8-.2-2.7-.4-2-.3-1.8-1.1-1.8-2.9v-3.6c0-.9-.2-3,0-3.9.2-.7,2.5-.7,5.6-.5,2.3.2,5.1.4,8,.6.5,0,1.1,0,1.6,0Z"/><path class="cls-21" d="M57.3,65v31.1h-3.6s-3.2-1.6-3.2-15.5,3.2-15.6,3.2-15.6h3.6Z"/><path class="cls-10" d="M23.1,141.7c9.6.6,18.4.4,27.5-.4h0c0,1,1.2.2,2.2-.2.4,0,.8,0,1.2-.1.1,0,.2.2.2.4.5,1.5,1.9.6,1.9,4.3,0,1.3,0,2.7-.3,3.9-11.1.6-45,.9-45.2,0-.4-2-.8-5.4-.4-7.4.1-.7,2.3-.7,2.5-1.4,3.6.4,7,.7,10.3.9Z"/><path class="cls-11" d="M47.5,34.5c-.4-.3-.7-.6-.8-1.1,0-.8-.5-3.1-1.1-5.8.7,2.3,1.3,4.6,1.8,6.9Z"/><path class="cls-9" d="M31.2,10.6c-.2,0-.4,0-.7.1h-3.7c-.3,0-.5-.2-.5-.5v-3.2c0-.3.2-.5.5-.5h4.9v.4h6.5v-.4h4.7c.3,0,.5.2.5.5v3.2c0,.3-.2.5-.5.5h-3.1c-1.5-.3-3.1-.5-4.9-.5s-2.6.1-3.7.4Z"/><path class="cls-15" d="M39.8,10.7h-8.7s0,0,0-.1c1.2-.2,2.4-.4,3.7-.4s3.4.2,4.9.5Z"/><path class="cls-21" d="M39.6,115.3c0,2.7.2,18.6,0,21.1,0,.9-1.2,1.5-2.6,1.7v-.2c.8-6.8.4-16.5,0-24.6h0c1.5.2,2.6.8,2.6,1.9Z"/><rect class="cls-16" x="31.7" y="6.5" width="6.5" height=".4"/><rect class="cls-14" x="31.7" y=".4" width="6.5" height="6.1"/><path class="cls-22" d="M37,113.4c.4,8.1.8,17.8,0,24.6v.2c-2.3.4-5.4-.2-5.6-1.7-.2-2.4.4-19.1,0-21.1.3-1.6,3.3-2.3,5.6-1.9h0Z"/><path class="cls-22" d="M35,13.1c1.5,7.3,1.8,14.9.7,22.3h0c-1.8.1-3.6-.4-3.8-1.5-.3-2.1,1.8-17.2,1.3-19,.1-1.1.9-1.6,1.7-1.8Z"/><path class="cls-12" d="M31.2,10.6s0,0,0,.1h-.6c.2,0,.4,0,.7-.1Z"/><path class="cls-13" d="M27.2,18.3c-1.3,4.7-3.3,13.6-3.4,15.4,0,.3-.1.5-.3.7.3-5.5,1.6-11,3.7-16.1Z"/><path class="cls-22" d="M22.7,66.8c.8.3,5,2.5,5,13.8s-3.5,12.6-4.9,13.3c0-9.7,0-19.2-.1-27.1Z"/><path class="cls-18" d="M52.7,141.1c.4,0,.8,0,1.2-.1-.3-.2-.7,0-1.2.1Z"/><path class="cls-18" d="M47.5,135.5c-.2-2.4.3-19.1,0-21.1.1-1.3,1.4-1.9,2.8-2,0-11.4-.1-23.2-.2-31.7,0-2.4,0-4.6,0-6.5h0c0-7.5-.2-18.2-.2-24-8.9.3-17.8.6-27.2.1,0,2.7.1,8.7.2,16.4.8.3,5,2.5,5,13.8s-3.5,12.6-4.9,13.3c0,21.2.2,43,.2,47.9,9.6.6,18.4.4,27.5-.4,0-1.2,0-2.6,0-4-1.5,0-2.9-.6-3-1.8ZM39.6,136.4c0,.9-1.2,1.5-2.6,1.7-2.4.4-5.5-.2-5.6-1.7-.2-2.4.4-19.1,0-21.1.3-1.6,3.3-2.3,5.6-1.9,1.5.2,2.6.9,2.6,1.9,0,2.7.2,18.6,0,21.1Z"/><path class="cls-18" d="M48.3,38.9h0c-.2-1.5-.4-3-.7-4.4-.4-.3-.7-.6-.8-1.1,0-.8-.5-3.1-1.1-5.8,0,0,0,0,0,0-.8-2.9-1.7-5.7-2.4-8.7-.7-3.1-1.7-6.5-4.5-8h0c0-.1-7.7-.1-7.7-.1-1.5,2.4-2.8,4.9-3.9,7.6-1.3,4.7-3.3,13.6-3.4,15.4,0,.3-.1.5-.3.7-.1,1.5-.1,3,0,4.6,7.5.4,15.2.4,24.8,0ZM33.3,14.9c.1-1.1.9-1.6,1.7-1.8,1.5,7.3,1.8,14.9.7,22.3h0c-1.8.1-3.6-.4-3.8-1.5-.3-2.1,1.8-17.2,1.3-19Z"/><path class="cls-18" d="M16.7,114.5c.3,2.1-.2,18.7,0,21.1.1,1.8,3.3,2.3,5.1,1.4.6-.3,1-.8,1.1-1.4.2-2.5,0-18.4,0-21.1s-5.8-2.7-6.1,0Z"/><path class="cls-22" d="M22.7,66.8c0,7.8,0,17.4.1,27.1-.3.1-.5.2-.5.2l-9.6,1.6v-.5c3.5-2.2,6.1-7.9,6.1-14.7s-2.5-12.5-6.1-14.7v-.5l9.8,1.4s0,0,.1,0Z"/><path class="cls-20" d="M12.8,78v-.5l.9.6v3.8c0,0-.9.6-.9.6v-4.5Z"/><path class="cls-7" d="M12.8,95.2v.5l-1.8.3c.6-.2,1.2-.4,1.8-.8Z"/><path class="cls-20" d="M12.8,78v4.5l-1.9,1.4h-1c0,0,0-1.4,0-1.4l.6-.6v-4.1c0,0-.7-.7-.7-.7v-1s1.2.2,1.2.2l1.8,1.2v.5Z"/><path class="cls-4" d="M12.8,65.4v.5c-.5-.3-1.1-.6-1.7-.7l1.7.2Z"/><path class="cls-5" d="M11.1,65.1l-1.5-.2c.5,0,1,0,1.5.2Z"/><path class="cls-6" d="M10.1,96.1h.8c-.3,0-.5,0-.8,0Z"/><polygon class="cls-23" points="10.5 77.7 10.4 81.8 9.8 82.4 9.7 77 10.5 77.7"/><path class="cls-8" d="M10.1,96.1h0s0,0,0,0h0Z"/><path class="cls-19" d="M30.5,10.7c-14.8,3.5-16.5,24.6-16.6,27.5,2.3.2,5.1.4,8,.6.5,0,1.1,0,1.6,0,0-1.5,0-3,0-4.6.3-5.5,1.6-11,3.7-16.1,1.1-2.6,2.4-5.2,3.9-7.6h-.6Z"/><path class="cls-19" d="M22.3,94l-9.6,1.6v45s0,0,0,.1c3.6.4,7,.7,10.3.9,0-4.9,0-26.6-.2-47.9-.3.1-.5.2-.5.2ZM22.9,135.6c0,.6-.5,1.1-1.1,1.4-1.7.9-4.9.4-5.1-1.4-.2-2.4.3-19.1,0-21.1.3-2.7,6.1-2.7,6.1,0s.2,18.6,0,21.1Z"/><path class="cls-19" d="M22.7,66.8c0-7.7,0-13.7-.2-16.4-1.4,0-2.8-.1-4.3-.2-1.8-.1-3.7-.3-5.5-.6v15.9l9.8,1.4s0,0,.1,0Z"/><path class="cls-19" d="M18.8,80.5c0-6.7-2.5-12.5-6.1-14.7-.5-.3-1.1-.6-1.7-.7l-1.5-.2c-5.1,0-9.2,7-9.2,15.6s4.1,15.6,9.2,15.6.2,0,.4,0h0s0,0,0,0h.8c0-.1,0-.1,0-.1.6-.2,1.2-.4,1.8-.8,3.5-2.2,6.1-7.9,6.1-14.7ZM10.8,83.8h-1c0,0-1.8.2-1.8.2h0s-2.3-2-2.3-2v-4.1c0,0,2.5-2.2,2.5-2.2h0s0,0,0,0l1.4.3,1.3.2,1.8,1.2.9.6v3.8c0,0-.9.6-.9.6l-1.9,1.4Z"/><polygon class="cls-20" points="9.8 82.4 9.8 83.9 8.1 84 9.8 82.4"/><polygon class="cls-23" points="9.7 77 9.8 82.4 8.1 84 8 84 8.3 75.8 9.7 77"/><polygon class="cls-20" points="9.7 77 8.3 75.8 8.3 75.7 9.7 76 9.7 77"/><polygon class="cls-23" points="8.2 75.7 8.3 75.8 8 84 5.8 82 5.9 77.9 8.2 75.7"/><path class="cls-17" d="M71.2,75.9h-.4c-.5-6.4-2.2-11-4.1-11s-.2,0-.3,0c-2.2.6-4,7.3-4,15.5s1.8,15.1,4.1,15.5c0,0,.1,0,.2,0,2,0,3.7-5,4.1-11.7h.3l1-4.2-.9-4.2ZM69.5,84.3h-3.1c0-.1-.1-.1-.1-.1l-1.1-4.2,1.2-4.2h3.4c0,0-.4,0-.4,0l-1,4.2.9,4.2h.3Z"/><path class="cls-17" d="M57.3,140.7v-44.6h-3.6s-3.2-1.6-3.2-15.5,3.2-15.6,3.2-15.6h3.6v-15.3c-2.6.3-5.5.5-6.1.5-.5,0-1,0-1.5,0,0,5.8.2,16.5.2,24h0c0,1.8,0,4,0,6.5,0,8.5.1,20.3.2,31.7-1.4,0-2.7.8-2.8,2,.3,2.1-.2,18.7,0,21.1,0,1.2,1.5,1.8,3,1.8,0,1.5,0,2.8,0,4h0c0,1,1.2.2,2.2-.2.5-.2.9-.3,1.2-.1.1,0,.2.2.2.4.5,1.5,1.9.6,1.9,4.3,0,1.3,0,2.7-.3,3.9,2-.1,3.3-.2,3.5-.4,1.4-1.3.8-5.6.6-7.2-.1-.8-2.5-.5-2.5-1.4Z"/><path class="cls-17" d="M48.3,38.8h0c2.5,0,5.1-.1,7.8-.3h0c0-.1,1.3-24.1-16.3-27.8h-1c2.8,1.6,3.8,5,4.5,8.1.7,3,1.5,5.9,2.4,8.7,0,0,0,0,0,0,.7,2.3,1.3,4.6,1.8,6.9.3,1.4.6,2.8.7,4.3Z"/><polygon class="cls-17" points="8 84 8.1 84 8 84 8 84"/><path class="cls-2" d="M39.8,10.7c17.6,3.7,16.3,27.7,16.3,27.7"/><path class="cls-2" d="M13.9,38.6s0-.1,0-.3c.2-2.9,1.8-24,16.6-27.5"/><path class="cls-2" d="M56.1,38.5c.7,0,1.5,0,2.3-.1,1.5,0,2.9-.4,3.4,1.1.3,1,0,2.6,0,3.6v5.6c0,.3-2.1.6-4.5.8-2.6.3-5.5.5-6.1.5-.5,0-1,0-1.5,0-8.9.3-17.8.6-27.2.1-1.4,0-2.8-.1-4.3-.2-1.8-.1-3.7-.3-5.5-.6-.9-.1-1.8-.2-2.7-.4-2-.3-1.8-1.1-1.8-2.9v-3.6c0-.9-.2-3,0-3.9.2-.7,2.5-.7,5.6-.5,2.3.2,5.1.4,8,.6.5,0,1.1,0,1.6,0,7.5.4,15.2.4,24.8,0,2.5,0,5.1-.2,7.8-.4Z"/><path class="cls-2" d="M12.8,65.4v-16"/><path class="cls-2" d="M57.3,96.1v44.6c0,.8,2.4.6,2.5,1.4.3,1.6.8,5.9-.6,7.2-.1.1-1.4.3-3.5.4-11.1.6-45,.9-45.2,0-.4-2-.8-5.4-.4-7.4.1-.7,2.3-.7,2.5-1.4,0,0,0,0,0-.1v-45"/><path class="cls-2" d="M57.3,49.3v15.6"/><path class="cls-2" d="M11.1,65.1l1.7.2,9.8,1.4s0,0,.1,0c.8.3,5,2.5,5,13.8s-3.5,12.6-4.9,13.3c-.3.1-.5.2-.5.2l-9.6,1.6-1.8.3"/><polyline class="cls-2" points="10.1 96.1 10 96.1 10 96.1"/><path class="cls-2" d="M12.8,65.9c3.5,2.2,6.1,7.9,6.1,14.7s-2.5,12.5-6.1,14.7c-.6.3-1.1.6-1.8.8,0,0,0,0,0,0-.3,0-.5.1-.8.1,0,0,0,0,0,0h0c-.1,0-.2,0-.4,0-5.1,0-9.2-7-9.2-15.6s4.1-15.6,9.2-15.6,1,0,1.5.2c.6.2,1.1.4,1.7.7Z"/><polyline class="cls-2" points="8.3 75.8 8.3 75.7 9.7 76 11 76.2 12.8 77.4 13.7 78.1 13.6 81.8 12.8 82.4 10.8 83.8 9.8 83.9 8.1 84 8 84 8 84"/><polygon class="cls-2" points="8.1 84 8 84 5.8 82 5.9 77.9 8.2 75.7 8.3 75.8 9.7 77 10.5 77.7 10.4 81.8 9.8 82.4 8.1 84"/><polyline class="cls-2" points="11.7 77.8 12.8 78 12.8 78"/><line class="cls-2" x1="11.6" y1="81.9" x2="12.7" y2="81.8"/><path class="cls-2" d="M66.4,96h0c0,0-9.1,0-9.1,0h-3.6s-3.2-1.6-3.2-15.5,3.2-15.6,3.2-15.6h12.6"/><path class="cls-2" d="M70.8,84.3c-.5,6.7-2.1,11.7-4.1,11.7s-.1,0-.2,0c-2.3-.4-4.1-7.2-4.1-15.5s1.7-14.9,4-15.5c.1,0,.2,0,.3,0,1.9,0,3.6,4.6,4.1,11"/><polyline class="cls-2" points="69.5 84.3 69.5 84.3 66.4 84.2 66.3 84.2 65.2 80 66.3 75.8 66.4 75.8 69.7 75.9"/><polygon class="cls-2" points="70.7 75.9 71.2 75.9 72.1 80.1 71.1 84.3 70.8 84.3 69.5 84.3 69.2 84.3 68.3 80.1 69.3 75.9 69.7 75.9 70.7 75.9"/><polyline class="cls-2" points="66.1 79.9 66.4 79.9 67.1 79.9"/><polyline class="cls-2" points="31.7 6.5 31.7 .4 38.2 .4 38.2 6.5"/><line class="cls-2" x1="32.9" y1=".6" x2="32.9" y2="5.1"/><line class="cls-2" x1="36.4" y1=".6" x2="36.4" y2="5.1"/><path class="cls-2" d="M38.2,6.5h4.7c.3,0,.5.2.5.5v3.2c0,.3-.2.5-.5.5h-16.1c-.3,0-.5-.2-.5-.5v-3.2c0-.3.2-.5.5-.5h11.4Z"/><path class="cls-2" d="M22.9,135.6c0,.6-.5,1.1-1.1,1.4-1.7.9-4.9.4-5.1-1.4-.2-2.4.3-19.1,0-21.1.3-2.7,6.1-2.7,6.1,0s.2,18.6,0,21.1Z"/><path class="cls-2" d="M37,113.4c1.5.2,2.6.9,2.6,1.9,0,2.7.2,18.6,0,21.1,0,.9-1.2,1.5-2.6,1.7-2.4.4-5.5-.2-5.6-1.7-.2-2.4.4-19.1,0-21.1.3-1.6,3.3-2.3,5.6-1.9Z"/><path class="cls-2" d="M50.3,112.3c1.5,0,3.1.6,3.1,2,0,2.7.2,18.6,0,21.1,0,.9-.9,1.5-1.9,1.7-.3,0-.7.1-1.1.1-1.5,0-2.9-.6-3-1.8-.2-2.4.3-19.1,0-21.1.1-1.3,1.4-1.9,2.8-2Z"/><path class="cls-2" d="M12.4,140.8h.3c3.6.4,7,.7,10.3,1,9.6.6,18.4.4,27.5-.4.7,0,1.4-.1,2.2-.2.4,0,.8,0,1.2-.1,1.1-.1,2.2-.2,3.4-.3"/><path class="cls-1" d="M39,33.6c-.1,2.2-6.9,2.4-7.1.3-.3-2.1,1.8-17.2,1.3-19,.3-2.5,4-2.3,4.1,0,0,2.4,1.8,16.5,1.7,18.8Z"/><path class="cls-1" d="M23.7,33.6c-.2,2.2-6,2.1-6.1,0-.2-2.1,5.7-15.4,7.8-18.1,2.5-3,3.7-2.1,2.6.1-1.1,2.2-4.1,15.7-4.3,18Z"/><path class="cls-1" d="M46.7,33.4c.2,2.2,6,2.1,6.1,0,.2-2.1-5.7-15.4-7.8-18.1-2.5-3-3.7-2.1-2.6.1s4.1,15.7,4.3,18Z"/></svg>