<?xml version="1.0" encoding="UTF-8"?><svg id="a" xmlns="http://www.w3.org/2000/svg" width="57.2" height="100.8" xmlns:xlink="http://www.w3.org/1999/xlink" viewBox="0 0 57.2 100.8"><defs><style>.m,.n{stroke-linecap:round;stroke-linejoin:round;}.m,.n,.o,.p{fill:none;stroke-width:.8px;}.m,.o{stroke:#000;}.n{stroke:#231f20;}.p{stroke:#fff;}.q{fill:#5e0f10;}.q,.r,.s,.t,.u,.v,.w,.x,.y,.z,.aa,.ab,.ac,.ad,.ae,.af,.ag{stroke-width:0px;}.r{fill:#383838;}.s{fill:#bf3b47;}.t{fill:#9b1f25;}.u{fill:#fff;}.v{fill:#68151a;}.w{fill:url(#b);}.x{fill:url(#c);}.y{fill:url(#e);}.z{fill:url(#f);}.aa{fill:url(#d);}.ab{fill:url(#j);}.ac{fill:url(#i);}.ad{fill:url(#h);}.ae{fill:url(#g);}.af{fill:url(#k);}.ag{fill:url(#l);}</style><linearGradient id="b" x1="36.3" y1="19.4" x2="44.8" y2="19.4" gradientUnits="userSpaceOnUse"><stop offset="0" stop-color="#1a180e"/><stop offset=".5" stop-color="#b19b50"/><stop offset="1" stop-color="#ebc63f"/></linearGradient><linearGradient id="c" x1="28.3" y1="19.8" x2="45" y2="19.8" xlink:href="#b"/><linearGradient id="d" x1="49.2" y1="91.1" x2="55.2" y2="90.5" gradientUnits="userSpaceOnUse"><stop offset="0" stop-color="#971b1e"/><stop offset="1" stop-color="#f29c9d"/></linearGradient><linearGradient id="e" x1="30.3" y1="16.5" x2="41.1" y2="16.5" xlink:href="#b"/><linearGradient id="f" x1="30.3" y1="17.6" x2="39.6" y2="17.6" xlink:href="#b"/><linearGradient id="g" x1="31.4" y1="12.8" x2="42.2" y2="12.8" xlink:href="#b"/><linearGradient id="h" x1="31.4" y1="15.5" x2="42.2" y2="15.5" xlink:href="#b"/><linearGradient id="i" x1="28.4" y1="19.5" x2="36.6" y2="19.5" xlink:href="#b"/><linearGradient id="j" x1="29.9" y1="14.1" x2="31.1" y2="3.9" xlink:href="#b"/><radialGradient id="k" cx="-20" cy="24.2" fx="-20" fy="24.2" r="39.5" gradientTransform="translate(0 -53.3) scale(1 3.2)" gradientUnits="userSpaceOnUse"><stop offset="0" stop-color="#858485"/><stop offset="1" stop-color="#000"/></radialGradient><radialGradient id="l" cx="-29.4" cy="24.2" fx="-29.4" fy="24.2" r="47" gradientTransform="translate(0 -53.3) scale(1 3.2)" xlink:href="#k"/></defs><path class="q" d="m54.7.6c1.8.4,1.7,4.4,1.7,7l-16.1-3.6-.3-1.5c4.7-.6,10.7-2.8,14.7-1.9Z"/><path class="s" d="m43.9,23.7c-.8.2-1.7.4-2.5.5,1.8,1.5,4.5,1.7,4.7,4.3,0,.9.1,1.8.2,2.6.2,2.5.2,4.9.3,7.5,0,4.3,0,8.5.1,12.8,0,13.4,0,26.8-.2,40.3,0,.2,0,.4,0,.6,0,1.3,0,2.6,0,4,.7-.1,1.4-.3,2.1-.5.8-.2,1.6-.4,2.4-.6v-4.2s.2-60.4.2-60.4v-3.2c0-3-4.8-2.7-7.2-3.5Z"/><path class="u" d="m42.8,52.1c-.6.9,1.4-.8,3.1-.7-.8.5-1.6,1.9-1.9,4.2-.2,1.1-2.3,3.2-5.1,3.1h-.2c.8-.2,2.8-1.4,2.7-3,0,0-.6.5-1.4.3.4-.6,2-2.9,1.2-3.7,0,0-1.6,1.9-1.8,1.6-.2-.3.5-2.9,0-3.4,0,0-.8,1.9-1.1,1.7-.5-.2-.9-2.6-1-3,0,0,0,3-.4,2.7s-1.1-1.6-1.3-2c-.7.4-.3,3.7,0,4.6-1.1-.7-1.4-1.6-2.3-2.2,0,0-.2,2.4,1,3.2,0,0-.6.2-1.2,0,0,.6,1.4,2.7,3,3.2-2.4-.1-5.1-1.6-5.2-4.7,0-2.6-1.4-3.7-1.4-3.7,2.1-.2,2,1.1,2.5,1.1,0,0,.5-2.2-.5-3.3,1.9-.2,2.1,1.8,2.4,1.4,0-.5.4-2.9-.9-4.4,0,0,1.1,0,2.8,1.6-.2-.9-.4-2.8,1.5-5.5,0,.9.3,2.8,1,4.1.9,1.5.2,3.3.9,3.4.6,0,1.1-2.8,1.2-3.6.7,0,.3,4.8,1,5,.5.2,1.2-1.7,1.5-2.4.2-.4.7,3.2-.2,4.5Z"/><path class="w" d="m44.7,17.5v3.8s-2.2,0-2.2,0c-.8-2.1-3.4-3.2-6-3.2v-.5s1.1,0,1.1,0h.8s6.4,0,6.4,0Z"/><path class="x" d="m39.8,21.4h-7s-2.3,0-2.3,0c.7-2.2,3.3-3.3,5.9-3.3s5.2,1.1,6,3.2h-2.7Z"/><path class="aa" d="m33.6,92.3h7.7c-2.5.1-5.1.2-7.7,0Z"/><polygon class="y" points="41.1 17.5 38.3 17.6 37.5 17.6 30.3 17.6 32.6 15.5 35 15.5 36.8 15.5 36.8 15.5 41.1 17.5"/><polygon class="z" points="37.5 17.6 36.4 17.6 30.3 17.6 30.3 17.6 37.5 17.6"/><polygon class="ae" points="36.8 10.3 36.8 15.5 36.8 15.5 36.8 15.4 35 15.5 32.7 15.4 32.7 14.2 32.8 10.1 36.8 10.3"/><polygon class="ad" points="36.8 15.5 35 15.5 36.8 15.4 36.8 15.5"/><path class="ac" d="m36.4,17.6v.5c-2.6,0-5.1,1.1-5.9,3.3h-2s0-3.8,0-3.8h1.7s0,0,0,0h6.2Z"/><path class="t" d="m46.6,51.4c0-4.3,0-8.5-.1-12.8,0-2.6-.1-5-.3-7.5,0-.8-.1-1.7-.2-2.6-.2-2.6-2.9-2.8-4.7-4.3-3.5.5-7.2.5-10.7,0-1,.7-2,1.5-2.1,3.4,0,1.2-.1,2.3-.2,3.4-.1,2.2-.1,4.3-.2,6.7,0,4.1,0,8.3-.1,12.4-.1,13.8-.2,27.8,0,41.5,0,.2,0,.5,0,.7,0,1.4,0,2.8,0,4.3.4,0,.7.1,1.1.2,1.9.3,3.9.4,5.8.5,1.3,0,2.6,0,3.9,0,2-.1,3.9-.4,5.8-.7.6-.1,1.3-.2,1.9-.4,0-1.3,0-2.6,0-4,0-.2,0-.4,0-.6.2-13.4.2-26.8.2-40.3Zm-14.7,0s.5-2.2-.5-3.3c1.9-.2,2.1,1.8,2.4,1.4,0-.5.4-2.9-.9-4.4,0,0,1.1,0,2.8,1.6-.2-.9-.4-2.8,1.5-5.5,0,.9.3,2.8,1,4.1.9,1.5.2,3.3.9,3.4.6,0,1.1-2.8,1.2-3.6.7,0,.3,4.8,1,5,.5.2,1.2-1.7,1.5-2.4.2-.4.7,3.2-.2,4.5-.6.9,1.4-.8,3.1-.7-.8.5-1.6,1.9-1.9,4.2-.2,1.1-2.3,3.2-5.1,3.1h-.2c.8-.2,2.8-1.4,2.7-3,0,0-.6.5-1.4.3.4-.6,2-2.9,1.2-3.7,0,0-1.6,1.9-1.8,1.6-.2-.3.5-2.9,0-3.4,0,0-.8,1.9-1.1,1.7-.5-.2-.9-2.6-1-3,0,0,0,3-.4,2.7-.4-.3-1.1-1.6-1.3-2-.7.4-.3,3.7,0,4.6-1.1-.7-1.4-1.6-2.3-2.2,0,0-.2,2.4,1,3.2,0,0-.6.2-1.2,0,0,.6,1.4,2.7,3,3.2-2.4-.1-5.1-1.6-5.2-4.7,0-2.6-1.4-3.7-1.4-3.7,2.1-.2,2,1.1,2.5,1.1Z"/><path class="t" d="m42.7,22.4c0-.4-.1-.7-.2-1.1h-2.7c.2,1.4.8,2.2,1.6,2.8.9-.1,1.7-.3,2.5-.5-.7-.3-1.2-.6-1.2-1.3Z"/><path class="ab" d="m32.6,10.9v3.3s-5.1,0-5.1,0v-.4h0v-2.7h0v-.2h5.1Z"/><path class="r" d="m56.8,7.7h-.4c0,0-16.1-3.7-16.1-3.7l-.3-1.5v-.4c-2.8,0-4.6,0-7.1,0-1.6,0-1.9,1.2-2.4,1.9-1.2,0-2.1.2-2.1,1.2,0,1.1.9,1.4,2.2,1.4l.2,3.4h2c0,0,4.1.2,4.1.2h.6s1.6-2,1.6-2h2.7c1.1.8,2.6,2,3.8,2.6,2.8,1.2,4.1,1.7,7,2.4,1.1.3,1.5,1.4,1.9,1.5.5.2,1.3.3,1.5-.2.9-1.9,1-4.4.9-6.9Z"/><path class="r" d="m46.4,96.1c-.6.1-1.2.2-1.9.4.6,2,1.4,4.3,3.1,3.8.9-.2,1-2.5.8-4.6-.7.2-1.4.3-2.1.5Z"/><path class="r" d="m36.8,100.3c1,0,1.5-1.5,1.9-3.1-1.3,0-2.6.1-3.9,0,.4,1.6.8,3.1,2,3Z"/><path class="r" d="m24.8,95.9c-.2,2.1-.1,4.2.7,4.4,2.2.1,2.8-1.7,3.6-3.5-.4,0-.7-.1-1.1-.2-1.1-.2-2.2-.4-3.3-.7Z"/><path class="v" d="m39.8,21.4h-7s-2.3,0-2.3,0c0,.2-.2.5-.2.8-.1.9-1.1,1.3-2.4,1.6-2.4.6-5.7.9-5.8,3.8v2.8s.6,60.4.6,60.4v4.6c.7.2,1.4.4,2.1.6,1.1.3,2.2.5,3.3.7,0-1.4,0-2.8,0-4.3,0-.2,0-.5,0-.7-.1-13.6,0-27.7,0-41.5,0-4.2,0-8.3.1-12.4,0-2.4,0-4.5.2-6.7,0-1.1.1-2.2.2-3.4.1-1.9,1.1-2.7,2.1-3.4,3.5.5,7.2.5,10.7,0-.7-.6-1.3-1.5-1.6-2.8Z"/><path class="af" d="m27.5,11.1v2.7h0v-2.7h0Z"/><path class="ag" d="m27.5,11.1v2.7c-10.6.1-20.9,6.3-23.4,14.9-3.9,14,11.6,23.3,12.1,36.1l5.1,30.7.2,1.5c-5.7,1.3-10.4,1.4-15.3-.3l5.7-31.5c-.3-12.6-15.4-19.3-10.7-38.1,2.8-11.3,14.9-16.5,26.2-16.1Z"/><path class="m" d="m34.9,97.3c.4,1.6.8,3.1,2,3,1,0,1.5-1.5,1.9-3.1"/><path class="m" d="m24.8,95.9c-.2,2.1-.1,4.2.7,4.4,2.2.1,2.8-1.7,3.6-3.5"/><path class="m" d="m44.5,96.5c.6,2,1.4,4.3,3.1,3.8.9-.2,1-2.5.8-4.6"/><path class="m" d="m30.6,21.4c0,.2-.2.5-.2.8-.1.9-1.1,1.3-2.4,1.6-2.4.6-5.7.9-5.8,3.8v2.8s.6,60.4.6,60.4v4.6c.7.2,1.4.4,2.1.6,1.1.3,2.2.5,3.3.7.4,0,.7.1,1.1.2,1.9.3,3.9.4,5.8.5,1.3,0,2.6,0,3.9,0,2-.1,3.9-.4,5.8-.7.6-.1,1.3-.2,1.9-.4.7-.1,1.4-.3,2.1-.5.8-.2,1.6-.4,2.4-.6v-4.2s.2-60.4.2-60.4v-3.2c0-3-4.8-2.7-7.2-3.5-.7-.3-1.2-.6-1.2-1.3,0-.4-.1-.7-.2-1.1"/><path class="m" d="m41.4,92.2c1.7-.1,3.3-.3,5.1-.6,1.4-.2,2.8-.5,4.3-.7"/><path class="m" d="m23,90.8c1.8.4,3.4.7,5,.9,2,.3,3.9.5,5.6.6,2.7.2,5.2.1,7.7,0"/><path class="m" d="m22.5,30.3c2,.3,3.9.6,5.9.7,6.2.6,12.1.6,17.9,0,1.6-.2,3.2-.4,4.8-.6"/><polyline class="m" points="30.3 17.6 28.6 17.6 28.6 21.4 30.6 21.4 32.9 21.4 39.8 21.4 42.5 21.3 44.7 21.3 44.7 17.5 38.3 17.6"/><polyline class="m" points="35 15.5 32.6 15.5 30.3 17.6 30.3 17.6 36.4 17.6 37.5 17.6 38.3 17.6 41.1 17.5 36.8 15.5"/><path class="n" d="m40,2.5c4.7-.6,10.7-2.8,14.7-1.9,1.8.4,1.7,4.4,1.7,7"/><polyline class="m" points="32.8 10.1 32.7 14.2 32.7 15.4 35 15.5 36.8 15.5 36.8 15.5 36.8 10.3"/><path class="m" d="m32.8,10.1h-2c0,0-.2-3.5-.2-3.5-1.2,0-2.2-.4-2.2-1.4,0-1,.9-1.2,2.1-1.2.4-.7.8-2,2.4-1.9,2.5,0,4.4,0,7.1,0v.4c0,0,.4,1.5.4,1.5l16.1,3.6h.4c.1,2.6,0,5-.9,6.9-.2.5-1,.5-1.5.2-.4-.2-.7-1.3-1.9-1.5-2.9-.7-4.2-1.2-7-2.4-1.2-.5-2.8-1.7-3.8-2.6h-2.7l-1.6,2h-.6s-4.1-.2-4.1-.2Z"/><polyline class="m" points="27.5 13.8 27.5 14.3 32.6 14.2 32.6 10.9 27.5 10.9 27.5 11.1"/><path class="o" d="m27.5,13.8h0v-2.7h0c-11.3-.4-23.4,4.8-26.2,16.1-4.7,18.7,10.4,25.5,10.7,38.1l-5.7,31.5c4.9,1.7,9.6,1.5,15.3.3l-.2-1.5-5.1-30.7C15.8,52,.2,42.8,4.1,28.8c2.4-8.6,12.8-14.8,23.4-14.9Z"/><path class="p" d="m45.9,51.4c-1.7,0-3.8,1.6-3.1.7.9-1.3.3-4.9.2-4.5-.3.8-1,2.7-1.5,2.4-.7-.3-.3-5-1-5-.1.8-.6,3.7-1.2,3.6-.8,0,0-1.9-.9-3.4-.8-1.2-1-3.2-1-4.1-1.9,2.6-1.7,4.5-1.5,5.5-1.7-1.6-2.8-1.6-2.8-1.6,1.3,1.5.9,3.9.9,4.4-.3.4-.5-1.6-2.4-1.4,1,1,.5,3.3.5,3.3-.5,0-.5-1.3-2.5-1.1,0,0,1.3,1.1,1.4,3.7.1,3.1,2.8,4.6,5.2,4.7-1.6-.5-3.1-2.6-3-3.2.6.2,1.2,0,1.2,0-1.2-.8-1-3.2-1-3.2.9.6,1.2,1.5,2.3,2.2-.3-.9-.7-4.1,0-4.6.1.4.9,1.7,1.3,2s.4-2.7.4-2.7c.1.3.6,2.7,1,3,.3.2,1.1-1.7,1.1-1.7.4.5-.3,3.1,0,3.4.2.3,1.8-1.6,1.8-1.6.8.8-.8,3.1-1.2,3.7.7.2,1.4-.3,1.4-.3.2,1.6-1.9,2.8-2.7,3h.2c2.8,0,5-2.1,5.1-3.1.4-2.3,1.1-3.7,1.9-4.2Z"/><line class="p" x1="31.1" y1="61.2" x2="44" y2="61.2"/></svg>