<?xml version="1.0" encoding="UTF-8"?><svg id="Layer_1" xmlns="http://www.w3.org/2000/svg" width="76.89" height="110.748" viewBox="0 0 76.89 110.748"><defs><style>.cls-1,.cls-2,.cls-3,.cls-4,.cls-5,.cls-6,.cls-7{stroke-width:.75px;}.cls-1,.cls-2,.cls-4,.cls-6,.cls-7{stroke-linecap:round;}.cls-1,.cls-2,.cls-4,.cls-7{stroke-linejoin:round;}.cls-1,.cls-2,.cls-5{fill:none;}.cls-1,.cls-3,.cls-4,.cls-5,.cls-6,.cls-7{stroke:#000;}.cls-2{stroke:#231f20;}.cls-3{fill:#5dab50;}.cls-4{fill:#f8bf33;}.cls-5{stroke-miterlimit:10;}.cls-6{fill:#231f20;}.cls-7{fill:#783321;}.cls-8{fill:#a9794d;}.cls-8,.cls-9,.cls-10{stroke-width:0px;}.cls-9{fill:#9e6e47;}.cls-10{fill:#ba8b57;}</style></defs><path class="cls-6" d="M72.307,74.283c0,.11-.61.21-1.74.31-2.06.18-5.87.33-10.85.45-5.25.13-11.83.21-19.05.23-.66.01-1.33.01-2.01.01h-2.14c-1.51,0-3.01,0-4.47-.01-.52,0-1.04,0-1.55-.01h-.01c-6.61-.02-12.59-.11-17.43-.23-4.85-.11-8.55-.27-10.58-.44-1.14-.1-1.75-.2-1.75-.31,0-.48,12.23-.88,28.5-.97h1.5c1.88-.02,3.82-.02,5.79-.02h2.02c.33,0,.67,0,1,.01.61-.01,1.22,0,1.83,0,17.47.06,30.94.48,30.94.98Z"/><path class="cls-3" d="M38.517,73.293c0,.46-.01.9-.01,1.3h-1.69c-.02-.41-.04-.85-.05-1.3-.21-6.81.41-17.56-.66-21.55-.3-1.12-.75-2.68-1.25-4.37.37-.37.64-.87.62-1.55-.02-.91-.61-1.84-1.27-2.32-.21-.15-.42-.27-.64-.34-.52-1.66-1.01-3.22-1.39-4.41.58-.61-.14-2.04-.9-3.16-1.49-6.11-1.96-13.23-2.91-19.61-.03-.4-.05-.82-.08-1.28.23-.02.46-.05.69-.09.13.33.3.81.47,1.34.92,8.61,2.01,17.37,4.78,24.97-.08.98.08,1.88.71,2.38.09.07.19.12.29.15.07.18.15.36.23.54.87,1.96,2.38,6.78,2.66,8.92.47,3.55.48,14.2.4,20.38Z"/><path class="cls-3" d="M31.578,74.593h-1.55c-.28-.42-.55-.85-.82-1.28-3.17-5.17-5.8-11.42-8.62-16.88l-.01.01c-.15-.41-.31-.82-.47-1.22.17-.08.34-.16.5-.24.4.35.77.75,1.12,1.18,2.78,5.99,5.59,11.9,9,17.15.28.43.56.86.85,1.28Z"/><path class="cls-3" d="M59.867,39.253c-.18.48-.33.92-.47,1.33h-.02c-2.89,6.07-5.6,13.94-9.15,18.83-.17.24-.35.49-.54.76-1.46.92-3.32,2.45-3,3.91.02.09.04.16.08.23-1.09,1.54-2.13,3.05-2.9,4.15-1.2,1.72-1.94,3.33-2.51,4.84-.17.44-.32.87-.47,1.29h-1.93c.19-.42.38-.85.57-1.29h.01c1.11-2.53,2.3-5.22,3.26-6.34,1.22-1.41,3.13-4.69,4.38-6.05.86-.94,1.65-1.89,2.37-2.86.02.01.05.01.07.02.88.21,1.34-1.05,1.54-2.36,3.05-4.75,5.01-9.92,7.52-15.86q0-.01.01-.02c.22-.26.46-.51.7-.73l.01-.04c.15.07.31.13.47.19Z"/><path class="cls-8" d="M70.567,74.593c-2.06.18-5.87.33-10.85.45-5.25.13-11.83.21-19.05.23-.66.01-1.33.01-2.01.01h-2.14c-1.51,0-3.01,0-4.47-.01-.52,0-1.04,0-1.55-.01h-.01c-6.61-.02-12.59-.11-17.43-.23-4.85-.11-8.55-.27-10.58-.44H.467s7.95,35.78,15.9,35.78h39.76c7.96,0,15.91-35.78,15.91-35.78h-1.47Z"/><path class="cls-10" d="M23.017,110.103v.27h-6.65c-7.95,0-15.9-35.78-15.9-35.78h2.01c2.03.17,5.73.33,10.58.44-1.54,12.92,1.73,24.97,9.96,35.07Z"/><path class="cls-8" d="M59.717,75.043c-.85,13.84-2.39,22.88-9.16,35.06v.27h-27.54v-.27c-8.23-10.1-11.5-22.15-9.96-35.07,4.84.12,10.82.21,17.43.23h.01c.51.01,1.03.01,1.55.01,1.46.01,2.96.01,4.47.01h2.14c.68,0,1.35,0,2.01-.01,7.22-.02,13.8-.1,19.05-.23Z"/><path class="cls-9" d="M72.037,74.593s-7.95,35.78-15.91,35.78h-5.57v-.27c6.77-12.18,8.31-21.22,9.16-35.06,4.98-.12,8.79-.27,10.85-.45h1.47Z"/><path class="cls-7" d="M66.907,38.403v.01c0,.53-.22.99-.76,1.35-.12.08-.25.14-.38.19-.17.07-.34.11-.51.14-.1.01-.2.02-.29.03-.65.06-1.29.04-1.92-.05-.26-.03-.52-.07-.78-.13-.09-.02-.19-.04-.28-.06-.72-.16-1.43-.37-2.12-.64-.16-.06-.31-.12-.46-.19-.87-.36-1.7-.82-2.49-1.37-.02-.02-.05-.03-.07-.05-.19-.14-.37-.28-.55-.45h-.01c-.23-.21-.44-.45-.61-.74-.23-.41-.38-.92-.34-1.45.01-.15.03-.3.07-.45.07-.26.18-.51.32-.73.2-.31.46-.58.73-.77.28-.2.57-.33.87-.42.17-.06.34-.1.5-.13.04-.01.08-.02.12-.03,1.25-.24,2.5-.18,3.66.19.15.04.31.1.46.16.32.12.62.26.92.43.28.16.87.63,1.51,1.25.37.36.76.77,1.11,1.2.59.73,1.09,1.53,1.24,2.26.04.16.06.3.06.45Z"/><path class="cls-4" d="M61.617,32.633l-.01.02c-1.16-.37-2.41-.43-3.66-.19-.04.01-.08.02-.12.03-.72-1.24-1.29-2.22-2.01-3.46-.17-.31-.35-.62-.39-1.01-.08-.82.51-1.68,1.16-1.97.66-.29,1.33-.12,1.91.18,2.03,1.05,3.27,3.46,3.12,6.4Z"/><path class="cls-1" d="M55.837,33.823c-.04,0-.07-.01-.11-.01"/><path class="cls-4" d="M69.987,31.843c-.07.64-.55,1.17-1.03,1.47-1.42.87-3.04.4-4.45,1.17l-.01.01c-.64-.62-1.23-1.09-1.51-1.25-.3-.17-.6-.31-.92-.43l.03-.07c.7-1.57,1.74-2.44,3.07-2.91,1.34-.48,2.71-.28,3.86.39.52.3,1.05.85.96,1.62Z"/><path class="cls-4" d="M57.327,32.623c-.3.09-.59.22-.87.42-.27.19-.53.46-.73.77-3.11-.25-6.45.62-9.29-.64-.66-.29-1.35-.81-1.39-1.73-.03-.78.45-1.59,1.03-2.01.59-.42,1.25-.52,1.87-.53,1.93-.03,3.73.65,5.5,1.33,1.52.59,2.85.88,3.87,2.34l.01.05Z"/><path class="cls-4" d="M76.417,38.083c-.2.49-.63.76-1.03.94-1.62.69-3.29.41-4.83-.05-1.27-.39-2.36-.89-3.68-1.03l-.03.01c-.15-.73-.65-1.53-1.24-2.26,1.67-.46,3.34-.88,5.01-.96,1.8-.09,3.61.25,5.05,1.35.27.21.54.45.7.79.16.34.21.81.05,1.21Z"/><path class="cls-1" d="M65.607,35.693c-.01,0-.03.01-.04.01"/><path class="cls-4" d="M56.287,37.183c-1.06.11-1.9.79-2.77,1.73-.86.95-1.63,2.04-2.54,2.91-.91.87-2.02,1.53-3.04,1.36-.68-.11-1.25-.57-1.76-1.08-.41-.41-.8-.89-.97-1.53-.33-1.19.22-2.72,1.07-3.66.85-.95,1.94-1.41,3-1.69,2.04-.53,4.07-.47,6.06-.23-.04.53.11,1.04.34,1.45.17.29.38.53.61.74Z"/><path class="cls-1" d="M55.447,35.003c-.04,0-.07-.01-.11-.01"/><path class="cls-4" d="M67.787,49.443c0,.59-.03,1.2-.26,1.75-.24.54-.65.96-1.08,1.25-.8.54-1.74.71-2.51.38-.78-.33-1.32-.86-1.41-1.92-.08-.84.23-3.02.35-3.9.35-2.6.37-2.63.37-3.79-.01-1.02-.06-2.07-.2-3.14.63.09,1.27.11,1.92.05.09-.01.19-.02.29-.03,1.64,2.62,2.53,5.78,2.53,9.35Z"/><path class="cls-1" d="M63.047,40.073c0-.02-.01-.04-.01-.06"/><path class="cls-4" d="M59.407,39.053l-.02.05c-.25.22-.48.46-.7.72q-.01.01-.01.02c-.67.77-1.24,1.69-1.74,2.64-.77,1.46-1.38,3.02-2.08,4.51-.35.74-.76,1.5-1.36,1.89-.66.42-1.44.26-1.92-.29-.48-.54-.69-1.42-.66-2.3.03-.89.28-1.78.61-2.62,1.08-2.77,3.12-5.07,5.39-5.99.79.55,1.62,1.01,2.49,1.37Z"/><path class="cls-1" d="M57.027,37.633c-.04.01-.07.03-.11.05"/><path class="cls-4" d="M75.857,45.843c-.11,1.09-1.02,1.97-1.88,2.13-.86.15-1.66-.25-2.36-.73-2.22-1.51-3.99-3.82-5.43-6.42-.18-.33-.22-.57-.42-.87.13-.05.26-.11.38-.19.54-.36.76-.82.76-1.35v-.01h.05c3.18.81,5.88,2.47,8.08,5.25.46.58.91,1.3.82,2.19Z"/><path class="cls-1" d="M65.767,39.953c-.01-.02-.02-.03-.03-.05"/><path class="cls-4" d="M62.267,39.943c-.06,3.37-.16,5.5-.43,8.76-.16,1.92-.56,2.98-.56,2.98-.66,1.65-1.21,1.9-1.84,2.1-.62.19-1.22-.2-1.55-.81-.33-.61-.42-1.39-.45-2.17-.08-2.06.25-4.2.78-6.26.4-1.55.74-2.66,1.18-3.96.14-.42.3-.86.47-1.34.69.27,1.4.48,2.12.64.09.02.19.04.28.06Z"/><path class="cls-1" d="M62.267,39.943v-.05"/><path class="cls-1" d="M59.887,39.193c-.01.02-.01.03-.02.05"/><path class="cls-1" d="M51.157,55.713c-.5.79-1.03,1.56-1.61,2.33"/><path class="cls-1" d="M49.697,60.163c-.87,1.2-1.91,2.68-2.93,4.14"/><path class="cls-1" d="M58.697,39.783c-.01.01-.01.03-.01.04"/><path class="cls-4" d="M36.267,3.483c-.16.42-.44.72-.71,1.01-1.1,1.16-2,2.06-3.11,3.23-.03-.02-.07-.04-.1-.06-1.22-.7-2.53-1.03-3.84-1,.72-3.35,2.75-5.69,5.15-6.21.68-.15,1.42-.12,2,.42.59.54.93,1.72.61,2.61Z"/><line class="cls-1" x1="28.507" y1="6.673" x2="28.507" y2="6.663"/><path class="cls-4" d="M45.867,10.763c-.32,1.02-1.18,1.39-1.94,1.5-3.27.48-6.44-1.6-9.7-2.34-.11-.42-.3-.8-.52-1.11-.22-.31-.48-.56-.76-.77,1.47-1.29,2.96-1.25,4.68-1.41,2.01-.18,4.06-.36,6.03.31.64.22,1.28.55,1.76,1.21.47.67.72,1.74.45,2.61Z"/><path class="cls-1" d="M34.227,9.923c-.03-.01-.05-.01-.08-.02"/><path class="cls-1" d="M32.947,8.043l-.02.02"/><path class="cls-4" d="M28.097,6.673v.02c-.38.04-.75.1-1.13.2-.34.09-1.08.41-1.92.9-1.22-1.35-3.03-1.35-4.22-2.8-.4-.5-.73-1.25-.62-1.99.15-.91.85-1.34,1.48-1.52,1.37-.38,2.83-.15,4.06.83,1.22.97,2.1,2.36,2.35,4.36Z"/><path class="cls-1" d="M25.077,7.823l-.03-.03"/><path class="cls-4" d="M23.547,8.793c-.83.63-1.58,1.37-1.96,2.15-1.35-.23-2.73-.1-4.09-.09-1.72.01-3.51-.22-4.96-1.54-.36-.32-.72-.78-.78-1.39-.04-.51.15-1.02.42-1.35.27-.34.61-.52.95-.66,1.8-.77,3.75-.56,5.58.14,1.68.64,3.27,1.67,4.84,2.74Z"/><path class="cls-1" d="M21.697,10.963c-.04-.01-.07-.01-.11-.02"/><path class="cls-1" d="M23.637,8.853l-.09-.06"/><path class="cls-4" d="M42.977,21.023c-.37.66-.91,1.07-1.45,1.4-.67.41-1.4.74-2.12.64-1.1-.15-2.05-1.25-2.71-2.54-.67-1.28-1.13-2.77-1.74-4.12-.6-1.34-1.54-2.43-2.28-2.89.29-.15.56-.35.81-.61.36-.38.66-.92.78-1.53,2.11.4,4.2,1,6.14,2.27,1,.66,1.98,1.54,2.57,2.89.59,1.35.69,3.24,0,4.49Z"/><path class="cls-1" d="M32.677,13.513c-.01,0-.01-.01-.02-.01"/><path class="cls-1" d="M34.267,11.373c-.03-.01-.05-.01-.08-.02"/><path class="cls-4" d="M24.878,14.573c-.5,1.21-.83,2.27-1.16,3.48-.35,1.3-.34,1.34-.76,4.4-.14,1.03-.47,3.59-.81,4.52-.41,1.16-1.12,1.58-2.01,1.7-.89.11-1.8-.39-2.46-1.27-.36-.47-.65-1.07-.73-1.76-.08-.69.07-1.4.25-2.05,1.06-4.02,2.86-7.37,5.3-9.78.12.07.25.13.38.19.65.28,1.32.46,2,.57Z"/><path class="cls-1" d="M22.537,13.773l-.04.04"/><path class="cls-1" d="M24.887,14.553c0,.01-.01.01-.01.02"/><path class="cls-4" d="M35.417,25.583c-.23,1.01-.7,1.93-1.36,2.39-.66.46-1.51.38-2.06-.31-.5-.63-.69-1.63-.82-2.58-.28-1.92-.44-3.88-.78-5.78-.15-.79-.56-2.19-.93-3.33q-.01-.01-.01-.02v-.01c-.18-.53-.34-1-.48-1.33.95-.12,1.89-.36,2.82-.7,2.1,1.76,3.49,4.99,3.78,8.51.08,1.06.07,2.15-.16,3.16Z"/><path class="cls-1" d="M31.797,13.913c-.01-.02-.03-.03-.04-.04"/><path class="cls-1" d="M28.977,14.613c0-.01-.01-.02-.01-.03"/><path class="cls-4" d="M22.087,13.523l-.04.05c-.27.26-.53.55-.79.83-2.24,2.45-4.75,4.48-7.47,5.45-.87.31-1.8.5-2.64.05-.83-.46-1.51-1.76-1.29-3.03.17-1.03.85-1.7,1.5-2.2,3.06-2.39,6.58-3.37,10.05-3.26-.17.6-.08,1.2.37,1.79.09.12.2.23.31.32Z"/><path class="cls-1" d="M21.447,11.413h-.04"/><path class="cls-4" d="M28.457,21.203c-.07,2.51-.37,5.03-1.06,7.33-.27.87-.6,1.72-1.11,2.3-.39.43-.9.68-1.37.6v-.01c-.16-.02-.31-.08-.46-.19-.59-.43-1.07-.89-1.26-2.97,0,0-.09-1.33.32-3.55.71-3.78,1.23-6.2,2.18-10.03.1.01.2.01.3.02.72.05,1.45.06,2.17,0,.07.4.13.81.19,1.22.1,1.83.17,3.21.1,5.28Z"/><path class="cls-1" d="M25.707,14.643c0,.01-.01.03-.01.04"/><path class="cls-1" d="M28.167,14.703c0-.03-.01-.06-.01-.09"/><path class="cls-1" d="M29.457,15.943c-.01-.07-.01-.13-.02-.2"/><path class="cls-1" d="M32.177,38.763c-.03-.1-.06-.19-.09-.28-.3-.92-.57-1.89-.8-2.87"/><path class="cls-1" d="M35.217,43.443c-.35-.82-.68-1.65-.98-2.5"/><path class="cls-7" d="M34.337,10.853c-.01.18-.03.35-.07.52-.12.61-.42,1.15-.78,1.53-.25.26-.52.46-.81.61-.24.14-.5.25-.75.35-.04.02-.09.03-.13.05-.93.34-1.87.58-2.82.7-.23.03-.45.06-.68.08-.04,0-.09.01-.13.01-.72.06-1.45.05-2.17,0-.1-.01-.2-.01-.3-.02-.27-.03-.55-.06-.82-.11-.68-.11-1.35-.29-2-.57-.13-.06-.26-.12-.38-.19-.14-.08-.28-.18-.41-.29-.11-.09-.22-.2-.31-.32-.45-.59-.54-1.19-.37-1.79.04-.16.1-.32.18-.47.38-.78,1.13-1.52,1.96-2.15.49-.38,1.01-.72,1.5-1,.84-.49,1.58-.81,1.92-.9.38-.1.75-.16,1.13-.2.14-.01.27-.02.41-.03,1.31-.03,2.62.3,3.84,1,.03.02.07.04.1.06.17.1.34.2.5.32.28.21.54.46.76.77.22.31.41.69.52,1.11.08.3.12.61.11.93Z"/><path class="cls-7" d="M24.447,51.853c-.15.32-.35.6-.57.84-.19.21-.39.39-.6.56-.01.01-.02.02-.03.02-.82.69-1.71,1.25-2.64,1.71-.16.08-.33.16-.5.23-.71.32-1.44.57-2.19.77-.1.03-.2.05-.3.07-.27.07-.54.13-.82.17-.67.11-1.36.16-2.06.1-.14-.01-.29-.03-.44-.06-.13-.03-.27-.06-.4-.11-.16-.06-.31-.13-.46-.23-.62-.41-.9-.97-.92-1.59-.02-.18-.01-.36.02-.55.12-.85.59-1.77,1.16-2.62.34-.51.72-1,1.09-1.42.63-.73,1.23-1.28,1.52-1.47.33-.22.68-.41,1.04-.57.12-.05.23-.09.34-.14,1.24-.46,2.6-.57,3.98-.31.05.01.11.02.16.03.17.04.35.08.52.14.33.11.66.25.98.48.31.22.61.53.85.89.17.25.31.53.4.84.05.17.09.34.11.51.09.62-.02,1.23-.24,1.71Z"/><path class="cls-4" d="M24.027,42.033c-.01.45-.18.83-.34,1.18-.62,1.35-1.24,2.7-1.86,4.05v.02c-.05-.01-.11-.02-.16-.03-1.38-.26-2.74-.15-3.98.31-.3-3.3.85-6.33,2.89-7.55.6-.36,1.31-.57,2.04-.25.73.32,1.43,1.32,1.41,2.27Z"/><path class="cls-4" d="M35.487,45.823c.02.67-.25,1.17-.63,1.54-.22.21-.48.37-.73.5-2.95,1.51-6.62.57-9.95.93-.24-.36-.54-.67-.85-.89-.32-.23-.65-.37-.98-.48v-.02c.99-1.47,2.52-2.17,3.99-2.83,1.85-.82,3.74-1.65,5.82-1.65.46,0,.94.05,1.41.22v.01c.22.08.44.19.65.34.66.48,1.24,1.41,1.27,2.33Z"/><path class="cls-1" d="M24.177,48.793h-.06"/><path class="cls-4" d="M17.347,47.703c-.36.16-.71.35-1.04.57-.29.19-.89.74-1.52,1.47-1.59-.88-3.31-.29-4.91-1.29-.54-.33-1.09-.94-1.22-1.68-.16-.9.37-1.54.9-1.91,1.18-.8,2.64-1.06,4.12-.53,1.39.49,2.76,1.71,3.67,3.37Z"/><path class="cls-1" d="M14.897,49.803c-.04-.02-.07-.04-.11-.06"/><line class="cls-1" x1="17.347" y1="47.713" x2="17.347" y2="47.703"/><path class="cls-4" d="M13.697,51.163c-.57.85-1.04,1.77-1.16,2.62-1.45.18-2.55.82-3.92,1.3-1.62.57-3.4.93-5.2.15-.45-.19-.94-.5-1.18-1.07-.21-.47-.2-1.01-.05-1.41.15-.4.41-.68.69-.93,1.47-1.31,3.38-1.74,5.33-1.68,1.88.07,3.57.49,5.48,1.01l.01.01Z"/><path class="cls-1" d="M12.557,53.783h-.02"/><path class="cls-4" d="M36.057,56.463c-.13.75-.51,1.31-.92,1.79-.51.61-1.09,1.15-1.81,1.3-1.09.21-2.34-.53-3.39-1.53-1.04-1-1.96-2.25-2.97-3.33-1-1.07-2.08-1.74-3.09-2,.22-.24.42-.52.57-.84.22-.48.33-1.09.24-1.71,2.13-.3,4.31-.42,6.55.17,1.16.3,2.37.82,3.37,1.9.99,1.08,1.71,2.85,1.45,4.25Z"/><path class="cls-1" d="M23.877,52.693c-.01,0-.03-.01-.04-.01"/><path class="cls-1" d="M24.687,50.143c-.04.01-.07.01-.11.02"/><path class="cls-4" d="M17.717,65.483c-.02,1.23-.56,1.86-1.36,2.26-.81.4-1.83.22-2.74-.4-.49-.33-.97-.8-1.26-1.43-.3-.63-.46-1.34-.43-2.02.15-3.82.85-4.62,2.37-7.63.15.03.3.05.44.06.7.06,1.39.01,2.06-.1v.02c-.07,1.24-.11,1.61.23,4.7.11,1.03.7,3.55.69,4.54Z"/><path class="cls-1" d="M14.337,56.183c-.01.03-.03.06-.04.08"/><path class="cls-4" d="M29.167,64.433c-.47.65-1.07.83-1.82.35-.68-.44-.79-.59-.99-.77-1.47-1.26-1.84-3.42-2.78-5.1-.55-.98-1.16-1.93-1.84-2.75,0,0,0-.01-.01-.01-.35-.43-.72-.82-1.12-1.17.93-.46,1.82-1.02,2.64-1.71,2.36.77,4.2,2.26,5.57,5.43.43.97.77,2,.87,3.03.11,1.03-.04,2.06-.52,2.7Z"/><path class="cls-1" d="M20.607,54.983l-.03-.03"/><path class="cls-1" d="M23.247,53.273c-.04-.01-.09-.03-.13-.04"/><path class="cls-4" d="M13.897,56.153l-.01.03c-.21.37-.48.7-.65,1.1-1.34,3.05-2.34,4.56-4.61,6.36-.72.57-1.54,1.05-2.48.89s-2-1.18-2.21-2.44c-.17-1.04.26-1.89.71-2.57,2.16-3.31,4.5-4.26,7.87-5.19.02.62.3,1.18.92,1.59.15.1.3.17.46.23Z"/><path class="cls-1" d="M12.557,54.323c-.01,0-.03.01-.04.01"/><path class="cls-4" d="M22.757,67.603c-.3.72-.91,1.19-1.6.97-.7-.21-1.31-.5-2.15-2.4,0,0-.52-1.23-.85-3.46-.54-3.77-.31-3.36-.54-6.66.1-.02.2-.04.3-.07.75-.2,1.48-.45,2.19-.77.17.4.32.81.48,1.21.62,1.63,1.19,3.27,1.77,4.91.49,1.38.63,1.34.71,3.74.03.9-.01,1.82-.31,2.53Z"/><path class="cls-1" d="M17.617,56.053c0-.04-.01-.08-.01-.12"/><path class="cls-1" d="M20.107,55.213c-.01-.04-.03-.07-.04-.11"/><path class="cls-1" d="M21.727,56.153c0-.01-.01-.02-.01-.03"/><path class="cls-3" d="M39.927,35.353c-.06,1.38-.38,2.73-.86,3.92-.57,1.35-2.47,4.65-3.84,4.17h-.01c-.09-.03-.18-.08-.27-.15-.62-.49-.78-1.38-.71-2.35q-.01-.01,0-.02v-.01c.08-1.37.63-2.91.97-3.72,1-2.36,2.47-4.33,4.23-5.5.24-.17.51,3.35.49,3.66Z"/><path class="cls-3" d="M55.587,61.123c-.93,1.02-2.03,1.87-3.16,2.47-1.32.7-4.99,2.07-5.66.72v-.01c-.04-.07-.06-.14-.08-.22-.31-1.47,1.55-3,3.01-3.92.41-.26.78-.47,1.07-.62,2.28-1.19,4.67-1.77,6.77-1.56.29.03-1.74,2.91-1.95,3.14Z"/><path class="cls-3" d="M32.177,38.763c-.05.05-.12.1-.2.14-1.42.73-3.69-1.36-4.54-2.28-1.44-1.57-2.43-3.36-2.72-5.09-.01-.04.06-.05.18-.03.61.09,2.57.81,2.77.91,1.02.52,1.93,1.22,2.66,2,.26.27.6.7.95,1.18,0,.01,0,.02.01.02.77,1.12,1.48,2.55.89,3.15Z"/><path class="cls-3" d="M51.167,55.703l-.01.01c-.2,1.3-.66,2.56-1.54,2.35-.02-.01-.05-.01-.07-.02-1.49-.44-1.84-3.43-1.88-4.66-.08-2.13.34-4.13,1.25-5.64.12-.21,1.56,2.35,1.66,2.59.44,1.06.68,2.19.72,3.25.02.5-.01,1.32-.13,2.12Z"/><path class="cls-2" d="M13.077,74.833c-.01.07-.02.13-.02.2"/><path class="cls-2" d="M59.737,74.703c-.01.11-.01.23-.02.34"/><path class="cls-5" d="M70.567,74.593c-2.06.18-5.87.33-10.85.45-5.25.13-11.83.21-19.05.23-.66.01-1.33.01-2.01.01h-2.14c-1.51,0-3.01,0-4.47-.01-.52,0-1.04,0-1.55-.01h-.01c-6.61-.02-12.59-.11-17.43-.23-4.85-.11-8.55-.27-10.58-.44H.467s7.95,35.78,15.9,35.78h39.76c7.96,0,15.91-35.78,15.91-35.78h-1.47Z"/></svg>