<?xml version="1.0" encoding="UTF-8"?><svg id="Layer_1" xmlns="http://www.w3.org/2000/svg" width="73.42" height="100.76" viewBox="0 0 73.42 100.76"><defs><style>.cls-1{fill:#808184;}.cls-1,.cls-2{stroke:#000;stroke-width:.75px;}.cls-2{fill:none;}.cls-3{fill:#545454;}.cls-3,.cls-4,.cls-5,.cls-6,.cls-7,.cls-8{stroke-width:0px;}.cls-4{fill:#838383;}.cls-5{fill:#cececd;}.cls-6{fill:#939292;}.cls-7{fill:#b7b7b7;}.cls-8{fill:#e2e2e2;}</style></defs><path class="cls-7" d="M72.97,39.6c0-1.21-16.25-2.19-36.3-2.19S.38,38.39.38,39.6c0,.06.03.12.11.17l1.28,7.2h-.08c0,.26.41.54,1.19.82l.5,3.78,6.3,47.5c0,.33,1.92.59,5.03.8,1.39.09,3.01.17,4.8.24,9.74.36,24.6.36,34.53.02,6.12-.21,10.35-.57,10.35-1.06l5.92-47.47.48-3.85-.03-.08c.59-.24.89-.47.89-.69h.08l1.31-7.37h-.08Z"/><path class="cls-4" d="M73.04,39.6l-1.31,7.37h-.08c0,.23-.3.45-.89.69-1.24.53-3.73,1.06-7.16,1.54.06-.69.12-1.37.18-2.07.76-.14,1.33-.91,1.33-1.84,0-.79-.42-1.47-1.01-1.72.06-.66.12-1.31.18-1.98,5.44-.66,8.68-1.45,8.68-1.99h.08Z"/><path class="cls-4" d="M63.6,49.2c3.43-.48,5.92-1.01,7.16-1.54l.03.08-.48,3.85c-3.13.59-6.36,1.09-9.65,1.5.11-1.57.18-2.79.21-3.52.97-.12,1.89-.24,2.73-.36Z"/><path class="cls-6" d="M70.31,51.59l-5.92,47.47c0,.48-4.23.85-10.35,1.06v-.02c3.61-10.18,5.91-36.58,6.62-47.02,3.29-.41,6.53-.91,9.65-1.5Z"/><path class="cls-4" d="M10.86,41.74c-1.74-.2-3.31-.39-4.67-.59-3.2-.48-5.24-.98-5.71-1.39-.08-.05-.11-.11-.11-.17,0-1.21,16.25-2.19,36.3-2.19s36.3.98,36.3,2.19c0,.54-3.25,1.33-8.68,1.99-6.48.82-16.09,1.48-26.99,1.48-10.26,0-19.67-.59-26.43-1.33Z"/><path class="cls-7" d="M60.87,49.57c-6.3.73-14.86,1.27-24.27,1.27s-17.69-.53-23.93-1.24c-.73-.09-1.4-.17-2.05-.26l.06-.41c-.42-1.98-.08-5.29.18-7.19,6.77.74,16.18,1.33,26.43,1.33,10.91,0,20.51-.66,26.99-1.48-.06.66-.12,1.31-.18,1.98-.17-.08-.35-.12-.53-.12-.86,0-1.56.83-1.56,1.84s.69,1.86,1.56,1.86c.08,0,.15,0,.21-.02-.06.69-.12,1.37-.18,2.07-.85.12-1.77.24-2.73.36Z"/><path class="cls-3" d="M64.1,43.57c.59.26,1.01.94,1.01,1.72,0,.94-.57,1.71-1.33,1.84.11-1.19.21-2.37.32-3.56Z"/><path class="cls-3" d="M64.1,43.57c-.11,1.19-.21,2.37-.32,3.56-.06.02-.14.02-.21.02-.86,0-1.56-.83-1.56-1.86s.69-1.84,1.56-1.84c.18,0,.36.05.53.12Z"/><path class="cls-6" d="M60.87,49.57c-.03.73-.11,1.95-.21,3.52-16.33,2.05-34.11,1.93-47.5.18-.23-1.34-.41-2.42-.54-3.16l.06-.51c6.24.71,14.65,1.24,23.93,1.24s17.97-.54,24.27-1.27Z"/><path class="cls-7" d="M60.66,53.09c-.71,10.44-3.01,36.84-6.62,47.02v.02c-9.92.35-24.79.35-34.53-.02v-.02c-.86-9.2-4.65-36.27-6.36-46.82,13.4,1.75,31.18,1.87,47.5-.18Z"/><path class="cls-8" d="M19.51,100.09v.02c-1.8-.08-3.41-.15-4.8-.24v-.02c-.54-7.28-4.47-35.53-6.33-47.29,1.51.26,3.11.5,4.77.71,1.71,10.56,5.5,37.62,6.36,46.82Z"/><path class="cls-5" d="M14.71,99.85v.02c-3.11-.21-5.03-.47-5.03-.8L3.38,51.56l.09-.02c1.51.36,3.16.71,4.89,1.01h.02c1.86,11.77,5.78,40.01,6.33,47.29Z"/><path class="cls-7" d="M12.67,49.6l-.06.51c.14.74.32,1.81.54,3.16-1.66-.21-3.26-.45-4.77-.71h-.02c-.24-1.53-.44-2.76-.6-3.64.88.15,1.83.29,2.85.42.65.09,1.33.17,2.05.26Z"/><path class="cls-8" d="M7.76,48.92c-.77-.14-1.48-.26-2.11-.39-.2-2.72.42-6.62.54-7.37,1.36.2,2.93.39,4.67.59-.26,1.9-.6,5.21-.18,7.19l-.06.41c-1.03-.14-1.98-.27-2.85-.42Z"/><path class="cls-7" d="M5.65,48.52c.63.14,1.34.26,2.11.39.17.88.36,2.11.6,3.64-1.74-.3-3.38-.65-4.89-1.01l-.09.02-.5-3.78c.66.26,1.6.5,2.76.74Z"/><path class="cls-5" d="M2.88,47.78c-.79-.27-1.19-.56-1.19-.82h.08l-1.28-7.2c.47.41,2.51.91,5.71,1.39-.12.76-.74,4.65-.54,7.37-1.16-.24-2.1-.48-2.76-.74Z"/><path class="cls-2" d="M72.97,39.6c0,.54-3.25,1.33-8.68,1.99-6.48.82-16.09,1.48-26.99,1.48-10.26,0-19.67-.59-26.43-1.33-1.74-.2-3.31-.39-4.67-.59-3.2-.48-5.24-.98-5.71-1.39-.08-.05-.11-.11-.11-.17,0-1.21,16.25-2.19,36.3-2.19s36.3.98,36.3,2.19Z"/><path class="cls-2" d="M71.65,46.97c0,.23-.3.45-.89.69-1.24.53-3.73,1.06-7.16,1.54-.85.12-1.77.24-2.73.36-6.3.73-14.86,1.27-24.27,1.27s-17.69-.53-23.93-1.24c-.73-.09-1.4-.17-2.05-.26-1.03-.14-1.98-.27-2.85-.42-.77-.14-1.48-.26-2.11-.39-1.16-.24-2.1-.48-2.76-.74-.79-.27-1.19-.56-1.19-.82"/><path class="cls-2" d="M64.39,99.06c0,.48-4.23.85-10.35,1.06-9.92.35-24.79.35-34.53-.02-1.8-.08-3.41-.15-4.8-.24-3.11-.21-5.03-.47-5.03-.8"/><polyline class="cls-2" points=".45 39.6 .48 39.76 1.76 46.97"/><line class="cls-2" x1="73.04" y1="39.6" x2="71.73" y2="46.97"/><polyline class="cls-2" points="9.68 99.06 3.38 51.56 2.88 47.78 2.87 47.69"/><polyline class="cls-2" points="64.39 99.06 70.31 51.59 70.79 47.74"/><path class="cls-2" d="M64.1,43.57c.59.26,1.01.94,1.01,1.72,0,.94-.57,1.71-1.33,1.84-.06.02-.14.02-.21.02-.86,0-1.56-.83-1.56-1.86s.69-1.84,1.56-1.84c.18,0,.36.05.53.12Z"/><path class="cls-1" d="M64.42,43.87l-2.04.38c.1-16.23-3.33-28.79-10.1-35.6-4.18-4.2-9.58-6.33-16.05-6.33-9.28,0-15.22,6.58-18.56,12.09-4.05,6.67-6.56,15.52-6.71,23.67l-1.82.05C9.42,22.94,18.16.38,36.23.38c7.01,0,12.87,2.32,17.42,6.9,7.14,7.18,10.86,19.84,10.77,36.59Z"/></svg>