<?xml version="1.0" encoding="UTF-8"?><svg id="Layer_1" xmlns="http://www.w3.org/2000/svg" width="44.45" height="80.59" viewBox="0 0 44.45 80.59"><defs><style>.cls-1{fill:none;stroke:#000;stroke-width:.75px;}.cls-2{fill:#f3e056;}.cls-2,.cls-3,.cls-4,.cls-5,.cls-6,.cls-7,.cls-8,.cls-9{stroke-width:0px;}.cls-3{fill:#f9d4e4;}.cls-4{fill:#61bbb5;}.cls-5{fill:#7acbc7;}.cls-6{fill:#e0cf00;}.cls-7{fill:#8bd1cd;}.cls-8{fill:#fff696;}.cls-9{fill:#fbf6b9;}</style></defs><path class="cls-5" d="M43.94,41.18V14.48c0-1.27-1.03-2.3-2.3-2.3h-15.47v-.03h-1.82l2.29-.07-.74-.97-1.84-2.39-6.67.27.73,1.02,1.26,1.75.09.12.19.26h-1.04v.06c-2.23.49-7.96.54-11.24.03-.14,0-.26-.04-.39-.06h-4c-1.27,0-2.3,1.03-2.3,2.3v26.7h-.3v6.74h.3v30c0,1.27,1.03,2.3,2.3,2.3h38.66c1.27,0,2.3-1.03,2.3-2.3v-30h0s.14,0,.14,0v-6.74h-.14Z"/><path class="cls-3" d="M13.84,34.43c0-.88.75-1.6,1.69-1.6s1.68.71,1.68,1.6-.75,1.59-1.68,1.59-1.69-.71-1.69-1.59Z"/><path class="cls-3" d="M43.04,22.68c0,1.48-1.28,2.69-2.86,2.69-1.48,0-2.69-1.07-2.84-2.42,0-.09,0-.18,0-.27,0-1.49,1.27-2.69,2.85-2.69s2.86,1.2,2.86,2.69Z"/><ellipse class="cls-3" cx="39.85" cy="75.4" rx="2.86" ry="2.69"/><path class="cls-3" d="M34.79,66.83c-1.58,0-2.85-1.2-2.85-2.69s1.27-2.69,2.85-2.69c.8,0,1.52.31,2.04.8-.02,1.27-.04,2.56-.06,3.83-.51.46-1.2.75-1.98.75Z"/><path class="cls-2" d="M43.94,47.91h-6.79s0-.07,0-.11c0-.07,0-.14,0-.2.25-.03.52-.07.78-.11,0-2.11.03-4.21.04-6.33h5.96v6.74Z"/><path class="cls-3" d="M32.51,75.19c-.93,0-1.68-.71-1.68-1.59s.75-1.6,1.68-1.6,1.68.71,1.68,1.6-.75,1.59-1.68,1.59Z"/><path class="cls-3" d="M7.12,72.26c0,.88,0,1.77-.03,2.66-.46-.28-.75-.77-.75-1.32s.31-1.07.78-1.34Z"/><path class="cls-3" d="M36.83,62.24c.51.49.82,1.16.82,1.89s-.33,1.45-.88,1.94c.02-1.27.04-2.56.06-3.83Z"/><path class="cls-3" d="M36.78,47.91h.37c0,.42-.14.82-.33,1.18,0-.39-.02-.78-.04-1.18Z"/><path class="cls-3" d="M7.04,40.06c.95,0,1.8.44,2.31,1.12h-2.5c-.02-.37-.04-.73-.06-1.11.08,0,.17,0,.24,0Z"/><path class="cls-6" d="M6.98,12.18h11.63v.03c-2.23.49-7.96.54-11.24.03-.14,0-.26-.04-.39-.06Z"/><path class="cls-3" d="M16.18,70.25c-1.58,0-2.85-1.2-2.85-2.69s1.27-2.69,2.85-2.69c1.03,0,1.92.51,2.43,1.27v2.84c-.51.76-1.4,1.27-2.43,1.27Z"/><path class="cls-3" d="M31.45,47.91h5.33c.02.39.03.78.04,1.18-.49.84-1.43,1.41-2.52,1.41-1.54,0-2.79-1.15-2.85-2.59Z"/><path class="cls-3" d="M7.29,29.53c0,.69-.27,1.31-.72,1.78-.02-1.19,0-2.38,0-3.56.45.47.72,1.1.72,1.78Z"/><path class="cls-3" d="M4.73,41.18c.47-.62,1.21-1.04,2.07-1.11.02.37.04.73.06,1.11h-2.13Z"/><ellipse class="cls-3" cx="4.11" cy="57.77" rx="1.68" ry="1.59"/><path class="cls-3" d="M7.12,72.26c.25-.17.57-.25.9-.25.93,0,1.68.71,1.68,1.6s-.75,1.59-1.68,1.59c-.34,0-.67-.1-.93-.26.02-.89.03-1.78.03-2.66Z"/><path class="cls-3" d="M30.63,26.39c.93,0,1.69.71,1.69,1.59s-.76,1.6-1.69,1.6-1.68-.71-1.68-1.6.75-1.59,1.68-1.59Z"/><path class="cls-3" d="M40.34,53.08c.93,0,1.68.71,1.68,1.59s-.75,1.6-1.68,1.6-1.68-.71-1.68-1.6.75-1.59,1.68-1.59Z"/><path class="cls-3" d="M6.56,27.75c0,1.19-.02,2.38,0,3.56-.53.56-1.28.91-2.13.91-1.58,0-2.85-1.21-2.85-2.69s1.27-2.69,2.85-2.69c.85,0,1.62.35,2.13.91Z"/><path class="cls-6" d="M5.52.83c-.35.04-.64.07-.82.09.27-.06.55-.09.82-.09Z"/><path class="cls-5" d="M13.73,47.91h-7.77v.16c.42.06.83.11,1.25.17-.14,3.21-.18,6.39-.17,9.53,0,4.85.1,9.65.07,14.49.25-.17.57-.25.9-.25.93,0,1.68.71,1.68,1.6s-.75,1.59-1.68,1.59c-.34,0-.67-.1-.93-.26-.02,1.65-.06,3.29-.13,4.96v.33h11.64v-11.23c-.51.76-1.4,1.27-2.43,1.27-1.58,0-2.85-1.2-2.85-2.69s1.27-2.69,2.85-2.69c1.03,0,1.92.51,2.43,1.27v-13.27l-.39-5.28c-1.49.05-4.49.33-4.49.33Z"/><path class="cls-5" d="M34.3,50.5c-1.54,0-2.79-1.15-2.85-2.59h-5.29v32.3h10.67c-.18-4.63-.13-9.38-.06-14.14-.51.46-1.2.75-1.98.75-1.58,0-2.85-1.2-2.85-2.69s1.27-2.69,2.85-2.69c.8,0,1.52.31,2.04.8.04-2.54.07-5.06.07-7.57,0-1.87-.03-3.73-.08-5.58-.49.84-1.43,1.41-2.52,1.41ZM32.51,72.01c.93,0,1.68.71,1.68,1.6s-.75,1.59-1.68,1.59-1.68-.71-1.68-1.59.75-1.6,1.68-1.6Z"/><path class="cls-5" d="M7.37,12.24v.02c-.47,5.15-.73,10.32-.8,15.49.45.47.72,1.1.72,1.78s-.27,1.31-.72,1.78c0,2.92.09,5.84.24,8.76.08,0,.17,0,.24,0,.95,0,1.8.44,2.31,1.12h9.25V12.21c-2.23.49-7.96.54-11.24.03ZM17.22,34.43c0,.87-.75,1.59-1.68,1.59s-1.69-.72-1.69-1.59.75-1.6,1.69-1.6,1.68.71,1.68,1.6ZM14.47,21.04c0,1.49-1.27,2.69-2.85,2.69s-2.86-1.2-2.86-2.69,1.28-2.69,2.86-2.69,2.85,1.2,2.85,2.69Z"/><path class="cls-5" d="M37.1,40.65c.3-5.9.36-11.8.18-17.7-.11-3.59-.31-7.19-.62-10.77h-10.5v29h11.81v-.47c-.28-.02-.58-.04-.87-.06ZM30.63,29.57c-.93,0-1.68-.71-1.68-1.6s.75-1.59,1.68-1.59,1.69.71,1.69,1.59-.76,1.6-1.69,1.6Z"/><path class="cls-3" d="M40.1,34.22c.93,0,1.68.71,1.68,1.59s-.75,1.6-1.68,1.6-1.68-.71-1.68-1.6.75-1.59,1.68-1.59Z"/><path class="cls-3" d="M11.62,18.35c1.58,0,2.85,1.2,2.85,2.69s-1.27,2.69-2.85,2.69-2.86-1.2-2.86-2.69,1.28-2.69,2.86-2.69Z"/><path class="cls-3" d="M13.73,50.18c1.58,0,2.86,1.2,2.86,2.69s-1.28,2.69-2.86,2.69-2.85-1.2-2.85-2.69,1.27-2.69,2.85-2.69Z"/><path class="cls-9" d="M6.86,41.18H.68v6.74h5.29c0-.89,0-1.78-.02-2.67,0-1.32-.02-2.64-.03-3.97.31-.02.63-.04.94-.06v-.04Z"/><path class="cls-7" d="M5.97,48.07v-.16H.68v30c0,1.27,1.03,2.3,2.3,2.3h3.99v-.33c.07-1.66.11-3.31.13-4.96-.46-.28-.75-.77-.75-1.32s.31-1.07.78-1.34c.03-4.85-.07-9.65-.07-14.49,0-3.14.03-6.32.17-9.53-.42-.06-.83-.11-1.25-.17ZM4.11,59.35c-.93,0-1.68-.71-1.68-1.59s.75-1.59,1.68-1.59,1.68.71,1.68,1.59-.75,1.59-1.68,1.59Z"/><path class="cls-7" d="M6.98,12.18h-4c-1.27,0-2.3,1.03-2.3,2.3v26.7h4.05c.47-.62,1.21-1.04,2.07-1.11-.15-2.92-.23-5.84-.24-8.76-.53.56-1.28.91-2.13.91-1.58,0-2.85-1.21-2.85-2.69s1.27-2.69,2.85-2.69c.85,0,1.62.35,2.13.91.07-5.17.33-10.34.8-15.49v-.02c-.14,0-.26-.04-.39-.06Z"/><path class="cls-6" d="M18.61,12.18H6.98c-.68-.12-1.22-.26-1.58-.44C2.96,10.52,1.24,7.56,1.15,5.79c-.07-1.26.26-2.78,1.27-3.79.06.16.69-.77,2.46-.28,1.28.35,2.39.87,3.39,1.51-.37.35-.66.78-.73,1.29-.27,1.53.55,3.74,1.55,5.04,1.51,1.99,9.1,2.16,10.29,2.2l.09.12c-.1.1-.3.19-.61.26h-.24v.03Z"/><path class="cls-4" d="M41.64,12.18h-4.98c.3,3.58.51,7.18.62,10.77.19,5.9.13,11.8-.18,17.7.29.02.59.04.87.06v.47h5.96V14.48c0-1.27-1.03-2.3-2.3-2.3ZM40.1,37.41c-.93,0-1.68-.71-1.68-1.6s.75-1.59,1.68-1.59,1.68.71,1.68,1.59-.75,1.6-1.68,1.6ZM40.18,25.37c-1.48,0-2.69-1.07-2.84-2.42,0-.09,0-.18,0-.27,0-1.49,1.27-2.69,2.85-2.69s2.86,1.2,2.86,2.69-1.28,2.69-2.86,2.69Z"/><path class="cls-4" d="M36.82,49.09c.05,1.85.08,3.71.08,5.58,0,2.51-.03,5.03-.07,7.57.51.49.82,1.16.82,1.89s-.33,1.45-.88,1.94c-.07,4.76-.12,9.51.06,14.14h4.81c1.27,0,2.3-1.03,2.3-2.3v-30h-6.79c0,.42-.14.82-.33,1.18ZM39.85,78.09c-1.58,0-2.86-1.2-2.86-2.69s1.28-2.69,2.86-2.69,2.86,1.2,2.86,2.69-1.28,2.69-2.86,2.69ZM40.34,53.08c.93,0,1.68.71,1.68,1.59s-.75,1.6-1.68,1.6-1.68-.71-1.68-1.6.75-1.59,1.68-1.59Z"/><path class="cls-6" d="M4.39.97c-.47.14-1.34.56-1.74.81.38-.32.84-.58,1.39-.73.12-.03.24-.06.35-.08Z"/><path class="cls-6" d="M30.64,2.27c2.32,2.05,2.32,2.08,3.93,3.46v.02c.28.38.49.77.44,1.03-.09.51-1.93,1.21-2.51,1.45-.98.4-1.92.61-2.92.93-1.42.45-2.33,1.17-3.51,1.82l-1.18-2.19c-.11-1.73,1.26-3.68,2.55-4.99.48-.49,1.12-1.22,1.79-1.55.5-.24.96-.16,1.4.03Z"/><rect class="cls-8" x="43.94" y="41.18" width=".14" height="6.74"/><path class="cls-8" d="M26.16,12.18v-.03h-1.82l2.29-.07-.74-.97-1.84-2.39-6.67.27.73,1.02,1.26,1.75.09.12.19.26h-1.04v29.03H6.86v.04c-.31.02-.63.04-.94.06,0,1.32.02,2.64.03,3.97,0,.89.02,1.78.02,2.67h12.64v32.3h7.55v-32.3h10.99s0-.07,0-.11c0-.07,0-.14,0-.2.25-.03.52-.07.78-.11,0-2.11.03-4.21.04-6.33h-11.81V12.18Z"/><path class="cls-8" d="M12.36,6.72c1.19,1.19,3.42,3.59,5.56,3.43,0,0-1.05-1.1-1.5-1.41-.38-.27-.76-.69-1.07-1.03-.82-.91-1.5-1.99-1.92-3.09-.5-1.31-.59-3.91-2.54-4.21-.89-.14-3.69.22-5.29.41-.04,0-.07,0-.1,0-.35.04-.64.07-.82.09h-.08s-.1,0-.16.04c-.02,0-.05,0-.07.02-.47.14-1.34.56-1.74.81-.14.1-.23.17-.23.21h0c.06.17.69-.76,2.46-.27,1.28.35,2.39.87,3.39,1.51,1.53.95,2.81,2.18,4.09,3.5Z"/><rect class="cls-8" x=".37" y="41.18" width=".3" height="6.74"/><path class="cls-8" d="M39.57,1.64c-1.8-.74-8.03-.95-9.43.2.18.16.34.3.5.43,2.32,2.05,2.32,2.08,3.93,3.46v.02c.2.16.41.34.66.55,1.83,1.57,2.78,3.77-1.28,4.08-1.35.11-2.61.38-3.95.55-1.13.15-2.21.13-3.2.62-.03.09-.03.2,0,.28,1.16.05,2.27.14,3.43.13,2.15,0,4.28-.19,6.4-.28.83-.05,1.67-.08,2.52-.08,3.35,0,4.31-.57,4.62-3.72.24-2.45-1.41-5.08-4.19-6.23Z"/><path class="cls-1" d="M43.94,47.91v30c0,1.27-1.03,2.3-2.3,2.3h-15.47"/><path class="cls-1" d="M26.16,12.18h15.47c1.27,0,2.3,1.03,2.3,2.3v26.7"/><path class="cls-1" d="M.68,41.18V14.48c0-1.27,1.03-2.3,2.3-2.3h4"/><path class="cls-1" d="M18.61,80.21H2.98c-1.27,0-2.3-1.03-2.3-2.3v-30"/><path class="cls-1" d="M18.86,12.15c.3-.08.51-.17.61-.26"/><path class="cls-1" d="M19.37,11.77c-1.19-.04-8.78-.22-10.29-2.2-1-1.3-1.82-3.52-1.55-5.04.08-.51.36-.94.73-1.29"/><path class="cls-1" d="M2.42,2c.06.16.69-.77,2.46-.28,1.28.35,2.39.87,3.39,1.51,1.53.95,2.81,2.18,4.09,3.5,1.19,1.19,3.42,3.59,5.56,3.43,0,0-1.05-1.1-1.5-1.41-.38-.27-.76-.69-1.07-1.03-.82-.91-1.5-1.99-1.92-3.09-.5-1.31-.59-3.91-2.54-4.21-.89-.14-3.69.22-5.29.41l-1.22.16c-.47.14-1.34.56-1.74.81l-.23.22c-1.01,1.01-1.34,2.53-1.27,3.79.09,1.76,1.81,4.73,4.25,5.94.35.18.9.32,1.58.44.13.02.25.05.39.06,3.28.51,9.01.46,11.24-.03"/><polyline class="cls-1" points="24.34 12.15 26.63 12.08 25.89 11.11 24.05 8.72 17.38 8.99 18.11 10.01 19.37 11.77 19.46 11.88 19.65 12.15"/><path class="cls-1" d="M34.57,5.74c.27.38.48.77.43,1.03-.09.51-1.93,1.21-2.51,1.45-.98.4-1.92.61-2.92.93-1.42.45-2.33,1.17-3.51,1.82l-1.18-2.19c-.11-1.73,1.26-3.68,2.55-4.99.48-.49,1.12-1.22,1.79-1.55.5-.24.96-.16,1.4.03"/><path class="cls-1" d="M30.64,2.27c-.16-.13-.32-.27-.5-.43,1.4-1.15,7.63-.94,9.43-.2,2.78,1.15,4.44,3.78,4.19,6.23-.31,3.15-1.27,3.73-4.62,3.72-.84,0-1.68.03-2.52.08-2.13.1-4.25.28-6.4.28-1.16,0-2.27-.08-3.43-.13-.03-.09-.03-.2,0-.28.99-.49,2.08-.47,3.2-.62,1.33-.17,2.6-.44,3.95-.55,4.06-.31,3.11-2.52,1.28-4.08-.24-.21-.46-.39-.65-.55v-.02c-1.62-1.38-1.62-1.41-3.94-3.46Z"/><polyline class="cls-1" points="26.16 41.18 37.97 41.18 43.94 41.18 44.07 41.18 44.07 47.91 43.94 47.91 37.15 47.91 36.78 47.91 31.45 47.91 26.16 47.91"/><polyline class="cls-1" points="18.61 47.91 13.73 47.91 5.97 47.91 .68 47.91 .38 47.91 .38 41.18 .68 41.18 4.73 41.18 6.86 41.18 9.36 41.18 18.61 41.18"/><polygon class="cls-1" points="26.16 80.21 18.61 80.21 18.61 68.98 18.61 66.14 18.61 52.87 18.61 47.91 18.61 41.18 18.61 12.21 18.61 12.18 18.61 12.15 18.86 12.15 19.65 12.15 24.34 12.15 26.16 12.15 26.16 12.18 26.16 41.18 26.16 47.91 26.16 80.21"/></svg>