<?xml version="1.0" encoding="UTF-8"?><svg id="a" xmlns="http://www.w3.org/2000/svg" width="44.5" height="80.6" xmlns:xlink="http://www.w3.org/1999/xlink" viewBox="0 0 44.5 80.6"><defs><style>.f{fill:none;stroke:#000;stroke-width:.8px;}.g{fill:#5451a1;}.g,.h,.i,.j,.k,.l,.m,.n,.o,.p,.q,.r,.s,.t{stroke-width:0px;}.h{fill:#7170b3;}.i{fill:#328ecd;}.j{fill:#43499d;}.k{fill:#e296ba;}.l{fill:#6c4f9f;}.m{fill:#fdf170;}.n{fill:#fff100;}.o{fill:#e4d31c;}.p{fill:#f6b4d1;}.q{fill:url(#b);}.r{fill:url(#c);}.s{fill:url(#e);}.t{fill:url(#d);}</style><linearGradient id="b" x1=".7" y1="41.1" x2="44" y2="41.1" gradientUnits="userSpaceOnUse"><stop offset="0" stop-color="#90278e"/><stop offset="0" stop-color="#8f278e"/><stop offset="0" stop-color="#6346a3"/><stop offset="0" stop-color="#3f60b4"/><stop offset="0" stop-color="#2374c1"/><stop offset=".1" stop-color="#0f82cb"/><stop offset=".1" stop-color="#038bd1"/><stop offset=".2" stop-color="#008ed3"/><stop offset=".3" stop-color="#5b4ca7"/><stop offset=".3" stop-color="#90278e"/><stop offset=".3" stop-color="#812e92"/><stop offset=".4" stop-color="#59429e"/><stop offset=".4" stop-color="#1b63b2"/><stop offset=".4" stop-color="#0071bb"/><stop offset=".6" stop-color="#90278e"/><stop offset=".6" stop-color="#8f278e"/><stop offset=".7" stop-color="#424ea6"/><stop offset=".8" stop-color="#1267b5"/><stop offset=".8" stop-color="#0071bb"/><stop offset=".9" stop-color="#2259ac"/><stop offset=".9" stop-color="#46419c"/><stop offset="1" stop-color="#5c3293"/><stop offset="1" stop-color="#652d90"/></linearGradient><linearGradient id="c" x1="2" y1="21" x2="43" y2="21" xlink:href="#b"/><linearGradient id="d" x1=".7" y1="35.2" x2="44" y2="35.2" xlink:href="#b"/><linearGradient id="e" x1=".7" y1="55.9" x2="44" y2="55.9" xlink:href="#b"/></defs><path class="j" d="m38.9,51.4l1.1,2.2,3.2.5-2.3,2.3.5,3.2-2.5-1.3v22.1h4c.6,0,1-.5,1-1v-31.3h-5.1v3.5Z"/><path class="j" d="m42.9,12.2h-4v12l2.1,1.1,2.4-1.5v3.2c0,0,0,2.6,0,2.6h-.9c0,.1-1.4,3.1-1.4,3.1l-1.4-2.9h-.7c0,0,0,11.5,0,11.5h5.1V13.2c0-.6-.5-1-1-1Z"/><polygon class="o" points="43.4 23.8 43.4 27 43.4 29.6 42.5 29.7 41 32.7 39.6 29.7 38.9 29.6 38.9 24.2 41 25.3 43.4 23.8"/><polygon class="o" points="43.2 54 40.9 56.3 41.4 59.5 38.9 58.2 38.9 51.4 40 53.6 43.2 54"/><path class="k" d="m34.6,5.7c.3.4.5.8.4,1,0,.5-1.9,1.2-2.5,1.4-1,.4-1.9.6-2.9.9-1.4.5-2.3,1.2-3.5,1.8l-1.2-2.2c-.1-1.7,1.3-3.7,2.5-5,.5-.5,1.1-1.2,1.8-1.6.5-.2,1-.2,1.4,0,2.3,2.1,2.3,2.1,4,3.5Z"/><polygon class="l" points="30.6 69.2 30.6 80.3 18.6 80.3 18.6 80.1 26.2 80.1 26.2 73.3 28.7 74.6 28.1 71.4 30.4 69.2 30.6 69.2"/><polygon class="q" points="26.2 41 26.4 41.2 26.2 41.2 26.2 41"/><polygon class="r" points="26.4 20.6 26.2 21.6 26.2 20.4 26.4 20.6"/><path class="k" d="m19.4,11.8h0c0,.2-.3.3-.6.4h-.3s-11.6,0-11.6,0c-.7-.1-1.2-.3-1.6-.4C3,10.5,1.2,7.6,1.1,5.8c0-1.3.3-2.8,1.3-3.8,0,.2.7-.8,2.5-.3,1.3.4,2.4.9,3.4,1.5-.4.4-.7.8-.7,1.3-.3,1.5.6,3.7,1.5,5,1.5,2,9.1,2.2,10.3,2.2Z"/><polygon class="t" points="18.6 33.5 18.6 37 18.1 34 18.6 33.5"/><path class="l" d="m16.4,12.5c-1.6.1-3.6.1-5.5,0-1.4,0-2.8-.2-3.9-.4h11.6c-.6.1-1.4.2-2.3.3Z"/><polygon class="g" points="26.2 66.6 27.2 68.7 30.4 69.2 30.6 69.2 30.6 47.9 26.2 47.9 26.2 66.6"/><polygon class="g" points="26.2 23.6 26.2 39.3 27.9 39.1 29.3 36.2 30.6 38.7 30.6 23.3 28.7 22.3 26.2 23.6"/><polygon class="g" points="30.2 12.2 26.2 12.2 26.2 18 27.3 17.8 28.7 14.9 30.1 17.8 30.6 17.9 30.6 12.3 30.6 12.2 30.2 12.2"/><polygon class="g" points="16.2 58.7 13.3 57.2 10.8 58.5 10.8 68.3 10.8 80.3 16.4 80.3 16.4 54.9 15.7 55.5 16.2 58.7"/><polygon class="g" points="10.8 53 11.9 52.8 13.3 49.9 14.8 52.8 16.4 53 16.4 47.9 10.8 47.9 10.8 53"/><path class="g" d="m10.8,12.6v28.7h5.5v-5.2l-.6-.3-2.9,1.5.5-3.2-2.3-2.3,3.2-.5,1.4-2.9.6,1.2V12.5c-1.6.1-3.6.1-5.5,0Z"/><polygon class="s" points="11 55.5 10.8 56.5 10.8 55.4 11 55.5"/><polygon class="i" points="30.6 69.2 30.6 80.3 38.9 80.3 38.9 58.2 38.5 58 35.7 59.5 36.2 56.3 33.9 54 37.1 53.6 38.5 50.7 38.9 51.4 38.9 47.9 30.6 47.9 30.6 69.2"/><polygon class="i" points="38.9 12.2 30.6 12.2 30.6 12.3 30.6 17.9 33.3 18.3 31 20.6 31.6 23.8 30.6 23.3 30.6 38.7 30.8 39.1 34 39.6 32.3 41.2 38.9 41.2 38.9 29.6 36.4 29.3 38.7 27 38.2 23.8 38.9 24.2 38.9 12.2"/><polygon class="i" points="16.4 53 18 53.3 16.4 54.9 16.4 80.3 18.6 80.3 18.6 80.1 18.6 69.2 18.6 53.3 18.6 47.9 16.4 47.9 16.4 53"/><polygon class="i" points="16.4 41.2 18.6 41.2 18.6 37.2 16.4 36 16.4 41.2"/><path class="i" d="m16.4,29.5l.9,1.7,1.4.2V12.2c-.6.1-1.4.2-2.3.3v17Z"/><polygon class="i" points="3.7 65.7 4.8 67.9 8 68.3 5.7 70.6 6.3 73.8 3.7 72.5 3.7 80.3 10.8 80.3 10.8 68.3 10.8 58.5 10.5 58.7 10.8 56.5 10.8 55.4 8.7 53.3 10.8 53 10.8 47.9 3.7 47.9 3.7 65.7"/><path class="i" d="m3.7,12.2v7.4h.8c0-.1,1.4-3,1.4-3l1.4,2.9,3.2.5-2.3,2.3.5,3.2-2.9-1.5-2.2,1.2v16.1h7.1V12.6c-1.4,0-2.8-.2-3.9-.4h-3.2Z"/><polygon class="n" points="37.1 53.6 33.9 54 36.2 56.3 35.7 59.5 38.5 58 38.9 58.2 38.9 51.4 38.5 50.7 37.1 53.6"/><polygon class="n" points="38.2 23.8 38.7 27 36.4 29.3 38.9 29.6 38.9 24.2 38.2 23.8"/><polygon class="n" points="30.8 39.1 30.6 38.7 29.3 36.2 27.9 39.1 26.2 39.3 26.2 41 26.4 41.2 30.6 41.2 32.3 41.2 34 39.6 30.8 39.1"/><polygon class="n" points="30.6 23.3 31.6 23.8 31 20.6 33.3 18.3 30.6 17.9 30.1 17.8 28.7 14.9 27.3 17.8 26.2 18 26.2 20.4 26.4 20.6 26.2 21.6 26.2 23.6 28.7 22.3 30.6 23.3"/><polygon class="n" points="27.2 68.7 26.2 66.6 26.2 73.3 28.7 74.6 28.1 71.4 30.4 69.2 27.2 68.7"/><polygon class="n" points="16.4 29.5 15.8 28.3 14.4 31.2 11.1 31.7 13.5 34 12.9 37.2 15.8 35.7 16.4 36 18.6 37.2 18.6 37 18.1 34 18.6 33.5 18.6 31.4 17.2 31.2 16.4 29.5"/><polygon class="n" points="14.8 52.8 13.3 49.9 11.9 52.8 10.8 53 8.7 53.3 10.8 55.4 11 55.5 10.8 56.5 10.5 58.7 10.8 58.5 13.3 57.2 16.2 58.7 15.7 55.5 16.4 54.9 18 53.3 16.4 53 14.8 52.8"/><polygon class="n" points="8.9 25.4 8.3 22.2 10.6 20 7.4 19.5 6 16.6 4.6 19.5 3.7 19.6 3.7 25.1 6 23.9 8.9 25.4"/><polygon class="n" points="4.8 67.9 3.7 65.7 3.7 72.5 6.3 73.8 5.7 70.6 8 68.3 4.8 67.9"/><polygon class="m" points="3.7 65.7 3.7 72.5 3.4 72.3 1 73.8 1.1 70.6 1.1 68 1.9 67.9 3.4 64.9 3.7 65.7"/><polygon class="m" points="3.7 19.6 3.7 25.1 3.1 25.4 3.7 22.2 1.3 20 3.7 19.6"/><path class="h" d="m.7,73.8v5.5c0,.6.5,1,1,1h2v-7.8l-.4-.2-2.4,1.5v-3.2c0,0,0-2.6,0-2.6h.9c0-.1,1.4-3.1,1.4-3.1l.4.7v-17.8H.7v25.8Z"/><path class="h" d="m3.7,12.2H1.7c-.6,0-1,.5-1,1v28h3.1v-16.1l-.6.3.5-3.2-2.3-2.3,2.4-.4v-7.4Z"/><polygon class="p" points="44 41.2 38.9 41.2 32.3 41.2 30.6 41.2 26.4 41.2 26.2 41.2 26.2 41 26.2 39.3 26.2 23.6 26.2 21.6 26.2 20.4 26.2 18 26.2 12.2 26.2 12.2 24.7 12.2 26.7 12.1 25.9 11.1 24.1 8.7 17.4 9 18.1 10 19.4 11.8 19.5 11.9 19.7 12.2 18.9 12.2 18.6 12.2 18.6 12.2 18.6 12.2 18.6 31.4 18.6 33.5 18.6 37 18.6 37.2 18.6 41.2 16.4 41.2 10.8 41.2 3.7 41.2 .7 41.2 .4 41.2 .4 47.9 .7 47.9 3.7 47.9 10.8 47.9 16.4 47.9 18.6 47.9 18.6 53.3 18.6 69.2 18.6 80.1 26.2 80.1 26.2 73.3 26.2 66.6 26.2 47.9 30.6 47.9 38.9 47.9 44 47.9 44.1 47.9 44.1 41.2 44 41.2"/><path class="p" d="m39.2,11.6c3.4,0,4.3-.6,4.6-3.7.2-2.5-1.4-5.1-4.2-6.2-1.8-.7-8-1-9.4.2.2.2.3.3.5.4,2.3,2.1,2.3,2.1,4,3.5.2.2.4.3.6.5,1.8,1.6,2.8,3.8-1.3,4.1-1.3,0-2.6.4-3.9.5-1.1.1-2.2.1-3.2.6,0,0,0,.2,0,.3,1.2,0,2.3.1,3.4.1,3,0,5.9-.4,8.9-.4Z"/><path class="p" d="m4.9,1.7c1.3.4,2.4.9,3.4,1.5,1.5,1,2.8,2.2,4.1,3.5,1.2,1.2,3.4,3.6,5.6,3.4,0,0-1.1-1.1-1.5-1.4-.4-.3-.8-.7-1.1-1-.8-.9-1.5-2-1.9-3.1-.5-1.3-.6-3.9-2.5-4.2-.9-.1-3.7.2-5.3.4,0,0,0,0,0,0-.3,0-.6,0-.9,0h0s0,0-.1,0c0,0,0,0,0,0-.1,0-.2,0-.4,0-.5.2-1,.4-1.4.7-.2,0-.3.2-.2.2,0,.2.7-.8,2.5-.3Z"/><path class="f" d="m18.9,12.2c.3,0,.5-.2.6-.3"/><path class="f" d="m2.4,2c-1,1-1.3,2.5-1.3,3.8,0,1.8,1.8,4.7,4.3,5.9.4.2.9.3,1.6.4"/><path class="f" d="m4.4,1c-.1,0-.2,0-.4,0-.5.2-1,.4-1.4.7"/><path class="f" d="m5.5.8c-.3,0-.6,0-.9,0"/><path class="f" d="m19.4,11.8c-1.2,0-8.8-.2-10.3-2.2-1-1.3-1.8-3.5-1.5-5,0-.5.4-.9.7-1.3"/><path class="f" d="m5.6.8c1.6-.2,4.4-.6,5.3-.4,2,.3,2,2.9,2.5,4.2.4,1.1,1.1,2.2,1.9,3.1.3.3.7.7,1.1,1,.4.3,1.5,1.4,1.5,1.4-2.2.2-4.4-2.2-5.6-3.4-1.3-1.3-2.6-2.5-4.1-3.5-1-.6-2.1-1.1-3.4-1.5-1.8-.5-2.4.4-2.5.3,0,0,0-.1.2-.2.4-.3,1.3-.7,1.8-.8,0,0,0,0,0,0,0,0,0,0,.1,0"/><path class="f" d="m4.6.9c.2,0,.5,0,.9,0"/><line class="f" x1="4.6" y1=".9" x2="4.6" y2=".9"/><polyline class="f" points="24.7 12.2 26.7 12.1 25.9 11.1 24.1 8.7 17.4 9 18.1 10 19.4 11.8 19.5 11.9 19.7 12.2"/><path class="f" d="m26.1,11l-1.2-2.2c-.1-1.7,1.3-3.7,2.5-5,.5-.5,1.1-1.2,1.8-1.6.5-.2,1-.2,1.4,0,.4.2.7.4,1,.6.7.5,1.4,1,1.9,1.7.2.3.7.7,1,1.2.3.4.5.8.4,1,0,.5-1.9,1.2-2.5,1.4-1,.4-1.9.6-2.9.9-1.4.5-2.3,1.2-3.5,1.8Z"/><path class="f" d="m30.7,2.3c-.2-.1-.3-.3-.5-.4,1.4-1.1,7.6-.9,9.4-.2,2.8,1.1,4.4,3.8,4.2,6.2-.3,3.2-1.3,3.7-4.6,3.7-3,0-5.9.4-8.9.4-1.2,0-2.3,0-3.4-.1,0,0,0-.2,0-.3,1-.5,2.1-.5,3.2-.6,1.3-.2,2.6-.5,3.9-.5,4.1-.3,3.1-2.5,1.3-4.1-.2-.2-.4-.4-.6-.5-1.6-1.4-1.6-1.4-4-3.5Z"/><path class="f" d="m44,47.9v31.3c0,.6-.5,1-1,1H1.7c-.6,0-1-.5-1-1v-31.3"/><path class="f" d="m26.2,12.2h16.8c.6,0,1,.5,1,1v28"/><path class="f" d="m.7,41.2V13.2c0-.6.5-1,1-1h16.9"/><polyline class="f" points="26.2 41.2 26.4 41.2 30.6 41.2 32.3 41.2 38.9 41.2 44 41.2 44.1 41.2 44.1 47.9 44 47.9 38.9 47.9 30.6 47.9 26.2 47.9"/><polyline class="f" points="18.6 47.9 16.4 47.9 10.8 47.9 3.7 47.9 .7 47.9 .4 47.9 .4 41.2 .7 41.2 3.7 41.2 10.8 41.2 16.4 41.2 18.6 41.2"/><polyline class="f" points="24.7 12.2 26.2 12.2 26.2 12.2 26.2 18 26.2 20.4 26.2 21.6 26.2 23.6 26.2 39.3 26.2 41 26.2 41.2 26.2 47.9 26.2 66.6 26.2 73.3 26.2 80.1 18.6 80.1 18.6 69.2 18.6 53.3 18.6 47.9 18.6 41.2 18.6 37.2 18.6 37 18.6 33.5 18.6 31.4 18.6 12.2 18.6 12.2 18.6 12.2 18.9 12.2 19.7 12.2 24.6 12.2"/></svg>