<?xml version="1.0" encoding="UTF-8"?><svg id="a" xmlns="http://www.w3.org/2000/svg" width="44.4" height="80.6" viewBox="0 0 44.4 80.6"><defs><style>.b{fill:none;stroke:#000;stroke-width:.8px;}.c{fill:#f3e056;}.c,.d,.e,.f,.g,.h,.i,.j{stroke-width:0px;}.d{fill:#f9d4e4;}.e{fill:#61bbb5;}.f{fill:#7acbc7;}.g{fill:#e0cf00;}.h{fill:#8bd1cd;}.i{fill:#fff696;}.j{fill:#fbf6b9;}</style></defs><path class="d" d="m13.8,34.4c0-.9.8-1.6,1.7-1.6s1.7.7,1.7,1.6-.8,1.6-1.7,1.6-1.7-.7-1.7-1.6Z"/><path class="d" d="m43,22.7c0,1.5-1.3,2.7-2.9,2.7s-2.7-1.1-2.8-2.4c0,0,0-.2,0-.3,0-1.5,1.3-2.7,2.8-2.7s2.9,1.2,2.9,2.7Z"/><ellipse class="d" cx="39.9" cy="75.4" rx="2.9" ry="2.7"/><path class="d" d="m34.8,66.8c-1.6,0-2.8-1.2-2.8-2.7s1.3-2.7,2.8-2.7,1.5.3,2,.8c0,1.3,0,2.6,0,3.8-.5.5-1.2.8-2,.8Z"/><path class="c" d="m43.9,47.9h-6.8s0,0,0-.1c0,0,0-.1,0-.2.3,0,.5,0,.8-.1,0-2.1,0-4.2,0-6.3h6v6.7Z"/><path class="d" d="m32.5,75.2c-.9,0-1.7-.7-1.7-1.6s.8-1.6,1.7-1.6,1.7.7,1.7,1.6-.8,1.6-1.7,1.6Z"/><path class="d" d="m7.1,72.3c0,.9,0,1.8,0,2.7-.5-.3-.8-.8-.8-1.3s.3-1.1.8-1.3Z"/><path class="d" d="m36.8,62.2c.5.5.8,1.2.8,1.9s-.3,1.4-.9,1.9c0-1.3,0-2.6,0-3.8Z"/><path class="d" d="m36.8,47.9h.4c0,.4-.1.8-.3,1.2,0-.4,0-.8,0-1.2Z"/><path class="d" d="m7,40.1c.9,0,1.8.4,2.3,1.1h-2.5c0-.4,0-.7,0-1.1,0,0,.2,0,.2,0Z"/><path class="g" d="m7,12.2h11.6c-2.2.5-8,.6-11.2,0-.1,0-.3,0-.4,0Z"/><path class="d" d="m16.2,70.3c-1.6,0-2.8-1.2-2.8-2.7s1.3-2.7,2.8-2.7,1.9.5,2.4,1.3v2.8c-.5.8-1.4,1.3-2.4,1.3Z"/><path class="d" d="m31.4,47.9h5.3c0,.4,0,.8,0,1.2-.5.8-1.4,1.4-2.5,1.4-1.5,0-2.8-1.1-2.8-2.6Z"/><path class="d" d="m7.3,29.5c0,.7-.3,1.3-.7,1.8,0-1.2,0-2.4,0-3.6.5.5.7,1.1.7,1.8Z"/><path class="d" d="m4.7,41.2c.5-.6,1.2-1,2.1-1.1,0,.4,0,.7,0,1.1h-2.1Z"/><ellipse class="d" cx="4.1" cy="57.8" rx="1.7" ry="1.6"/><path class="j" d="m5.9,41.3v4c-1-.4-1.7-1.4-1.7-2.5s.2-1.1.5-1.6h2.1c-.3,0-.6,0-.9,0Z"/><path class="d" d="m7.1,72.3c.3-.2.6-.3.9-.3.9,0,1.7.7,1.7,1.6s-.8,1.6-1.7,1.6-.7,0-.9-.3c0-.9,0-1.8,0-2.7Z"/><path class="d" d="m30.6,26.4c.9,0,1.7.7,1.7,1.6s-.8,1.6-1.7,1.6-1.7-.7-1.7-1.6.8-1.6,1.7-1.6Z"/><path class="d" d="m40.3,53.1c.9,0,1.7.7,1.7,1.6s-.8,1.6-1.7,1.6-1.7-.7-1.7-1.6.8-1.6,1.7-1.6Z"/><path class="d" d="m6.6,27.7c0,1.2,0,2.4,0,3.6-.5.6-1.3.9-2.1.9-1.6,0-2.8-1.2-2.8-2.7s1.3-2.7,2.8-2.7,1.6.4,2.1.9Z"/><path class="g" d="m5.5.8c-.4,0-.6,0-.8,0,.3,0,.5,0,.8,0Z"/><path class="f" d="m13.7,55.6c-1.6,0-2.8-1.2-2.8-2.7s1.3-2.7,2.8-2.7v-2.3h-7.8v.2c.4,0,.8.1,1.3.2-.1,3.2-.2,6.4-.2,9.5,0,4.8,0,9.6,0,14.5.3-.2.6-.3.9-.3.9,0,1.7.7,1.7,1.6s-.8,1.6-1.7,1.6-.7,0-.9-.3c0,1.6,0,3.3-.1,5v.3h11.6v-11.2c-.5.8-1.4,1.3-2.4,1.3-1.6,0-2.8-1.2-2.8-2.7s1.3-2.7,2.8-2.7,1.9.5,2.4,1.3v-13.3h-2c0,1.5-1.3,2.7-2.9,2.7Z"/><path class="f" d="m34.3,50.5c-1.5,0-2.8-1.1-2.8-2.6h-5.3v32.3h10.7c-.2-4.6-.1-9.4,0-14.1-.5.5-1.2.8-2,.8-1.6,0-2.8-1.2-2.8-2.7s1.3-2.7,2.8-2.7,1.5.3,2,.8c0-2.5,0-5.1,0-7.6s0-3.7,0-5.6c-.5.8-1.4,1.4-2.5,1.4Zm-1.8,21.5c.9,0,1.7.7,1.7,1.6s-.8,1.6-1.7,1.6-1.7-.7-1.7-1.6.8-1.6,1.7-1.6Z"/><path class="f" d="m7.4,12.2h0c-.5,5.2-.7,10.3-.8,15.5.5.5.7,1.1.7,1.8s-.3,1.3-.7,1.8c0,2.9,0,5.8.2,8.8,0,0,.2,0,.2,0,.9,0,1.8.4,2.3,1.1h9.3V12.2c-2.2.5-8,.5-11.2,0Zm9.9,22.2c0,.9-.8,1.6-1.7,1.6s-1.7-.7-1.7-1.6.8-1.6,1.7-1.6,1.7.7,1.7,1.6Zm-2.8-13.4c0,1.5-1.3,2.7-2.8,2.7s-2.9-1.2-2.9-2.7,1.3-2.7,2.9-2.7,2.8,1.2,2.8,2.7Z"/><path class="f" d="m37.1,40.6c.3-5.9.4-11.8.2-17.7-.1-3.6-.3-7.2-.6-10.8h-10.5v29h11.8v-.5c-.3,0-.6,0-.9,0Zm-6.5-11.1c-.9,0-1.7-.7-1.7-1.6s.8-1.6,1.7-1.6,1.7.7,1.7,1.6-.8,1.6-1.7,1.6Z"/><path class="d" d="m40.1,34.2c.9,0,1.7.7,1.7,1.6s-.8,1.6-1.7,1.6-1.7-.7-1.7-1.6.8-1.6,1.7-1.6Z"/><path class="d" d="m11.6,18.3c1.6,0,2.8,1.2,2.8,2.7s-1.3,2.7-2.8,2.7-2.9-1.2-2.9-2.7,1.3-2.7,2.9-2.7Z"/><path class="d" d="m13.7,50.2c1.6,0,2.9,1.2,2.9,2.7s-1.3,2.7-2.9,2.7-2.8-1.2-2.8-2.7,1.3-2.7,2.8-2.7Z"/><path class="j" d="m6,47.9H.7v-6.7h4.1c-.3.4-.5,1-.5,1.6,0,1.1.7,2.1,1.8,2.5,0,.9,0,1.8,0,2.7Z"/><path class="h" d="m6,48.1v-.2H.7v30c0,1.3,1,2.3,2.3,2.3h4v-.3c0-1.7.1-3.3.1-5-.5-.3-.8-.8-.8-1.3s.3-1.1.8-1.3c0-4.8,0-9.6,0-14.5,0-3.1,0-6.3.2-9.5-.4,0-.8-.1-1.3-.2Zm-1.9,11.3c-.9,0-1.7-.7-1.7-1.6s.8-1.6,1.7-1.6,1.7.7,1.7,1.6-.8,1.6-1.7,1.6Z"/><path class="h" d="m7,12.2h-4c-1.3,0-2.3,1-2.3,2.3v26.7h4.1c.5-.6,1.2-1,2.1-1.1-.1-2.9-.2-5.8-.2-8.8-.5.6-1.3.9-2.1.9-1.6,0-2.8-1.2-2.8-2.7s1.3-2.7,2.8-2.7,1.6.4,2.1.9c0-5.2.3-10.3.8-15.5h0c-.1,0-.3,0-.4,0Z"/><path class="g" d="m18.6,12.2H7c-.7-.1-1.2-.3-1.6-.4C3,10.5,1.2,7.6,1.1,5.8c0-1.3.3-2.8,1.3-3.8,0,.2.7-.8,2.5-.3,1.3.4,2.4.9,3.4,1.5-.4.4-.7.8-.7,1.3-.3,1.5.5,3.7,1.5,5,1.5,2,9.1,2.2,10.3,2.2h0c0,.2-.3.3-.6.4h-.2Z"/><path class="e" d="m41.6,12.2h-5c.3,3.6.5,7.2.6,10.8.2,5.9.1,11.8-.2,17.7.3,0,.6,0,.9,0v.5h6V14.5c0-1.3-1-2.3-2.3-2.3Zm-1.5,25.2c-.9,0-1.7-.7-1.7-1.6s.8-1.6,1.7-1.6,1.7.7,1.7,1.6-.8,1.6-1.7,1.6Zm0-12c-1.5,0-2.7-1.1-2.8-2.4,0,0,0-.2,0-.3,0-1.5,1.3-2.7,2.8-2.7s2.9,1.2,2.9,2.7-1.3,2.7-2.9,2.7Z"/><path class="e" d="m36.8,49.1c0,1.9,0,3.7,0,5.6s0,5,0,7.6c.5.5.8,1.2.8,1.9s-.3,1.4-.9,1.9c0,4.8-.1,9.5,0,14.1h4.8c1.3,0,2.3-1,2.3-2.3v-30h-6.8c0,.4-.1.8-.3,1.2Zm3,29c-1.6,0-2.9-1.2-2.9-2.7s1.3-2.7,2.9-2.7,2.9,1.2,2.9,2.7-1.3,2.7-2.9,2.7Zm.5-25c.9,0,1.7.7,1.7,1.6s-.8,1.6-1.7,1.6-1.7-.7-1.7-1.6.8-1.6,1.7-1.6Z"/><path class="g" d="m4.4,1c-.5.1-1.3.6-1.7.8.4-.3.8-.6,1.4-.7.1,0,.2,0,.4,0Z"/><path class="g" d="m30.6,2.3c2.3,2,2.3,2.1,3.9,3.5h0c.3.4.5.8.4,1,0,.5-1.9,1.2-2.5,1.4-1,.4-1.9.6-2.9.9-1.4.5-2.3,1.2-3.5,1.8l-1.2-2.2c-.1-1.7,1.3-3.7,2.5-5,.5-.5,1.1-1.2,1.8-1.5.5-.2,1-.2,1.4,0Z"/><rect class="i" x="43.9" y="41.2" width=".1" height="6.7"/><path class="i" d="m26.2,12.2h0s-1.8,0-1.8,0h2.3c0,0-.7-1-.7-1l-1.8-2.4-6.7.3.7,1,1.3,1.8h0c0,.1.2.4.2.4h-1v29H6.9c-.3,0-.6,0-.9,0,0,1.3,0,2.6,0,4,0,.9,0,1.8,0,2.7h12.6v32.3h7.6v-32.3h11s0,0,0-.1c0,0,0-.1,0-.2.3,0,.5,0,.8-.1,0-2.1,0-4.2,0-6.3h-11.8V12.2Z"/><path class="i" d="m12.4,6.7c1.2,1.2,3.4,3.6,5.6,3.4,0,0-1-1.1-1.5-1.4-.4-.3-.8-.7-1.1-1-.8-.9-1.5-2-1.9-3.1-.5-1.3-.6-3.9-2.5-4.2-.9-.1-3.7.2-5.3.4,0,0,0,0,0,0-.4,0-.6,0-.8,0h0s0,0-.2,0c0,0,0,0,0,0-.5.1-1.3.6-1.7.8-.1,0-.2.2-.2.2h0c0,.2.7-.8,2.5-.3,1.3.4,2.4.9,3.4,1.5,1.5.9,2.8,2.2,4.1,3.5Z"/><rect class="i" x=".4" y="41.2" width=".3" height="6.7"/><path class="i" d="m39.6,1.6c-1.8-.7-8-.9-9.4.2.2.2.3.3.5.4,2.3,2,2.3,2.1,3.9,3.5h0c.2.2.4.4.6.6,1.8,1.6,2.8,3.8-1.3,4.1-1.4.1-2.6.4-3.9.5-1.1.1-2.2.1-3.2.6,0,0,0,.2,0,.3,1.2,0,2.3.1,3.4.1,2.2,0,4.3-.2,6.4-.3.8,0,1.7,0,2.5,0,3.3,0,4.3-.6,4.6-3.7.2-2.4-1.4-5.1-4.2-6.2Z"/><path class="b" d="m43.9,47.9v30c0,1.3-1,2.3-2.3,2.3h-15.5"/><path class="b" d="m26.2,12.2h15.5c1.3,0,2.3,1,2.3,2.3v26.7"/><path class="b" d="m.7,41.2V14.5c0-1.3,1-2.3,2.3-2.3h4"/><path class="b" d="m18.6,80.2H3c-1.3,0-2.3-1-2.3-2.3v-30"/><path class="b" d="m18.9,12.1c.3,0,.5-.2.6-.3"/><path class="b" d="m2.4,2c-1,1-1.3,2.5-1.3,3.8,0,1.8,1.8,4.7,4.3,5.9.4.2.9.3,1.6.4.1,0,.3,0,.4,0,3.3.5,9,.5,11.2,0"/><path class="b" d="m4.4,1c-.1,0-.2,0-.4,0-.5.2-1,.4-1.4.7"/><path class="b" d="m5.5.8c-.3,0-.5,0-.8,0"/><path class="b" d="m19.4,11.8c-1.2,0-8.8-.2-10.3-2.2-1-1.3-1.8-3.5-1.5-5,0-.5.4-.9.7-1.3"/><path class="b" d="m5.6.8c1.6-.2,4.4-.5,5.3-.4,1.9.3,2,2.9,2.5,4.2.4,1.1,1.1,2.2,1.9,3.1.3.3.7.8,1.1,1,.5.3,1.5,1.4,1.5,1.4-2.1.2-4.4-2.2-5.6-3.4-1.3-1.3-2.6-2.5-4.1-3.5-1-.6-2.1-1.2-3.4-1.5-1.8-.5-2.4.4-2.5.3"/><path class="b" d="m4.7.9c.2,0,.5,0,.8,0"/><path class="b" d="m2.6,1.8c.4-.3,1.3-.7,1.7-.8"/><polyline class="b" points="24.3 12.1 26.6 12.1 25.9 11.1 24 8.7 17.4 9 18.1 10 19.4 11.8 19.5 11.9 19.6 12.1"/><path class="b" d="m34.6,5.7c.3.4.5.8.4,1,0,.5-1.9,1.2-2.5,1.4-1,.4-1.9.6-2.9.9-1.4.5-2.3,1.2-3.5,1.8l-1.2-2.2c-.1-1.7,1.3-3.7,2.5-5,.5-.5,1.1-1.2,1.8-1.5.5-.2,1-.2,1.4,0"/><path class="b" d="m30.6,2.3c-.2-.1-.3-.3-.5-.4,1.4-1.1,7.6-.9,9.4-.2,2.8,1.1,4.4,3.8,4.2,6.2-.3,3.2-1.3,3.7-4.6,3.7-.8,0-1.7,0-2.5,0-2.1,0-4.3.3-6.4.3-1.2,0-2.3,0-3.4-.1,0,0,0-.2,0-.3,1-.5,2.1-.5,3.2-.6,1.3-.2,2.6-.4,3.9-.5,4.1-.3,3.1-2.5,1.3-4.1-.2-.2-.5-.4-.6-.5h0c-1.6-1.4-1.6-1.4-3.9-3.5Z"/><polyline class="b" points="26.2 41.2 38 41.2 43.9 41.2 44.1 41.2 44.1 47.9 43.9 47.9 37.1 47.9 36.8 47.9 31.4 47.9 26.2 47.9"/><polyline class="b" points="18.6 47.9 13.7 47.9 6 47.9 .7 47.9 .4 47.9 .4 41.2 .7 41.2 4.7 41.2 6.9 41.2 9.4 41.2 18.6 41.2"/><polygon class="b" points="26.2 80.2 18.6 80.2 18.6 69 18.6 66.1 18.6 52.9 18.6 47.9 18.6 41.2 18.6 12.2 18.6 12.2 18.6 12.1 18.9 12.1 19.6 12.1 24.3 12.1 26.2 12.1 26.2 12.2 26.2 41.2 26.2 47.9 26.2 80.2"/></svg>