<?xml version="1.0" encoding="UTF-8"?><svg id="a" xmlns="http://www.w3.org/2000/svg" width="49.3" height="50.8" xmlns:xlink="http://www.w3.org/1999/xlink" viewBox="0 0 49.3 50.8"><defs><style>.c,.d{fill:none;}.c,.e,.f,.g,.h,.i{stroke-width:0px;}.j{fill:#fff;}.j,.k,.l,.d{stroke:#000;stroke-width:.8px;}.k{fill:#652d90;}.l{fill:#5b57a4;}.m{clip-path:url(#b);}.e{fill:#f9d45a;}.f{fill:#ad788f;}.g{fill:#afab34;}.h{fill:#ee8131;}.i{fill:#f4f0da;}</style><clipPath id="b"><path class="c" d="m46.4,50.4H2.9c-.7,0-1.2-.6-1.2-1.3v-25.2c0-.7.6-1.3,1.2-1.3h43.5c.7,0,1.2.6,1.2,1.3v25.2c0,.7-.6,1.3-1.2,1.3Z"/></clipPath></defs><g class="m"><rect class="i" x=".6" y="11.6" width="51" height="41"/><rect class="g" x="15.8" y="27.1" width="13" height="13" transform="translate(30.3 -5.9) rotate(45)"/><rect class="e" x="38.5" y="27.1" width="13" height="13" transform="translate(36.9 -21.9) rotate(45)"/><rect class="e" x="-6.9" y="27.1" width="13" height="13" transform="translate(23.7 10.1) rotate(45)"/><rect class="g" x="15.8" y="50.1" width="13" height="13" transform="translate(46.6 .8) rotate(45)"/><rect class="e" x="38.5" y="50.1" width="13" height="13" transform="translate(53.2 -15.2) rotate(45)"/><rect class="e" x="-6.9" y="50.1" width="13" height="13" transform="translate(39.9 16.8) rotate(45)"/><rect class="g" x="15.8" y="4.1" width="13" height="13" transform="translate(14 -12.7) rotate(45)"/><rect class="e" x="38.5" y="4.1" width="13" height="13" transform="translate(20.7 -28.7) rotate(45)"/><rect class="e" x="-6.9" y="4.1" width="13" height="13" transform="translate(7.4 3.4) rotate(45)"/><rect class="h" x="27.1" y="39.1" width="13" height="13" transform="translate(42.1 -10.4) rotate(45)"/><rect class="h" x="49.1" y="39.1" width="13" height="13" transform="translate(48.6 -26) rotate(45)"/><rect class="h" x="4.1" y="39.1" width="13" height="13" transform="translate(35.4 5.8) rotate(45)"/><rect class="f" x="27.1" y="15.1" width="13" height="13" transform="translate(25.1 -17.4) rotate(45)"/><rect class="f" x="49.1" y="15.1" width="13" height="13" transform="translate(31.6 -33) rotate(45)"/><rect class="f" x="4.1" y="15.1" width="13" height="13" transform="translate(18.4 -1.2) rotate(45)"/></g><path class="d" d="m46.4,50.4H2.9c-.7,0-1.2-.6-1.2-1.3v-25.2c0-.7.6-1.3,1.2-1.3h43.5c.7,0,1.2.6,1.2,1.3v25.2c0,.7-.6,1.3-1.2,1.3Z"/><rect class="j" x=".4" y="14.5" width="48.5" height="9.1" rx="1.4" ry="1.4"/><rect class="l" x="21.5" y="14.3" width="6.8" height="36"/><rect class="l" x="1.3" y="29.2" width="47.1" height="6.1"/><path class="l" d="m38.8,11.2c1-1.5,1.8-4.2,1.5-5.9-.1-.9-.6-1.5-1.2-2-.7-.6-1.5-.4-2.3-.7,1.1-.2,2.1-.9,3.1-1.3,1.3-.4,2.5-.6,3.8-.1,2.2.8,2.9,3.5,2.8,5.6,0,2.1-1.8,5.6-4.2,7-2.3,1.4-13.6,1.3-13.8,0,0,0,8.6,0,10.2-2.6Z"/><path class="k" d="m30.1,11.9c2.1.2,4.3-2.6,5.4-4,2.1-2.6,4.2-4.9,7.3-5.9,1.7-.6,2.3.5,2.4.3,0-.2-1.7-1.2-2.1-1.3-.9,0-5-.8-6.1-.6-1.9.4-2,3.4-2.5,5-.4,1.3-1.1,2.6-1.9,3.7-.3.4-.7.9-1,1.2-.4.4-1.5,1.7-1.5,1.7Z"/><polygon class="k" points="28.3 14.4 21.6 14.2 24.1 10.2 30.7 10.5 28.3 14.4"/><path class="l" d="m23.3,10.3c.1-2.1-1.2-4.3-2.5-5.9-.5-.6-1.1-1.5-1.8-1.8-.9-.5-1.7.2-2.4.8-.7.6-1.3,1.2-1.9,2-.4.6-1.5,2-1.4,2.6,0,.6,1.9,1.4,2.5,1.7,1,.5,1.9.7,2.8,1.1,1.4.5,2.3,1.4,3.4,2.1l1.1-2.6Z"/><path class="k" d="m18.2,2.1c-1.4-1.4-7.5-1.1-9.2-.2-2.7,1.4-4.3,4.5-4.1,7.4.3,3.7,1.2,4.4,4.5,4.4,2.9,0,5.8.4,8.7.4,1.1,0,2.2,0,3.4-.2,0-.1,0-.2,0-.3-1-.6-2-.6-3.1-.7-1.3-.2-2.5-.5-3.9-.6-4-.4-3-3-1.3-4.8,2.4-2.5,1.9-2,5-5.2Z"/></svg>