<?xml version="1.0" encoding="UTF-8"?><svg id="a" xmlns="http://www.w3.org/2000/svg" width="52.4" height="60.4" xmlns:xlink="http://www.w3.org/1999/xlink" viewBox="0 0 52.4 60.4"><defs><style>.e{fill:none;stroke:#000;stroke-width:.8px;}.f{fill:#f58b57;}.f,.g,.h,.i,.j,.k,.l,.m,.n,.o,.p,.q,.r,.s,.t,.u,.v,.w,.x,.y,.z,.aa,.ab,.ac,.ad,.ae,.af{stroke-width:0px;}.g{fill:#5473b7;}.h{fill:#4561ac;}.i{fill:#59489c;}.j{fill:#3699d1;}.k{fill:#3d3286;}.l{fill:#2f5496;}.m{fill:#0d7ca3;}.n{fill:#2084c6;}.o{fill:#c9cb2c;}.p{fill:#e0df44;}.q{fill:#dfa726;}.r{fill:#d82041;}.s{fill:#dc5e26;}.t{fill:#b5cc39;}.u{fill:#b6b834;}.v{fill:#6559a5;}.w{fill:#ef5974;}.x{fill:#f3772f;}.y{fill:#f3bf2f;}.z{fill:#ed344d;}.aa{fill:#f6c859;}.ab{fill:#00b1ac;}.ac{fill:#006f3b;}.ad{fill:url(#b);}.ae{fill:url(#c);}.af{fill:url(#d);}</style><linearGradient id="b" x1="22.2" y1="45.9" x2="22.2" y2="17.4" gradientUnits="userSpaceOnUse"><stop offset="0" stop-color="#ec1c24"/><stop offset="0" stop-color="#ed2e23"/><stop offset="0" stop-color="#f05221"/><stop offset="0" stop-color="#f26e1f"/><stop offset=".1" stop-color="#f4821e"/><stop offset=".1" stop-color="#f58e1e"/><stop offset=".2" stop-color="#f6921e"/><stop offset=".3" stop-color="#ffc10e"/><stop offset=".3" stop-color="#f0c114"/><stop offset=".4" stop-color="#c8c224"/><stop offset=".5" stop-color="#8bc53f"/><stop offset=".6" stop-color="#00adee"/><stop offset=".7" stop-color="#0083ca"/><stop offset=".8" stop-color="#0071bb"/><stop offset=".8" stop-color="#137bad"/><stop offset=".9" stop-color="#539c7e"/><stop offset=".9" stop-color="#86b75a"/><stop offset=".9" stop-color="#aaca3f"/><stop offset="1" stop-color="#c0d52f"/><stop offset="1" stop-color="#c9da2a"/></linearGradient><linearGradient id="c" x1="30.6" y1="46.7" x2="30.6" y2="17.2" xlink:href="#b"/><linearGradient id="d" x1="32.6" y1="59.9" x2="32.6" y2="16" xlink:href="#b"/></defs><path class="i" d="m7.9,16h9.6l-1.2,2.3H7.6c0-.8.2-1.5.3-2.3h0Z"/><path class="ab" d="m7.1,35c0-.7,0-1.5-.1-2.2h15.6v2.2H7.1Z"/><path class="g" d="m1.1,21.7h6.1c-.2,2-.3,4-.3,5.9H.8v-5.9h.3Z"/><path class="m" d="m51.2,27.7v5.1h-4.9c0-1.7,0-3.4,0-5.1h4.8Z"/><polygon class="h" points="22.6 21.7 22.6 27.7 19.3 27.7 19.3 26.2 21.7 21.7 22.6 21.7"/><path class="k" d="m46.2,21.7c0-1.2-.2-2.3-.3-3.4h5.3v3.4h-5Z"/><path class="t" d="m30.1,41.7h16.8c0,.2-.2.2-.3.2,0,.8,0,1.6,0,2.4h-16.5v-2.6Z"/><rect class="u" x="51.2" y="35" width=".8" height="6.7"/><path class="l" d="m51.2,21.7v5.9h-4.8c0-2,0-4-.2-5.9h5Z"/><path class="ab" d="m.8,35v-2.2h6.2c0,.7,0,1.5.1,2.2H.8Z"/><path class="p" d="m6.2,41.7c.1.2.3.3.5.3,0,.8,0,1.5,0,2.3H.8v-2.6h5.4Z"/><path class="ac" d="m13.3,8.6c0-.3.2-.9.5-1.4h0c1.7-1.8,1.7-1.8,4.2-4.5.5-.3,1-.4,1.5,0,.7.4,1.4,1.4,1.9,2,1.4,1.7,2.8,4.2,2.7,6.5l-1.2,2.8c-1.3-.8-2.2-1.8-3.8-2.4-1.1-.4-2.1-.7-3.1-1.2-.6-.3-2.6-1.2-2.7-1.9Z"/><path class="q" d="m51.2,50.2h-4.6c0-2,0-4,0-5.9h4.6v5.9Z"/><path class="ac" d="m45.9,1.1c-.2,0-.5,0-.9-.1.3,0,.6,0,.9.1Z"/><path class="y" d="m46.6,44.3c0,2,0,4,0,5.9h-16.5v-5.9h16.5Z"/><path class="u" d="m46.9,41.7c.7-1.2.5-7.2.2-6.4-.2-.3-.7-.2-.8.2,0-.2,0-.3,0-.5h5v6.7h-4.3Z"/><path class="k" d="m45.9,18.3c0-.8-.2-1.5-.2-2.3h3.7c1,0,1.9.8,1.9,1.9v.4h-5.3Z"/><path class="p" d="m.8,35h6.3c0,.2,0,.4,0,.6-.2-.4-.8-.5-1.1-.2-.4-.9-.7,4.9.2,6.3H.8v-6.7Z"/><path class="s" d="m46.6,55.5c0-1.8,0-3.5,0-5.3h4.6v5.3h-4.6Z"/><path class="i" d="m46.2,21.7h-7.9l-1.8-3.4h9.4c.1,1.1.2,2.3.3,3.4Z"/><path class="h" d="m6.9,27.7c0-2,.1-4,.3-5.9h7.3l-.7,1.4,4-.8,1.5,3.9v1.5H6.9Z"/><path class="n" d="m46.4,27.7c0,1.7,0,3.4,0,5.1h-16.3v-5.1h16.3Z"/><path class="ac" d="m41.1,16c-1.8.2-3.9.2-5.8.2h0s-.2,0-.2,0c-.9,0-1.8,0-2.6-.2h8.6Z"/><path class="t" d="m6.7,42c-.2,0-.3,0-.5-.3h16.4v2.6H6.7c0-.8,0-1.5,0-2.3Z"/><path class="v" d="m.8,21.7v-3.4h6.8c-.2,1.1-.3,2.3-.4,3.4H.8Z"/><path class="f" d="m6.6,50.2c0,1.8,0,3.5,0,5.3H.8v-5.3h5.8Z"/><path class="x" d="m46.6,50.2c0,1.8,0,3.5,0,5.3h-16.6v-5.3h16.5Z"/><path class="v" d="m.8,17.8c0-1,.8-1.9,1.9-1.9h5.2c-.1.8-.2,1.6-.3,2.3H.8v-.4Z"/><polygon class="ad" points="22.6 20 22.6 21.7 21.7 21.7 22.6 20"/><path class="n" d="m22.6,32.8H7c0-1.7-.1-3.4,0-5.1h15.7v5.1Z"/><path class="h" d="m39.1,23.3l-.8-1.6h7.9c.1,2,.2,4,.2,5.9h-12.8v-1.2l1.5-3.9,4,.8Z"/><path class="ac" d="m35.4,16.1h0c0,0-.1,0-.2,0h.2Z"/><path class="ac" d="m30,15.1c1.3,0,9.4-.3,11.1-2.8,1.1-1.7,1.9-4.6,1.7-6.5,0-.7-.4-1.2-.8-1.7,1.1-.8,2.3-1.5,3.6-1.9,1.9-.6,2.6.6,2.6.4,1.1,1.3,1.4,3.3,1.4,4.9-.1,2.3-1.9,6.1-4.6,7.7-.7.4-2.2.7-3.9.9h-8.6c-1.3-.2-2.3-.4-2.6-.7v-.2Z"/><polygon class="ae" points="30.1 21.7 30.1 19.8 31.1 21.7 30.1 21.7"/><path class="r" d="m51.2,55.5v2.5c0,1-.8,1.9-1.9,1.9h-2.7c0-1.5,0-2.9,0-4.4h4.6Z"/><path class="z" d="m6.6,59.9c0-1.5,0-2.9,0-4.4h16v4.4H6.6Z"/><path class="i" d="m7.6,18.3h8.7l-1.8,3.4h-7.3c0-1.1.2-2.3.4-3.4Z"/><path class="aa" d="m.8,44.3h5.8c0,2,0,4,0,5.9H.8v-5.9Z"/><path class="ab" d="m51.2,35h-5c0-.7,0-1.5,0-2.2h4.9v2.2Z"/><path class="x" d="m22.6,50.2v5.3H6.6c0-1.8,0-3.5,0-5.3h16Z"/><path class="ac" d="m48,2.2c-.4-.3-1.4-.9-1.9-1.1.1,0,.3,0,.4.1.6.2,1.1.5,1.5,1Z"/><path class="y" d="m22.6,44.3v5.9H6.6c0-2,0-4,0-5.9h15.9Z"/><path class="ab" d="m46.3,32.8c0,.7,0,1.5,0,2.2h-16.2v-2.2h16.3Z"/><path class="w" d="m6.6,55.5c0,1.5,0,2.9,0,4.4h-3.9c-1,0-1.9-.8-1.9-1.9v-2.5h5.8Z"/><path class="af" d="m30.1,16.1v-.2h2.5c.8,0,1.7.1,2.6.2h-5.1Z"/><path class="z" d="m46.6,55.5c0,1.5,0,2.9,0,4.4h-16.6v-4.4h16.6Z"/><path class="i" d="m35.4,16.2c1.9,0,4,0,5.8-.2h4.5c0,.8.2,1.5.2,2.3h-9.4l-1.1-2.1Z"/><path class="u" d="m46.6,41.9c.1,0,.2,0,.3-.2h4.3v2.6h-4.6c0-.8,0-1.6,0-2.4Z"/><polygon class="h" points="31.1 21.7 33.6 26.4 33.6 27.7 30.1 27.7 30.1 21.7 31.1 21.7"/><path class="o" d="m18.4,15.4c1.2,0,2.4-.1,3.7-.2,0-.1,0-.2,0-.4-1.1-.6-2.2-.6-3.4-.8-1.4-.2-2.8-.6-4.2-.7-4.4-.4-3.3-3.3-1.4-5.3.3-.3.5-.5.7-.7h0c1.7-1.8,1.7-1.8,4.2-4.5.2-.2.3-.4.5-.6-1.5-1.5-8.2-1.2-10.1-.3-3,1.5-4.8,4.9-4.5,8.1.3,4.1,1.4,4.8,5,4.8,3.2,0,6.3.5,9.6.5Z"/><path class="o" d="m48,2.2c-.4-.3-1.4-.9-1.9-1.1,0,0-.2,0-.2,0h0c-.2,0-.5,0-.9-.1h0c-1.7-.2-4.8-.7-5.8-.6-2.1.4-2.2,3.7-2.7,5.4-.5,1.4-1.2,2.8-2.1,4-.3.4-.7,1-1.1,1.3-.5.4-1.6,1.8-1.6,1.8,2.3.2,4.7-2.9,6-4.4,1.4-1.7,2.8-3.3,4.4-4.5,1.1-.8,2.3-1.5,3.6-1.9,1.9-.6,2.6.6,2.6.4h0c0,0,0-.1-.2-.3Z"/><rect class="o" x=".4" y="35" width=".5" height="6.7"/><path class="o" d="m47,35.3c-.2-.3-.7-.2-.8.2,0-.2,0-.3,0-.5h-16.2v-15.2l1,1.9,2.5,4.7,1.5-3.9,4,.8-.8-1.6-1.8-3.4-1.1-2.1c0,0-.1,0-.2,0h-5.1v-.3h-7.5c0,0-5.1,0-5.1,0h0c0,0-1.2,2.4-1.2,2.4l-1.8,3.4-.7,1.4,4-.8,1.5,3.9,2.4-4.5.9-1.7v15H7.1c0,.2,0,.4,0,.6-.2-.4-.8-.5-1.1-.2-.4-.9-.7,4.9.2,6.3h16.4v18.2h0c0,0,7.5,0,7.5,0h0v-18.3h16.8c.7-1.2.5-7.2.2-6.4Z"/><polygon class="o" points="30 15.3 30 15.1 31.4 12.9 32.2 11.5 25 11.2 23.1 14.2 22.4 15.4 22.3 15.5 29.6 15.8 30 15.3"/><path class="j" d="m6.9,27.7c0,1.7,0,3.4,0,5.1H.8v-5.1h6.1Z"/><path class="e" d="m51.2,41.7v16.4c0,1-.8,1.9-1.9,1.9h-19.3"/><path class="e" d="m41.1,16h8.2c1,0,1.9.8,1.9,1.9v17.2"/><line class="e" x1="30.1" y1="16" x2="32.6" y2="16"/><path class="e" d="m.8,35v-17.2c0-1,.8-1.9,1.9-1.9h14.8"/><path class="e" d="m22.6,59.9H2.7c-1,0-1.9-.8-1.9-1.9v-16.4"/><polyline class="e" points="30.1 41.7 30.1 44.3 30.1 50.2 30.1 55.5 30.1 59.9 30.1 60 22.6 60 22.6 59.9 22.6 55.5 22.6 50.2 22.6 44.3 22.6 41.7"/><polyline class="e" points="30.1 19.8 30.1 21.7 30.1 27.7 30.1 32.8 30.1 35"/><polyline class="e" points="22.6 15.9 22.6 15.8 30.1 15.8 30.1 16 30.1 16.1"/><polyline class="e" points="22.6 35 22.6 32.8 22.6 27.7 22.6 21.7 22.6 20"/><polygon class="e" points="51.2 35 52 35 52 41.7 51.2 41.7 46.9 41.7 30.1 41.7 22.6 41.7 6.2 41.7 .8 41.7 .4 41.7 .4 35 .8 35 7.1 35 22.6 35 30.1 35 46.2 35 51.2 35"/><polyline class="e" points="35.4 16.2 36.5 18.3 38.3 21.7 39.1 23.3 35.1 22.6 33.6 26.4 31.1 21.7 30.1 19.8 29.2 18.3 28.1 16.1 30.1 16.1 35.2 16.1"/><path class="e" d="m48.2,2.5c1.1,1.3,1.4,3.3,1.4,4.9-.1,2.3-1.9,6.1-4.6,7.7-.7.4-2.2.7-3.9.9-1.8.2-3.9.2-5.8.2,0,0-.1,0-.2,0-.9,0-1.8,0-2.6-.2-1.3-.2-2.3-.4-2.6-.7"/><path class="e" d="m46.1,1.1c.1,0,.3,0,.4.1.6.2,1.1.5,1.5,1"/><path class="e" d="m45,1c.3,0,.6,0,.9.1"/><path class="e" d="m30,15.1c1.3,0,9.4-.3,11.1-2.8,1.1-1.7,1.9-4.6,1.7-6.5,0-.7-.4-1.2-.8-1.7"/><path class="e" d="m45,1c-1.7-.2-4.8-.7-5.8-.6-2.1.4-2.2,3.7-2.7,5.4-.5,1.4-1.2,2.8-2.1,4-.3.4-.7,1-1.1,1.3-.5.4-1.6,1.8-1.6,1.8,2.3.2,4.7-2.9,6-4.4,1.4-1.7,2.8-3.3,4.4-4.5,1.1-.8,2.3-1.5,3.6-1.9,1.9-.6,2.6.6,2.6.4"/><path class="e" d="m45.9,1.1c-.2,0-.5,0-.9-.1"/><path class="e" d="m48,2.2c-.4-.3-1.4-.9-1.9-1.1"/><polygon class="e" points="30 15.3 29.6 15.8 22.3 15.5 22.4 15.4 23.1 14.2 25 11.2 32.2 11.5 31.4 12.9 30 15.1 30 15.3"/><path class="e" d="m13.8,7.3c-.3.5-.5,1-.5,1.4,0,.7,2.1,1.6,2.7,1.9,1.1.5,2.1.8,3.1,1.2,1.5.6,2.5,1.5,3.8,2.4l1.2-2.8c.1-2.2-1.3-4.8-2.7-6.5-.5-.6-1.2-1.6-1.9-2-.5-.3-1-.2-1.5,0-.4.2-.7.5-1.1.8-.8.6-1.5,1.3-2.1,2.2-.2.3-.7.9-1,1.5"/><path class="e" d="m18,2.8c.2-.2.3-.4.5-.6-1.5-1.5-8.2-1.2-10.1-.3-3,1.5-4.8,4.9-4.5,8.1.3,4.1,1.4,4.8,5,4.8,3.2,0,6.3.5,9.6.5s2.4-.1,3.7-.2c0-.1,0-.2,0-.4-1.1-.6-2.2-.6-3.4-.8-1.4-.2-2.8-.6-4.2-.7-4.4-.4-3.3-3.3-1.4-5.3.3-.3.5-.5.7-.7h0c1.7-1.8,1.7-1.8,4.2-4.5Z"/><polygon class="e" points="14.5 21.7 13.8 23.1 17.8 22.3 19.3 26.2 21.7 21.7 22.6 20 23.5 18.3 24.8 16 24.8 15.9 22.6 15.9 17.5 15.9 17.5 16 16.3 18.3 14.5 21.7"/></svg>