<?xml version="1.0" encoding="UTF-8"?><svg id="a" xmlns="http://www.w3.org/2000/svg" width="50.1" height="70.7" viewBox="0 0 50.1 70.7"><defs><style>.b{fill:none;stroke:#000;stroke-width:.8px;}.c{fill:#f6e115;}.c,.d,.e,.f,.g{stroke-width:0px;}.d{fill:#c9da2a;}.e{fill:#bbbdbf;}.f{fill:#fff;}.g{fill:#fae762;}</style></defs><path class="e" d="m34,2.7c2.3,2.4,2.3,2.5,3.9,4.1t0,0c.3.5.5.9.4,1.3,0,.6-1.9,1.5-2.5,1.7-1,.5-1.9.7-2.9,1.1-1.4.6-2.3,1.4-3.5,2.2l-1.2-2.6c-.1-2.1,1.3-4.4,2.5-6,.5-.6,1.1-1.5,1.8-1.9.5-.3,1-.2,1.4,0Z"/><path class="e" d="m22.7,14.1v.2c0,.1-.3.2-.6.3v-.5c.3,0,.5,0,.6,0Z"/><path class="d" d="m48.9,14.7h-19.9v.6h15.4c.1,1.6.3,5,.1,7-.3-.3-.6-.1-.8.2,0,0-.1.2-.2.3-.2.6-.2,1.3-.2,2,0,4.3,0,8.5,0,12.8h5.4v-15h.2c.4,0,.8-.4.8-.8v-6.2c0-.4-.4-.8-.8-.8Z"/><path class="d" d="m42.7,43.8c.4,9.8.5,17.5.3,26.3v.3h4.7c.6,0,1-.4,1-1v-25.6h-5.6c-.2,0-.3,0-.5,0Z"/><path class="d" d="m10.8,14.7h-2.8c0,.2,0,.4,0,.6h14.2v-.6h-.4c-2.3.5-7.8.6-10.9,0Z"/><path class="e" d="m21.7,14.7c-2.3.5-7.8.6-10.9,0h10.9Z"/><path class="e" d="m12.4,11.5c1.3,2.1,7.5,2.5,9.7,2.6v.5c-.1,0-.2,0-.4,0h-10.9c-.9-.2-1.6-.4-2-.6-2.4-1.5-4.2-5-4.3-7.2,0-1.5.3-3.4,1.3-4.6,0,.2.7-.9,2.5-.3,1.3.4,2.4,1,3.4,1.8-.4.4-.7.9-.7,1.6-.3,1.8.6,4.5,1.5,6.1Z"/><path class="c" d="m44.4,15.3h-15.4v22.2h14.3c0-4.3,0-8.5,0-12.8,0-.7,0-1.4.2-2,0-.1,0-.2.2-.3.2-.4.6-.5.8-.2.2-2,0-5.3-.1-7Z"/><path class="c" d="m29.1,43.8v26.5h-7v-26.5h-12.1c.3,0,.5,0,.8,0-.7,9.8-.9,17.5-.5,26.3v.3h32.7v-.3c.2-8.8,0-16.6-.3-26.3.2,0,.3,0,.5,0h-14.1Z"/><path class="c" d="m22.1,37.6V15.3H7.9c-.2,1.6-.5,5-.2,7,.4-.3,1-.1,1.4.2.1,0,.2.2.3.3.3.6.4,1.3.3,2,0,4.3,0,8.5,0,12.8h12.4Z"/><path class="e" d="m8,1c.3,0,.6,0,.8-.1-.4,0-.7,0-.8.1Z"/><path class="e" d="m7.4,1.2c.1,0,.2,0,.4-.1-.4.2-1.3.6-1.7.9.4-.4.8-.7,1.3-.8Z"/><path class="f" d="m48.8,37.6h-19.7V14.5h.9s0-.2,0-.2l-.7-1.1-1.8-2.8-6.7.3.8,1.3,1.1,1.9h-.5c.3.2.5.2.6.2v.2c0,.1-.3.2-.6.3h0v22.9H1.2v6.2h20.9v26.5h7v-26.5h20.4v-6.2h-.7Z"/><path class="f" d="m42.5,13.9c3.4,0,4.3-.7,4.6-4.5.2-3-1.4-6.1-4.2-7.5-1.8-.9-8-1.1-9.4.2.2.2.4.4.5.6,2.3,2.4,2.3,2.5,3.9,4.1t0,0c.2.2.4.4.7.7,1.8,1.9,2.8,4.6-1.3,4.9-1.3.1-2.6.5-3.9.7-1.1.2-2.2.2-3.2.7,0,.1,0,.2,0,.3,1.2,0,2.3.2,3.4.2,3,0,5.9-.4,8.9-.4Z"/><path class="f" d="m8.2,2c1.3.4,2.4,1,3.4,1.8,1.5,1.1,2.8,2.6,4.1,4.2,1.2,1.4,3.4,4.3,5.6,4.1,0,0-1.1-1.3-1.5-1.7-.4-.3-.8-.8-1.1-1.2-.8-1.1-1.5-2.4-1.9-3.7-.5-1.6-.6-4.7-2.5-5.1-.9-.2-3.9.3-5.4.5-.4,0-.7,0-.8.1h0c0,0-.1,0-.2,0-.4.2-1.3.6-1.7.9,0,0,0,0,0,0-.2.1-.3.2-.3.3h0c0,.2.7-.9,2.5-.3Z"/><path class="g" d="m10.8,43.8c-.3,0-.5,0-.8,0H1.8v25.6c0,.6.5,1,1,1h7.5v-.3c-.4-8.8-.2-16.6.5-26.3Z"/><path class="g" d="m1.8,37.6h7.9c0-4.3,0-8.5,0-12.8,0-.7,0-1.4-.3-2,0-.1-.2-.2-.3-.3-.4-.4-1-.5-1.4-.2-.3-2,0-5.3.2-7,0-.3,0-.5,0-.6H1.2c-.5,0-.8.4-.8.8v6.2c0,.4.4.8.8.8h.6v15Z"/><line class="b" x1="48.8" y1="22.5" x2="48.8" y2="37.6"/><line class="b" x1="1.8" y1="37.6" x2="1.8" y2="22.5"/><path class="b" d="m48.8,43.8v25.6c0,.6-.4,1-1,1H2.8c-.6,0-1-.4-1-1v-25.6"/><path class="b" d="m29.1,14.7h19.9c.4,0,.8.4.8.8v6.2c0,.4-.4.8-.8.8h-19.9"/><line class="b" x1="21.7" y1="14.7" x2="22.1" y2="14.7"/><path class="b" d="m22.1,22.5H1.2c-.5,0-.8-.4-.8-.8v-6.2c0-.4.4-.8.8-.8h9.6"/><polyline class="b" points="29.1 14.5 29.1 14.7 29.1 15.3 29.1 22.5 29.1 37.6"/><polyline class="b" points="22.1 14.1 22.1 13.9 22.6 13.9"/><polyline class="b" points="22.1 37.6 22.1 22.5 22.1 15.3 22.1 14.7 22.1 14.6"/><polyline class="b" points="29.1 43.8 29.1 70.2 22.1 70.2 22.1 43.8"/><polygon class="b" points="48.8 37.6 49.5 37.6 49.5 43.8 48.8 43.8 43.2 43.8 29.1 43.8 22.1 43.8 10 43.8 1.8 43.8 1.2 43.8 1.2 37.6 1.8 37.6 9.7 37.6 22.1 37.6 29.1 37.6 43.4 37.6 48.8 37.6"/><path class="b" d="m22.7,14.1c-.1,0-.3,0-.6,0-2.2,0-8.3-.5-9.7-2.6-1-1.6-1.8-4.2-1.5-6.1,0-.6.4-1.1.7-1.6"/><path class="b" d="m5.8,2.3c-1,1.2-1.3,3-1.3,4.6,0,2.1,1.8,5.7,4.3,7.2.4.3,1.1.5,2,.6,3.2.6,8.6.5,10.9,0,.1,0,.3,0,.4,0,.3,0,.6-.2.7-.3"/><path class="b" d="m7.8,1.1c-.1,0-.2,0-.4.1-.5.2-1,.5-1.3.8"/><path class="b" d="m8.8.9c-.3,0-.6,0-.8.1"/><path class="b" d="m8,1c.2,0,.5,0,.8-.1,1.6-.2,4.5-.7,5.4-.5,2,.4,2,3.5,2.5,5.1.4,1.3,1.1,2.6,1.9,3.7.3.4.7.9,1.1,1.2.4.4,1.5,1.7,1.5,1.7-2.1.2-4.4-2.7-5.6-4.1-1.3-1.6-2.6-3.1-4.1-4.2-1-.8-2.1-1.4-3.4-1.8-1.8-.6-2.4.5-2.5.3"/><path class="b" d="m6.1,2c.4-.3,1.3-.8,1.7-.9"/><path class="b" d="m5.8,2.3c0,0,0-.1.3-.3"/><polygon class="b" points="23.1 14.7 23.1 14.7 24.1 14.7 29.1 14.5 30 14.5 29.9 14.3 29.2 13.3 27.4 10.4 20.7 10.8 21.5 12 22.6 13.9 22.7 14.1 22.8 14.3 23.1 14.7"/><path class="b" d="m37.9,6.8c.3.5.5.9.4,1.3,0,.6-1.9,1.5-2.5,1.7-1,.5-1.9.7-2.9,1.1-1.4.6-2.3,1.4-3.5,2.2l-1.2-2.6c-.1-2.1,1.3-4.4,2.5-6,.5-.6,1.1-1.5,1.8-1.9.5-.3,1-.2,1.4,0"/><path class="b" d="m34,2.7c-.2-.2-.3-.4-.5-.6,1.4-1.4,7.6-1.1,9.4-.2,2.8,1.4,4.4,4.6,4.2,7.5-.3,3.8-1.3,4.5-4.6,4.5-3,0-5.9.4-8.9.4s-2.3,0-3.4-.2c0-.1,0-.2,0-.3,1-.6,2.1-.6,3.2-.7,1.3-.2,2.6-.5,3.9-.7,4.1-.4,3.1-3,1.3-4.9-.3-.3-.5-.5-.7-.7t0,0c-1.6-1.7-1.6-1.7-3.9-4.1Z"/></svg>