<?xml version="1.0" encoding="UTF-8"?><svg id="a" xmlns="http://www.w3.org/2000/svg" width="52.06" height="60.75" viewBox="0 0 52.06 60.75"><defs><style>.b{fill:none;stroke:#000;stroke-width:.75px;}.c{fill:#f3b51a;}.c,.d,.e,.f,.g{stroke-width:0px;}.d{fill:#f7bc34;}.e{fill:#e2a025;}.f{fill:#0054a5;}.g{fill:#008ed3;}</style></defs><path class="c" d="m6.4,41.42c.14.03.07.02,0,0h0Z"/><path class="f" d="m40.78,15.88h-8.34c-1.38-.15-2.39-.39-2.66-.71l.1-.14c1.23-.06,9.36-.28,10.98-2.83,1.06-1.69,1.94-4.54,1.65-6.49-.09-.66-.39-1.2-.79-1.67,1.07-.82,2.24-1.48,3.61-1.94,1.9-.63,2.56.57,2.63.37,1.07,1.29,1.43,3.24,1.36,4.87-.1,2.27-1.94,6.08-4.54,7.64-.21.13-.49.24-.83.35-.8.25-1.92.43-3.17.56Z"/><path class="c" d="m29.91,59.53v-18.11h15.35c-.22,5.6-.86,11.63-1.55,17.01v1.1h-13.8Z"/><path class="e" d="m45.26,41.42h5.65v15.83c0,1.26-1.02,2.28-2.29,2.28h-4.91v-1.1c.69-5.38,1.33-11.41,1.55-17.01Z"/><path class="e" d="m50.91,34.79h-5.84c-.13-1.14-.25-2.28-.24-3.62.04-3.92.08-7.85.13-11.77,0-1.04,0-2.1-.37-3.06-.06-.16-.13-.32-.23-.46h4.26c1.27,0,2.29,1.02,2.29,2.28v16.63Z"/><path class="d" d="m6.26,34.79H.84v-16.63c0-1.26,1.02-2.28,2.29-2.28h7.39c-2.58,1.7-3.75,5.12-3.96,8.28-.22,3.46.38,6.95-.17,10.36-.05.09-.09.17-.13.27Z"/><path class="f" d="m6.34,41.42H.84v-6.62h5.42c-.88,2.01-.35,4.47.14,6.62-.11-.02-.1-.02-.06,0Z"/><path class="c" d="m29.91,15.88h2.53c.65.08,1.4.13,2.18.16h-4.71s0-.16,0-.16Z"/><path class="c" d="m33.44,26.28l1.46-3.86,3.98.76-3.69-7.12c1.83.05,3.84,0,5.58-.18h3.58c.1.14.17.3.23.46.38.96.38,2.02.37,3.06-.05,3.92-.09,7.85-.13,11.77,0,1.34.12,2.48.24,3.62h-15.17v-15.07l3.53,6.56Z"/><path class="f" d="m45.07,34.79h5.84v6.62h-5.65c.04-.94.07-1.87.08-2.78.02-1.43-.13-2.63-.26-3.84Z"/><rect class="f" x="50.91" y="34.79" width=".78" height="6.62"/><path class="f" d="m32.44,15.88h8.34c-1.74.17-3.76.23-5.58.18v-.02h-.58c-.78-.03-1.52-.09-2.18-.16Z"/><path class="c" d="m22.48,34.79H6.26c.04-.1.08-.18.13-.27.55-3.41-.05-6.9.17-10.36.21-3.16,1.38-6.58,3.96-8.28h6.88l-3.66,7.06,3.98-.76,1.46,3.86,3.31-6.15v14.91Z"/><path class="c" d="m.84,41.42h5.51s.03,0,.06,0c-.1,6.05.2,12.09.89,18.1H3.13c-1.27,0-2.29-1.02-2.29-2.28v-15.83Z"/><path class="c" d="m22.48,59.53H7.29c-.68-6.01-.98-12.06-.89-18.1.07,0,.14.02,0,0h16.08v18.11Z"/><path class="f" d="m45.54,1.06c-.19,0-.49-.06-.86-.11.28,0,.57.04.86.11Z"/><path class="f" d="m19.37,2.76c.71.41,1.4,1.37,1.91,1.99,1.37,1.69,2.83,4.19,2.72,6.42l-1.25,2.81c-1.26-.84-2.23-1.75-3.75-2.34-1.06-.41-2.06-.68-3.1-1.19-.63-.31-2.58-1.2-2.68-1.86-.06-.38.35-1.06.81-1.7l.02-.02c1.37-1.43,1.53-1.64,3.78-4.03.48-.27.99-.39,1.54-.08Z"/><path class="f" d="m47.71,2.21c-.44-.36-1.39-.9-1.88-1.08.13.03.26.07.39.12.6.2,1.09.54,1.48.96Z"/><path class="f" d="m35.18,16.04v.02c-.14,0-.3,0-.45-.02h.45Z"/><path class="g" d="m29.91,34.79v-15.07l3.53,6.56,1.46-3.86,3.98.76-3.69-7.12c-.15,0-.31,0-.46-.02h-4.82s0-.16,0-.16v-.16h-7.42v.1h-5.06s-.04.07-.04.07l-3.66,7.06,3.98-.76,1.46,3.86,3.31-6.15v14.91H6.26c-.88,2.01-.35,4.47.14,6.62h16.08v18.96h7.42v-18.96h15.35c.04-.94.07-1.87.08-2.78.02-1.43-.13-2.63-.26-3.84h-15.17Z"/><path class="g" d="m18.32,15.26c1.23,0,2.42-.11,3.66-.17.02-.12.02-.25,0-.37-1.06-.63-2.21-.61-3.42-.79-1.42-.21-2.77-.57-4.2-.7-4.33-.4-3.32-3.24-1.38-5.26.41-.43.75-.78,1.04-1.08t.02-.02c1.37-1.43,1.53-1.64,3.78-4.03.18-.18.37-.38.57-.59-1.49-1.47-8.13-1.21-10.04-.26-2.97,1.47-4.74,4.86-4.48,8.01.34,4.05,1.37,4.8,4.94,4.79,3.18,0,6.3.46,9.5.47Z"/><rect class="g" x=".38" y="34.79" width=".46" height="6.62"/><path class="g" d="m6.34,41.42h.06c-.11-.02-.1-.02-.06,0Z"/><path class="g" d="m47.71,2.21c-.44-.36-1.39-.9-1.88-1.08-.02,0-.05-.02-.07-.02-.07-.02-.12-.04-.15-.04h-.02s-.03,0-.05,0c-.19,0-.49-.06-.86-.11-1.68-.23-4.8-.72-5.78-.54-2.08.39-2.17,3.73-2.7,5.41-.45,1.43-1.17,2.81-2.05,3.98-.33.43-.73.97-1.15,1.32-.47.4-1.59,1.82-1.59,1.82,2.29.21,4.67-2.87,5.92-4.42,1.38-1.69,2.74-3.26,4.36-4.49,1.07-.82,2.24-1.48,3.61-1.94,1.9-.63,2.56.57,2.63.37h0c0-.06-.1-.15-.24-.26Z"/><polygon class="g" points="29.78 15.17 29.88 15.02 31.2 12.81 32.01 11.45 24.91 11.1 22.96 14.14 22.24 15.26 22.15 15.42 29.48 15.68 29.78 15.17"/><path class="b" d="m40.78,15.88h7.84c1.27,0,2.29,1.02,2.29,2.28v16.63"/><line class="b" x1="29.91" y1="15.88" x2="32.44" y2="15.88"/><path class="b" d="m.84,34.79v-16.63c0-1.26,1.02-2.28,2.29-2.28h14.26"/><path class="b" d="m22.48,59.53H3.13c-1.27,0-2.29-1.02-2.29-2.28v-15.83"/><path class="b" d="m50.91,41.42v15.83c0,1.26-1.02,2.28-2.29,2.28h-18.71"/><polyline class="b" points="29.91 41.42 29.91 59.53 29.91 60.37 22.48 60.37 22.48 59.53 22.48 41.42"/><line class="b" x1="29.91" y1="19.72" x2="29.91" y2="34.79"/><polyline class="b" points="22.48 15.81 22.48 15.72 29.91 15.72 29.91 15.88 29.91 16.05"/><line class="b" x1="22.48" y1="34.79" x2="22.48" y2="19.88"/><polygon class="b" points="50.91 34.79 51.69 34.79 51.69 41.42 50.91 41.42 45.26 41.42 29.91 41.42 22.48 41.42 6.4 41.42 6.34 41.42 .84 41.42 .38 41.42 .38 34.79 .84 34.79 6.26 34.79 22.48 34.79 29.91 34.79 45.07 34.79 50.91 34.79"/><polyline class="b" points="35.19 16.06 38.88 23.18 34.9 22.42 33.44 26.28 29.91 19.72 27.93 16.05 29.91 16.05 34.62 16.04"/><path class="b" d="m47.95,2.47c1.07,1.29,1.43,3.24,1.36,4.87-.1,2.27-1.94,6.08-4.54,7.64-.21.13-.49.24-.83.35-.8.25-1.92.43-3.17.56-1.74.17-3.76.23-5.58.18-.15,0-.31,0-.46-.02h-.12c-.78-.03-1.52-.09-2.18-.16-1.38-.15-2.39-.39-2.66-.71"/><path class="b" d="m45.83,1.13c.13.03.26.07.39.12.6.2,1.09.54,1.48.96"/><path class="b" d="m44.69.95c.28,0,.57.04.86.11"/><path class="b" d="m29.88,15.02c1.23-.06,9.36-.28,10.98-2.83,1.06-1.69,1.94-4.54,1.65-6.49-.09-.66-.39-1.2-.79-1.67"/><path class="b" d="m45.54,1.06c-.19,0-.49-.06-.86-.11-1.68-.23-4.8-.72-5.78-.54-2.08.39-2.17,3.73-2.7,5.41-.45,1.43-1.17,2.81-2.05,3.98-.33.43-.73.97-1.15,1.32-.47.4-1.59,1.82-1.59,1.82,2.29.21,4.67-2.87,5.92-4.42,1.38-1.69,2.74-3.26,4.36-4.49,1.07-.82,2.24-1.48,3.61-1.94,1.9-.63,2.56.57,2.63.37"/><path class="b" d="m47.95,2.46s-.1-.14-.24-.25c-.44-.36-1.39-.9-1.88-1.08"/><polygon class="b" points="29.78 15.17 29.48 15.68 22.15 15.42 22.24 15.26 22.96 14.14 24.91 11.1 32.01 11.45 31.2 12.81 29.88 15.02 29.78 15.17"/><path class="b" d="m14.03,6.9c-.46.65-.87,1.33-.81,1.7.1.65,2.05,1.55,2.68,1.86,1.04.51,2.04.78,3.1,1.19,1.51.59,2.48,1.5,3.75,2.34l1.25-2.81c.12-2.23-1.35-4.74-2.72-6.42-.51-.63-1.19-1.58-1.91-1.99-.55-.31-1.06-.19-1.54.08-.37.2-.71.49-1.04.75-.79.62-1.01.95-1.63,1.82-.21.29-.69.86-1.12,1.46"/><path class="b" d="m17.83,2.84c.18-.18.37-.38.57-.59-1.49-1.47-8.13-1.21-10.04-.26-2.97,1.47-4.74,4.86-4.48,8.01.34,4.05,1.37,4.8,4.94,4.79,3.18,0,6.3.46,9.5.47,1.23,0,2.42-.11,3.66-.17.02-.12.02-.25,0-.37-1.06-.63-2.21-.61-3.42-.79-1.42-.21-2.77-.57-4.2-.7-4.33-.4-3.32-3.24-1.38-5.26.41-.43.75-.78,1.04-1.08l.02-.02c1.37-1.43,1.53-1.64,3.78-4.03Z"/><polygon class="b" points="17.39 15.88 13.73 22.94 17.71 22.18 19.17 26.04 22.48 19.88 24.64 15.88 24.68 15.81 22.48 15.81 17.43 15.8 17.39 15.88"/></svg>