<?xml version="1.0" encoding="UTF-8"?><svg id="a" xmlns="http://www.w3.org/2000/svg" width="50.1" height="70.8" xmlns:xlink="http://www.w3.org/1999/xlink" viewBox="0 0 50.1 70.8"><defs><style>.c,.d{fill:none;}.c,.e,.f,.g,.h{stroke-width:0px;}.i{fill:#fff;}.i,.j,.k,.d{stroke:#000;stroke-width:.8px;}.j{fill:#bbbdbf;}.k,.f{fill:#3d3991;}.l{clip-path:url(#b);}.e{fill:#2f336f;}.g{fill:#f1e397;}.h{fill:#f5f4db;}</style><clipPath id="b"><rect class="c" x="1.9" y="15.3" width="46.9" height="54.9" rx="1.6" ry="1.6"/></clipPath></defs><g class="l"><rect class="f" x="-9.6" y="15.7" width="64.9" height="57.7"/><polygon class="e" points="35.7 69.8 28.2 63.5 22.6 71.6 21.8 61.8 12.1 63.6 18.5 56.1 10.4 50.5 20.2 49.7 18.4 40 25.9 46.4 31.4 38.3 32.2 48.1 41.9 46.3 35.5 53.8 43.7 59.3 33.9 60.1 35.7 69.8"/><polygon class="e" points="3.2 56.2 -.3 53.4 -2.7 57.1 -3.2 52.7 -7.5 53.7 -4.8 50.2 -8.5 47.8 -4.1 47.3 -5 42.9 -1.6 45.7 .8 41.9 1.4 46.3 5.7 45.4 2.9 48.9 6.7 51.3 2.3 51.8 3.2 56.2"/><polygon class="h" points="48.9 69.2 47.7 69.1 48 70.4 47.1 69.5 46.6 70.7 46.3 69.5 45.3 70.2 45.8 69 44.5 69 45.6 68.3 44.6 67.5 45.8 67.7 45.5 66.4 46.5 67.3 46.9 66.1 47.2 67.3 48.2 66.6 47.7 67.8 49 67.8 47.9 68.5 48.9 69.2"/><polygon class="g" points="16.5 24.2 15.2 24.1 15.6 25.3 14.6 24.5 14.2 25.7 13.9 24.4 12.8 25.2 13.3 24 12.1 23.9 13.1 23.3 12.1 22.5 13.4 22.6 13.1 21.4 14 22.2 14.4 21 14.7 22.3 15.8 21.5 15.3 22.7 16.6 22.7 15.5 23.4 16.5 24.2"/><polygon class="h" points="17.4 46.7 16.1 46.6 16.5 47.8 15.5 47 15.1 48.2 14.8 47 13.7 47.7 14.2 46.5 13 46.5 14.1 45.8 13 45 14.3 45.1 14 43.9 14.9 44.7 15.4 43.5 15.6 44.8 16.7 44.1 16.2 45.2 17.5 45.3 16.4 45.9 17.4 46.7"/><polygon class="h" points="46.5 60.4 43.9 58 40.4 58.8 41.8 55.5 40 52.5 43.5 52.8 45.8 50.1 46.6 53.6 49.9 55 46.8 56.8 46.5 60.4"/><polygon class="g" points="48.4 59 44.9 58.1 42.3 60.5 42 56.9 38.9 55.1 42.3 53.7 43.1 50.3 45.3 53 48.9 52.7 47 55.7 48.4 59"/><circle class="h" cx="45.4" cy="27.4" r=".9"/><circle class="h" cx="16.6" cy="29.2" r=".9"/><circle class="h" cx="10.3" cy="57.1" r=".9"/><circle class="h" cx="5.8" cy="24.7" r=".9"/><polygon class="g" points="16.9 76.5 12.8 75.2 9.4 77.9 9.3 73.6 5.7 71.1 9.8 69.8 11 65.6 13.6 69.1 17.9 68.9 15.4 72.4 16.9 76.5"/></g><rect class="d" x="1.9" y="15.3" width="46.9" height="54.9" rx="1.6" ry="1.6"/><rect class="k" x=".4" y="14.7" width="49.3" height="7.8" rx="1.2" ry="1.2"/><rect class="i" x="22.1" y="13.9" width="6.9" height="56.5"/><rect class="i" x="1.3" y="37.5" width="48.2" height="6.2"/><path class="j" d="m12.4,11.4c-1-1.6-1.8-4.2-1.5-6.1.1-.9.6-1.5,1.2-2.1.8-.6,1.5-.4,2.3-.7-1.1-.2-2.1-1-3.2-1.3-1.4-.4-2.6-.6-3.9-.1-2.3.8-3,3.5-2.9,5.7,0,2.1,1.8,5.7,4.2,7.2,2.4,1.4,13.9,1.3,14.1,0,0,0-8.8,0-10.4-2.7Z"/><path class="i" d="m21.3,12.1c-2.1.2-4.4-2.7-5.5-4.1-2.1-2.6-4.2-4.9-7.5-6-1.8-.6-2.4.5-2.5.3,0-.2,1.8-1.3,2.2-1.3.9,0,5.1-.8,6.3-.6,2,.4,2,3.5,2.5,5.1.4,1.3,1.1,2.6,1.9,3.7.3.4.7.9,1.1,1.2.4.4,1.5,1.7,1.5,1.7Z"/><polygon class="i" points="23.1 14.7 30 14.5 27.4 10.4 20.7 10.7 23.1 14.7"/><path class="j" d="m28.2,10.5c-.1-2.1,1.3-4.4,2.5-6,.5-.6,1.1-1.5,1.8-1.9.9-.5,1.7.2,2.4.8.7.6,1.4,1.2,1.9,2,.4.6,1.5,2,1.4,2.7,0,.6-1.9,1.5-2.5,1.7-1,.5-1.9.7-2.9,1.1-1.4.6-2.3,1.4-3.5,2.2l-1.2-2.6Z"/><path class="i" d="m33.5,2.1c1.4-1.4,7.6-1.1,9.4-.2,2.8,1.4,4.4,4.5,4.2,7.5-.3,3.8-1.3,4.5-4.6,4.5-3,0-5.9.4-8.9.4-1.2,0-2.3,0-3.4-.2,0-.1,0-.2,0-.3,1-.6,2.1-.6,3.2-.7,1.3-.2,2.6-.5,3.9-.7,4.1-.4,3.1-3,1.3-4.9-2.4-2.5-1.9-2-5.1-5.4Z"/></svg>