<?xml version="1.0" encoding="UTF-8"?><svg id="a" xmlns="http://www.w3.org/2000/svg" width="72.3" height="130.1" viewBox="0 0 72.3 130.1"><defs><style>.b{fill:#231f20;stroke-linecap:round;}.b,.c{stroke:#231f20;}.b,.c,.d{stroke-width:.8px;}.c,.d{fill:none;}.d{stroke:#000;}.e{fill:#589843;}.e,.f,.g,.h,.i{stroke-width:0px;}.f{fill:#dc874e;}.g{fill:#da7934;}.h{fill:#b76328;}.i{fill:#91c852;}</style></defs><ellipse class="b" cx="36.5" cy="87.2" rx="35.1" ry="1.2"/><path class="e" d="m43.5,86.5l-6.4,5.5-.3.2-.6.5-.2.2-.4.3-.4.3c0-.1,0-.3,0-.4,0-.3,0-.6,0-.9l-6.2-5.3L.9,62.9c1.1,1.6,30.7,38.2,35.6,33.1,6.4,2.2,34.2-32.3,35-33.5l-28.1,24Z"/><path class="e" d="m52.1,73.4c8-13.2,16-28.5,16.4-29.4l-25.6,36.4c2.7-2.5,5.9-4.9,9.2-7.1Z"/><path class="e" d="m46,54.8c3.1-22.4,5.6-47.1,5.7-48.4h0c0,0-9.7,57.9-9.7,57.9,1.3-3.1,2.6-6.3,4-9.5Z"/><path class="e" d="m41,76c.7-1.1,1.5-2.2,2.3-3.4,1.4-2,3-4,4.5-6,6.6-19,13.4-42.5,13.7-43.8l-17.6,45.4-3,7.8Z"/><path class="e" d="m36.2,54.7c.4-4.9,1-10,1.5-15.1-.9-19.2-2.2-36.5-2.3-37.5,0,0,0,0,0,0l.5,50.1c0,.8.2,1.7.2,2.5Z"/><path class="e" d="m37.2,77.4c0-.9.2-1.9.3-2.9.3-2.4.7-5,1.1-7.7.8-4.6,1.7-9.7,2.7-14.7C42.5,28.2,42.8,1.3,42.7,0h0s-4.2,59.2-4.2,59.2l-1,14-.3,4.2Z"/><path class="e" d="m33.4,65.2c.6,3.4,1.1,6.6,1.4,9.5,0-.4,0-.9,0-1.3l-1.4-19.8L29.7.4c0,1.3.3,28.2,1.4,52.1.9,4.4,1.7,8.7,2.4,12.8Z"/><path class="e" d="m30.5,64.7L20.8,6.9h0c0,1.2,2.6,25.9,5.7,48.3,1.4,3.2,2.8,6.4,4,9.5Z"/><path class="e" d="m29.6,80.9L4,44.4h0c.4.9,8.4,16.2,16.4,29.4,3.3,2.2,6.5,4.6,9.2,7.1Z"/><path class="e" d="m29.1,73c.8,1.1,1.6,2.3,2.3,3.4l-3-7.8L10.9,23.2h0c.3,1.1,7.1,24.7,13.8,43.7,1.6,2,3.1,4,4.5,6Z"/><path class="i" d="m52.1,73.4c-3.3,2.2-6.5,4.6-9.2,7.1l25.6-36.4s-11.2,10.8-20.6,22.5c-1.6,2-3.1,4-4.5,6-.8,1.1-1.6,2.3-2.3,3.4l3-7.8,17.6-45.4c-.2.4-8.4,15.9-15.6,32.1-1.4,3.2-2.8,6.4-4,9.5L51.7,6.5c-.4,1.4-6.1,24.1-10.3,45.6-1,5.1-1.9,10.1-2.7,14.7-.4,2.7-.8,5.3-1.1,7.7-.1,1-.2,1.9-.3,2.9l.3-4.2,1-14L42.7,0c-.2,1-2.8,19.7-5,39.6-.6,5-1.1,10.1-1.5,15.1,0-.8-.2-1.7-.2-2.5l-.5-50.1c0,.9-.9,14.9-1.4,31.7C31.9,15.8,29.7.4,29.7.4l3.8,53.2,1.4,19.8c0,.4,0,.9,0,1.3-.4-2.9-.9-6.1-1.4-9.5-.7-4.1-1.5-8.4-2.4-12.8C26.8,30.8,21,7.9,20.8,6.9l9.7,57.8c-1.3-3.1-2.6-6.3-4-9.5-7-15.9-15.1-31-15.6-32l17.6,45.4,3,7.8c-.7-1.1-1.5-2.2-2.3-3.4-1.4-2-3-4-4.5-6-9.1-11.5-20-22-20.6-22.5l25.6,36.5c-2.7-2.5-5.9-4.9-9.2-7.1C11,67.6,1.2,63.1.9,62.9l28.1,24.1,6.2,5.3c0,.3,0,.6,0,.9,0,.1,0,.3,0,.4l.4-.3.4-.3.2-.2.6-.5.3-.2,6.4-5.5,28.1-24s-10,4.6-19.5,10.9Z"/><path class="c" d="m34.2,96.6c-3.3-1-6.2-3.9-9-6.8-5.5-5.7-8.7-9.1-14.2-14.8-2.4-2.5-8.2-8.8-10.2-12.1,9.2,3.6,19.8,10.4,28.4,17.9"/><path class="c" d="m20.3,73.7c-5.7-9.6-11.4-18.5-16-28.8,9.3,8.9,19.2,18.9,27.1,31.6"/><path class="c" d="m24,65.7c-1.8-4.7-12-36.6-12.9-41.8,4.8,7.5,19.9,40.1,20.9,45"/><path class="c" d="m26.3,54.4c-2.3-15.3-4-31.9-5.5-47.4,0,0,0,0,0,0,2.6,8.5,13.1,54.8,14.2,67.2"/><path class="c" d="m35.7,56.2c-.3-13.2-4.6-44.1-6-55.8-.2,14.7.7,34.7,1.2,49.9"/><path class="c" d="m38.1,96.3c3.3-1,6.2-3.9,9-6.8,5.5-5.7,8.7-9.1,14.2-14.8,2.4-2.5,8.2-8.8,10.2-12.1-9.2,3.6-19.8,10.4-28.4,17.9"/><path class="c" d="m52,73.3c5.7-9.6,11.4-18.5,16-28.8-9.3,8.9-19.2,18.9-27.1,31.6"/><path class="c" d="m48.3,65.4c1.8-4.7,12-36.6,12.9-41.8-4.8,7.5-19.7,39.9-20.7,44.9"/><path class="c" d="m46.1,54c2.3-15.3,4-31.9,5.5-47.4,0,0,0,0,0,0-2.6,8.5-13,56.1-14.5,67"/><path class="c" d="m35.7,56.2c.8-13.2,5.5-44.4,6.9-56.1.2,14.7-.7,34.7-1.2,49.9"/><path class="c" d="m34,35.9c.2-10.9,1-22.8,1.4-33.8,1.2,11.6,1.6,23.1,2.3,35.8"/><path class="h" d="m71.4,87.3s-7.8,42.4-15.6,42.4h-9c7.5-3.3,14.1-25.7,14.9-41.7v-.4c5.6-.2,9.7-.4,9.7-.4Z"/><path class="g" d="m61.7,87.7v.4c-.7,16-7.4,38.3-14.9,41.7h-23.9c-7.3-13.2-10.7-27-11.3-42,8.5.3,20,.7,25.2.7,5.3,0,16.6-.4,24.8-.7Z"/><path class="f" d="m22.9,129.8h-6.1c-7.8,0-15.6-42.4-15.6-42.4,0,0,4.5.2,10.4.4.6,15,4,28.8,11.3,42Z"/><path class="d" d="m61.7,87.7c5.6-.2,9.7-.4,9.7-.4,0,0-7.8,42.4-15.6,42.4H16.8c-7.8,0-15.6-42.4-15.6-42.4,0,0,4.5.2,10.4.4,8.5.3,20,.7,25.2.7,5.3,0,16.6-.4,24.8-.7Z"/></svg>