<?xml version="1.0" encoding="UTF-8"?><svg id="a" xmlns="http://www.w3.org/2000/svg" width="72.32" height="130.13" viewBox="0 0 72.32 130.13"><defs><style>.b{fill:#231f20;stroke-linecap:round;}.b,.c{stroke:#231f20;}.b,.c,.d{stroke-width:.75px;}.c,.d{fill:none;}.d{stroke:#000;}.e{fill:#589843;}.e,.f,.g,.h,.i{stroke-width:0px;}.f{fill:#dc874e;}.g{fill:#da7934;}.h{fill:#b76328;}.i{fill:#91c852;}</style></defs><ellipse class="b" cx="36.51" cy="87.21" rx="35.1" ry="1.18"/><path class="e" d="m43.47,86.53l-6.37,5.46-.3.25-.59.51-.21.19-.38.32-.38.33c-.01-.13-.02-.26-.02-.4,0-.3,0-.6.04-.9l-6.22-5.33L.89,62.9c1.05,1.56,30.72,38.25,35.62,33.15,6.38,2.18,34.24-32.31,35.03-33.54l-28.08,24.02Z"/><path class="e" d="m52.07,73.41c8.02-13.23,15.99-28.5,16.37-29.38l-25.57,36.43c2.73-2.48,5.93-4.88,9.2-7.06Z"/><path class="e" d="m45.98,54.85c3.08-22.35,5.63-47.09,5.71-48.37v.06s-9.75,57.83-9.75,57.83c1.26-3.14,2.63-6.35,4.04-9.53Z"/><path class="e" d="m41,75.98c.72-1.11,1.48-2.24,2.28-3.37,1.42-2.01,2.96-4.03,4.55-6.03,6.61-18.99,13.43-42.47,13.75-43.78l-17.57,45.41-3.01,7.77Z"/><path class="e" d="m36.19,54.72c.44-4.93.96-10.04,1.51-15.07-.92-19.18-2.15-36.51-2.27-37.54,0,0,0,.01,0,.04l.52,50.08c.08.84.16,1.67.23,2.5Z"/><path class="e" d="m37.18,77.43c.1-.92.21-1.88.34-2.87.31-2.4.69-4.98,1.13-7.7.75-4.65,1.68-9.67,2.69-14.74C42.46,28.24,42.76,1.31,42.72,0v.05s-4.24,59.19-4.24,59.19l-1,14.04-.29,4.15Z"/><path class="e" d="m33.44,65.21c.57,3.37,1.06,6.57,1.44,9.51.02-.43.03-.85.04-1.3l-1.42-19.83L29.7.38c-.04,1.32.27,28.2,1.37,52.08.87,4.36,1.68,8.68,2.37,12.75Z"/><path class="e" d="m30.49,64.73L20.75,6.91v-.04c.07,1.27,2.61,25.99,5.7,48.34,1.41,3.19,2.78,6.41,4.04,9.53Z"/><path class="e" d="m29.58,80.87L4.01,44.41l-.02-.02c.42.96,8.38,16.21,16.38,29.41,3.26,2.18,6.48,4.57,9.2,7.07Z"/><path class="e" d="m29.15,72.99c.81,1.14,1.57,2.27,2.29,3.39l-3.02-7.79L10.87,23.22l-.02-.05c.28,1.19,7.12,24.74,13.75,43.79,1.59,1.99,3.13,4.02,4.55,6.03Z"/><path class="i" d="m52.07,73.41c-3.26,2.18-6.47,4.57-9.2,7.06l25.57-36.43s-11.23,10.77-20.61,22.55c-1.59,2-3.12,4.03-4.55,6.03-.8,1.13-1.57,2.26-2.28,3.37l3.01-7.77,17.57-45.41c-.23.43-8.43,15.89-15.6,32.05-1.41,3.18-2.78,6.39-4.04,9.53L51.67,6.55c-.35,1.38-6.06,24.07-10.32,45.58-1.01,5.08-1.94,10.09-2.69,14.74-.44,2.71-.83,5.3-1.13,7.7-.13.99-.24,1.95-.34,2.87l.29-4.15,1-14.04L42.72.05c-.15,1.05-2.81,19.67-5.01,39.6-.55,5.02-1.07,10.14-1.51,15.07-.07-.83-.15-1.66-.23-2.5l-.52-50.08c-.05.86-.85,14.94-1.43,31.71C31.93,15.83,29.7.38,29.7.38l3.81,53.21,1.42,19.83c-.01.45-.03.87-.04,1.3-.38-2.94-.87-6.14-1.44-9.51-.7-4.07-1.5-8.4-2.37-12.75C26.77,30.8,21.02,7.95,20.75,6.91l9.74,57.82c-1.26-3.12-2.63-6.33-4.04-9.53-7.04-15.86-15.07-31.04-15.58-31.98l17.55,45.36,3.02,7.79c-.71-1.12-1.48-2.24-2.29-3.39-1.42-2-2.96-4.03-4.55-6.03-9.13-11.48-20.03-22.01-20.59-22.55l25.57,36.46c-2.72-2.49-5.94-4.88-9.2-7.07C11.05,67.57,1.25,63.05.89,62.9l28.12,24.07,6.22,5.33c-.03.3-.04.6-.04.9,0,.14,0,.27.02.4l.38-.33.38-.32.21-.19.59-.51.3-.25,6.37-5.46,28.08-24.02s-9.97,4.56-19.47,10.9Z"/><path class="c" d="m34.21,96.61c-3.28-1-6.17-3.95-8.97-6.84-5.49-5.67-8.66-9.13-14.15-14.8-2.38-2.45-8.25-8.82-10.21-12.08,9.19,3.56,19.81,10.38,28.4,17.86"/><path class="c" d="m20.32,73.65c-5.67-9.64-11.36-18.49-15.98-28.84,9.27,8.9,19.21,18.87,27.1,31.58"/><path class="c" d="m24.02,65.74c-1.78-4.74-11.96-36.62-12.89-41.85,4.83,7.45,19.9,40.07,20.87,45.05"/><path class="c" d="m26.27,54.37c-2.32-15.27-4.02-31.95-5.52-47.4,0-.02.01-.03.02-.01,2.62,8.48,13.05,54.83,14.19,67.15"/><path class="c" d="m35.72,56.15c-.25-13.19-4.6-44.08-6.02-55.77-.22,14.73.73,34.72,1.17,49.93"/><path class="c" d="m38.11,96.29c3.28-1,6.17-3.95,8.97-6.84,5.49-5.67,8.66-9.13,14.15-14.8,2.38-2.45,8.25-8.82,10.21-12.08-9.19,3.56-19.81,10.38-28.4,17.86"/><path class="c" d="m52.01,73.33c5.67-9.64,11.36-18.49,15.98-28.84-9.27,8.9-19.21,18.87-27.1,31.58"/><path class="c" d="m48.3,65.42c1.78-4.74,11.96-36.62,12.89-41.85-4.83,7.45-19.74,39.93-20.71,44.91"/><path class="c" d="m46.05,54.05c2.32-15.27,4.02-31.95,5.52-47.4,0-.02-.01-.03-.02-.01-2.62,8.48-12.98,56.06-14.5,67.02"/><path class="c" d="m35.72,56.15c.76-13.24,5.48-44.4,6.9-56.09.22,14.73-.73,34.72-1.17,49.93"/><path class="c" d="m34.01,35.91c.2-10.91.95-22.83,1.43-33.8,1.19,11.65,1.55,23.06,2.28,35.77"/><path class="h" d="m71.4,87.35s-7.8,42.41-15.6,42.41h-9.01c7.46-3.33,14.13-25.66,14.87-41.67v-.38c5.55-.2,9.73-.36,9.73-.36Z"/><path class="g" d="m61.65,87.71v.38c-.73,16.01-7.39,38.34-14.86,41.67h-23.9c-7.27-13.16-10.69-26.96-11.31-41.98,8.51.32,19.98.71,25.24.66,5.31-.06,16.59-.43,24.83-.73Z"/><path class="f" d="m22.89,129.76h-6.09c-7.8,0-15.6-42.41-15.6-42.41,0,0,4.47.2,10.37.43.62,15.02,4.04,28.83,11.31,41.98Z"/><path class="d" d="m61.65,87.71c5.56-.2,9.75-.36,9.75-.36,0,0-7.8,42.41-15.6,42.41H16.81c-7.8,0-15.6-42.41-15.6-42.41,0,0,4.47.2,10.37.43,8.51.32,19.98.71,25.24.66,5.31-.06,16.59-.43,24.83-.73Z"/></svg>