<?xml version="1.0" encoding="UTF-8"?><svg id="a" xmlns="http://www.w3.org/2000/svg" width="62" height="120.8" viewBox="0 0 62 120.8"><defs><style>.b{fill:none;}.b,.c{stroke:#000;stroke-miterlimit:10;stroke-width:.8px;}.d{fill:#f4cb00;}.d,.e,.f,.g,.h,.i,.j,.k,.l,.m,.n,.o,.p,.q,.r,.s{stroke-width:0px;}.e{fill:#4c41df;}.f{fill:#4742a8;}.g{fill:#46382d;}.h{fill:#36322f;}.i{fill:#252626;}.j{fill:#c49b6c;}.k{fill:#c6916b;}.l{fill:#dab280;}.m{fill:#d9dddf;}.n{fill:#b48a60;}.o{fill:#c35862;}.p{fill:#998066;}.q{fill:#a04958;}.r{fill:#6a5c50;}.s{fill:#eee;}.c{fill:#d6ae81;}</style></defs><path class="l" d="m47.3,119.5c0,.1,0,.3,0,.5-2.3.3-5.3.4-7.4.2-1.3-.1-2.2-.3-2.3-.7-1-2,0-2.7,1.1-3.7.1,0,.2,0,.3,0,.2,0,.3-.3.3-.7.4-.6.8-1.4.6-2.5-.8-6.5-1.5-14.8-2-21.7-.2-2.7-.4-5.1-.6-7.2,0-.3,0-.5,0-.8-2-2.4-3.6-10.2-3.8-15.9-.2-4.2-3.8-7.6-5.1-9.3-.8-1.1-1.2-3.4-1.2-6,1.8-.4,3.5-.9,4.9-1.5,3.9-1.6,5.3-2.6,7.3-4.9.2.5.4.9.6,1.2,7.5,13,11.6,25.5,15.3,35.7,2.3,7.4,5,14.9,4.2,21.4-.2,1.6-1.5,3.5-.9,9.3.2,1.6-2,6.3-3.7,6.5-1.7.2-5.7.3-7.4,0Zm-1.6-26.9c-.3,7.6-.8,15.1-.8,19.9,0,2.1.7,2.6,1.4,3.2.4-3.7,4.6-2.3,2.8-12.1-.6-3-.6-6.5-.4-9.2-1-.6-2-1.3-3.1-1.9Z"/><path class="j" d="m45.7,92.5c1,.6,2,1.3,3.1,1.9-.2,2.7-.2,6.2.4,9.2,1.9,9.7-2.4,8.4-2.8,12.1-.7-.7-1.4-1.1-1.4-3.2,0-4.8.5-12.4.8-19.9Z"/><path class="k" d="m30.1.7c3.1,4.5,5.4,8.8,5.8,13.6-.3,1.8-.9,3.7-1.4,5.7,0,.4-.2.8-.5,1.1-.5.5-.2.4-.9.1-1.3-.4-2.8-1-3.7-2,.1-2-1.6-6.4-2.3-7.6-1.1-1.9-1.3-2.6-.9-4.8.3-2.1,1.3-3.3,3.1-5.3h0c.3-.3.6-.6.9-.8Z"/><path class="l" d="m18,12c2-.2,4.6-.3,4.7-.3h0c.9-3.9,3.2-7.1,6.4-10.1h0c-1.8,2-2.7,3.2-3.1,5.3-.3,2.1-.1,2.9.9,4.8.7,1.2,2.4,5.6,2.3,7.6.9,1,2.3,1.6,3.7,2,.7.2.4.3.9-.1.3-.3.4-.7.5-1.1.5-2,1.1-3.9,1.4-5.7.1,1.4,0,2.8-.2,4.3-.4,2.4-1.3,4.6-1.3,7,0,1.2.3,3.3.8,5.7h-.3c-.5-2.4-2.7-4.5-5.3-4.8-2.6-.3-4.7.6-6.5,2.4-2.5,2.6-6.5,5.1-9.7,7.7-.3-.3-.6-.6-1-.9-2.6-2.5-7.2-3.9-9.6-2.4,1.1-.7,2.2-1.3,2.6-2.4,0-.1.1-.3.2-.4.6-.5,1.1-1.1,1.8-1.6,1-.7,1,0,1.7-1,.8-1.2,2-7.2,1.7-7.8-.1-.2-2.4-.2-2.7-.2-.3,0-.8.1-1.3.2.2-.4.5-.8.7-1.2,1.5-2.2,3.7-3.9,6.4-4.8-.2-3.5-1-4.7-2.2-6.6C10.1,4.8,6.9,1.2,3.2.7c1.6-.8,2.9,0,3.8.4,2.2.8,8.8,6.5,11,10.9h0Zm5,15.1c.2-.6,2.6-2.8,2.4-3.5-.4-1.8-3.6-2-6.5-2.3-2.7-.3-3.2,2-3.9,3.8-.6,1.6-1.1,3.6,0,5,1,1.4,1.7,2,3.2,1.2s4.1-2.7,4.7-4.2Z"/><path class="e" d="m38,41.9c.4,1.3.8,2.5,1.2,3.4-2,2.3-3.4,3.4-7.3,4.9-1.4.6-3.1,1.1-4.9,1.5,0-1.4.1-2.9.3-4.3,4-1,8.3-1.9,10.6-5.6h0Z"/><path class="l" d="m38,41.9h0c-2.3,3.7-6.6,4.6-10.6,5.6.3-2.6,1-4.9,1.7-6.1.9-1.5,2.3-2.7,3.6-4.1,1.1-1.2,2-2.4,2.4-3.9.2-.7.2-1.4,0-2h.3c.7,3.3,1.7,7.3,2.7,10.5Z"/><path class="s" d="m31.5,37c-.7,1-1.7,1.9-2.8,2.6-1.5.9-3.3,1.5-5,2,.2-.3.5-.6.7-.8.7-.9,1.4-1.9,1.5-3.1,0-1.1.4-3.1-.8-3.4-.9-.2-2.8.9-3.7,1.3-.6.3-1.1.5-1.7.8-.6.2-1.1.5-1.7.7-.9.4-1.8.8-2.7.6-.7-.1-1.3-.5-1.8-1,3.2-2.6,7.2-5.1,9.7-7.7,1.8-1.8,3.8-2.7,6.5-2.4,2.7.3,4.8,2.4,5.3,4.9.1.7.1,1.4,0,2-.4,1.5-1.3,2.7-2.4,3.9l-1.1-.3Z"/><path class="m" d="m23.7,41.6c1.7-.6,3.4-1.1,5-2,1.1-.7,2.1-1.6,2.8-2.6l1.1.3c-1.2,1.3-2.6,2.6-3.6,4.1-.7,1.2-1.4,3.5-1.7,6.1,0,0,0,0,0,0-1.2.3-6.7,1.1-10.1.3,0-.7,0-1.5,0-2.2l-.4-1.2c1.8-.5,3-1.1,4.9-1.9.7-.3,1.4-.5,2.1-.8Z"/><path class="s" d="m37.1,82.9c0,.3,0,.5,0,.8-.2.8-.1,3.5.2,7.1-8.1-2.3-15.3-7.4-20.1-14.3-.3-1-.7-2.2-1.1-3.4-.6-1.9-1.1-4.5-.9-6.5.3-2.7,1-5.7,1.4-9.9h.9c0,.2,0,.3,0,.4,0,1.7,1.2,3,2.8,3,1.5,0,2.8-1.3,2.8-3,0-1.7-1.2-3-2.8-3,0,0-.2,0-.3,0v-.3c.2,0,.5,0,.7,0,0-.3,0-1,0-1.5,2.1.2,4.2,0,6.3-.4,0,2.6.3,4.9,1.2,6,1.3,1.7,4.9,5,5.1,9.3.3,5.7,1.8,13.4,3.8,15.9Z"/><path class="m" d="m20.6,88.7c-.6-3.5-1.4-6.3-3.3-12.2,4.8,6.9,12,12,20.1,14.3.7,8.3,2.2,21.1,1.8,24.3-.2.3-.4.5-.6.7-4.7-.5-8.3-3.2-11-6.3-3.3-3.9-5.1-8.4-5.4-10.4-.7-4.8-1.1-7.8-1.6-10.3Z"/><path class="l" d="m39.2,115c0,.5-.2.8-.3.7-.1,0-.2,0-.3,0,.2-.2.4-.5.6-.7Z"/><path class="n" d="m38.6,115.7c-1,1-2.1,1.8-1.1,3.7-2.4.2-5.2,0-7.9-1,0-.3.1-.7.1-1.1,0-1.8,0-3.6-.9-5.2-.5-.9-1.3-1.6-1.6-2.6l.3-.2c2.7,3.1,6.3,5.8,11,6.3Z"/><path class="p" d="m25.5,23.6c.1.7-2.2,2.8-2.4,3.5-.6,1.6-3.1,3.5-4.7,4.2s-2.2.1-3.2-1.2c-1.1-1.4-.5-3.3,0-5,.6-1.9,1.1-4.1,3.9-3.8,2.9.3,6.1.5,6.5,2.3Zm-5.9,2.7c0-1.5-.6-2.7-1.3-2.7-.7,0-1.3,1.2-1.3,2.7,0,1.5.6,2.7,1.3,2.7.7,0,1.3-1.2,1.3-2.7Z"/><path class="f" d="m19.7,52c-.9-.2-1.8-.4-2.6-.8,0-1.1,0-2.2,0-3.4,3.4.8,8.9,0,10.1-.3,0,0,0,0,0,0-.2,1.4-.3,2.9-.3,4.3-2,.4-4.2.6-6.3.4-.3,0-.7,0-1-.1Z"/><path class="r" d="m19.6,39.4c.3-.6.5-1.3.6-2l-.5-1c.6-.3,1.1-.5,1.7-.8.9-.4,2.8-1.5,3.7-1.3,1.2.3.9,2.3.8,3.4,0,1.1-.7,2.2-1.5,3.1-.2.3-.5.6-.7.8-.7.2-1.4.5-2.1.8-1.9.8-3.1,1.4-4.9,1.9-.3,0-.6.2-.9.2-.3,0-.6.2-.9.2,2.1-1.3,3.7-3.2,4.6-5.4Z"/><path class="i" d="m18.4,23.6c.7,0,1.3,1.2,1.3,2.7,0,1.5-.6,2.7-1.3,2.7-.7,0-1.3-1.2-1.3-2.7,0-1.5.6-2.7,1.3-2.7Z"/><path class="d" d="m20.3,54c1.5,0,2.8,1.4,2.8,3,0,1.7-1.2,3-2.8,3-1.5,0-2.8-1.3-2.8-3,0,0,0-.2,0-.3.1-1.4,1.2-2.6,2.5-2.7s.2,0,.3,0Z"/><path class="n" d="m29.6,118.5c0,.3-.2.6-.5.8-.3.3-.8.4-1.2.4-2.7.3-5.5.3-8.2,0v-.2c1.1-.6,1.6-1.6,1.6-2.8-1.3-12,.2-17.2-.6-28,.5,2.6.9,5.5,1.6,10.3.3,1.9,2.1,6.5,5.4,10.4l-.3.2c.2,1,1,1.7,1.6,2.6.9,1.5.9,3.4.9,5.2,0,.4,0,.7-.1,1.1Z"/><path class="r" d="m13.5,36.7c.5.5,1.1.9,1.8,1,.9.2,1.9-.2,2.7-.6.6-.2,1.1-.5,1.7-.7l.5,1c-.1.7-.3,1.3-.6,2-1.7,1.2-4.4,2.9-6.9,3.9-.8.3-1.6.6-2.4.7-1.9.3-4-.2-5.7-1-.7-.4-1.4-.8-2-1.3,1-.1,3.2-1.2,3.7-1.8.2-.2.4-.7.5-1.2.2-.7.2-1.6,0-1.9-.3-.5-1-.8-1.6-.9-1.6-.4-3-.5-4.6-.1.1-.3.3-.7.5-1,.4-.5.9-.9,1.4-1.2,0,0,0,0,0,0,0,0,.1,0,.2-.1,0,0,0,0,0,0,2.5-1.5,7-.1,9.6,2.4.3.3.6.6,1,.9Z"/><path class="d" d="m20.7,52.1c0,.5,0,1.2,0,1.5-.3,0-.5,0-.8,0,0,0-.2,0-.2,0,0-.5,0-1.2,0-1.8.3,0,.7.1,1,.1Z"/><path class="s" d="m20,53.7v.3c-1.3.1-2.4,1.3-2.5,2.7h-.9c.2-1.7.3-3.5.4-5.5.8.4,1.7.6,2.6.8,0,.6,0,1.3,0,1.8,0,0,.2,0,.2,0Z"/><path class="g" d="m12,44.5c.2-.4.5-.9.8-1.2h0c2.5-1,5.2-2.7,6.9-3.9-.9,2.2-2.5,4.1-4.6,5.4-2.1.5-2.2.5-3.3.5h-.1c0-.3.2-.6.3-.8Z"/><path class="k" d="m11.9,7.5c1.2,1.8,1.9,3.1,2.2,6.6-2.6.9-4.9,2.6-6.4,4.8h0c-2.1-3.1-2.3-6.9-2.2-10.5.2-3.6-.6-4.4-2.3-7.7,3.7.5,6.9,4.1,8.7,6.8Z"/><path class="m" d="m16.7,44.3l.4,1.2c0,.8,0,1.5,0,2.2-.8-.2-1.5-.5-2-.9h-.1c0-.7-.2-1.3-.5-1.8.2,0,.3-.2.5-.3.3,0,.5-.1.9-.2.3,0,.6-.1.9-.2Z"/><path class="f" d="m17.2,47.8c0,1.2,0,2.4,0,3.4-.7-.3-1.3-.7-1.9-1.1h0c0-1.2,0-2.3-.1-3.2h.1c.5.4,1.2.7,2,.9Z"/><path class="j" d="m17.3,76.4c1.9,5.9,2.7,8.8,3.3,12.2.8,10.8-.6,16,.6,28,0,1.2-.5,2.3-1.7,2.8-.6.3-1.4.5-2.5.4-1.6,0-3.3.2-4.7-.1-1.2-.2-2-.8-2.3-2.2-.5-2.8,3.4-3.3,4.2-4.7.9-1.7.6-3.8.3-5.7-1.4-7.9-.3-10-1.7-17.9-.5-5.6-.9-10.1-.9-15.3,0-6.1,3-16.7,3.2-23.8h0c.6.4,1.2.8,1.9,1.1,0,2-.2,3.8-.4,5.4-.5,4.2-1.2,7.2-1.4,9.9-.2,2,.3,4.6.9,6.5.4,1.2.8,2.4,1.1,3.4Z"/><path class="p" d="m10.9,20c.4.5-.8,6.6-1.7,7.8-.7,1-.7.3-1.7,1-.7.5-1.2,1.1-1.8,1.6.3-1.1,0-2.4-.2-3.6-.3-2.3.2-4.7,1.4-6.8.5,0,.9-.2,1.3-.2.2,0,2.6,0,2.7.2Zm-2,4.8c0-1.4-.6-2.5-1.2-2.5-.7,0-1.2,1.1-1.2,2.5,0,1.4.6,2.5,1.2,2.5.7,0,1.2-1.1,1.2-2.5Z"/><path class="q" d="m12.8,43.3h0c-.3.4-.6.8-.8,1.2-1.5.2-2.6.4-3.5.8-.9.5-1.1,3.6-1.4,3.6-1.5.1-.7-2-1.7-3.9-.2-.4-.5-.7-.9-1,0-.4.1-.8.2-1.1,1.7.9,3.8,1.4,5.7,1,.7-.1,1.5-.4,2.4-.7Z"/><path class="o" d="m12,44.5c-.1.3-.2.5-.3.8-.5,1.5-.6,2.9-.7,3.4-.3,1.3-1.6,2-3.1,2-2.5,0-3.1-.9-3.3-2.4-.2-.8-.3-2.7,0-4.3.4.2.7.6.9,1,1,1.9.2,4.1,1.7,3.9.3,0,.5-3.1,1.4-3.6.9-.5,2-.6,3.5-.8Z"/><path class="i" d="m7.6,22.4c.7,0,1.2,1.1,1.2,2.5,0,1.4-.5,2.5-1.2,2.5-.7,0-1.2-1.1-1.2-2.5,0-1.4.5-2.5,1.2-2.5Z"/><path class="h" d="m6.9,36.8c.3.4.2,1.2,0,1.9l-1.2-.3c.1-.5-.5-1-1-1s-1.1.5-1.3,1c0,.2-.1.4-.1.7-.2,0-.4,0-.6,0-.1-.4-.2-.8-.4-1.1-.2-.3-.6-.6-1-.7-.3,0-.7,0-.9.3,0-.6,0-1.2.3-1.8,1.6-.4,3-.3,4.6.1.6.2,1.3.4,1.6.9Z"/><path class="h" d="m5.7,38.4l1.2.3c-.1.5-.3.9-.5,1.2-.5.6-2.7,1.7-3.7,1.8-.7-.6-1.3-1.3-1.8-2.1-.2-.3-.3-.7-.4-1.1,0,0,0,0,0,0,.2.2.6.3.9.4.4,0,.8.1,1.2.1.1.4.2.8.5,1,0-.3,0-.7,0-1.1.8,0,1.7-.2,2.4-.6Z"/><path class="i" d="m4.7,37.4c.6,0,1.2.5,1,1-.8.4-1.6.6-2.4.6,0-.2,0-.4.1-.7.2-.5.7-.9,1.3-1Z"/><path class="r" d="m2.9,33.4c0,0-.1,0-.2.1,0,0,.1,0,.2-.1Z"/><path class="i" d="m3.2,39c0,.4,0,.7,0,1.1-.3-.2-.4-.6-.5-1,.2,0,.4,0,.6,0Z"/><path class="i" d="m2.2,37.9c.2.3.3.7.4,1.1-.4,0-.8,0-1.2-.1-.3,0-.6-.2-.9-.4,0,0,0,0,0,0,0-.3-.1-.6-.1-.9.2-.3.6-.4.9-.3.4,0,.7.4,1,.7Z"/><path class="b" d="m2.6,33.5c-.5.4-1,.8-1.4,1.2-.2.3-.4.6-.5,1-.2.6-.3,1.2-.3,1.8,0,.3,0,.6.1.9,0,.4.2.7.4,1.1.4.8,1,1.5,1.8,2.1.6.5,1.3.9,2,1.3,1.7.9,3.8,1.4,5.7,1,.7-.1,1.5-.4,2.4-.7,2.5-1,5.2-2.7,6.9-3.9,1.1-.8,1.8-1.4,1.7-1.3"/><path class="b" d="m14,14.1c-2.6.9-4.9,2.6-6.4,4.8-.3.4-.5.8-.7,1.2-1.2,2.1-1.7,4.5-1.4,6.8.2,1.2.5,2.4.2,3.6,0,.1,0,.3-.2.4-.5,1.1-1.6,1.7-2.6,2.4"/><path class="b" d="m29.2,1.6c.3-.3.6-.6.9-.8,3.1,4.5,5.4,8.8,5.8,13.6.1,1.4,0,2.8-.2,4.3-.4,2.4-1.3,4.6-1.3,7,0,1.2.3,3.3.8,5.7.7,3.4,1.7,7.4,2.7,10.5.4,1.3.8,2.5,1.2,3.4.2.5.4.9.6,1.2,7.5,13,11.6,25.5,15.3,35.7"/><path class="b" d="m22.3,15.4c0-1.3.2-2.5.5-3.7"/><path class="b" d="m7.6,18.9c-2.1-3.1-2.3-6.9-2.2-10.5.2-3.6-.6-4.4-2.3-7.7,3.7.5,6.9,4.1,8.7,6.8,1.2,1.8,1.9,3.1,2.2,6.6"/><path class="b" d="m33,33.5c-.2,1.2-.8,2.4-1.5,3.4-.7,1-1.7,1.9-2.8,2.6-1.5.9-3.3,1.5-5,2-.7.2-1.4.5-2.1.8-1.9.8-3.1,1.4-4.9,1.9-.3,0-.6.2-.9.2-.3,0-.6.2-.9.2-2.1.5-2.2.5-3.3.5"/><path class="b" d="m16.8,12.2c.4,0,.8-.1,1.3-.2,2-.2,4.6-.3,4.7-.3h0c.9-3.9,3.2-7.1,6.4-10.1"/><path class="b" d="m.7,35.7c1.6-.4,3-.3,4.6.1.6.2,1.3.4,1.6.9.3.4.2,1.2,0,1.9-.1.5-.3.9-.5,1.2-.5.6-2.7,1.7-3.7,1.8"/><path class="b" d="m14.5,45s0,0,0,.1c.2.5.4,1.1.5,1.8.1,1,.2,2,.1,3.2-.2,7.1-3.2,17.7-3.2,23.8,0,5.2.5,9.7.9,15.3"/><path class="b" d="m37.1,82.9c.1.1.2.3.3.4"/><path class="b" d="m18,12C15.8,7.7,9.3,1.9,7,1.1c-1-.3-2.2-1.2-3.8-.4"/><path class="b" d="m29.2,19.9c0-.2.1-.4.2-.7.1-2-1.6-6.4-2.3-7.6-1.1-1.9-1.3-2.6-.9-4.8.3-2.1,1.3-3.3,3.1-5.3"/><path class="b" d="m19.6,26.3c0,1.5-.6,2.7-1.3,2.7-.7,0-1.3-1.2-1.3-2.7,0-1.5.6-2.7,1.3-2.7.7,0,1.3,1.2,1.3,2.7Z"/><path class="b" d="m6.4,24.9c0,1.4.6,2.5,1.2,2.5.7,0,1.2-1.1,1.2-2.5,0-1.4-.6-2.5-1.2-2.5-.7,0-1.2,1.1-1.2,2.5Z"/><path class="b" d="m37.9,41.9c-2.3,3.7-6.6,4.5-10.6,5.6,0,0,0,0,0,0-1.2.3-6.7,1.1-10.1.3-.8-.2-1.5-.5-2-.9"/><path class="b" d="m15.2,50.1c.6.4,1.2.8,1.9,1.1.8.4,1.7.6,2.6.8.3,0,.7.1,1,.1,2.1.2,4.2,0,6.3-.4,1.8-.4,3.5-.9,4.9-1.5,3.9-1.6,5.3-2.6,7.3-4.9,0,0,0-.1.1-.2"/><path class="b" d="m12.8,43.3c-.3.4-.6.8-.8,1.2-.1.3-.2.5-.3.8-.5,1.5-.6,2.9-.7,3.4-.3,1.3-1.6,2-3.1,2-2.5,0-3.1-.9-3.3-2.4-.2-.8-.3-2.7,0-4.3"/><path class="b" d="m19.7,51.7c0,0,0,.2,0,.3,0,.6,0,1.3,0,1.8,0,0,.2,0,.2,0,.3,0,.5,0,.8,0,0-.3,0-1,0-1.5,0-.1,0-.2,0-.3"/><path class="b" d="m14.6,45.1c-.5.3-1.1.6-1.7.8"/><path class="b" d="m12.9,89.3c1.4,7.9.3,10,1.7,17.9.3,1.9.6,4-.3,5.7-.8,1.5-4.6,1.9-4.2,4.7.2,1.4,1.1,2,2.3,2.2,1.4.3,3.1,0,4.7.1,1,0,1.9-.1,2.5-.4,1.2-.6,1.7-1.6,1.7-2.8-1.3-12,.2-17.2-.6-28,0-1-.2-2-.3-3.1"/><path class="b" d="m37,81.4c0,.5,0,1,.1,1.5,0,.3,0,.5,0,.8.2,2,.4,4.5.6,7.2.6,6.9,1.3,15.2,2,21.7.1,1.1-.2,1.9-.6,2.5-.2.3-.4.5-.6.7-1,1-2.1,1.8-1.1,3.7.2.4,1.1.6,2.3.7,2.1.2,5.1,0,7.4-.2,0-.2,0-.3,0-.5.1-2.3-.4-3.1-1-3.7-.7-.7-1.4-1.1-1.4-3.2,0-4.8.5-12.4.8-19.9.3-7.6.4-15.3-.3-20.4"/><path class="b" d="m55.1,82.3c2.3,7.4,5,14.9,4.2,21.4-.2,1.6-1.5,3.5-.9,9.3.2,1.6-2,6.3-3.7,6.5-1.7.2-5.7.3-7.4,0,0,0,0,0,0,0"/><path class="b" d="m29.3,118.4c0,0,.2,0,.2,0,2.7.9,5.5,1.2,7.9,1"/><path class="b" d="m46.3,115.7c.4-3.7,4.6-2.3,2.8-12.1-.6-3-.6-6.5-.4-9.2.2-3.6.8-5.9.8-4.3"/><path class="b" d="m20,54c0,0,.2,0,.3,0,1.5,0,2.8,1.4,2.8,3,0,1.7-1.2,3-2.8,3-1.5,0-2.8-1.3-2.8-3,0,0,0-.2,0-.3.1-1.4,1.2-2.6,2.5-2.7Z"/><path class="b" d="m13.2,116.9c-.9.8-1.2,1.9-.8,2.9,0,0,0,.1,0,.2"/><path class="b" d="m40.2,117.8c-.5.7-.6,1.5-.4,2.3,0,0,0,0,0,0"/><path class="b" d="m42.3,118c0,.7.1,1.5.2,2.2"/><path class="b" d="m27.2,109.6c.2,1,1,1.7,1.6,2.6.9,1.5.9,3.4.9,5.2,0,.4,0,.7-.1,1.1,0,.3-.2.6-.5.8-.3.3-.8.4-1.2.4-2.7.3-5.5.3-8.2,0"/><path class="c" d="m59.3,103.7c.7,2.2,1,4.6,1.6,6.8.7,2.2,1.3,4.9-.2,6.7-1.1,1.4-3.1,1.8-4.9,2-4.8.7-11.2.6-16,1.2.2-2.3,3.9-4.7,6-5.6s4.3.2,6.5-.3,4.6-1.5,5.9-3.4"/></svg>