<?xml version="1.0" encoding="UTF-8"?><svg id="Layer_1" xmlns="http://www.w3.org/2000/svg" width="62" height="120.8" viewBox="0 0 62 120.8"><defs><style>.cls-1{fill:none;}.cls-1,.cls-2{stroke:#000;stroke-miterlimit:10;stroke-width:.8px;}.cls-3{fill:#f4cb00;}.cls-3,.cls-4,.cls-5,.cls-6,.cls-7,.cls-8,.cls-9,.cls-10,.cls-11,.cls-12,.cls-13,.cls-14,.cls-15,.cls-16,.cls-17,.cls-18{stroke-width:0px;}.cls-4{fill:#4742a8;}.cls-5{fill:#46382d;}.cls-6{fill:#36322f;}.cls-7{fill:#252626;}.cls-8{fill:#c49b6c;}.cls-9{fill:#c6916b;}.cls-10,.cls-2{fill:#d6ae81;}.cls-11{fill:#dab280;}.cls-12{fill:#d9dddf;}.cls-13{fill:#b48a60;}.cls-14{fill:#c35862;}.cls-15{fill:#998066;}.cls-16{fill:#a04958;}.cls-17{fill:#6a5c50;}.cls-18{fill:#eee;}</style></defs><path class="cls-10" d="M59.3,103.7c.8-6.4-1.9-13.9-4.2-21.4-3.7-10.2-7.8-22.7-15.3-35.7-.2-.3-.4-.7-.6-1.2-.4-.9-.8-2.1-1.2-3.4-1-3.2-2-7.2-2.7-10.5-.5-2.4-.8-4.5-.8-5.7,0-2.4.9-4.7,1.3-7,.2-1.5.3-2.9.2-4.3-.4-4.9-2.7-9.1-5.8-13.6-.3.3-.6.5-.9.8-3.2,3-5.5,6.2-6.4,10.1h0c-.1,0-2.7,0-4.7.3h0C15.8,7.7,9.3,1.9,7,1.2c-1-.3-2.2-1.2-3.8-.4,1.7,3.2,2.5,4.1,2.3,7.7-.2,3.6.1,7.5,2.2,10.5h0c-.3.4-.5.8-.7,1.2-1.2,2.1-1.7,4.5-1.4,6.8.2,1.2.5,2.4.2,3.6,0,.1,0,.3-.2.4-.5,1.1-1.6,1.7-2.6,2.4,0,0,0,0,0,0,0,0-.1,0-.2.1,0,0,0,0,0,0-.5.4-1,.8-1.4,1.2-.2.3-.4.6-.5,1-.2.6-.3,1.2-.3,1.8,0,.3,0,.6.1.9,0,.4.2.7.4,1.1.4.8,1,1.5,1.8,2.1.6.5,1.3.9,2,1.3-.1.3-.2.7-.2,1.1-.2,1.6-.1,3.5,0,4.3.3,1.4.8,2.3,3.3,2.4,1.5,0,2.9-.6,3.1-2,.1-.5.2-2,.7-3.4h.1c1.1,0,1.2,0,3.3-.5-.2.1-.3.2-.5.3.2.5.4,1.1.5,1.8.1,1,.2,2,.1,3.2-.2,7.1-3.2,17.7-3.2,23.8,0,5.2.5,9.7.9,15.3,1.4,7.9.3,10,1.7,17.9.3,1.9.6,4-.3,5.7-.8,1.5-4.6,1.9-4.2,4.7.2,1.4,1.1,2,2.3,2.2,1.4.3,3.1,0,4.7.1,1,0,1.9-.1,2.5-.4v.2c2.8.3,5.6.3,8.3,0,.4,0,.9-.1,1.2-.4.2-.2.4-.5.5-.8,2.7.9,5.5,1.2,7.9,1,.2.4,1.1.6,2.3.7,0,0,0,0,0,0,0,0,0,.2,0,.2.5,0,1-.1,1.5-.2,1.9,0,4.1,0,5.9-.3,0,0,0,0,0-.1,1.1,0,2.3-.1,3.4-.2,1.5,0,3.1,0,4-.2.2,0,.4,0,.5-.2.2,0,.4,0,.7,0,1.8-.2,3.8-.6,4.9-2,1.5-1.8.8-4.5.2-6.7-.7-2.2-1-4.6-1.6-6.8"/><path class="cls-6" d="M6.9,36.8c-.3-.5-1-.8-1.6-.9-1.6-.4-3-.5-4.6-.1-.2.6-.3,1.2-.3,1.8,0,.3,0,.6.1.9,0,.4.2.7.4,1.1.4.8,1,1.5,1.8,2.1,1-.1,3.2-1.2,3.7-1.8.2-.2.4-.7.5-1.2.2-.7.2-1.6,0-1.9Z"/><path class="cls-14" d="M12.8,43.3c-.8.3-1.6.6-2.4.7-1.9.3-4-.2-5.7-1-.1.3-.2.7-.2,1.1-.2,1.6-.1,3.5,0,4.3.3,1.4.8,2.3,3.3,2.4,1.5,0,2.9-.6,3.1-2,.1-.5.2-2,.7-3.4,0-.3.2-.5.3-.8.2-.4.5-.9.8-1.2h0Z"/><path class="cls-11" d="M47.3,119.5c0,.1,0,.3,0,.5-2.3.3-5.3.4-7.4.2-1.3-.1-2.2-.3-2.3-.7-1-2,0-2.7,1.1-3.7.1,0,.2,0,.3,0,.2,0,.3-.3.3-.7.4-.6.8-1.4.6-2.5-.8-6.5-1.5-14.8-2-21.7-.2-2.7-.4-5.1-.6-7.2,0-.3,0-.5,0-.8-2-2.4-3.6-10.2-3.8-15.9-.2-4.2-3.8-7.6-5.1-9.3-.8-1.1-1.2-3.4-1.2-6,1.8-.4,3.5-.9,4.9-1.5,3.9-1.6,5.3-2.6,7.3-4.9.2.5.4.9.6,1.2,7.5,13,11.6,25.5,15.3,35.7,2.3,7.4,5,14.9,4.2,21.4-.2,1.6-1.5,3.5-.9,9.3.2,1.6-2,6.3-3.7,6.5-1.7.2-5.7.3-7.4,0ZM45.7,92.5c-.3,7.6-.8,15.1-.8,19.9,0,2.1.7,2.6,1.4,3.2.4-3.7,4.6-2.3,2.8-12.1-.6-3-.6-6.5-.4-9.2-1-.6-2-1.3-3.1-1.9Z"/><path class="cls-8" d="M45.7,92.5c1,.6,2,1.3,3.1,1.9-.2,2.7-.2,6.2.4,9.2,1.9,9.7-2.4,8.4-2.8,12.1-.7-.7-1.4-1.1-1.4-3.2,0-4.8.5-12.4.8-19.9Z"/><path class="cls-9" d="M30.1.7c3.1,4.5,5.4,8.8,5.8,13.6-.3,1.8-.9,3.7-1.4,5.7,0,.4-.2.8-.5,1.1-.5.5-.2.4-.9.1-1.3-.4-2.8-1-3.7-2,.1-2-1.6-6.4-2.3-7.6-1.1-1.9-1.3-2.6-.9-4.8.3-2.1,1.3-3.3,3.1-5.3h0c.3-.3.6-.6.9-.8Z"/><path class="cls-11" d="M35.3,31.4c-.5-2.4-.8-4.5-.8-5.7,0-2.4.9-4.7,1.3-7,.2-1.5.3-2.9.2-4.3-.3,1.8-.9,3.7-1.4,5.7,0,.4-.2.8-.5,1.1-.5.5-.2.4-.9.1-1.3-.4-2.8-1-3.7-2,.1-2-1.6-6.4-2.3-7.6-1.1-1.9-1.3-2.6-.9-4.8.3-2.1,1.3-3.3,3.1-5.3h0c-3.2,3-5.5,6.2-6.4,10.1h0c-.1,0-2.7,0-4.7.3h0C15.8,7.7,9.3,1.9,7,1.1c-1-.3-2.2-1.2-3.8-.4,3.7.5,6.9,4.1,8.7,6.8,1.2,1.8,1.9,3.1,2.2,6.6-2.6.9-4.9,2.6-6.4,4.8-.3.4-.5.8-.7,1.2.5,0,.9-.2,1.3-.2.2,0,2.6,0,2.7.2.4.5-.8,6.6-1.7,7.8-.7,1-.7.3-1.7,1-.7.5-1.2,1.1-1.8,1.6,0,.1,0,.3-.2.4-.5,1.1-1.6,1.7-2.6,2.4,2.5-1.5,7-.1,9.6,2.4.3.3.6.6,1,.9,3.2-2.6,7.2-5.1,9.7-7.7,1.8-1.8,3.8-2.7,6.5-2.4,2.7.3,4.8,2.4,5.3,4.9.1.7.1,1.4,0,2-.4,1.5-1.3,2.7-2.4,3.9-1.2,1.3-2.6,2.6-3.6,4.1-.7,1.2-1.4,3.5-1.7,6.1,4-1,8.3-1.9,10.6-5.6h0c-1-3.2-2-7.2-2.7-10.5ZM23.1,27.1c-.6,1.6-3.1,3.5-4.7,4.2s-2.2.1-3.2-1.2c-1.1-1.4-.5-3.3,0-5,.6-1.9,1.1-4.1,3.9-3.8,2.9.3,6.1.5,6.5,2.3.1.7-2.2,2.8-2.4,3.5Z"/><path class="cls-18" d="M31.5,37c-.7,1-1.7,1.9-2.8,2.6-1.5.9-3.3,1.5-5,2,.2-.3.5-.6.7-.8.7-.9,1.4-1.9,1.5-3.1,0-1.1.4-3.1-.8-3.4-.9-.2-2.8.9-3.7,1.3-.6.3-1.1.5-1.7.8-.6.2-1.1.5-1.7.7-.9.4-1.8.8-2.7.6-.7-.1-1.3-.5-1.8-1,3.2-2.6,7.2-5.1,9.7-7.7,1.8-1.8,3.8-2.7,6.5-2.4,2.7.3,4.8,2.4,5.3,4.9.1.7.1,1.4,0,2-.4,1.5-1.3,2.7-2.4,3.9l-1.1-.3Z"/><path class="cls-12" d="M20.6,88.7c-.6-3.5-1.4-6.3-3.3-12.2,4.8,6.9,12,12,20.1,14.3.7,8.3,2.2,21.1,1.8,24.3-.2.3-.4.5-.6.7-4.7-.5-8.3-3.2-11-6.3-3.3-3.9-5.1-8.4-5.4-10.4-.7-4.8-1.1-7.8-1.6-10.3Z"/><path class="cls-11" d="M39.2,115c0,.5-.2.8-.3.7-.1,0-.2,0-.3,0,.2-.2.4-.5.6-.7Z"/><path class="cls-13" d="M38.6,115.7c-1,1-2.1,1.8-1.1,3.7-2.4.2-5.2,0-7.9-1,0-.3.1-.7.1-1.1,0-1.8,0-3.6-.9-5.2-.5-.9-1.3-1.6-1.6-2.6l.3-.2c2.7,3.1,6.3,5.8,11,6.3Z"/><path class="cls-15" d="M25.5,23.6c.1.7-2.2,2.8-2.4,3.5-.6,1.6-3.1,3.5-4.7,4.2s-2.2.1-3.2-1.2c-1.1-1.4-.5-3.3,0-5,.6-1.9,1.1-4.1,3.9-3.8,2.9.3,6.1.5,6.5,2.3ZM19.6,26.3c0-1.5-.6-2.7-1.3-2.7-.7,0-1.3,1.2-1.3,2.7,0,1.5.6,2.7,1.3,2.7.7,0,1.3-1.2,1.3-2.7Z"/><path class="cls-7" d="M18.4,23.6c.7,0,1.3,1.2,1.3,2.7,0,1.5-.6,2.7-1.3,2.7-.7,0-1.3-1.2-1.3-2.7,0-1.5.6-2.7,1.3-2.7Z"/><path class="cls-3" d="M20.3,54c1.5,0,2.8,1.4,2.8,3,0,1.7-1.2,3-2.8,3-1.5,0-2.8-1.3-2.8-3,0,0,0-.2,0-.3.1-1.4,1.2-2.6,2.5-2.7s.2,0,.3,0Z"/><path class="cls-13" d="M29.6,118.5c0,.3-.2.6-.5.8-.3.3-.8.4-1.2.4-2.7.3-5.5.3-8.2,0v-.2c1.1-.6,1.6-1.6,1.6-2.8-1.3-12,.2-17.2-.6-28,.5,2.6.9,5.5,1.6,10.3.3,1.9,2.1,6.5,5.4,10.4l-.3.2c.2,1,1,1.7,1.6,2.6.9,1.5.9,3.4.9,5.2,0,.4,0,.7-.1,1.1Z"/><path class="cls-17" d="M25.1,34.3c-.9-.2-2.8.9-3.7,1.3-.6.3-1.1.5-1.7.8-.6.2-1.1.5-1.7.7-.9.4-1.8.8-2.7.6-.7-.1-1.3-.5-1.8-1-.3-.3-.6-.6-1-.9-2.6-2.5-7.2-3.9-9.6-2.4,0,0,0,0,0,0,0,0-.1,0-.2.1,0,0,0,0,0,0-.5.4-1,.8-1.4,1.2-.2.3-.4.6-.5,1,1.6-.4,3-.3,4.6.1.6.2,1.3.4,1.6.9.3.4.2,1.2,0,1.9-.1.5-.3.9-.5,1.2-.5.6-2.7,1.7-3.7,1.8.6.5,1.3.9,2,1.3,1.7.9,3.8,1.4,5.7,1,.7-.1,1.5-.4,2.4-.7,2.5-1,5.2-2.7,6.9-3.9-.9,2.2-2.5,4.1-4.6,5.4.3,0,.5-.1.9-.2.3,0,.6-.1.9-.2,1.8-.5,3-1.1,4.9-1.9.7-.3,1.4-.5,2.1-.8.2-.3.5-.6.7-.8.7-.9,1.4-1.9,1.5-3.1,0-1.1.4-3.1-.8-3.4Z"/><path class="cls-3" d="M20.7,52.1c0,.5,0,1.2,0,1.5-.3,0-.5,0-.8,0,0,0-.2,0-.2,0,0-.5,0-1.2,0-1.8.3,0,.7.1,1,.1Z"/><path class="cls-18" d="M37.2,83.7c0-.3,0-.5,0-.8-2-2.4-3.6-10.2-3.8-15.9-.2-4.2-3.8-7.6-5.1-9.3-.8-1.1-1.2-3.4-1.2-6-2,.4-4.2.6-6.3.4,0,.5,0,1.2,0,1.5-.3,0-.5,0-.8,0,0,0-.2,0-.2,0,0-.5,0-1.2,0-1.8-.9-.2-1.8-.4-2.6-.8,0,2-.2,3.8-.4,5.4-.5,4.2-1.2,7.2-1.4,9.9-.2,2,.3,4.6.9,6.5.4,1.2.8,2.4,1.1,3.4,4.8,6.9,12,12,20.1,14.3-.3-3.5-.4-6.2-.2-7.1ZM20.3,60c-1.5,0-2.8-1.3-2.8-3,0,0,0-.2,0-.3.1-1.4,1.2-2.6,2.5-2.7,0,0,.2,0,.3,0,1.5,0,2.8,1.4,2.8,3,0,1.7-1.2,3-2.8,3Z"/><path class="cls-5" d="M12,44.5c.2-.4.5-.9.8-1.2h0c2.5-1,5.2-2.7,6.9-3.9-.9,2.2-2.5,4.1-4.6,5.4-2.1.5-2.2.5-3.3.5h-.1c0-.3.2-.6.3-.8Z"/><path class="cls-9" d="M11.9,7.5c1.2,1.8,1.9,3.1,2.2,6.6-2.6.9-4.9,2.6-6.4,4.8h0c-2.1-3.1-2.3-6.9-2.2-10.5.2-3.6-.6-4.4-2.3-7.7,3.7.5,6.9,4.1,8.7,6.8Z"/><path class="cls-12" d="M31.5,37c-.7,1-1.7,1.9-2.8,2.6-1.5.9-3.3,1.5-5,2-.7.2-1.4.5-2.1.8-1.9.8-3.1,1.4-4.9,1.9-.3,0-.6.2-.9.2-.3,0-.6.2-.9.2-.2.1-.3.2-.5.3.2.5.4,1.1.5,1.8h.1c.5.4,1.2.7,2,.9,3.4.8,8.9,0,10.1-.3,0,0,0,0,0,0,.3-2.6,1-4.9,1.7-6.1.9-1.5,2.3-2.7,3.6-4.1l-1.1-.3Z"/><path class="cls-4" d="M38,41.9h0c-2.3,3.7-6.6,4.6-10.6,5.6,0,0,0,0,0,0-1.2.3-6.7,1.1-10.1.3-.8-.2-1.5-.5-2-.9h-.1c.1,1,.2,2.1.1,3.3h0c.6.4,1.2.8,1.9,1.1.8.4,1.7.6,2.6.8.3,0,.7.1,1,.1,2.1.2,4.2,0,6.3-.4,1.8-.4,3.5-.9,4.9-1.5,3.9-1.6,5.3-2.6,7.3-4.9-.4-.9-.8-2.1-1.2-3.4Z"/><path class="cls-8" d="M17.3,76.4c1.9,5.9,2.7,8.8,3.3,12.2.8,10.8-.6,16,.6,28,0,1.2-.5,2.3-1.7,2.8-.6.3-1.4.5-2.5.4-1.6,0-3.3.2-4.7-.1-1.2-.2-2-.8-2.3-2.2-.5-2.8,3.4-3.3,4.2-4.7.9-1.7.6-3.8.3-5.7-1.4-7.9-.3-10-1.7-17.9-.5-5.6-.9-10.1-.9-15.3,0-6.1,3-16.7,3.2-23.8h0c.6.4,1.2.8,1.9,1.1,0,2-.2,3.8-.4,5.4-.5,4.2-1.2,7.2-1.4,9.9-.2,2,.3,4.6.9,6.5.4,1.2.8,2.4,1.1,3.4Z"/><path class="cls-15" d="M10.9,20c.4.5-.8,6.6-1.7,7.8-.7,1-.7.3-1.7,1-.7.5-1.2,1.1-1.8,1.6.3-1.1,0-2.4-.2-3.6-.3-2.3.2-4.7,1.4-6.8.5,0,.9-.2,1.3-.2.2,0,2.6,0,2.7.2ZM8.9,24.9c0-1.4-.6-2.5-1.2-2.5-.7,0-1.2,1.1-1.2,2.5,0,1.4.6,2.5,1.2,2.5.7,0,1.2-1.1,1.2-2.5Z"/><path class="cls-16" d="M12.8,43.3h0c-.3.4-.6.8-.8,1.2-1.5.2-2.6.4-3.5.8-.9.5-1.1,3.6-1.4,3.6-1.5.1-.7-2-1.7-3.9-.2-.4-.5-.7-.9-1,0-.4.1-.8.2-1.1,1.7.9,3.8,1.4,5.7,1,.7-.1,1.5-.4,2.4-.7Z"/><path class="cls-14" d="M12,44.5c-.1.3-.2.5-.3.8-.5,1.5-.6,2.9-.7,3.4-.3,1.3-1.6,2-3.1,2-2.5,0-3.1-.9-3.3-2.4-.2-.8-.3-2.7,0-4.3.4.2.7.6.9,1,1,1.9.2,4.1,1.7,3.9.3,0,.5-3.1,1.4-3.6.9-.5,2-.6,3.5-.8Z"/><path class="cls-7" d="M7.6,22.4c.7,0,1.2,1.1,1.2,2.5,0,1.4-.5,2.5-1.2,2.5-.7,0-1.2-1.1-1.2-2.5,0-1.4.5-2.5,1.2-2.5Z"/><path class="cls-6" d="M6.9,36.8c-.3-.5-1-.8-1.6-.9-1.6-.4-3-.5-4.6-.1-.2.6-.3,1.2-.3,1.8.2-.3.6-.4.9-.3.4,0,.7.4,1,.7.2.3.3.7.4,1.1.2,0,.4,0,.6,0,0-.2,0-.4.1-.7.2-.5.7-.9,1.3-1,.6,0,1.2.5,1,1-.8.4-1.6.6-2.4.6,0,.4,0,.7,0,1.1-.3-.2-.4-.6-.5-1-.4,0-.8,0-1.2-.1-.3,0-.6-.2-.9-.4,0,0,0,0,0,0,0,.4.2.7.4,1.1.4.8,1,1.5,1.8,2.1,1-.1,3.2-1.2,3.7-1.8.2-.2.4-.7.5-1.2.2-.7.2-1.6,0-1.9Z"/><path class="cls-17" d="M2.9,33.4c0,0-.1,0-.2.1,0,0,.1,0,.2-.1Z"/><path class="cls-7" d="M4.7,37.4c-.6,0-1.1.5-1.3,1,0,.2-.1.4-.1.7.8,0,1.7-.2,2.4-.6.1-.5-.5-1-1-1Z"/><path class="cls-7" d="M3.2,40.1c0-.3,0-.7,0-1.1-.2,0-.4,0-.6,0,.1.4.2.8.5,1Z"/><path class="cls-7" d="M1.3,37.2c-.3,0-.7,0-.9.3,0,.3,0,.6.1.9,0,0,0,0,0,0,.2.2.6.3.9.4.4,0,.8.1,1.2.1-.1-.4-.2-.8-.4-1.1-.2-.3-.6-.6-1-.7Z"/><path class="cls-1" d="M14,14.1c-2.6.9-4.9,2.6-6.4,4.8-.3.4-.5.8-.7,1.2-1.2,2.1-1.7,4.5-1.4,6.8.2,1.2.5,2.4.2,3.6,0,.1,0,.3-.2.4-.5,1.1-1.6,1.7-2.6,2.4l-.3.2c-.5.4-1,.8-1.4,1.2-.2.3-.4.6-.5,1-.2.6-.3,1.2-.3,1.8,0,.3,0,.6.1.9,0,.4.2.7.4,1.1.4.8,1,1.5,1.8,2.1.6.5,1.3.9,2,1.3,1.7.9,3.8,1.4,5.7,1,.7-.1,1.5-.4,2.4-.7,2.5-1,5.2-2.7,6.9-3.9,1.1-.8,1.8-1.4,1.7-1.3"/><path class="cls-1" d="M29.2,1.6c.3-.3.6-.6.9-.8,3.1,4.5,5.4,8.8,5.8,13.6.1,1.4,0,2.8-.2,4.3-.4,2.4-1.3,4.6-1.3,7,0,1.2.3,3.3.8,5.7.7,3.4,1.7,7.4,2.7,10.5.4,1.3.8,2.5,1.2,3.4.2.5.4.9.6,1.2,7.5,13,11.6,25.5,15.3,35.7"/><path class="cls-1" d="M22.3,15.4c0-1.3.2-2.5.5-3.7"/><path class="cls-1" d="M7.6,18.9c-2.1-3.1-2.3-6.9-2.2-10.5.2-3.6-.6-4.4-2.3-7.7,3.7.5,6.9,4.1,8.7,6.8,1.2,1.8,1.9,3.1,2.2,6.6"/><path class="cls-1" d="M33,33.5c-.2,1.2-.8,2.4-1.5,3.4-.7,1-1.7,1.9-2.8,2.6-1.5.9-3.3,1.5-5,2-.7.2-1.4.5-2.1.8-1.9.8-3.1,1.4-4.9,1.9-.3,0-.6.2-.9.2-.3,0-.6.2-.9.2-2.1.5-2.2.5-3.3.5"/><path class="cls-1" d="M16.8,12.2c.4,0,.8-.1,1.3-.2,2-.2,4.6-.3,4.7-.3h0c.9-3.9,3.2-7.1,6.4-10.1"/><path class="cls-1" d="M.7,35.7c1.6-.4,3-.3,4.6.1.6.2,1.3.4,1.6.9.3.4.2,1.2,0,1.9-.1.5-.3.9-.5,1.2-.5.6-2.7,1.7-3.7,1.8"/><path class="cls-1" d="M14.5,45s0,0,0,.1c.2.5.4,1.1.5,1.8.1,1,.2,2,.1,3.2-.2,7.1-3.2,17.7-3.2,23.8,0,5.2.5,9.7.9,15.3"/><path class="cls-1" d="M37.1,82.9c.1.1.2.3.3.4"/><path class="cls-1" d="M18,12C15.8,7.7,9.3,1.9,7,1.1c-1-.3-2.2-1.2-3.8-.4"/><path class="cls-1" d="M29.2,19.9c0-.2.1-.4.2-.7.1-2-1.6-6.4-2.3-7.6-1.1-1.9-1.3-2.6-.9-4.8.3-2.1,1.3-3.3,3.1-5.3"/><path class="cls-1" d="M19.6,26.3c0,1.5-.6,2.7-1.3,2.7-.7,0-1.3-1.2-1.3-2.7,0-1.5.6-2.7,1.3-2.7.7,0,1.3,1.2,1.3,2.7Z"/><path class="cls-1" d="M6.4,24.9c0,1.4.6,2.5,1.2,2.5.7,0,1.2-1.1,1.2-2.5,0-1.4-.6-2.5-1.2-2.5-.7,0-1.2,1.1-1.2,2.5Z"/><path class="cls-1" d="M37.9,41.9c-2.3,3.7-6.6,4.5-10.6,5.6,0,0,0,0,0,0-1.2.3-6.7,1.1-10.1.3-.8-.2-1.5-.5-2-.9"/><path class="cls-1" d="M15.2,50.1c.6.4,1.2.8,1.9,1.1.8.4,1.7.6,2.6.8.3,0,.7.1,1,.1,2.1.2,4.2,0,6.3-.4,1.8-.4,3.5-.9,4.9-1.5,3.9-1.6,5.3-2.6,7.3-4.9,0,0,0-.1.1-.2"/><path class="cls-1" d="M12.8,43.3c-.3.4-.6.8-.8,1.2-.1.3-.2.5-.3.8-.5,1.5-.6,2.9-.7,3.4-.3,1.3-1.6,2-3.1,2-2.5,0-3.1-.9-3.3-2.4-.2-.8-.2-3.4,0-5"/><path class="cls-1" d="M19.7,51.7c0,0,0,.2,0,.3,0,.6,0,1.3,0,1.8,0,0,.2,0,.2,0,.3,0,.5,0,.8,0,0-.3,0-1,0-1.5,0-.1,0-.2,0-.3"/><path class="cls-1" d="M14.6,45.1c-.5.3-1.1.6-1.7.8"/><path class="cls-1" d="M12.9,89.3c1.4,7.9.3,10,1.7,17.9.3,1.9.6,4-.3,5.7-.8,1.5-4.6,1.9-4.2,4.7.2,1.4,1.1,2,2.3,2.2,1.4.3,3.1,0,4.7.1,1,0,1.9-.1,2.5-.4,1.2-.6,1.7-1.6,1.7-2.8-1.3-12,.2-17.2-.6-28,0-1-.2-2-.3-3.1"/><path class="cls-1" d="M37,81.4c0,.5,0,1,.1,1.5,0,.3,0,.5,0,.8.2,2,.4,4.5.6,7.2.6,6.9,1.3,15.2,2,21.7.1,1.1-.2,1.9-.6,2.5-.2.3-.4.5-.6.7-1,1-2.1,1.8-1.1,3.7.2.4,1.1.6,2.3.7,2.1.2,5.1,0,7.4-.2,0-.2,0-.3,0-.5.1-2.3-.4-3.1-1-3.7-.7-.7-1.4-1.1-1.4-3.2,0-4.8.5-12.4.8-19.9.3-7.6.4-15.3-.3-20.4"/><path class="cls-1" d="M55.1,82.3c2.3,7.4,5,14.9,4.2,21.4-.2,1.6-1.5,3.5-.9,9.3.2,1.6-2,6.3-3.7,6.5-1.7.2-5.7.3-7.4,0,0,0,0,0,0,0"/><path class="cls-1" d="M29.3,118.4c0,0,.2,0,.2,0,2.7.9,5.5,1.2,7.9,1"/><path class="cls-1" d="M46.3,115.7c.4-3.7,4.6-2.3,2.8-12.1-.6-3-.6-6.5-.4-9.2.2-3.6.8-5.9.8-4.3"/><path class="cls-1" d="M20,54c0,0,.2,0,.3,0,1.5,0,2.8,1.4,2.8,3,0,1.7-1.2,3-2.8,3-1.5,0-2.8-1.3-2.8-3,0,0,0-.2,0-.3.1-1.4,1.2-2.6,2.5-2.7Z"/><path class="cls-1" d="M13.2,116.9c-.9.8-1.2,1.9-.8,2.9,0,0,0,.1,0,.2"/><path class="cls-1" d="M40.2,117.8c-.5.7-.6,1.5-.4,2.3,0,0,0,0,0,0"/><path class="cls-1" d="M42.3,118c0,.7.1,1.5.2,2.2"/><path class="cls-1" d="M27.2,109.6c.2,1,1,1.7,1.6,2.6.9,1.5.9,3.4.9,5.2,0,.4,0,.7-.1,1.1,0,.3-.2.6-.5.8-.3.3-.8.4-1.2.4-2.7.3-5.5.3-8.2,0"/><path class="cls-2" d="M59.3,103.7c.7,2.2,1,4.6,1.6,6.8.7,2.2,1.3,4.9-.2,6.7-1.1,1.4-3.1,1.8-4.9,2-4.8.7-11.2.6-16,1.2.2-2.3,3.9-4.7,6-5.6,2.1-.9,4.3.2,6.5-.3,2.3-.5,4.6-1.5,5.9-3.4"/></svg>