<?xml version="1.0" encoding="UTF-8"?><svg id="a" xmlns="http://www.w3.org/2000/svg" width="86.77" height="70.75" viewBox="0 0 86.77 70.75"><defs><style>.b{fill:none;stroke:#000;stroke-width:.75px;}.c{fill:#716b68;}.c,.d,.e{stroke-width:0px;}.d{fill:#56504e;}.e{fill:#8c8887;}</style></defs><path class="e" d="m35.12,1.25c7.14-1.53,13.96-1.08,20.47,1.51-9.34-1.13-23.83,3.33-29.29,10.27-5.8,7.38-17.55,7.62-17,17,.98,16.6-5.27,14.75-4.1,30.82C2.45,56.78.6,50.14.38,38.59-.13,12.3,21.45,4.18,35.12,1.25Z"/><path class="d" d="m31.07,66.22c7.4-.76,12.17-9.05,19.52-10.29,4.63-.78,9.72,1.38,13.91-.74,3.35-1.69,4.92-5.57,5.82-9.21,3.09-12.49,1.28-26.08-4.8-37.4,3.34,2.63,6.59,5.91,9.74,9.87,7.3,9.16,21.82,44.06-1.86,51.52,0,0-41.44,1.16-52.75-.44-2.66-1.09-5.4-1.77-7.96-2.83,1.7-1.59,4.48-2.39,6.9-2.19,3.87.33,7.61,2.11,11.48,1.71Z"/><path class="c" d="m50.59,55.93c-7.35,1.24-12.12,9.53-19.52,10.29-3.87.4-7.61-1.38-11.48-1.71-2.42-.2-5.2.6-6.9,2.19-2.8-1.16-5.41-2.77-7.49-5.85-1.17-16.07,5.08-14.22,4.1-30.82-.55-9.38,11.2-9.62,17-17C31.76,6.09,46.25,1.63,55.59,2.76c3.39,1.35,6.71,3.28,9.93,5.82,6.08,11.32,7.89,24.91,4.8,37.4-.9,3.64-2.47,7.52-5.82,9.21-4.19,2.12-9.28-.04-13.91.74Z"/><path class="b" d="m65.52,8.58c3.34,2.63,6.59,5.91,9.74,9.87,7.3,9.16,21.82,44.06-1.86,51.52,0,0-41.44,1.16-52.75-.44-2.66-1.09-5.4-1.77-7.96-2.83-2.8-1.16-5.41-2.77-7.49-5.85C2.45,56.78.6,50.14.38,38.59-.13,12.3,21.45,4.18,35.12,1.25c7.14-1.53,13.96-1.08,20.47,1.51,3.39,1.35,6.71,3.28,9.93,5.82Z"/></svg>