<?xml version="1.0" encoding="UTF-8"?><svg id="a" xmlns="http://www.w3.org/2000/svg" width="71.6" height="60.8" viewBox="0 0 71.6 60.8"><defs><style>.b{fill:none;stroke:#000;stroke-width:.8px;}.c{fill:#787f7a;}.c,.d,.e{stroke-width:0px;}.d{fill:#4f5a53;}.e{fill:#393f3b;}</style></defs><path class="c" d="m33.3.5c5.2-.4,11,.6,16,2-4.6,3.9-9.2,4.5-15,6-4.4,1.1-10.1,1.9-15,8s-5.9,9-8,13c-4.1,10.7-5,10-10,15C-.7,35.5,8.3,14.5,14.3,8.5S27.9.9,33.3.5Z"/><path class="d" d="m49.3,2.5c-5-1.4-10.8-2.4-16-2-5.4.4-13,2-19,8S-.7,35.5,1.3,44.5c5-5,5.9-4.3,10-15,2.1-4,4-8,8-13s10.6-6.9,15-8c5.8-1.5,10.4-2.1,15-6Zm-19.8,50.3c-6.8,4.7-15.6,6.3-23.6,4.3h0c-11.6-9.6-1.5-33.6,2.9-41.6C16.6,1,27.5-.2,42.5.5c5.9.3,12.9,2.6,18.5,7.9,2.4,8.8,1.9,18,1.5,27.1-.1,2.5-.3,5-1.2,7.4-.9,2.3-1.6,4-4,4.6-4,.9-10,1.4-14,1-5.7-.6-9.1,1-13.8,4.3Z"/><path class="e" d="m5.9,57.1c8,2,16.8.4,23.6-4.3,4.7-3.3,8.1-4.9,13.8-4.3,4,.4,10,0,14-1,2.4-.6,3.1-2.3,4-4.6.9-2.3,1.1-4.9,1.2-7.4.5-9.1.9-18.4-1.5-27.1,5.3,5.1,9.4,12.9,10.1,24.4,1.4,24.5-8.9,23.5-16.7,26.8-9.3,1.4-43.3.4-43.3.4-2.1-.7-3.9-1.7-5.3-2.9h0Z"/><path class="b" d="m5.8,57.2c1.4,1.2,3.2,2.2,5.3,2.9,0,0,34,1,43.3-.4,7.7-3.3,18.1-2.3,16.7-26.8-.7-11.5-4.7-19.3-10.1-24.4C55.4,3.1,48.4.8,42.5.5,27.5-.2,16.6,1,8.7,15.4c-4.4,8-14.5,32-2.9,41.7Z"/></svg>