<?xml version="1.0" encoding="UTF-8"?><svg id="a" xmlns="http://www.w3.org/2000/svg" width="28.64" height="80.75" viewBox="0 0 28.64 80.75"><defs><style>.b{fill:#f89a1c;}.b,.c,.d,.e,.f,.g,.h,.i,.j{stroke-width:.75px;}.b,.c,.d,.e,.f,.g,.j{stroke:#000;}.c,.h{fill:#008ed3;}.d{fill:#fff100;}.e,.i{fill:#fff;}.f{fill:#8bc53f;}.g{fill:#838080;}.h{font-family:ComicSansMS-Bold, 'Comic Sans MS';font-size:15.71px;font-weight:700;stroke:#231f20;}.i{opacity:.56;stroke:#fff;}.j{fill:none;}.k{fill:#967348;}.k,.l{stroke-width:0px;}.l{fill:#a3ce58;}</style></defs><path class="k" d="m27.33,26.22c.83,5.31.83,14.95.69,33.79-.03,4.01-.25,6.54-.62,8.12-.88,3.75-25.5,3.72-26.37-.2-1.19-12.56-.49-38.53.27-42.11C3.7,17.74,12.44,14.26,10.93,6.88l-1.74-.1.02-.64,10.15.1v.54l-1.55.1c-1.93,8.09,7.48,11.17,9.53,19.34Z"/><path class="j" d="m28.03,60.01c-.03,4.01-.25,6.54-.62,8.12-.88,3.75-25.5,3.72-26.37-.2-1.19-12.56-.49-38.53.27-42.11C3.7,17.74,12.44,14.26,10.93,6.88l-1.74-.1.02-.64,10.15.1v.54l-1.55.1c-1.93,8.09,7.48,11.17,9.53,19.34.83,5.31.83,14.95.69,33.79Z"/><path class="f" d="m17.97,6.18h-7.08V.68c-.4-.45,7.5-.37,7.08,0v5.5Z"/><path class="g" d="m14.52,66.76c4.93,0,13.23-.54,13.23-.54-.57,10.85-2.16,14.16-4.85,14.16s-.9-2.63-3.59-2.63-1.99,2.53-4.69,2.53-1.7-2.72-4.39-2.72-1.2,2.72-4.39,2.72c-2.99,0-5.14-3.95-5.14-14.07,0,0,8.88.55,13.81.55Z"/><path class="l" d="m27.05,25.7c1.13,1.42,1.57,33.57.9,35.44-2.4.9-24.16.67-27.44-.08-.22-2.54-.3-31.92.74-35.36,2.24-1.05,23.93-.75,25.8,0Z"/><path class="j" d="m27.96,61.14c-2.4.9-24.16.67-27.44-.08-.22-2.54-.3-31.92.74-35.36,2.24-1.05,23.93-.75,25.8,0,1.13,1.42,1.57,33.57.9,35.44Z"/><path class="d" d="m.69,32.3c5.69-1.42,8.39,2.18,12.12,4.33,7.05,4.07,14.59,5.56,15.39,5.75.08,1.91.08,3.68,0,5.57-17.92,1.42-15.66-9.51-27.59-14.11l.07-1.55Z"/><path class="b" d="m24.98,33.4c5.01,6.94-15.33,21.32-20.2,14.27-5.01-6.94,15.33-21.32,20.2-14.27Z"/><text class="h" transform="translate(14.79 44.99) scale(1.14 1)"><tspan x="0" y="0">!</tspan></text><polygon class="c" points="10.83 46.93 9.49 44.44 6.67 44.13 8.63 42.08 8.05 39.31 10.61 40.54 13.06 39.13 12.68 41.94 14.78 43.84 11.99 44.35 10.83 46.93"/><path class="e" d="m10.33,12.21c.77-2.58.6-5.38.6-5.38l-1.74-.1.02-.64,10.15.09v.54l-1.54.1s-.3,2.82.35,5.43"/><path class="i" d="m12.69,16.24c.12.7-.95,1.02-2.19,2.6-2.8,3.39-.81,4.82-4.85,2.69-.49-.71,4.38-5.85,5.17-5.96.33-.49,1.53.61,1.87.68Z"/></svg>