<?xml version="1.0" encoding="UTF-8"?><svg id="a" xmlns="http://www.w3.org/2000/svg" width="78.7" height="26.8" xmlns:xlink="http://www.w3.org/1999/xlink" viewBox="0 0 78.7 26.8"><defs><style>.c{fill:url(#b);}.c,.d{stroke:#000;stroke-width:.8px;}.d{fill:none;}</style><linearGradient id="b" x1=".4" y1="13.4" x2="78.2" y2="13.4" gradientUnits="userSpaceOnUse"><stop offset="0" stop-color="#9c9ea1"/><stop offset=".2" stop-color="#bdbfc1"/><stop offset=".6" stop-color="#626366"/><stop offset="1" stop-color="#000"/></linearGradient></defs><path class="c" d="m78.2,22c0,2.4-1.4,4.4-6.5,4.4H6.9c-5.1,0-6.5-2-6.5-4.4V4.7C.4,2.3,1.8.4,6.9.4h64.8c5.1,0,6.5,2,6.5,4.4v17.3Z"/><polyline class="d" points=".8 3.4 2.4 5.4 4.1 5.4 5.7 3.4 7.4 3.4 9 5.4 10.7 5.4 12.3 3.4 14 3.4 15.6 5.4 17.3 5.4 18.9 3.4 20.6 3.4 22.2 5.4 23.9 5.4 25.5 3.4 27.2 3.4 28.8 5.4 30.5 5.4 32.1 3.4 33.8 3.4 35.4 5.4 37.1 5.4 38.8 3.4 40.4 3.4 42.1 5.4 43.7 5.4 45.4 3.4 47 3.4 48.7 5.4 50.3 5.4 52 3.4 53.6 3.4 55.3 5.4 56.9 5.4 58.6 3.4 60.2 3.4 61.9 5.4 63.5 5.4 65.2 3.4 66.8 3.4 68.5 5.4 70.1 5.4 71.8 3.4 73.4 3.4 75.1 5.4 76.7 5.4 78.4 3.4"/><polyline class="d" points=".6 8.5 2.3 10.5 3.9 10.5 5.6 8.5 7.2 8.5 8.9 10.5 10.5 10.5 12.2 8.5 13.8 8.5 15.5 10.5 17.1 10.5 18.8 8.5 20.4 8.5 22.1 10.5 23.7 10.5 25.4 8.5 27.1 8.5 28.7 10.5 30.4 10.5 32 8.5 33.7 8.5 35.3 10.5 37 10.5 38.6 8.5 40.3 8.5 41.9 10.5 43.6 10.5 45.2 8.5 46.9 8.5 48.5 10.5 50.2 10.5 51.8 8.5 53.5 8.5 55.1 10.5 56.8 10.5 58.4 8.5 60.1 8.5 61.7 10.5 63.4 10.5 65 8.5 66.7 8.5 68.4 10.5 70 10.5 71.7 8.5 73.3 8.5 75 10.5 76.6 10.5 78.3 8.5"/><polyline class="d" points=".5 13.3 2.1 15.4 3.8 15.4 5.4 13.3 7.1 13.3 8.7 15.4 10.4 15.4 12.1 13.3 13.7 13.3 15.4 15.4 17 15.4 18.7 13.3 20.3 13.3 22 15.4 23.6 15.4 25.3 13.3 26.9 13.3 28.6 15.4 30.2 15.4 31.9 13.3 33.5 13.3 35.2 15.4 36.8 15.4 38.5 13.3 40.1 13.3 41.8 15.4 43.4 15.4 45.1 13.3 46.7 13.3 48.4 15.4 50 15.4 51.7 13.3 53.3 13.3 55 15.4 56.7 15.4 58.3 13.3 60 13.3 61.6 15.4 63.3 15.4 64.9 13.3 66.6 13.3 68.2 15.4 69.9 15.4 71.5 13.3 73.2 13.3 74.8 15.4 76.5 15.4 78.1 13.3"/><polyline class="d" points=".5 18.2 2.1 20.2 3.8 20.2 5.4 18.2 7.1 18.2 8.7 20.2 10.4 20.2 12.1 18.2 13.7 18.2 15.4 20.2 17 20.2 18.7 18.2 20.3 18.2 22 20.2 23.6 20.2 25.3 18.2 26.9 18.2 28.6 20.2 30.2 20.2 31.9 18.2 33.5 18.2 35.2 20.2 36.8 20.2 38.5 18.2 40.1 18.2 41.8 20.2 43.4 20.2 45.1 18.2 46.7 18.2 48.4 20.2 50 20.2 51.7 18.2 53.3 18.2 55 20.2 56.7 20.2 58.3 18.2 60 18.2 61.6 20.2 63.3 20.2 64.9 18.2 66.6 18.2 68.2 20.2 69.9 20.2 71.5 18.2 73.2 18.2 74.8 20.2 76.5 20.2 78.1 18.2"/><polyline class="d" points=".5 22.7 2.1 24.7 3.8 24.7 5.4 22.7 7.1 22.7 8.7 24.7 10.4 24.7 12.1 22.7 13.7 22.7 15.4 24.7 17 24.7 18.7 22.7 20.3 22.7 22 24.7 23.6 24.7 25.3 22.7 26.9 22.7 28.6 24.7 30.2 24.7 31.9 22.7 33.5 22.7 35.2 24.7 36.8 24.7 38.5 22.7 40.1 22.7 41.8 24.7 43.4 24.7 45.1 22.7 46.7 22.7 48.4 24.7 50 24.7 51.7 22.7 53.3 22.7 55 24.7 56.7 24.7 58.3 22.7 60 22.7 61.6 24.7 63.3 24.7 64.9 22.7 66.6 22.7 68.2 24.7 69.9 24.7 71.5 22.7 73.2 22.7 74.8 24.7 76.5 24.7 78.1 22.7"/></svg>