<?xml version="1.0" encoding="UTF-8"?><svg id="Africa" xmlns="http://www.w3.org/2000/svg" width="125.7" height="299" viewBox="0 0 125.7 299"><defs><style>.cls-1{stroke-linecap:round;stroke-linejoin:round;}.cls-1,.cls-2{fill:none;stroke:#010101;}.cls-2{stroke-miterlimit:10;}.cls-3{fill:#51b248;}.cls-3,.cls-4,.cls-5,.cls-6,.cls-7,.cls-8,.cls-9,.cls-10,.cls-11,.cls-12,.cls-13,.cls-14{stroke-width:0px;}.cls-4{fill:#2a4b85;}.cls-5{fill:#292b4c;}.cls-6{fill:#292b4a;}.cls-7{fill:#404250;}.cls-8{fill:#202128;}.cls-9{fill:#1f170f;}.cls-10{fill:#242c63;}.cls-11{fill:#cda581;}.cls-12{fill:#fff;}.cls-13{fill:#f4f4f4;}.cls-14{fill:#040303;}</style></defs><path class="cls-5" d="m68.2,74.2c.8.2,3.2.9,6,1.6-3.9,14.6-26.8,18.4-29.3-.7,1.5-.3,2.7-.4,3.6-.4,1,10.6,20.4,8.7,19.8-.5Z"/><path class="cls-4" d="m30.3,166c1.3-14.6,1.6-36.6,1.8-50.5,12,3.4,33.5,2.8,50.1,0-.1,4.8.6,19.4.9,24-2.6.6-4.7,1.6-4,4.7-2,2.1-3.8,4.6.7,5.7-.9,2.1.7,3.6,2,3.8-1.3,1.7,1.1,3,2.2,3,0,1.6.8,2.1,2,2,.1.6.3,1.7.5,3.2-15.2,17.3-51.3,8.4-56.3,4.2Z"/><path class="cls-13" d="m82.2,115.5c-16.7,2.8-38.1,3.4-50.1,0,.2-4.8-.9-9.1-.8-13.4,10.6,3.4,34.9,4.2,51.3-.1h0c.1,0,.2.2.3.3-.1,1.4-.5,10.9-.7,13.2Z"/><path class="cls-3" d="m22.3,147.1c-6.4-11.2-15.6-23.7-13.6-30.2,10-14,17.7-40.6,36-41.9,2.5,19.2,25.4,15.3,29.3.7,4.4,1.2,9.7,2.6,10.8,3.1,8.8,5.2,25.4,29.8,32,37.6,2.2,7.9-8.2,20.8-14.4,27.5-3.5-2.2-9.6-7-11.7-10.5,3.3-6.1,9.8-15.3,8.9-15-3-3.3-12-11.2-17.2-16.6h0c-16.3,4.4-40.6,3.6-51.3.2,0,2.9.4,5,.7,8.5h0c-1.2,1.4-7.8,7-9.8,10.7,5.7,8.6,10.6,12.5,9.6,18.5-2.1,3.1-5.9,5.8-9.3,7.4Z"/><path class="cls-14" d="m40.5,38.4c1.9,0,1.9,6,0,5.9-1.9,0-1.9-6,0-5.9Z"/><path class="cls-14" d="m59.8,41.6c0-4.4,3.7-4.4,3.7,0,0,4.4-3.7,4.4-3.7,0Z"/><path class="cls-12" d="m45.3,61c4.7,1,12.8-1.3,17.3-3.1.9,2.1-13.5,9.8-17.3,3.2h0Z"/><path class="cls-11" d="m25.1,151.2c.4,3.3,2,7.6,5.8,7.6.2-4.2.5-9.1.6-14.2-1.2,2.3-4.2,4.9-6.4,6.6Z"/><path class="cls-11" d="m78.7,51.2c4.6.4,6.2-6.3,6.4-10,.3-3.5-3.5-7.7-5.7-3.5h0c-3.3,6.1-5.5-9.1-8.2-12.5-6-11.8-19-13.2-29.4-8.3-4.9,2.5-11.4,13.3-10.1,20.6-6.4-1.4-4.8,16,.2,14.5,2.6,10.8,8.9,16.1,16.4,20.5-1.5,11.9,18.4,12.2,19.8,3,.2-3.2.5-5.5.5-9.6,3.3-2.5,9-7.1,10.1-14.7Zm-22.1-20c2.5-1.6,11.4,0,11.9,1.2-1.3,3.3-9.3,1.7-11.6,2-.8-.1-.5-3-.3-3.2Zm6.9,10.4c0,4.4-3.7,4.4-3.7,0,0-4.4,3.7-4.4,3.7,0Zm-23,2.8c-1.9,0-1.9-6,0-5.9,1.9,0,1.9,6,0,5.9Zm4.3-10.4c-1.2.7-11.4,1.9-9.3-1.1,1.3-2.2,13.8-3.5,9.3,1.1Zm.6,27.2h0c4.7.9,12.8-1.4,17.3-3.2.9,2.1-13.5,9.8-17.3,3.2Z"/><path class="cls-11" d="m89,138.4c-3.2,1.1-11,.1-9.9,5.7-2,2.1-3.8,4.6.7,5.7-.9,2.1.7,3.6,2,3.8-1.3,1.7,1.1,3,2.2,3,.7,6.5,13.7-4.3,12.6-8.4-2.3-1.1-5.5-6.2-7.7-9.9Z"/><path class="cls-5" d="m31.5,144.6c-1.4,2.5-4.5,5.1-6.8,6.9-.7-1.4-1.5-2.9-2.4-4.4,3.5-1.5,7.2-4.3,9.3-7.4,0,1.6,0,3.2-.2,4.8Z"/><path class="cls-8" d="m10.8,292.2c0-.8,0-1.9.9-2.4,1,4.2,9.3,3.9,12.3,3.2l.3,1.9c-3.9.8-12.9,1.9-13.5-2.7Z"/><path class="cls-8" d="m30,293.4c-1.3.5-3.3,1-5.7,1.4l-.3-1.9c.9-.2,1.7-.4,2.5-.6h0c4.8-1.4,7.6-4.1,10.8-4.8,6.1,0,7.8-.8,9.3-3.1.1,0,1.6.5,0,3.1-1.6,2.5-9.4,2.5-10.2,2.7-.7.1-4,2.3-6.5,3.2Z"/><path class="cls-10" d="m104.4,274.9c-7.2,3.6-20.9,6-29.3,5.3,0,0-10.9-70.6-16-95.2,0,3.9-9.2,89.4-9.3,92.8-11.8,4.3-21.5,1.1-31-2.3,0-7.3,10.4-102.7,11.5-109.5,5,4.2,41.1,13.1,56.3-4.2,3.3,19.9,17.7,113.1,17.7,113.1Z"/><path class="cls-8" d="m83.2,283c-.2-.7-.5-1.9.2-2.9,2.6,8.7,8.1,18.3,19,15.5,5.2-1.5,6.7-3.3,6-5.6l.5.4c1.4,4.6-.2,6.5-6.5,8.1-6,1.8-10.9-1.6-13.5-4.8-4.4-5.6-3.7-6.7-5.8-10.8Z"/><path class="cls-9" d="m45.4,31.3c1.3,1.5-1.6,3.6-3.3,3.2-1.8-.5-8,1.6-6.7-1.7,1.7-2.1,7.9-2.3,10-1.5Z"/><path class="cls-7" d="m108.7,290.8c-1.1-5-7-8.9-9.7-13.8-4.3,1.2-10.3,2.5-15.6,3,2.6,8.7,8.1,18.3,19,15.6,4.9-1.3,6.3-3.3,6.2-4.8Z"/><path class="cls-7" d="m46.8,278.6c-9,2.4-15.9.8-22-1.1l-8.5,3.6h0c-4.6,1.1-4.7,7.1-4.7,8.5,1.4,5.4,11,4.1,14.9,2.8h0c4.8-1.4,7.6-4.1,10.8-4.8,9.4,0,9.6-2.2,9.6-8.9Z"/><path class="cls-9" d="m56.9,34.3c-3.9-6.4,11.1-3.3,11.6-2-1.3,3.3-9.3,1.7-11.6,2Z"/><path class="cls-6" d="m90.8,133.4c2.1,3.6,8.2,8.3,11.7,10.5-3,2.6-3.3,5-5.8,4.3-2.3-1.1-5.5-6.2-7.7-9.9-.4-.6.5-2.5,1.8-5Z"/><path class="cls-9" d="m83,22.3c-.7,3.3,2.2,9.4-.6,13.7-1.1-.3-2.4.3-2.9,1.7h0c-3.3,6.1-5.5-9.1-8.2-12.5-6-11.8-19-13.2-29.4-8.3-4.9,2.5-11.4,13.3-10.1,20.6-.6,0-1.1-.1-1.9.2-2.2-1.7-2.6-12.3,0-16.2,1.2-1.8,2-7.7,2.8-9.7,2.3-5.7,6.3-4.4,9.3-7.2,2.2-2,5.8-3.2,8.5-2.3,6,2.8,12.5-4.4,16,.8,4.9,5.7,11.6,1.4,12.9,11.3.5,3.1,4.4,3.9,3.5,7.8Z"/><path class="cls-2" d="m48.3,72.4c-1.5,11.9,18.4,12.2,19.8,3"/><path class="cls-2" d="m48.3,74.7c-20.9-.9-29,27.1-39.5,42.3-2.5,7.1,10.4,23.4,15.9,34.5"/><path class="cls-2" d="m68.1,74.1c3,.9,15.2,4,16.8,4.7,8.8,5.2,25.4,29.9,32,37.6,2.2,7.9-8.2,20.8-14.4,27.5-3,2.6-3.3,5-5.8,4.3-2.3-1.1-5.5-6.2-7.7-9.9-.1-4.5,12.2-20.5,10.7-20-3.8-4.1-15.3-13.8-20.3-20"/><path class="cls-2" d="m32.1,95.9c-1.8,7.2.1,12.2,0,19.6-.1,13.9-.5,35.9-1.8,50.5,5,4.2,41.1,13.1,56.3-4.2"/><path class="cls-2" d="m82.9,102.2c-.9,10-.6,27.2.3,37.5"/><path class="cls-2" d="m31.9,110.6c-1.2,1.4-7.9,7.1-9.8,10.8"/><path class="cls-2" d="m19.8,118.4c3.9,4.3,11.5,16,12,17.1"/><path class="cls-2" d="m81.4,141.8c-1.8,2.1-7.9,6.5-1.6,8-.9,2.1.7,3.6,2,3.8-1.3,1.7,1.1,3,2.2,3,.7,6.5,13.7-4.3,12.6-8.4"/><path class="cls-2" d="m89,138.4c-3.2,1.1-11.1.1-9.9,5.8"/><path class="cls-2" d="m46.8,278.6c1-.3,1.9-.5,2.9-.9,0-3.4,9.3-88.9,9.3-92.8"/><path class="cls-1" d="m24.8,277.5c6.1,2,13,3.5,22,1.1"/><path class="cls-2" d="m30.3,166c-1.1,6.7-11.5,102.2-11.5,109.5,1.9.6,3.9,1.3,6,2"/><path class="cls-2" d="m57,176.8c6.2,23.6,17.5,101.8,18,103.4,8.5.8,22.2-1.7,29.3-5.3-.3-2.3-14.8-95.2-18.3-116.5"/><path class="cls-2" d="m74.1,75.8c-3.9,14.3-26.4,18.5-29.3-.4"/><path class="cls-1" d="m68.1,75.4c.2-3.2.5-5.5.5-9.6"/><path class="cls-1" d="m31.5,33.5c-.9,18.7,0,29.6,16.8,39,7.2,5.4,28.3-8.6,30.4-21.2"/><path class="cls-1" d="m36.4,32.1c1.5-1.3,7.6-1.4,9-.7,1.3,1.5-1.6,3.6-3.3,3.2-1.9,0-10.2,1.1-5.8-2.5Z"/><path class="cls-1" d="m56.6,31.1c2.5-1.6,11.4,0,11.9,1.2-1.3,3.3-9.3,1.7-11.6,2-.8-.1-.5-3-.3-3.2Z"/><path class="cls-1" d="m42,41.4c0,3.8-3,3.8-3,0,0-3.8,3-3.8,3,0Z"/><path class="cls-1" d="m63.5,41.6c0,4.4-3.7,4.4-3.7,0,0-4.4,3.7-4.4,3.7,0Z"/><path class="cls-1" d="m46.2,51.6c-1.3,3.2,1.7,3.9,6.1,3.7"/><path class="cls-1" d="m44.8,60.9c4.9,1.3,13.1-1.1,17.8-3,.9,2.1-13.5,9.8-17.3,3.2"/><path class="cls-1" d="m29.8,37.7c-2.2-1.7-2.6-12.3,0-16.2,1.2-1.8,2-7.7,2.8-9.7,2.3-5.7,6.3-4.4,9.3-7.2,4.3-5,11.5,0,15.9-2.3,8.5-4.3,9.1,4.7,15.8,4.6,2.5,0,5.1,2.8,5.8,7.5.5,3.1,4.4,3.9,3.5,7.8-.7,3.2,2.2,9.4-.6,13.6"/><path class="cls-1" d="m79.3,37.9c1.9-4.5,6.2-.5,5.8,3.2,0,3.8-3,12.9-7.8,9.1"/><path class="cls-1" d="m31.3,37.5c-6-.7-4.3,15.9.6,14.5"/><path class="cls-1" d="m79.4,37.7c-3.3,6.1-5.5-9.1-8.2-12.5-4.5-7.6-11.1-12.1-19.1-10.6-11.6-.4-18.5,8.2-20.7,20.1"/><path class="cls-2" d="m102.5,144c-3.5-2.2-9.6-7-11.7-10.5"/><path class="cls-2" d="m24.7,151.5c2.4-1.8,5.5-4.4,6.8-6.9,0,0,0,0,0,0"/><path class="cls-2" d="m22,147.3c3.7-1.6,7.6-4.4,9.8-7.7"/><path class="cls-2" d="m82.5,101.9c-16.6,4.4-40.8,3.6-51.7,0"/><path class="cls-2" d="m82.2,115.5c-16.9,2.8-38.3,3.4-50.6-.1"/><path class="cls-2" d="m25,150.8c.4,3.4,1.9,8,5.9,8"/><path class="cls-1" d="m106.9,287c-1.4-2.7-6.3-6.7-8-10"/><path class="cls-1" d="m108.5,290.1c-.2-.7-.8-1.7-1.5-2.9"/><path class="cls-1" d="m83.5,280.1c2.6,8.7,8.1,18.3,19,15.5,5.2-1.5,6.7-3.3,6-5.6"/><path class="cls-1" d="m89.6,291.8c.3-7.5,12.7-11.6,17.4-4.6"/><path class="cls-1" d="m108.5,290.1s.5.4.5.4c1.4,4.6-.2,6.5-6.5,8.1-6,1.8-10.9-1.6-13.5-4.8-2.9-3.5-7.3-12.1-5.5-13.8"/><path class="cls-1" d="m46.9,278.7c-.1,6.8-.1,8.8-9.6,8.8-3.2.7-6,3.4-10.8,4.8h0c-3.8,1.2-13.5,2.6-14.9-2.8,0-1.4.1-7.4,4.7-8.5,6-1.3,11.6,4,10.2,11.3"/><path class="cls-1" d="m25,277.4c-.2.1-8.5,3.5-8.7,3.6"/><path class="cls-1" d="m11.6,289.8c-2.5,3,.5,5.8,5.4,5.8,6.3.2,15.1-2.6,19.5-5.4.7-.1,8.6-.1,10.2-2.7,1.6-2.5,0-3.1,0-3.1"/></svg>