<?xml version="1.0" encoding="UTF-8"?><svg id="Africa" xmlns="http://www.w3.org/2000/svg" width="154" height="394" viewBox="0 0 154 394"><defs><style>.cls-1{stroke-linecap:round;stroke-linejoin:round;}.cls-1,.cls-2{fill:none;stroke:#010101;}.cls-2{stroke-miterlimit:10;}.cls-3{fill:#f8c041;}.cls-3,.cls-4,.cls-5,.cls-6,.cls-7,.cls-8,.cls-9,.cls-10{stroke-width:0px;}.cls-4{fill:#34312d;}.cls-5{fill:#454139;}.cls-6{fill:#b7884a;}.cls-7{fill:#73533f;}.cls-8{fill:#fff;}.cls-9{fill:#fcb316;}.cls-10{fill:#010101;}</style></defs><path class="cls-3" d="m128.7,184c-3.4-6.2-6-11.8-8.8-17.1.9.3,3.3-6.5,5.6-12.8,5.5,3.9,14.6,13.5,20.1,17.4-3,10.5-6.9,20.4-8.8,23.7-2.3-1.6-5.3-6.1-8.1-11.2Z"/><path class="cls-4" d="m44.7,41.2c0,3.3.1,5.1,1,9.4,0,0-2,6.6.5,13.3,9.1,19,17.6,37.2,43.1,13.4h0c12.7-13.3,10.7-41.8,0-51.1-14.2-7.6-45.1-8.1-44.6,15Zm90.6,78.2c3.5,4.9-4,5.9-7.3,4.3-8.6-3.2-15.1-1.5-22.1-.8-19.1,3.6-22.7-11.8-36-16.6-2.9.2-7.1,1.8-9.3,3.6-7.7,6.2-11.4,5.7-17,9.2-4.8,3-22.3,11.9-28.2,10.5-2.9-14.4,12.8-27,23.9-33.7,1.7-.9,5.1-3.9,6.3-5.4,4.5-9.2-13-20.8-9.5-42.1-.3-35.5,32.8-59.6,58.5-40.5,15.4,12.9,22.6,35.2,15.9,54.4-1.8,8.1-16.7,22.5-12.3,26.5,7.9,9.9,31.5,19.4,36.8,30.8Z"/><path class="cls-7" d="m101.6,183.5c-1.3-7,11.3-6.3,15.9-7.8h.1c1.5-1.6,2.8-3.4,4-5.3,1.8,3.7,4.4,8.9,7,13.7-1.8,3.1,0,0-2.4,2.7,3.2,5.8-16.5,20.1-17.8,12-1.6,0-4.9-1.6-3.1-3.7-1.9-.3-4-2.1-2.8-4.7-6.2-1.3-3.7-4.4-.9-6.9Z"/><path class="cls-6" d="m112.7,317.7c0,11.8,10.7,66.8,9.9,67.5-14.4,11.8-74.9,12.2-96.5,0,1.4-9.8,9.8-55.6,10-64.4.7-24.9-10.1-64.5-5.4-102.1,6.6,2.4,15.9,3.8,27.1,4.3,11.6-39.7,8.6-32.6,14.7.5,16.4-.1,32.2-2.2,43.8-6,5.9,27.6-3.4,79.7-3.5,100.2Z"/><path class="cls-9" d="m30.9,198.9c4.7-10.3,12.9-29.8,14.8-35.2,20.2,5.6,35.2,4.4,55.5-1.6,0,0,4.2,10.4,8,15-4.6.9-8.7,2.4-7.7,6.4-2.8,2.5-5.3,5.6.9,6.9-1.2,2.6.9,4.4,2.8,4.7-1.8,2,1.6,3.7,3.1,3.7-.2,3.6,4.1,2.5,7.7.8q3.3,6.4,7,15.3c-14.9,6.4-30.9,8.2-50.7,8.6-6.1-33.4-3.2-39.9-14.7-.5-14.7-1.1-24.5-1.6-34.2-8.1,2.7-5.7,5.2-11,7.4-15.9Z"/><path class="cls-4" d="m121.1,139.7c-3.9,2.6-6.9,7.6-12.3,7.3-1.4,0-3.1,0-4.1.8,1.8-5.8,3.8-12.7,5-20.1,3.4,3.6,7.8,8,11.5,12Z"/><path class="cls-9" d="m149,142.3c-2-3.1-4.9-11.5-13.7-22.9,3.5,4.9-4,5.9-7.3,4.3-8.6-3.2-15.1-1.5-22.1-.8-19.1,3.6-22.7-11.8-36-16.6-2.9.2-7.1,1.8-9.3,3.6-7.7,6.2-11.4,5.7-17,9.2-4.8,3-22.3,11.9-28.2,10.5-16.2,27.9-11.2,24.9-5.8,46.7,5.7-3.4,11.6-10.6,15.9-15.7-.6-1.6-1.3-3.4-2.3-5.5h0c2.5-3.7,11.1-16.3,13.8-18.9-.4,7.3,3.2,14.5,6.3,21.3h.2c18.1,4.8,41.1,3.8,58.6-1.4,2.4-9.2,5.7-17.7,7.4-28.3,5,5.4,14.8,14.6,18.3,20.2-.8,1.8-1.6,4-2.4,6.2,5.5,3.9,14.6,13.5,20.1,17.4,3.6-12.3,6.1-25.4,3.4-29.2Z"/><path class="cls-5" d="m101.3,156h1c-.6,2.4-1,4.5-1,6.1-20.3,6-35.4,7.2-55.5,1.6-.8-2.5-1.6-4.6-2.3-6.3h.2c17.7,4.4,40.6,4.4,57.6-1.4Z"/><path class="cls-7" d="m97.2,40.6c.8,10.2,3.3,24.3-7.8,36.7h0c-20.1,18.8-27.6,10.4-34.8,1.7-4.4-4-12.4-21.8-8.8-28.5-2.4-10-1-19.2,6.6-25.4,5.6-5.2,31.3-4,37,1,3.7,3.2,6.8,9.5,7.9,14.4Zm-8.4,1.8c-5.6-7.3-15.4-.6-11.7.3,1.8-1,8.7-1.6,11.7-.3Zm-4.3,7c0-5.5-4.5-5.4-4.5,0,0,5.5,4.5,5.5,4.5,0Zm-7.5,24.1c2.1-1.7,2-.7,4.4-5.1-1.2,1.5-13.4,5.3-19.8,2.7,2.8,6.1,10.3,6.4,15.3,2.4Zm-15.9-31.2c1.2.1.5-1.6-1.6-2.9-3-2-7.9,1.4-8.7,3.1,2.6-.3,7.6-2,10.3-.3Zm-3.3,7.1c0-4.7-3.7-4.8-3.7,0,0,4.8,3.7,4.7,3.7,0Z"/><path class="cls-10" d="m84.3,39.4c1.9.5,4.7,2.8,4.5,3.1-3-1.3-10-.7-11.7.3-1.5.2-.9-1.6,1.4-3,1.7-1,4.4-.7,5.8-.3Z"/><path class="cls-10" d="m82.3,45.3c2.9-.1,2.9,8.5,0,8.4-2.9.1-2.9-8.5,0-8.4Z"/><path class="cls-8" d="m81.4,68.5c-4.1,8.3-15.5,11.1-19.8,2.7,6.4,2.6,18.6-1.2,19.8-2.7Z"/><path class="cls-10" d="m59.5,39.6c2.1,1.3,2.9,3,1.6,2.9-1.1,0-2.2-1.4-5.5-.7-1.8.4-4.7,1.1-4.8.9.8-1.7,5.7-5.2,8.7-3.1Z"/><path class="cls-10" d="m56,45.8c2.4-.1,2.4,7.4,0,7.3-2.4.1-2.4-7.4,0-7.3Z"/><path class="cls-4" d="m38,144.1c.7,3.3,1.8,5.4,3.2,8.4-4.6,0-9.2-1.9-12.7-5,3.1-4.5,6.8-9.5,8.6-11.4,0,2.4.2,4.8.9,7.9Z"/><path class="cls-7" d="m40.2,177.7c-2.3,5.6-5.4,12.8-9.2,21.2-2.4-1.7-6-6.4-7-10.5,3.1-6,5.9-12.5,7.7-15.9,1.7,3.5,5.2,3.7,8.6,5.1Z"/><path class="cls-3" d="m25.6,160.6c1.7,4.5,2.6,7.8,5.9,12-3.2,5.9-9.7,23.2-16,27.5-2.4-4.7-3.5-15.1-5.8-23.8,5.7-3.4,11.6-10.6,15.9-15.7Z"/><path class="cls-2" d="m116.2,175.9s0,.1,0,.1"/><path class="cls-2" d="m37.7,126.9c-2.7,13.9,3.2,24.1,8.1,36.8-4.2,11.3-15.2,36.6-22.2,51.1"/><path class="cls-2" d="m109.6,127.7c-1.7,12.7-7.1,22.8-8.3,34.4,0,0,4.2,10.4,8,15"/><path class="cls-2" d="m15.5,129.6c-11.3,19.9-6.5,11.5-7.7,14.2-1.9,4.4-4,11.7-3.5,14.6"/><path class="cls-2" d="m37.1,136.1c-2.6,2.6-11.3,15.2-13.8,18.9"/><path class="cls-2" d="m20.4,149.5c5.2,7.9,5.4,15.5,11.2,23.1"/><path class="cls-2" d="m106,123.8c1,1.1,2.2,2.4,3.6,3.9h0c5,5.5,14.9,14.6,18.3,20.4"/><path class="cls-2" d="m135.3,119.4c8.8,11.5,11.7,19.8,13.7,22.9"/><path class="cls-2" d="m104.7,180.7c-2.5,2.6-10.9,7.9-2.2,9.7-1.2,2.6.9,4.4,2.8,4.7-1.8,2,1.6,3.7,3.1,3.7,1.3,8.2,21.7-6.6,17.7-12.4"/><path class="cls-2" d="m117.5,175.7c-4.7,1.5-17.3.8-15.9,7.8"/><path class="cls-2" d="m123.1,214.9q-3.6-8.9-7-15.3"/><path class="cls-2" d="m30.5,219c-4.2,37.7,6.1,76.8,5.5,101.7-.2,8.9-8.5,54.7-10,64.4,21.6,12.2,82.1,11.8,96.5,0,.9-.7-10-55.7-9.9-67.5.2-20.5,9.4-72.6,3.5-100.2"/><path class="cls-2" d="m136.8,195.3c4.3-7.2,17.2-45.8,12.2-52.9"/><path class="cls-2" d="m130,144.1c-3.3,3.9-7.8,22.3-10.1,22.9"/><path class="cls-2" d="m3.9,157.3c6.2,14.7,7.4,31.4,11.6,42.8"/><path class="cls-2" d="m43.6,157.4c17.7,4.5,40.6,4.5,57.6-1.3"/><path class="cls-2" d="m72.4,223.5c19.8-.4,35.8-2.2,50.7-8.6"/><path class="cls-2" d="m23.5,214.9c9.7,6.5,19.5,7,34.2,8.1"/><path class="cls-2" d="m23.9,188.4c1.4,4.6,4.8,9.5,8.2,11.1"/><path class="cls-2" d="m34,175.4c1.7,1.1,4.8,1.5,6.7,2.6"/><path class="cls-2" d="m101.3,162.1c-20.3,6-35.4,7.2-55.5,1.6"/><path class="cls-2" d="m119.9,167c4.1,7.5,10.5,23,16.8,28.3"/><path class="cls-2" d="m31.5,172.6c-3.2,5.9-9.7,23.2-16,27.5"/><path class="cls-2" d="m125.5,154.2c5.5,3.9,14.6,13.5,20.1,17.4"/><path class="cls-2" d="m25.6,160.6c-4.3,5.1-10.2,12.3-15.9,15.7"/><path class="cls-1" d="m44.7,41.2c0,3.3.1,5.1,1,9.4,0,0-2,6.6.5,13.3,9.1,19,17.6,37.2,43.1,13.4"/><path class="cls-1" d="m44.8,39.7c0,.6,0,1.1,0,1.6"/><path class="cls-1" d="m97.8,50.6c.1,3.8.4,19.1-8.9,27.2"/><path class="cls-1" d="m97.8,50.6c.7-8.7-2-18.3-8.5-24.4-14.2-7.7-45.2-8.1-44.6,15"/><path class="cls-2" d="m128.7,184c-1.7,3.1,0,0-2.4,2.7"/><path class="cls-2" d="m121.8,170.2c-1.3,2.2-2.8,4.2-4.5,6.1"/><path class="cls-2" d="m34,175.4c-1.9-1.1-1-1.2-2.5-2.8"/><path class="cls-2" d="m44.7,18.9c38.2-50.3,87.3,15.7,61.4,52.6-6,8.9-10.2,13.8-7.6,17.1,7.9,9.9,31.5,19.4,36.8,30.8,3.5,5-4,5.9-7.3,4.3-8.6-3.2-15.1-1.5-22.1-.8-19.1,3.6-22.7-11.7-36-16.6-2.9.2-7.1,1.8-9.3,3.6-7.7,6.2-11.4,5.7-17,9.2-4.8,3-22.3,11.9-28.2,10.5-2.9-14.4,12.8-27,23.9-33.7,12.8-6.7,5.4-15,0-25.2-6.4-16.3-3.7-36.9,5.2-51.8"/><path class="cls-2" d="m72.4,223.5c-6.1-33.4-3.2-39.9-14.7-.5"/><path class="cls-2" d="m121.7,139.5c-4.5,2.1-7.2,7.9-13,7.5-1.6,0-3.4,0-4.4,1.1"/><path class="cls-2" d="m41.5,152.5c-4.8,0-9.6-2-13.2-5.2"/><path class="cls-1" d="m57.8,49.5c0,4.7-3.7,4.8-3.7,0,0-4.8,3.7-4.7,3.7,0Z"/><path class="cls-1" d="m84.5,49.5c0,5.5-4.5,5.5-4.5,0,0-5.4,4.5-5.5,4.5,0Z"/><path class="cls-1" d="m62.4,57c-4.6,9.9,8.9,8.5,10.9,7.2"/><path class="cls-1" d="m61.7,71.2c6.4,2.6,18.6-1.2,19.8-2.7-4.1,8.3-15.5,11.1-19.8,2.7Z"/><path class="cls-1" d="m54.8,39.4c-1.4.5-4.2,3.1-4,3.3,2.6-.3,7.6-2,10.3-.3,1.2.1.5-1.6-1.6-2.9-1.5-.9-3.6-.5-4.7-.1Z"/><path class="cls-1" d="m84.3,39.4c1.9.5,4.7,2.8,4.5,3.1-3-1.3-10-.7-11.7.3-1.5.2-.9-1.6,1.4-3,1.7-1,4.4-.7,5.8-.3Z"/></svg>