<?xml version="1.0" encoding="UTF-8"?><svg id="Africa" xmlns="http://www.w3.org/2000/svg" width="125.4" height="302" viewBox="0 0 125.4 302"><defs><style>.cls-1{stroke-linecap:round;stroke-linejoin:round;}.cls-1,.cls-2{fill:none;stroke:#010101;}.cls-2{stroke-miterlimit:10;}.cls-3{fill:#55ab80;}.cls-3,.cls-4,.cls-5,.cls-6,.cls-7,.cls-8,.cls-9,.cls-10,.cls-11,.cls-12,.cls-13{stroke-width:0px;}.cls-4{fill:#e1a739;}.cls-5{fill:#d9d8d7;}.cls-6{fill:#af877b;}.cls-7{fill:#a97b80;}.cls-8{fill:#332a21;}.cls-9{fill:#6c5b64;}.cls-10{fill:#fff;}.cls-11{fill:#ea80ac;}.cls-12{fill:#ffd06a;}.cls-13{fill:#010101;}</style></defs><path class="cls-11" d="m103,117.9c-1-.9-6.4-7.6-8.2-8.8,4-2.1,9.3-5.5,12.1-8.3,18,20.2,4.8,27.8-11.1,42.3-.3-3-3.3-6.2-6.1-7.2h0c7.1-3.5,8.3-13.6,13.2-18Z"/><path class="cls-4" d="m35.7,105.8c0,1.3,0,2.6,0,3.9-4.9-1.6-19-4.5-14.5-10.6,3.5,3,9.8,6.4,14.5,6.7Z"/><path class="cls-10" d="m47.2,57.6c5.8,1.9,18.3-.9,19.4-1.9-4.3,7.2-15.3,9.1-19.4,2h0Z"/><path class="cls-4" d="m88.6,107.9c6.5-1.5,14.6-7.7,18.8-12.8,6,5.6-12.2,13.6-16.3,15.9-1-1.1-1.8-2.1-2.4-3.1Z"/><path class="cls-3" d="m38.4,276.6c.7-.7,1.3-7.2-4.6-6.5,1.5-21.3,1-47.4,3.2-69.5,5.2,1.2,12.5,2.2,20.5,2.5-1.9,7.9-.6,25-2.5,28.9-4.2,14.9-7.3,24.2-8.2,40,.2,1.9-.8,4.5-3,5.2-2.1-.5-2.6-2.8-5.4-.7h0Z"/><path class="cls-4" d="m85.4,126.4c-21.1,9.5-43.7,3.5-47.9.2h0c-.2-2.4-.5-4.8-.8-7.2,4.2,4,25.2,11.1,49,1.9,0,1.9-.2,3.6-.2,5Z"/><path class="cls-11" d="m22.6,131.6c-10.5-10.5-9.2-16.1-1.7-28.3,1.9,1.9,6.8,4,11,5.4-1.5,2.7-4.3,7.5-4.7,7.3,2.9,6.1,5,11.9,10.1,16.7h-.1c-3.5.8-6.5,4.7-6.6,8.2h0c-1.9-3.4-4.9-6-8-9.3Z"/><path class="cls-3" d="m90.2,199.3c.2,11,.3,16.5,2.9,26,1,9.3-3.7,29.5-2,46.9-9-3.1-9.9,3-7.6,6.2-.5,1-5.5,1-5-4.4.8-9.9-1.7-18.9-2.9-24.3-4.3-15.4-1.4-31.8-6.3-46.8,7.3-.4,14.5-1.6,20.8-3.8h0Z"/><path class="cls-13" d="m62,37.9c0-5.2,4.1-5.2,4.1,0,0,5.2-4.1,5.2-4.1,0Z"/><path class="cls-11" d="m76.6,73.7h-.2c-.1-3.4-1.1-7.4-3.9-7.2,3.3,8.9-16.3,13.9-19.4,5.1-.7-.1-1.4-.3-2.1-.6-.2.7-.3,1.4-.4,2.1-1.3,0-2.6,0-3.8.1-2.9,5.2-7.6,25.4,4.1,27,8.2,0,22.7,4.3,25.3-6.4,1.4-5.4,2.1-14.6,6.7-19,0-.1,0-.3,0-.4-3.2-.1-6.3-.3-6.3-.7Z"/><path class="cls-12" d="m37.8,154.2c.5-10.2.5-18.2-.3-27.5h0c4.2,3.2,26.8,9.3,47.9-.2,0,3.6.2,5.7.4,10.1-3.8.1-8.3.3-8,4.4-2.2,1.7-4.2,3.9,0,5.5-1.1,1.9.3,3.5,1.5,3.9-1.5,1.4.7,3,1.8,3.1-.6,3.3,4,2,6.9.7,2.9,10.3,7.2,36.9,8.3,42.7-19,8.9-47.1,8.6-65.9,1.7,2.4-16.1,6-28.4,7.4-44.2Z"/><path class="cls-12" d="m89.2,107.8h-.7c-.6-.8-1.1-1.6-1.5-2.5h-.3c-.2,2.7-.8,10.1-1.1,16-23.8,9.2-44.9,2-49-1.9-.7-5-1-8.9-.9-13.6-4.7-.3-11-3.8-14.5-6.7,6.6-12.3,8.7-24.9,25.6-25.9-2.9,5.2-7.6,25.3,4.1,27,8.2,0,22.7,4.3,25.3-6.4,4.4-33.4,18.8-17.7,31.1,1.4-3.9,5-12,10.8-18.1,12.7Z"/><path class="cls-9" d="m48.1,284.9s1.7.6,0,3.3c-1.7,2.7-10,2.7-10.8,2.8-2.7,1.3-8.3,4.6-13.1,5l-.4-2c5-.8,10.3-4.5,13.5-5.7,6-.2,9.3-.8,10.6-3.4h0Z"/><path class="cls-5" d="m104.5,293.2c-1.4-5.6-8.1-10.7-11.4-15.9h0c.6-2.9-.5-4.4-1.9-5.2h0c-9-3.1-9.9,3-7.6,6.1-.5,1-5.5,1-5-4.4-4.4.4,1.9,17.7,5.6,20.3,3.2,6.1,19.6,6,20.4-1Z"/><path class="cls-5" d="m46.8,272.1c.2,1.9-.8,4.5-3,5.2-2.1-.5-2.6-2.8-5.4-.7,0,0,2.2-5.5-3.1-6.5-2.5-.4-2.6.6-3.8,4.5l-15.8,6.6c-5.1,1.4-5.2,7.7-4.9,9.7,6,8.3,20.5.3,26.6-2.7,13.4,0,10.1-4.4,11.3-13.7.3-2.6-1.4-2.6-1.9-2.5Z"/><path class="cls-9" d="m9.8,293.1c0-.9,0-2,.9-2.5,1,4.5,9.9,4.2,13.1,3.4l.4,2c-4.1.9-13.7,2-14.4-2.9Z"/><path class="cls-8" d="m81.5,47.3c.2,6.7-5.1,15.3-9,16.8,0,1.2,0,1.9,0,2.4,2.8-.2,3.8,3.8,3.9,7.2h.2c0,.4,3.2.5,6.3.7.1-6.8.6-12.7-2.2-20.4,1.7-2.2,3.2-4.4,4.3-7-1.1.3-2.4.3-3.6.3Z"/><path class="cls-8" d="m81.7,10.4C75.6,2,66.2.7,56,1.2c-19.1,2-26.7,11.7-24,35.8.5-.3,1-.3,1.4-.1h.3c-1.5-10.3,0-23.8,17.3-21,6-2.5,25.2-6.9,30.5,21.1,1.2-1.6,3.8-1.6,5.3-.2,2.3-12.9.6-18.8-5-26.4Z"/><path class="cls-9" d="m78,283.5c3.6,8.6,8.6,17.7,19.9,14.9,5.6-1.6,7.1-3.5,6.4-5.9l.5.5c1.4,4.9-.2,6.9-6.9,8.7-6.4,1.9-11.6-1.7-14.4-5.1-3.2-3.9-4.3-7-4.7-8.2-.6-1.9-2.7-4.4-1.2-6.5.1.5.2,1.1.4,1.7Z"/><path class="cls-6" d="m37.9,133.4c-.2-.2-.4-.4-.6-.7h-.1c-3.5.8-6.5,4.7-6.6,8.2h0c2.7,3.7,2,12.5,7.2,13.3.4-7.6.5-14.3.1-20.8Z"/><path class="cls-6" d="m72.5,64.1c3.9-1.5,9.2-10.1,9-16.8,10.4,2.3,8.5-16,0-10.3-5.3-28-24.4-23.6-30.5-21.1-17.2-2.9-18.8,10.6-17.3,20.9h-.3c-4.3-.7-4.4,11.3,2.2,11,0,10.7,7.8,21.3,17.5,23.8,2.5,8.1,19.3,4.2,19.7-2.4-.3-3-.3-2.3-.3-5.1Zm-30.9-22.8c-2.1.1-2.1-7.1,0-6.9,2.1-.1,2.1,7.1,0,6.9Zm22.4-7.4c2.6-.1,2.6,8.1,0,8-2.6.1-2.6-8.1,0-8Zm-16.9,23.8h0c5.8,1.8,18.3-1,19.4-2-4.3,7.2-15.3,9.1-19.4,2Z"/><path class="cls-6" d="m95.9,143.2c-.3-3-3.3-6.2-6.1-7.2h0c-3.8,1.4-12.3-.9-11.9,4.9-2.2,1.7-4.2,3.9,0,5.5-1.1,1.9.3,3.5,1.5,3.9-1.5,1.4.7,3,1.8,3.1-.6,3.3,4,2,6.9.7h0c3.3-1.6,7.5-5.7,6.7-9.5.3-.4.7-.8,1.2-1.2Z"/><path class="cls-7" d="m84,74.4c-.4,0-.7.2-1,.3,0-.1,0-.3,0-.4.3,0,.7,0,1,0Z"/><path class="cls-13" d="m40,37.8c0-4.5,3.4-4.5,3.3,0,0,4.5-3.4,4.5-3.3,0Z"/><path class="cls-2" d="m33.4,32.9c.4,8.4,1,1.9,2.3,14.9,0,10,7,19.7,15.4,23.2,6.3,2.1,10-.1,20.1-6,5-2,10.5-9.9,10.4-17.7"/><path class="cls-2" d="m37.7,30.2c2-2.4,5.9-2.1,7.8-.8"/><path class="cls-2" d="m59.7,29.2c3.3-2.4,7.7-1.2,8.3.7"/><path class="cls-2" d="m53.2,71.6c2.5,8.1,19.3,4.2,19.7-2.4-.3-2.9-.3-2.4-.3-5.2"/><path class="cls-2" d="m51,71c-6.2,18,26.3,18,25.4,2.7-.1-3.4-1.1-7.3-3.8-7.2"/><path class="cls-2" d="m50.4,73c-18.3-1-22.7,12.6-29.2,26.1-4.6,6.1,9.7,9,14.6,10.6"/><path class="cls-2" d="m84,74.4c10.3-1.3,17.9,13.2,23.3,20.7,6,5.6-12.2,13.6-16.3,15.9-3.6-3.8-4.5-7.7-7.5-12.1"/><path class="cls-2" d="m76.7,73.6c-.4.5,4.8.7,7.3.8"/><path class="cls-2" d="m37.8,154.2c0,.9-.1,1.8-.2,2.7"/><path class="cls-1" d="m37.9,133.4c.3,6.5.3,13.1-.1,20.8"/><path class="cls-2" d="m37.2,93.8c-3.4,13.6,0,25.9.7,39.5"/><path class="cls-2" d="m86.7,105.5c-.7,7.5-1.9,21.8-.9,31.1"/><path class="cls-2" d="m37.6,156.9c-1.8,14.9-4.8,26.1-7.2,41.4,19,6.9,47.2,7.2,66.3-2"/><path class="cls-2" d="m96.3,196.8c-1.1-6-5.4-32.3-8.3-42.8"/><path class="cls-2" d="m37,200.6c-2.2,22-1.6,48.3-3.2,69.5"/><path class="cls-2" d="m57.5,203.1c-1.9,7.9-.6,25-2.5,28.9-4.4,15.3-7.7,25.7-8.3,42"/><path class="cls-2" d="m69.4,202.9c2.8,6.6,2.5,12.8,2.8,19.9.2,18.9,6.7,30.4,6.4,51.2"/><path class="cls-1" d="m90.2,199.3c.2,11,.3,16.5,2.9,26,1,9.3-3.7,29.5-2,46.9"/><path class="cls-2" d="m43.3,37.8c0,4.5-3.4,4.5-3.3,0,0-4.5,3.4-4.5,3.3,0Z"/><path class="cls-2" d="m66.1,37.9c0,5.2-4.1,5.2-4.1,0,0-5.2,4.1-5.2,4.1,0Z"/><path class="cls-2" d="m46.9,48.9c0,2.8,5.7,2.9,7.7,2.7"/><path class="cls-2" d="m46.7,57.4c5.7,2.3,18.7-.7,19.9-1.8-4.3,7.2-15.3,9.1-19.4,2"/><path class="cls-2" d="m86.8,36.8C92,14.2,77.1-1.2,56,1.2c-19.1,2-26.7,11.7-24,35.8"/><path class="cls-2" d="m84,74.4c-5.8,2.6-6.3,14.3-7.8,19.3-2.5,10.8-17,6.5-25.3,6.4-11.7-1.7-7-21.8-4.1-27"/><path class="cls-2" d="m51,16c-1.4-5.6,3.6-13.6,7.6-14.8"/><path class="cls-2" d="m33.4,32.9c-.3-9.4,2.3-19.4,17.7-17,6-2.5,25.2-6.9,30.5,21.1"/><path class="cls-2" d="m81.5,37c8.5-5.7,10.4,12.6,0,10.3"/><path class="cls-2" d="m33.4,36.9c-4.3-.8-4.4,11.2,2.2,10.9"/><path class="cls-2" d="m85.3,46.7c-1.1,2.7-2.7,5-4.5,7.3"/><path class="cls-2" d="m80.8,54c2.9,7.9,2.3,13.9,2.2,21"/><path class="cls-2" d="m107.3,95.2c-3.9,5.1-12,10.7-18,12.6"/><path class="cls-2" d="m36.1,105.8c-4.9-.2-11.2-3.7-14.9-6.7"/><path class="cls-2" d="m85.8,121.3c-23.6,9.2-45.1,2.1-49.2-1.9"/><path class="cls-2" d="m85.4,126.4c-21.1,9.5-43.7,3.5-47.9.2"/><path class="cls-1" d="m20.9,103.3c-13.6,20-1.1,22.6,9.7,37.6,2.7,3.7,2,12.5,7.2,13.2"/><path class="cls-1" d="m31.9,108.7c-1.5,2.7-4.3,7.5-4.7,7.3"/><path class="cls-1" d="m23.2,111.5c1.8,1.1,3.1,2.7,4.1,4.5,2.9,6.5,5.5,12.3,10.6,17.4h0c.3.4.4.6.3.6"/><path class="cls-1" d="m95.3,109.3c1.3,1.5,7,7.7,7.7,8.6"/><path class="cls-1" d="m106.9,100.9c18.9,21.3,3.3,28.4-12.2,43.5"/><path class="cls-1" d="m88.7,136.2c10.2-4.3,9.2-18.1,19.7-22.4"/><path class="cls-1" d="m80.3,138.9c-2,1.8-8.4,5.2-2.5,7.4-1.1,1.9.3,3.5,1.5,3.9-1.5,1.4.7,3,1.8,3.1-.6,3.3,4,2,6.9.7h0c3.3-1.6,7.5-5.7,6.7-9.5"/><path class="cls-1" d="m88.7,136.2c-3.8.6-11.4-.7-10.9,4.7"/><path class="cls-2" d="m95.9,143.2c-.3-3.1-3.3-6.2-6.1-7.3"/><path class="cls-2" d="m37.2,132.8c-3.5.7-6.5,4.6-6.6,8.1"/><path class="cls-1" d="m104.3,292.5c-1.8-5-8.1-10.2-11.2-15.1"/><path class="cls-1" d="m78.5,274c-4.4.4,1.9,17.7,5.6,20.3,3.4,6.4,21.1,6.1,20.2-1.8"/><path class="cls-1" d="m84.1,294.3c.3-8,13.6-12.4,18.6-4.9"/><path class="cls-1" d="m83.5,278.4c-.5,1-5.5,1-5-4.4"/><path class="cls-1" d="m83.5,278.4c-2.3-3.1-1.3-9.2,7.6-6.2h0c1.9.7,2.6,4.1,1.5,6.7"/><path class="cls-1" d="m104.3,292.5s.5.5.5.5c1.5,4.9-.2,6.9-6.9,8.7-6.4,1.9-11.6-1.7-14.4-5.1-3.2-3.9-4.3-7-4.7-8.2-.6-1.9-2.7-4.4-1.2-6.5"/><path class="cls-1" d="m46.7,272.1c.6,0,2.3-.1,2,2.5-.8,3.2.3,8.9-1.3,11.3-1,1.2-4.8,2.5-10,2.4-5.9,3-14.4,7.8-22.7,5.8-5.9-1-5.1-10.9,1-12.8,6.4-1.4,12.4,4.3,10.8,12.1"/><path class="cls-1" d="m46.7,274c-3.2,6.2-3.2,1.7-6.5,1.8-1.3.5-3.2,1.7-4.9,2.5"/><path class="cls-1" d="m38.4,276.6s2.2-5.5-3.1-6.5c-2.5-.4-2.6.6-3.8,4.5"/><line class="cls-1" x1="31.5" y1="274.6" x2="15.7" y2="281.2"/><path class="cls-1" d="m10.7,290.6c-2.7,3,.6,6.2,5.7,6.2,6.7.2,16.1-2.8,20.8-5.8.8-.1,9.1-.1,10.8-2.8,1.7-2.7,0-3.3,0-3.3"/></svg>