<?xml version="1.0" encoding="UTF-8"?><svg id="a" xmlns="http://www.w3.org/2000/svg" width="548" height="374" xmlns:xlink="http://www.w3.org/1999/xlink" viewBox="0 0 548 374"><defs><style>.c{stroke-linejoin:round;}.c,.d{stroke-linecap:round;}.c,.d,.e,.f,.g,.h{stroke:#000;}.c,.d,.h{fill:none;}.d,.e,.f,.g{stroke-miterlimit:10;}.e{fill:#b3b3b3;stroke-width:.5px;}.f{fill:#ff0;}.g{fill:#e6c29e;}.i,.j,.k,.l,.m,.n,.o,.p,.q,.r,.s,.t,.u,.v,.w,.x,.y{stroke-width:0px;}.j{fill:#f3b51a;}.k{fill:#f7bc34;}.l{fill:#54a980;}.m{fill:#ddbda2;}.n{fill:#e0a538;}.o{fill:#adadac;}.p{fill:#d7d7d6;}.q{fill:#e2a025;}.r{fill:#ae867b;}.s{fill:#332921;}.t{fill:#fff;}.u{fill:#ffcf69;}.v{fill:#e880ab;}.w{fill:#0054a5;}.x{fill:#008ed3;}.y{fill:url(#b);}</style><linearGradient id="b" x1="274" y1="0" x2="274" y2="374" gradientUnits="userSpaceOnUse"><stop offset="0" stop-color="#69cbee"/><stop offset="1" stop-color="#d0ecfa"/></linearGradient></defs><rect class="y" width="548" height="374"/><polygon class="f" points="363.5 374 342 374 276.2 245.5 209.4 374 189.7 374 269.2 222.1 283.2 222.1 363.5 374"/><circle class="e" cx="276.2" cy="230.1" r="7.6" transform="translate(-81.8 262.7) rotate(-45)"/><path class="i" d="m276,227.6c1.3,0,2.3,1,2.3,2.3s-1,2.3-2.3,2.3-2.3-1-2.3-2.3,1-2.3,2.3-2.3Z"/><rect class="g" x="266.4" y="-3" width="12.2" height="493" transform="translate(-33.3 443.7) rotate(-75)"/><path class="j" d="m437.5,255.9c.2,0,0,0,0,0h0Z"/><path class="w" d="m488.2,236.3l-10.2-2.8c-1.6-.7-2.8-1.3-3-1.8h.2c1.5.2,11.5,2.7,14.4.1,1.9-1.7,3.9-4.9,4.2-7.4.1-.8,0-1.6-.4-2.3,1.6-.6,3.2-1.1,5.1-1.1,2.5-.1,2.9,1.6,3.1,1.3.9,1.9.7,4.4,0,6.4-.9,2.7-4.4,6.8-8.1,7.8-.3,0-.7.1-1.1.1-1.1,0-2.5-.1-4.1-.4Z"/><path class="j" d="m460.1,286l6.1-22.2,18.8,5.2c-2.2,6.8-5,13.9-7.6,20.3l-.4,1.3-16.9-4.7Z"/><path class="q" d="m485,269l6.9,1.9-5.3,19.4c-.4,1.5-2,2.4-3.6,2l-6-1.7.4-1.3c2.7-6.3,5.5-13.5,7.6-20.3Z"/><path class="q" d="m494.2,262.8l-7.1-2c.2-1.4.5-2.9.9-4.5,1.4-4.8,2.7-9.6,4.1-14.3.4-1.3.7-2.6.6-3.9,0-.2,0-.4-.1-.6l5.2,1.4c1.6.4,2.5,2,2,3.6l-5.6,20.3Z"/><path class="k" d="m439.6,247.7l-6.6-1.8,5.6-20.3c.4-1.5,2-2.4,3.6-2l9,2.5c-3.7,1.2-6.3,5-7.6,8.8-1.4,4.2-1.9,8.6-3.7,12.6,0,0-.2.2-.2.3Z"/><path class="w" d="m437.4,255.9l-6.7-1.9,2.2-8.1,6.6,1.8c-1.8,2.2-1.9,5.3-2.1,8.2-.1,0-.1,0,0,0Z"/><path class="j" d="m474.9,232.6l3.1.9c.8.3,1.7.6,2.6.9l-5.8-1.6v-.2Z"/><path class="j" d="m475.7,246.5l3.1-4.2,4.6,2.3-2.1-9.9c2.2.7,4.7,1.3,6.9,1.7l4.4,1.2c0,.2.1.4.1.6.1,1.3-.2,2.6-.6,3.9-1.4,4.8-2.8,9.6-4.1,14.3-.5,1.6-.7,3.1-.9,4.5l-18.5-5.1,5.1-18.4,2.1,9.2Z"/><path class="w" d="m487,260.8l7.1,2-2.2,8.1-6.9-1.9c.4-1.1.7-2.3,1-3.4.5-1.7.7-3.3,1-4.8Z"/><rect class="w" x="489.3" y="266.5" width="8.4" height="1" transform="translate(104.8 671.7) rotate(-74.6)"/><path class="w" d="m478,233.5l10.2,2.8c-2.2-.4-4.7-1-6.9-1.7h0s-.6-.2-.6-.2h-.1c-.9-.3-1.8-.7-2.6-1Z"/><path class="j" d="m459.4,253.2l-19.8-5.5c0-.1.2-.2.2-.3,1.8-4,2.3-8.5,3.7-12.6,1.3-3.8,3.9-7.6,7.6-8.8l8.4,2.3-6.9,7.4,5.1.4.5,5.2,6.1-6.4-5,18.2Z"/><path class="j" d="m430.7,254l6.7,1.9s0,0,0,0c-2.2,7.4-3.8,14.9-5,22.4l-5.1-1.4c-1.6-.4-2.5-2-2-3.6l5.3-19.4Z"/><path class="j" d="m451.1,283.5l-18.6-5.1c1.2-7.6,2.9-15.1,5-22.4,0,0,.2,0,0,0l19.7,5.4-6.1,22.2Z"/><path class="w" d="m499,219.8c-.2,0-.6-.2-1-.4.3.1.7.2,1,.4Z"/><path class="w" d="m466.4,213c.7.7,1.2,2.1,1.7,3.1,1.1,2.5,2,6.1,1.2,8.8l-2.5,3c-1.3-1.5-2.1-2.9-3.8-4.1-1.2-.9-2.3-1.5-3.4-2.5-.7-.6-2.7-2.3-2.6-3.2,0-.5.8-1.2,1.6-1.8t0,0c2.2-1.3,2.4-1.5,6-3.7.7-.2,1.3-.1,1.9.4Z"/><path class="w" d="m501.3,221.9c-.4-.6-1.4-1.6-1.9-2,.2,0,.3.2.4.3.7.4,1.1,1,1.5,1.7Z"/><path class="w" d="m481.3,234.6h0c-.2,0-.4,0-.6-.2l.6.2Z"/><path class="x" d="m468.5,255.7l5.1-18.4,2.1,9.2,3.1-4.2,4.6,2.3-2.1-9.9c-.2,0-.4-.1-.6-.2h-.1s-5.8-1.6-5.8-1.6v-.2c0,0,.1-.2.1-.2l-9.1-2.5h0c0,.1-6.2-1.6-6.2-1.6h0c0,0-6.9,7.5-6.9,7.5l5.1.4.5,5.2,6.1-6.4-5,18.2-19.8-5.5c-1.8,2.2-1.9,5.3-2.1,8.2l19.7,5.4-6.1,22.2-.3,1,9.1,2.5.3-1,6.1-22.2,18.8,5.2c.4-1.1.7-2.3,1-3.4.5-1.7.7-3.3,1-4.8l-18.5-5.1Z"/><path class="x" d="m460.9,227.9c1.5.4,3,.7,4.5,1,0-.1.1-.3.1-.4-1.1-1.1-2.5-1.5-3.9-2.1-1.7-.7-3.2-1.6-4.9-2.3-5.2-2-3-5.1,0-6.9.7-.4,1.2-.7,1.6-1t0,0c2.2-1.3,2.4-1.5,6-3.7.3-.2.6-.3.9-.5-1.3-2.3-9.5-4.2-12.2-3.7-4.1.8-7.4,4.3-8.2,8.3-1,5.1,0,6.3,4.4,7.5,3.9,1.1,7.5,2.7,11.5,3.8Z"/><rect class="x" x="427.3" y="249.6" width="8.4" height=".6" transform="translate(75.8 599.3) rotate(-74.6)"/><path class="x" d="m437.4,255.9h0c-.1,0-.1,0,0,0Z"/><path class="x" d="m501.3,221.9c-.4-.6-1.4-1.6-1.9-2,0,0,0,0,0,0,0,0-.1,0-.2,0t0,0s0,0,0,0c-.2,0-.6-.2-1-.4-2-.8-5.6-2.5-6.9-2.6-2.7-.2-3.9,3.8-5.1,5.7-1,1.6-2.4,3-3.9,4.2-.5.4-1.2.9-1.8,1.2-.7.3-2.6,1.7-2.6,1.7,2.7,1,6.7-1.9,8.7-3.4,2.3-1.6,4.5-3.1,6.8-4,1.6-.6,3.2-1.1,5.1-1.1,2.5-.1,2.9,1.6,3.1,1.3h0c0,0,0-.2-.2-.4Z"/><polygon class="x" points="475 231.7 475.1 231.5 477.5 229.3 478.9 227.9 470.4 225.1 467 228.1 465.7 229.3 465.5 229.4 474.4 232.2 475 231.7"/><path class="h" d="m488.2,236.3l4.4,1.2,5.2,1.4c1.6.4,2.5,2,2,3.6l-5.6,20.3"/><line class="h" x1="474.9" y1="232.6" x2="478" y2="233.5"/><path class="h" d="m432.9,245.9l5.6-20.3c.4-1.5,2-2.4,3.6-2l9,2.5,8.4,2.3"/><path class="h" d="m451.1,283.5l-18.6-5.1-5.1-1.4c-1.6-.4-2.5-2-2-3.6l5.3-19.4"/><path class="h" d="m491.9,270.9l-5.3,19.4c-.4,1.5-2,2.4-3.6,2l-6-1.7-16.9-4.7"/><polyline class="h" points="466.2 263.8 460.1 286 459.8 287 450.8 284.5 451.1 283.5 457.2 261.3"/><line class="h" x1="473.6" y1="237.3" x2="468.5" y2="255.7"/><polyline class="h" points="465.8 230 465.8 229.9 474.9 232.4 474.9 232.6 474.8 232.8"/><line class="h" x1="459.4" y1="253.2" x2="464.4" y2="235"/><polygon class="h" points="494.2 262.8 495.1 263.1 492.9 271.2 491.9 270.9 485 269 466.2 263.8 457.2 261.3 437.5 255.9 437.4 255.9 430.7 254 430.1 253.9 432.4 245.8 432.9 245.9 439.6 247.7 459.4 253.2 468.5 255.7 487 260.8 494.2 262.8"/><polyline class="h" points="481.3 234.6 483.4 244.6 478.8 242.3 475.7 246.5 473.6 237.3 472.4 232.1 474.8 232.8 480.6 234.4"/><path class="h" d="m501.5,222.3c.9,1.9.7,4.4,0,6.4-.9,2.7-4.4,6.8-8.1,7.8-.3,0-.7.1-1.1.1-1.1,0-2.5-.1-4.1-.4-2.2-.4-4.7-1-6.9-1.7-.2,0-.4-.1-.6-.2h-.1c-.9-.3-1.8-.7-2.6-1-1.6-.7-2.8-1.3-3-1.8"/><path class="h" d="m499.3,219.9c.2,0,.3.2.4.3.7.4,1.1,1,1.5,1.7"/><path class="h" d="m498,219.3c.3.1.7.2,1,.4"/><path class="h" d="m475.1,231.5c1.5.3,11.5,2.8,14.4.2,1.9-1.7,3.9-4.9,4.2-7.4.1-.8,0-1.6-.4-2.3"/><path class="h" d="m499,219.8c-.2,0-.6-.2-1-.4-2-.8-5.6-2.5-6.9-2.6-2.7-.2-3.9,3.8-5.1,5.7-1,1.6-2.4,3-3.9,4.2-.5.4-1.2.9-1.8,1.2-.7.3-2.6,1.7-2.6,1.7,2.7,1,6.7-1.9,8.7-3.4,2.3-1.6,4.5-3.1,6.8-4,1.6-.6,3.2-1.1,5.1-1.1,2.5-.1,2.9,1.6,3.1,1.3"/><path class="h" d="m501.5,222.3c0,0,0-.2-.2-.4-.4-.6-1.4-1.6-1.9-2"/><polygon class="h" points="475 231.7 474.4 232.2 465.5 229.4 465.7 229.3 467 228.1 470.4 225.1 478.9 227.9 477.5 229.3 475.1 231.5 475 231.7"/><path class="h" d="m458.5,216.2c-.8.6-1.5,1.3-1.6,1.8-.1.8,2,2.6,2.6,3.2,1.1,1,2.2,1.6,3.4,2.5,1.7,1.2,2.5,2.7,3.8,4.1l2.5-3c.9-2.7,0-6.2-1.2-8.8-.4-.9-.9-2.3-1.7-3.1-.6-.6-1.2-.6-1.9-.4-.5.1-1,.4-1.5.6-1.2.5-1.6.8-2.6,1.7-.4.3-1.1.8-1.9,1.4"/><path class="h" d="m464.5,212.6c.3-.2.6-.3.9-.5-1.3-2.3-9.5-4.2-12.2-3.7-4.1.8-7.4,4.3-8.2,8.3-1,5.1,0,6.3,4.4,7.5,3.9,1.1,7.5,2.7,11.5,3.8,1.5.4,3,.7,4.5,1,0-.1.1-.3.1-.4-1.1-1.1-2.5-1.5-3.9-2.1-1.7-.7-3.2-1.6-4.9-2.3-5.2-2-3-5.1,0-6.9.7-.4,1.2-.7,1.6-1t0,0c2.2-1.3,2.4-1.5,6-3.7Z"/><polygon class="h" points="459.6 228.4 452.7 235.8 457.8 236.2 458.3 241.4 464.4 235 468.4 230.8 468.5 230.7 465.8 230 459.6 228.3 459.6 228.4"/><path class="n" d="m179.6,129.4h0s0,0,0,0Z"/><path class="m" d="m204.5,169.7c-.5,0-1.2-.2-1.8-.3.5.2,1.2.3,1.8.4,0,0,0,0,0,0h0Z"/><path class="l" d="m204.1,175c-4.8.3-6.3-4.3-.8-2.6-3.1-.4-4.4-4-.7-3-.5-.2-.9-.4-1.1-.8-1-2.6.9-2.3,2.7-1.9-2.4-1.1-2.9-2.9.2-2.2,0-.4,0-.8,0-1.2-10.2-2.4-15.9-7.3-24.7-12.3-1.9.8-6.6,4.4-9.2,6.3,3.9,4.3,9.4,13.7,12.1,22h.1c2.8-3.4,4.7-6.6,6.6-10.4-2.9,7.2.9,21.6.7,28,1.1.8,4.4,5,10.9,4.1.2-2.8.6-4.4,1.3-5-.2-6.8,1.1-13.3,1.8-20.9Z"/><path class="i" d="m176.4,85.2c-1.2,4.3,2.3,5.2,3.4.9,1.2-4.3-2.3-5.2-3.4-.9Z"/><path class="n" d="m165.6,116.9c.2.2.4.3.5.5-.2-.2-.3-.3-.5-.5Z"/><path class="m" d="m201.1,143.5c-.2-.2-.3-.3-.5-.4.2.2.3.3.5.4Z"/><path class="u" d="m170.6,157.2c1.6-1.2,3.1-2.3,4.4-3.2,0-.3.1-.6.2-.9-15,5.2-27.2-.7-34.4-8.9.3,12.6-8.8,29-10.5,37.7-.9,11.6,2.4,15.6,6.6,17.8,7,3.7,17.4,5.2,24.8,1.1,5.4-2.8,19.3-8.8,22.8-13.8-.8-9.9-8.7-24-13.8-29.8Z"/><path class="t" d="m181.5,107.9c2.8.4,4.4-.4,6.1-2.1h0c-5.2.3-14.9-4.9-15.6-6,1.8,5.3,4.9,7.2,9.5,8.1Z"/><path class="u" d="m179.6,129.4h0s0,0,0,0h0Z"/><path class="n" d="m169.5,147.8c.4.2,3.5-1.5,3.9-1.3-.8-.5-1.7-1.1-2.5-1.6-.7,1.4-1.2,2.5-1.3,2.9Z"/><path class="n" d="m191.7,127.7c-3.3,2.3-6.1,5.2-8.2,8.5.6.5,1.2,1,1.8,1.5,2.3-2.9,5.1-5.3,8.1-7.4-.6-.9-1.1-1.8-1.7-2.7Z"/><path class="v" d="m178.9,120c.6-.9.8-2.2.6-4-.7,0-1.4-.2-2.1-.4h0c-4.7,1.4-13.6-4.5-11.6-9.5-.1-.1-.2-.2-.3-.3-6.4-.7-1.4,10.8,0,11.1,3.5,3.5,8.4,8.2,13.4,3.2Z"/><path class="o" d="m221.9,219.6c-11-1.4-28.6-6.9-37.8-10.2,0,0-1.2,3-.7,3,10.5,3,27.5,8.5,37.5,9.3.6-1.1,1-1.3,1-2.1Z"/><path class="n" d="m179.6,129.4c-.4-.4-1.7-1.4-2.2-1.8h-.2c-4,5.9-7.3,12.4-9.7,19.1.8.5,1.4.9,1.9,1.2,2.5-5.3,6.7-13.9,10.6-18.1-.3-.3-.4-.4-.4-.4h0Z"/><path class="v" d="m178.3,131.7c1.9,1.6,4.8,4.2,6.9,6.1,2-2.5,4.3-4.6,6.9-6.5,2.2,4.8,5.7,9.3,8.4,11.7-4.5-3.6-7.8-2.2-11.1-1.7h0c7.1,7.7,28.8,8.6,21.4,21.7-12.6,2.8-29.3-11.9-40-18,1.9-3.8,5.3-10,7.5-13.2Z"/><path class="s" d="m161,95.3h-.4c-4.2,5.9-15.1,19.7-16.1,29.4,2.9-9.5,8.9-15.4,17.7-16.5.8-2.3,1.9-2.7,3.3-2.4-1.6-1.6-4.2-4.7-4.4-10.4Z"/><path class="l" d="m189.5,141.3c4.8,4.4,10.8,6.2,15,8.4-.2-2.9-.7-4.1-3.9-6.7-4.5-3.6-7.8-2.2-11.1-1.7h0Z"/><path class="i" d="m195.8,93.5c1.8.6,3.3-5.4,1.5-5.8-1.8-.6-3.3,5.4-1.5,5.8Z"/><path class="s" d="m169.5,59c6.9-5.6,15-4.6,23.3-1.9,14,5.2,19.3,14.6,13,31.7-.3,1-.7,2.1-1.1,3.2-.3-.4-.7-.5-1.1-.4l-.4-.2c.6-1.4.8-2,1.3-3.1,2.3-7.7,2.4-16.6-10.9-18-4.4-3.4-19.3-11.3-29.9,10.7-.7-1.6-2.8-2.1-4.3-1.4.9-11.2,3.7-15.7,10-20.8Z"/><path class="u" d="m178.3,131.7c1.3,1.1,3.5,3.1,5.2,4.5,2.1-3.4,5-6.2,8.2-8.5-3.9-5.8-4.3-8.2-8.6-12.1-1.3.3-2.5.5-3.7.4.3,1.8,0,3.1-.6,4h0c.7,3,.9,6.1.6,9.1h-.1c0,.2.1.3.2.3h0s0,0,0,0c0,0,0,0,.4.4-.4.2-1,.9-1.7,2Z"/><path class="m" d="m204.3,172.6c-.3,0-.7-.1-1-.2.3.1.7.2,1,.3,0,0,0,0,0,0Z"/><path class="s" d="m160.6,95.3h.4c0-1.7,0-3.6.5-5.7-1.2-.3-2.5-.7-3.5-1.4.4,2.5,1.6,4.9,2.6,7.2Z"/><path class="u" d="m157,149.9c6.2,1.8,13.1,1.7,19.2-.4h0c.1-.3.2-.5.3-.7-5.8-4.9-4.6,1.4-9-2.1,2.5-6.7,5.7-13.2,9.7-19.1h.2c-2.5-2-3.8-3.4-6.8-6.1-4.2-4.4-8-4.9-8.4-13.3-14.7,1.1-19.7,18.8-21,31.4h0c4,5.1,9.6,8.5,15.8,10.4Z"/><path class="p" d="m189.4,197.1c1-1.7,3.9,5.1,11.6,3.8.4-3.6.4-6,3.4-5.1,1.2,0-.8,3.7.7,5.1,5.5,5,20.2,8.1,16.6,17.9h0c0,.3,0,.6,0,.8-11.1-1.4-28.6-6.9-37.7-10.2-.3-2.5,3.4-10.6,5.3-12.3Z"/><path class="n" d="m175.1,153.1c.2-1.2.6-2.5,1.1-3.7h0c-12.2,4.3-27,.3-35-9.9-.2,1.7-.4,3.3-.5,4.7,7.3,8.2,19.4,14.1,34.4,8.9Z"/><path class="v" d="m179.4,129.2h.1c.3-3.2.1-6.3-.6-9.2h0c-1.8,2.8-6.8,2-8.3,1.4,3.6,3.3,5.6,5.1,8.8,7.8Z"/><path class="m" d="m204.6,166.7c0,0-.2,0-.2,0,0,0,.2,0,.2.1,0,0,0,0,0,0Z"/><path class="r" d="m158,88.1h0c1,.8,2.3,1.1,3.5,1.4-1.8,5.9,1.1,14.3,4.3,16.5-2,5,6.9,10.8,11.6,9.5h0c9.6,2.1,19.1-6.1,21.9-15.4,5.6,1.7,7.9-8.4,4.3-8.5l-.4-.2c3.7-8.5,5.3-19.5-9.6-21.1-4.4-3.4-19.3-11.3-29.9,10.7-.7-1.6-2.8-2.1-4.3-1.4-2.7,1.4-4.1,6.3-1.5,8.4Zm39.4-.4c1.8.4.2,6.3-1.5,5.8-1.8-.4-.2-6.3,1.5-5.8Zm-20.2,1.3c-2.2-.5-.4-7.3,1.8-6.6,2.2.5.4,7.3-1.8,6.6Zm-5.1,10.8c.7,1.1,10.4,6.2,15.6,5.9h0c-1.7,1.8-3.3,2.6-6.1,2.2-4.6-.9-7.7-2.8-9.5-8.1Z"/><path class="r" d="m202.7,169.4c-.5-.2-.9-.4-1.1-.8-1-2.6.9-2.3,2.7-1.9,1.6.9,4.2,2,1.1,3.1-.8.1-1.8-.2-2.7-.4,1.4.6,5.3.4,3.6,2.8-1.1,1.4-4.6,0-5.4-.8-1.4-2.3,0-2.2,1.8-1.9Z"/><path class="r" d="m205.5,174.8c-1.6.8-6.4-.3-5.6-2,.2-1.8,8.3.3,5.6,2Z"/><path class="r" d="m204.5,164.4c3.3.4,4.4,3.3,0,2.2-2.4-.8-3.4-3.1,0-2.2Z"/><path class="d" d="m141.2,139.5c.6,13.9-8.3,32.4-11,42.4"/><path class="d" d="m162.2,108.1c-14.7,1.1-19.7,18.8-21,31.4"/><path class="d" d="m181.7,134.6c.2-1.7.4-7.2.4-8.4"/><path class="d" d="m178.3,131.7c5,4.2,12.1,11.2,17.6,14,7.7,3.8,21.1,7.2,14.9,17.2"/><path class="d" d="m179.6,129.4h0s0,0,.4.4"/><path class="d" d="m179.6,129.4s0,0,0,0h0"/><path class="d" d="m179.6,129.4h0"/><path class="d" d="m166.2,117.4c4.6,4.1,9,8.3,13.4,11.9"/><path class="d" d="m165.6,116.9c.2.2.3.3.5.5"/><path class="d" d="m161.5,113.1c.7.7,2.2,2.1,4,3.7"/><path class="d" d="m170.8,144.9c10.7,6.1,27.5,20.9,40,18"/><path class="d" d="m150.4,133.4c4,3.5,13.6,11.1,19.1,14.5.4.2,3.5-1.5,3.9-1.3"/><path class="d" d="m200.6,143c.2.2.3.3.5.4"/><path class="d" d="m192.1,131.3c2.2,4.8,5.7,9.3,8.4,11.7"/><path class="d" d="m183.2,115.6c4.5,4,6.3,9,10.3,14.8"/><path class="d" d="m141,178.5c6.3-3,28.1-21.1,38.9-27.6"/><path class="d" d="m170.6,121.4c2.9,1.4,10.5.5,8.9-5.4"/><path class="d" d="m162.2,108.1c.3,5.9,2,7.5,4.3,9.6"/><path class="d" d="m180,129.7c-3.8,4.2-8.1,12.8-10.6,18.1"/><path class="d" d="m189.5,141.3c3.3-.5,6.6-1.9,11.1,1.7,3.2,2.6,3.7,3.8,3.9,6.7"/><path class="d" d="m189.5,168.8c-2.9,7.2.9,21.6.7,28"/><path class="d" d="m130.2,181.9c-.9,11.6,2.4,15.6,6.6,17.8,7,3.7,17.4,5.2,24.8,1.1"/><path class="d" d="m204.1,175c-.7,7.6-2,14.1-1.8,20.9"/><path class="d" d="m204.3,172.6s0,0,0,0"/><path class="d" d="m204.5,169.7s0,0,0,0"/><path class="d" d="m204.6,166.7s0,0,0,0"/><path class="d" d="m204.5,163.3c0,.4,0,.8,0,1.1"/><path class="d" d="m184.4,187c-.8-9.9-8.7-24-13.8-29.8"/><path class="d" d="m191.4,164.7c-2.4,5.3-4.7,9.9-8.5,14.4"/><path class="d" d="m161.6,200.8c5.4-2.8,19.3-8.8,22.8-13.8"/><path class="c" d="m189.4,197.1c-1.9,1.7-5.6,9.8-5.3,12.3"/><path class="c" d="m200.7,200.8c-7.4,1.4-9.8-5.2-11.2-3.8"/><path class="c" d="m184.2,209.4c9,3.2,26.3,8.8,37.2,10"/><path class="c" d="m200.7,200.8c4.1,1.5,10.2,6.3,13.8,8.3"/><path class="c" d="m221.7,219c1.1-3.8.8-8.4-6.3-12-.9,2.5-2.6,7.8-3.1,10.6"/><path class="c" d="m203.1,201.7c-.7-1.4-.8-5.6,1.3-5.8,1.2,0-.8,3.7.7,5.1,1.4,1.3,6.9,4.8,10.2,6.2"/><path class="c" d="m220.9,221.7c-9.9-.9-27-6.3-37.5-9.3-.5,0,.7-3,.7-3"/><path class="c" d="m221.8,218.8c.2,1.3,0,1.5-.9,2.9"/><path class="c" d="m201,201c.4-3.7.5-6.3,3.7-5"/><path class="d" d="m202.7,169.4c-.5-.2-.9-.4-1.1-.8-1-2.7,1.2-2.3,3-1.9,2.5,1.1,4.3-.9,1.5-1.7"/><path class="d" d="m206.1,164.9c-3-1.4-5.8-.3-1.5,1.8,4.5,1.9,1.4,3.7-1.9,2.6,0,0,0,0,0,0-1.7-.3-3.2-.3-1.8,1.9.5,1.2,7,1.3,4.5,3.5-1.6.8-6.4-.3-5.6-2,1-2.2,5,1.3,6.5-.6,1.6-2.3-2.2-2.2-3.6-2.8"/><path class="c" d="m204.5,88.4c-3.7,7.1-6.4,19.9-14.5,24.4-4.6,2.2-8,4.2-12.6,2.8-3-.9-7.4-4.9-12-9.8-2.9-1.9-5.7-10.6-4-16.2"/><path class="c" d="m201.5,85.1c-1.1-2.4-4.4-3-6.3-2.4"/><path class="c" d="m183.6,79.4c-2.2-2.7-6.1-2.7-7.1-1.3"/><path class="c" d="m162.2,108.1c.8-2.3,1.9-2.7,3.3-2.4"/><path class="c" d="m195.2,90.2c-1,3.7,1.8,4.5,2.8.7,1-3.7-1.8-4.5-2.8-.7Z"/><path class="c" d="m176.4,85.2c-1.2,4.3,2.3,5.2,3.4.9,1.2-4.3-2.3-5.2-3.4-.9Z"/><path class="c" d="m189.8,98.6c-.6,2.3-5.4,1.1-7,.5"/><path class="c" d="m188.1,105.6c-5.2.6-15.3-4.7-16-5.9,2,6.9,10.7,10.9,15.6,6"/><path class="c" d="m159.4,79.7c.7-19.8,16.5-29.3,33.3-22.6,15.6,5,19.2,18.1,11.9,35"/><path class="c" d="m193.6,70.4c2.4-4.4,0-12.1-3-13.9"/><path class="c" d="m204.5,88.4c2.3-7.7,2.4-16.6-10.9-18-4.4-3.4-19.3-11.3-29.9,10.7"/><path class="c" d="m158,88.1c1,.8,2.3,1.1,3.5,1.4"/><path class="c" d="m163.8,81.1c-3.6-5.6-10.2,3.7-5.8,7.1"/><path class="c" d="m203.6,91.7c3.6.2,1.3,10.2-4.3,8.5"/><path class="c" d="m158,88.1c.3,2.5,1.6,4.9,2.6,7.2"/><path class="c" d="m160.6,95.3c-4.2,5.9-15.1,19.7-16.1,29.3"/><path class="d" d="m176.6,148.7c-.8,1.7-1.3,3.5-1.6,5.3"/><path class="c" d="m177.4,115.6c-4.7,1.3-13.6-4.5-11.6-9.5"/><path class="c" d="m177.2,127.5c-4,5.9-7.3,12.3-9.7,19.1"/><path class="c" d="m193.5,130.4c-3.1,2-5.9,4.5-8.2,7.4"/><path class="c" d="m191.7,127.7c-3.3,2.3-6.1,5.2-8.2,8.5"/><path class="d" d="m178.9,120c.7,3,.9,6.1.6,9.1"/><path class="d" d="m141.2,139.5h0c8,10.2,22.8,14.2,35,9.9"/><path class="d" d="m140.7,144.2c7.3,8.2,19.5,14.1,34.5,8.8"/></svg>