<?xml version="1.0" encoding="UTF-8"?><svg id="Latin_America" xmlns="http://www.w3.org/2000/svg" width="157.2" height="423" viewBox="0 0 157.2 423"><defs><style>.cls-1{stroke-linecap:round;stroke-linejoin:round;}.cls-1,.cls-2{fill:none;stroke:#010101;}.cls-3{fill:#847059;}.cls-3,.cls-4,.cls-5,.cls-6,.cls-7,.cls-8,.cls-9,.cls-10,.cls-11,.cls-12,.cls-13{stroke-width:0px;}.cls-4{fill:#181819;}.cls-5{fill:#23272c;}.cls-6{fill:#dfd3a9;}.cls-7{fill:#858dc6;}.cls-8{fill:#b7c648;}.cls-9{fill:#8b6748;}.cls-10{fill:#e65343;}.cls-11{fill:#eeedee;}.cls-12{fill:#f7934f;}.cls-13{fill:#010101;}</style></defs><path class="cls-12" d="m59.4,155.2c0,.1,0,.2,0,.4-2.1.9-3.3,3.1-4.4,5.1-14.2-6.9-12-24.2.4-29.4h0c1.5.7,3,1.4,4.5,2.2-11.1,3.9-13.3,18.7-.4,21.6Z"/><path class="cls-7" d="m32.1,152h.7c-.7,1.6-1.6,3.7-2.6,5.9h-.3c-5.1-7.1-13.4-9.7-21.8-11.9.5-1.3,1-2.6,1.5-3.9,9.2,1.3,16,5.3,22.5,9.9Z"/><path class="cls-10" d="m31.5,218h0c22.3,15.1,51.1,5.5,74.5-2.1.5.3,1,.5,1.4.6-1.1,1.4-.5,2.6.6,3.4-24.9,10.2-51.8,16.8-76.4,2.6,0-1.5-.1-3-.1-4.5Z"/><path class="cls-4" d="m117.5,387.3c.4,3.2,17.8,16.9,17.6,23.1-.2,9.9,2.5,12.5-11.3,12.5-30.3,1-30.4-13-28.3-32.2,6.9.6,15.3-1.1,21-3.7l.9.2Z"/><path class="cls-10" d="m71.2,162.5c-.4.5-1.3,3.6-2.5,8.1-1.2-1.7-2.6-4.1-3.8-5.8h-.2c1.4-4.4,2.6-8.1,2.9-8.6,1.2,1.8,3.1,3.9,4.3,5.8-.3.2-.5.3-.7.6Z"/><path class="cls-7" d="m110.8,222.4c-22.4,15.3-55.4,20.6-79,5,0-1.6-.1-3.3-.2-5,24.6,14.2,51.5,7.6,76.4-2.6.8.7,1.9,1.1,2.6,1.1,0,.5,0,1,.2,1.5Z"/><path class="cls-7" d="m81.2,121.9c1.7-5.9,4.4-13.4,7-18.5,1.5-1.9,2.4-4.3,2-6.8,1.3,0,4.3.3,8.3.8h0c-6.8,10.7-14,29.9-12.3,31,6.8,4.4,13.1,10.3,8.7,25.7-3.7,13.2-16.2,13.1-19.7,16.5-1.7,1.6-9.4,35.8-17.9,42.5-6.6-7.5-9-34-7.8-46.3-15.5-6.9-14.9-34.2.1-38.8-4.4-13.6-2.1-27.8-1.9-30,2.3-.2,3.7-.3,5.1-.2,0,.3,0,.7,0,1h-.3c-1,4.5.1,23.5,3.1,32.4-12.5,5.2-14.8,22.5-.5,29.5-.8,12.5,0,30.5,3.2,41.9,5.4-9.2,8.9-31.5,13.7-40.7,3.2-1.9,11.7.5,15.4-9,4.3-11.3-2.8-17.7-7.7-21.6-.6-.4.2-4.4,1.6-9.4Z"/><path class="cls-12" d="m72.9,133.7c-.1,0-.2-.5-.1-1.2,2.2-.5,4.4-.8,6.7-1h.1c4.9,3.8,12,10.1,7.6,21.4-3.6,9.5-12.1,7-15.4,9-1.2-1.8-3.1-4-4.3-5.8,1.2-2,10.6,2,12.7-7.2,2.2-9.9-3.8-12.5-7.3-15.2Z"/><path class="cls-7" d="m143.6,132.1c1.2,1.8,2.3,3.6,3.3,5.3-9.6,1.8-18.4,9.6-23.9,17.7-1.2-1.5-2.4-3.1-3.6-4.8h0c5.5-9.2,13.7-16.4,24.2-18.2Z"/><path class="cls-12" d="m78.9,110l-.3-1.2c3.7-.7,7.4-2.6,9.5-5.4-2.6,5.1-5.3,12.5-7,18.5-2.3.6-4.5,1.3-6.8,1.9,1.2-4.9,2.8-10.5,4.5-13.8Z"/><path class="cls-5" d="m100.1,46.7c0,.5-.2,1-.3,1.5-4.5,4.1-2.8-18.6-11.3-23.1-7.8-5.5-25.7-4.4-31.4-4-14.2.8-16.8,16.3-17.1,21h-.2c-6.7-50.9,69.4-45.5,60.3,4.6Z"/><path class="cls-10" d="m59.2,165.1h0c-1.9,1.3-3.5,2.4-4.5,4.5,0-5.7-.6-11.3,4.7-14.1-.2,3-.3,6.2-.2,9.5Z"/><path class="cls-10" d="m60,178.5c1.4,2.2,2.9,5.1,4.3,7.3-2,6.8-4.2,13.3-6.1,16.8-1.5-4.9-2.4-12-3-19.3,1.4-1.4,3.2-3.7,4.5-5.2,0,.3,0,.6,0,.9,0-.1.1-.3.2-.5h0Z"/><path class="cls-12" d="m53.5,122c-1.6-10-1.6-19.8-1-23.2h.3c-.1,3.2,1.2,5.1,3.2,7.9.3,2.6.8,10.2,1.9,17.3-1.4-.7-2.8-1.4-4.3-2h-.2Z"/><path class="cls-3" d="m103.5,202.2c-1.6-8.3,10.8-9.2,15.7-10.9.6-2.2,11.8-21.2,15.5-26.1-.3-.1-3.9-4.5-6.6-7.9,5.7-6.8,12.9-12.2,21-15.8,19.7,36.7-6.4,42.3-19.8,62.2,1.9,4.5-3.1,12-6.1,15.1-2.2,2.3-13,8.8-12.6,2.2-1.9,0-5-2.1-3.2-4.5-2.4-.5-4-2.7-2.9-5.7-6.4-1.6-3.8-5.4-1-8.5Z"/><path class="cls-5" d="m111.8,228.2c-15.4,14.7-63.8,20-77.8,5.4-4,33.7-5.8,110.7-6.3,150.4,8.8,11.1,21.2,8,35,3.4.1-8.3,8-125.7,8-135.2h.9c5.3,29.1,17.1,117.4,18.9,137.4,10.1,2.7,25.5.4,32.2-7.1,0,0-.6-92.2-10.8-154.4Z"/><path class="cls-5" d="m83.3,76.9c3.9,17.2-17.2,27.6-28.4,13.9-1.3-2.1-3.5-12.5-3.8-13.9,9.5,11.8,21.8,10.8,32.2,0Z"/><path class="cls-6" d="m29,104.6c1.7,9.9-9.2,24.4-12.7,34.2-1.6-.4-3.3-.7-5-1,6.7-17.1,8.9-23.1,17.7-33.2Z"/><path class="cls-12" d="m59.9,178.5c1.3-3.3,3.1-9,4.7-13.8h.2c1.2,1.8,2.6,4.2,3.8,5.9-1.2,4.3-2.7,9.9-4.3,15.2-1.4-2.2-2.9-5.1-4.3-7.3h0Z"/><path class="cls-4" d="m56.9,404.5c.4,12.1-7.8,20.3-30.7,18.1-14.6-.9-11.2-4.3-11.4-13-.1-5.4,18.3-16.1,18.3-20.9,5.9,4.1,10.8,3.9,21,1.1.9,2,2.6,10.4,2.8,14.6Z"/><path class="cls-13" d="m81.4,49.8c2.3,0,2.3,6.5,0,6.4-2.3,0-2.3-6.5,0-6.4Z"/><path class="cls-6" d="m72.8,132.5h0c0,0-.1,0-.2,0,0,0,.1,0,.2,0Z"/><path class="cls-10" d="m33.9,149.8c-.2.4-.6,1.2-1.1,2.3-7-4-13.5-8.9-23.1-10,.6-1.4,1.1-2.9,1.7-4.3,8.2,1.3,15.7,4.3,22.4,9.5,0,.8.2,1.7.2,2.5Z"/><path class="cls-6" d="m59.4,155.6c0-.1,0-.2,0-.4-13-3-10.5-17.9.6-21.7-2.3-6.6-3.6-22.6-4-26.8,1.5,1.9,3.3,3.3,4.8,3.3.3,7.6,2.2,16.2,4.4,23.5,2.7-8.4,5.8-16.6,9-24.3,1.4,0,3,0,4.4-.3l.3,1.2c-2.5,4.9-5.6,17-6.1,22.5,0,0-.1,0-.2,0,0,0,.1,0,.2,0,1.3,4.4,10.2,4.3,7.5,16.3-2,9.2-11.5,5.3-12.7,7.2-1.6,4-6,18.4-7.8,22.8-.2-7.2-.9-16-.3-23.4Z"/><path class="cls-10" d="m33.9,233.6c-.8-.7-1.4-1.3-2-1.7,0-1.5-.1-3-.2-4.5,23.6,15.6,56.6,10.3,79-5,.4,1.9.7,3.8,1,5.8-15.4,14.7-63.8,20-77.8,5.4Z"/><path class="cls-10" d="m55.4,131.4h0c0,0,.1-.1.2-.1-.9-2.9-1.5-6.1-2-9.2h.2c1.4.7,2.8,1.3,4.3,2,.5,3.5,1.2,6.8,2.1,9.4,0,0,0,0-.1,0-1.4-.9-2.9-1.6-4.5-2.2Z"/><path class="cls-10" d="m30.2,157.9c-.8,1.8-1.6,3.7-2.3,5.4-5.2-7.9-11.5-11.6-21.2-13.6.5-1.2.9-2.5,1.4-3.7,8.4,2.2,16.6,4.8,21.8,11.8h.3Z"/><path class="cls-12" d="m32.1,101.7c9.2,6.3-8.1,29.7-10.8,38.6-1.6-.6-3.3-1.1-5-1.6,3.5-9.9,14.3-24.2,12.7-34.2,1-1.1,2-2.1,3.1-2.9h0Z"/><path class="cls-10" d="m121.9,138.5c5.2-5.1,11.5-8.9,18.5-11,1.1,1.6,2.2,3.2,3.2,4.7-10.5,1.8-18.7,9-24.2,18.2-1.1-1.5-2.3-3.1-3.4-4.7,1.7-2.6,3.7-5,5.9-7.2Z"/><path class="cls-10" d="m149.1,141.4c-8.9,4-16.8,10.2-22.7,17.9-1.1-1.3-2.2-2.8-3.4-4.3,5.5-8.1,14.2-15.9,23.9-17.7.8,1.4,1.6,2.8,2.3,4.1Z"/><path class="cls-10" d="m72.8,132.5c.1-1.7.7-5,1.6-8.7,2.3-.6,4.6-1.3,6.8-1.9-1.4,5.1-2.3,9-1.6,9.5h-.1c-2.3.3-4.5.7-6.7,1.2h0Z"/><path class="cls-13" d="m53.9,50.8c2,0,2,6.7,0,6.6-2.1,0-2.1-6.7,0-6.6Z"/><path class="cls-12" d="m54.7,169.6c1-2.1,2.6-3.2,4.5-4.5h0c0,4.5.3,9,.5,13-1.2,1.5-3.1,3.9-4.5,5.2-.3-4.7-.5-9.4-.5-13.7Z"/><path class="cls-9" d="m110.6,221.6c0,.2,0,.5.1.7,0-.2-.1-.5-.1-.7Z"/><path class="cls-5" d="m90.7,42.7c-.7,2.3-10.5-.8-18.9,1.3-1.1-.4-.6-1.9-1.1-3.7,5.4-3,16.2-3.5,20,2.3Z"/><path class="cls-11" d="m79.3,74c-9,11.2-18.7,10.1-23.7,1.2,2.1.6,15.4.8,23.7-1.2Z"/><path class="cls-6" d="m131.1,115.2c3.6,4.4,6.7,8.4,9.3,12.2-5.1,1.5-9.8,3.9-14,7.1-7.8-7.2-16.6-21.8-4.3-29.1,3.5,3.2,6.8,7.1,9,9.8Z"/><path class="cls-5" d="m55.6,39.2c4.9,0,8-.2,5.9,4.2-4.2-.8-11.6-.2-16.7,1,1-2.2,5.7-5.1,10.8-5.2Z"/><path class="cls-12" d="m122.1,105.5c-12.3,7.3-3.5,21.9,4.3,29.1-1.6,1.2-3.1,2.5-4.5,3.9-7.7-9.8-23-28.6-5.2-37.3,1.7,1.1,3.6,2.6,5.4,4.3Z"/><path class="cls-3" d="m100.1,46.7c0,.5-.2,1-.3,1.5-4.5,4.1-2.8-18.6-11.3-23.1-7.8-5.5-25.7-4.4-31.4-4-14.2.8-16.8,16.3-17.1,21h-.2c.1,1.5.3,2.9.5,4.2-9.2-1.3-.8,24.5,3.1,23.1,2.1,12,3.2,13.8,9.9,19.8-1,7.7-1.5,18.1,7.4,20.6.3,7.6,2.2,16.2,4.4,23.5,2.7-8.4,5.8-16.6,9-24.3,6.9.3,15.8-3.7,16.1-11.3-.3-3.3-1.8-8.5-1.9-12.1,5-4.7,5.8-8.5,8-17.8,9.4-.2,14.8-24.1,3.7-21.1Zm-20.8,27.3c-9,11.2-18.7,10.1-23.7,1.2,2.1.6,15.4.8,23.7-1.2Zm-34.5-29.6c.1-3.9,20.9-9.5,16.7-1-4.2-.8-11.6-.2-16.7,1Zm10.7,9.7c0,4.3-3.2,4.3-3.2,0,0-4.3,3.2-4.3,3.2,0Zm11,43.3c-11.7-2-13.5-10.3-15.4-20.5,9.5,11.8,21.8,10.8,32.2,0,3.3,11.3-7.6,21-16.8,20.5Zm13.1-44.4c0-4.2,3.6-4.1,3.6,0,0,4.1-3.6,4.2-3.6,0Zm-7.8-9c-1.1-.4-.6-1.9-1.1-3.7,5.4-3,16.2-3.5,20,2.3-.7,2.3-10.5-.8-18.9,1.3Z"/><path class="cls-3" d="m22.9,167.7c4.3,8.1,8.3,17.3,9.1,18.1-.9,11.6-.8,22.5-.5,32.2-2.2-2.2-4.4-6.3-5.5-9.7-2-9.7-28.9-31.5-25-44.9,1.1-1.8,3.2-7,5.7-13.6,9.2,1.8,14,4.9,19.8,11.4h0c-1.7,4.1-2.4,5.2-3,6.2l-.5.2Z"/><path class="cls-8" d="m33.9,149.8c0-.8-.1-1.7-.2-2.5-3.9-3-8-5.3-12.3-6.9,2.7-8.9,20.1-32.4,10.7-38.7,4.3-2.9,9.1-2.6,15.6-3.7-.2,2.2-2.5,16.4,1.9,30-15,4.5-15.6,31.9-.1,38.8-1.2,12.4,1.2,38.8,7.8,46.3,8.5-6.7,16.2-40.9,17.9-42.5,3.5-3.4,16-3.3,19.7-16.5,4.4-15.5-1.9-21.3-8.7-25.7-1.7-1.1,5.5-20.3,12.3-31h0c8.3,1.3,14.8,1.6,18.3,3.8-17.8,8.6-2.5,27.4,5.2,37.3-2.2,2.2-4.2,4.6-5.9,7.2-1.6-2.2-3.1-4.4-4.5-6.4l-.4.2c-3,16.5-2.6,35.9-2.1,54.7-3.6,1.5-6.3,3.8-5.4,8-2.9,3.1-5.5,6.9,1,8.5-.9,2.4,0,4.2,1.5,5.2-23.5,7.6-52.2,17.2-74.5,2.1-2-20.6,4-47.2,2.4-68.2Z"/><path class="cls-1" d="m52.3,97.8c-6.5.3-15.5.7-20.2,3.9-15.3,12.3-22,43.4-31.1,61.7"/><path class="cls-1" d="m90.3,96.6c6.2.5,23.1,2.1,26.4,4.6,16.5,10.1,46.6,57.3,39,69.2"/><path class="cls-1" d="m33.6,127.4c-2.1,15.6,2.5,27,0,42.9-3.1,21-2.6,41.6-1.7,61.6,14.1,16.7,63.9,11.3,79.9-3.8"/><path class="cls-1" d="m111.1,139.5c-3,16.5-2.6,35.9-2.1,54.7"/><path class="cls-1" d="m26,208.2c1.1,3.5,3.3,7.6,5.5,9.8"/><path class="cls-1" d="m1,163.4c-3.9,13.4,23,35.2,25,44.9"/><path class="cls-1" d="m16.5,157.4c4.5,4.8,14.2,26.7,15.5,28.4"/><path class="cls-1" d="m155.7,170.4c-4,11.5-22.1,26.9-26.4,33.3"/><path class="cls-1" d="m119.3,191.3c2.2-5,14-25.7,20.1-31.8"/><path class="cls-1" d="m106.8,198.8c-2.6,3.2-11.3,9.7-2.3,11.9-1.1,3,.5,5.2,2.9,5.7-1.8,2.3,1.3,4.4,3.2,4.5-.4,6.7,10.4.2,12.6-2.2,3-3.1,8-10.6,6.1-15.1"/><path class="cls-1" d="m119.3,191.3c-5,1.7-17.4,2.6-15.7,11"/><path class="cls-1" d="m34,233.3c-4,34-5.8,110.8-6.3,150.8,8.8,11.1,21.2,8,35,3.4.1-8.3,8-125.7,8-135.2"/><path class="cls-1" d="m70,244.6c6.6,31.8,18,121.5,20.4,145.1,10.1,2.7,25.5.4,32.2-7.1,0,.6-.9-102.2-11.9-161"/><path class="cls-1" d="m119.4,150.3c-4.2-5.7-11.2-15.2-13.9-20.3"/><path class="cls-1" d="m126.4,159.4c-2.3-2.8-4.7-6-7-9.1"/><path class="cls-1" d="m134.8,165.2c-.3-.1-3.9-4.5-6.6-7.9"/><path class="cls-1" d="m26.4,161.3c-1.7,4-2.4,5.1-3,6.2"/><path class="cls-1" d="m33.9,149.8c-1.9,3.8-4.2,9.4-6,13.6"/><path class="cls-1" d="m117.5,387.3c.4,3.2,17.8,16.9,17.6,23.1-.2,9.9,2.5,12.5-11.3,12.5-30.3,1-30.4-13.1-28.2-32.2"/><path class="cls-1" d="m33.2,388.8c0,4.8-18.5,15.4-18.3,20.9.2,8.7-3.2,12.1,11.4,13,32.5,2.7,33.7-13,28-32.4"/><path class="cls-1" d="m66.5,97.4c7.4.2,19.6-7.8,25-15.3"/><path class="cls-1" d="m41.9,61.1c1.4,6.9,3.1,20.2,6.2,23,4.7,4.6,12.3,13.2,18.4,13.3"/><path class="cls-1" d="m44.8,44.4c5.2-1.2,12.5-1.8,16.7-1"/><path class="cls-1" d="m71.8,44c8.4-2.1,18.2,1,18.9-1.3"/><path class="cls-1" d="m58.9,68.9c1.6,4.2,12.7,1,15.2,0"/><path class="cls-1" d="m99.9,46.8c11.4-3.4,5.9,21.3-3.8,21.1"/><path class="cls-1" d="m98,61.1c-1.5,6.3-3.8,18-6.4,21"/><path class="cls-1" d="m52.7,98.8c0-3.1.6-6.5.7-10"/><path class="cls-1" d="m56,106.7c-2-2.7-3.3-4.6-3.2-7.9"/><path class="cls-1" d="m88.2,103.5c-3.1,3.8-8.9,6-14,5.7-3.2,7.8-6.3,15.9-9,24.3-2.3-7.3-4.1-15.9-4.4-23.5-1.5,0-3.3-1.4-4.8-3.3"/><path class="cls-1" d="m90.1,96.6c.5,2.6-.4,4.9-2,6.8"/><path class="cls-1" d="m88.4,85.6c0,3.1,1.3,8.3,1.7,11"/><path class="cls-1" d="m44.8,44.4c.1-3.9,20.9-9.5,16.7-1"/><path class="cls-1" d="m71.8,44c-1.1-.4-.6-1.9-1.1-3.7,5.4-3,16.2-3.5,20,2.3"/><path class="cls-1" d="m55.6,75.2c5,8.9,14.8,9.9,23.7-1.2-8.3,2.1-21.6,1.8-23.7,1.2Z"/><path class="cls-1" d="m55.5,54.1c0,4.3-3.2,4.3-3.2,0,0-4.3,3.2-4.3,3.2,0Z"/><path class="cls-1" d="m41.4,52.3C24.1-6.3,109-10.3,99.9,48.3"/><path class="cls-1" d="m40,46.4c-8.7-1-.5,24.5,3.4,23.1"/><path class="cls-1" d="m79.7,53c0,4.2,3.6,4.1,3.6,0,0-4.1-3.6-4.2-3.6,0Z"/><path class="cls-1" d="m148.8,141.6c-8.8,4-16.5,10.1-22.4,17.8"/><path class="cls-1" d="m6.7,149.8c9.6,2,16,5.7,21.2,13.6"/><path class="cls-1" d="m140.4,127.4c-10.1,3-18.8,9.6-24.6,18.4"/><path class="cls-1" d="m143.6,132.1c-10.5,1.8-18.7,9-24.2,18.2h0"/><path class="cls-1" d="m146.9,137.3c-9.6,1.8-18.4,9.6-23.9,17.7"/><path class="cls-1" d="m11.4,137.8c8.2,1.2,15.5,4.3,22.2,9.4h0"/><path class="cls-1" d="m32.1,152c-6.4-4.6-13.2-8.6-22.4-9.9"/><path class="cls-1" d="m29.9,157.8c-5-6.8-13.1-9.6-21.4-11.6"/><path class="cls-1" d="m79.2,109.4c-2.8,5.1-5.9,17.2-6.4,23.1,1.3,4.4,10.1,4.3,7.5,16.3-2,9.2-11.5,5.3-12.7,7.2-1.6,3.9-6,18.4-7.8,22.8-.2-7.4-.9-16.2-.3-23.8-13-3-10.5-17.9.6-21.7-2.3-6.6-3.6-22.6-4-26.8"/><path class="cls-1" d="m88.2,103.5c-3.1,6.1-9.2,22.1-8.6,27.9,4.9,3.9,12,10.2,7.7,21.6-3.6,9.5-12.1,7-15.4,9-4.8,9.1-8.3,31.5-13.7,40.7-3.2-11.4-4-29.4-3.2-41.9-14.3-7-12-24.3.5-29.5-3-8.9-4.1-27.9-3.1-32.4"/><path class="cls-1" d="m98.4,97.4c-6.8,10.7-14,29.9-12.3,31,6.8,4.4,13.1,10.3,8.7,25.7-3.7,13.2-16.2,13.1-19.7,16.5-1.7,1.6-9.4,35.8-17.9,42.5-6.6-7.5-9-34-7.8-46.3-15.5-6.9-14.9-34.2.1-38.8-4.4-13.9-2-27.7-1.9-30.2"/><path class="cls-1" d="m116.7,101.2c-17.8,8.6-2.5,27.4,5.2,37.3t0,0"/><path class="cls-1" d="m126.4,134.6c-7.5-7-16.7-21.5-4.8-28.7"/><path class="cls-1" d="m29,104.6c1.7,9.7-9.1,24.4-12.6,34.1"/><path class="cls-1" d="m32.1,101.7c9.2,6.2-8.1,29.8-10.8,38.6"/><path class="cls-1" d="m105.7,216c-23.7,7.5-52.5,17.2-74.8,1.5"/><path class="cls-1" d="m107.4,220.3c-25,9.6-51.4,16.4-76,2.1"/><path class="cls-1" d="m110.7,222.4c-22.4,15.4-55.3,20.6-79,5"/><path class="cls-2" d="m79.5,131.5c-2.3.2-4.6.6-6.9,1.1.1,0,.2,0,.4-.1"/><path class="cls-2" d="m81.7,121.8c-2.4.7-4.9,1.4-7.3,2"/><path class="cls-2" d="m60,133.6c-1.5-.9-3-1.7-4.6-2.3,0,0,.2,0,.3,0"/><path class="cls-2" d="m58,124.1c-1.5-.7-2.9-1.4-4.4-2.1"/><path class="cls-2" d="m67.6,156.1c1.1,1.8,3.1,3.9,4.2,5.7"/><path class="cls-2" d="m64.8,164.7c1.2,1.7,2.6,4.1,3.8,5.8"/><path class="cls-2" d="m59.5,155.5c-2.1.9-3.4,3.1-4.5,5.2"/><path class="cls-2" d="m59.2,165.1c-1.9,1.3-3.5,2.4-4.5,4.5"/><path class="cls-2" d="m60,178.5c1.4,2.2,2.9,5.1,4.3,7.3,0,0,0,0,0,0"/><path class="cls-2" d="m55.2,183.3c1.4-1.4,3.2-3.7,4.5-5.2"/><path class="cls-1" d="m99.9,48.3c-4.5,4.1-2.8-18.6-11.3-23.1-7.8-5.5-25.7-4.4-31.4-4-14.2.8-16.8,16.3-17.1,21"/><path class="cls-1" d="m78.9,93.3s0,0,0,.1"/><path class="cls-1" d="m55,90.8c-1.3-2.1-3.5-12.5-3.8-13.9,9.5,11.8,21.8,10.8,32.2,0,2,5.5-1.3,11.9-4.4,16.4"/></svg>