<?xml version="1.0" encoding="UTF-8"?><svg id="Latin_America" xmlns="http://www.w3.org/2000/svg" width="144.7" height="218" viewBox="0 0 144.7 218"><defs><style>.cls-1{stroke-linejoin:round;}.cls-1,.cls-2{stroke-linecap:round;}.cls-1,.cls-2,.cls-3{fill:none;stroke:#010101;}.cls-2,.cls-3{stroke-miterlimit:10;}.cls-4{fill:#454847;}.cls-4,.cls-5,.cls-6,.cls-7,.cls-8,.cls-9,.cls-10,.cls-11{stroke-width:0px;}.cls-5{fill:#4e453e;}.cls-6{fill:#2b2c2b;}.cls-7{fill:#cc4b81;}.cls-8{fill:#ae856a;}.cls-9{fill:#fff;}.cls-10{fill:#e7cfd6;}.cls-11{fill:#010101;}</style></defs><path class="cls-7" d="m127.6,190.6c-2.9-2.6-9.8-11-17.3-20.5,7.8,6,16.1,11.1,26.3,10.5,0,5.3.1,10.3.1,14.3-4.7-.4-5.3-1.6-9.1-4.3Z"/><path class="cls-4" d="m86.3,210.3c-4-4.9-8.8-13.9-12.4-21.6,11.8-3,25.4-14.5,31.8-24.6,11.4,12.7,18.4,28.5,31.1,30.8-2.7,15.6-8.4,23.5-29,22.9-12.6,0-17.7-2.1-21.4-7.5Zm45-8c2.4-2.9-2.1-6.6-4.5-3.7-2.4,2.9,2.1,6.6,4.5,3.7Zm-12.9-9.9c2.4-2.9-2.1-6.6-4.5-3.7-2.5,2.9,2.1,6.6,4.5,3.7Zm-2.9,21.9c2.4-2.9-2.1-6.6-4.5-3.7-2.4,2.9,2.1,6.6,4.5,3.7Zm-5.9-35.1c2.4-2.9-2.1-6.6-4.5-3.7-2.4,2.9,2.1,6.6,4.5,3.7Zm-2.4,23.8c2.4-2.9-2.1-6.6-4.5-3.7-2.4,2.9,2.1,6.6,4.5,3.7Zm-7.3-13.5c2.4-2.9-2.1-6.6-4.5-3.7-2.4,2.9,2.1,6.6,4.5,3.7Zm-5.8,18.8c2.4-2.9-2.1-6.6-4.5-3.7-2.4,2.9,2.1,6.6,4.5,3.7Zm-7.1-14.3c2.4-2.9-2.1-6.6-4.5-3.7-2.4,2.9,2.1,6.6,4.5,3.7Z"/><path class="cls-10" d="m80,109.9c.2.8,1.3.9,2,.5v.2c-1.8,1-3.7,1.9-5.5,2.7l-.2-.3c-.2,0-5.3-6.9-9.3-8.3,3.2-3,6.5-6.1,9.2-8.6,1.2,4.3,2.5,8.9,3.8,13.8Z"/><path class="cls-6" d="m134.6,96.3c-4.3-5.3-11.1-9.3-17.6-11.3,0-1.2.2-1.7.5-4.7,2.4-1.5,8.2-6.6,9.9-13.9,3.9,12.9,9.4,26.7,9.7,39.6-.4-4.5-1.1-8-2.5-9.7Z"/><path class="cls-5" d="m127.4,66.4c-2.6-9.4-5.7-18.7-10.4-26.5.2,0,.4-.2.7-.3-.2-.6-.9-1.2-1.9-1.7-5.1-8-11.9-14.8-21.3-20.2-30,24.4-9.8,61.9-12.4,92.8-.8.3-1.8.2-2-.5-6.7-25.4-14.1-44.5-11-73.2,2.9-39.6,53.6-43.5,67.7-7.9,8.7,27.1,11.9,53.8.6,82.6.2-15.2-5.3-30.2-10-45Z"/><path class="cls-10" d="m137.4,111.4c-.2.6-.5,1.2-.7,1.7.3-2.4.5-4.8.4-7.2.2,1.7.2,3.5.3,5.4Z"/><path class="cls-10" d="m136.7,113.2c-.2,1.7-.6,1.6,0,0h0Z"/><path class="cls-7" d="m130.8,198.2c2.9,2.4-.8,6.9-3.7,4.5-2.9-2.4.8-6.9,3.7-4.5Z"/><path class="cls-6" d="m120.7,86.4c.2,7.4-6.2,6.4-13,11l-.6-1.1c5.9-4,9.9-7.3,9.8-11.3,1.3,0,2.5.9,3.7,1.4h0Z"/><path class="cls-7" d="m117.9,188.3c3,2.4-.8,6.9-3.7,4.5-2.9-2.4.8-6.9,3.7-4.5Z"/><path class="cls-6" d="m115.7,37.8c.4.7.9,1.4,1.3,2.1-15.3,2.2-14.7-5.9-1.3-2.1Z"/><path class="cls-7" d="m115,210.2c2.9,2.4-.8,6.9-3.7,4.5-2.9-2.4.8-6.9,3.7-4.5Z"/><path class="cls-11" d="m110.5,44.9c2.9-.1,2.9,8.8,0,8.7-2.9.1-2.9-8.8,0-8.7Z"/><path class="cls-7" d="m110.1,112.8c1.7,5,1.8,10.3,1.6,15.6-2.3,1.1-4.6,2.1-7,3.1.5-9.9-.7-22-10.2-27.3,1.9-1,3.7-1.9,5.5-2.9,4.9,2,8.3,6.5,10,11.5Z"/><path class="cls-7" d="m109.1,175.1c2.9,2.4-.8,6.9-3.7,4.5-2.9-2.4.8-6.9,3.7-4.5Z"/><path class="cls-9" d="m112,68.5c-4.8,7.8-17,9.9-21.6,2.2h0c6.4,2,20.3-1.1,21.5-2.2Z"/><path class="cls-7" d="m107.2,96.3l.6,1.1c-14.3,9-18.1,5.5-12.9-10.7h.8c-1.2,9.4,1.1,15.3,11.5,9.6Z"/><path class="cls-7" d="m106.7,198.9c2.9,2.4-.8,6.9-3.7,4.5-2.9-2.4.8-6.9,3.7-4.5Z"/><path class="cls-7" d="m99.4,185.4c2.9,2.4-.8,6.9-3.7,4.5-2.9-2.4.8-6.9,3.7-4.5Z"/><path class="cls-10" d="m137.4,111.4c-.4.8-1.6,4.8-.7,1.7,2.8-13.6-4.1-22.2-16-26.8,1.6,7-14.6,10.6-20.6,15,10.3,4.4,12.4,17,11.6,27.1-2.3,1.1-4.6,2.1-7,3.1.5-9.9-.7-22-10.2-27.3,1.1-.6,2.1-1.1,3.2-1.6-8,.8-4.5-11.4-2.9-15.9l-.2-.4c-3,1.3-10.9,2.6-12.9,4.7h-.3c.3,6.3,2.9,14,.6,19.5v.2c2.9-1.4,5.8-2.9,8.7-4.3,7.5,5.4,10.2,15.4,9.1,24.6-2.6.8-7.9,2.6-13.9,4.5,0,1.9.2,2.5.3,4.5,11.5,12.4,27,43.1,50.3,40.8-1.1-25.4.4-41.2.8-69.2Z"/><path class="cls-6" d="m94.9,85.6v.5c-3.1,1.4-11,2.6-13.2,4.8h-.3c-1.4-9.4-3.3-18.8-3.6-28.1,0,10,9.6,18.9,17.2,22.8Z"/><path class="cls-7" d="m93.6,204.3c2.9,2.4-.8,6.9-3.7,4.5-2.9-2.4.8-6.9,3.7-4.5Z"/><path class="cls-6" d="m91,37.7c1.8,2.7-9.7,2.6-11,1.7.7-1.8,6.5-3.5,10.9-1.7,0,0,0,0,0,0Z"/><path class="cls-11" d="m85.6,45.4c2.4-.1,2.4,7.6,0,7.5-2.4.1-2.4-7.6,0-7.5Z"/><path class="cls-7" d="m86.5,189.9c2.9,2.4-.8,6.9-3.7,4.5-2.9-2.4.8-6.9,3.7-4.5Z"/><path class="cls-7" d="m76.4,112.9l.2.3c-2.1,1-4,1.9-5.8,2.7-1.1-2.2-4.8-6.8-8.1-7.1h0c1.4-1.4,2.9-2.8,4.4-4.3,4.1,1.4,9.1,8.2,9.3,8.3Z"/><path class="cls-7" d="m56.2,211.7c-6.6-1.1-14.6.7-22.8,1.2.2.1.4.2.5.3-4.3-2.4-9.2-5.1-11-9.9-1.6.3-3.3.4-5.1.4v.5c3,4.7,5.6,6.4,10.5,9.1v.2c-6.5,1.1-12.8.6-22.2-1.4-1,2.3-.1,1.8,1.1,3.7,9.4,3,34.6,2,48.7,1.6.7.2.4-5.7.4-5.7Z"/><path class="cls-8" d="m126.5,63.4c-2.4-8.6-5.4-16.5-9.6-23.5-15.3,2.2-14.7-5.9-1.3-2.1-5.1-8-11.9-14.8-21.3-20.2-19.6,16.1-26.1,55.7.5,68v.5c0,0-.2,0-.2.1l.2.4h.8c-3.5,21.4,16.4,8.5,21.1.7.2-3.4.2-2.7.7-7,2.4-1.5,8.2-6.6,9.9-13.9-.3-1-.6-2-.9-3Zm-16-18.5c2.9-.1,2.9,8.8,0,8.7-2.9.1-2.9-8.8,0-8.7Zm-24.8,8c-2.4.1-2.4-7.6,0-7.5,2.4-.1,2.4,7.6,0,7.5Zm-2.4-13c-1.2,0-2.2,0-3.2-.5.7-1.8,6.5-3.5,10.9-1.7,1,3-6,1.7-7.8,2.3Zm7.2,30.7h0c6.4,2,20.3-1.1,21.5-2.2-4.8,7.8-17,9.9-21.6,2.2Z"/><path class="cls-8" d="m82.9,136.3c5.6-1.8,14.1-4.6,16.9-5.5,1-9.2-1.7-19.2-9.1-24.6-6.5,3.3-13.4,6.8-19.9,9.8-1.1-2.2-4.8-6.8-8.1-7.1h0c-3.3,3.1-6.2,6-8,8-4.3,1.7-4.6,3.1-5.3,4.9-7.1,2.8-11.4.9-14.8,7.8-1.1,2.5-.4,10.2.2,11.2.7.7,2.9,1.2,5.7,1.6v.6c-4.8-1.1-7.8,2.7-1.1,2.9-6.5.8-4,4.6,1.5,4.3-2.8.2-7.2-1.2-6,2.4.5,1.3,2.1,1.5,3.8,1.5-6.2-.4-4.7,3.6.4,3.6,0,16.1-1.7,30.6-3.4,37.3h-.4c-3.1,4.5-7.2,7.4-12.5,8.5,6.5,13.7,18.7,8.1,29.4,8v-.2c6.6,0,4.1-9.5,2.4-13.7,0-17.5,7.6-32.1,8.5-32.2,2,4.5,4.1,8.5,5.9,12.5h0c.9,2.6,2.6,6.6,4.7,11,11.8-3,25.4-14.5,31.8-24.6-9.3-11.6-15.7-20.7-22.6-27.9Z"/><path class="cls-8" d="m17.7,204.3v-.5c-6.6-1.5-14.6,1-8.6,8.5v.5c9.9,1.9,12.3,1.7,19.1.8v-.2c-4.9-2.7-7.5-4.4-10.5-9.1Z"/><path class="cls-2" d="m117.6,85c6.3,2.6,12.9,5.9,17,11.3,6.1,13.4.9,42.6,1.5,53.1,0,13.1.6,31.9.5,45.5-4.7-.4-5.3-1.6-9.1-4.3"/><path class="cls-2" d="m84.9,108.9c.3-2.3,1.5-6.7,1.8-8.4"/><path class="cls-2" d="m97.8,102.6c-10.9,5.4-22.8,12.4-34.1,16.1-7.7,1.1-16.1,3.7-22.2,5.4-8,.7-8.6,11.6-6.7,16.7"/><path class="cls-2" d="m100.1,101.4c-.8.4-1.5.8-2.3,1.2"/><path class="cls-1" d="m117.1,92.6c-3.2,1.5-12.1,6.3-17,8.8"/><path class="cls-2" d="m99.9,130.8c-21.5,6.4-42.9,17.5-65.1,10.1"/><path class="cls-2" d="m129.2,120.8c-10.3,3.3-19.5,9.6-30,12.7"/><path class="cls-2" d="m76.3,96.1c-6.3,5.9-16,14.8-21.6,20.9"/><path class="cls-2" d="m94.9,86.1c-3.1,1.4-11,2.6-13.2,4.8"/><path class="cls-2" d="m82.9,136.3s0,0-.1,0"/><path class="cls-1" d="m86.2,139.8c-1.5-1.7-2.6-3-3.3-3.5"/><path class="cls-2" d="m105.6,164.1c-7.5-9.6-15-19.2-19.3-24.3"/><path class="cls-3" d="m110.3,170.1c-1.5-2-3.1-4-4.7-6"/><path class="cls-2" d="m127.6,190.6c-2.9-2.6-9.8-11-17.3-20.5"/><path class="cls-2" d="m68.5,117c-.8-3-16.9-2.5-19.1,4.9"/><path class="cls-2" d="m54.7,197.4c0-17.5,7.6-32.1,8.5-32.2"/><path class="cls-2" d="m136.7,194.9c-2.7,15.6-8.4,23.5-29,22.9-12.6,0-17.7-2.1-21.4-7.5"/><path class="cls-2" d="m39.1,157.6c0,16.2-1.7,30.5-3.5,37.5"/><path class="cls-2" d="m58.7,151.8c1.5,8.9,7.1,18.8,10.9,26.9"/><path class="cls-2" d="m88.2,212.5c-7.3-7.6-15-24.3-19.1-34.8"/><path class="cls-1" d="m54.7,197.4c1.7,4.2,4.3,13.7-2.4,13.7"/><path class="cls-1" d="m56.2,211.1c-16.8,0-31.8,5.7-50.2,1.1"/><path class="cls-1" d="m7.2,215.9c9.4,3,34.6,2,48.7,1.6.7.2.4-5.7.4-5.7"/><path class="cls-1" d="m6,212.2c-1,2.3-.1,1.8,1.1,3.7"/><path class="cls-2" d="m38.7,154c-1.7,0-3.4-.1-3.8-1.5-1.3-3.6,3.2-2.2,6-2.4.8,0,1.4-.3,1.8-.7,2.3-3.3-.6-3.5-3.3-3.6-3.8.6-5.6-2.8-1.5-2.9"/><path class="cls-2" d="m37.8,142.9c4.2-.4,8.6,1.5,1.5,2.9-2.7.6-6.1,1.3-2.4,3.8.6.4,2.3.4,3.9.5,5.5,0,2.2,4.6-2.1,3.9,0,0,0,0,0,0-6.2-.4-4.7,3.6.4,3.6,6.3.6,5.1-4.4-.4-3.6"/><path class="cls-2" d="m95.7,86.3c-3.5,21.7,16.1,9.2,21.1,1"/><path class="cls-1" d="m116.8,87.3c.2-3.4.2-2.7.7-7"/><path class="cls-1" d="m86,135.1c0,2,.2,2.6.3,4.7"/><path class="cls-3" d="m90.7,106.2c8,5.8,11.1,17.7,8.5,27.3"/><path class="cls-2" d="m105.1,164.5c-5.9,10.2-19.9,21.2-31.3,24.2"/><path class="cls-1" d="m35.3,194.8c-4.5,7.1-12.4,9.9-20.5,8.8-6-1.7-10.4,4.1-5.7,8.7"/><path class="cls-1" d="m33.9,213.3c-.6-.4-2.3-1.5-2.5-1.6"/><path class="cls-1" d="m23,204c2.5,4.3,6.6,7,10.9,9.2"/><path class="cls-1" d="m17.7,204.3c3,4.7,5.7,6.4,10.5,9.1-.2,0-.4-.1-.6-.2"/><path class="cls-2" d="m62.7,108.9c3.4.3,7,4.9,8.1,7.1h0"/><path class="cls-2" d="m94.6,104.2c9.4,5.3,10.7,17.4,10.1,27.3"/><path class="cls-2" d="m100.1,101.4c10.3,4.4,12.4,17,11.6,27.1"/><path class="cls-2" d="m67.1,104.7c4.1,1.4,9.1,8.2,9.3,8.2"/><path class="cls-2" d="m94.9,86.7c-1.6,4.5-5.1,16.8,2.9,15.9"/><path class="cls-2" d="m120.7,86.4c.7,2.6-1.2,5.2-3.6,6.2"/><path class="cls-1" d="m77.7,60c-1.2,11.1,8.6,21.3,17.2,25.6,8.3,4.4,29.3-4.4,32.6-19.9"/><path class="cls-1" d="m117,39.9c-21.7,2.1-7.2-8.1.7-.3-.2.1-.4.2-.7.3Z"/><path class="cls-1" d="m87.5,49.2c0,4.9-3.7,4.9-3.7,0,0-4.9,3.7-4.9,3.7,0Z"/><path class="cls-1" d="m112.8,49.2c0,5.6-4.6,5.6-4.5,0,0-5.6,4.6-5.6,4.5,0Z"/><path class="cls-1" d="m90.6,61.4c0,3,9.5,3.9,12,2.6"/><path class="cls-1" d="m89.9,70.4c6.3,2.5,20.7-.7,22-1.9-4.8,7.8-17,9.9-21.6,2.2"/><path class="cls-1" d="m91,37.7s0,0,0,0"/><path class="cls-1" d="m91,37.7c1.8,2.7-9.7,2.6-11,1.7.7-1.8,6.5-3.5,10.9-1.7,0,0,0,0,0,0Z"/><path class="cls-1" d="m136.7,113.2c2.1-15.7-4.7-31.4-9.3-46.8-5.4-20.3-13.8-37.9-33-48.8"/><path class="cls-1" d="m136.7,113.2c-.6,1.6-.2,1.7,0,0h0Z"/><path class="cls-1" d="m69.1,36.7c3-39.6,53.6-43.5,67.7-7.9,9,27.6,12,55.3,0,84.3"/><path class="cls-1" d="m94.4,17.6c-30,24.4-9.8,61.9-12.4,92.8-.8.3-1.8.2-2-.5-6.7-25.4-14.1-44.5-11-73.2"/><path class="cls-3" d="m113.8,188.7c-2.5,2.9,2.1,6.6,4.5,3.7,2.4-2.9-2.1-6.6-4.5-3.7Z"/><path class="cls-3" d="m110.9,210.6c-2.4,2.9,2.1,6.6,4.5,3.7,2.4-2.9-2.1-6.6-4.5-3.7Z"/><path class="cls-3" d="m105,175.5c-2.4,2.9,2.1,6.6,4.5,3.7,2.4-2.9-2.1-6.6-4.5-3.7Z"/><path class="cls-3" d="m95.3,185.8c-2.4,2.9,2.1,6.6,4.5,3.7,2.4-2.9-2.1-6.6-4.5-3.7Z"/><path class="cls-3" d="m126.7,198.6c-2.4,2.9,2.1,6.6,4.5,3.7,2.4-2.9-2.1-6.6-4.5-3.7Z"/><path class="cls-3" d="m89.5,204.7c-2.4,2.9,2.1,6.6,4.5,3.7,2.4-2.9-2.1-6.6-4.5-3.7Z"/><path class="cls-3" d="m102.6,199.3c-2.4,2.9,2.1,6.6,4.5,3.7,2.4-2.9-2.1-6.6-4.5-3.7Z"/><path class="cls-3" d="m82.4,190.3c-2.4,2.9,2.1,6.6,4.5,3.7,2.4-2.9-2.1-6.6-4.5-3.7Z"/><path class="cls-3" d="m136.6,180.6c-10.2.6-18.4-4.5-26.3-10.5"/></svg>