<?xml version="1.0" encoding="UTF-8"?><svg id="Latin_America" xmlns="http://www.w3.org/2000/svg" width="138" height="203.8" viewBox="0 0 138 203.8"><defs><style>.cls-1{stroke-linejoin:round;}.cls-1,.cls-2{stroke-linecap:round;}.cls-1,.cls-2,.cls-3{fill:none;stroke:#010101;}.cls-2,.cls-3{stroke-miterlimit:10;}.cls-4{fill:#51b248;}.cls-4,.cls-5,.cls-6,.cls-7,.cls-8,.cls-9,.cls-10{stroke-width:0px;}.cls-5{fill:#45322e;}.cls-6{fill:#d14c4a;}.cls-7{fill:#b2794d;}.cls-8{fill:#fff;}.cls-9{fill:#e94624;}.cls-10{fill:#010101;}</style></defs><path class="cls-9" d="m85.3,196.4h0c-5.9-5.4-15.1-25-17.8-32.4h0c-1.1-2.4-2.3-4.6-3.5-7.2,10.6-2.8,21.5-9.4,27-18.9h0c10.8,13.7,26.3,34,31,38.1v.4c2.6,1.9,5.4,2.9,8.5,3.5-1.7,9.5-3.1,19.1-14.3,22.3-9.4,3.2-23.9,1.9-30.9-5.8Z"/><path class="cls-5" d="m69.7,36.7C65.8,15,77.4-.9,99.1,1.3c9.9.2,14.5.3,20.4,8.7,4,5.8,8.2,19.4,7.4,28-1.3-.3-2.7.3-3.3,1.7h0c0,1.6-2.5,1.8-3.4.5-.8-1.3,0-3,0-4.6.8-7.1-3.6-18.2-11.3-16.9-8.2,2.8-16.4,6.6-25.3,5.5-2.4-.3-6.6-2.5-8.8-1.8-4.8,1.6-5.4,10.8-5.1,14.6,0,0,0-.2,0-.3Z"/><path class="cls-6" d="m109.5,130.8c-.4,3,1.3,12.2-3.5,10.9-6.4-4.1-13.8-9-18.1-16,4.7-1.5,10.6-4.1,16.5-6.8,4.2,2.4,5.3,7.1,5,11.9Z"/><path class="cls-10" d="m105.5,38.9c2.6-.1,2.6,8.1,0,8-2.6.1-2.6-8.1,0-8Z"/><path class="cls-8" d="m133.4,133.2c-.9-22.2,4.1-49.5-21.3-55.7-1.3,9.3-23.8,22-19.9,1.3-.3,0-.5-.1-.8-.2-3.2,1.2-10.5,2.6-12.3,4.4-3.7,3.7-19.7,18.1-25.3,24.3,9.1-3.6,12-.8,12.9,0,3.3-1.4,7.8-3.6,12.7-6,7.3,4.5,9.4,12.9,8.3,21.4-1.3.4-2.9,1-4.7,1.5,0,1.9.2,2.4.2,4.4,10.8,12.7,32.5,42.1,38.6,47.4v.4c3.5,2.5,7.3,3.5,11.5,3.9,0-10.9,0-37.1,0-47.1Zm-24.7,7.4c-1.9,5.4-19.4-11.4-20.8-14.9,4.7-1.5,10.6-4.1,16.5-6.8,7,4.2,5.2,14.8,4.3,21.7Z"/><path class="cls-8" d="m103.1,61.8c-5.2,1.4-14.4,2.9-19.4,1h0c4.5,12.1,26.5,1.1,19.5-1Z"/><path class="cls-4" d="m92.3,78.3c0,.1,0,.3,0,.5-.3,0-.5-.1-.8-.2.3-.1.5-.2.8-.3Z"/><path class="cls-10" d="m79.8,39.3c2.2,0,2.1,7,0,6.9-2.1.1-2.2-7,0-6.9Z"/><path class="cls-6" d="m34.6,199.2c0,0-.2-.1-.4-.3,7.2-.9,15.6-1.4,21.3-1.7,0,0,.6,5.6,0,5.4-12.9,1.2-37,1.2-45.7-.9-1.2-1.7-2-1.3-1.1-3.5,11,2.5,16.5,2,25.5.7.2,0,.3.2.5.3Z"/><path class="cls-6" d="m24.4,190.6c2.2,3.8,5.8,6.3,9.7,8.4-1.8.2-3.4.4-4.7.6v-.2c-4.6-2.5-7-4.1-9.8-8.5v-.5c1.7,0,3.3,0,4.8-.4v.6Z"/><path class="cls-7" d="m92.3,78.8c-1.1,8.9.9,14.7,10.7,9.3,8.3-5.7,9.7-7.3,9.5-15.5h-1.3c6.4-4.8,11.5-11.7,11.7-19.4,4.8.6,7-6.1,7.1-10,.3-3.7-4-7.6-6.3-3.5h0c0,1.6-2.5,1.8-3.4.5-.8-1.3,0-3,0-4.6.7-7.1-3.5-18.2-11.3-16.9-14.3,5.5-19.2,7-34.1,3.7-5.1,3-5.5,9.5-4.8,16.5-5.6.3-3.4,16.4,1.8,14.9m0,0c.7,12,8.7,21.4,19.7,24.9.3-.1.5-.2.8-.3,0,.1,0,.3,0,.5m15.2-35.9c0,5.2-4.1,5.2-4.1,0,0-5.2,4.1-5.2,4.1,0Zm-29.4-.2c0-4.5,3.4-4.5,3.3,0,0,4.5-3.4,4.5-3.3,0Zm5.5,20.2h0c5,1.7,14.3.3,19.4-1.2,7,2.2-14.9,13.2-19.5,1.2Z"/><path class="cls-7" d="m41.7,114c-7.4.5-8.1,10.9-6.3,15.6,2.2.7,4.3,1.2,6.4,1.6-.3,0-.5,0-.8,0v.5c1.2.1,1.9.4,2.1.7-9.9-3.7-8.6,5.4,0,.6-.4.6-1.9,1.1-3.4,1.4-5.9.7-3.6,3.6-.4,4-4.8-1.1-5.5,3.4-.9,3.6-7.9.7,1.3,5,4.3,3-.6.4-1.7.5-3.1.4,0,15-1.6,30.5-3.2,36.8h-.4c-2.9,4.2-6.7,6.9-11.6,7.9,5.7,12.6,17.7,7.6,27.5,7.5v-.2c6.2,0,3.8-8.8,2.2-12.8,0-16.3,7.1-31.9,8-32.1.7,1.5,1.4,3,2,4.4,10.6-2.8,21.5-9.4,27-18.9h0c-4-5-7.2-9.4-10.7-12.6,2.5-.8,5-1.7,7.6-2.5,1.2-8.5-1-16.8-8.3-21.4-4.2,2.5-8.5,4.3-12.8,5.8-1.1-2.6-15.9-2-17.7,4.7"/><path class="cls-7" d="m19.5,190.8v-.5c-6.1-1.4-13.6.9-8,7.9v.5c9.2,1.7,11.5,1.5,17.8.7v-.2c-4.6-2.5-7-4.1-9.8-8.5Z"/><path class="cls-2" d="m112.7,77.6c24.9,6.8,19.8,33.5,20.8,55.6,0,10,.1,36.1,0,47.1-4.2-.4-8.1-1.3-11.7-3.9"/><path class="cls-2" d="m82.2,99.8c.3-2.2,1.4-6.2,1.7-7.8"/><path class="cls-2" d="m103.5,89.1c-11.6,5.7-28.7,15.7-41.1,19.9-7.2,1-15,3.5-20.7,5.1-7.4.5-8.1,11-6.3,15.6"/><path class="cls-1" d="m112.2,84.6c-1.4.7-4.6,2.3-8.7,4.5"/><path class="cls-2" d="m88.2,122.6c-18.9,6.1-33.3,13.1-52.9,7"/><path class="cls-2" d="m123.5,110.9c-9.9,3.2-25.9,11.8-36.4,15"/><path class="cls-1" d="m91.5,78.6c-3.2,1.2-10.5,2.6-12.3,4.4-3.7,3.7-19.7,18.1-25.3,24.3"/><path class="cls-2" d="m92.3,78.3c-.2.1-.5.2-.8.3"/><path class="cls-1" d="m83.4,128.7c-1.5-1.7-2.6-2.9-3.2-3.4"/><path class="cls-2" d="m122,176c-6-5.3-27.8-34.6-38.6-47.4"/><path class="cls-2" d="m66.8,107.4c-.6-2.8-15.9-2.3-17.8,4.5"/><path class="cls-2" d="m54,184.5c0-16.3,7.1-31.9,8-32.1"/><path class="cls-2" d="m130.5,180.1c-1.7,9.5-3.1,19-14.3,22.1-9.8,3.2-24.7,1.9-31.6-6.5"/><path class="cls-2" d="m39.5,145.3c0,15.1-1.6,30.5-3.2,37"/><path class="cls-2" d="m57.8,139.8c.7,4,2.3,8.3,4.2,12.6h0c1.9,4.3,4.1,8.5,6,12.6"/><path class="cls-2" d="m85.3,196.5c-5.9-5.4-15.1-25-17.8-32.4"/><path class="cls-1" d="m54,184.5c1.6,3.9,4,12.8-2.2,12.8"/><path class="cls-1" d="m55.4,197.2c-15.4,0-29.8,5.3-46.8,1"/><path class="cls-1" d="m9.7,201.7c8.7,2.1,32.9,2.1,45.7.9.6.2,0-5.4,0-5.4"/><path class="cls-1" d="m8.6,198.3c-.9,2.1,0,1.7,1.1,3.5"/><path class="cls-2" d="m39.1,141.9c-1.6,0-3.1-.1-3.6-1.4-1.2-3.4,3-2.1,5.5-2.2.8,0,1.4-.2,1.7-.7,2.2-3-.5-3.2-3-3.4-3.5.5-5.2-2.6-1.4-2.7"/><path class="cls-2" d="m38.3,131.6c1.8-.2,8.2.5,3.1,2.3-2.1.7-8.3,1.1-4,4,1.3.9,9.4-.4,5.2,3.5-1.1,1.3-9.5-.6-6.9,2.8.9,1.2,8.2,2.1,7.8-.6-.3-1.7-2.4-1.6-4.4-1.6"/><path class="cls-2" d="m92.3,78.3c-3.4,20.7,14.7,9.4,19.7,1.4"/><path class="cls-1" d="m111.9,79.7c.2-3.3.5-2.7.5-7.1"/><path class="cls-1" d="m83.2,124.3c0,1.9.2,2.4.2,4.4"/><path class="cls-1" d="m69.7,37c2.5,9.2.2,26.2,9.4,33.9,10.3,9.2,17.9,11.7,31.6,1.6,4.2-3.4,7.4-4.5,10.2-11.2"/><path class="cls-1" d="m69.2,31.3c.1,2.2.3,3.8.5,5.5"/><path class="cls-1" d="m74.7,35.6c1.2-1,7.7-1.2,8.9-.7"/><path class="cls-1" d="m101.5,34.5c2.3-1.2,8.5-.4,9,.5"/><path class="cls-1" d="m81.4,42.7c0,4.5-3.4,4.5-3.3,0,0-4.5,3.4-4.5,3.3,0Z"/><path class="cls-1" d="m107.5,42.9c0,5.2-4.1,5.2-4.1,0,0-5.2,4.1-5.2,4.1,0Z"/><path class="cls-1" d="m88.2,49.2c-.5,3.1-4.6,8,6.6,7.8"/><path class="cls-1" d="m83.1,62.6c5.2,2.2,14.6.6,20-.8,7,2.2-15,13.1-19.5,1.2"/><path class="cls-1" d="m122.8,53.3c-.7,4.1-.8,6.1-1.9,7.9"/><path class="cls-1" d="m69.7,37C65.7,15.2,77.2-.9,99.1,1.3c9.9.2,14.5.3,20.4,8.7,4,5.8,8.1,19.4,7.4,27.9"/><path class="cls-1" d="m123.5,39.9c2-4.5,6.8-.7,6.4,3.2,0,4.1-3.7,12.9-8.6,9.1"/><path class="cls-1" d="m69.9,38.8c-5.3.5-3.2,16.4,2,14.8"/><path class="cls-1" d="m123.7,39.7c0,1.6-2.5,1.8-3.4.4-.8-1.3,0-3,0-4.6.8-7.1-3.6-18.2-11.3-16.9-8.2,2.8-16.4,6.6-25.3,5.5-2.4-.3-6.6-2.5-8.8-1.8-4.8,1.6-5.4,10.8-5.1,14.6"/><path class="cls-3" d="m79.5,101.4c8.1,5,10.2,15.6,7.6,24.6"/><path class="cls-2" d="m90.9,137.9c-5.5,9.5-16.4,16.1-27,18.9"/><path class="cls-1" d="m35.9,182c-4.2,6.6-11.6,9.2-19.1,8.2-5.6-1.6-9.7,3.8-5.3,8.1"/><path class="cls-1" d="m34.6,199.2c-.6-.4-2.2-1.4-2.3-1.5"/><path class="cls-1" d="m24.4,190.6c2.3,4,6.1,6.5,10.2,8.6"/><path class="cls-1" d="m19.5,190.8c2.8,4.3,5.3,6,9.8,8.5-.2,0-.4-.1-.5-.2"/><path class="cls-3" d="m104.5,118.9c7,4.2,5.2,14.8,4.3,21.7-1.9,5.4-19.4-11.4-20.8-14.9"/></svg>