<?xml version="1.0" encoding="UTF-8"?><svg id="Asia" xmlns="http://www.w3.org/2000/svg" width="164.1" height="244" viewBox="0 0 164.1 244"><defs><style>.cls-1{stroke-linejoin:round;}.cls-1,.cls-2{stroke-linecap:round;}.cls-1,.cls-2,.cls-3{fill:none;stroke:#010101;}.cls-2,.cls-3{stroke-miterlimit:10;}.cls-4{fill:#2e241c;}.cls-4,.cls-5,.cls-6,.cls-7,.cls-8,.cls-9,.cls-10,.cls-11,.cls-12{stroke-width:0px;}.cls-5{fill:#debea3;}.cls-6{fill:#e1a739;}.cls-7{fill:#e41a55;}.cls-8{fill:#b57e66;}.cls-9{fill:#f3703c;}.cls-10{fill:#fff;}.cls-11{fill:#fcb11d;}.cls-12{fill:#010101;}</style></defs><path class="cls-9" d="m122.4,132.3c-5.2,2.3-11.3,4.9-16.7,7,5-9.5,0-25.2-6.7-32.3.7-.4,1.8-1,3.1-1.8-.7-.7-1.6-2-2.5-3.8,3.6.5,11.3-4.9,23.8-17.2h0c24.1,8.8,21.9,38.8,16.9,57.3-4.2,1.7-15.8-5.3-17.9-9.2Z"/><path class="cls-11" d="m122.4,132.3c2.1,3.9,13.7,10.9,17.9,9.2-.8,4.1-1.9,6.8-2,10.6-10.2-1-21-5.6-26.8-15.1,3.7-1.5,7.5-3.1,10.9-4.6Z"/><path class="cls-12" d="m115.9,42c2.7-.1,2.7,7.8,0,7.7-2.7.1-2.7-7.8,0-7.7Z"/><path class="cls-11" d="m115.5,243.3h0c-3.8,0-7.4-.3-10.9-.9-18.6-23.5-4.9-64.5-19.3-91.2,23.7,22.3,4.8,70.5,30.2,92.1Z"/><path class="cls-10" d="m115.6,61.6c-2.7,8.1-12.7,12.1-17.7,4.9,6.1,1.6,16.8-3.4,17.7-4.9Z"/><path class="cls-11" d="m88.3,114.2c-.4-.5-.8-.9-1.3-1.4,0-.2,0-.4,0-.5,3.2-1.4,8.6-3.4,12-5.2,6.7,7.1,11.7,22.8,6.7,32.3-3.1,1.2-7.8,3-10.1,3.5,0-8.7.5-19.2-7.2-28.7Z"/><path class="cls-11" d="m99.5,101.4c.9,1.7,1.9,3.1,2.5,3.8-2.1,1.3-2.9,1.8-4.7,2.6-2.7-7.2-3.9-14.9-3-22.9l-1.2-.2c1-.3,2.1-.5,3.1-.6-1.1,6.6,1.1,13.1,3.3,17.3Z"/><path class="cls-4" d="m133.5,13.1c-5.2-9-27.4-18.3-34.5-7.7-20-4.1-25.8,21.8-18.9,36.2.5-.5,1.2-.9,2-1.3-4.4-10.7,11.4-21.7,15.1-21.8,11.3-2.9,15.2,8.6,36.3,20.5,0,.7,0,1.4,0,2.1h0c1.1-1.7,3.1-1.1,4.8-1.2,2.2-9.1.4-19.1-4.8-26.9Z"/><path class="cls-4" d="m131.7,53.7c-1.8,7.1-5.1,11.8-8.8,16.8,0,1.1-.1,2.3-.1,3.5,4.4,5.9,23.9-8.4,11.4-20-.8.2-1.6.1-2.4-.3Z"/><path class="cls-4" d="m123.6,37c-1.5-1.7-9.1-5.7-12.8-3.6-2.4,1.2-3,2.8-1.4,2.7,4.6-2.2,9.5-1.4,14.2.9Z"/><path class="cls-4" d="m94.8,33.4c-3.2-2-8.3,2.1-9.3,3.8.1.1,2.6-1.8,4.5-2.3,3.3-.8,5.2,1,6.3,1.1,1.3,0,.5-1.5-1.5-2.6Z"/><path class="cls-6" d="m95.6,137.7c0,2.4,0,4.2,0,5.1-.6.2-3.9-3.1-5.4-3.6,1.8-.5,3.6-1.5,5.5-1.5Z"/><path class="cls-12" d="m91.7,42.5c2.2,0,2.2,6.8,0,6.7-2.2.1-2.2-6.8,0-6.7Z"/><path class="cls-11" d="m87,112.8l-.4-.4c.1,0,.2,0,.3-.1,0,.2,0,.4,0,.5Z"/><path class="cls-9" d="m86.6,87.7c-3.4,7.7-5,18.5-5.2,24.7h-.4c-1.9-6.1-4.4-8.2-8.5-13.1,6.5-5.9,6.6-7.2,14.1-11.7Z"/><path class="cls-11" d="m67.2,107.7c-.5-.6-1.1-1.3-1.6-1.9,2.5-2.3,4.9-4.5,7-6.5,4.1,4.9,6.6,6.9,8.5,13.1h.4c-.1,3.1.1,5.1.6,4.9-2.1,1.1-4.5,2.2-6.9,3.4-2.1-4.6-4.8-9-8-12.9Z"/><path class="cls-11" d="m65.4,227.5c4.8,28.2-55.5,11.1-58.8,13.2,1.4-3.5,2.8-7.2,4.2-11,17.8,4.9,37.2,4.1,54.6-2.2Z"/><path class="cls-7" d="m141.3,186.9c5.5-2.7-4.5-29.2-3-34.8-10.2-1-21-5.6-26.8-15.1-4.8,1.9-11.5,4.7-15.9,5.9-5.7-3.5-3.8-4.6-11.4-1.6.5,2.6.5,5.7.3,8.4,8.2,10.2,13.1,18,13.4,32,2.5,16.8,2.1,50.5,17.7,61.7h0c12.5,1.3,28-3.2,28.7-16.9,9.5-8.7-1.3-19.2-2.9-39.5Z"/><path class="cls-7" d="m78.1,143.2c-15.8,4.2-26.6,9.4-43.5,8.9,0,.6-.2,1.3-.3,1.9,4.7.2,3.3,2.6-.6,3.4,0,0,0,0,0,0,2.9.2,5.7.6,3.2,4.1-.4.5-1.1.8-2,.8,6.5.2,2.5,5.2-2.5,4.5,8.8-.6,6,6-1.7,3.8-4.7,17.6-12.7,40-19.9,59.1,17.8,4.9,37.2,4.1,54.6-2.2,0-9.4-.8-24.4-1.4-39.6,7.7,18.2,18,51.6,40.7,54.4-21.1-25.5-.2-75.5-26.5-99.2Z"/><path class="cls-7" d="m82,117.3c2.5-1.2,4.3-2.1,6.3-3.1-.5-.6-1.1-1.2-1.7-1.8,2.8-1.2,7.6-3.1,10.8-4.6-2.7-7.2-3.9-14.9-3-22.9-2.7-.4-5.4,1.6-7.8,2.7-3.5,9.2-6.5,22.4-4.6,29.6Z"/><path class="cls-7" d="m65.1,125.3h0c-3.2-1.4-5.5-3.8-9-4.3-5.6-.8-15.2,4.7-15.8,10.1,6.5-1.6,16.4-1.9,24.8-5.9Z"/><path class="cls-5" d="m35,162.5c-.7,0-1.4,0-2.1,0,0,0,0,0,0-.1.7,0,1.4,0,2.1.1Z"/><path class="cls-5" d="m31.7,166.9c.2,0,.4,0,.6,0-.2,0-.4,0-.7,0,0,0,0,0,0,0Z"/><path class="cls-8" d="m140,42.5c-.8-2.6-4.8-3.8-6.5-1.5h0c0-.7,0-1.4,0-2.1-21.1-11.9-25-23.4-36.3-20.5-3.6.1-19.4,11.1-15.1,21.8-6.5,2-2.3,13,1.3,15.3h.1c2.2,7.1,7.9,15.3,12.4,20.5,0,5.7-.5,20.6,3.5,25.3,3.6.5,11.3-4.9,23.8-17.2h0c-1.4-2.3-.9-10-.5-13.6,0,0,0-.2,0-.3,0,0,0,.1,0,.2,3.8-5,7.1-9.7,8.8-16.8,5.1,2.4,9.5-7.3,8.3-11.2Zm-24.4,19.1c-2.7,8.1-12.7,12.1-17.7,4.9,6.1,1.6,16.8-3.4,17.7-4.9Zm.3-11.9c-2.7.1-2.7-7.8,0-7.7,2.7-.1,2.7,7.8,0,7.7Zm-24.2-.5c-2.2.1-2.2-6.8,0-6.7,2.2,0,2.2,6.8,0,6.7Zm-1.7-14.3c-1.9.5-4.3,2.4-4.5,2.3.9-1.7,6-5.8,9.3-3.8,2,1.1,2.8,2.7,1.5,2.6-1.1,0-3-1.9-6.3-1.1Zm27.3-.1c-4.5-.8-6.5,1.2-7.9,1.3-1.6,0-1-1.5,1.4-2.7,3.7-2.1,11.3,1.9,12.8,3.6-.1.1-3.8-1.8-6.3-2.2Z"/><path class="cls-8" d="m87.3,114.7c-3.7,1.8-8.1,4-12.2,6-2.1-4.6-4.8-9-8-12.9-5.8,7-7.5,9.8-11,13.2h0c3.5.5,5.8,2.9,9,4.3h0c-14.1,8-46.1,1-40.1,23.8,18.1,10,51.5-7.2,70.6-11.4,0-6.2-.9-16.1-7.3-23.6-.3.1-.6.3-1,.5Z"/><path class="cls-8" d="m35,162.5c.9,0,1.7-.3,2-.8,2.5-3.5-.3-3.9-3.2-4.1-3,.5-7.7,1.4-3.3,4.3.9.5,3.1.4,4.4.6-2.6.3-8.3-1.5-6.8,2.8.5,1.5,2.5,1.7,4.2,1.7-4.7-.5-6.7,2.4-1.6,3.8,7.7,2.2,10.5-4.4,1.7-3.8,5,.7,9-4.3,2.5-4.5Z"/><path class="cls-8" d="m35.4,157c7.7-3.1-9-4.9-6.1-.3.6.9,4.6,1.1,6.1.3Z"/><path class="cls-2" d="m141.3,186.9c2.5,17.9,7.3,26.3,6.5,34"/><path class="cls-2" d="m123.4,84.1c28.8,11,19.1,46.5,14.9,68,0,7.9,3.7,21.7,5,31.2"/><path class="cls-2" d="m82,117.3c-1.9-7.3,1.1-20.5,4.6-29.6"/><path class="cls-2" d="m88.4,114.1c-9.9,4.6-22.8,12.1-33.1,14.4-13.6,2.7-35.8,2.4-30.3,20.5"/><path class="cls-2" d="m122.4,92.1c-8.2,5.1-24.7,16.9-35.7,20.3"/><path class="cls-2" d="m90.1,139.2c-17.8,4.9-48.2,19.2-65.1,9.9"/><path class="cls-2" d="m94.7,137.7c-1.5.5-3,1-4.5,1.5"/><path class="cls-2" d="m101.9,140.7c-7.5,2.9-5.6,2.6-11.8-1.5"/><path class="cls-1" d="m105.6,139.3c-1.3.5-2.6,1-3.7,1.4"/><path class="cls-2" d="m131.2,128.3c-7.1,3.5-17.5,7.9-25.6,11"/><path class="cls-2" d="m67.2,107.7c-5.8,6.9-7.5,9.9-11,13.2"/><path class="cls-2" d="m86.6,87.7c-9,5.4-12.9,11.1-21.1,18.2"/><path class="cls-3" d="m90.1,85.9c-1.2.5-2.3,1.1-3.4,1.7"/><path class="cls-2" d="m96.2,84.1c-2,.2-4.2.9-6.1,1.8"/><path class="cls-2" d="m92.2,159.9c-4.1-5.1-10.3-13.4-14-16.6"/><path class="cls-2" d="m122.4,196.6c-9.6-9.4-21.2-25.6-30.2-36.7"/><path class="cls-2" d="m86.6,112.4c9,8.8,9.2,21.5,8.9,30.4"/><path class="cls-2" d="m65.1,125.3c-3.2-1.4-5.5-3.8-9-4.2-5.6-.8-15.2,4.7-15.8,10.1"/><path class="cls-2" d="m63,160.3c.3,19.3,2.3,50.9,2.4,67.3,4.7,28.8-56.3,10.3-58.9,13.5"/><path class="cls-2" d="m144.2,226.4c-1.6,24-48.2,21.2-58.5,4.2"/><path class="cls-2" d="m30.8,170.7c-5.8,21.3-15.6,48.2-24.3,70.4"/><path class="cls-2" d="m31.7,166.9s0,0,0,0"/><path class="cls-2" d="m32.8,162.3s0,0,0,.1"/><path class="cls-2" d="m33.8,157.4s0,0,0,0"/><path class="cls-2" d="m34.7,152.3c0,.6-.1,1.2-.2,1.7"/><path class="cls-2" d="m85.7,230.7c-7.2-6.7-18.3-33.5-21.7-42.9"/><path class="cls-2" d="m35,162.5c.9,0,1.7-.3,2-.8,2.6-3.6-.6-4-3.5-4.1-4.4.6-7-3-2-3.4"/><path class="cls-2" d="m32.4,166.9c-1.7,0-3.8-.2-4.2-1.7-1.5-4.2,4.2-2.5,6.8-2.8"/><path class="cls-2" d="m31.6,154.2c4.5-.9,9.5,1.5,2,3.4-8,1.1-4.7,5.2,1.4,4.9,0,0,0,0,0,0,7.1.4,1.6,5.4-3.2,4.5-4.8-.4-5.3,2.8-1,3.8,7.7,2.2,10.5-4.4,1.7-3.8"/><path class="cls-2" d="m84.2,141.2c.5,2.8.5,6.1.2,9"/><path class="cls-1" d="m99,107c6.7,7.1,11.7,22.8,6.7,32.3"/><path class="cls-1" d="m65.5,105.8c3.9,4.4,7.2,9.5,9.6,14.9"/><path class="cls-1" d="m72.5,99.3c4.1,4.9,6.6,6.9,8.5,13.1"/><path class="cls-1" d="m122.8,70.6c0,0,0-.2,0-.2"/><path class="cls-3" d="m123.3,84.2c-1.4-2.3-.9-10-.5-13.6"/><path class="cls-3" d="m123.9,84.7c-.2-.1-.4-.3-.5-.5"/><path class="cls-1" d="m96,76.1c7.2,7.6,15.4,9.3,26.8-5.5h0s0,0,0,0c1.6-2.1,3.3-4.5,5-7.2"/><path class="cls-1" d="m81.3,31.9c0,3.7.2,6,1.2,9.8-3.3,7.5,6.4,28,13.6,34.5"/><path class="cls-1" d="m93.4,45.9c0,4.4-3.4,4.4-3.4,0,0-4.4,3.4-4.4,3.4,0Z"/><path class="cls-1" d="m118,45.9c0,5-4.2,5-4.1,0,0-5,4.2-5,4.1,0Z"/><path class="cls-1" d="m97.4,58c1.9,1.6,7.5,1.2,9.4,0"/><path class="cls-1" d="m97.9,66.6c6.1,1.6,16.8-3.4,17.7-4.9-2.7,8.1-12.7,12.1-17.7,4.9Z"/><path class="cls-1" d="m133.5,39c0,8.7-1.8,17.7-5.7,24.3"/><path class="cls-1" d="m81.1,34.1c4.7-10.2,12.2-14.7,16.1-15.6,11.3-2.9,15.2,8.6,36.3,20.5"/><path class="cls-1" d="m122.8,70.3c-.3,5.1-.3,10.8,1.7,15.5"/><path class="cls-1" d="m133.5,41.1c1.7-2.3,5.7-1.1,6.5,1.5,1.3,4-3.7,14.4-8.8,10.8"/><path class="cls-1" d="m82.2,40.3s0,0,0,0c-6.5,2-2.3,13,1.3,15.3"/><path class="cls-1" d="m90.1,33.4c-1.5.5-4.8,3.6-4.6,3.8,3.7-2.6,6.9-3.1,10.8-1.2,1.3,0,.5-1.5-1.5-2.6-1.5-.8-3.6-.4-4.7,0Z"/><path class="cls-1" d="m116.8,33.2c2,.5,7,3.6,6.8,3.8-4.8-2.4-9.6-3.1-14.2-.9-1.6,0-1-1.5,1.4-2.7,1.7-.9,4.6-.5,6.1-.1Z"/><path class="cls-1" d="m138.3,39.9c4.6-18.2-7.1-37.7-26.7-38.9-4.7-.8-10.5,0-12.6,4.4-19.7-4-25.6,21.1-19.2,35.5"/><path class="cls-1" d="m122.4,73.5c4.1,7.3,24.4-7.8,11.7-19.5"/><path class="cls-1" d="m99.2,5.3c-1.8,5-3.1,7.8-2.1,13"/><path class="cls-1" d="m96.2,84.1c-.1-3.8-.2-7.8-.2-8.1"/><path class="cls-3" d="m123.3,84.2h0c-12.5,12.4-20.2,17.7-23.8,17.2"/><path class="cls-1" d="m123.4,84.1s0,0,0,0"/><path class="cls-3" d="m96.2,84.1c-1.1,8.4,1.7,15.8,5.8,21"/><path class="cls-3" d="m122.4,132.3c2.2,3.9,13.8,11.1,18.1,9.1"/><path class="cls-2" d="m85.3,151.2c14.5,26.6.7,67.7,19.4,91.2"/><path class="cls-3" d="m83.2,147.6c.8,1.2,1.4,2.4,2.1,3.7"/><path class="cls-1" d="m138.6,152.1c-10.4-.9-21.3-5.5-27.2-15.1"/><path class="cls-1" d="m90.8,158.1c15.1,22.8,1.5,66.3,24.7,85.2"/><path class="cls-1" d="m94.4,84.9c-1,8,.2,15.7,2.9,22.8"/><path class="cls-1" d="m102.1,141.2c3,8,8,18.5,12.1,25.9,3.1,6.1,25.1,30.9,29.1,16.2"/><path class="cls-1" d="m91.1,139.8c3.5,14.3,8.4,26.5,15.1,38.4"/><path class="cls-1" d="m144.2,226.4c1.6-.9,3-2.5,3.7-5.4"/><line class="cls-2" x1="144.2" y1="226.4" x2="144.2" y2="226.4"/><path class="cls-1" d="m112.6,186.5c3.6,3.5,1.6,9,1.7,13.4,2.2,13,15,30.3,29.8,26.6"/><path class="cls-3" d="m91.9,85.5c-1.1,7.3-1.8,16,0,24.7"/><path class="cls-3" d="m90.1,85.9c-3.1,8.2-4.4,19.6-2.7,28.7"/><path class="cls-2" d="m10.9,229.8c18,4.9,37.4,4,54.9-2.4"/></svg>