<?xml version="1.0" encoding="UTF-8"?><svg id="Layer_1" xmlns="http://www.w3.org/2000/svg" width="548" height="374" xmlns:xlink="http://www.w3.org/1999/xlink" viewBox="0 0 548 374"><defs><style>.cls-1{stroke-linejoin:round;}.cls-1,.cls-2{stroke-linecap:round;}.cls-1,.cls-2,.cls-3,.cls-4,.cls-5,.cls-6,.cls-7{stroke:#000;}.cls-1,.cls-2,.cls-6,.cls-7{fill:none;}.cls-8{fill:url(#linear-gradient);}.cls-8,.cls-9,.cls-10,.cls-11,.cls-12,.cls-13,.cls-14,.cls-15,.cls-16,.cls-17,.cls-18,.cls-19{stroke-width:0px;}.cls-2,.cls-3,.cls-4,.cls-5,.cls-6{stroke-miterlimit:10;}.cls-3{fill:#b3b3b3;stroke-width:.5px;}.cls-4{fill:#ff0;}.cls-5{fill:#e6c29e;}.cls-10{fill:#f3b51a;}.cls-11{fill:#f7bc34;}.cls-12{fill:#3e1f15;}.cls-13{fill:#ddbda2;}.cls-14{fill:#e2a025;}.cls-15{fill:#c9897c;}.cls-16{fill:#00a1e0;}.cls-17{fill:#fff;}.cls-18{fill:#0054a5;}.cls-19{fill:#008ed3;}</style><linearGradient id="linear-gradient" x1="274" y1="0" x2="274" y2="374" gradientUnits="userSpaceOnUse"><stop offset="0" stop-color="#69cbee"/><stop offset="1" stop-color="#d0ecfa"/></linearGradient></defs><rect class="cls-8" width="548" height="374"/><polygon class="cls-4" points="363.5 374 342 374 276.2 245.5 209.4 374 189.7 374 269.2 222.1 283.2 222.1 363.5 374"/><circle class="cls-3" cx="276.2" cy="230.1" r="7.6" transform="translate(-81.8 262.7) rotate(-45)"/><path class="cls-9" d="M276,227.6c1.3,0,2.3,1,2.3,2.3s-1,2.3-2.3,2.3-2.3-1-2.3-2.3,1-2.3,2.3-2.3Z"/><rect class="cls-5" x="266.4" y="-3" width="12.2" height="493" transform="translate(-33.3 443.7) rotate(-75)"/><path class="cls-9" d="M176.7,77.5c-1.8-.5-3.2,4.8-1.4,5.2,1.7.5,3.2-4.8,1.4-5.2Z"/><path class="cls-9" d="M192.7,82.2c-1.4-.4-2.7,4.2-1.2,4.6,1.4.5,2.7-4.2,1.2-4.6Z"/><path class="cls-12" d="M164.6,59.1c8.7-10.8,22.3-10.4,33.2-3.1,4.2,2.4,6,4.9,7.1,9.6,3.1,11.1-.9,36.2-12.4,35.4l-.2-.2c.9-1,1.9-2.2,3-3.7,4.7-.8,10.4-9,5.5-12.4,4.9-22.4-28.9-33.7-35.3-9.1-5-6.9-8.2,8.6-2.7,9.1-.6,4.7-.3,7.4.8,9.6-13.6-3.6-2.7-30.2,1.1-35.3Z"/><path class="cls-12" d="M179.7,72.1c1.2.2,2,1.9.8,2.5-1.5-1.4-5.3-1.9-7.8-1.9.2-1.4,5.7-1.3,7-.6Z"/><path class="cls-12" d="M191.5,75.6c1.3-.4,7.5,2.8,6.5,3.8-2.2-1.1-5.9-2.1-7.2-1.9-.9-.5-.2-1.9.8-1.9Z"/><path class="cls-17" d="M202.4,140c-4.6-3.7-8-2.3-11.4-1.7,4.9,4.5,11.1,6.3,15.4,8.6-.2-3-.7-4.2-4-6.9Z"/><path class="cls-17" d="M140,124.3c.3,1.5,1.4,2.9,2.9,3.4-1.7,7.1-1.7,13.4-2,17.5-.7,11.9-9.1,26.7-10.4,34.5-3.2,12.3,3.6,21.4,16.6,23.2,16.8,3.4,28.4-12.3,41.6-32.1-1.2,3-8.2,29.4-8.4,30.2,1.3.7,3.3,1.2,5.6,1.6-1.1,2.6-2,5.2-1.8,6.5h0s-1.2,3.1-.7,3.1c11,3.1,29.9,9.1,38.3,9.5.9-1.4,1.2-1.6.9-3h-.1c.9-3.6-.4-5.8-7.7-9.4-3.9-2.5-8.9-7.2-9.8-6.9-.2-7.4.9-18.9,1.3-29.8-5.1.5-7-4.4-1-2.6-3.2-.3-4.8-4.2-.8-3.2-.5-.2-1-.4-1.1-.8-1-2.7.9-2.4,2.8-2-2.4-1.1-3-3,.2-2.2,0-.4,0-.8,0-1.3-7.7-1.5-10.1-4-16.3-7.3-12.8-7.2-18.4-11.3-32.8-23.4,1.8,1.5,3.9.4,5.9.2,1.4.3,4.5,2.1,4.6-.4,1.6,1.6,6.1,2,7-.3.9-.1,1.7-.6,2.3-1.3.4,1.1,2.1,1.3,2.8.5,1.1.9,2.5,2.2,4.2,3.7.8.2,1.5-.6,1.1-1.3,1.7,1.7,5.3.7,5-1.9,1.1.5,2.4.6,3.4,0,0-.4,0-.9.1-1.3-1.1-1.9-2-3.8-2.7-5.6,5.5-2.2-2.5-5-3.5-7.3.1,0-1.7-1.5-2.9-1.7.7,6.6-8.1,8.4-12.4,4.6-4.6-3.3-6.7-9.1-10.8-13-1.6.3-4.9.7-7.7,2.7h0c-1.6,1.2-4.3,3.5-5.4,4.7.2.1.5.2.8.3-1.1,2.1-3.3,3.6-5.3,4.8.5.8,1.1,1.5,1.9,2l-.2.3c-.8,2.4-3,4.2-5.5,4.7Z"/><path class="cls-17" d="M180.1,100.4c-4.2-1.1-8.3-3.6-8.6-7.7.7,1.3,9.7,6,15,5.2-1.8,1.9-3.6,3.2-6.4,2.4Z"/><path class="cls-13" d="M202.9,140.5c-.2-.2-.3-.3-.5-.4.2.2.4.3.5.4Z"/><path class="cls-13" d="M204.6,166.9c.6.2,1.3.3,1.9.5,0,0,0,0,0-.1-.6,0-1.2-.2-1.9-.4Z"/><path class="cls-13" d="M205.4,170.1c.3.1.7.2,1,.3,0,0,0,0,0-.1-.3,0-.7-.1-1-.2Z"/><path class="cls-15" d="M162.7,84.8c-1.1,7.3.8,10.2,3.5,15.1h-.1c-.5,2.4-2.4,4.2-4.7,5,4,3.9,6.1,9.6,10.8,13,4.3,3.8,13.1,2,12.4-4.6.2,0,.3,0,.5.1v-.2c-1.5-.6-2.9-1.3-4.4-2.2.7-2,1.7-3.7,1.4-3.6h0c5.6-2.2,9.6-5.2,13.1-10.3,4.7-.8,10.4-9,5.5-12.4,4.9-22.5-29-33.7-35.3-9.1-.5-1-2.4-2.5-3.7-1.5-2.4,2.6-3.1,9.7.9,10.5ZM190.8,77.5c-1.4-1.2.9-2.4,2.1-1.8.9.1,6.2,2.9,5.2,3.7-2.2-1.1-5.9-2.1-7.2-1.9ZM192.7,82.2c1.5.3.2,5-1.2,4.6-1.5-.3-.2-5,1.2-4.6ZM171.6,92.7c.7,1.3,9.7,6,15,5.2-4.1,5.8-14.7.6-15-5.2ZM174.6,79.8c.9-3.4,3.7-2.7,2.7.7-.9,3.4-3.7,2.7-2.7-.7ZM180.5,74.6c-1.5-1.4-5.3-1.9-7.8-1.9,0-1.9,11.3-1.5,7.8,1.9Z"/><path class="cls-15" d="M160.4,130.7c.9-.1,1.8-.6,2.7-.6,1.4.3,4.5,2.1,4.6-.4,1.6,1.6,6.1,2,7-.3.9-.1,1.7-.6,2.3-1.3.4,1.1,2.1,1.3,2.8.5,1.1.9,2.5,2.2,4.2,3.7.8.2,1.5-.6,1.1-1.3,1.7,1.7,5.3.7,5-1.9,1.1.5,2.4.6,3.4,0,0-.4,0-.9.1-1.3,2.3,4.9,5.9,9.7,8.8,12.2-4.6-3.7-8-2.3-11.4-1.7,7.2,7.9,29.5,8.8,21.8,22.1-12.6,4.1-43.2-20-55.6-30.5.9.6,2,1,3.1.8Z"/><path class="cls-15" d="M204.5,166.9c-.5-.2-1-.4-1.1-.8-1-2.7.9-2.4,2.8-2-6.9-3.9,5.3-2.4,2.8.2-.4.3-1.4.1-2.5-.1,0,0,0,0,0,0,4.6,1.9,1.4,3.8-1.9,2.7,1.4.6,5.4.4,3.7,2.8-.6.9-1.9.6-2.9.3,2.1.3,4.1,2.1.9,2.6-5.1.5-7-4.4-1-2.6-3.2-.3-4.8-4.2-.8-3.2Z"/><path class="cls-1" d="M142.9,127.7c-1.7,7.1-1.7,13.4-2,17.5-.7,11.9-9.1,26.7-10.4,34.5"/><path class="cls-1" d="M161.4,104.9c-1.6.3-4.9.7-7.7,2.7"/><path class="cls-2" d="M179.7,128.5c4.9,4.1,12.4,11.5,18,14.3,7.9,3.9,21.6,7.4,15.2,17.6"/><path class="cls-2" d="M171.9,141.9c11.4,6.6,28.2,21.3,40.9,18.5"/><path class="cls-2" d="M157.3,129.9c5.9,4.9,14.5,11.9,14.7,12"/><path class="cls-2" d="M156.5,129.3c.3.2.5.4.8.6"/><path class="cls-2" d="M202.4,140c.2.2.4.3.5.4"/><path class="cls-2" d="M193.8,128c2.3,4.9,5.8,9.5,8.6,12"/><path class="cls-2" d="M190.9,122.1c.7,1.8,1.7,3.9,2.8,5.9"/><path class="cls-2" d="M184.6,113.3c1.2.1,3,1.7,2.9,1.7"/><path class="cls-2" d="M148.6,171.2c6.5-3.2,28.7-21.6,32.6-23.2"/><path class="cls-2" d="M191,138.2c3.4-.5,6.8-2,11.4,1.7,3.3,2.7,3.8,3.9,4,6.9"/><path class="cls-2" d="M188.6,170.8c-1.2,3-8.2,29.4-8.4,30.2"/><path class="cls-2" d="M188.7,170.7s0,0,0,.1"/><path class="cls-2" d="M130.5,179.7c-1.5,8.1-1,14.8,6.4,19.6,6.3,4.1,19.4,6,25.4,1.2"/><path class="cls-2" d="M206.3,172.7c-.4,10.9-1.5,22.4-1.3,29.8"/><path class="cls-2" d="M206.4,170.3s0,0,0,.1"/><path class="cls-2" d="M206.5,167.3s0,0,0,.1"/><path class="cls-2" d="M206.5,164.2s0,0,0,0"/><path class="cls-2" d="M206.4,160.7c0,.4,0,.8,0,1.1"/><path class="cls-2" d="M162.2,200.5c5-2.6,17.7-14.5,26.4-29.7.9-1.5,1.7-3,2.4-4.6"/><path class="cls-1" d="M185.9,202.5c-1.1,2.5-2,5.4-1.9,6.6"/><path class="cls-1" d="M205,202.5c-8,.8-17.8,1.6-24.8-1.4"/><path class="cls-1" d="M184,209.1c9.5,3.3,26,8.8,38.1,10.3"/><path class="cls-1" d="M205,202.5c.9-.3,5.9,4.4,9.8,6.9"/><path class="cls-1" d="M222.4,219c1.1-3.8-.2-6-7.6-9.6"/><path class="cls-1" d="M221.6,221.7c-8.4-.4-27.4-6.4-38.3-9.5-.5,0,.7-3.1.7-3.1"/><path class="cls-1" d="M222.5,218.7c.2,1.3,0,1.6-.9,3"/><path class="cls-2" d="M204.5,166.9c-.5-.2-1-.4-1.1-.8-1-2.7.9-2.4,2.8-2,2.5,1.1,4.9-.7,1.8-1.7"/><path class="cls-2" d="M205.4,170.1c1,.2,2.3.5,2.9-.3,1.7-2.4-2.3-2.2-3.7-2.8"/><path class="cls-2" d="M208,162.4c-3.1-1.5-5.9-.3-1.5,1.9,4.6,1.9,1.4,3.8-1.9,2.7,0,0,0,0,0,0-1.7-.3-3.2-.3-1.8,2,.4.7,2.6,1.1,3.7,1.5,1.4.5,2.3,1,1,2-1.7.8-6.5-.3-5.7-2,.5-1.3,2.2-.7,3.7-.3"/><path class="cls-1" d="M180,113.4c0-1.4,2.3-6,2.1-5.9"/><path class="cls-6" d="M161.4,104.9c4.1,3.9,6.2,9.7,10.8,13,4.3,3.8,13.1,2,12.4-4.6"/><path class="cls-1" d="M166.1,100c-.5,2.3-2.3,4.2-4.6,4.9"/><path class="cls-1" d="M185.1,113.2c-1.6-.6-3.1-1.4-4.6-2.2"/><path class="cls-6" d="M157.8,116.5c.7,3,5.9,5.4,8,2.2,0,4.7,5.7,7.7,9.5,4.9.9,3.8,8.6,5.8,8.7.8,1.7,3.1,6.2,0,4.1-2.7,1.5.6,4.1,1,4.6-1,.3-2.8-4.4-3.4-5.3-5.8"/><path class="cls-6" d="M157.8,116.5c0,0,0-.1,0-.1,0,0,0,0,0,.1Z"/><path class="cls-6" d="M154.1,107.1c-1.7,1.3-4.7,3.8-5.9,5.1,1.1.5,2.4.6,3.6.4-1.3,3.3,3.6,5.6,6,3.9"/><path class="cls-6" d="M148.9,112.9c-1.4,1.8-3.2,3.3-5.2,4.4,1.2,2.2,3.9,3.3,6.3,2.8-.1,3.1,3.8,5.1,6.2,3.1.3,3.3,4.6,4.9,7.1,2.7.5,3.7,5.9,4.5,7.4,1.1.8,2.7,4.6,3.4,6.3,1.1.4,1.1,2.2,1.3,2.9.4"/><path class="cls-6" d="M145.5,119.6c-.8,2.4-3,4.2-5.5,4.7.5,3.3,4.7,4.8,7.3,2.7,1.1,3.6,6.3,4,8,.7,1.6,3.2,4.9,3.4,7.9,2.5,1.4.3,4.5,2.1,4.6-.4,1.7,1.6,5.5,1.9,6.9,0"/><path class="cls-6" d="M193.6,127.7c0,.4,0,.9-.1,1.3-1,.5-2.4.5-3.4,0,.3,2.6-3.3,3.7-5,1.9.5.9-.7,1.7-1.5,1.2"/><path class="cls-1" d="M190.9,84.2c-.8,3,1.5,3.6,2.2.6.8-2.9-1.5-3.6-2.2-.6Z"/><path class="cls-1" d="M174.6,79.8c-.9,3.4,1.9,4.2,2.7.7.9-3.4-1.9-4.1-2.7-.7Z"/><path class="cls-1" d="M186.6,93c-.2,1.4-7.2,0-9.2-1.3"/><path class="cls-1" d="M186.6,98c-5.3.8-14.3-4-15-5.2.4,5.8,10.9,11,15,5.2Z"/><path class="cls-1" d="M200.6,85.5c-4.2,18.7-28.2,34.7-37.1,8.9"/><path class="cls-1" d="M162.9,83.2c-.7,4.3-.7,9,.6,11.2"/><path class="cls-1" d="M200.6,85.5c5.6-22.8-28.6-34.9-35.2-9.8"/><path class="cls-1" d="M165.4,75.7c-4.9-6.8-8.2,8.3-2.9,9.1"/><path class="cls-1" d="M200.6,84.8c5.1,3.2-.8,11.6-5.4,12.4"/><path class="cls-1" d="M163.5,94.4c-16.8-4.2-.5-61.6,34.3-38.4,14.3,6.8,8.3,45.8-5.3,45"/><path class="cls-1" d="M172.6,72.4c-.2,0-.1.3,0,.3,2.5,0,6.3.5,7.8,1.9,2.8-3.5-6-3.4-7.9-2.2Z"/><path class="cls-1" d="M198.3,79.1c.2.2,0,.5-.3.3-2.2-1.1-5.9-2.1-7.2-1.9-1.7-4.4,6.5-.2,7.5,1.6Z"/><path class="cls-10" d="M492.4,262.8l5.4-20.3c.4-1.5-.5-3.1-2.1-3.5l-5.2-1.4-4.4-1.2c-2.2-.4-4.7-.9-6.9-1.6-.2,0-.4-.1-.6-.2h-.1s-5.8-1.6-5.8-1.6v-.2c0,0,.1-.2.1-.2l-9.1-2.4h0c0,.1-6.2-1.5-6.2-1.5h0q0,0,0,0l-8.4-2.2-9-2.4c-1.6-.4-3.1.5-3.5,2l-5.4,20.3-.6-.2-2.2,8.1.6.2-5.2,19.3c-.4,1.5.5,3.1,2.1,3.5l5.1,1.4,18.6,5-.3,1,9.1,2.4.3-1,16.9,4.5,6,1.6c1.6.4,3.1-.5,3.5-2l5.2-19.3,1,.3,2.2-8.1-1-.3Z"/><path class="cls-10" d="M435.9,256.3c.2,0,0,0,0,0h0Z"/><path class="cls-18" d="M486.2,236.4l-10.2-2.7c-1.6-.6-2.8-1.3-3-1.7h.2c1.5.2,11.5,2.6,14.3,0,1.8-1.7,3.8-4.9,4.1-7.4.1-.8,0-1.6-.4-2.3,1.6-.7,3.2-1.1,5-1.2,2.5-.1,2.9,1.5,3.1,1.3.9,1.9.7,4.4,0,6.4-.9,2.7-4.3,6.8-8,7.9-.3,0-.7.1-1.1.2-1.1,0-2.5,0-4.1-.4Z"/><path class="cls-10" d="M458.7,286.1l5.9-22.1,18.8,5c-2.1,6.8-4.8,13.9-7.4,20.3l-.4,1.3-16.9-4.5Z"/><path class="cls-14" d="M483.3,269l6.9,1.8-5.2,19.3c-.4,1.5-2,2.5-3.5,2l-6-1.6.4-1.3c2.6-6.4,5.3-13.5,7.4-20.3Z"/><path class="cls-14" d="M492.4,262.8l-7.1-1.9c.2-1.4.4-2.9.9-4.5,1.3-4.8,2.7-9.6,4-14.3.4-1.3.7-2.6.6-3.9,0-.2,0-.4-.1-.6l5.2,1.4c1.6.4,2.5,2,2.1,3.5l-5.4,20.3Z"/><path class="cls-11" d="M437.8,248.2l-6.6-1.8,5.4-20.3c.4-1.5,2-2.5,3.5-2l9,2.4c-3.7,1.2-6.2,5-7.5,8.8-1.4,4.2-1.8,8.6-3.6,12.6,0,0-.2.2-.2.3Z"/><path class="cls-10" d="M472.9,232.8l3.1.8c.8.3,1.7.6,2.6.9l-5.8-1.5v-.2Z"/><path class="cls-10" d="M473.8,246.7l3-4.2,4.6,2.2-2.2-9.9c2.2.7,4.7,1.2,6.9,1.6l4.4,1.2c0,.2.1.4.1.6.1,1.3-.2,2.6-.6,3.9-1.3,4.8-2.7,9.6-4,14.3-.4,1.6-.7,3.1-.9,4.5l-18.5-4.9,4.9-18.4,2.2,9.2Z"/><path class="cls-18" d="M476,233.6l10.2,2.7c-2.2-.4-4.7-.9-6.9-1.6h0s-.6-.2-.6-.2h-.1c-.9-.3-1.8-.6-2.6-.9Z"/><path class="cls-10" d="M457.7,253.5l-19.8-5.3c0-.1.2-.2.2-.3,1.8-4,2.2-8.5,3.6-12.6,1.3-3.8,3.8-7.6,7.5-8.8l8.4,2.2-6.8,7.4,5.1.4.5,5.2,6.1-6.4-4.9,18.2Z"/><path class="cls-11" d="M429.1,254.5l6.7,1.8s0,0,0,0c-2.1,7.4-3.7,14.8-4.8,22.4l-5.1-1.4c-1.6-.4-2.5-2-2.1-3.5l5.2-19.3Z"/><path class="cls-10" d="M449.6,283.7l-18.6-5c1.1-7.6,2.7-15.1,4.8-22.4,0,0,.2,0,0,0l19.6,5.2-5.9,22.1Z"/><path class="cls-18" d="M496.8,219.8c-.2,0-.6-.2-1-.4.3.1.7.2,1,.4Z"/><path class="cls-18" d="M464.3,213.3c.7.7,1.3,2.1,1.7,3.1,1.1,2.5,2.1,6,1.2,8.7l-2.4,3c-1.3-1.4-2.2-2.9-3.8-4.1-1.2-.9-2.3-1.5-3.4-2.5-.7-.6-2.8-2.3-2.7-3.1,0-.5.8-1.2,1.5-1.8h0c2.1-1.3,2.4-1.5,5.9-3.7.7-.2,1.3-.1,1.9.4Z"/><path class="cls-18" d="M499.1,221.9c-.4-.6-1.4-1.5-1.9-1.9.2,0,.3.2.4.3.7.4,1.2,1,1.5,1.7Z"/><path class="cls-18" d="M479.3,234.7h0c-.2,0-.4,0-.6-.1h.6Z"/><path class="cls-19" d="M466.7,255.9l4.9-18.4,2.2,9.2,3-4.2,4.6,2.2-2.2-9.9c-.2,0-.4-.1-.6-.2h-.1s-5.8-1.6-5.8-1.6v-.2c0,0,.1-.2.1-.2l-9.1-2.4h0c0,.1-6.2-1.5-6.2-1.5h0c0,0-6.8,7.5-6.8,7.5l5.1.4.5,5.2,6.1-6.4-4.9,18.2-21-5.6c-1.7,2.2-1.9,5.3-2,8.1l20.9,5.6-5.9,22.1-.3,1,9.1,2.4.3-1,5.9-22.1,20,5.3c.4-1.1.7-2.3,1-3.4.5-1.7.7-3.3.9-4.8l-19.8-5.3Z"/><path class="cls-19" d="M459,228.3c1.5.4,3,.7,4.5,1,0-.1.1-.3.1-.4-1.1-1.1-2.5-1.5-3.9-2.1-1.7-.7-3.2-1.6-4.9-2.2-5.2-1.9-3-5,0-6.9.6-.4,1.2-.7,1.6-1t0,0c2.1-1.3,2.4-1.5,5.9-3.7.3-.2.6-.3.9-.5-1.3-2.3-9.5-4.1-12.2-3.6-4.1.8-7.4,4.4-8.1,8.3-.9,5.1.1,6.3,4.5,7.5,3.9,1,7.5,2.6,11.5,3.7Z"/><path class="cls-16" d="M435.9,256.3c.1-2.8.3-6,2-8.1l-6.6-1.8-.6-.2-2.2,8.1.6.2,6.7,1.8s0,0,0,0Z"/><path class="cls-19" d="M435.8,256.3h0c-.1,0-.1,0,0,0Z"/><path class="cls-19" d="M499.1,221.9c-.4-.6-1.4-1.5-1.9-1.9,0,0,0,0,0,0,0,0-.1,0-.2,0h0s0,0,0,0c-.2,0-.6-.2-1-.4-2-.8-5.6-2.4-6.9-2.5-2.7-.2-3.9,3.8-5.1,5.7-1,1.6-2.4,3.1-3.8,4.2-.5.4-1.2.9-1.8,1.2-.7.3-2.5,1.7-2.5,1.7,2.7,1,6.6-2,8.7-3.5,2.2-1.6,4.4-3.1,6.8-4.1,1.6-.7,3.2-1.1,5-1.2,2.5-.1,2.9,1.5,3.1,1.3h0c0,0,0-.2-.2-.4Z"/><polygon class="cls-19" points="473 231.9 473.1 231.8 475.5 229.5 476.9 228.1 468.4 225.3 465 228.4 463.7 229.6 463.6 229.7 472.5 232.4 473 231.9"/><path class="cls-18" d="M492.4,262.8l-7.1-1.9c-.2,1.5-.4,3-.9,4.8-.3,1.1-.6,2.2-1,3.4l6.9,1.8,1,.3,2.2-8.1-1-.3Z"/><path class="cls-7" d="M486.2,236.4l4.4,1.2,5.2,1.4c1.6.4,2.5,2,2.1,3.5l-5.4,20.3"/><line class="cls-7" x1="472.9" y1="232.8" x2="476" y2="233.6"/><path class="cls-7" d="M431.2,246.4l5.4-20.3c.4-1.5,2-2.5,3.5-2l9,2.4,8.4,2.2"/><path class="cls-7" d="M449.6,283.7l-18.6-5-5.1-1.4c-1.6-.4-2.5-2-2.1-3.5l5.2-19.3"/><path class="cls-7" d="M490.2,270.9l-5.2,19.3c-.4,1.5-2,2.5-3.5,2l-6-1.6-16.9-4.5"/><polyline class="cls-7" points="464.6 264 458.7 286.1 458.4 287.2 449.3 284.8 449.6 283.7 455.5 261.6"/><line class="cls-7" x1="471.7" y1="237.5" x2="466.7" y2="255.9"/><polyline class="cls-7" points="463.9 230.3 463.9 230.2 473 232.6 472.9 232.8 472.8 233"/><line class="cls-7" x1="457.7" y1="253.5" x2="462.5" y2="235.3"/><polygon class="cls-7" points="492.4 262.8 493.3 263 491.2 271.1 490.2 270.9 483.3 269 464.6 264 455.5 261.6 435.9 256.3 435.8 256.3 429.1 254.5 428.5 254.4 430.7 246.3 431.2 246.4 437.8 248.2 457.7 253.5 466.7 255.9 485.3 260.9 492.4 262.8"/><polyline class="cls-7" points="479.3 234.8 481.5 244.7 476.9 242.4 473.8 246.7 471.7 237.5 470.4 232.4 472.8 233 478.6 234.5"/><path class="cls-7" d="M499.3,222.3c.9,1.9.7,4.4,0,6.4-.9,2.7-4.3,6.8-8,7.9-.3,0-.7.1-1.1.2-1.1,0-2.5,0-4.1-.4-2.2-.4-4.7-.9-6.9-1.6-.2,0-.4-.1-.6-.2h-.1c-.9-.3-1.8-.6-2.6-.9-1.6-.6-2.8-1.3-3-1.7"/><path class="cls-7" d="M497.2,220c.2,0,.3.2.4.3.7.4,1.2,1,1.5,1.7"/><path class="cls-7" d="M495.8,219.4c.3.1.7.2,1,.4"/><path class="cls-7" d="M473.1,231.8c1.5.3,11.5,2.7,14.3.1,1.8-1.7,3.8-4.9,4.1-7.4.1-.8,0-1.6-.4-2.3"/><path class="cls-7" d="M499.3,222.3c0,0,0-.2-.2-.4-.4-.6-1.4-1.5-1.9-1.9l-.3-.2c-.2,0-.6-.2-1-.4-2-.8-5.6-2.4-6.9-2.5-2.7-.2-3.9,3.8-5.1,5.7-1,1.6-2.4,3.1-3.8,4.2-.5.4-1.2.9-1.8,1.2-.7.3-2.5,1.7-2.5,1.7,2.7,1,6.6-2,8.7-3.5,2.2-1.6,4.4-3.1,6.8-4.1,1.6-.7,3.2-1.1,5-1.2,2.5-.1,2.9,1.5,3.1,1.3"/><polygon class="cls-7" points="473 231.9 472.5 232.4 463.6 229.7 463.7 229.6 465 228.4 468.4 225.3 476.9 228.1 475.5 229.5 473.1 231.8 473 231.9"/><path class="cls-7" d="M456.4,216.7c-.8.6-1.5,1.3-1.5,1.8,0,.8,2,2.6,2.7,3.1,1.1,1,2.2,1.6,3.4,2.5,1.7,1.2,2.5,2.6,3.8,4.1l2.4-3c.9-2.7-.1-6.2-1.2-8.7-.4-.9-.9-2.3-1.7-3.1-.6-.6-1.2-.6-1.9-.4-.5.1-1,.4-1.5.6-1.2.5-1.5.8-2.6,1.7-.4.3-1.1.8-1.8,1.4"/><path class="cls-7" d="M462.4,212.9c.3-.2.6-.3.9-.5-1.3-2.3-9.5-4.1-12.2-3.6-4.1.8-7.4,4.4-8.1,8.3-.9,5.1.1,6.3,4.5,7.5,3.9,1,7.5,2.6,11.5,3.7,1.5.4,3,.7,4.5,1,0-.1.1-.3.1-.4-1.1-1.1-2.5-1.5-3.9-2.1-1.7-.7-3.2-1.6-4.9-2.2-5.2-1.9-3-5,0-6.9.6-.4,1.2-.7,1.6-1h0c2.1-1.3,2.4-1.5,5.9-3.7Z"/><polygon class="cls-7" points="457.6 228.7 450.8 236.2 455.9 236.5 456.5 241.7 462.5 235.3 466.5 231.1 466.5 231 463.9 230.3 457.7 228.6 457.6 228.7"/></svg>