<?xml version="1.0" encoding="UTF-8"?><svg id="a" xmlns="http://www.w3.org/2000/svg" width="548" height="374" xmlns:xlink="http://www.w3.org/1999/xlink" viewBox="0 0 548 374"><defs><style>.c{stroke-linejoin:round;}.c,.d{stroke-linecap:round;}.c,.d,.e,.f,.g,.h,.i{stroke:#000;}.c,.d,.h,.i{fill:none;}.d,.e,.f,.g,.h{stroke-miterlimit:10;}.e{fill:#b3b3b3;stroke-width:.5px;}.f{fill:#ff0;}.g{fill:#e6c29e;}.j,.k,.l,.m,.n,.o,.p,.q,.r,.s,.t{stroke-width:0px;}.k{fill:#f3b51a;}.l{fill:#f7bc34;}.m{fill:#3e1f15;}.n{fill:#ddbda2;}.o{fill:#e2a025;}.p{fill:#c9897c;}.q{fill:#fff;}.r{fill:#0054a5;}.s{fill:#008ed3;}.t{fill:url(#b);}</style><linearGradient id="b" x1="274" y1="0" x2="274" y2="374" gradientUnits="userSpaceOnUse"><stop offset="0" stop-color="#69cbee"/><stop offset="1" stop-color="#d0ecfa"/></linearGradient></defs><rect class="t" width="548" height="374"/><polygon class="f" points="363.5 374 342 374 276.2 245.5 209.4 374 189.7 374 269.2 222.1 283.2 222.1 363.5 374"/><circle class="e" cx="276.2" cy="230.1" r="7.6" transform="translate(-81.8 262.7) rotate(-45)"/><path class="j" d="m276,227.6c1.3,0,2.3,1,2.3,2.3s-1,2.3-2.3,2.3-2.3-1-2.3-2.3,1-2.3,2.3-2.3Z"/><rect class="g" x="266.4" y="-3" width="12.2" height="493" transform="translate(-33.3 443.7) rotate(-75)"/><path class="k" d="m437.5,255.9c.2,0,0,0,0,0h0Z"/><path class="r" d="m488.2,236.3l-10.2-2.8c-1.6-.7-2.8-1.3-3-1.8h.2c1.5.2,11.5,2.7,14.4.1,1.9-1.7,3.9-4.9,4.2-7.4.1-.8,0-1.6-.4-2.3,1.6-.6,3.2-1.1,5.1-1.1,2.5-.1,2.9,1.6,3.1,1.3.9,1.9.7,4.4,0,6.4-.9,2.7-4.4,6.8-8.1,7.8-.3,0-.7.1-1.1.1-1.1,0-2.5-.1-4.1-.4Z"/><path class="k" d="m460.1,286l6.1-22.2,18.8,5.2c-2.2,6.8-5,13.9-7.6,20.3l-.4,1.3-16.9-4.7Z"/><path class="o" d="m485,269l6.9,1.9-5.3,19.4c-.4,1.5-2,2.4-3.6,2l-6-1.7.4-1.3c2.7-6.3,5.5-13.5,7.6-20.3Z"/><path class="o" d="m494.2,262.8l-7.1-2c.2-1.4.5-2.9.9-4.5,1.4-4.8,2.7-9.6,4.1-14.3.4-1.3.7-2.6.6-3.9,0-.2,0-.4-.1-.6l5.2,1.4c1.6.4,2.5,2,2,3.6l-5.6,20.3Z"/><path class="l" d="m439.6,247.7l-6.6-1.8,5.6-20.3c.4-1.5,2-2.4,3.6-2l9,2.5c-3.7,1.2-6.3,5-7.6,8.8-1.4,4.2-1.9,8.6-3.7,12.6,0,0-.2.2-.2.3Z"/><path class="r" d="m437.4,255.9l-6.7-1.9,2.2-8.1,6.6,1.8c-1.8,2.2-1.9,5.3-2.1,8.2-.1,0-.1,0,0,0Z"/><path class="k" d="m474.9,232.6l3.1.9c.8.3,1.7.6,2.6.9l-5.8-1.6v-.2Z"/><path class="k" d="m475.7,246.5l3.1-4.2,4.6,2.3-2.1-9.9c2.2.7,4.7,1.3,6.9,1.7l4.4,1.2c0,.2.1.4.1.6.1,1.3-.2,2.6-.6,3.9-1.4,4.8-2.8,9.6-4.1,14.3-.5,1.6-.7,3.1-.9,4.5l-18.5-5.1,5.1-18.4,2.1,9.2Z"/><path class="r" d="m487,260.8l7.1,2-2.2,8.1-6.9-1.9c.4-1.1.7-2.3,1-3.4.5-1.7.7-3.3,1-4.8Z"/><rect class="r" x="489.3" y="266.5" width="8.4" height="1" transform="translate(104.8 671.7) rotate(-74.6)"/><path class="r" d="m478,233.5l10.2,2.8c-2.2-.4-4.7-1-6.9-1.7h0s-.6-.2-.6-.2h-.1c-.9-.3-1.8-.7-2.6-1Z"/><path class="k" d="m459.4,253.2l-19.8-5.5c0-.1.2-.2.2-.3,1.8-4,2.3-8.5,3.7-12.6,1.3-3.8,3.9-7.6,7.6-8.8l8.4,2.3-6.9,7.4,5.1.4.5,5.2,6.1-6.4-5,18.2Z"/><path class="k" d="m430.7,254l6.7,1.9s0,0,0,0c-2.2,7.4-3.8,14.9-5,22.4l-5.1-1.4c-1.6-.4-2.5-2-2-3.6l5.3-19.4Z"/><path class="k" d="m451.1,283.5l-18.6-5.1c1.2-7.6,2.9-15.1,5-22.4,0,0,.2,0,0,0l19.7,5.4-6.1,22.2Z"/><path class="r" d="m499,219.8c-.2,0-.6-.2-1-.4.3.1.7.2,1,.4Z"/><path class="r" d="m466.4,213c.7.7,1.2,2.1,1.7,3.1,1.1,2.5,2,6.1,1.2,8.8l-2.5,3c-1.3-1.5-2.1-2.9-3.8-4.1-1.2-.9-2.3-1.5-3.4-2.5-.7-.6-2.7-2.3-2.6-3.2,0-.5.8-1.2,1.6-1.8t0,0c2.2-1.3,2.4-1.5,6-3.7.7-.2,1.3-.1,1.9.4Z"/><path class="r" d="m501.3,221.9c-.4-.6-1.4-1.6-1.9-2,.2,0,.3.2.4.3.7.4,1.1,1,1.5,1.7Z"/><path class="r" d="m481.3,234.6h0c-.2,0-.4,0-.6-.2l.6.2Z"/><path class="s" d="m468.5,255.7l5.1-18.4,2.1,9.2,3.1-4.2,4.6,2.3-2.1-9.9c-.2,0-.4-.1-.6-.2h-.1s-5.8-1.6-5.8-1.6v-.2c0,0,.1-.2.1-.2l-9.1-2.5h0c0,.1-6.2-1.6-6.2-1.6h0c0,0-6.9,7.5-6.9,7.5l5.1.4.5,5.2,6.1-6.4-5,18.2-19.8-5.5c-1.8,2.2-1.9,5.3-2.1,8.2l19.7,5.4-6.1,22.2-.3,1,9.1,2.5.3-1,6.1-22.2,18.8,5.2c.4-1.1.7-2.3,1-3.4.5-1.7.7-3.3,1-4.8l-18.5-5.1Z"/><path class="s" d="m460.9,227.9c1.5.4,3,.7,4.5,1,0-.1.1-.3.1-.4-1.1-1.1-2.5-1.5-3.9-2.1-1.7-.7-3.2-1.6-4.9-2.3-5.2-2-3-5.1,0-6.9.7-.4,1.2-.7,1.6-1t0,0c2.2-1.3,2.4-1.5,6-3.7.3-.2.6-.3.9-.5-1.3-2.3-9.5-4.2-12.2-3.7-4.1.8-7.4,4.3-8.2,8.3-1,5.1,0,6.3,4.4,7.5,3.9,1.1,7.5,2.7,11.5,3.8Z"/><rect class="s" x="427.3" y="249.6" width="8.4" height=".6" transform="translate(75.8 599.3) rotate(-74.6)"/><path class="s" d="m437.4,255.9h0c-.1,0-.1,0,0,0Z"/><path class="s" d="m501.3,221.9c-.4-.6-1.4-1.6-1.9-2,0,0,0,0,0,0,0,0-.1,0-.2,0t0,0s0,0,0,0c-.2,0-.6-.2-1-.4-2-.8-5.6-2.5-6.9-2.6-2.7-.2-3.9,3.8-5.1,5.7-1,1.6-2.4,3-3.9,4.2-.5.4-1.2.9-1.8,1.2-.7.3-2.6,1.7-2.6,1.7,2.7,1,6.7-1.9,8.7-3.4,2.3-1.6,4.5-3.1,6.8-4,1.6-.6,3.2-1.1,5.1-1.1,2.5-.1,2.9,1.6,3.1,1.3h0c0,0,0-.2-.2-.4Z"/><polygon class="s" points="475 231.7 475.1 231.5 477.5 229.3 478.9 227.9 470.4 225.1 467 228.1 465.7 229.3 465.5 229.4 474.4 232.2 475 231.7"/><path class="i" d="m488.2,236.3l4.4,1.2,5.2,1.4c1.6.4,2.5,2,2,3.6l-5.6,20.3"/><line class="i" x1="474.9" y1="232.6" x2="478" y2="233.5"/><path class="i" d="m432.9,245.9l5.6-20.3c.4-1.5,2-2.4,3.6-2l9,2.5,8.4,2.3"/><path class="i" d="m451.1,283.5l-18.6-5.1-5.1-1.4c-1.6-.4-2.5-2-2-3.6l5.3-19.4"/><path class="i" d="m491.9,270.9l-5.3,19.4c-.4,1.5-2,2.4-3.6,2l-6-1.7-16.9-4.7"/><polyline class="i" points="466.2 263.8 460.1 286 459.8 287 450.8 284.5 451.1 283.5 457.2 261.3"/><line class="i" x1="473.6" y1="237.3" x2="468.5" y2="255.7"/><polyline class="i" points="465.8 230 465.8 229.9 474.9 232.4 474.9 232.6 474.8 232.8"/><line class="i" x1="459.4" y1="253.2" x2="464.4" y2="235"/><polygon class="i" points="494.2 262.8 495.1 263.1 492.9 271.2 491.9 270.9 485 269 466.2 263.8 457.2 261.3 437.5 255.9 437.4 255.9 430.7 254 430.1 253.9 432.4 245.8 432.9 245.9 439.6 247.7 459.4 253.2 468.5 255.7 487 260.8 494.2 262.8"/><polyline class="i" points="481.3 234.6 483.4 244.6 478.8 242.3 475.7 246.5 473.6 237.3 472.4 232.1 474.8 232.8 480.6 234.4"/><path class="i" d="m501.5,222.3c.9,1.9.7,4.4,0,6.4-.9,2.7-4.4,6.8-8.1,7.8-.3,0-.7.1-1.1.1-1.1,0-2.5-.1-4.1-.4-2.2-.4-4.7-1-6.9-1.7-.2,0-.4-.1-.6-.2h-.1c-.9-.3-1.8-.7-2.6-1-1.6-.7-2.8-1.3-3-1.8"/><path class="i" d="m499.3,219.9c.2,0,.3.2.4.3.7.4,1.1,1,1.5,1.7"/><path class="i" d="m498,219.3c.3.1.7.2,1,.4"/><path class="i" d="m475.1,231.5c1.5.3,11.5,2.8,14.4.2,1.9-1.7,3.9-4.9,4.2-7.4.1-.8,0-1.6-.4-2.3"/><path class="i" d="m499,219.8c-.2,0-.6-.2-1-.4-2-.8-5.6-2.5-6.9-2.6-2.7-.2-3.9,3.8-5.1,5.7-1,1.6-2.4,3-3.9,4.2-.5.4-1.2.9-1.8,1.2-.7.3-2.6,1.7-2.6,1.7,2.7,1,6.7-1.9,8.7-3.4,2.3-1.6,4.5-3.1,6.8-4,1.6-.6,3.2-1.1,5.1-1.1,2.5-.1,2.9,1.6,3.1,1.3"/><path class="i" d="m501.5,222.3c0,0,0-.2-.2-.4-.4-.6-1.4-1.6-1.9-2"/><polygon class="i" points="475 231.7 474.4 232.2 465.5 229.4 465.7 229.3 467 228.1 470.4 225.1 478.9 227.9 477.5 229.3 475.1 231.5 475 231.7"/><path class="i" d="m458.5,216.2c-.8.6-1.5,1.3-1.6,1.8-.1.8,2,2.6,2.6,3.2,1.1,1,2.2,1.6,3.4,2.5,1.7,1.2,2.5,2.7,3.8,4.1l2.5-3c.9-2.7,0-6.2-1.2-8.8-.4-.9-.9-2.3-1.7-3.1-.6-.6-1.2-.6-1.9-.4-.5.1-1,.4-1.5.6-1.2.5-1.6.8-2.6,1.7-.4.3-1.1.8-1.9,1.4"/><path class="i" d="m464.5,212.6c.3-.2.6-.3.9-.5-1.3-2.3-9.5-4.2-12.2-3.7-4.1.8-7.4,4.3-8.2,8.3-1,5.1,0,6.3,4.4,7.5,3.9,1.1,7.5,2.7,11.5,3.8,1.5.4,3,.7,4.5,1,0-.1.1-.3.1-.4-1.1-1.1-2.5-1.5-3.9-2.1-1.7-.7-3.2-1.6-4.9-2.3-5.2-2-3-5.1,0-6.9.7-.4,1.2-.7,1.6-1t0,0c2.2-1.3,2.4-1.5,6-3.7Z"/><polygon class="i" points="459.6 228.4 452.7 235.8 457.8 236.2 458.3 241.4 464.4 235 468.4 230.8 468.5 230.7 465.8 230 459.6 228.3 459.6 228.4"/><path class="j" d="m176.7,77.5c-1.8-.5-3.2,4.8-1.4,5.2,1.7.5,3.2-4.8,1.4-5.2Z"/><path class="j" d="m192.7,82.2c-1.4-.4-2.7,4.2-1.2,4.6,1.4.5,2.7-4.2,1.2-4.6Z"/><path class="m" d="m164.6,59.1c8.7-10.8,22.3-10.4,33.2-3.1,4.2,2.4,6,4.9,7.1,9.6,3.1,11.1-.9,36.2-12.4,35.4l-.2-.2c.9-1,1.9-2.2,3-3.7,4.7-.8,10.4-9,5.5-12.4,4.9-22.4-28.9-33.7-35.3-9.1-5-6.9-8.2,8.6-2.7,9.1-.6,4.7-.3,7.4.8,9.6-13.6-3.6-2.7-30.2,1.1-35.3Z"/><path class="m" d="m179.7,72.1c1.2.2,2,1.9.8,2.5-1.5-1.4-5.3-1.9-7.8-1.9.2-1.4,5.7-1.3,7-.6Z"/><path class="m" d="m191.5,75.6c1.3-.4,7.5,2.8,6.5,3.8-2.2-1.1-5.9-2.1-7.2-1.9-.9-.5-.2-1.9.8-1.9Z"/><path class="q" d="m202.4,140c-4.6-3.7-8-2.3-11.4-1.7,4.9,4.5,11.1,6.3,15.4,8.6-.2-3-.7-4.2-4-6.9Z"/><path class="q" d="m140,124.3c.3,1.5,1.4,2.9,2.9,3.4-1.7,7.1-1.7,13.4-2,17.5-.7,11.9-9.1,26.7-10.4,34.5-3.2,12.3,3.6,21.4,16.6,23.2,16.8,3.4,28.4-12.3,41.6-32.1-1.2,3-8.2,29.4-8.4,30.2,1.3.7,3.3,1.2,5.6,1.6-1.1,2.6-2,5.2-1.8,6.5h0s-1.2,3.1-.7,3.1c11,3.1,29.9,9.1,38.3,9.5.9-1.4,1.2-1.6.9-3h-.1c.9-3.6-.4-5.8-7.7-9.4-3.9-2.5-8.9-7.2-9.8-6.9-.2-7.4.9-18.9,1.3-29.8-5.1.5-7-4.4-1-2.6-3.2-.3-4.8-4.2-.8-3.2-.5-.2-1-.4-1.1-.8-1-2.7.9-2.4,2.8-2-2.4-1.1-3-3,.2-2.2,0-.4,0-.8,0-1.3-7.7-1.5-10.1-4-16.3-7.3-12.8-7.2-18.4-11.3-32.8-23.4,1.8,1.5,3.9.4,5.9.2,1.4.3,4.5,2.1,4.6-.4,1.6,1.6,6.1,2,7-.3.9-.1,1.7-.6,2.3-1.3.4,1.1,2.1,1.3,2.8.5,1.1.9,2.5,2.2,4.2,3.7.8.2,1.5-.6,1.1-1.3,1.7,1.7,5.3.7,5-1.9,1.1.5,2.4.6,3.4,0,0-.4,0-.9.1-1.3-1.1-1.9-2-3.8-2.7-5.6,5.5-2.2-2.5-5-3.5-7.3.1,0-1.7-1.5-2.9-1.7.7,6.6-8.1,8.4-12.4,4.6-4.6-3.3-6.7-9.1-10.8-13-1.6.3-4.9.7-7.7,2.7h0c-1.6,1.2-4.3,3.5-5.4,4.7.2.1.5.2.8.3-1.1,2.1-3.3,3.6-5.3,4.8.5.8,1.1,1.5,1.9,2l-.2.3c-.8,2.4-3,4.2-5.5,4.7Z"/><path class="q" d="m180.1,100.4c-4.2-1.1-8.3-3.6-8.6-7.7.7,1.3,9.7,6,15,5.2-1.8,1.9-3.6,3.2-6.4,2.4Z"/><path class="n" d="m202.9,140.5c-.2-.2-.3-.3-.5-.4.2.2.4.3.5.4Z"/><path class="n" d="m204.6,166.9c.6.2,1.3.3,1.9.5,0,0,0,0,0-.1-.6,0-1.2-.2-1.9-.4Z"/><path class="n" d="m205.4,170.1c.3.1.7.2,1,.3,0,0,0,0,0-.1-.3,0-.7-.1-1-.2Z"/><path class="p" d="m162.7,84.8c-1.1,7.3.8,10.2,3.5,15.1h-.1c-.5,2.4-2.4,4.2-4.7,5,4,3.9,6.1,9.6,10.8,13,4.3,3.8,13.1,2,12.4-4.6.2,0,.3,0,.5.1v-.2c-1.5-.6-2.9-1.3-4.4-2.2.7-2,1.7-3.7,1.4-3.6h0c5.6-2.2,9.6-5.2,13.1-10.3,4.7-.8,10.4-9,5.5-12.4,4.9-22.5-29-33.7-35.3-9.1-.5-1-2.4-2.5-3.7-1.5-2.4,2.6-3.1,9.7.9,10.5Zm28.1-7.3c-1.4-1.2.9-2.4,2.1-1.8.9.1,6.2,2.9,5.2,3.7-2.2-1.1-5.9-2.1-7.2-1.9Zm1.9,4.7c1.5.3.2,5-1.2,4.6-1.5-.3-.2-5,1.2-4.6Zm-21.1,10.5c.7,1.3,9.7,6,15,5.2-4.1,5.8-14.7.6-15-5.2Zm3-13c.9-3.4,3.7-2.7,2.7.7-.9,3.4-3.7,2.7-2.7-.7Zm5.9-5.2c-1.5-1.4-5.3-1.9-7.8-1.9,0-1.9,11.3-1.5,7.8,1.9Z"/><path class="p" d="m160.4,130.7c.9-.1,1.8-.6,2.7-.6,1.4.3,4.5,2.1,4.6-.4,1.6,1.6,6.1,2,7-.3.9-.1,1.7-.6,2.3-1.3.4,1.1,2.1,1.3,2.8.5,1.1.9,2.5,2.2,4.2,3.7.8.2,1.5-.6,1.1-1.3,1.7,1.7,5.3.7,5-1.9,1.1.5,2.4.6,3.4,0,0-.4,0-.9.1-1.3,2.3,4.9,5.9,9.7,8.8,12.2-4.6-3.7-8-2.3-11.4-1.7,7.2,7.9,29.5,8.8,21.8,22.1-12.6,4.1-43.2-20-55.6-30.5.9.6,2,1,3.1.8Z"/><path class="p" d="m204.5,166.9c-.5-.2-1-.4-1.1-.8-1-2.7.9-2.4,2.8-2-6.9-3.9,5.3-2.4,2.8.2-.4.3-1.4.1-2.5-.1,0,0,0,0,0,0,4.6,1.9,1.4,3.8-1.9,2.7,1.4.6,5.4.4,3.7,2.8-.6.9-1.9.6-2.9.3,2.1.3,4.1,2.1.9,2.6-5.1.5-7-4.4-1-2.6-3.2-.3-4.8-4.2-.8-3.2Z"/><path class="c" d="m142.9,127.7c-1.7,7.1-1.7,13.4-2,17.5-.7,11.9-9.1,26.7-10.4,34.5"/><path class="c" d="m161.4,104.9c-1.6.3-4.9.7-7.7,2.7"/><path class="d" d="m179.7,128.5c4.9,4.1,12.4,11.5,18,14.3,7.9,3.9,21.6,7.4,15.2,17.6"/><path class="d" d="m171.9,141.9c11.4,6.6,28.2,21.3,40.9,18.5"/><path class="d" d="m157.3,129.9c5.9,4.9,14.5,11.9,14.7,12"/><path class="d" d="m156.5,129.3c.3.2.5.4.8.6"/><path class="d" d="m202.4,140c.2.2.4.3.5.4"/><path class="d" d="m193.8,128c2.3,4.9,5.8,9.5,8.6,12"/><path class="d" d="m190.9,122.1c.7,1.8,1.7,3.9,2.8,5.9"/><path class="d" d="m184.6,113.3c1.2.1,3,1.7,2.9,1.7"/><path class="d" d="m148.6,171.2c6.5-3.2,28.7-21.6,32.6-23.2"/><path class="d" d="m191,138.2c3.4-.5,6.8-2,11.4,1.7,3.3,2.7,3.8,3.9,4,6.9"/><path class="d" d="m188.6,170.8c-1.2,3-8.2,29.4-8.4,30.2"/><path class="d" d="m188.7,170.7s0,0,0,.1"/><path class="d" d="m130.5,179.7c-1.5,8.1-1,14.8,6.4,19.6,6.3,4.1,19.4,6,25.4,1.2"/><path class="d" d="m206.3,172.7c-.4,10.9-1.5,22.4-1.3,29.8"/><path class="d" d="m206.4,170.3s0,0,0,.1"/><path class="d" d="m206.5,167.3s0,0,0,.1"/><path class="d" d="m206.5,164.2s0,0,0,0"/><path class="d" d="m206.4,160.7c0,.4,0,.8,0,1.1"/><path class="d" d="m162.2,200.5c5-2.6,17.7-14.5,26.4-29.7.9-1.5,1.7-3,2.4-4.6"/><path class="c" d="m185.9,202.5c-1.1,2.5-2,5.4-1.9,6.6"/><path class="c" d="m205,202.5c-8,.8-17.8,1.6-24.8-1.4"/><path class="c" d="m184,209.1c9.5,3.3,26,8.8,38.1,10.3"/><path class="c" d="m205,202.5c.9-.3,5.9,4.4,9.8,6.9"/><path class="c" d="m222.4,219c1.1-3.8-.2-6-7.6-9.6"/><path class="c" d="m221.6,221.7c-8.4-.4-27.4-6.4-38.3-9.5-.5,0,.7-3.1.7-3.1"/><path class="c" d="m222.5,218.7c.2,1.3,0,1.6-.9,3"/><path class="d" d="m204.5,166.9c-.5-.2-1-.4-1.1-.8-1-2.7.9-2.4,2.8-2,2.5,1.1,4.9-.7,1.8-1.7"/><path class="d" d="m205.4,170.1c1,.2,2.3.5,2.9-.3,1.7-2.4-2.3-2.2-3.7-2.8"/><path class="d" d="m208,162.4c-3.1-1.5-5.9-.3-1.5,1.9,4.6,1.9,1.4,3.8-1.9,2.7,0,0,0,0,0,0-1.7-.3-3.2-.3-1.8,2,.4.7,2.6,1.1,3.7,1.5,1.4.5,2.3,1,1,2-1.7.8-6.5-.3-5.7-2,.5-1.3,2.2-.7,3.7-.3"/><path class="c" d="m180,113.4c0-1.4,2.3-6,2.1-5.9"/><path class="h" d="m161.4,104.9c4.1,3.9,6.2,9.7,10.8,13,4.3,3.8,13.1,2,12.4-4.6"/><path class="c" d="m166.1,100c-.5,2.3-2.3,4.2-4.6,4.9"/><path class="c" d="m185.1,113.2c-1.6-.6-3.1-1.4-4.6-2.2"/><path class="h" d="m157.8,116.5c.7,3,5.9,5.4,8,2.2,0,4.7,5.7,7.7,9.5,4.9.9,3.8,8.6,5.8,8.7.8,1.7,3.1,6.2,0,4.1-2.7,1.5.6,4.1,1,4.6-1,.3-2.8-4.4-3.4-5.3-5.8"/><path class="h" d="m157.8,116.5c0,0,0-.1,0-.1,0,0,0,0,0,.1Z"/><path class="h" d="m154.1,107.1c-1.7,1.3-4.7,3.8-5.9,5.1,1.1.5,2.4.6,3.6.4-1.3,3.3,3.6,5.6,6,3.9"/><path class="h" d="m148.9,112.9c-1.4,1.8-3.2,3.3-5.2,4.4,1.2,2.2,3.9,3.3,6.3,2.8-.1,3.1,3.8,5.1,6.2,3.1.3,3.3,4.6,4.9,7.1,2.7.5,3.7,5.9,4.5,7.4,1.1.8,2.7,4.6,3.4,6.3,1.1.4,1.1,2.2,1.3,2.9.4"/><path class="h" d="m145.5,119.6c-.8,2.4-3,4.2-5.5,4.7.5,3.3,4.7,4.8,7.3,2.7,1.1,3.6,6.3,4,8,.7,1.6,3.2,4.9,3.4,7.9,2.5,1.4.3,4.5,2.1,4.6-.4,1.7,1.6,5.5,1.9,6.9,0"/><path class="h" d="m193.6,127.7c0,.4,0,.9-.1,1.3-1,.5-2.4.5-3.4,0,.3,2.6-3.3,3.7-5,1.9.5.9-.7,1.7-1.5,1.2"/><path class="c" d="m190.9,84.2c-.8,3,1.5,3.6,2.2.6.8-2.9-1.5-3.6-2.2-.6Z"/><path class="c" d="m174.6,79.8c-.9,3.4,1.9,4.2,2.7.7.9-3.4-1.9-4.1-2.7-.7Z"/><path class="c" d="m186.6,93c-.2,1.4-7.2,0-9.2-1.3"/><path class="c" d="m186.6,98c-5.3.8-14.3-4-15-5.2.4,5.8,10.9,11,15,5.2Z"/><path class="c" d="m200.6,85.5c-4.2,18.7-28.2,34.7-37.1,8.9"/><path class="c" d="m162.9,83.2c-.7,4.3-.7,9,.6,11.2"/><path class="c" d="m200.6,85.5c5.6-22.8-28.6-34.9-35.2-9.8"/><path class="c" d="m165.4,75.7c-4.9-6.8-8.2,8.3-2.9,9.1"/><path class="c" d="m200.6,84.8c5.1,3.2-.8,11.6-5.4,12.4"/><path class="c" d="m163.5,94.4c-16.8-4.2-.5-61.6,34.3-38.4,14.3,6.8,8.3,45.8-5.3,45"/><path class="c" d="m172.6,72.4c-.2,0-.1.3,0,.3,2.5,0,6.3.5,7.8,1.9,2.8-3.5-6-3.4-7.9-2.2Z"/><path class="c" d="m198.3,79.1c.2.2,0,.5-.3.3-2.2-1.1-5.9-2.1-7.2-1.9-1.7-4.4,6.5-.2,7.5,1.6Z"/></svg>