<?xml version="1.0" encoding="UTF-8"?><svg id="Oceania" xmlns="http://www.w3.org/2000/svg" width="176.1" height="269" viewBox="0 0 176.1 269"><defs><style>.cls-1{stroke-linecap:round;stroke-linejoin:round;}.cls-1,.cls-2{fill:none;stroke:#010101;}.cls-2{stroke-miterlimit:10;}.cls-3{fill:#2b2c2b;}.cls-3,.cls-4,.cls-5,.cls-6,.cls-7,.cls-8,.cls-9,.cls-10,.cls-11,.cls-12{stroke-width:0px;}.cls-4{fill:#353434;}.cls-5{fill:#23272c;}.cls-6{fill:#ab755b;}.cls-7{fill:#a69283;}.cls-8{fill:#c2a882;}.cls-9{fill:#fff;}.cls-10{fill:#ed6523;}.cls-11{fill:#e6e6e5;}.cls-12{fill:#010101;}</style></defs><path class="cls-9" d="m165.3,116.7c-1.8.3-6.4,0-8.4.3-.3-5.9-3.7-12.1-8.4-15,3.1-.1,8.4-1.2,9.7-3.7,3.7,4,7.2,12.8,7.1,18.3Z"/><path class="cls-7" d="m128.6,218.3c5.9,17,16.5,18.6,31.5,18.7-5.7,31.8-30.5,36.1-58,29.1-19.9-6.1-27.6-42.4-33.8-60h-.4c.6,12.8,1.7,27.1.9,39.6-12.1,1-24.8.3-37-.7-.8-28-.6-55.5,3.8-83.8,7.4,2.8,13.4-.5,3.3-4,4,.4,8.3.5,5.5-4.8-.4-.8-1.3-1.2-2.5-1.5,8.3,1,4.3-6.3-2.2-6.3,10.4,2.3,9.2-6.4-1-5.4.2-.7.4-1.5.6-2.4,4.2,3.2,9.7,3.3,14.9,3.4,12.5,0,25,.4,37.5.3,12.3,27.6,24,51,37,77.8Z"/><path class="cls-5" d="m156.7,39.4c-.6,2.5-9-.9-16.2,1.5-1-.4-.5-2.1-1-4,4.8-3.5,14.2-3.5,17.1,2.5Z"/><path class="cls-9" d="m139.6,111.3c-1.9-4.3-5.5-8.1-7.4-12.6,2-.3,4.1-.4,6-.2,0,0,0,0-.1,0,7.8,7.9,12.5,18.6,14,29.5-2,1.5-4.2,2.4-6.8,3.1-.6-7.5-2.4-13.6-5.7-19.9Z"/><path class="cls-9" d="m142.9,143.9h0c-.9-5.9-1.1-5.8-.6-11.9,2.5-.5,5.3-1.3,7.5-2.4-.4,5.8-1.5,8.6-.4,14.2-1.7,0-4,0-6.5.1Z"/><path class="cls-12" d="m150.4,50.7c0,4.5-3.9,4.5-3.9,0,0-4.5,3.9-4.5,3.9,0Z"/><path class="cls-8" d="m144,174.7v.2c0,0,0-.1,0-.2,0,0,0,0,0,0Z"/><path class="cls-8" d="m142.9,143.9c0,.1,0,.2,0,.3,0-.1,0-.2,0-.3h0Z"/><path class="cls-9" d="m139.6,111.3c1.4,2.6,2.5,5.3,3.4,8.2-8.7,4.7-19.2,7.1-29.1,7.9-.2-2.5-.5-4.9-1.1-6.9,9.1-2.6,18.1-5.6,26.8-9.2Z"/><path class="cls-8" d="m134.3,212.8s0,0,0,0h0s0,0,0,0Z"/><path class="cls-11" d="m146.1,73.5c-9.7,12.2-20.3,11-25.8,1.3,2.3.6,16.8.9,25.8-1.3Z"/><path class="cls-5" d="m119.5,35.6c5,0,8.1-.2,6,4.6-4.3-.8-11.8-.3-17,1.1,1-2.4,5.8-5.6,11-5.7Z"/><path class="cls-8" d="m120.4,172.5h0s0,0,0,0c0,0,0,0,0,0Z"/><path class="cls-12" d="m120.2,51.9c0,4.7-3.5,4.7-3.5,0,0-4.7,3.5-4.7,3.5,0Z"/><path class="cls-10" d="m165.3,116.7c-1.8.3-6.4,0-8.4.3-.3-5.9-3.7-12.1-8.4-15,3.1-.1,8.4-1.2,9.7-3.7l.5-.2c1-2.8-3.7-7.4-5.7-9.6-.6.4-1.2.8-1.7,1.2l.5.8c-4.5,3.6-9.7,6.8-13.8,8,7.8,7.9,12.5,18.6,14,29.5-.7.5-1.5,1-2.3,1.4-.4,5.8-1.5,8.6-.4,14.2-1.7,0-4,0-6.5.1,0,.1,0,.2,0,.3-.9-5.9-1.1-6.1-.7-12.2,1-.2,2.1-.4,3-.7-.3-4.4-1.1-8.2-2.2-11.8-8.7,4.7-19.2,7.1-29.1,7.9-.2-2.5-.5-4.9-1.1-6.9,9.1-2.6,18.1-5.6,26.8-9.2-1.9-4.3-5.5-8.1-7.4-12.6-1.5.2-3,.6-4.4,1-1-1.9-1.9-3.7-2.9-5.6v-.2c-.7-.3-1.4-.7-2.1-1.1-6.3,2.9-9.6,7.6-11.7,10.9-6.4,1.4-12.7,2.6-19.2,3.6v.9c3.9,2.1,6.4,6.1,6.7,10.3-2.9.6-5.7,1.5-8.6,2,2.2,6.9,3,10.6,0,20.2,3.4-.3,6.9-.7,10.1-1.1-.4,3.7-.9,7.1-1.3,9.7,3.2.5,6.4,1,9.6,1.3.4-3.3.8-6.7,1.2-9.8-2.5-.5-4.9-.8-7.3-1.4,7.6-1,14.7-2.2,22.1-3.6-.2,1.6-1,4.8-.6,8.5h.2c.3,2.4.5,4.7.7,6.9-5.5.2-10.9,0-16.4-.5-2,17-2.9,24.5,5.5,37.4,24.9,4,24.4-5.1,20.6,19.9-3.9.5-7.2-.2-11-.2.7,1.5,1.5,3.1,2.2,4.5,3.2,0,5.4.7,8.6.6,0,0,0,0,0,0,1.4.5,2.8,1,4.2,1.4.8-8.6,1.9-15.8,1.4-23.8,2,.1,4,.3,6.1.4.4,2.8-.9,12.3-.6,14.8h-.1c-.4,3.4-.3,6.7,0,10.1,5.6.8,11.1,1.2,16.8,1.3.2-19.3-.8-33,.2-48.8-6.3.8-12.8.9-19.1-.5-.2-1.4-.4-2.8-.5-4.2,3.4-.3,6.8-1,10.2-1.8-.3,0,1-14.2-.2-17.2,3.8.1,7.7-.3,11.3-1.6.2-7.9,1.8-19.5,1.5-26.1Zm-21.4,58c3.2.2,6.5.3,9.8.4,0,3.6,0,7.1,0,10.7-11.6-1-23.1-2.7-34.6-4.5.2-2.9.6-5.8,1.2-8.7,7.9.8,15.7,1.7,23.6,2.2Z"/><path class="cls-10" d="m142.7,221.8c0,2.8-.9,1,.3,13,6.4,1.9,13.2,2.5,18.8,2.2,0-.9.1-6.3.1-12.3-4.3-.1-12-1.5-19.2-3h0Z"/><path class="cls-11" d="m153.1,144.3h-.6c1.2,3,0,17.3.2,17.2-3.4.8-6.7,1.4-10.2,1.8.1,1.4.3,2.8.5,4.2,6.3,1.4,12.7,1.3,19.1.5.6-8.2,1.3-16.9,1.7-25.4-3.4,1.3-7.1,1.8-10.7,1.6Z"/><path class="cls-11" d="m161.8,216.9c-5.6-.1-11.1-.5-16.7-1.3-.3-3.4-.4-6.7,0-10.1h.1c-.3-2.5,1-11.9.6-14.8-2-.2-4-.3-6.1-.4.5,8-.6,15.2-1.4,23.8-4.3-1.6-8.2-1.6-12.8-2,5.6,10.1,6.6,19.9,17.4,22.6-1.2-12.1-.3-10.1-.3-13.1,7.2,1.5,14.9,2.8,19.2,3,0-2.6,0-5.2,0-7.7h0Z"/><path class="cls-11" d="m120.4,172.5c-.6,2.9-1,5.8-1.2,8.7,11.5,1.9,23,3.5,34.6,4.5,0-3.6,0-7.1,0-10.7-3.3,0-6.5-.2-9.7-.3,0,0,0,.1,0,.2,0,0,0-.1,0-.2-7.9-.5-15.7-1.4-23.6-2.2Z"/><path class="cls-11" d="m134.5,207.8c3.8-25,4.3-15.9-20.6-19.9,2.7,5.3,6.2,12.7,9.6,19.7,3.9,0,7.2.7,11,.2Z"/><path class="cls-11" d="m124.3,151h.4c-.2-2.2-.5-4.5-.7-6.9h-.2c-.4-3.7.5-6.9.6-8.5-7.4,1.4-14.5,2.6-22.1,3.6,2.5.6,4.9.9,7.3,1.4-.4,3.2-.9,6.5-1.2,9.8,5.3.5,10.6.7,16,.5Z"/><path class="cls-11" d="m98.8,149.2c-2,9.2,6.9,19.3,8.6,25.7-1-6.9,0-14.3,1-24.4-3.2-.3-6.4-.7-9.6-1.3Z"/><path class="cls-11" d="m92,108.1v-.9c-3.4.5-6.6,1-9.8,1.4v1c.1,0,0,0,0,0v.4c3.2,2.6,6,6.4,7.7,10.5,2.9-.5,5.7-1.4,8.6-2-.3-4.2-2.8-8.3-6.5-10.3Z"/><path class="cls-7" d="m75.4,111.2v.3c-12.8,3.6-20.7,5.7-31.1,8.7,5.4-8.7,21.7-12.5,31.1-9.1Z"/><path class="cls-3" d="m17.9,265.1c13.1.6,42.7-1.7,52.6-2.6,0,0,.6,5.5-.2,5.3-18.9,1.7-54.7,1.3-68.7,0-1.1-1.6-1.4-2.5-1-4.1,6,.6,11.9,1.1,17.3,1.3Z"/><path class="cls-7" d="m41.9,150.9c-1.7,0-3.6-.3-4.9-.2,0-.1,0-.2,0-.3,1.6.2,3.4.2,4.8.5Z"/><path class="cls-7" d="m37.7,144.3c.6.1,1.3.2,1.9.3-.7,0-1.3-.2-1.9-.2,0,0,0,0,0-.1Z"/><path class="cls-7" d="m38.9,157.2c-.9,0-1.9-.2-2.7-.2,0-.3,0-.5.1-.8.8.4,1.8.7,2.6,1Z"/><path class="cls-6" d="m168.5,43.9h-.1c3-52.5-71.7-49.3-64.6-.4-10.3-1.7-1.1,26.7,3.2,25.2,2.2,15.6,6.5,19.3,17.9,25.2v.2c.9,1.9,1.8,3.7,2.8,5.6,9.3-1.5,16.2-1.6,24.1-9.1l-.5-.8c8.5-5.7,10.8-10.5,13.4-23,10.4-.2,16.1-26.7,3.8-22.9Zm-60.1-2.6c.3-4.4,21.4-10.2,17-1.1-4.3-.8-11.8-.3-17,1.1Zm9.9,14.2c-2.2.1-2.2-7.3,0-7.2,2.2-.1,2.2,7.3,0,7.2Zm1.8,19.4c2.3.6,16.8.9,25.8-1.3-9.7,12.2-20.3,11-25.8,1.3Zm26.2-24.2c0-4.5,3.9-4.5,3.9,0,0,4.5-3.9,4.5-3.9,0Zm-5.9-9.8c-1-.4-.5-2.1-1-4,4.8-3.5,14.2-3.5,17.1,2.5-.6,2.5-9-.9-16.2,1.5Z"/><path class="cls-6" d="m89.9,120.5c-1.6-4-4.5-7.9-7.6-10.5v-.4c-11.7,4.6-44,8.6-46.7,17.2-3.9,20.9,41.8,11.1,54.4,13.8,3-9.5,2.1-13.2,0-20.2Z"/><path class="cls-6" d="m38.7,139.2c-8.1.7-6.3,5.1.9,5.4-6.1-2.1-10.6,5.5-2.5,5.8,3.5.1,13.3,2.7,8-4.1-.8-.9-3.1-1.3-5.4-1.7,10.4,2.3,9.2-6.4-1-5.4Z"/><path class="cls-6" d="m35.9,150.9c-6.5,3.1,0,5.1,3.1,6.3,4,.4,8.3.5,5.5-4.8-1.6-2.2-6.4-1.8-8.5-1.5Z"/><path class="cls-6" d="m33.3,157.5c-4.8,5.6,19.5,6.7,8.2.7-1.9-1.1-6.4-2-8.2-.7Z"/><path class="cls-4" d="m68.8,245.8c-11.6,1-23.8.4-35.6-.6h0c-10.8,3.2-33.1,3.2-31.7,17.4h-.5c-.2.5-.4.9-.5,1.4,19.8,2.9,52.5.2,69.8-1.3.8-2-1-12.9-1.6-16.8Z"/><path class="cls-1" d="m158.2,98.4c7.4,9.1,7.9,18.1,6.5,30.4-.9,10.4-1.2,21.6-2,31.8-2.1,22.6-.1,52.1-.9,76.3-7.8.3-21.6-.5-27.3-7.2-7.3-12.7-16.5-35-23.9-47.8"/><path class="cls-1" d="m35.6,161.3c-4.4,28.3-4.6,55.8-3.8,83.8,12.2,1,25,1.7,37,.7.7-12.6-.4-26.9-.9-39.6-.9-9.5-3.6-22.7-1.5-30.9"/><path class="cls-1" d="m36.4,156.2c0,.3,0,.5-.1.8"/><path class="cls-1" d="m37.1,150.4c0,0,0,.2,0,.3"/><path class="cls-1" d="m160.2,236.7c-5.6,32.1-30.4,36.5-58.1,29.4-19.9-6.1-27.6-42.4-33.8-60"/><path class="cls-2" d="m147.8,102.1c3.3,0,9-1,10.4-3.7"/><line class="cls-1" x1="17.9" y1="265.1" x2="17.9" y2="265.5"/><path class="cls-1" d="m17.8,252.3s.2,0,.2,0"/><line class="cls-1" x1="1.1" y1="263.9" x2="1.9" y2="264"/><path class="cls-1" d="m68.8,245.8c.7,3.9,2.4,14.8,1.6,16.8"/><path class="cls-1" d="m70.5,262.6c-16.9,1.4-49.2,4.1-68.6,1.4"/><path class="cls-1" d="m41.5,245.7c-3.3,1.8-14.5,4.9-23.5,6.6"/><path class="cls-1" d="m1.6,263.2c0-6.7,2.4-12.2,15.9-14.9.4,4,.8,12.1.4,16.8"/><path class="cls-1" d="m33.2,245.2c-3.8,1.2-9.6,2.4-15.7,3.2"/><path class="cls-1" d="m1.6,267.9c13.9,1.2,49.8,1.6,68.7,0,.7.2.2-5.3.2-5.3"/><path class="cls-1" d="m1.1,262.5c-.9,2-.9,3.4.5,5.4"/><path class="cls-1" d="m153.3,88.9c2,2,6.4,6.6,5.4,9.3"/><path class="cls-1" d="m107,171.8c0,1.3.2,2.4.4,3.1"/><path class="cls-2" d="m109.9,138.7c-1.4,9.7-3.2,25.6-2.9,33.1"/><path class="cls-1" d="m100.1,139.6c-.6,5.5-1.7,10.9-2,15.3"/><path class="cls-1" d="m91.5,140.3c6.3,13.4,13.6,29.8,19.1,41.6"/><path class="cls-1" d="m37.7,144.3s0,0,0,.1"/><path class="cls-1" d="m39.4,136.5c-.2.9-.5,1.8-.6,2.7"/><path class="cls-1" d="m44.1,120.7c5-9,21.9-13,31.3-9.5"/><path class="cls-1" d="m80.5,108.8c10.2-1.2,20.4-3,30.5-5.2,12.2-2,26.1-9.4,37.6-1.6,11.1,6.8,11.8,26.9-3.3,29.2-18.7,4.3-36.3,7.6-55.3,9.4"/><path class="cls-2" d="m82.3,110c8.7,8.2,11.8,17.4,7.6,30.6"/><path class="cls-1" d="m138,98.6c4.1-1.2,9.3-4.4,13.8-8"/><path class="cls-1" d="m134.5,95.2c7.4.2,19.5-5.1,25-12.8"/><path class="cls-1" d="m105.3,59.5c1.5,7.5,3.4,22,6.7,25.1,5.9,5.9,13.5,11.8,22.4,10.6"/><path class="cls-1" d="m108.5,41.3c5.3-1.3,12.7-1.9,17-1.1"/><path class="cls-1" d="m140.6,40.9c7.2-2.3,15.5,1.1,16.2-1.5"/><path class="cls-1" d="m123.3,67.5c1.8,4.6,11.6,2.7,14.4,1.6"/><path class="cls-1" d="m168.5,43.9c12.4-3.8,6.5,23.2-4.2,22.9"/><path class="cls-1" d="m166.4,59.5c-1.7,6.9-4.1,19.6-7,22.9"/><path class="cls-1" d="m108.5,41.3c.3-4.4,21.4-10.2,17-1.1"/><path class="cls-1" d="m140.6,40.9c-1-.4-.5-2.1-1-4,4.8-3.5,14.2-3.5,17.1,2.5"/><path class="cls-1" d="m120.2,74.9c5.5,9.7,16.1,10.8,25.8-1.3-9.1,2.2-23.6,2-25.8,1.3Z"/><path class="cls-1" d="m120.2,51.9c0,4.7-3.5,4.7-3.5,0,0-4.7,3.5-4.7,3.5,0Z"/><path class="cls-1" d="m104.8,49.9c-13.9-54.1,66.6-62.4,63.7-4.4"/><path class="cls-1" d="m103.3,43.5c-9.5-1.1-.5,26.8,3.7,25.2"/><path class="cls-1" d="m146.5,50.7c0,4.5,3.9,4.5,3.9,0,0-4.5-3.9-4.5-3.9,0Z"/><path class="cls-1" d="m90.4,120.4c23.1-6.3,23.7-6.8,23.7,16.6"/><path class="cls-1" d="m124,144.1c.7,6.3,1.5,13.3,1.3,19.1,9.2,1.1,18.5.5,27.5-1.7-.3,0,1-14.2-.2-17.2-2.3-1.5-6.1-.1-9.6-.5-7.2.2-16.2.4-18.9.2Z"/><path class="cls-1" d="m123.6,207.5c3.9.1,7.1.7,10.9.2,3.8-25,4.2-15.9-20.7-19.9"/><path class="cls-1" d="m124.4,135.3c-.1,1.9-1.1,5.2-.6,9.2"/><path class="cls-1" d="m124.3,151c-8.7.2-17.4-.4-25.9-1.8"/><path class="cls-1" d="m120.4,172.5c-1.1,5.1-1.6,10.4-1.4,15.7"/><path class="cls-1" d="m135.9,190c5.9.4,11.9.9,17.8,1.3,0-5.4,0-10.8,0-16.3-11.2,0-22.1-1.4-33.3-2.5"/><path class="cls-1" d="m125.2,163.4c-.1,4.6-.4,9.3-.4,9.3-.1-.2-.2-.4-.4-.5"/><path class="cls-1" d="m155.8,216.4c-7.4,0-14.9-1.2-21.9-3.8"/><path class="cls-1" d="m128,218.1c9.5,2.6,25.5,6.1,34,6.5"/><path class="cls-1" d="m142.6,163.8c.4,3.7.9,7.4,1.3,11.1,0-.3.2-.6.3-.9"/><path class="cls-1" d="m162.3,208.2c-6.7.2-10.2-.9-16.9-2.3-.6-2.7,1-12.1.5-15.1"/><path class="cls-1" d="m145.2,205.5c-.4,3.4-.4,6.6,0,10.1"/><path class="cls-1" d="m139.8,190.3c.7,7.8-.8,14.4-1.1,22.9"/><path class="cls-1" d="m142.2,132c-.5,6.2-.2,6.3.7,12.2,0-.2,0-.4,0-.6"/><path class="cls-1" d="m164,142.6c-3.5,1.3-7.2,1.9-10.9,1.7"/><path class="cls-1" d="m134.5,207.8c-.2,3.4-.5,8.2-.6,11.5"/><path class="cls-1" d="m134.7,212.7c-3.4.2-5.8-.6-9.3-.6"/><path class="cls-1" d="m132.2,99.5c7,9.9,12.3,19.5,13,32"/><path class="cls-1" d="m142.7,221.8c0,2.9-.9.9.3,13"/><path class="cls-1" d="m152.3,161.7c3.3.3,6.6.2,9.8-.3-.1-.2-.3-.4-.4-.6"/><path class="cls-1" d="m142.9,167.5c6.2,1.3,12.6,1.5,18.8.5"/><path class="cls-1" d="m149.7,129.6c-.4,5.8-1.5,8.8-.3,14.4"/><path class="cls-1" d="m153.8,191.3c-.1,7.3,1.1,9.4.7,16.6"/><path class="cls-1" d="m107.3,171.8c2.7.2,12.3.7,13.2.7,0,0,0,0,0,0"/><path class="cls-1" d="m155,216.4c2.6.3,4.2.7,6.8.5"/><path class="cls-1" d="m109.6,140.7c-2.6-.5-5.1-.8-7.7-1.5"/><path class="cls-1" d="m153.3,185.7c-11.6-1.2-23.2-2.7-34.7-4.6"/><path class="cls-1" d="m143.3,119.3c-8.7,4.8-19.2,7.2-29.1,8"/><path class="cls-1" d="m139.9,111.2c-8.7,3.6-17.6,6.7-26.7,9.2"/><path class="cls-1" d="m92,108.1c3.7,2.1,6.3,6.1,6.5,10.4"/><path class="cls-1" d="m138,98.6c7.7,7.9,12.6,18.4,13.9,29.4"/><path class="cls-1" d="m165.1,116.7c-1.8.3-6.4,0-8.4.4"/><path class="cls-2" d="m82.3,109.6c-11.6,4.6-43.9,8.6-46.7,17.2-4.3,20.4,41.4,11.5,53.7,13.6"/><path class="cls-2" d="m39.6,144.6c-2.2-.3-5.3-.6-6.3,1.4-2.8,5.5,5.6,4,8.6,4.9,1.2.3,2.1.7,2.5,1.5,2.8,5.3-1.4,5.2-5.5,4.8-5.1-1.5-10,2.5-3.1,4.1"/><path class="cls-2" d="m35.8,161.3c4.2,1.8,13.3,1.2,5.6-3.1-2.8-1.6-13.3-3.4-5.6-7.3,3.1-1.1,14.9,2.8,9.2-4.6-1.4-2.5-15.4-.9-10.6-6.1,2.6-2,13.8-1.2,12.5,2.8-.8,2.7-4.1,2.1-7.3,1.6"/><path class="cls-1" d="m124.8,94.1c1,2,2,3.9,3,5.9"/><path class="cls-1" d="m122.7,92.8c-6.4,3-9.7,7.7-11.8,11.2"/></svg>