<?xml version="1.0" encoding="UTF-8"?><svg id="Oceania" xmlns="http://www.w3.org/2000/svg" width="125.7" height="299" viewBox="0 0 125.7 299"><defs><style>.cls-1{stroke-linecap:round;stroke-linejoin:round;}.cls-1,.cls-2{fill:none;stroke:#010101;}.cls-2{stroke-miterlimit:10;}.cls-3{fill:#f3eccf;}.cls-3,.cls-4,.cls-5,.cls-6,.cls-7,.cls-8,.cls-9,.cls-10,.cls-11{stroke-width:0px;}.cls-4{fill:#6cc298;}.cls-5{fill:#363738;}.cls-6{fill:#d7ad76;}.cls-7{fill:#a86642;}.cls-8{fill:#8d694a;}.cls-9{fill:#fff;}.cls-10{fill:#ecbdd8;}.cls-11{fill:#010101;}</style></defs><path class="cls-5" d="m111.7,279.3c-6.6,1.3-19.7-.9-19.5,8.9h0c-2.3-1.4-4.5-3-6.6-4.9v-.2c-.4,0-.8,0-1.2-.1l-.4.4c7.5,6.9,16.8,15.1,27.4,15.6,10.8-2.1,7-13.7.4-19.7Zm4.6,13c-4.9,5.8-12,2.7-18.7-.9l1.3-.2c-.6-7.3,10.9-5.5,15.6-6.9,1.4,2.7,2.8,6.4,1.8,7.9Z"/><path class="cls-10" d="m38.3,119.3h-.2c-1.2,1.4-3.1,4.3-5.1,7.8-7.5-1.9-10.7-4.3-12.8-10.4,10-12.8,12.8-30.1,33.5-27.4,1.3,18.7,13.9,13.8,19.1,1.2,5.3.1,10.8-.7,15.3,1.8,5.9,3.4,16,15.8,20,19.3-.4,8.2-7.2,14.6-14.6,16.5-2.1-2.2-5.1-6.1-7.8-9.8l-.8.6c-1.4,11.1-1.2,26.4,1.1,37.6-2.6.7-4.6,1.9-4,4.7-2,2-3.8,4.5.7,5.5-.9,2.1.7,3.5,2,3.7-1.3,1.6,1.1,2.9,2.2,2.9-1.6,3-20.4,6.9-24.7,7.1-5,.3-22.6-2.1-25.8-2.2,0-1.1,0-2.3,0-3.4,0,0,0,0,0,0,.5-17.7,3.7-38,1.7-55.5Zm37.4,13.6c5.3-1.9,1.6-11.4-3.3-6.7.3-2.7-1.8-5.4-4.2-4.9-6.7-7.8-13.8-2.2-21.4-3.2,4,6.1,3.7,18.7,14.3,17.3.3,4,5.4,2.4,6.7.6,4.1,7,12.6,2.7,8-3.2Z"/><path class="cls-5" d="m63,194.8c-3.3,5.1-19.6,86.9-18.5,88.9-13.2,4.6-13.7-7.1-21.7-9.7,1.3-13.2,11.4-85,13.9-98.3,0,.9,0,1.7,0,2.5,3.1.1,20.8,2.5,25.8,2.2,4.3-.2,23.1-4.1,24.7-7.1,0,1.5.8,2,2,1.9-.6,14.8,20.5,81,20.5,99.8-5.8,3.8-17.8,8.7-25.4,7.9-2-3.9-8.8-74.4-19.9-88.2h-1.4Z"/><path class="cls-6" d="m32.9,46.7c-.5,1.2-.9,2.7-.2,3-.7.1-1.3.8-1.5,1.5-3.6.9-3.8-3.2-4.3-5.7-.5-1.3-1.7-2.4-1.9-3.8-.4-2.5,2.1-4.6,2.1-7.1-1.8-6.2-3.2-5.6,1.5-11,1.3-2.6-.4-5.8.6-8.5,2.5-5.9,11.3-3.4,15.6-7.1,4.1-6,7.4-4.8,13.9-4.9,2.5-.5,4.8-2.3,7.4-2.1,3.4.3,5.4,3.9,8.5,5.4,3.4,2,9,.8,10.9,5,.5,7.1,3.4,5.8,7.9,9.6,2.1,2.6.3,6.4,1.2,9.6.9,3,4.5,5.7,3.2,9-.9,2.2-3.9,3-5,5.1-.9,2.5-.8,6.2-4.5,5.7-4.2-5.5-4.9,4.3-8.3-.7-.6-1.2,1-2.9-.1-3.7-1.3-1-3.2-.4-4.5-1.4-2.3-2.9-2.4-8.3-7.3-4-6.8,7.4-7.5-4.5-15.2,3.5-4.6.8-7.2-10.1-11.5-2.3-2.1,2.7-7.2,1.1-8.2,4.8Z"/><path class="cls-3" d="m61,135.5c-.1-1.2.3-2.6,1.2-3.2-6.2-2.1-3.3-9.8,2.7-6.3-.3-6.1,8.1-6.2,7.5.1,4.9-4.7,8.6,4.8,3.3,6.7,4.6,5.9-3.8,10.2-8,3.2-1.4,1.8-6.4,3.4-6.7-.6Z"/><path class="cls-4" d="m68.1,121.3h0c-1.9.5-3.4,2.6-3.3,4.9-5.9-3.6-8.8,4.1-2.7,6.3-.9.6-1.4,1.9-1.2,3.2-10.6,1.3-10.3-11.2-14.3-17.3,7.7.9,14.5-4.6,21.4,3.1Z"/><path class="cls-11" d="m66.1,49.8c2.4,0,2.4,7.5,0,7.4-2.4.1-2.4-7.5,0-7.4Z"/><path class="cls-9" d="m63.9,70.9c6.5,2.1-13.9,12.1-18,1.1h0c4.6,1.6,13.2.3,17.9-1.1Z"/><path class="cls-11" d="m42.4,50.1c2,0,2,6.5,0,6.4-2,0-2-6.5,0-6.4Z"/><path class="cls-8" d="m33.2,49.7c-.2,0-.4,0-.5,0,.2,0,.3,0,.5,0Z"/><path class="cls-5" d="m42.8,284.8c-3.7,2.2-8.4,4.5-13.2,6.2l-.2-.6c1.2-5-7-11.9-11.8-12-3.1,2.3-5.1,3.3-7.3,5.1h0c5.3.5,10.6,4.4,11.9,9.6-5.3,1.3-16.5,1-14.1-6.9-4,3.4.5,8.7,4.7,9.3,11.1,3,22.2-3,30.5-10l-.5-.6Z"/><path class="cls-7" d="m89.1,175.2c5.8-1.1,11.9-6.7,10.6-12.5,2.7-3.8,9.5-9.2,12.4-12.5,4-4.5,9-16.3,6-21.6-1.4-2.5-7.8-9-11-12.2-2.3,5.7-6,8.9-11.1,10.7,1.6,1.3,7.3,6.3,8.2,7.1-5,5-4.4,16.6-11.4,21h0c-3.1,1-11.5.3-10.4,5.9-2,2-3.8,4.5.7,5.5-.9,2.1.7,3.5,2,3.7-1.3,1.6,1.1,2.9,2.2,2.9,0,1.5.8,2,2,1.9Z"/><path class="cls-7" d="m114.2,284.5c-4.7,1-16-.3-15.3,6.7l-1.3.2c8.3,5.8,24.6,6.2,17-7h-.3Z"/><path class="cls-7" d="m111.2,279.3c-.4-.4-.9-.9-1.3-1.3-.7-.6-1.4-1.2-2.2-1.8-4.9,2.7-16.1,7.1-22.2,6.8v.2c2,1.9,4.2,3.6,6.6,5.1h0c-.3-9.8,12.6-7.8,19-9Z"/><path class="cls-7" d="m80.5,70.3c1-1.6,1.1-3.7,1.8-7.4,5.3.4,8-8.4,5.7-12.4-1.1-2.1-4.2-2.3-5.1.2-.7,1.2-2.6.3-3.3-.9-.6-1.2,1-2.9-.1-3.7-1.3-1-3.2-.4-4.5-1.4-1.7-1.2-1.3-4.3-3.1-5.3-3.2-1.5-5.1,3.5-7.9,3.8-2.7.4-5.2-3-7.7-2-3.3,2.8-5,4.7-8.3.2-2.3-3.1-5.2-3-6.8.4-2.1,2.7-7.2,1.1-8.2,4.8-.5,1.2-.9,2.7-.2,3-4.2,2.2-2.5,14.5,2.3,13.7h0c1.4,10,10.6,19.6,19,23.6-.8,19.4,12.5,18.4,18.9,3.4.5-3.4-.3-6.7,0-11.2,2.9-2.3,5.5-3.7,7.7-9Zm-47.8-20.6c.2,0,.3,0,.5,0-.2,0-.4,0-.5,0Zm9.7,6.8c-2,0-2-6.5,0-6.4,2,0,2,6.5,0,6.4Zm23.7-6.7c2.4,0,2.4,7.5,0,7.4-2.4.1-2.4-7.5,0-7.4Zm-13.3,27.2c-3.6-.5-5.3-2.1-6.9-5h0c4.6,1.6,13.2.3,17.9-1.1,3.5.5-.9,3.8-2.2,4.5-2.2,1.5-6.7,1.9-8.9,1.6Z"/><path class="cls-7" d="m22.7,274c-1.3,1.4-2.7,2.7-5.1,4.4,4.8.1,13,7,11.8,12l.2.6c5.5-2,10.3-4.4,14.6-7.1v-.2c-13.2,4.3-13.4-7.3-21.5-9.8Z"/><path class="cls-7" d="m20.5,152.5c11.2,3.3,7.2,20.9,16.1,22.3,0-5.5.6-12.7,1.2-19.9h-1.8c-4.5-4.8-8.3-11.7-10.9-17.9.3.3,5.1-7.6,6.6-10.3-6-1.8-8.1-3.1-10-6.9-5.6,12.7-21,24.7-1.2,32.7Z"/><path class="cls-7" d="m10.4,283.6h0c-8.4,8.1,5.2,11.8,12,9.5-1.3-5.2-6.6-9.1-11.9-9.5Z"/><path class="cls-2" d="m54.1,86.8c-1.1,19.4,12.3,19,18.9,3.8.5-3.4-.3-6.7,0-11.2"/><path class="cls-2" d="m53.8,89.3c-20.7-2.7-23.4,14.6-33.5,27.4,2,6.1,5.2,8.5,12.8,10.4"/><path class="cls-2" d="m72.5,90.5c5.4.2,11.1-.7,15.7,1.8,5.9,3.4,16,15.8,20,19.3-.4,8.2-7.2,14.6-14.6,16.5-3.6-3.7-9.9-12.7-13.1-17.1"/><path class="cls-2" d="m39,105.1c-1.9,8.6,0,20.5,0,29.2,0,11.7-2.8,31.7-2.4,44,3.1.1,20.8,2.5,25.8,2.2,4.3-.2,23.1-4.1,24.7-7.1"/><path class="cls-2" d="m85.1,119.1c-.2,3.8-1.4,15.1-1.1,20.4.3,5.1,1.9,12.8,2.3,17.4"/><path class="cls-2" d="m21.7,119.8c-1.9,3.6-6.3,11.7-7.2,12.8-5.9,7.3-5.9,15.5,6,19.8,5.4,2,7.6,7.1,9.3,12.3,1.2,3.8,2.2,10.1,6.9,10"/><path class="cls-2" d="m31.7,126.7c-1.5,2.7-6.3,10.6-6.6,10.3"/><path class="cls-2" d="m38.1,119.3c-1.2,1.4-3.1,4.3-5.1,7.8"/><path class="cls-2" d="m21.1,132.6c1.8,1.1,3,2.7,4,4.4h0c2.5,6.2,6.5,13.2,10.8,17.8"/><path class="cls-2" d="m96,127.2c1.5,1.3,7.3,6.3,8.1,7.1"/><path class="cls-2" d="m107.1,116.4c3.2,3.2,9.6,9.7,11,12.2,3,5.3-2,17-6,21.6-2.9,3.3-9.7,8.8-12.4,12.5"/><path class="cls-2" d="m92,155.6c9.9-5.8,5.9-21.2,17.9-25.5"/><path class="cls-2" d="m84.5,159c-1.8,2.1-7.8,6.3-1.6,7.8-.9,2.1.7,3.5,2,3.7-1.3,1.6,1.1,2.9,2.2,2.9.8,6.7,15.7-5.5,12.6-10.6"/><path class="cls-2" d="m92.7,155.2c-3.1,1.1-11.6.5-10.4,6"/><path class="cls-2" d="m36.7,174.8c-2.3,13.7-12.7,85.5-14,99.2,8,2.6,8.6,14.4,21.7,9.7,0-1.8,5.4-33.7,9.5-54.7,4-21.8,10.2-32.9,8.9-34.4"/><path class="cls-2" d="m60.4,187.4c6.2,11.3,13.3,25.4,15.6,43.2,3,25.2,8.1,52,8.3,52.4,7.6.8,19.5-4.1,25.4-7.9,0-18.6-21.2-85.2-20.5-99.8,0,0,0-.2,0-.2"/><path class="cls-2" d="m56.5,183.6c2.2,1.9,2.7,2.6,3.9,3.8"/><path class="cls-2" d="m72.9,79.3c2.9-2.3,5.5-3.7,7.7-9"/><path class="cls-1" d="m35,63.4c1.4,10,10.6,19.6,19,23.6,4.2,1.4,9.2-.1,18.9-7.8"/><path class="cls-1" d="m32.9,46.7c1.4,6.2,1,7.8,2.1,16.7"/><path class="cls-1" d="m37.7,46.7c1.2-1,7.1-1.1,8.2-.6"/><path class="cls-1" d="m62.4,45.7c2.2-1.1,7.8-.4,8.3.5"/><path class="cls-1" d="m43.9,53.3c0,4.2-3.1,4.2-3.1,0,0-4.1,3.1-4.1,3.1,0Z"/><path class="cls-1" d="m68,53.5c0,4.8-3.8,4.8-3.8,0,0-4.8,3.8-4.8,3.8,0Z"/><path class="cls-1" d="m47.9,67.2c2.4,2.5,5.9,2.3,10.8,1"/><path class="cls-1" d="m45.4,71.7c4.8,2,13.4.6,18.4-.8,6.5,2.1-13.9,12.1-18,1.1"/><path class="cls-2" d="m82.3,63c-.7,3.8-.8,5.7-1.8,7.3"/><path class="cls-2" d="m82.9,50.7c1.9-4.2,6.4-.4,6,3,0,3.8-3.4,11.9-7.9,8.4"/><path class="cls-1" d="m31.2,51.2c-1.6,3.5-.8,12.9,3.9,12.2h0"/><path class="cls-2" d="m32.7,49.7c-.7.1-1.3.8-1.5,1.5"/><path class="cls-1" d="m33.2,49.7c-.2,0-.3,0-.5,0"/><path class="cls-2" d="m68.2,121.4c2.4-.5,4.5,2.2,4.2,4.9,4.9-4.7,8.6,4.8,3.3,6.7,4.6,5.9-3.8,10.2-8,3.2-3.4,4.1-9.5,1-5.5-3.8-6.2-2.1-3.3-9.8,2.7-6.3-.1-2.2,1.4-4.4,3.3-4.8Z"/><path class="cls-2" d="m68.1,121.3c-6.8-7.6-13.7-2.2-21.4-3.1,4,6.1,3.7,18.7,14.3,17.3"/><path class="cls-2" d="m82.9,50.7c-.7,1.2-2.6.3-3.3-.9-.6-1.2,1-2.9-.1-3.7-1.3-1-3.2-.4-4.5-1.4-1.7-1.2-1.3-4.3-3.1-5.3-3.2-1.5-5.1,3.5-7.9,3.8-2.7.4-5.2-3-7.7-2-3.3,2.8-5,4.7-8.3.2-2.3-3.1-5.2-3-6.8.4-1.9,2.5-6.2,1.3-7.8,3.9-.6,1.1-1.9,4.2,0,3.9"/><path class="cls-2" d="m88.8,50.4c3.1.4,2.9-3.7,3.7-5.6,7.2-6.6,6.2-5.8,1.8-14.2-.9-3.2.8-7-1.2-9.6-4.5-3.8-7.4-2.5-7.9-9.6-1.9-4.1-7.5-2.9-10.9-5-3.1-1.5-5.1-5.1-8.5-5.4-2.6-.2-4.9,1.6-7.4,2.1-6.5.2-9.8-1.1-13.9,4.9-4.2,3.6-13.1,1.2-15.6,7.1-1,2.7.7,5.9-.6,8.5-4.6,5.4-3.3,4.9-1.5,11-.9,4.7-3.8,6.1-.2,10.8.6,2.1.4,6.1,3.6,5.7"/><path class="cls-2" d="m110,278.1c4.2,3.8,10.9,15.5,2.1,17-9.5,1.2-19-5.6-26.5-11.8"/><path class="cls-2" d="m107.7,276.2c.7.6,1.5,1.2,2.2,1.8"/><path class="cls-2" d="m44.2,284c-6.2,4.6-37.4,18.3-36,2.2,2.5-4.7,10.6-7.4,13.9-11.7"/><path class="cls-2" d="m109.9,278.1c7.6,5,13.1,18.8,1.4,20.9-10.9-.6-20.3-9-27.9-16.1"/><path class="cls-2" d="m44.4,284.6c-8.5,7.4-19.9,14-31.5,10.9-4.3-.5-8.9-6.4-4.3-9.5"/><path class="cls-2" d="m114.2,284.5c-4.7,1-16-.3-15.3,6.7"/><path class="cls-2" d="m111.9,279.3c-6.6,1.4-19.9-.9-19.7,8.9"/><path class="cls-2" d="m17.3,278.4c4.9,0,13.3,6.9,12.1,12"/><path class="cls-2" d="m10.4,283.6c5.1.4,9.8,3.9,11.7,8.7-.2-.2-.4-.4-.6-.6"/></svg>