<?xml version="1.0" encoding="UTF-8"?><svg id="Oceania" xmlns="http://www.w3.org/2000/svg" width="125.4" height="302" viewBox="0 0 125.4 302"><defs><style>.cls-1{stroke-linecap:round;stroke-linejoin:round;}.cls-1,.cls-2{fill:none;stroke:#010101;}.cls-2{stroke-miterlimit:10;}.cls-3{fill:#3e2016;}.cls-3,.cls-4,.cls-5,.cls-6{stroke-width:0px;}.cls-4{fill:#ca8b7d;}.cls-5{fill:#fff;}.cls-6{fill:#010101;}</style></defs><path class="cls-5" d="m113.9,95.9c-1.8-1-2.9-1.8-4.4-2.5.6-.3,1.1-.7,1.5-1-1.3-3.4-4.7-4.3-7.4-6.1.8-.3,1.5-.8,2.2-1.3-7.2-7.2-14.8-11.5-24.8-14.2-.6,7-8.7,8.1-14.4,8.4-10.2.4-25.9,2.8-30.7-8.9-5.9,2-18.8,13.3-18.2,16,.8.5,1.6.8,2.5.9-3.1,2.4-6.1,3.8-4.8,5.4-.7,1-3.6,2.9-4,3.3-1.4,2.7,2.6,3.7,4.4,2.4-1.1,5.8,3.8,6.8,8.4,4.4,1.2,3.6,5.8,5.5,9.2,3.6,2.1,9.2,4.5,24.4,1,37.1-4.7,30.9-7.6,59-14.7,91.5,23.2,14.2,53.6,14.2,77.6,0-.9-.8-8.8-37.6-11-76.9-1.2,0-3.9-1.5-2.5-3.4-1.7-.2-3.2-2.5-2.2-4.4-5-1.2-2.9-4.2-.7-6.5-.7-3.3,1.2-4.5,3.6-5.1-1.7-7.2-1.5-22.8,1.1-30.9,3.5,3.2,11.7.4,9.2-4.8,4.7,3.9,18.4.7,10.2-5.9,2.7,1.1,6.3,2.6,9.1,1,1.3-.6.9-1.9-.3-2.4Z"/><path class="cls-5" d="m103.4,296.9c1.3,13.7-28.4-4.3-33.5-6.7-2-1.1-1.3-6.1-.8-10.4,4.2,7.2,29.7,12.3,14.4-2.1h0c3.2,3.3,19.1,16.5,19.9,19.3Z"/><path class="cls-6" d="m63.6,32.8c2.1,0,2.1,6.2,0,6.2-2.1,0-2.1-6.2,0-6.2Z"/><path class="cls-5" d="m64.7,51c-2.1,6.3-15.2,8.9-18,1.3,5.6,2.5,16.9-.2,18-1.3Z"/><path class="cls-6" d="m44.7,33.2c1.7,0,1.7,5.4,0,5.4-1.7,0-1.7-5.4,0-5.4Z"/><path class="cls-5" d="m45.2,277.5c.4,4.3.9,9.3-1.2,10.4-7.6,3.3-22.9,16.9-30.6,10.1-1.8-5.9,12.7-13.7,18.4-19.5-13,13.1,10.9,6.7,13.4-1Z"/><path class="cls-3" d="m66.6,79v.2c1.2-.1,2.4-.2,3.6-.4h0c1.2-2.9,1.7-5.9,1.9-8.9-1-.2-2-.4-3-.6,0,3.4-.8,6.8-2.5,9.7Z"/><path class="cls-3" d="m82.3,16.1C76.3,2,60.4-2,46.7,2.9c-5.3,1.5-8,3.6-10.6,8.5-6.7,11.1-9.6,40.3,3.2,42.5h.3c-.7-1.5-1.5-3.1-2.2-5-4.9-2.3-8.8-13-2.4-15.2,1.2-26.1,41.7-28.6,41.4.4,7.5-6.1,6.5,11.8.3,10.8-.8,5.3-1.8,8.2-3.7,10.3,16,0,11.9-32.4,9.2-39.1Z"/><path class="cls-3" d="m69.6,28.4c-1.7-1.9-11.3-4.6-9.3.1,2-1.1,6.4-.5,9.1.2.2,0,.4-.2.2-.4Z"/><path class="cls-3" d="m48.4,69c-.9.3-1.7.6-2.6.7,0,3.2.8,6.4,2.4,9.2h0c.8.2,1.6.3,2.5.4-.7-3.4-1.7-6.9-2.3-10.3Z"/><path class="cls-3" d="m48.9,27.4c-.3-2.9-9.9-.3-9.2,1.2,2.7-.6,7.1-.6,8.5,0,.5,0,.8-.7.7-1.2Z"/><path class="cls-4" d="m32.1,158.3h.3c.7-4.8,1.4-9.7,2.2-14.7-7.7-7.5-12.2-17.1-16.8-26.2,4-5.1,4.4-5,8.9-11.4-1-.8-1.9-1.8-2.3-3.1-3.8,2.3-10,1.3-8.2-4.3-.3-.3-1.5.6-2.3.4-5.3,11.3-11.4,13-9.7,22.1,4.8,8.9,17.3,20.9,19.3,29.1,1.9,4.3,3.4,11.2,8.6,8.1Z"/><path class="cls-4" d="m120.8,107.6c-1-1.9-.8-2.2-6.6-9.3-2.8,1.6-6.4.2-9.1-1,7.3,5.2-2.5,9.4-7.6,7,4.2,4.4,1.8,1.3,9.2,8-7.3,6.7-7.3,25.9-22.1,26.5-2.5.6-4.3,1.8-3.6,5.1-2.2,2.3-4.2,5.3.7,6.5-.9,1.9.5,4.2,2.2,4.4-1.5,1.9,1.2,3.4,2.5,3.4-.3,5.1,8,.1,9.7-1.7,2.3-2.4,3.7-8,4.1-11.2,6.3-11.3,25.1-23.8,20.5-37.8Z"/><path class="cls-4" d="m83.4,277.6h0c-.2-.2-.3-.3-.4-.4-2.8-19.5.2-22.6,1.3-36-6.6,2.4-12.9,3.8-18.9,4.4.1,16,5.3,19.8,3.6,34.3,4.2,7.2,29.7,12.3,14.4-2.1Z"/><path class="cls-4" d="m72,70.2c0,2.9-.7,5.9-1.8,8.6h0c4.4-.3,9.8-2.2,10.7-7.1-3-.9-5.9-1.2-8.8-1.7v.3Z"/><path class="cls-4" d="m66.6,79c1.7-2.9,2.6-6.3,2.5-9.7-.2,0-.5-.1-.7-.2-.3-4.5-.2-4.6-.2-8h-.1c4.6-4.8,7.8-7.7,8.8-16.2,6.2,1.1,7.1-16.9-.3-10.8.3-28.9-40.2-26.5-41.4-.4-6.4,2.2-2.5,12.9,2.4,15.2,2.5,6.9,6.2,11.5,12.1,15.5v.2c-.1,0,.3,1-.3,4.2-.3.1-.6.2-.9.3.6,3.5,1.6,6.9,2.3,10.3,5.3.5,10.7.3,16-.2v-.2Zm-6.5-52.4c1.9-1.7,9,.1,9.2,2.1-2.7-.8-7.1-1.3-9.1-.2-.6-.3-.6-1.4-.2-1.9Zm5.1,9.3c0,4-3.3,4-3.2,0,0-4,3.3-4,3.2,0Zm-25.6-7.3c-.8-1.3,5.5-2.6,6.7-2.5,1.5-.4,3.6,1.6,1.8,2.5-1.4-.7-5.8-.6-8.5,0Zm5,10c-1.7,0-1.7-5.4,0-5.4,1.7,0,1.7,5.4,0,5.4Zm2,13.8c5.6,2.5,16.9-.2,18-1.3-2.1,6.3-15.2,8.9-18,1.3Z"/><path class="cls-4" d="m48.2,79h0c-1.6-2.9-2.3-6.1-2.4-9.3-3.5.8-6.4.7-9.3,1.8,2.1,4.5,7,6.8,11.7,7.4Z"/><path class="cls-4" d="m31.9,240.8c1,14.1,4.4,16.4,1.5,36.1-15.8,14,7.9,9.6,11.9.5-1.6-14.7,3.4-15.6,3.4-32.3-6.1-.8-11.7-2.4-16.8-4.3Z"/><path class="cls-2" d="m46,35.9c0,3.5-2.7,3.5-2.6,0,0-3.5,2.7-3.5,2.6,0Z"/><path class="cls-2" d="m65.2,35.9c0,4-3.3,4-3.2,0,0-4,3.3-4,3.2,0Z"/><path class="cls-2" d="m48.2,46.9c-.2,1.6,7.9,2.1,10.5,1.3"/><path class="cls-2" d="m46.7,52.3c5.6,2.5,16.9-.2,18-1.3-2.1,6.3-15.2,8.9-18,1.3Z"/><path class="cls-2" d="m85.7,107.9c-2.6,8.1-2.7,23.7-1.1,30.9"/><path class="cls-2" d="m23.5,150.1c1.8,4.3,3.4,11.2,8.6,8.1"/><path class="cls-2" d="m13.8,99c-5.2,11.3-11.4,13-9.7,22.1"/><path class="cls-2" d="m12.9,112.3c7.2,5,8.5,14.3,13.3,21.1,1,1.6,6.6,8.2,8.4,10.1"/><path class="cls-2" d="m114.2,98.3c5.7,7.1,5.5,7.4,6.6,9.3,4.5,14-14.2,26.5-20.5,37.8"/><path class="cls-2" d="m91.5,137.6c9.5-10.8,9.6-19.5,17.4-28.3"/><path class="cls-2" d="m86.5,159.1c.7,3.7,8.1-.9,9.6-2.5,2.3-2.4,3.7-8,4.1-11.2"/><path class="cls-2" d="m83.5,141.3c-2,2.4-8.7,7.4-1.7,9.1-.9,1.9.5,4.2,2.2,4.4-1.5,1.9,1.2,3.4,2.5,3.4,0,.3,0,.6,0,.9"/><path class="cls-2" d="m91.5,137.6c-3.6,1.3-11.8,0-10.5,6.4"/><path class="cls-2" d="m23.5,150.1c-2-8.2-14.5-20.3-19.3-29.1"/><path class="cls-2" d="m97.5,235.1c-24,14.1-54.4,14.1-77.6,0"/><path class="cls-2" d="m97.5,235.1c0,0,0,0,0,0h0Z"/><path class="cls-2" d="m86.5,158.3c2.2,39.4,10.1,76,11,76.9"/><path class="cls-2" d="m19.8,235.1c8.1-37.1,10.8-69.2,16.9-104.9"/><path class="cls-1" d="m35,34.5c-.9,21.9,21,46.3,38.1,20.7"/><path class="cls-1" d="m77.1,43c-.5,4.9-1.9,10.2-4,12.2"/><path class="cls-1" d="m35,34.5c.6-26.7,41.6-29.9,41.5-.4"/><path class="cls-2" d="m49.4,64.5s.5,1-.2,4.2c-4.2,1.9-9.2,1.4-13,3"/><path class="cls-2" d="m80.9,71.6c-4.2-1.2-8.4-1.3-12.5-2.5-.3-4.5-.2-4.6-.2-8"/><path class="cls-2" d="m81,70.8c4.1.9,8,2.9,10.3,3.8"/><path class="cls-2" d="m36.7,130.2c-.5-14.8-1.9-14.2-3.2-23.7"/><path class="cls-2" d="m106.8,112.3c-7.4-6.7-5-3.6-9.2-8"/><path class="cls-2" d="m26.7,105.9c-4.5,6.4-4.9,6.3-8.9,11.4"/><path class="cls-1" d="m76.5,34.1c7.4-6,6.5,11.6.5,10.8"/><path class="cls-1" d="m35.2,33.7c-6.6,2-2.6,13,2.3,15.2"/><path class="cls-1" d="m73.1,55.2c20.1-.3,18-67.6-26.4-52.3-17.9,3.3-22.4,47.8-7.4,51"/><path class="cls-2" d="m69.6,28.4c.2.1,0,.4-.2.4-2.7-.8-7.1-1.3-9.1-.2-2.1-4.7,7.6-2,9.3-.1Z"/><path class="cls-2" d="m39.5,28.1c-.2.1,0,.5.2.4,2.7-.6,7.1-.6,8.5,0,3.2-4.3-7.1-2.1-8.7-.5Z"/><path class="cls-2" d="m65.4,244.3c-.1,15.1,4.1,18.2,3.9,31.4,0,4-2.3,13,.5,14.5,5.1,2.4,34.9,20.4,33.5,6.7-1-3.1-17-16.2-20.3-19.7-2.9-19.9.4-22.9,1.3-37"/><path class="cls-1" d="m48.7,245.2c0,16-3.8,15-3.7,28.4,0,4,1.9,12.9-.9,14.3-5.1,2.6-31.3,20.9-30.5,7.1,1.1-3.1,15.2-13.4,19.9-18,2.9-19.7-.5-22-1.5-36.2"/><path class="cls-2" d="m81,70.8c-.6,7-8.7,8.1-14.4,8.4-10.2.4-25.9,2.8-30.7-8.9"/><path class="cls-2" d="m91.3,74.6c3.6,1.1,11.5,7.2,14.5,10.4-3.2,2.6-8,3-11.6,1,3.2,7.9-8.2,7.1-11.7,2.8-2.9,5.7-11.5,6.2-15.2,1-4.1,5.5-13.1,5.4-17-.3-2.6,6.8-13.2,5.7-14.3-1.5-2.8,4.5-10.1,3.6-11.7-1.4-2,1-4.6.9-6.5-.3-.6-2.7,12.3-14,18.2-16"/><path class="cls-2" d="m103.6,86.3c2.7,1.7,6.1,2.7,7.4,6.1-3.5,2.7-9.7,3.8-13.3,1.9,3.2,7.9-8.2,7.1-11.7,2.8-2.9,5.7-11.5,6.2-15.2,1-4.1,5.5-13.1,5.3-17-.3-2.6,6.8-13.2,5.7-14.3-1.5-2.8,4.5-10.1,3.6-11.7-1.4-2.8,1-10.1,0-12.2-2.3-1.3-1.6,1.7-2.9,4.8-5.4"/><path class="cls-2" d="m26.7,105.9c-1-.8-1.9-1.8-2.3-3.1-4.6,2.4-9.4,1.4-8.4-4.4-1.8,1.2-5.8.2-4.4-2.4.3-.4,3-2.3,3.9-3.2"/><path class="cls-2" d="m33.6,106.5c-2.2,1.2-4.9.9-6.9-.6"/><path class="cls-2" d="m109.5,93.4c11.4,4.9,2.3,7.4-4.3,3.9,8.3,6.6-5.5,9.8-10.2,5.9,1.2,1.6,0,4.1-1.6,5.3-3.9,2.5-8.2-.5-10.8-3.5-2.9,5.7-11.5,6.2-15.2,1-4.1,5.5-13.1,5.4-17-.3-2.6,6.8-13.2,5.7-14.3-1.5-.6,1-1.5,1.7-2.5,2.2"/><path class="cls-2" d="m83,277.2c16.2,15-9.7,10-14.1,2.4"/><path class="cls-1" d="m33.4,277c-15.8,14,7.9,9.6,11.9.5"/><path class="cls-1" d="m72,70.2c0,2.9-.7,5.9-1.8,8.6"/><path class="cls-1" d="m69.1,69.2c.1,3.4-.8,6.9-2.5,9.8.1,0,.3-.1.4-.2"/><path class="cls-1" d="m48.4,69.1c.6,3.4,1.4,6.7,2.3,10"/><path class="cls-1" d="m45.8,69.9c0,3.2.9,6.3,2.4,9.1"/></svg>