<?xml version="1.0" encoding="UTF-8"?><svg id="Layer_1" xmlns="http://www.w3.org/2000/svg" width="548" height="374" xmlns:xlink="http://www.w3.org/1999/xlink" viewBox="0 0 548 374"><defs><style>.cls-1{stroke-linejoin:round;}.cls-1,.cls-2{stroke-linecap:round;}.cls-1,.cls-2,.cls-3,.cls-4,.cls-5,.cls-6{stroke:#000;}.cls-1,.cls-2,.cls-6{fill:none;}.cls-7{fill:url(#linear-gradient);}.cls-7,.cls-8,.cls-9,.cls-10,.cls-11,.cls-12,.cls-13,.cls-14,.cls-15,.cls-16,.cls-17,.cls-18,.cls-19,.cls-20,.cls-21,.cls-22,.cls-23,.cls-24{stroke-width:0px;}.cls-2,.cls-3,.cls-4,.cls-5{stroke-miterlimit:10;}.cls-3{fill:#b3b3b3;stroke-width:.5px;}.cls-4{fill:#ff0;}.cls-5{fill:#e6c29e;}.cls-9{fill:#f3b51a;}.cls-10{fill:#f7bc34;}.cls-11{fill:#54a980;}.cls-12{fill:#ddbda2;}.cls-13{fill:#e0a538;}.cls-14{fill:#adadac;}.cls-15{fill:#d7d7d6;}.cls-16{fill:#e2a025;}.cls-17{fill:#ae867b;}.cls-18{fill:#332921;}.cls-19{fill:#00a1e0;}.cls-20{fill:#fff;}.cls-21{fill:#ffcf69;}.cls-22{fill:#e880ab;}.cls-23{fill:#0054a5;}.cls-24{fill:#008ed3;}</style><linearGradient id="linear-gradient" x1="274" y1="0" x2="274" y2="374" gradientUnits="userSpaceOnUse"><stop offset="0" stop-color="#69cbee"/><stop offset="1" stop-color="#d0ecfa"/></linearGradient></defs><rect class="cls-7" width="548" height="374"/><polygon class="cls-4" points="363.5 374 342 374 276.2 245.5 209.4 374 189.7 374 269.2 222.1 283.2 222.1 363.5 374"/><circle class="cls-3" cx="276.2" cy="230.1" r="7.6" transform="translate(-81.8 262.7) rotate(-45)"/><path class="cls-8" d="M276,227.6c1.3,0,2.3,1,2.3,2.3s-1,2.3-2.3,2.3-2.3-1-2.3-2.3,1-2.3,2.3-2.3Z"/><rect class="cls-5" x="266.4" y="-3" width="12.2" height="493" transform="translate(-33.3 443.7) rotate(-75)"/><path class="cls-13" d="M179.6,129.4h0s0,0,0,0Z"/><path class="cls-12" d="M204.5,169.7c-.5,0-1.2-.2-1.8-.3.5.2,1.2.3,1.8.4,0,0,0,0,0,0h0Z"/><path class="cls-11" d="M204.1,175c-4.8.3-6.3-4.3-.8-2.6-3.1-.4-4.4-4-.7-3-.5-.2-.9-.4-1.1-.8-1-2.6.9-2.3,2.7-1.9-2.4-1.1-2.9-2.9.2-2.2,0-.4,0-.8,0-1.2-10.2-2.4-15.9-7.3-24.7-12.3-1.9.8-6.6,4.4-9.2,6.3,3.9,4.3,9.4,13.7,12.1,22h.1c2.8-3.4,4.7-6.6,6.6-10.4-2.9,7.2.9,21.6.7,28,1.1.8,4.4,5,10.9,4.1.2-2.8.6-4.4,1.3-5-.2-6.8,1.1-13.3,1.8-20.9Z"/><path class="cls-8" d="M176.4,85.2c-1.2,4.3,2.3,5.2,3.4.9,1.2-4.3-2.3-5.2-3.4-.9Z"/><path class="cls-13" d="M165.6,116.9c.2.2.4.3.5.5-.2-.2-.3-.3-.5-.5Z"/><path class="cls-12" d="M201.1,143.5c-.2-.2-.3-.3-.5-.4.2.2.3.3.5.4Z"/><path class="cls-21" d="M170.6,157.2c1.6-1.2,3.1-2.3,4.4-3.2,0-.3.1-.6.2-.9-15,5.2-27.2-.7-34.4-8.9.3,12.6-8.8,29-10.5,37.7-.9,11.6,2.4,15.6,6.6,17.8,7,3.7,17.4,5.2,24.8,1.1,5.4-2.8,19.3-8.8,22.8-13.8-.8-9.9-8.7-24-13.8-29.8Z"/><path class="cls-20" d="M181.5,107.9c2.8.4,4.4-.4,6.1-2.1h0c-5.2.3-14.9-4.9-15.6-6,1.8,5.3,4.9,7.2,9.5,8.1Z"/><path class="cls-21" d="M179.6,129.4h0s0,0,0,0h0Z"/><path class="cls-13" d="M169.5,147.8c.4.2,3.5-1.5,3.9-1.3-.8-.5-1.7-1.1-2.5-1.6-.7,1.4-1.2,2.5-1.3,2.9Z"/><path class="cls-13" d="M191.7,127.7c-3.3,2.3-6.1,5.2-8.2,8.5.6.5,1.2,1,1.8,1.5,2.3-2.9,5.1-5.3,8.1-7.4-.6-.9-1.1-1.8-1.7-2.7Z"/><path class="cls-22" d="M178.9,120c.6-.9.8-2.2.6-4-.7,0-1.4-.2-2.1-.4h0c-4.7,1.4-13.6-4.5-11.6-9.5-.1-.1-.2-.2-.3-.3-6.4-.7-1.4,10.8,0,11.1,3.5,3.5,8.4,8.2,13.4,3.2Z"/><path class="cls-14" d="M221.9,219.6c-11-1.4-28.6-6.9-37.8-10.2,0,0-1.2,3-.7,3,10.5,3,27.5,8.5,37.5,9.3.6-1.1,1-1.3,1-2.1Z"/><path class="cls-13" d="M179.6,129.4c-.4-.4-1.7-1.4-2.2-1.8h-.2c-4,5.9-7.3,12.4-9.7,19.1.8.5,1.4.9,1.9,1.2,2.5-5.3,6.7-13.9,10.6-18.1-.3-.3-.4-.4-.4-.4h0Z"/><path class="cls-22" d="M178.3,131.7c1.9,1.6,4.8,4.2,6.9,6.1,2-2.5,4.3-4.6,6.9-6.5,2.2,4.8,5.7,9.3,8.4,11.7-4.5-3.6-7.8-2.2-11.1-1.7h0c7.1,7.7,28.8,8.6,21.4,21.7-12.6,2.8-29.3-11.9-40-18,1.9-3.8,5.3-10,7.5-13.2Z"/><path class="cls-18" d="M161,95.3h-.4c-4.2,5.9-15.1,19.7-16.1,29.4,2.9-9.5,8.9-15.4,17.7-16.5.8-2.3,1.9-2.7,3.3-2.4-1.6-1.6-4.2-4.7-4.4-10.4Z"/><path class="cls-11" d="M189.5,141.3c4.8,4.4,10.8,6.2,15,8.4-.2-2.9-.7-4.1-3.9-6.7-4.5-3.6-7.8-2.2-11.1-1.7h0Z"/><path class="cls-8" d="M195.8,93.5c1.8.6,3.3-5.4,1.5-5.8-1.8-.6-3.3,5.4-1.5,5.8Z"/><path class="cls-18" d="M169.5,59c6.9-5.6,15-4.6,23.3-1.9,14,5.2,19.3,14.6,13,31.7-.3,1-.7,2.1-1.1,3.2-.3-.4-.7-.5-1.1-.4l-.4-.2c.6-1.4.8-2,1.3-3.1,2.3-7.7,2.4-16.6-10.9-18-4.4-3.4-19.3-11.3-29.9,10.7-.7-1.6-2.8-2.1-4.3-1.4.9-11.2,3.7-15.7,10-20.8Z"/><path class="cls-21" d="M178.3,131.7c1.3,1.1,3.5,3.1,5.2,4.5,2.1-3.4,5-6.2,8.2-8.5-3.9-5.8-4.3-8.2-8.6-12.1-1.3.3-2.5.5-3.7.4.3,1.8,0,3.1-.6,4h0c.7,3,.9,6.1.6,9.1h-.1c0,.2.1.3.2.3h0s0,0,0,0c0,0,0,0,.4.4-.4.2-1,.9-1.7,2Z"/><path class="cls-12" d="M204.3,172.6c-.3,0-.7-.1-1-.2.3.1.7.2,1,.3,0,0,0,0,0,0Z"/><path class="cls-18" d="M160.6,95.3h.4c0-1.7,0-3.6.5-5.7-1.2-.3-2.5-.7-3.5-1.4.4,2.5,1.6,4.9,2.6,7.2Z"/><path class="cls-21" d="M157,149.9c6.2,1.8,13.1,1.7,19.2-.4h0c.1-.3.2-.5.3-.7-5.8-4.9-4.6,1.4-9-2.1,2.5-6.7,5.7-13.2,9.7-19.1h.2c-2.5-2-3.8-3.4-6.8-6.1-4.2-4.4-8-4.9-8.4-13.3-14.7,1.1-19.7,18.8-21,31.4h0c4,5.1,9.6,8.5,15.8,10.4Z"/><path class="cls-15" d="M189.4,197.1c1-1.7,3.9,5.1,11.6,3.8.4-3.6.4-6,3.4-5.1,1.2,0-.8,3.7.7,5.1,5.5,5,20.2,8.1,16.6,17.9h0c0,.3,0,.6,0,.8-11.1-1.4-28.6-6.9-37.7-10.2-.3-2.5,3.4-10.6,5.3-12.3Z"/><path class="cls-13" d="M175.1,153.1c.2-1.2.6-2.5,1.1-3.7h0c-12.2,4.3-27,.3-35-9.9-.2,1.7-.4,3.3-.5,4.7,7.3,8.2,19.4,14.1,34.4,8.9Z"/><path class="cls-22" d="M179.4,129.2h.1c.3-3.2.1-6.3-.6-9.2h0c-1.8,2.8-6.8,2-8.3,1.4,3.6,3.3,5.6,5.1,8.8,7.8Z"/><path class="cls-12" d="M204.6,166.7c0,0-.2,0-.2,0,0,0,.2,0,.2.1,0,0,0,0,0,0Z"/><path class="cls-17" d="M158,88.1h0c1,.8,2.3,1.2,3.5,1.4-1.8,5.9,1.1,14.3,4.3,16.5-2,5,6.9,10.8,11.6,9.5h0c9.6,2.1,19.1-6.1,21.9-15.4,5.6,1.7,7.9-8.4,4.3-8.5l-.4-.2c3.7-8.5,5.3-19.5-9.6-21.1-4.4-3.4-19.3-11.3-29.9,10.7-.7-1.6-2.8-2.1-4.3-1.4-2.7,1.4-4.1,6.3-1.5,8.4ZM197.4,87.7c1.8.4.2,6.3-1.5,5.8-1.8-.4-.2-6.3,1.5-5.8ZM177.2,89c-2.2-.5-.4-7.3,1.8-6.6,2.2.5.4,7.3-1.8,6.6ZM172,99.8c.7,1.1,10.4,6.2,15.6,5.9h0c-1.7,1.8-3.3,2.6-6.1,2.2-4.6-.9-7.7-2.8-9.5-8.1Z"/><path class="cls-17" d="M202.7,169.4c-.5-.2-.9-.4-1.1-.8-1-2.6.9-2.3,2.7-1.9,1.6.9,4.2,2,1.1,3.1-.8.1-1.8-.2-2.7-.4,1.4.6,5.3.4,3.6,2.8-1.1,1.4-4.6,0-5.4-.8-1.4-2.3,0-2.2,1.8-1.9Z"/><path class="cls-17" d="M205.5,174.8c-1.6.8-6.4-.3-5.6-2,.2-1.8,8.3.3,5.6,2Z"/><path class="cls-17" d="M204.5,164.4c3.3.4,4.4,3.3,0,2.2-2.4-.8-3.4-3.1,0-2.2Z"/><path class="cls-2" d="M141.2,139.5c.6,13.9-8.3,32.4-11,42.4"/><path class="cls-2" d="M162.2,108.1c-14.7,1.1-19.7,18.8-21,31.4"/><path class="cls-2" d="M181.7,134.6c.2-1.7.4-7.2.4-8.4"/><path class="cls-2" d="M178.3,131.7c5,4.2,12.1,11.2,17.6,14,7.7,3.8,21.1,7.2,14.9,17.2"/><path class="cls-2" d="M179.6,129.4h0s0,0,.4.4"/><path class="cls-2" d="M179.6,129.4s0,0,0,0h0"/><path class="cls-2" d="M179.6,129.4h0"/><path class="cls-2" d="M166.2,117.4c4.6,4.1,9,8.3,13.4,11.9"/><path class="cls-2" d="M165.6,116.9c.2.2.3.3.5.5"/><path class="cls-2" d="M161.5,113.1c.7.7,2.2,2.1,4,3.7"/><path class="cls-2" d="M170.8,144.9c10.7,6.1,27.5,20.9,40,18"/><path class="cls-2" d="M150.4,133.4c4,3.5,13.6,11.1,19.1,14.5.4.2,3.5-1.5,3.9-1.3"/><path class="cls-2" d="M200.6,143c.2.2.3.3.5.4"/><path class="cls-2" d="M192.1,131.3c2.2,4.8,5.7,9.3,8.4,11.7"/><path class="cls-2" d="M183.2,115.6c4.5,4,6.3,9,10.3,14.8"/><path class="cls-2" d="M141,178.5c6.3-3,28.1-21.1,38.9-27.6"/><path class="cls-2" d="M170.6,121.4c2.9,1.4,10.5.5,8.9-5.4"/><path class="cls-2" d="M162.2,108.1c.3,5.9,2,7.5,4.3,9.6"/><path class="cls-2" d="M180,129.7c-3.8,4.2-8.1,12.8-10.6,18.1"/><path class="cls-2" d="M189.5,141.3c3.3-.5,6.6-1.9,11.1,1.7,3.2,2.6,3.7,3.8,3.9,6.7"/><path class="cls-2" d="M189.5,168.8c-2.9,7.2.9,21.6.7,28"/><path class="cls-2" d="M130.2,181.9c-.9,11.6,2.4,15.6,6.6,17.8,7,3.7,17.4,5.2,24.8,1.1"/><path class="cls-2" d="M204.1,175c-.7,7.6-2,14.1-1.8,20.9"/><path class="cls-2" d="M204.3,172.6s0,0,0,0"/><path class="cls-2" d="M204.5,169.7s0,0,0,0"/><path class="cls-2" d="M204.6,166.7s0,0,0,0"/><path class="cls-2" d="M204.5,163.3c0,.4,0,.8,0,1.1"/><path class="cls-2" d="M184.4,187c-.8-9.9-8.7-24-13.8-29.8"/><path class="cls-2" d="M191.4,164.7c-2.4,5.3-4.7,9.9-8.5,14.4"/><path class="cls-2" d="M161.6,200.8c5.4-2.8,19.3-8.8,22.8-13.8"/><path class="cls-1" d="M189.4,197.1c-1.9,1.7-5.6,9.8-5.3,12.3"/><path class="cls-1" d="M200.7,200.8c-7.4,1.4-9.8-5.2-11.2-3.8"/><path class="cls-1" d="M184.2,209.4c9,3.2,26.3,8.8,37.2,10"/><path class="cls-1" d="M200.7,200.8c4.1,1.5,10.2,6.3,13.8,8.3"/><path class="cls-1" d="M221.7,219c1.1-3.8.8-8.4-6.3-12-.9,2.5-2.6,7.8-3.1,10.6"/><path class="cls-1" d="M203.1,201.7c-.7-1.4-.8-5.6,1.3-5.8,1.2,0-.8,3.7.7,5.1,1.4,1.3,6.9,4.8,10.2,6.2"/><path class="cls-1" d="M220.9,221.7c-9.9-.9-27-6.3-37.5-9.3-.5,0,.7-3,.7-3"/><path class="cls-1" d="M221.8,218.8c.2,1.3,0,1.5-.9,2.9"/><path class="cls-1" d="M201,201c.4-3.7.5-6.3,3.7-5"/><path class="cls-2" d="M202.7,169.4c-.5-.2-.9-.4-1.1-.8-1-2.7,1.2-2.3,3-1.9,2.5,1.1,4.3-.9,1.5-1.7"/><path class="cls-2" d="M206.1,164.9c-3-1.4-5.8-.3-1.5,1.8,4.5,1.9,1.4,3.7-1.9,2.6,0,0,0,0,0,0-1.7-.3-3.2-.3-1.8,1.9.5,1.2,7,1.3,4.5,3.5-1.6.8-6.4-.3-5.6-2,1-2.2,5,1.3,6.5-.6,1.6-2.3-2.2-2.2-3.6-2.8"/><path class="cls-1" d="M204.5,88.4c-3.7,7.1-6.4,19.9-14.5,24.4-4.6,2.2-8,4.2-12.6,2.8-3-.9-7.4-4.9-12-9.8-2.9-1.9-5.7-10.6-4-16.2"/><path class="cls-1" d="M201.5,85.1c-1.1-2.4-4.4-3-6.3-2.4"/><path class="cls-1" d="M183.6,79.4c-2.2-2.7-6.1-2.7-7.1-1.3"/><path class="cls-1" d="M162.2,108.1c.8-2.3,1.9-2.7,3.3-2.4"/><path class="cls-1" d="M195.2,90.2c-1,3.7,1.8,4.5,2.8.7,1-3.7-1.8-4.5-2.8-.7Z"/><path class="cls-1" d="M176.4,85.2c-1.2,4.3,2.3,5.2,3.4.9,1.2-4.3-2.3-5.2-3.4-.9Z"/><path class="cls-1" d="M189.8,98.6c-.6,2.3-5.4,1.1-7,.5"/><path class="cls-1" d="M188.1,105.6c-5.2.6-15.3-4.7-16-5.9,2,6.9,10.7,10.9,15.6,6"/><path class="cls-1" d="M159.4,79.7c.7-19.8,16.5-29.3,33.3-22.6,15.6,5,19.2,18.1,11.9,35"/><path class="cls-1" d="M193.6,70.4c2.4-4.4,0-12.1-3-13.9"/><path class="cls-1" d="M204.5,88.4c2.3-7.7,2.4-16.6-10.9-18-4.4-3.4-19.3-11.3-29.9,10.7"/><path class="cls-1" d="M158,88.1c1,.8,2.3,1.1,3.5,1.4"/><path class="cls-1" d="M163.8,81.1c-3.6-5.6-10.2,3.7-5.8,7.1"/><path class="cls-1" d="M203.6,91.7c3.6.2,1.3,10.2-4.3,8.5"/><path class="cls-1" d="M158,88.1c.3,2.5,1.6,4.9,2.6,7.2"/><path class="cls-1" d="M160.6,95.3c-4.2,5.9-15.1,19.7-16.1,29.3"/><path class="cls-2" d="M176.6,148.7c-.8,1.7-1.3,3.5-1.6,5.3"/><path class="cls-1" d="M177.4,115.6c-4.7,1.3-13.6-4.5-11.6-9.5"/><path class="cls-1" d="M177.2,127.5c-4,5.9-7.3,12.3-9.7,19.1"/><path class="cls-1" d="M193.5,130.4c-3.1,2-5.9,4.5-8.2,7.4"/><path class="cls-1" d="M191.7,127.7c-3.3,2.3-6.1,5.2-8.2,8.5"/><path class="cls-2" d="M178.9,120c.7,3,.9,6.1.6,9.1"/><path class="cls-2" d="M141.2,139.5h0c8,10.2,22.8,14.2,35,9.9"/><path class="cls-2" d="M140.7,144.2c7.3,8.2,19.5,14.1,34.5,8.8"/><path class="cls-9" d="M492.4,262.8l5.4-20.3c.4-1.5-.5-3.1-2.1-3.5l-5.2-1.4-4.4-1.2c-2.2-.4-4.7-.9-6.9-1.6-.2,0-.4-.1-.6-.2h-.1s-5.8-1.6-5.8-1.6v-.2c0,0,.1-.2.1-.2l-9.1-2.4h0c0,.1-6.2-1.5-6.2-1.5h0q0,0,0,0l-8.4-2.2-9-2.4c-1.6-.4-3.1.5-3.5,2l-5.4,20.3-.6-.2-2.2,8.1.6.2-5.2,19.3c-.4,1.5.5,3.1,2.1,3.5l5.1,1.4,18.6,5-.3,1,9.1,2.4.3-1,16.9,4.5,6,1.6c1.6.4,3.1-.5,3.5-2l5.2-19.3,1,.3,2.2-8.1-1-.3Z"/><path class="cls-9" d="M435.9,256.3c.2,0,0,0,0,0h0Z"/><path class="cls-23" d="M486.2,236.4l-10.2-2.7c-1.6-.6-2.8-1.3-3-1.7h.2c1.5.2,11.5,2.6,14.3,0,1.8-1.7,3.8-4.9,4.1-7.4.1-.8,0-1.6-.4-2.3,1.6-.7,3.2-1.1,5-1.2,2.5-.1,2.9,1.5,3.1,1.3.9,1.9.7,4.4,0,6.4-.9,2.7-4.3,6.8-8,7.9-.3,0-.7.1-1.1.2-1.1,0-2.5,0-4.1-.4Z"/><path class="cls-9" d="M458.7,286.1l5.9-22.1,18.8,5c-2.1,6.8-4.8,13.9-7.4,20.3l-.4,1.3-16.9-4.5Z"/><path class="cls-16" d="M483.3,269l6.9,1.8-5.2,19.3c-.4,1.5-2,2.5-3.5,2l-6-1.6.4-1.3c2.6-6.4,5.3-13.5,7.4-20.3Z"/><path class="cls-16" d="M492.4,262.8l-7.1-1.9c.2-1.4.4-2.9.9-4.5,1.3-4.8,2.7-9.6,4-14.3.4-1.3.7-2.6.6-3.9,0-.2,0-.4-.1-.6l5.2,1.4c1.6.4,2.5,2,2.1,3.5l-5.4,20.3Z"/><path class="cls-10" d="M437.8,248.2l-6.6-1.8,5.4-20.3c.4-1.5,2-2.5,3.5-2l9,2.4c-3.7,1.2-6.2,5-7.5,8.8-1.4,4.2-1.8,8.6-3.6,12.6,0,0-.2.2-.2.3Z"/><path class="cls-9" d="M472.9,232.8l3.1.8c.8.3,1.7.6,2.6.9l-5.8-1.5v-.2Z"/><path class="cls-9" d="M473.8,246.7l3-4.2,4.6,2.2-2.2-9.9c2.2.7,4.7,1.2,6.9,1.6l4.4,1.2c0,.2.1.4.1.6.1,1.3-.2,2.6-.6,3.9-1.3,4.8-2.7,9.6-4,14.3-.4,1.6-.7,3.1-.9,4.5l-18.5-4.9,4.9-18.4,2.2,9.2Z"/><path class="cls-23" d="M476,233.6l10.2,2.7c-2.2-.4-4.7-.9-6.9-1.6h0s-.6-.2-.6-.2h-.1c-.9-.3-1.8-.6-2.6-.9Z"/><path class="cls-9" d="M457.7,253.5l-19.8-5.3c0-.1.2-.2.2-.3,1.8-4,2.2-8.5,3.6-12.6,1.3-3.8,3.8-7.6,7.5-8.8l8.4,2.2-6.8,7.4,5.1.4.5,5.2,6.1-6.4-4.9,18.2Z"/><path class="cls-10" d="M429.1,254.5l6.7,1.8s0,0,0,0c-2.1,7.4-3.7,14.8-4.8,22.4l-5.1-1.4c-1.6-.4-2.5-2-2.1-3.5l5.2-19.3Z"/><path class="cls-9" d="M449.6,283.7l-18.6-5c1.1-7.6,2.7-15.1,4.8-22.4,0,0,.2,0,0,0l19.6,5.2-5.9,22.1Z"/><path class="cls-23" d="M496.8,219.8c-.2,0-.6-.2-1-.4.3.1.7.2,1,.4Z"/><path class="cls-23" d="M464.3,213.3c.7.7,1.3,2.1,1.7,3.1,1.1,2.5,2.1,6,1.2,8.7l-2.4,3c-1.3-1.4-2.2-2.9-3.8-4.1-1.2-.9-2.3-1.5-3.4-2.5-.7-.6-2.8-2.3-2.7-3.1,0-.5.8-1.2,1.5-1.8h0c2.1-1.3,2.4-1.5,5.9-3.7.7-.2,1.3-.1,1.9.4Z"/><path class="cls-23" d="M499.1,221.9c-.4-.6-1.4-1.5-1.9-1.9.2,0,.3.2.4.3.7.4,1.2,1,1.5,1.7Z"/><path class="cls-23" d="M479.3,234.7h0c-.2,0-.4,0-.6-.1h.6Z"/><path class="cls-24" d="M466.7,255.9l4.9-18.4,2.2,9.2,3-4.2,4.6,2.2-2.2-9.9c-.2,0-.4-.1-.6-.2h-.1s-5.8-1.6-5.8-1.6v-.2c0,0,.1-.2.1-.2l-9.1-2.4h0c0,.1-6.2-1.5-6.2-1.5h0c0,0-6.8,7.5-6.8,7.5l5.1.4.5,5.2,6.1-6.4-4.9,18.2-21-5.6c-1.7,2.2-1.9,5.3-2,8.1l20.9,5.6-5.9,22.1-.3,1,9.1,2.4.3-1,5.9-22.1,20,5.3c.4-1.1.7-2.3,1-3.4.5-1.7.7-3.3.9-4.8l-19.8-5.3Z"/><path class="cls-24" d="M459,228.3c1.5.4,3,.7,4.5,1,0-.1.1-.3.1-.4-1.1-1.1-2.5-1.5-3.9-2.1-1.7-.7-3.2-1.6-4.9-2.2-5.2-1.9-3-5,0-6.9.6-.4,1.2-.7,1.6-1t0,0c2.1-1.3,2.4-1.5,5.9-3.7.3-.2.6-.3.9-.5-1.3-2.3-9.5-4.1-12.2-3.6-4.1.8-7.4,4.4-8.1,8.3-.9,5.1.1,6.3,4.5,7.5,3.9,1,7.5,2.6,11.5,3.7Z"/><path class="cls-19" d="M435.9,256.3c.1-2.8.3-6,2-8.1l-6.6-1.8-.6-.2-2.2,8.1.6.2,6.7,1.8s0,0,0,0Z"/><path class="cls-24" d="M435.8,256.3h0c-.1,0-.1,0,0,0Z"/><path class="cls-24" d="M499.1,221.9c-.4-.6-1.4-1.5-1.9-1.9,0,0,0,0,0,0,0,0-.1,0-.2,0h0s0,0,0,0c-.2,0-.6-.2-1-.4-2-.8-5.6-2.4-6.9-2.5-2.7-.2-3.9,3.8-5.1,5.7-1,1.6-2.4,3.1-3.8,4.2-.5.4-1.2.9-1.8,1.2-.7.3-2.5,1.7-2.5,1.7,2.7,1,6.6-2,8.7-3.5,2.2-1.6,4.4-3.1,6.8-4.1,1.6-.7,3.2-1.1,5-1.2,2.5-.1,2.9,1.5,3.1,1.3h0c0,0,0-.2-.2-.4Z"/><polygon class="cls-24" points="473 231.9 473.1 231.8 475.5 229.5 476.9 228.1 468.4 225.3 465 228.4 463.7 229.6 463.6 229.7 472.5 232.4 473 231.9"/><path class="cls-23" d="M492.4,262.8l-7.1-1.9c-.2,1.5-.4,3-.9,4.8-.3,1.1-.6,2.2-1,3.4l6.9,1.8,1,.3,2.2-8.1-1-.3Z"/><path class="cls-6" d="M486.2,236.4l4.4,1.2,5.2,1.4c1.6.4,2.5,2,2.1,3.5l-5.4,20.3"/><line class="cls-6" x1="472.9" y1="232.8" x2="476" y2="233.6"/><path class="cls-6" d="M431.2,246.4l5.4-20.3c.4-1.5,2-2.5,3.5-2l9,2.4,8.4,2.2"/><path class="cls-6" d="M449.6,283.7l-18.6-5-5.1-1.4c-1.6-.4-2.5-2-2.1-3.5l5.2-19.3"/><path class="cls-6" d="M490.2,270.9l-5.2,19.3c-.4,1.5-2,2.5-3.5,2l-6-1.6-16.9-4.5"/><polyline class="cls-6" points="464.6 264 458.7 286.1 458.4 287.2 449.3 284.8 449.6 283.7 455.5 261.6"/><line class="cls-6" x1="471.7" y1="237.5" x2="466.7" y2="255.9"/><polyline class="cls-6" points="463.9 230.3 463.9 230.2 473 232.6 472.9 232.8 472.8 233"/><line class="cls-6" x1="457.7" y1="253.5" x2="462.5" y2="235.3"/><polygon class="cls-6" points="492.4 262.8 493.3 263 491.2 271.1 490.2 270.9 483.3 269 464.6 264 455.5 261.6 435.9 256.3 435.8 256.3 429.1 254.5 428.5 254.4 430.7 246.3 431.2 246.4 437.8 248.2 457.7 253.5 466.7 255.9 485.3 260.9 492.4 262.8"/><polyline class="cls-6" points="479.3 234.8 481.5 244.7 476.9 242.4 473.8 246.7 471.7 237.5 470.4 232.4 472.8 233 478.6 234.5"/><path class="cls-6" d="M499.3,222.3c.9,1.9.7,4.4,0,6.4-.9,2.7-4.3,6.8-8,7.9-.3,0-.7.1-1.1.2-1.1,0-2.5,0-4.1-.4-2.2-.4-4.7-.9-6.9-1.6-.2,0-.4-.1-.6-.2h-.1c-.9-.3-1.8-.6-2.6-.9-1.6-.6-2.8-1.3-3-1.7"/><path class="cls-6" d="M497.2,220c.2,0,.3.2.4.3.7.4,1.2,1,1.5,1.7"/><path class="cls-6" d="M495.8,219.4c.3.1.7.2,1,.4"/><path class="cls-6" d="M473.1,231.8c1.5.3,11.5,2.7,14.3.1,1.8-1.7,3.8-4.9,4.1-7.4.1-.8,0-1.6-.4-2.3"/><path class="cls-6" d="M499.3,222.3c0,0,0-.2-.2-.4-.4-.6-1.4-1.5-1.9-1.9l-.3-.2c-.2,0-.6-.2-1-.4-2-.8-5.6-2.4-6.9-2.5-2.7-.2-3.9,3.8-5.1,5.7-1,1.6-2.4,3.1-3.8,4.2-.5.4-1.2.9-1.8,1.2-.7.3-2.5,1.7-2.5,1.7,2.7,1,6.6-2,8.7-3.5,2.2-1.6,4.4-3.1,6.8-4.1,1.6-.7,3.2-1.1,5-1.2,2.5-.1,2.9,1.5,3.1,1.3"/><polygon class="cls-6" points="473 231.9 472.5 232.4 463.6 229.7 463.7 229.6 465 228.4 468.4 225.3 476.9 228.1 475.5 229.5 473.1 231.8 473 231.9"/><path class="cls-6" d="M456.4,216.7c-.8.6-1.5,1.3-1.5,1.8,0,.8,2,2.6,2.7,3.1,1.1,1,2.2,1.6,3.4,2.5,1.7,1.2,2.5,2.6,3.8,4.1l2.4-3c.9-2.7-.1-6.2-1.2-8.7-.4-.9-.9-2.3-1.7-3.1-.6-.6-1.2-.6-1.9-.4-.5.1-1,.4-1.5.6-1.2.5-1.5.8-2.6,1.7-.4.3-1.1.8-1.8,1.4"/><path class="cls-6" d="M462.4,212.9c.3-.2.6-.3.9-.5-1.3-2.3-9.5-4.1-12.2-3.6-4.1.8-7.4,4.4-8.1,8.3-.9,5.1.1,6.3,4.5,7.5,3.9,1,7.5,2.6,11.5,3.7,1.5.4,3,.7,4.5,1,0-.1.1-.3.1-.4-1.1-1.1-2.5-1.5-3.9-2.1-1.7-.7-3.2-1.6-4.9-2.2-5.2-1.9-3-5,0-6.9.6-.4,1.2-.7,1.6-1h0c2.1-1.3,2.4-1.5,5.9-3.7Z"/><polygon class="cls-6" points="457.6 228.7 450.8 236.2 455.9 236.5 456.5 241.7 462.5 235.3 466.5 231.1 466.5 231 463.9 230.3 457.7 228.6 457.6 228.7"/></svg>