<?xml version="1.0" encoding="UTF-8"?><svg id="Latin_America" xmlns="http://www.w3.org/2000/svg" width="125.7" height="299" viewBox="0 0 125.7 299"><defs><style>.cls-1{stroke-linecap:round;stroke-linejoin:round;}.cls-1,.cls-2{fill:none;stroke:#010101;}.cls-2{stroke-miterlimit:10;}.cls-3{fill:#45322e;}.cls-3,.cls-4,.cls-5,.cls-6,.cls-7,.cls-8,.cls-9{stroke-width:0px;}.cls-4{fill:#d14c4a;}.cls-5{fill:#b2794d;}.cls-6{fill:#99694f;}.cls-7{fill:#fff;}.cls-8{fill:#e94624;}.cls-9{fill:#010101;}</style></defs><path class="cls-6" d="m97.4,294.8c-4.1-1.2-7.4-2.2-10.6-3.8v-.2c4.8-.2,11,0,13.5,4.6-1-.1-1.9-.4-2.8-.6Z"/><path class="cls-5" d="m28.2,113.9c-1.5,2.8-6.5,10.9-6.7,10.4,2.6,6.3,6.4,13.3,11,18h1.8c-.6,7.4-1.1,14.7-1.2,20.3-7.9-.8-3.7-13-16.3-22.6-13.4-12.9-6.7-18.9,1.2-33.1,2,3.8,4.1,5.1,10.1,7Z"/><path class="cls-6" d="m18.2,292.6c-9.3-1.9-1.4-8.2,3.5-9.9v.2c2.6,2.9-2.8,6.7-3.5,9.7,0,0,0,0,0,0Z"/><path class="cls-5" d="m101.4,121.6c-.9-.8-6.7-5.8-8.3-7.2,5.2-1.9,8.9-5.1,11.2-10.9,3.3,3.3,9.8,9.8,11.2,12.3,3,5.3-2.1,17.2-6,21.8-2.9,3.4-9.9,8.9-12.6,12.7,3.1,5.2-12,17.6-12.8,10.8-1.1,0-3.6-1.3-2.2-2.9-1.3-.2-2.9-1.7-2-3.8-4.5-1.1-2.7-3.6-.7-5.6-1.1-5.6,7.4-4.9,10.6-6.1h0c7.1-4.4,6.4-16.1,11.6-21.2Z"/><path class="cls-5" d="m83.7,35.5c-1.3-.8-3.1-.2-3.8,1.3h0c0,1.5-2.4,1.7-3.2.4-.8-1.2,0-2.8,0-4.3.7-6.7-3.2-16.9-10.5-15.8-7.6,2.6-15.3,6.2-23.6,5.1-2.3-.2-6.1-2.3-8.2-1.6-4.9,2-5.3,11.2-4.5,15.4-5.2.3-3.2,15.4,1.7,13.9.7,11.5,8.6,20.8,19.3,23.5-1.3,19.7,12.4,19.6,19.1,3.9.5-3.5-.3-6.7,0-11.4,5.1-3.3,8.6-8.6,9.4-16.5,5.7.5,9.1-10.7,4.5-13.9Zm-20.7.6c2.5-.1,2.5,7.6,0,7.5-2.5.1-2.5-7.6,0-7.5Zm-24,6.8c-2,0-2-6.6,0-6.5,2,0,2,6.6,0,6.5Zm10.5,20.7c-3.7-.5-5.4-2.1-6.9-5.1h0c4.7,1.6,13.3.2,18.2-1.1,3.5.5-.9,3.8-2.3,4.5-2.2,1.5-6.7,2-9,1.6Z"/><path class="cls-5" d="m44.2,280.3c-.2,2.1-1.1,3.9-2.3,5.5-5.4,1.2-22.1,4.3-14.4-6h0c2.4-1.3,4.8-2.4,6.6-3.2.6-13.6-3.9-43.3-2.8-57.2,6.3,1.5,17.1,2.1,21.7.5-1.3,23-8.9,37.2-8.8,60.4Z"/><path class="cls-6" d="m20.8,293c3.8-2.1,9.4-3.2,13.6-1.9-4.2,1.7-9.1,2.4-13.6,1.9Z"/><path class="cls-9" d="m62.9,36.1c2.5-.1,2.5,7.6,0,7.5-2.5.1-2.5-7.6,0-7.5Z"/><path class="cls-4" d="m44.2,280.3c-.2,2.1-1.1,3.9-2.3,5.5-5.4,1.2-22.1,4.3-14.4-6h0c-1.9.8-3.9,1.9-5.8,2.8v.2c2.6,2.9-2.8,6.7-3.5,9.7-2.2-.5-4.5-1.2-4.4-3.3-6.7,15.5,37.4,3.2,30.3-8.4,0-.2,0-.4,0-.6Zm-23.4,12.7c3.8-2.1,9.4-3.2,13.6-1.9-4.2,1.7-9.1,2.4-13.6,1.9Z"/><path class="cls-4" d="m105.9,289.2h0c1.2,2,.7,4.6-1.4,5.6-2.1-3.6-4.3-4.9-2.8-9.4-1.8-1.2-3.5-2.2-5.2-3.3,5.1,10.1-12.9,3.3-17.6,3.5h0c-1.2-1.1-2.3-2.5-2.4-4.2-6,16.7,38.9,25.6,29.6,7.8Zm-8.5,5.6c-4.1-1.2-7.4-2.2-10.6-3.8v-.2c4.8-.2,11,0,13.5,4.6-1-.1-1.9-.4-2.8-.6Z"/><path class="cls-5" d="m93.7,287.6c-5-.5-9.9-1.2-14.8-2h0c-1.8-1.5-3.3-4.1-2-6.3.8-10.2-2.3-18.5-3.5-24.1-2.3-11-3.2-25.2-4-36.4,5.6,0,15.5-.4,20-2.1,5.7,16.8-3.3,36.7-1.1,60.9,2.9,1.4,5.6,2.9,8.3,4.5,1.9,2.5.9,6.3-2.7,5.5Z"/><path class="cls-7" d="m42.5,58.4c4.7,1.7,13.3.4,18.2-1,6.5,2.1-14.1,12.2-18.2,1.1h0Z"/><path class="cls-9" d="m38.9,36.4c2,0,2,6.6,0,6.5-2,0-2-6.6,0-6.5Z"/><path class="cls-8" d="m86.2,163c.8,4,5.1,27.8,5.3,51.5,0,.9-.9,1.6-2.4,2.1-5.4,2-18,2.2-24,2.1-1.6-13.5-3.8-26.2-5.6-34.4,0,3.8-.6,13.7-4.4,33.8-.1.8-.9,1.3-2.1,1.8-5.3,1.4-21.7,1.9-26.4-3.1,1.4-32.5,4.3-35.4,6.4-53.4,0,.9,0,1.8,0,2.6,3.1.1,21,2.5,26.1,2.2,4.4-.2,23.4-4.1,25.1-7.2,0,1.6.8,2,2,1.9Z"/><path class="cls-3" d="m76,9c3.7,5.4,7.6,18.2,6.9,26.2-1.2-.3-2.5.3-3.1,1.6h0c0,1.5-2.4,1.7-3.2.4-.8-1.2,0-2.8,0-4.3.7-6.7-3.2-16.9-10.5-15.8-7.6,2.6-15.3,6.2-23.6,5.1-11.7-4.9-12.9,2.2-13,12C25.7,13.8,36.5-1.2,57,.9c9.3.2,13.6.3,19,8.1Z"/><path class="cls-7" d="m67.4,131.5c3.2.5,5.9-1.9,5.7-5-1.2-4.8,2.7-11.8-2.6-13.9-6.4-1.6-19.7-5-27.3-7.7-2.4-.9-4.9.8-4.8,3.2,1.1,5.6-1.8,12.8,3.4,16.3,6.1,3.3,17.6,6,25.6,7.2Zm15.6-26.2l-.8.6c-1.4,11.2-1.2,26.7,1.2,38.1-2.6.7-4.6,1.9-4,4.8-2,2-3.8,4.5.7,5.6-.9,2.1.7,3.5,2,3.8-1.3,1.7,1.1,2.9,2.2,2.9-1.6,3-20.7,7-25.1,7.2-5,.3-22.9-2.1-26.1-2.2,0-1.1,0-2.3,0-3.5,0,0,0,0,0,0,.5-18,3.7-38.5,1.8-56.2h-.2c-1.2,1.4-3.2,4.3-5.1,7.9-7.6-1.9-10.9-4.4-12.9-10.6,10.2-13,13-30.5,33.9-27.7,1.2,19,14,14,19.4,1.2,5.4.1,10.9-.7,15.4,1.8,5.9,3.5,16.2,16,20.3,19.5-.4,8.3-7.3,14.8-14.7,16.7-2.1-2.3-5.2-6.2-7.9-9.9Z"/><path class="cls-4" d="m38.8,119.4c.8-4-3.7-16.1,4.4-14.6,7.7,2.8,21,6.2,27.3,7.7,5.4,2.1,1.4,9.1,2.6,13.9.2,3.1-2.6,5.5-5.7,5-7.9-2-27.8-3.5-28.6-12.1Z"/><path class="cls-6" d="m101.1,288.5c0-1,.7-2.1.6-3.1,3.4,1.6,7.3,6.8,2.8,9.4-.8-2.2-3.5-3.8-3.4-6.3Z"/><path class="cls-1" d="m31.4,219.4c-1.1,13.7,3.4,43.7,2.8,57.2"/><path class="cls-1" d="m44.2,280.3c0,.2,0,.4,0,.6"/><path class="cls-1" d="m53,219.9c-1.3,23-8.9,37.2-8.8,60.4"/><path class="cls-1" d="m69.2,218.8c.8,11.2,1.7,25.4,4,36.4,1.2,5.6,4.3,13.9,3.5,24.1"/><path class="cls-1" d="m89.2,216.7c5.7,16.8-3.3,36.7-1.1,60.9"/><path class="cls-1" d="m34.1,276.6c-50.2,19.4,9.2,23.9,10.2,2.9"/><path class="cls-1" d="m76.8,279.3c-2.1,8.9,13.8,13.2,20.6,15.5,4,1.9,11.4,0,8.5-5.5-4.5-5.5-11.6-8-17.7-11.6"/><path class="cls-1" d="m96.3,282c5.3,10.2-12.8,3.5-17.5,3.6.3,0,.5.1.8.2"/><path class="cls-1" d="m101.5,284.9c-.7,6.2-.3,4.7,2.9,9.8"/><path class="cls-1" d="m100.3,295.7c-2.4-4.8-8.7-5.1-13.5-4.9"/><path class="cls-1" d="m42.7,285.6c-5.4,1.4-23,4.8-15.2-5.7"/><path class="cls-1" d="m34.8,291.3c-4.3-1.5-10.1-.5-14,1.7"/><path class="cls-1" d="m21.8,282.9c2.4,2.7-2.7,6.6-3.5,9.4"/><path class="cls-1" d="m105.9,289.2c9.4,18.1-36.7,8.7-29.3-8.5"/><path class="cls-1" d="m44.2,280.9c7.1,11.6-37,23.9-30.3,8.4"/><path class="cls-2" d="m50.7,73.5c-1.1,19.7,12.5,19.3,19.1,3.8.5-3.5-.3-6.7,0-11.4"/><path class="cls-2" d="m50.5,76.1c-20.9-2.7-23.7,14.7-33.9,27.7,2.1,6.1,5.3,8.6,12.9,10.6"/><path class="cls-2" d="m69.4,77.3c5.5.2,11.3-.8,15.9,1.8,5.9,3.5,16.2,16,20.3,19.5-.4,8.3-7.3,14.8-14.7,16.7-3.6-3.8-10.1-12.8-13.3-17.3"/><path class="cls-2" d="m33.1,163.5c0,.9,0,1.8,0,2.6,3.1.1,21,2.5,26.1,2.2,4.4-.2,23.4-4.1,25.1-7.2"/><path class="cls-2" d="m33.1,162.6c0,.3,0,.6,0,.9"/><path class="cls-2" d="m35.6,92c-1.9,8.7,0,20.8,0,29.5,0,10.4-2.4,30.1-2.5,41"/><path class="cls-2" d="m82.1,106.2c-.2,3.8-1.4,15.3-1.1,20.7.4,5.2,1.9,12.9,2.3,17.6"/><path class="cls-2" d="m18,107c-7.9,14.2-14.6,20.2-1.2,33.1,12.6,9.6,8.3,21.6,16.3,22.6h0s0,0,0,0"/><path class="cls-2" d="m28.2,113.9c-1.5,2.8-6.5,10.9-6.7,10.4"/><path class="cls-2" d="m34.6,106.5c-1.2,1.4-3.2,4.3-5.1,7.9"/><path class="cls-2" d="m17.4,119.9c4.6,2.9,5.8,8.7,8.1,13.2,1.3,3,5.7,7.1,7,9.3"/><path class="cls-2" d="m93.2,114.4c1.6,1.3,7.4,6.4,8.2,7.2"/><path class="cls-2" d="m104.4,103.5c3.3,3.3,9.8,9.8,11.2,12.4,3,5.3-2.1,17.2-6,21.8-2.9,3.4-9.9,8.9-12.6,12.7"/><path class="cls-2" d="m89.2,143.2c10-5.9,6-21.4,18.1-25.8"/><path class="cls-2" d="m81.5,146.6c-1.8,2.1-7.9,6.4-1.6,7.8-.9,2.1.7,3.5,2,3.8-1.3,1.7,1.1,2.9,2.2,2.9.8,6.8,15.9-5.6,12.8-10.8"/><path class="cls-2" d="m89.8,142.8c-3.2,1.1-11.7.5-10.5,6.1"/><path class="cls-2" d="m33.1,162.6c-2,18.7-5,21.2-6.4,54.3,4.7,5,21.1,4.5,26.4,3.1,1.2-.4,2-1,2.1-1.8,4-22,4.3-29.1,4.4-35.5"/><path class="cls-2" d="m57.2,175.3c3.7,11.9,5.8,26.3,8,43.5,6,0,18.6,0,24-2.1,7.3-4.4-4.5-58.4-3-53.9"/><path class="cls-2" d="m53.2,171.5c2.2,1.9,2.8,2.7,4,3.8"/><path class="cls-2" d="m69.8,65.9c2.9-2.3,5.4-3.7,7.6-9"/><path class="cls-1" d="m29.5,34.2c2.4,8.6.2,24.5,8.8,31.7,10.5,9.4,17.6,10.9,31.4,0"/><path class="cls-1" d="m34.2,32.9c1.2-1,7.2-1.2,8.3-.6"/><path class="cls-1" d="m59.2,31.9c2.2-1.1,7.9-.4,8.4.5"/><path class="cls-1" d="m40.5,39.6c0,4.2-3.2,4.2-3.1,0,0-4.2,3.1-4.2,3.1,0Z"/><path class="cls-1" d="m64.8,39.8c0,4.8-3.9,4.8-3.8,0,0-4.8,3.9-4.8,3.8,0Z"/><path class="cls-1" d="m46.8,45.7c-.4,2.9-4.3,7.5,6.1,7.3"/><path class="cls-1" d="m42,58.2c4.8,2.1,13.6.6,18.7-.8,6.5,2.1-14.1,12.2-18.2,1.1"/><path class="cls-2" d="m79.1,49.5c-.7,3.8-.8,5.7-1.8,7.4"/><path class="cls-2" d="m29.5,34.2C25.7,13.8,36.5-1.2,57,.9c9.3.2,13.6.3,19,8.1,3.7,5.4,7.6,18.1,7,26.1"/><path class="cls-2" d="m79.8,37c1.9-4.2,6.4-.6,6,3,0,3.8-3.4,12.1-8,8.5"/><path class="cls-1" d="m29.6,36c-5,.5-3,15.3,1.8,13.9"/><path class="cls-2" d="m67.4,131.5c-8-1.2-19.6-3.9-25.6-7.2-5.1-3.4-2.3-10.7-3.4-16.3,0-2.4,2.4-4.1,4.8-3.2,7.7,2.8,21,6.2,27.3,7.7,5.4,2.1,1.4,9.1,2.6,13.9.2,3.1-2.6,5.5-5.7,5Z"/></svg>