<?xml version="1.0" encoding="UTF-8"?><svg id="Oceania" xmlns="http://www.w3.org/2000/svg" width="138" height="203.8" viewBox="0 0 138 203.8"><defs><style>.cls-1{stroke-linejoin:round;}.cls-1,.cls-2{stroke-linecap:round;}.cls-1,.cls-2,.cls-3{fill:none;stroke:#000;}.cls-2,.cls-3{stroke-miterlimit:10;}.cls-4{fill:#383938;}.cls-4,.cls-5,.cls-6,.cls-7,.cls-8,.cls-9,.cls-10{stroke-width:0px;}.cls-5{fill:#363738;}.cls-6{fill:#d7ad76;}.cls-7{fill:#a86642;}.cls-8{fill:#fff;}.cls-9{fill:#ecbdd8;}.cls-10{fill:#010101;}</style></defs><path class="cls-6" d="m76.7,43.8c-.5,1.2-.8,2.6-.2,2.8-.7.1-1.2.8-1.4,1.4-3.4.8-3.6-3-4.1-5.4-.5-1.2-1.6-2.2-1.8-3.6-.4-2.3,2-4.3,1.9-6.7-1.7-5.8-3-5.3,1.4-10.4,1.2-2.4-.4-5.5.5-8,2.3-5.5,10.7-3.3,14.7-6.7,3.9-5.7,7-4.5,13.1-4.6,2.4-.5,6.3-1,8.7-.8,3.3.3,3.4,2.5,6.3,4,3.2,1.9,8.5.8,10.3,4.7.4,6.6,3.3,5.6,7.4,9,1.9,2.5.3,6.1,1.1,9.1.8,2.8,4.2,5.4,3,8.6-.9,2.1-3.7,2.8-4.8,4.8-.9,2.4-.7,5.8-4.3,5.4-3.9-5.2-4.7,4-7.9-.7-.6-1.2.9-2.8-.1-3.5-1.2-.9-3.1-.4-4.3-1.3-2.2-2.7-2.2-7.8-6.9-3.8-6.4,7-7.1-4.3-14.4,3.3-4.3.7-7-9.5-10.8-2.1-2,2.5-6.8,1.1-7.7,4.5Z"/><path class="cls-5" d="m68.5,161.4c-1.4-2.8-2.9-6-4.4-9.2l-.4.2c1,2-2.6,19.9-3.6,34.5-8.4,2.4-19-1-26-5.3-1.3-6.3,6.3-23.6,7.5-37.1,5.8.9,5.7-3.9.2-3.2,3.8.6,6.8-3.4,1.9-3.5.7,0,1.3-.2,1.6-.7,2.1-2.9-.5-3.1-2.9-3.2,2.9-.4,5.4-2.1,1.2-2.5v-.5c17.3,2,21.9-.4,38.3-5.8,16.1,18.1,41.2,46.9,47.4,52.7-2.5,9.1-2.4,20.9-13.6,24.1-9,3-22.8,1.8-29.5-5.5h0c-5.6-5.2-14.5-26.8-17-33.9h0c-.2-.4-.3-.7-.5-1.1Z"/><path class="cls-10" d="m108,46.7c2.3,0,2.3,7,0,7-2.3,0-2.3-7,0-7Z"/><path class="cls-8" d="m105.9,66.7c6.1,2-13.1,11.4-17,1h0c4.4,1.5,12.4.2,17-1Z"/><path class="cls-9" d="m111.4,80.7c0,2.9-5.9,7.2-11.3,10-8.4,4.3-8.1-5.1-7.6-9.8-2.3.8-10.6,2.2-12.5,4.1-3.6,3.6-17.2,16-22.5,21.9h0c4.1-.3,7.5.5,9.4,1.9h0c3.2-1.2,8-3.5,13.5-6.2,6.9,4.3,9,12.3,7.9,20.4-1.3.4-2.8.9-4.5,1.5,0,1.8.1,1.2.2,3.1h0c16.3,18.4,39.2,44.6,45.1,50.1,2.3-10.9,2.8-35.2,2.8-44.7-.9-19,3.9-50.1-20.4-52.2Z"/><path class="cls-10" d="m85.6,47c1.9,0,1.9,6.1,0,6-1.9,0-1.9-6.1,0-6Z"/><path class="cls-5" d="m66.9,108.8h0c-6.7,2-15,3.2-19.5,4.9h0c2.2-8.4,14.6-7.8,19.5-4.9Z"/><path class="cls-4" d="m58,197.4s.3,5.5-.3,5.3c-15.1.1-40,1.1-50.7,0-.8-1.4-1.5-2.4-1.1-3.8,16.7,4.3,36.2-2.8,52-1.5Z"/><path class="cls-5" d="m37.8,198.1v.4c-7,.8-11.8,1.8-17.5,1.8.4-5,0-13-.1-12.9,4.5-1.1,8.5-2.5,11.2-4h.8c4.2,4.3,5.3,9.3,5.7,14.6Z"/><path class="cls-7" d="m111.3,77c6.1-4.2,11.4-8.5,12-17.9,8.6.5,7.3-19.3.6-11.5-.7,1.1-2.5.3-3.1-.9-.6-1.2.9-2.8-.1-3.5-1.2-.9-3.1-.4-4.3-1.3-1.6-1.2-1.2-4-3-5-3-1.4-4.8,3.3-7.5,3.6-6.4-.9-4.7-4.5-10.8.9-3.5,1-5.3-6.2-8.9-4.5-4,6.5-8.3,2-9.5,7.5,0-.2,0-.4-.1-.6-.5,1.4-1,3,.3,2.9-.2,0-.4,0-.5,0-3.9,2.1-2.4,13.7,2.2,13,1.2,8.4,8.8,16.6,14.6,21.5-.2-.1-.3-.3-.5-.4l-.2.3c-.5,4.7-.8,14.1,7.6,9.8,4.9-2.2,10.4-7.4,11.2-8.9.2-2.6,0-.8,0-4.9m-27.2-26.9c0-3.9,2.9-3.9,2.9,0,0,3.9-2.9,3.9-2.9,0Zm4.8,17.6h0c4.4,1.5,12.4.2,17-1,6.1,2-13.1,11.4-17,1Zm17.3-17.5c0-4.5,3.6-4.5,3.6,0,0,4.5-3.6,4.5-3.6,0Z"/><path class="cls-7" d="m80.4,102.6c-12.4,7.4-24.7,8.5-36.2,12.1-7.1.5-7.7,10.4-6,14.9,18.6,5.7,32.1-.7,50.1-6.6,1.1-8.1-1-16.1-7.9-20.4Z"/><path class="cls-7" d="m34.1,181.5c-.6.6-1.6,1.3-2.8,1.9h.8c4.3,4.4,5.3,9.5,5.7,15,7.3-.9,15.7-1.3,20.2-1.6.6-1.6.5-5.8-.9-9.5-7.9,1.2-16.7-2.1-23-5.8Z"/><path class="cls-7" d="m38.5,143.4c1.1,1.2,7.8,1.9,7.4-.6-.2-1.2-1.4-1.5-2.8-1.5,3-.4,4.8-3.4.5-3.5-2.5.2-6.5-1.1-5.3,2.1.4,1.2,1.9,1.3,3.4,1.3-2.4,0-4.8.1-3.2,2.1Z"/><path class="cls-7" d="m42.3,134c-7.6.8-.8,5.7,2.9,3.2,2.1-2.9-.5-3.1-2.9-3.2Z"/><path class="cls-7" d="m43.5,131.5c-1.5,0-5.7-.7-4.3,1.9,1.3,1.9,10.7-1.1,4.3-1.9Z"/><path class="cls-7" d="m6.8,197.7h-.4c-.2.4-.3.8-.4,1.1,5.4.9,10.4,1.6,14.3,1.5.4-5,0-12.9-.1-12.9-10.8,2.1-13.3,5.3-13.4,10.3Z"/><path class="cls-1" d="m129.2,178.2c-6.2-5.8-31.4-34.7-47.5-52.8"/><path class="cls-2" d="m129.2,178.2c-2.5,9.1-2.4,20.9-13.6,24.1-9.3,3.1-23.6,1.8-30.2-6.2"/><path class="cls-2" d="m59.8,139.7c1.4,7.9,6.3,16.7,9.7,24"/><path class="cls-2" d="m86.1,196.8c-5.6-5.2-14.5-26.8-17-34"/><path class="cls-1" d="m41.6,144.9c0,1.1-.3,1.8-.3,2.7"/><path class="cls-1" d="m66.9,109.1c-4.9-2.9-17.3-3.4-19.5,4.9"/><line class="cls-1" x1="20.3" y1="200.2" x2="20.3" y2="200.6"/><line class="cls-1" x1="20.4" y1="191.1" x2="20.5" y2="191"/><line class="cls-1" x1="6.4" y1="199.3" x2="7" y2="199.3"/><path class="cls-1" d="m34.1,181.9c7,4.3,17.5,7.7,26,5.3,1-14.6,4.5-32.5,3.6-34.5"/><path class="cls-1" d="m41.3,147.6c-2.2,13.8-8.3,28.2-7.2,34.3"/><path class="cls-1" d="m57,187.5c1.5,3.6,1.7,8.1,1,9.7"/><path class="cls-1" d="m58,197.2c-15.6,0-34.6,5.8-51,2.1"/><path class="cls-1" d="m6.8,198.7c0-5.5,2.2-8.6,13.4-10.9,0,0,.6,7.2.1,12.4"/><path class="cls-1" d="m34.1,181.9c-3.7,3.1-8.1,4.4-14,5.9"/><path class="cls-1" d="m7,203c10.6,1.2,35.7.2,50.7,0,.6.2.3-5.3.3-5.3"/><path class="cls-1" d="m6.4,198.1c-.8,1.7-.8,2.8.4,4.5"/><path class="cls-3" d="m32.2,183.8c4.2,4.2,5.3,9.2,5.7,14.6"/><path class="cls-1" d="m107.5,79.9c5.6-4.1,10.7-5.9,14.2-13.4"/><path class="cls-1" d="m76.6,43.4c2,8,.4,20.5,7.4,28.3"/><path class="cls-1" d="m81.2,44.2c1.1-.9,6.7-1.1,7.8-.6"/><path class="cls-1" d="m104.5,43.2c2-1.1,7.4-.4,7.8.5"/><path class="cls-1" d="m87.1,50.4c0,3.9-2.9,3.9-2.9,0,0-3.9,2.9-3.9,2.9,0Z"/><path class="cls-1" d="m109.8,50.6c0,4.5-3.6,4.5-3.6,0,0-4.5,3.6-4.5,3.6,0Z"/><path class="cls-1" d="m90.8,63.5c2.2,2.3,5.6,2.2,10.2.9"/><path class="cls-1" d="m88.5,67.7c4.5,1.9,12.7.6,17.4-.7,6.1,2-13.1,11.4-17,1"/><path class="cls-1" d="m123.3,59.6c-.6,3.5-.7,5.4-1.7,6.9"/><path class="cls-1" d="m123.9,47.9c1.8-4,6-.4,5.6,2.8,0,3.6-3.2,11.3-7.5,8"/><path class="cls-1" d="m77,47c-4.7.7-2.8,14.2,1.7,13"/><path class="cls-1" d="m123.9,47.9c-.7,1.1-2.5.3-3.1-.9-.6-1.2.9-2.8-.1-3.5-1.2-.9-3.1-.4-4.3-1.3-1.6-1.2-1.2-4-3-5-3-1.4-4.8,3.3-7.5,3.6-2.6.3-4.9-2.8-7.3-1.9-3.1,2.7-4.7,4.5-7.9.2-2.2-3-4.9-2.9-6.4.4-1.8,2.3-5.9,1.2-7.3,3.7-.6,1.1-1.8,4,0,3.7"/><path class="cls-1" d="m129.5,47.6c2.9.4,2.7-3.5,3.5-5.3,6.8-6.1,5.8-5.6,1.7-13.4-.9-3,.8-6.6-1.1-9.1-4.2-3.5-7.1-2.5-7.4-9-1.8-3.9-7.1-2.8-10.3-4.7-2.9-1.4-3.1-3.7-6.3-4-2.4-.2-6.3.4-8.7.8-6.1.2-9.2-1.1-13.1,4.6-4,3.4-12.4,1.2-14.7,6.7-.9,2.6.7,5.6-.5,8-4.3,5.1-3.2,4.6-1.4,10.4-.9,4.5-3.6,5.8-.1,10.3.6,2,.4,5.8,3.4,5.4"/><line class="cls-1" x1="44.2" y1="131.2" x2="44.2" y2="131.2"/><path class="cls-1" d="m111.5,81.1c24.3,2.1,19.5,33.2,20.4,52.2,0,9.5-.5,33.9-2.8,44.8"/><path class="cls-1" d="m82.9,101.4c.3-2.1,1.3-6,1.6-7.4"/><path class="cls-1" d="m111.6,86.9c-12.9,6.2-33.7,18.5-47.6,23.3-8.2,1.3-13.9,3.2-19.8,4.9-7,.5-7.7,10.5-6,14.9"/><path class="cls-1" d="m88.3,123.3c-18,5.9-31.5,12.3-50.1,6.6"/><path class="cls-1" d="m122.3,112c-9.1,2.9-24.8,11.3-34.7,14.3"/><path class="cls-1" d="m92.5,81.3c-2.3.8-10.6,2.2-12.5,4.1-3.6,3.6-17.2,16-22.5,21.9"/><path class="cls-1" d="m41.7,141.6c-1.5,0-3-.1-3.4-1.3-1.1-3.2,2.9-2,5.3-2.1.7,0,1.3-.2,1.6-.7,2.1-2.9-.5-3.1-2.9-3.2-3.3.5-5-2.5-1.3-2.6"/><path class="cls-1" d="m41,131.7c3.7-.3,7.7,1.3,1.3,2.6-2.4.5-5.4,1.2-2.1,3.4.5.3,2.1.3,3.5.5,4.9,0,1.9,4.1-1.9,3.5,0,0,0,0,0,0-5.1-.4-4.6,2.8-.2,3.2,5.8.9,5.7-3.9.2-3.2"/><path class="cls-1" d="m92.5,81.3c-3,19.8,14.2,7.1,18.8.9"/><path class="cls-1" d="m111.3,82.2c.2-2.5,0-1.1,0-5"/><path class="cls-1" d="m83.8,124.8c0,1.8.1,1.2.2,3.1"/><path class="cls-1" d="m80.4,102.9c7,4.3,9.1,12.3,7.9,20.4h0c-.2,1.1-.4,2.2-.7,3"/><path class="cls-1" d="m84,71.7c7.1,8.2,11.4,16.1,23.5,8.2"/></svg>