<?xml version="1.0" encoding="UTF-8"?><svg id="Layer_1" xmlns="http://www.w3.org/2000/svg" width="548" height="374" xmlns:xlink="http://www.w3.org/1999/xlink" viewBox="0 0 548 374"><defs><style>.cls-1{stroke-linecap:round;stroke-linejoin:round;}.cls-1,.cls-2,.cls-3,.cls-4,.cls-5,.cls-6{stroke:#000;}.cls-1,.cls-5,.cls-6{fill:none;}.cls-7{fill:url(#linear-gradient);}.cls-7,.cls-8,.cls-9,.cls-10,.cls-11,.cls-12,.cls-13,.cls-14,.cls-15,.cls-16,.cls-17,.cls-18,.cls-19,.cls-20{stroke-width:0px;}.cls-2{fill:#b3b3b3;stroke-width:.5px;}.cls-2,.cls-3,.cls-4,.cls-5{stroke-miterlimit:10;}.cls-3{fill:#ff0;}.cls-4{fill:#e6c29e;}.cls-9{fill:#f3b51a;}.cls-10{fill:#f7bc34;}.cls-11{fill:#636567;}.cls-12{fill:#957346;}.cls-13{fill:#debea3;}.cls-14{fill:#e2a025;}.cls-15{fill:#b22b33;}.cls-16{fill:#00a1e0;}.cls-17{fill:#fbd00d;}.cls-18{fill:#fff;}.cls-19{fill:#0054a5;}.cls-20{fill:#008ed3;}</style><linearGradient id="linear-gradient" x1="274" y1="0" x2="274" y2="374" gradientUnits="userSpaceOnUse"><stop offset="0" stop-color="#69cbee"/><stop offset="1" stop-color="#d0ecfa"/></linearGradient></defs><rect class="cls-7" width="548" height="374"/><polygon class="cls-3" points="363.5 374 342 374 276.2 245.5 209.4 374 189.7 374 269.2 222.1 283.2 222.1 363.5 374"/><circle class="cls-2" cx="276.2" cy="230.1" r="7.6" transform="translate(-81.8 262.7) rotate(-45)"/><path class="cls-8" d="M276,227.6c1.3,0,2.3,1,2.3,2.3s-1,2.3-2.3,2.3-2.3-1-2.3-2.3,1-2.3,2.3-2.3Z"/><rect class="cls-4" x="266.4" y="-3" width="12.2" height="493" transform="translate(-33.3 443.7) rotate(-75)"/><path class="cls-11" d="M162.1,200.9c5.9-4,18.4-18.5,21.7-23.3-.6-9.1-7.2-16.3-12.7-22.2-11.5,8.5-29.8,22.7-34.3,24.9-3.2-.2-3,.3-6,.3-1.4,8-1.2,15.8,6.5,19.8,6.3,3.2,18.1,7,24.9.5h0Z"/><path class="cls-8" d="M177.7,83c-1.9-.6-3.3,5-1.4,5.4,1.9.6,3.3-5,1.4-5.4Z"/><path class="cls-18" d="M173.5,98.6c1.9,7.2,10.9,11.4,16,6.1h0c-5.3.3-15.3-4.9-16-6.1Z"/><path class="cls-17" d="M152.2,110.5c5.6-4,7.1-2.7,12.8-2.7.5,8.5,4.9,10.7,9.2,14.6v-.2c2.1.8,5.9-.9,5.8-8.1,1.2,0,2.3-.1,3.4-.4,6.4,5.8,12.9,18.9,18.5,27.9-4.8-4.2-7.8-2.8-11.2-2.2l-.2.3c-3.3-2.7-6.8-6-9.1-7.9-3.4,3.2-6.4,9-7.9,12.9,2.7,1.3,4.9,3.1,6.8,4.3-10.8,6.7-37.8,28.7-43.5,31.3-8.9,0-7.7,2.5-5.4-9.5,5.1-18,9.9-46.4,20.8-60.3Z"/><path class="cls-12" d="M151.3,78.4c7.3-14.8,16.3-31.1,33.4-27,6.8,4.8,7.3,0,12.1,1.8,14,8,18.6,23.1,17.5,38.7-1.2-2.1-2.7-3.9-4.6-5.4-5,6.2-7.1,26.3-5.4,31.8-5.3,1.3-14.2-2.1-18.7-4.9v-.2c9.5-2.8,16.4-10.7,16.3-19.5,1.7-3.3,3.5-6.3,4.5-9.5-5.9-3.6-13.3-5.4-19.4-7.2,1-4.1.7-8-.2-11.8.7,3.7-1.8,7.7-3.7,11-4.4-1.6-8.5-2.6-12-3.4-6.5,11.5-9.6,23.4-5.1,35-5.4,0-9.5-.5-14.9-.5-1.5-11.2-4.6-17,0-28.9Z"/><path class="cls-8" d="M197.4,88.2c-1.5-.5-2.8,4.4-1.2,4.7,1.5.5,2.8-4.4,1.2-4.7Z"/><path class="cls-13" d="M166.2,107.8c-.4,0-.8,0-1.2,0,.5,8.5,4.9,10.7,9.2,14.6v-.2c2.1.8,5.9-.9,5.8-8.1,7.6-.8,16.3-4.7,19.8-12.1,2.2-4.3,2.2-8.5,2.2-8.5,1.7-3.3,3.5-6.3,4.5-9.5-5.9-3.6-13.3-5.4-19.4-7.2,1-4.1.7-8-.2-11.8.7,3.7-1.8,7.7-3.7,11-4.4-1.6-8.5-2.6-12-3.4v.7c-7,11.2-9.3,23.1-5.1,34.3ZM176.3,88.4c-1.9-.4-.4-6,1.4-5.4,1.9.4.4,6-1.4,5.4ZM197.4,88.2c1.5.3.3,5.2-1.2,4.7-1.6-.3-.3-5.2,1.2-4.7ZM173.5,98.6c.7,1.2,10.6,6.5,16,6h0c-1.8,1.9-3.4,2.8-6.3,2.4-4.8-.9-7.9-2.9-9.7-8.4Z"/><path class="cls-13" d="M173.5,144.7c1.5-3.8,4.5-9.7,7.9-12.9,2.3,1.9,5.8,5.2,9.1,7.9l.2-.3c3.5-.6,6.4-2,11.2,2.2,3.3,2.9,2.5,3.1,3,6,5.8,2.2,11.4,7.5,7,13.6h0c-1.8.6-4.1.6-6.3.2,0,.2-.1.7,0,.9,1,.3,2,.7,2.7,1.1l-1.1-.3c2.8.9.9,2.8-1.6,1.7,0,0,0,.1,0,.2,1.7.9,3.9,1.9,1,2.9-.2,0-.7,0-1.2,0,0,0,0,0,0,0,3.8.1,2.9,3.7-.4,2.8,0,0,0,0,0,0,3.5.6,2.5,2.9-.5,2.4-1.7,7-4.5,12.4-4.3,19.1h.4c-1.2.9-1.9,3.3-2.1,6.9-.2,0-.4-.2-.5-.2v.3c-6.5.8-9.6-2.6-11.2-4,.5-.9,3.2-13.6,2.8-16.2-.2-1-.8-9.3,0-11.8l-.4-.2c-1.4,3.8-2.5,7.1-5.2,10.3-.6-9.1-7.2-16.3-12.7-22.2,4.5-3.3,8-5.8,9.3-6.4-2-1.2-4.2-3-6.8-4.3Z"/><path class="cls-15" d="M179.8,207.1h0c-.3-2.9,3.1-10.1,5.2-12,1.1-1.9,4.8,5.9,12.8,4.2v-.3c.1,0,.3.1.5.2.5-4.3.8-8,4.4-7.1.9.6-1.3,5.6.3,7.1,7.7,6.8,24.1,8.6,18.6,22.3-11.5-.5-29.8-6.6-42.9-9.7-.5.1,1.1-4.7,1.2-4.9Z"/><path class="cls-5" d="M184.7,51.3c6.8,4.8,7.3,0,12.1,1.8,14,8,18.6,23.1,17.5,38.7-5.4-9.4-17.9-12.1-27.2-14.8,1-4.1.7-8-.2-11.8.7,3.7-1.8,7.7-3.7,11-6.2-2.2-11.5-3.3-17.1-4.3,2.4-6.5,6.1-12.8,12.8-15.2"/><path class="cls-5" d="M185.7,113.2c4.5,2.7,13.3,6.2,18.7,4.9-1.7-5.3.4-25.4,5.2-31.6"/><path class="cls-5" d="M171.1,73.4c-6.9,11.2-9.2,23.1-5,34.3-5.4,0-9.5-.5-14.9-.5-1.5-11.2-4.6-17,0-28.9,7.3-14.8,16.3-31.1,33.5-27"/><path class="cls-5" d="M206.5,84.1c-1,3.2-2.8,6.2-4.5,9.5,0,0,0,4.2-2.2,8.5-2.5,6.1-8.6,8.7-14.2,11-8.9,2.9-12.5.2-21-10.9"/><path class="cls-5" d="M200.1,85.9c-.4-2.2-2.1-2.5-3.3-1.6"/><path class="cls-5" d="M179.8,80.1c-1.2-2.1-3.7-1.8-4.3-.6"/><path class="cls-5" d="M195.6,90.3c-.8,3.1,1.6,3.7,2.4.6.8-3.1-1.6-3.7-2.4-.6Z"/><path class="cls-5" d="M175.5,85.3c-1,3.5,2,4.3,2.9.8,1-3.5-2-4.3-2.9-.8Z"/><path class="cls-5" d="M188.3,94.7c-.2,1.1.5,1.5,1.5,1.6-.2.8-1.3,3.2-2.7,3.3"/><path class="cls-5" d="M189.9,104.6c-5.3.7-15.7-4.8-16.4-6,1.9,7.2,10.9,11.4,16,6.1"/><path class="cls-5" d="M158.6,107.5c-16.3,2.8-22.1,48.1-27.2,63.2-2.3,12-3.5,9.6,5.4,9.5"/><path class="cls-5" d="M182.5,129c.2-1.7.2-3.4.2-4.6"/><path class="cls-5" d="M181.2,131.7c3.7,3.1,10.8,10.1,15.5,12.3,7.9,3.7,21.5,7.3,15,17.6"/><path class="cls-5" d="M164.1,113.6c5.8,5.2,13.6,11.7,19.5,16.8"/><path class="cls-5" d="M174,144.8c10.3,5.9,25.6,19.2,37.8,16.4"/><path class="cls-5" d="M173.3,145.2s0,0,0,0"/><path class="cls-5" d="M173.3,145.2s0,0,0,0"/><path class="cls-5" d="M173.3,145.2c.2,0,0,0,0,0h0Z"/><path class="cls-5" d="M173.3,145.2s0,0,0,0"/><path class="cls-5" d="M173.3,145.2s0,0,0,0"/><path class="cls-5" d="M150.8,131.7c7.5,6.5,15,9.6,22.4,13.4"/><path class="cls-5" d="M183.4,113.7c6.4,5.9,13,18.9,18.5,27.9"/><path class="cls-5" d="M136.8,180.3c5.7-2.6,32.8-24.7,43.7-31.4"/><path class="cls-5" d="M174.3,122.2c2,.8,5.8-1,5.7-8.1"/><path class="cls-5" d="M165,107.7c.2,5.4,2.7,9.1,4.5,10.6"/><path class="cls-5" d="M183.6,130.4c-5.2,2.8-8.3,10-10.2,14.8"/><path class="cls-5" d="M190.7,139.4c3.5-.6,6.4-2,11.2,2.2,3.3,2.9,2.5,3.1,3,6.1"/><path class="cls-5" d="M189.5,167.2c-1,2.6-.3,10.9-.1,12,.5,2.5-2.5,15.2-2.7,16"/><path class="cls-5" d="M130.8,180.7c-1.4,7.9-1.2,15.7,6.5,19.8,6.3,3.2,18.1,7,24.9.5"/><path class="cls-5" d="M204.3,173.4c-1.7,7-4.5,12.4-4.3,19.2"/><path class="cls-5" d="M204.8,170.9s0,0,0,0"/><path class="cls-5" d="M205.2,168s0,0,0,0"/><path class="cls-5" d="M205.5,165c0,0,0,.1,0,.2"/><path class="cls-5" d="M205.4,162.1c0,0,0,.2,0,.3"/><path class="cls-5" d="M190.8,162.7c-2.4,5.3-3.2,10.3-7.1,14.9-.6-9-7.1-16.1-12.4-22"/><path class="cls-5" d="M161.2,201.5c6.5-3.9,19-18.8,22.6-23.9"/><path class="cls-1" d="M185,195.2c-2.1,1.9-5.6,9.1-5.2,12"/><path class="cls-1" d="M197.9,199.4c-8,1.7-11.7-6.1-12.8-4.2"/><path class="cls-1" d="M179.1,209.2c10.6,2,30.1,9.6,42.9,9.9"/><path class="cls-1" d="M196.7,199c5.3,1.2,13,7.7,17,9.8"/><path class="cls-1" d="M222,220.1c1.2-4.7.8-9.6-7.3-13.7-.9,2.3-2.4,7-2.9,10"/><path class="cls-1" d="M202.5,192.2c1.3.5-1.3,5.6.4,7.2,1.6,1.4,7.9,5.4,11.7,7"/><path class="cls-1" d="M200.6,200.3c-.8-1.6-.6-8,1.9-8.1"/><path class="cls-1" d="M221.6,221.7c-11.5-.5-29.8-6.6-42.9-9.7-.5.1,1.1-4.7,1.2-4.9"/><path class="cls-1" d="M222.2,218.9c.3,1.6,0,1.1-.7,2.8"/><path class="cls-1" d="M198.3,199.5c.5-4.3.8-8.4,4.5-7.2"/><path class="cls-5" d="M203.7,167.7c-.5-.2-1-.4-1.1-.8-1.1-2.7,1.2-2.3,2.9-1.9,2.5,1.1,4.4-.9,1.6-1.7"/><path class="cls-5" d="M204.4,170.8c1.1.3,2.4.5,2.9-.3,1.6-2.4-2.2-2.2-3.7-2.8"/><path class="cls-5" d="M208.2,163.5c-1.2-.8-7-3-3.9.8,1.1,1.3,5.9,2.4,2.2,3.7-.7.2-1.9-.2-2.8-.3,0,0,0,0,0,0-3.8-1-2.4,2.8.8,3.1,0,0,0,0,0,0,3.5.6,3.5,2.9-.1,2.5-4.9-.3-4.5-4.2.1-2.5"/><path class="cls-9" d="M492.4,262.8l5.4-20.3c.4-1.5-.5-3.1-2.1-3.5l-5.2-1.4-4.4-1.2c-2.2-.4-4.7-.9-6.9-1.6-.2,0-.4-.1-.6-.2h-.1s-5.8-1.6-5.8-1.6v-.2c0,0,.1-.2.1-.2l-9.1-2.4h0c0,.1-6.2-1.5-6.2-1.5h0q0,0,0,0l-8.4-2.2-9-2.4c-1.6-.4-3.1.5-3.5,2l-5.4,20.3-.6-.2-2.2,8.1.6.2-5.2,19.3c-.4,1.5.5,3.1,2.1,3.5l5.1,1.4,18.6,5-.3,1,9.1,2.4.3-1,16.9,4.5,6,1.6c1.6.4,3.1-.5,3.5-2l5.2-19.3,1,.3,2.2-8.1-1-.3Z"/><path class="cls-9" d="M435.9,256.3c.2,0,0,0,0,0h0Z"/><path class="cls-19" d="M486.2,236.4l-10.2-2.7c-1.6-.6-2.8-1.3-3-1.7h.2c1.5.2,11.5,2.6,14.3,0,1.8-1.7,3.8-4.9,4.1-7.4.1-.8,0-1.6-.4-2.3,1.6-.7,3.2-1.1,5-1.2,2.5-.1,2.9,1.5,3.1,1.3.9,1.9.7,4.4,0,6.4-.9,2.7-4.3,6.8-8,7.9-.3,0-.7.1-1.1.2-1.1,0-2.5,0-4.1-.4Z"/><path class="cls-9" d="M458.7,286.1l5.9-22.1,18.8,5c-2.1,6.8-4.8,13.9-7.4,20.3l-.4,1.3-16.9-4.5Z"/><path class="cls-14" d="M483.3,269l6.9,1.8-5.2,19.3c-.4,1.5-2,2.5-3.5,2l-6-1.6.4-1.3c2.6-6.4,5.3-13.5,7.4-20.3Z"/><path class="cls-14" d="M492.4,262.8l-7.1-1.9c.2-1.4.4-2.9.9-4.5,1.3-4.8,2.7-9.6,4-14.3.4-1.3.7-2.6.6-3.9,0-.2,0-.4-.1-.6l5.2,1.4c1.6.4,2.5,2,2.1,3.5l-5.4,20.3Z"/><path class="cls-10" d="M437.8,248.2l-6.6-1.8,5.4-20.3c.4-1.5,2-2.5,3.5-2l9,2.4c-3.7,1.2-6.2,5-7.5,8.8-1.4,4.2-1.8,8.6-3.6,12.6,0,0-.2.2-.2.3Z"/><path class="cls-9" d="M472.9,232.8l3.1.8c.8.3,1.7.6,2.6.9l-5.8-1.5v-.2Z"/><path class="cls-9" d="M473.8,246.7l3-4.2,4.6,2.2-2.2-9.9c2.2.7,4.7,1.2,6.9,1.6l4.4,1.2c0,.2.1.4.1.6.1,1.3-.2,2.6-.6,3.9-1.3,4.8-2.7,9.6-4,14.3-.4,1.6-.7,3.1-.9,4.5l-18.5-4.9,4.9-18.4,2.2,9.2Z"/><path class="cls-19" d="M476,233.6l10.2,2.7c-2.2-.4-4.7-.9-6.9-1.6h0s-.6-.2-.6-.2h-.1c-.9-.3-1.8-.6-2.6-.9Z"/><path class="cls-9" d="M457.7,253.5l-19.8-5.3c0-.1.2-.2.2-.3,1.8-4,2.2-8.5,3.6-12.6,1.3-3.8,3.8-7.6,7.5-8.8l8.4,2.2-6.8,7.4,5.1.4.5,5.2,6.1-6.4-4.9,18.2Z"/><path class="cls-10" d="M429.1,254.5l6.7,1.8s0,0,0,0c-2.1,7.4-3.7,14.8-4.8,22.4l-5.1-1.4c-1.6-.4-2.5-2-2.1-3.5l5.2-19.3Z"/><path class="cls-9" d="M449.6,283.7l-18.6-5c1.1-7.6,2.7-15.1,4.8-22.4,0,0,.2,0,0,0l19.6,5.2-5.9,22.1Z"/><path class="cls-19" d="M496.8,219.8c-.2,0-.6-.2-1-.4.3.1.7.2,1,.4Z"/><path class="cls-19" d="M464.3,213.3c.7.7,1.3,2.1,1.7,3.1,1.1,2.5,2.1,6,1.2,8.7l-2.4,3c-1.3-1.4-2.2-2.9-3.8-4.1-1.2-.9-2.3-1.5-3.4-2.5-.7-.6-2.8-2.3-2.7-3.1,0-.5.8-1.2,1.5-1.8h0c2.1-1.3,2.4-1.5,5.9-3.7.7-.2,1.3-.1,1.9.4Z"/><path class="cls-19" d="M499.1,221.9c-.4-.6-1.4-1.5-1.9-1.9.2,0,.3.2.4.3.7.4,1.2,1,1.5,1.7Z"/><path class="cls-19" d="M479.3,234.7h0c-.2,0-.4,0-.6-.1h.6Z"/><path class="cls-20" d="M466.7,255.9l4.9-18.4,2.2,9.2,3-4.2,4.6,2.2-2.2-9.9c-.2,0-.4-.1-.6-.2h-.1s-5.8-1.6-5.8-1.6v-.2c0,0,.1-.2.1-.2l-9.1-2.4h0c0,.1-6.2-1.5-6.2-1.5h0c0,0-6.8,7.5-6.8,7.5l5.1.4.5,5.2,6.1-6.4-4.9,18.2-21-5.6c-1.7,2.2-1.9,5.3-2,8.1l20.9,5.6-5.9,22.1-.3,1,9.1,2.4.3-1,5.9-22.1,20,5.3c.4-1.1.7-2.3,1-3.4.5-1.7.7-3.3.9-4.8l-19.8-5.3Z"/><path class="cls-20" d="M459,228.3c1.5.4,3,.7,4.5,1,0-.1.1-.3.1-.4-1.1-1.1-2.5-1.5-3.9-2.1-1.7-.7-3.2-1.6-4.9-2.2-5.2-1.9-3-5,0-6.9.6-.4,1.2-.7,1.6-1t0,0c2.1-1.3,2.4-1.5,5.9-3.7.3-.2.6-.3.9-.5-1.3-2.3-9.5-4.1-12.2-3.6-4.1.8-7.4,4.4-8.1,8.3-.9,5.1.1,6.3,4.5,7.5,3.9,1,7.5,2.6,11.5,3.7Z"/><path class="cls-16" d="M435.9,256.3c.1-2.8.3-6,2-8.1l-6.6-1.8-.6-.2-2.2,8.1.6.2,6.7,1.8s0,0,0,0Z"/><path class="cls-20" d="M435.8,256.3h0c-.1,0-.1,0,0,0Z"/><path class="cls-20" d="M499.1,221.9c-.4-.6-1.4-1.5-1.9-1.9,0,0,0,0,0,0,0,0-.1,0-.2,0h0s0,0,0,0c-.2,0-.6-.2-1-.4-2-.8-5.6-2.4-6.9-2.5-2.7-.2-3.9,3.8-5.1,5.7-1,1.6-2.4,3.1-3.8,4.2-.5.4-1.2.9-1.8,1.2-.7.3-2.5,1.7-2.5,1.7,2.7,1,6.6-2,8.7-3.5,2.2-1.6,4.4-3.1,6.8-4.1,1.6-.7,3.2-1.1,5-1.2,2.5-.1,2.9,1.5,3.1,1.3h0c0,0,0-.2-.2-.4Z"/><polygon class="cls-20" points="473 231.9 473.1 231.8 475.5 229.5 476.9 228.1 468.4 225.3 465 228.4 463.7 229.6 463.6 229.7 472.5 232.4 473 231.9"/><path class="cls-19" d="M492.4,262.8l-7.1-1.9c-.2,1.5-.4,3-.9,4.8-.3,1.1-.6,2.2-1,3.4l6.9,1.8,1,.3,2.2-8.1-1-.3Z"/><path class="cls-6" d="M486.2,236.4l4.4,1.2,5.2,1.4c1.6.4,2.5,2,2.1,3.5l-5.4,20.3"/><line class="cls-6" x1="472.9" y1="232.8" x2="476" y2="233.6"/><path class="cls-6" d="M431.2,246.4l5.4-20.3c.4-1.5,2-2.5,3.5-2l9,2.4,8.4,2.2"/><path class="cls-6" d="M449.6,283.7l-18.6-5-5.1-1.4c-1.6-.4-2.5-2-2.1-3.5l5.2-19.3"/><path class="cls-6" d="M490.2,270.9l-5.2,19.3c-.4,1.5-2,2.5-3.5,2l-6-1.6-16.9-4.5"/><polyline class="cls-6" points="464.6 264 458.7 286.1 458.4 287.2 449.3 284.8 449.6 283.7 455.5 261.6"/><line class="cls-6" x1="471.7" y1="237.5" x2="466.7" y2="255.9"/><polyline class="cls-6" points="463.9 230.3 463.9 230.2 473 232.6 472.9 232.8 472.8 233"/><line class="cls-6" x1="457.7" y1="253.5" x2="462.5" y2="235.3"/><polygon class="cls-6" points="492.4 262.8 493.3 263 491.2 271.1 490.2 270.9 483.3 269 464.6 264 455.5 261.6 435.9 256.3 435.8 256.3 429.1 254.5 428.5 254.4 430.7 246.3 431.2 246.4 437.8 248.2 457.7 253.5 466.7 255.9 485.3 260.9 492.4 262.8"/><polyline class="cls-6" points="479.3 234.8 481.5 244.7 476.9 242.4 473.8 246.7 471.7 237.5 470.4 232.4 472.8 233 478.6 234.5"/><path class="cls-6" d="M499.3,222.3c.9,1.9.7,4.4,0,6.4-.9,2.7-4.3,6.8-8,7.9-.3,0-.7.1-1.1.2-1.1,0-2.5,0-4.1-.4-2.2-.4-4.7-.9-6.9-1.6-.2,0-.4-.1-.6-.2h-.1c-.9-.3-1.8-.6-2.6-.9-1.6-.6-2.8-1.3-3-1.7"/><path class="cls-6" d="M497.2,220c.2,0,.3.2.4.3.7.4,1.2,1,1.5,1.7"/><path class="cls-6" d="M495.8,219.4c.3.1.7.2,1,.4"/><path class="cls-6" d="M473.1,231.8c1.5.3,11.5,2.7,14.3.1,1.8-1.7,3.8-4.9,4.1-7.4.1-.8,0-1.6-.4-2.3"/><path class="cls-6" d="M499.3,222.3c0,0,0-.2-.2-.4-.4-.6-1.4-1.5-1.9-1.9l-.3-.2c-.2,0-.6-.2-1-.4-2-.8-5.6-2.4-6.9-2.5-2.7-.2-3.9,3.8-5.1,5.7-1,1.6-2.4,3.1-3.8,4.2-.5.4-1.2.9-1.8,1.2-.7.3-2.5,1.7-2.5,1.7,2.7,1,6.6-2,8.7-3.5,2.2-1.6,4.4-3.1,6.8-4.1,1.6-.7,3.2-1.1,5-1.2,2.5-.1,2.9,1.5,3.1,1.3"/><polygon class="cls-6" points="473 231.9 472.5 232.4 463.6 229.7 463.7 229.6 465 228.4 468.4 225.3 476.9 228.1 475.5 229.5 473.1 231.8 473 231.9"/><path class="cls-6" d="M456.4,216.7c-.8.6-1.5,1.3-1.5,1.8,0,.8,2,2.6,2.7,3.1,1.1,1,2.2,1.6,3.4,2.5,1.7,1.2,2.5,2.6,3.8,4.1l2.4-3c.9-2.7-.1-6.2-1.2-8.7-.4-.9-.9-2.3-1.7-3.1-.6-.6-1.2-.6-1.9-.4-.5.1-1,.4-1.5.6-1.2.5-1.5.8-2.6,1.7-.4.3-1.1.8-1.8,1.4"/><path class="cls-6" d="M462.4,212.9c.3-.2.6-.3.9-.5-1.3-2.3-9.5-4.1-12.2-3.6-4.1.8-7.4,4.4-8.1,8.3-.9,5.1.1,6.3,4.5,7.5,3.9,1,7.5,2.6,11.5,3.7,1.5.4,3,.7,4.5,1,0-.1.1-.3.1-.4-1.1-1.1-2.5-1.5-3.9-2.1-1.7-.7-3.2-1.6-4.9-2.2-5.2-1.9-3-5,0-6.9.6-.4,1.2-.7,1.6-1h0c2.1-1.3,2.4-1.5,5.9-3.7Z"/><polygon class="cls-6" points="457.6 228.7 450.8 236.2 455.9 236.5 456.5 241.7 462.5 235.3 466.5 231.1 466.5 231 463.9 230.3 457.7 228.6 457.6 228.7"/></svg>