<?xml version="1.0" encoding="UTF-8"?><svg id="Africa_Modest" xmlns="http://www.w3.org/2000/svg" width="138" height="203.8" viewBox="0 0 138 203.8"><defs><style>.cls-1{stroke-linejoin:round;}.cls-1,.cls-2{fill:none;stroke:#010101;stroke-linecap:round;}.cls-2{stroke-miterlimit:10;}.cls-3{fill:#762627;}.cls-3,.cls-4,.cls-5,.cls-6,.cls-7,.cls-8,.cls-9,.cls-10,.cls-11,.cls-12{stroke-width:0px;}.cls-4{fill:#4e2f24;}.cls-5{fill:#231f1d;}.cls-6{fill:#ded0d1;}.cls-7{fill:#a63433;}.cls-8{fill:#8d6851;}.cls-9{fill:#303030;}.cls-10{fill:#34231e;}.cls-11{fill:#fff;}.cls-12{fill:#010101;}</style></defs><path class="cls-3" d="m108.5,83.7c.9-1.6,1.7-3.2,1.3-4.3,3.6-3.1,6-5.8,9.6-10.2,8,2.2,11.1,11.9,12.2,19.4-1.6,8.9-15.2-8.6-30.7,3.8.4-.3,5.2-4.7,7.7-8.6Z"/><path class="cls-6" d="m126.3,193.4c-3-4.4-4.3-10.7-5.6-15.8-1.2-1.1-3.2-3.2-5.6-6.1,5.3,1.1,11.7,4.5,16.9,2.4-.5,3-.1,23.8-5.7,19.6Z"/><path class="cls-5" d="m125.5,41.4h0c0,1.8-2.5,2-3.4.5.3-33.1-50.9-36.6-50-.6-.4-.1-1.1,0-1.7.2,0-6-1.9-13,.7-24C73.9,5.6,93.8.9,102.6,1.1c9.9.3,19.1,5.1,24.9,14.7,4,6.6,1.9,13.9,1.2,23.6-1.3-.3-2.7.4-3.3,1.9Z"/><path class="cls-9" d="m61.6,154.3c-.7,1.2-4.7,33.4-4.6,33.6-9.6.7-18.1-3.3-26.4-9,.2,0,.3-.1.4-.2,2.3-8.9,6-18.9,8.6-31.4,5.8.5,4.7-4.1-.4-3.3,3.9.6,7-3.5,2-3.6.7,0,1.3-.2,1.6-.7,2.1-3-.5-3.2-3-3.3,3-.4,5.6-2.1,1.2-2.6v-.5c17.7,2,21.9-.2,38.7-5.7,3.5,2.6,24.4,30.6,35.5,43.9h0c2.4,2.9,4.4,5,5.6,6.1,1.3,5.1,2.6,11.4,5.6,15.8-6.8,13.7-32.1,12.8-41.7,3.2h0c-5.8-5.3-14.9-23.6-17.5-30.9h0c-1.7-3.6-3.6-7.3-5.5-11.5Z"/><path class="cls-12" d="m107.5,42.6c2.6-.1,2.6,7.9,0,7.8-2.6.1-2.6-7.9,0-7.8Z"/><path class="cls-11" d="m107.3,65.6c.1,3.7-16,12.6-19.5.9v-.2c5,2.7,14.3,1,19.5-.8Z"/><path class="cls-6" d="m108.5,83.7c-6,8.5-8.2,8.9-15.3,12.7,0-5.6-4-7.1-3.8-13.2,2.1,9.2,16.2,6.6,19.1.5Z"/><path class="cls-3" d="m89.4,83.2c-.2,6.2,3.8,7.6,3.8,13.2-1.1.6-2.2,1.2-3.3,1.8-1.8-6.9-13.2-13.3-4.9-20.7,1.5,1.3,3,2.5,4.7,3.5-.3.7-.2,1.6-.3,2.3Z"/><path class="cls-7" d="m132,135.4c0-10.3,0-38.2-4.8-44.4h0c-15.5-7.7-23-.4-37.2,7.1-.9-5.6-8.1-8.7-7.8-14.7-6.7,4.8-20.4,18.7-28.4,26.6,9-3.5,11.8-.8,12.7,0-12.6,5.2-37.7,3-30.9,21.9,17.3,4.9,27.1,1.5,44.1-4.3,3.5,2.6,24.4,30.6,35.5,43.9,5.3,1.1,11.7,4.5,16.9,2.4,0-10.8,0-28.7,0-38.5Z"/><path class="cls-12" d="m82.3,42.9c2.2,0,2.1,6.9,0,6.8-2.1,0-2.2-6.8,0-6.8Z"/><path class="cls-9" d="m66.4,110c-6.1,2.6-12.3,2.6-17.5,4.5,1.9-6.8,17-7.2,17.5-4.5Z"/><path class="cls-10" d="m16.2,199.6c7.9-.7,33.4-2.8,38.9-2.3,0,0,0,0,0,0h0s.5,5.7,0,5.5c-15.2,1-42.2,1.1-52.8.1-1-1.5-1.3-3.1-.8-4.8,5.5,1.2,10.5,1.5,14.6,1.5Z"/><path class="cls-8" d="m129.5,39.8c-1.4-.9-3.3-.2-4,1.6h0c0,1.8-2.5,2-3.4.5.3-33.1-50.9-36.6-50-.6-.4-.1-1.1,0-1.7.2h0c-4.4,2.5-2.7,18.3,2.9,16.7,2.5,11,8,17,16.3,22.7-1.6,13.2,21.2,8.9,20.2-1.6,6.4-5.9,13.2-12.5,14.9-22.6,6.6.2,9.5-13.2,4.8-17Zm-47.2,9.9c-2.1,0-2.2-6.8,0-6.8,2.2,0,2.1,6.9,0,6.8Zm25.2-7.1c2.6-.1,2.6,7.9,0,7.8-2.6.1-2.6-7.9,0-7.8Zm-19.6,23.9v-.2c5,2.7,14.3,1,19.5-.8.1,3.7-16,12.6-19.5.9Z"/><path class="cls-8" d="m41.1,140.5c-2.5.2-6.6-1.1-5.5,2.2.4,1.2,1.9,1.3,3.5,1.4-5.7-.4-4.3,3.3.4,3.3,5.8.5,4.7-4.1-.4-3.3,3.9.6,7-3.5,2-3.6Z"/><path class="cls-8" d="m39.7,136.5c-7.8.9-.9,5.9,3,3.3,2.1-3-.5-3.2-3-3.3Z"/><path class="cls-8" d="m40.9,133.9c-1.5,0-5.9-.7-4.4,1.9,1.4,2,11-1.1,4.4-1.9Z"/><path class="cls-4" d="m55.1,188.1c-9-.3-16.6-3.7-24.6-9.2-11.3,5.9-29.1,3.2-28.2,19.4,14.6,3.4,40.2-2,52.9-1,.7-1.8.5-5.9,0-9.3Z"/><path class="cls-2" d="m127.1,91c8.4,21.7,3.5,58.1,4.9,82.9"/><path class="cls-2" d="m81.5,102.6c.3-2.1,1.4-6.1,1.7-7.7"/><path class="cls-2" d="m93.2,96.4c-9.8,5-21.9,12.2-31.2,15.2-7.1,1-14.8,3.4-20.4,5-7.2.5-7.9,10.8-6.2,15.3"/><path class="cls-2" d="m109.8,87.6c-1.4.7-4.7,2.4-8.9,4.7"/><path class="cls-2" d="m122.1,113.5c-28,6.9-57,26.5-86.7,18.4"/><path class="cls-2" d="m82.1,83.4c-6.7,4.8-20.4,18.7-28.4,26.6"/><path class="cls-2" d="m115.1,171.5c-11.1-13.2-32-41.2-35.5-43.9"/><path class="cls-2" d="m120.7,177.6c-1.2-1.1-3.2-3.2-5.6-6.1"/><path class="cls-2" d="m93.2,96.4c-.1-5.9-5.2-8.7-3.6-15.4"/><path class="cls-2" d="m93.2,96.4c2.7-1.5,5.3-2.9,7.6-4.1"/><path class="cls-2" d="m108.5,83.7c-2.5,4-7.3,8.3-7.6,8.6"/><path class="cls-2" d="m109.9,79.5c.2,1.1-.4,2.6-1.4,4.2"/><path class="cls-2" d="m66.4,110c-.6-2.7-15.6-2.3-17.5,4.5"/><path class="cls-2" d="m30.4,178.9c8.4,5.7,16.9,9.8,26.5,9.1,0-.2,3.9-32.4,4.6-33.6"/><path class="cls-2" d="m126.3,193.4c-7,13.9-33.1,12.9-42.3,2.5"/><path class="cls-2" d="m39.5,147.3c-2.5,12.5-6.3,22.5-8.6,31.4"/><path class="cls-2" d="m57.5,142c1.4,8.2,6.5,17.2,10,24.7"/><path class="cls-2" d="m84.5,196.7c-5.8-5.3-14.9-23.6-17.5-30.9"/><path class="cls-2" d="m55.2,197.3s0,0,0,0"/><path class="cls-1" d="m55.1,188c.6,3.3.7,7.5,0,9.3"/><path class="cls-1" d="m55.2,197.3c-12.9-1-38.4,4.4-53.2.9"/><path class="cls-1" d="m33.7,181c-2.6,1.5-9.7,4.2-17.4,5.7"/><path class="cls-1" d="m2.4,197.9c-.1-5.5,1.9-12.3,13.5-14.6.3,3.9.8,12,.4,16.2"/><path class="cls-1" d="m30.9,178.8c-5.2,2.4-8.1,3.6-15,4.6"/><path class="cls-1" d="m2.4,203c10.5,1,37.7.8,52.8-.1.6.2,0-5.5,0-5.5"/><path class="cls-1" d="m1.9,197.3c-.9,1.9-.7,4,.5,5.6"/><path class="cls-2" d="m39.1,144c-1.6,0-3.1-.1-3.5-1.4-1.2-3.3,3-2,5.5-2.2.7,0,1.3-.2,1.6-.7,2.1-3-.5-3.2-3-3.3-3.4.5-5.2-2.6-1.4-2.7"/><path class="cls-2" d="m38.3,133.8c1.7-.2,8.1.5,3.1,2.3-2.1.7-8.2,1-3.9,3.9,1.3.9,9.3-.4,5.1,3.5-1.1,1.3-9.4-.6-6.8,2.8.9,1.2,8,2,7.6-.6-.2-1.7-2.3-1.6-4.3-1.6"/><path class="cls-1" d="m72,36.9c-4.6,42.5,35.8,69,52.6,19.9"/><path class="cls-1" d="m76.9,37.7c1.8-1.8,9.1-1.9,10.8-1"/><path class="cls-1" d="m101.6,37c3.1-1.6,11.1-.6,11.8.7"/><path class="cls-1" d="m83.9,46.3c0,4.4-3.4,4.4-3.3,0,0-4.4,3.4-4.4,3.3,0Z"/><path class="cls-1" d="m109.5,46.5c0,5-4.1,5.1-4.1,0,0-5,4.1-5,4.1,0Z"/><path class="cls-1" d="m88,55.9c-.9,6.2,6.1,6.5,11,6.2"/><path class="cls-1" d="m87.3,66c5,3.2,14.5,1.4,20-.4,0,3.7-16,12.6-19.5.9"/><path class="cls-1" d="m70.5,41.5c0-6-1.9-13,.7-24C73.9,5.6,93.8.9,102.6,1.1c9.9.3,19.1,5.1,24.9,14.7,4,6.6,1.9,13.8,1.2,23.6"/><path class="cls-1" d="m125.4,41.7c2.2-5.2,6.9-.5,6.4,3.7,0,4.2-3.3,14.8-8.6,10.4"/><path class="cls-1" d="m72.2,41.3c-.4-.1-1.1,0-1.7.2h0c-4.3,2.5-2.7,17.8,2.6,16.8"/><path class="cls-1" d="m125.5,41.4c0,1.8-2.5,2-3.4.5.4-30.8-45.9-37.6-50.1-4.1"/><path class="cls-1" d="m119.6,69.3c6.5.4,14.9,17,10.6,21.7-1.3.7-2.9,0-4.2-.5-5.1-2.2-10.6-3.1-16.2-2.9"/><path class="cls-1" d="m84.8,77.6c-7.9,7.3,3.2,13.5,4.9,20.2"/><path class="cls-2" d="m89.4,83.1c2.4,9.8,17.2,6.4,19.8-.5"/><path class="cls-2" d="m120.7,177.6c6.2,27,10.9,16.7,11.3-3.7-5.2,2.2-11.7-1.3-16.9-2.4"/></svg>