<?xml version="1.0" encoding="UTF-8"?><svg id="Africa_Modest" xmlns="http://www.w3.org/2000/svg" width="125.7" height="299" viewBox="0 0 125.7 299"><defs><style>.cls-1{stroke-linecap:round;stroke-linejoin:round;}.cls-1,.cls-2{fill:none;stroke:#010101;}.cls-2{stroke-miterlimit:10;}.cls-3{fill:#762627;}.cls-3,.cls-4,.cls-5,.cls-6,.cls-7,.cls-8,.cls-9,.cls-10,.cls-11,.cls-12{stroke-width:0px;}.cls-4{fill:#4e2f24;}.cls-5{fill:#090705;}.cls-6{fill:#231f1d;}.cls-7{fill:#ded0d1;}.cls-8{fill:#a63433;}.cls-9{fill:#8d6851;}.cls-10{fill:#303030;}.cls-11{fill:#34231e;}.cls-12{fill:#fff;}</style></defs><path class="cls-8" d="m101.7,121c-2.3-2.7-9.9-12.2-14.7-20.5h-.2c-.9,2.5-2.2,38.9-1.8,43.9-3.2.7-6.2,1.9-5.5,5.8-1.9,2.2-3.6,4.8-.3,6.1-15.7,6.2-34.1,4.2-49.7-1.7,3.6-16.6,1.5-32.4.6-46.4-2.3,3.1-7.3,14.3-8.4,15.7,1.8,3.3,3.7,6.7,6.2,10.5-4.1,2.6-7.5,6.5-9.5,11h-.2c-5-8.2-12.8-16.3-10.7-27.2,3.8-13.5,12-33.3,23.9-42.8,1.1,8.3,17.6,8,22.6,20.8,3-3.5,6.1-6.8,16.4-13.9,6.2-4.2,15.8-2.3,17-8.6,7.4,4.2,18.7,21.6,22.6,26.8,15.5,18.7,6.1,28.9-6.4,45.5-2.5-4.2-6.5-7.3-11-8.6,3.8-5.7,6.2-11.8,9-16.5,0,0,0,0,0,0,0,0,0,0,0,0Z"/><path class="cls-11" d="m100.4,290.7c1.3,4.5-.2,6.3-6.3,7.9-5.8,1.7-10.6-1.6-13.1-4.6-2.9-3.4-6.7-11.3-5.5-13.1,0,0,.1,0,.2,0,2.7,8.3,7.9,17.5,18.4,14.8,5.1-1.5,6.5-3.2,5.8-5.4l.4.4Z"/><path class="cls-7" d="m89.7,143.5c1-2.1,2-4.1,3.1-6,4.6,1.3,8.6,4.5,11,8.6-2,2.6-3.9,5-5.2,6.9-2-4-5-7.2-9.1-9.2,0-.1,0-.2.1-.3Z"/><path class="cls-10" d="m90.8,277.8c-3.4,1.7-9.6,3.1-15.2,3.1,0-.1,0-.2,0-.2,0,0-.1.1-.2.2-2.3,0-4.5-.2-6.2-.7-.1-9.2-5.9-76.3-10.4-94.5h-.3c-.8,15.3-8.9,87.1-8.5,92-10.4,1.6-19.9,3.7-26.8,0,2.3-16.9,6.4-86.4,8.8-102.7,17.2,2.3,12.9,6,21-7.8,1,0,4.5,10.9,7.2,10.6,7.8-.9,22.4-3,26.2-5.4,2.3,20.3,7.6,94,6.7,103.5-.4.6-1.2,1.2-2.3,1.8Z"/><path class="cls-7" d="m86.5,166.7c.4,1.6.5,2.9.8,5-3.9,3.7-18.6,4.9-27,6.2-2.7.3-6.2-10.7-7.2-10.6-.1-4.5,0-4.1.3-7.1,8.8.6,17.7-.4,25.8-3.6.3.1.6.2.9.3-.9,2.4.7,4.1,2.1,4.3-1.3,1.9,1.1,3.4,2.3,3.4,0,1.7.8,2.3,1.9,2.2Z"/><path class="cls-6" d="m32.7,32.4c0,1.8,0,2.5.1,3.2-.3,0-.9,0-1.5.2,0-5.2-1.6-11.2.6-20.7C34.3,5,51.4.9,59,1.1c17.9,1.1,26.7,14.3,22.4,32.9-1.1-.3-2.3.3-2.8,1.7h0c0,1.6-2.2,1.8-2.9.5s-.9-8.5-3-11.9c-10.7-17.3-37.7-13.3-40.1,8.2Z"/><path class="cls-10" d="m75.7,280.9c0,0-.1,0-.2,0,0,0,0-.2.2-.2,0,0,0,.1,0,.2Z"/><path class="cls-7" d="m67.3,69.7c6.8,10.1-8.9,11.5-12.2,18.2-3.8-7-14.8-10.8-8.9-17.8-1.2,14.9,21.6,11.7,21.1-.4h0Z"/><path class="cls-5" d="m63.2,36.8c2.3,0,2.3,6.8,0,6.7-2.3,0-2.3-6.8,0-6.7Z"/><path class="cls-12" d="m63.1,56.5c0,3.2-13.7,10.8-16.8.8h0c4.2,2.2,12.2.7,16.7-.8Z"/><path class="cls-3" d="m68.8,64.9c-.5.6-1,1.1-1.6,1.6,0,3.3,0,2.2,0,3.2h0c6.8,10.1-8.9,11.5-12.2,18.2-3.8-7-14.8-10.8-8.9-17.8,0-.5-.2-1-.3-1.6h0c-1-.8-2-1.6-3-2.5h0c-29,14.4,4.8,14.1,11.3,30.4,3-3.5,6.1-6.8,16.4-13.9,6.2-4.2,15.8-2.3,17-8.6.6-3.2-15.8-10.1-18.7-8.9Z"/><path class="cls-7" d="m53.4,160.1c-.4,3-.4,2.7-.3,7.1-1,0-4.6,10.2-6.7,10-6.9-.7-14.6-1.8-20-3.8,0-2.4,2.3-14.2,3.2-18.7,7.5,2.9,15.7,4.8,23.8,5.3Z"/><path class="cls-11" d="m48,284.1s1.5.5,0,3c-1.5,2.4-9.1,2.5-9.9,2.6-4.8,2.7-11.3,5.3-18.9,5.3-4.8,0-7.7-2.8-5.2-5.7,5.2,8.3,18.8.5,24.3-2.1,5.5-.2,8.5-.7,9.7-3.1h0Z"/><path class="cls-5" d="m41.5,37c1.9,0,1.8,5.9,0,5.8-1.8,0-1.9-5.9,0-5.8Z"/><path class="cls-7" d="m31.4,140.2c0,.6,0,1.2,0,1.8h0c-2,4.2-4.9,7.1-7.8,10.5-1.9-2.2-3.6-4.5-5.2-6.8h.2c2-4.7,5.3-8.5,9.5-11.1,1.4,2.2,2.9,4.7,3.4,5.6Z"/><path class="cls-9" d="m97.9,151.8c-2-3.5-4.8-6.1-8.4-8,0-.1,0-.2.1-.3-3.8,1.1-11.3.9-10.2,6.8-2.4,2.5-3.3,5.6.7,6.4-.9,2.4.7,4.1,2.1,4.3-1.3,1.9,1.1,3.4,2.3,3.4.7,7.8,16.1-6.3,12.9-12.4l.4-.3Z"/><path class="cls-9" d="m68.8,64.9c2.4-2.7,7.9-7.8,9.2-15.9,4.4.4,5.9-6.2,6.1-9.8.3-3.4-3.3-7.6-5.5-3.4h0c0,1.6-2.2,1.8-2.9.5s-.9-8.5-3-11.9c-11.6-18.8-41.2-11.9-40,11.4-.3,0-.9,0-1.5.2h0c-3.7,2.1-2.3,15.8,2.5,14.4,1.9,8.8,6,13.3,12.1,18.3h0c-.9,15.9,19.1,14.9,21.5,2.2-.2-2.3-.1-.1-.1-4.2.5-.5,1-1.1,1.6-1.6Zm-27.3-22c-1.8,0-1.9-5.9,0-5.8,1.9,0,1.8,5.9,0,5.8Zm21.7-6.1c2.3,0,2.3,6.8,0,6.7-2.3,0-2.3-6.8,0-6.7Zm-16.8,20.4c4.2,2.3,12.2.9,16.7-.7,0,3.2-13.7,10.8-16.8.8h0Z"/><path class="cls-9" d="m24.9,150.8c.9,3.7,1.6,7.5,2.8,11.2h.4c1.4-7.2,3.1-13.9,3.2-20.1h0c-1.7,3.6-3.9,6.1-6.4,8.9Z"/><path class="cls-4" d="m100.1,291c-1-4.9-6.8-8.5-9.3-13.3-3.4,1.7-9.6,3.1-15.2,3.1,2.7,8.3,7.9,17.5,18.4,14.8,4.7-1.2,6.1-3.2,6-4.7Z"/><path class="cls-4" d="m48.1,278c-9.8,1.6-17.5,2.9-23.7.2l-6.7,2.8h0c-3.9,1.9-3.9,6.9-3.6,8.7,5.7,7.7,18.7.2,24.2-2.4,9.5-.1,10.2-1.9,9.9-9.2Z"/><path class="cls-1" d="m31.6,75.5c-8.3,5.5-16,21.8-19.6,30"/><path class="cls-1" d="m101.8,121.1c-2.8-3.3-13.5-16.7-17.3-25.2"/><path class="cls-1" d="m87.6,73.8c7.4,4.3,18.7,21.5,22.6,26.8"/><path class="cls-1" d="m29,92.1c.3,17.4,3.6,30,2.4,49.9,0,7.9-4.6,24.2-4.9,31.5,5.4,1.9,13.1,3,20,3.8,2.1.2,5.7-9.9,6.7-10,1,0,4.5,10.9,7.2,10.6,8.4-1.3,23.1-2.5,27-6.2"/><path class="cls-1" d="m86.8,100.7c-.9,2.4-2.2,38.8-1.8,43.8"/><path class="cls-1" d="m24.9,150.8c.9,3.7,1.6,7.5,2.8,11.2"/><path class="cls-1" d="m12,105.5c-3.3,8.1-6.8,16.8-3.1,24.4"/><path class="cls-1" d="m30.3,108.2c-2.4,3.1-7.4,14.4-8.5,15.9"/><path class="cls-1" d="m18.3,119.1c4.7,5.8,9.3,15.1,13.3,21.4"/><path class="cls-1" d="m98.6,117.6c1.4,1.5,1.9,2.1,3.2,3.5"/><path class="cls-1" d="m110.2,100.7c11.2,14.3,10.6,22.7,0,36.9"/><path class="cls-1" d="m89.5,143.9c2.4-5.6,6.9-11.9,9.1-16.7,2.5-5.7,2.9-6.8,7.8-10.4"/><path class="cls-1" d="m81.8,147.7c-2.1,2.4-7.7,7.7-1.6,9-.9,2.4.7,4.1,2.1,4.3-1.3,1.9,1.1,3.4,2.3,3.4.7,7.8,16.1-6.3,12.9-12.4"/><path class="cls-1" d="m90.2,143.4c-3.9,1.3-11.9.8-10.7,7"/><path class="cls-1" d="m32.1,175c-2.4,16.1-6.5,86-8.8,102.7,6.9,3.7,16.4,1.6,26.8,0-.5-4.9,7.6-76.8,8.5-92"/><path class="cls-1" d="m87.3,171.6c-.3-2.1-.4-3.4-.8-5"/><path class="cls-1" d="m69.2,280.2c7.4,1.6,18.9.4,23.9-4.2.9-9.8-4.4-83-6.7-103.5"/><path class="cls-1" d="m57.2,178.1c5.9,20.3,11.7,89.8,12.1,102.1"/><path class="cls-1" d="m46.5,73.9c3.3,10.9,20.5,6.1,20.9-3.2"/><path class="cls-1" d="m103.8,146.2c2.3-3,4.6-6.1,6.4-8.6"/><path class="cls-2" d="m89.5,143.9c4,2,7,5.2,9.1,9.2,1.4-1.9,3.3-4.3,5.2-6.9"/><path class="cls-2" d="m18.4,145.7c-3.5-5-6.5-10.1-9.4-15.8"/><path class="cls-1" d="m24.9,150.8c-.5.5-.9,1-1.4,1.6-1.9-2.2-3.6-4.5-5.2-6.8"/><path class="cls-2" d="m31.3,142c-1.7,3.6-3.9,6.1-6.4,8.9"/><path class="cls-1" d="m79.2,156.4c-15.7,6.2-34.1,4.2-49.7-1.7"/><path class="cls-1" d="m67.3,69.7c6.8,10.1-8.9,11.5-12.2,18.2-3.8-7-14.8-10.8-8.8-17.8"/><path class="cls-1" d="m68.8,64.9c3-1.2,19.3,5.7,18.7,8.9-1.2,6.3-10.8,4.4-17,8.6-10.3,7.1-13.4,10.4-16.4,13.9"/><path class="cls-1" d="m43,65.9c-29,14.4,4.8,14.1,11.3,30.4"/><path class="cls-1" d="m46.5,73.9c0-2.2,0-3.5-.5-5.5"/><path class="cls-1" d="m92.6,137.5c4.7,1.3,8.8,4.5,11.3,8.8"/><path class="cls-1" d="m28.1,134.5c-4.2,2.6-7.5,6.5-9.5,11"/><path class="cls-1" d="m53.4,160.1c-.4,3-.4,2.7-.3,7.1"/><path class="cls-1" d="m55.1,87.9c-.5,2.9-.7,5.8-.6,8.7"/><path class="cls-1" d="m67.4,70.7c-.2-2.3-.1-.1-.1-4.2"/><path class="cls-1" d="m32.7,31.9c0,10.4.1,23.7,7.4,31,7.1,9.1,19,13.8,28.7,2,2.4-2.7,7.9-7.7,9.1-15.8"/><path class="cls-1" d="m36.9,32.6c1.6-1.6,7.8-1.7,9.3-.8"/><path class="cls-1" d="m58.1,32c2.6-1.4,9.6-.5,10.1.6"/><path class="cls-1" d="m43,39.9c0,3.8-2.9,3.8-2.9,0,0-3.8,2.9-3.8,2.9,0Z"/><path class="cls-1" d="m64.9,40.1c0,4.3-3.5,4.3-3.5,0,0-4.3,3.5-4.3,3.5,0Z"/><path class="cls-1" d="m46.5,48.2c-.8,5.3,5.2,5.6,9.4,5.3"/><path class="cls-1" d="m45.9,56.9c4.3,2.7,12.5,1.2,17.2-.4,0,3.2-13.7,10.8-16.8.8"/><path class="cls-1" d="m31.4,35.8c0-5.2-1.6-11.2.6-20.7C34.3,5,51.4.9,59,1.1c17.8,1.1,26.6,14.3,22.4,32.9"/><path class="cls-1" d="m78.6,36c1.9-4.5,5.9-.4,5.5,3.2,0,3.6-2.8,12.7-7.4,8.9"/><path class="cls-1" d="m32.8,35.6c-.3,0-.9,0-1.5.2h0c-3.7,2.1-2.3,15.3,2.3,14.4"/><path class="cls-1" d="m78.7,35.7c0,1.6-2.2,1.8-2.9.4s-.9-8.5-3-11.9c-10.7-17.4-37.9-13.2-40.1,8.4"/><path class="cls-1" d="m75.6,280.7c2.6,8.4,7.8,17.7,18.5,15.1,4.7-1.2,6.1-3.2,6-4.7-1.1-4.9-6.8-8.8-9.5-13.4"/><path class="cls-1" d="m81.5,292c.3-7.3,12.4-11.3,16.9-4.5"/><path class="cls-1" d="m99.9,290.3l.4.4c1.3,4.5-.2,6.3-6.3,7.9-5.8,1.7-10.6-1.6-13.1-4.6-2.8-3.4-7-11.8-5.4-13.3"/><path class="cls-1" d="m48.2,278.5c-.1,6.5-.2,8.6-9.3,8.6-6.1,2.3-13.2,7.5-21.6,5.2-2.4-1.2-3-2-3.3-3.3-1.1-12.4,16.7-10.6,14.4,2.7"/><path class="cls-1" d="m14,289.3c-2.4,2.9.5,5.6,5.2,5.7,7.6,0,14.2-2.5,18.9-5.3.7-.1,8.3-.1,9.9-2.6,1.5-2.5,0-3,0-3"/><path class="cls-1" d="m24.5,278.1c-.5.2-6.7,2.8-7.2,3"/></svg>