<?xml version="1.0" encoding="UTF-8"?><svg id="Africa_Modest" xmlns="http://www.w3.org/2000/svg" width="157.2" height="423" viewBox="0 0 157.2 423"><defs><style>.cls-1{stroke-linecap:round;stroke-linejoin:round;}.cls-1,.cls-2{fill:none;stroke:#010101;}.cls-2{stroke-miterlimit:10;}.cls-3{fill:#f3aa93;}.cls-3,.cls-4,.cls-5,.cls-6,.cls-7,.cls-8,.cls-9{stroke-width:0px;}.cls-4{fill:#2b2c2b;}.cls-5{fill:#d23e3b;}.cls-6{fill:#cca380;}.cls-7{fill:#fff;}.cls-8{fill:#e4b694;}.cls-9{fill:#010101;}</style></defs><path class="cls-3" d="m38.6,175.7c0,.6,0,1.1,0,1.7h-.4c-2.4,4.8-7.7,18.3-11.9,23.3-1.9-2.7-3.7-5.8-5.2-9.2h.3c3.7-6.5,6-18.3,13.5-20.7,1.8,2.4,3.5,4.3,3.7,4.9h0Z"/><path class="cls-7" d="m63.1,123.5c.9,49,0,147-.9,206.9-8,.4-23.8-.4-31.9,0,3.3-59.5,11.5-104.4,8.4-154.8-.9-13.2-.6-28.4-1.2-38h-.2c-2.8,3.6-8.8,18.5-10,19.8,1.8,3.7,3.8,8.8,7.7,13.3-7.6,2.4-9.8,14.2-13.5,20.6h-.3c-4.6-9.6-7.8-21.2-10.8-28.6-4-8.9.6-20.1,5.4-28.9,2.9-4.9,12.2-31.7,16.8-32.9,1.5-.4,6.6-2.3,11.5-4.1-.7,11.3,0,10.3,4.2,14,4.2,3.9,12.3,7.6,14.8,12.7Z"/><path class="cls-8" d="m43.1,58.4c.1,2.1.3,4.6.7,7.3-5.1-1.1-4.2-11.6-4.3-15.9.5,0,1.1,0,1.6,0,.4,2.6,1.1,5.5,2,8.6Z"/><path class="cls-5" d="m90.4,2.8c4.4,2.1,7.8,7.1,6.4,11.8-4.4-.8-9.1,2.3-13.4.9-3.8-1.1-6.3-5.3-10.2-5.5-5-.3-8.7,6.2-13.7,5.5-8.7-3.5-7.1-3.7-15.1,1,0-9,6.4-16.4,15.7-15.2,10,.4,20.8-2.2,30.3,1.6Z"/><path class="cls-8" d="m84,38.5c-3.4,0-6.9-.2-9.3,1.6.5,1.8.2,2.7,1.5,2,3.9-1,9.6-.8,11.5-.2.6-3.4-1.7-3.5-3.7-3.5Zm-2.5,11.3c0-5.7-4.2-5.7-4.2,0,0,5.7,4.2,5.7,4.2,0Zm-28.2-11.3c-4.5,0-4.7.9-5.6,3.1h.1c4.5-1.1,9.1.1,12.8.9,1.4-2.5-3-4.1-7.3-4Zm13.3,28.5c-4.1-.3-9.6,1.1-11.7,4.9,7.3,1.5,16.5.9,23.6-1.2-2.6-2.9-8.1-4.2-11.9-3.7Zm-23.6-15c-1.2-5.6,2.4-17,3.2-22.8,8.8-6.8,29.6-9.3,40.7-2.9,4.2,2.4,6.1,1.7,6.2,6.5,1.1,7,1.4,10,.3,23.9h0c.2,8.8-4.9,15.5-9.8,21.5-4.7,5.8-11,.7-15.3,1-10.8.7-11,5.2-18-3.5-3.5-4.2-7.8-19.1-7.2-23.7Zm10.1-6.2c-2.2-.1-2.2,7.8,0,7.6,2.2.1,2.2-7.8,0-7.6Z"/><path class="cls-7" d="m92.2,93.2c4.8,10.1-11.9,16.7-18,21.2-1.5.9-3.1,1.9-4.9,1.8-4.7-1.1-15.6-7.7-17.9-9.6-1.3-1.6-1.3-9.9-.8-12.1,1.5-.5,2.6-.8,3.2-.9.4,1.4-.5,5.5.7,7.2,3.5,5.2,11.3,8.7,13.8,8.7,2.9,0,16.4-8.5,17.3-8.7,0,0,0,0,0,0,0,0,0,0,0,0-.4-1.2.1-5.6,0-8.5,2.1.4,4.4.3,6.5.3v.5Z"/><path class="cls-5" d="m51.7,396.9c1.9.4,6,.4,9.5-.1,0,3.8-2.3,13.8-2.8,14.5-3.3,4.6-14.1,5.9-20.4,8.4-7.2,2.8-15.5,3.6-22.5.4-3.2-1.1-4.4-4.7-1.3-6.5,10.6-7.7,23.6-16.5,29.5-21.6,0-.1,0-.2,0-.4,1.9,2.7,4.8,4.6,8,5.3Z"/><path class="cls-9" d="m51.5,49.7c0-5,3.4-5,3.4,0,0,5-3.4,5-3.4,0Z"/><path class="cls-7" d="m98.5,396.3c-2-.1-3.9-.4-4.8-1-1.9-12.4-5.5-41.7-5-54.3,10.8-.3,20.9-.7,28.5-1.2.3,9.3-2.7,31.2-2.4,51.4-3.9,5.5-9.3,5.1-16.2,5.1Z"/><path class="cls-4" d="m66.6,67c3.8-.5,9.3.8,11.9,3.7-7.1,2.1-16.3,2.7-23.6,1.2,2.1-3.8,7.6-5.2,11.7-4.9Z"/><path class="cls-3" d="m127,204.3c-2.6-4.8-8.7-22.1-13.8-24.6,1.9-2.6,3.5-5.4,4.9-8.1,8.8,3.8,9.6,14.9,14.5,22.1-1.9,4.3-3.8,8.4-5.5,10.6Z"/><path class="cls-4" d="m76.1,42.1c-1.3.6-1-.3-1.5-2,2-1.5,14.6-3.9,13,1.9-2-.6-7.7-.8-11.5.2,0,0,0,0,0,0Z"/><path class="cls-5" d="m144.7,414.9c3.1,2.1,1.6,5.7-1.8,6.6-7.5,2.7-16,1.3-23.2-2.2-7.2-3.4-17.5-5.2-19.1-7.4-.8-1.1-3.3-13.5-2.1-15.6,7,0,12.3.4,16.2-5.1,7.6,6.6,19.5,14.9,29.9,23.6Z"/><path class="cls-4" d="m53.3,38.5c4.3,0,8.8,1.6,7.3,4-3.7-.8-8.2-2-12.8-.8h-.1c.8-2.3,1.1-3.2,5.6-3.3Z"/><path class="cls-6" d="m44.4,65.4c-.2.2-.4.3-.6.3-.4-2.7-.6-5.2-.7-7.3,1,2.1.8,4.6,1.4,7h0Z"/><path class="cls-7" d="m61.2,396.8c-7.5,1-13.2.7-17.5-5.1.7-15-3.8-41.8-3.3-51,7.5.5,17.8.7,28.8.7,1,12-2,44.3-2.5,53.9-1.1.7-3.2,1.2-5.4,1.5Z"/><path class="cls-4" d="m44.4,16.5c8.1-4.6,6.4-4.5,15.1-1,5,.7,8.7-5.8,13.7-5.5,3.9.2,6.5,4.4,10.2,5.5,4.4,1.3,9.2-1.8,13.7-.9,4.3.9,2.9,2,2.8,6.5.3,8.3,3.7,18.1,1.4,26.6-2.3-.2-4.2,1.5-4.2,4.9.5,3-1.5,10.6-1.8,13.9,0,0,.2,0,.3,0,.6,7.2-6.1,19.6-11.6,24.1-8.3,4.4-16.3,2.9-25.3,1.9-9.8-4.1-13.6-17.9-15.1-26.9.2,0,.5-.1.6-.3h0c-.3-1.9-.6-3.8-.8-5.6,1.8,4.7,3.9,12.6,6.6,15.9,7,8.6,7.2,4.2,18,3.5,4.3-.3,10.6,4.9,15.3-1,4.9-6,10-12.7,9.8-21.5h0c1.1-14,.8-17-.3-23.9,0-4.8-2-4.1-6.2-6.5-11-6.4-32-3.8-40.7,2.9-2.3,10.9-4.6,18.7-2.6,30.6-3.2-8.3-3.8-19.9-3.6-26.9h.2c-.2-5,1.2-8.1.5-13.6-.3-2.1,1.8-2.2,3.5-2.8Z"/><path class="cls-9" d="m79.4,45.4c2.7-.1,2.7,8.9,0,8.8-2.7.1-2.7-8.9,0-8.8Z"/><path class="cls-8" d="m40.1,206.8c-6.3,0-7.3-9-8.8-14.1h0c2.8-5.6,5.5-12.1,7.1-15.3h.4c.5,11,1.1,21.9,1.4,29.4Z"/><path class="cls-3" d="m62.7,216.2c.5-25.7,2-89.5.4-92.6-2.5-5.2-10.6-8.8-14.8-12.7-4.1-3.8-4.9-2.7-4.2-14,2.4-.9,4.7-1.7,6.5-2.3-.5,2.2-.5,10.5.8,12.1,2.4,1.9,13.2,8.5,17.9,9.6,6-1,17.2-9.6,21.6-13.6,2.3-2.9,2.6-6.7,1.3-10,.8,0,1.5,0,2.2,0h0c.9.1,2.5.7,4.5,1.4h0c2.2,9.7-7,16.7-14.3,21.1-4.8,3.8-10.3,10-10,16.6-2.1,25.1-.1,69.3-.6,69.4-.3,31.6-.3,110.9,2.4,129.4,1.4,1.4,36.4-1.5,50-2.7.8,6.6,1.2,10.9,1.2,10.9-28.7,2.1-70.2,5.1-98.4,0,.3-1.6.6-4.5,1-8.4,8.1-.4,23.9.4,31.9,0,2.2-43.2-.3-74,.5-114.3Z"/><path class="cls-8" d="m113.4,179.3c0,.1-.2.3-.3.4,2.7,1.3,5.7,6.8,8.3,12.3,4.6,7-14,21.4-14.5,12.7-1.4,0-4.5-1.8-2.8-4.1-1.7-.3-3.7-2.3-2.6-5.2-5.7-1.5-3.4-5-.8-7.8-1.4-7.2,7.9-6.9,12.8-8.3Z"/><path class="cls-8" d="m54.5,100.9c-1.2-1.7-.3-5.7-.7-7.1h0c.6-.9,1.1-1.9,1.7-2.8,7.7,3.9,20.9,3.7,28.6-.3.4.8.8,1.7,1.2,2.5h.4c0,3-.4,6.5,0,7.6-11.4,5.7-18.4,15.3-31.1,0Z"/><path class="cls-8" d="m101.4,47.7c7.6,0-.2,20.9-5.9,18.8.3-3.3,2.3-10.9,1.8-13.9,0-3.4,1.9-5.1,4.2-4.9Z"/><path class="cls-7" d="m74,260.7c-.7-16.2,0-42.2,0-59.4.5-.1-1.5-44.3.6-69.4-.3-6.6,5.2-12.7,10-16.6,7.3-4.4,16.4-11.4,14.3-21h0c4.7,1.6,11.2,4.6,12.8,5.4,4.7,2.2,26.9,30.6,26.9,30.6,5.7,7.4,5.8,7.4,9,13.6,5.2,16.1-8.8,35.3-15.1,49.8-4.9-7.2-5.7-18.3-14.5-22.1,3.1-6.4,5.4-10.7,8.6-15.7-3.3-3.3-10.3-10.4-17.1-18.8-2.7,3.2-.6,36.1-.2,43-4.7.8-9.8,2-8.8,7.5-2.6,2.8-4.8,6.3.8,7.8-1.1,2.9.9,4.9,2.6,5.2-1.7,2.3,1.4,4.1,2.8,4.1-.1,3.1,2.2,3.1,4.8,2.1,4.7,27.6,10.1,89.4,14.8,121.1-13.6,1.2-48.6,4.1-50,2.7-1.9-1.9-1.4-44.1-2.4-69.9Z"/><path class="cls-1" d="m46.3,29.3c-3.3,12.8-4.6,24.7-1.4,38.3"/><path class="cls-1" d="m47.8,41.8c4.5-1.2,9.1,0,12.8.8"/><path class="cls-1" d="m76.1,42.1c3.9-1,9.6-.8,11.5-.2"/><path class="cls-1" d="m75.6,42.3c.2,0,.4-.1.6-.2"/><path class="cls-1" d="m54.9,49.7c0,5-3.4,5-3.4,0,0-5,3.4-5,3.4,0Z"/><path class="cls-1" d="m81.5,49.8c0,5.7-4.2,5.7-4.2,0,0-5.7,4.2-5.7,4.2,0Z"/><path class="cls-1" d="m63.1,51.3c-2.5,10-6.5,14.8,3.5,15.7"/><path class="cls-1" d="m97.3,52.6c0-4.1,2.7-5.8,5.6-4.5,5,2.2-2,21.1-7.7,18.3"/><path class="cls-1" d="m93.1,32.8c1.1,7,1.4,10,.3,23.9"/><path class="cls-2" d="m41.1,49.7c-1.2-7-1.1-12.3-1-16.8"/><path class="cls-1" d="m43.1,58.4c-.9-3.2-1.5-6-2-8.6"/><path class="cls-1" d="m101.3,48.1c.8-4,1-6.9.8-11.2"/><path class="cls-1" d="m85.7,92.4c0,2.9-.5,7.3,0,8.5"/><path class="cls-1" d="m47.7,41.7c-.3-5.1,15.4-3.4,12.9.9"/><path class="cls-1" d="m76.1,42.1c-1.3.6-1-.3-1.5-2,2-1.5,14.6-3.9,13,1.9"/><path class="cls-1" d="m53.8,93.7c-5.2,1.1-17.7,6.3-21.2,7.2-4.6,1.2-13.9,28-16.8,32.9"/><path class="cls-1" d="m126.2,155.7c-3.1-3.5-14.7-15.2-20.2-23.3"/><path class="cls-1" d="m94.2,92.8c4.5.6,15.3,5.9,17.4,6.8,4.7,2.2,26.9,30.6,26.9,30.6"/><path class="cls-1" d="m38.6,175.7c.5,11.1,1.2,23.4,1.4,31.1"/><path class="cls-1" d="m37.4,130.3c0,15.5.5,27.3,1.2,45.4"/><path class="cls-1" d="m108.9,137.6c-1.2,2.9-.1,35.3.3,41.5"/><path class="cls-1" d="m31.3,192.6c1.5,5.1,2.5,14.2,8.8,14.1"/><path class="cls-1" d="m15.7,133.8c-4.8,8.8-9.4,19.9-5.4,28.9"/><path class="cls-1" d="m37.2,137.6c-2.8,3.6-8.8,18.5-10,19.8"/><path class="cls-1" d="m24.3,152c3.1,5.8,3.1,5.8,6,12.1.7,2,7.4,9.8,8.3,11.5"/><path class="cls-1" d="m138.6,130.3c5.7,7.4,5.8,7.4,9,13.6,3.8,7.5-3.1,29.4-8.2,35.8"/><path class="cls-1" d="m113.1,179.7c7.5-10.8,10.2-22.4,19.6-31.4"/><path class="cls-1" d="m103.5,184.4c-2.3,2.9-10,8.9-2,11-1.1,2.9.9,4.9,2.6,5.2-1.7,2.3,1.4,4.1,2.8,4.1.5,8.7,19.1-5.7,14.5-12.7"/><path class="cls-1" d="m114,179.1c-5,1.6-14.8,1-13.3,8.5"/><path class="cls-1" d="m40.1,206.8c-3.5,32.1-6.3,88.8-10.8,132.1,28.2,5.1,69.7,2.1,98.4,0"/><path class="cls-1" d="m127.7,338.8c-4.8-34.5-11-100.7-16-132"/><path class="cls-1" d="m53.8,93.7c.4,1.4-.5,5.5.7,7.2,3.5,5.2,11.3,8.7,13.8,8.7,2.9,0,16.5-8.7,17.3-8.7"/><path class="cls-1" d="m85.7,92.4c3.1.6,6.6,0,9.8.4"/><path class="cls-2" d="m113.1,179.7c5.1,2.6,11.2,19.8,13.8,24.6,4-5.5,8.6-19.2,12.4-24.6"/><path class="cls-2" d="m38.3,177.3c-2.4,4.8-7.7,18.3-11.9,23.3-7.5-10.5-12-27.9-16-38"/><path class="cls-1" d="m43.1,58.4c2.2,5.1,4.1,13.6,7.2,17.4,7,8.6,7.2,4.2,18,3.5,4.3-.3,10.6,4.9,15.3-1,5-6.2,10.3-13.3,9.8-22.3"/><path class="cls-1" d="m95.5,66.8c.3-3.4,2.4-11.1,1.8-14.2"/><path class="cls-2" d="m40.7,49.8c-.4,0-.8,0-1.1,0-.1,3.4-.5,17.2,4.9,15.6"/><path class="cls-1" d="m92.2,93.2c4.8,10.1-11.9,16.7-18,21.2-1.5.9-3.1,1.9-4.9,1.8-4.7-1.1-15.6-7.7-17.9-9.6-1.3-1.7-1.3-9.9-.8-12.2"/><path class="cls-1" d="m126.8,327.9c-13.6,1.2-48.9,4.1-50.4,2.7-2.7-18.6-2.7-97.6-2.4-129.4.5-.1-1.5-44.3.6-69.4-.3-6.6,5.2-12.7,10-16.6,7.3-4.4,16.4-11.4,14.3-21"/><path class="cls-1" d="m44.1,95.7c-.9,10.5-.1,11.9,4.1,15.1,4.2,3.9,12.3,7.6,14.8,12.7.8,48.9,0,147.1-.9,206.9-8.1.4-23.9-.4-32.1,0"/><path class="cls-2" d="m118.5,171.8c8.5,4.1,9.1,15.2,14.2,22.2"/><path class="cls-2" d="m35.3,171.1l.3-.3c-7.6.5-10.7,14.7-14.2,20.5.3-.2.6-.3.9-.5"/><path class="cls-2" d="m93.1,32.8c0-4.8-2-4.1-6.2-6.5-11-6.4-32-3.8-40.7,2.9"/><path class="cls-2" d="m102.1,36.9c-.4-4.8-2.2-11.3-2.1-15.8,0-4.4,1.5-5.6-2.8-6.5-4.5-.9-9.3,2.2-13.7.9-3.8-1.1-6.3-5.3-10.2-5.5-5-.3-8.7,6.2-13.7,5.5-9.1-3.7-7-3.5-15.3,1-1.7.6-3.5.7-3.3,2.7.7,6.2-1.2,9.9-.4,15.6"/><path class="cls-2" d="m95.7,66.2c.8,7.4-5.9,19.9-11.6,24.5-8.3,4.4-16.3,2.9-25.3,1.9-12.1-5.7-14.9-22.7-15.8-34.3"/><path class="cls-1" d="m78.5,70.7c-7.1,2.1-16.3,2.7-23.6,1.2,4.6-6.9,18-6.6,23.6-1.2Z"/><path class="cls-1" d="m96.9,14.5c1-18.7-24.8-12.6-36.7-13.2-11.2-1.5-16.6,8.9-16,18.7"/><path class="cls-2" d="m84.1,90.7c-.3-.7-.6-1.4-.9-2"/><path class="cls-1" d="m85.3,93.2c-.4-.8-.8-1.7-1.2-2.5"/><path class="cls-1" d="m53.8,93.8c.6-1,1.2-2,1.8-3"/><path class="cls-1" d="m40.4,340.6c-.5,9.3,4.1,36.3,3.3,51.3"/><path class="cls-1" d="m69.2,341.4c1,12-2,44.3-2.5,53.9"/><path class="cls-1" d="m117.2,339.8c.3,9.2-2.7,31.2-2.4,51.4"/><path class="cls-1" d="m88.7,341.1c-.5,12.5,3.1,41.8,5,54.2"/><path class="cls-1" d="m61.2,396.8c0,3.8-2.3,13.8-2.8,14.5-3.3,4.6-14.1,5.9-20.4,8.4-7.2,2.8-15.5,3.6-22.5.4-3.2-1.1-4.4-4.7-1.3-6.5,10.6-7.7,23.6-16.5,29.5-21.6"/><path class="cls-1" d="m146.4,417.6c-8.4-10.8-24.3-18.9-31.7-26.4"/><path class="cls-1" d="m98.5,396.3c-1.2,2.1,1.3,14.5,2.1,15.6,1.6,2.2,11.9,3.9,19.1,7.4,6.9,3.3,23.3,7.1,26.7-1.6"/><path class="cls-1" d="m114.7,391.2c-4.1,6.2-14.2,6-21,4.1"/><path class="cls-1" d="m66.7,395.3c-7.4,2.9-18.3,3.5-23-3.7"/></svg>