<?xml version="1.0" encoding="UTF-8"?><svg xmlns="http://www.w3.org/2000/svg" width="257" height="167" xmlns:xlink="http://www.w3.org/1999/xlink" viewBox="0 0 257 167"><defs><style>.cls-1{stroke-linecap:round;stroke-linejoin:round;}.cls-1,.cls-2,.cls-3,.cls-4,.cls-5,.cls-6,.cls-7,.cls-8,.cls-9,.cls-10,.cls-11,.cls-12{stroke:#010101;}.cls-1,.cls-4,.cls-9,.cls-11,.cls-12{fill:none;}.cls-1,.cls-11{stroke-width:.4px;}.cls-2{fill:url(#linear-gradient-2);}.cls-2,.cls-9{stroke-width:.3px;}.cls-13{fill:url(#linear-gradient);}.cls-13,.cls-14,.cls-15,.cls-16,.cls-17,.cls-18,.cls-19,.cls-20,.cls-21,.cls-22,.cls-23,.cls-24,.cls-25,.cls-26,.cls-27,.cls-28,.cls-29,.cls-30,.cls-31,.cls-32,.cls-33,.cls-34,.cls-35,.cls-36,.cls-37,.cls-38,.cls-39,.cls-40,.cls-41,.cls-42,.cls-43,.cls-44,.cls-45,.cls-46,.cls-47,.cls-48,.cls-49,.cls-50,.cls-51,.cls-52,.cls-53,.cls-54,.cls-55,.cls-56,.cls-57,.cls-58,.cls-59,.cls-60,.cls-61{stroke-width:0px;}.cls-3{fill:#e1e1df;}.cls-3,.cls-4,.cls-10,.cls-12{stroke-width:.3px;}.cls-14{fill:url(#linear-gradient-11);}.cls-15{fill:url(#linear-gradient-12);}.cls-16{fill:url(#linear-gradient-13);}.cls-17{fill:url(#linear-gradient-10);}.cls-18{fill:url(#linear-gradient-16);}.cls-19{fill:url(#linear-gradient-15);}.cls-20{fill:url(#linear-gradient-14);}.cls-4,.cls-5,.cls-6,.cls-7,.cls-8,.cls-10{stroke-miterlimit:10;}.cls-5{stroke-width:.5px;}.cls-5,.cls-10,.cls-39{fill:#d7af82;}.cls-6{fill:#e5c29e;}.cls-7{fill:#b4b4b4;}.cls-8{fill:#f6eb16;}.cls-21{fill:url(#linear-gradient-4);}.cls-22{fill:url(#linear-gradient-3);}.cls-23{fill:url(#linear-gradient-8);}.cls-24{fill:url(#linear-gradient-9);}.cls-25{fill:url(#linear-gradient-7);}.cls-26{fill:url(#linear-gradient-5);}.cls-27{fill:url(#linear-gradient-6);}.cls-28{fill:#f4cc13;}.cls-29{fill:#f7c3da;}.cls-30{fill:#f8e27f;}.cls-31{fill:#4c489d;}.cls-32{fill:#47392e;}.cls-33{fill:#9a8166;}.cls-34{fill:#5356a5;}.cls-35{fill:#971d20;}.cls-36{fill:#363230;}.cls-37{fill:#252626;}.cls-38{fill:#cf2028;}.cls-40{fill:#c6916b;}.cls-41{fill:#d3b52a;}.cls-42{fill:#dab280;}.cls-43{fill:#dc2d28;}.cls-44{fill:#d9dddf;}.cls-45{fill:#c0282d;}.cls-46{fill:#cdab2c;}.cls-47{fill:#c45963;}.cls-48{fill:#c42828;}.cls-49{fill:#c39a6c;}.cls-50{fill:#c2a12e;}.cls-51{fill:#b48a60;}.cls-52{fill:#bc2328;}.cls-53{fill:#a14a59;}.cls-54{fill:#fbd94b;}.cls-55{fill:#6b5d51;}.cls-56{fill:#f3d12d;}.cls-57{fill:#e3c722;}.cls-58{fill:#fff;}.cls-59{fill:#eb2127;}.cls-60{fill:#e4be22;}.cls-61{fill:#eeedee;}</style><linearGradient id="linear-gradient" x1="128.5" y1="0" x2="128.5" y2="167" gradientUnits="userSpaceOnUse"><stop offset="0" stop-color="#50b4d2"/><stop offset="1" stop-color="#ccecfc"/></linearGradient><linearGradient id="linear-gradient-2" x1="16.2" y1="90.8" x2="60.3" y2="90.8" gradientTransform="translate(-7.7 22.1) rotate(-9.8)" gradientUnits="userSpaceOnUse"><stop offset="0" stop-color="#9c9ea1"/><stop offset=".2" stop-color="#bebfc1"/><stop offset=".6" stop-color="#636467"/><stop offset="1" stop-color="#000"/></linearGradient><linearGradient id="linear-gradient-3" x1="84.3" y1="63.5" x2="106.1" y2="63.5" gradientTransform="translate(-11.3 14.4) rotate(-9.8)" gradientUnits="userSpaceOnUse"><stop offset="0" stop-color="#c0282d"/><stop offset="0" stop-color="#eb2127"/><stop offset=".8" stop-color="#c0282d"/><stop offset="1" stop-color="#971d20"/></linearGradient><linearGradient id="linear-gradient-4" x1="102.5" y1="58.1" x2="98" y2="58.1" gradientTransform="translate(-11.3 14.4) rotate(-9.8)" gradientUnits="userSpaceOnUse"><stop offset="0" stop-color="#971d20"/><stop offset=".8" stop-color="#c0282d"/><stop offset="1" stop-color="#c0282d"/></linearGradient><linearGradient id="linear-gradient-5" x1="91.7" y1="49" x2="98.6" y2="49" xlink:href="#linear-gradient-3"/><linearGradient id="linear-gradient-6" x1="91.7" y1="49.7" x2="98.6" y2="49.7" xlink:href="#linear-gradient-3"/><linearGradient id="linear-gradient-7" x1="91.7" y1="48.2" x2="98.6" y2="48.2" gradientTransform="translate(-4.5 -2.5) rotate(0)" xlink:href="#linear-gradient-3"/><linearGradient id="linear-gradient-8" x1="93.9" y1="46.9" x2="96.5" y2="46.9" gradientTransform="translate(-4.7 -2.5)" gradientUnits="userSpaceOnUse"><stop offset="0" stop-color="#c0282d"/><stop offset="0" stop-color="#eb2127"/><stop offset=".6" stop-color="#c0282d"/><stop offset=".9" stop-color="#971d20"/><stop offset="1" stop-color="#231f20"/></linearGradient><linearGradient id="linear-gradient-9" x1="91.7" y1="49.8" x2="98.6" y2="49.8" xlink:href="#linear-gradient-3"/><linearGradient id="linear-gradient-10" x1="88.2" y1="56.1" x2="92.5" y2="56.1" gradientTransform="translate(-11.3 14.4) rotate(-9.8)" gradientUnits="userSpaceOnUse"><stop offset="0" stop-color="#971d20"/><stop offset=".5" stop-color="#c0282d"/><stop offset=".9" stop-color="#eb2127"/><stop offset="1" stop-color="#c0282d"/></linearGradient><linearGradient id="linear-gradient-11" x1="85.8" y1="71.8" x2="85.8" y2="84.5" xlink:href="#linear-gradient-3"/><linearGradient id="linear-gradient-12" x1="85.8" y1="71.8" x2="85.8" y2="84.3" xlink:href="#linear-gradient-3"/><linearGradient id="linear-gradient-13" x1="81.1" y1="71.9" x2="88.6" y2="71.9" gradientTransform="translate(-11.3 14.4) rotate(-9.8)" gradientUnits="userSpaceOnUse"><stop offset="0" stop-color="#c0282d"/><stop offset="1" stop-color="#eb2127"/></linearGradient><linearGradient id="linear-gradient-14" x1="81.1" y1="84.4" x2="88.6" y2="84.4" xlink:href="#linear-gradient-13"/><linearGradient id="linear-gradient-15" x1="85" y1="71.9" x2="85" y2="84.5" xlink:href="#linear-gradient-3"/><linearGradient id="linear-gradient-16" x1="219.9" y1="48.6" x2="230" y2="48.6" gradientTransform="translate(-6.8 38) rotate(-10)" gradientUnits="userSpaceOnUse"><stop offset="0" stop-color="#f7c2d9"/><stop offset="1" stop-color="#e90e8b"/></linearGradient></defs><g id="Layer_2"><rect class="cls-13" width="257" height="167"/></g><g id="Layer_1"><polygon class="cls-8" points="169.9 165.3 158.3 165.3 127.7 101.2 96.6 165.3 86 165.3 122.9 89.5 132.5 89.5 169.9 165.3"/><path class="cls-7" d="M127.9,88.6c2.8,0,5.1,2.1,5.1,4.6s-2.3,4.6-5.1,4.6-5.1-2.1-5.1-4.6,2.3-4.6,5.1-4.6Z"/><rect class="cls-6" x="6.5" y="98.4" width="243.2" height="6.2" transform="translate(-15.7 23.8) rotate(-10)"/><path class="cls-2" d="M68.1,106c.2,1.3-.4,2.6-3.2,3.1l-36.2,6.3c-2.8.5-3.8-.5-4-1.8l-1.7-9.6c-.2-1.3.4-2.6,3.2-3.1l36.2-6.3c2.8-.5,3.8.5,4,1.8l1.7,9.6Z"/><polyline class="cls-9" points="23.1 103.2 24.2 104.1 25.1 104 25.9 102.7 26.8 102.5 27.9 103.5 28.8 103.3 29.6 102 30.5 101.9 31.6 102.9 32.5 102.7 33.2 101.4 34.2 101.2 35.3 102.2 36.2 102.1 36.9 100.8 37.8 100.6 39 101.6 39.9 101.4 40.6 100.1 41.5 100 42.7 100.9 43.6 100.8 44.3 99.5 45.2 99.3 46.3 100.3 47.3 100.1 48 98.8 48.9 98.7 50 99.7 51 99.5 51.7 98.2 52.6 98 53.7 99 54.6 98.9 55.4 97.6 56.3 97.4 57.4 98.4 58.3 98.2 59.1 96.9 60 96.8 61.1 97.7 62 97.6 62.7 96.3 63.7 96.1 64.8 97.1 65.7 96.9 66.4 95.6"/><polyline class="cls-9" points="23.5 106 24.6 107 25.6 106.8 26.3 105.5 27.2 105.4 28.3 106.3 29.2 106.2 30 104.9 30.9 104.7 32 105.7 32.9 105.5 33.7 104.2 34.6 104.1 35.7 105.1 36.6 104.9 37.3 103.6 38.3 103.4 39.4 104.4 40.3 104.3 41 103 42 102.8 43.1 103.8 44 103.6 44.7 102.3 45.6 102.2 46.8 103.1 47.7 103 48.4 101.7 49.3 101.5 50.4 102.5 51.4 102.3 52.1 101 53 100.9 54.1 101.9 55.1 101.7 55.8 100.4 56.7 100.2 57.8 101.2 58.7 101.1 59.5 99.8 60.4 99.6 61.5 100.6 62.4 100.4 63.2 99.1 64.1 99 65.2 99.9 66.1 99.8 66.9 98.5"/><polyline class="cls-9" points="23.9 108.7 25 109.7 25.9 109.5 26.7 108.2 27.6 108.1 28.7 109.1 29.6 108.9 30.4 107.6 31.3 107.4 32.4 108.4 33.3 108.3 34 107 35 106.8 36.1 107.8 37 107.6 37.7 106.3 38.7 106.2 39.8 107.1 40.7 107 41.4 105.7 42.3 105.5 43.5 106.5 44.4 106.3 45.1 105 46 104.9 47.2 105.9 48.1 105.7 48.8 104.4 49.7 104.2 50.8 105.2 51.8 105.1 52.5 103.8 53.4 103.6 54.5 104.6 55.5 104.4 56.2 103.1 57.1 103 58.2 103.9 59.1 103.8 59.9 102.5 60.8 102.3 61.9 103.3 62.8 103.1 63.6 101.8 64.5 101.7 65.6 102.7 66.5 102.5 67.2 101.2"/><polyline class="cls-9" points="24.4 111.4 25.5 112.4 26.4 112.2 27.1 111 28.1 110.8 29.2 111.8 30.1 111.6 30.8 110.3 31.8 110.2 32.9 111.1 33.8 111 34.5 109.7 35.4 109.5 36.6 110.5 37.5 110.3 38.2 109 39.1 108.9 40.2 109.9 41.2 109.7 41.9 108.4 42.8 108.2 43.9 109.2 44.9 109.1 45.6 107.8 46.5 107.6 47.6 108.6 48.5 108.4 49.3 107.1 50.2 107 51.3 107.9 52.2 107.8 53 106.5 53.9 106.3 55 107.3 55.9 107.1 56.6 105.8 57.6 105.7 58.7 106.7 59.6 106.5 60.3 105.2 61.3 105 62.4 106 63.3 105.9 64 104.6 64.9 104.4 66.1 105.4 67 105.2 67.7 103.9"/><polyline class="cls-9" points="24.8 114 25.9 114.9 26.9 114.8 27.6 113.5 28.5 113.3 29.6 114.3 30.5 114.1 31.3 112.8 32.2 112.7 33.3 113.6 34.2 113.5 35 112.2 35.9 112 37 113 37.9 112.9 38.6 111.6 39.6 111.4 40.7 112.4 41.6 112.2 42.3 110.9 43.3 110.8 44.4 111.7 45.3 111.6 46 110.3 46.9 110.1 48.1 111.1 49 110.9 49.7 109.6 50.6 109.5 51.7 110.5 52.7 110.3 53.4 109 54.3 108.8 55.4 109.8 56.4 109.7 57.1 108.4 58 108.2 59.1 109.2 60 109 60.8 107.7 61.7 107.6 62.8 108.5 63.7 108.4 64.5 107.1 65.4 106.9 66.5 107.9 67.4 107.7 68.2 106.4"/><path class="cls-38" d="M91,100.9c0,.3-.9.4-.9.7,0,.8.4,2.2.7,2.9.1.4,13.7-2.1,18.1-3.1.8-.2,1.3-.3,1.4-.4.5-.6,0-2.3-.3-2.9-.1-.3-1.1,0-1.1-.4,0-.4-1.6-9.1-3.1-17.8l3.6-.6h0c-.1,0-.2,0-.4-.1.1,0,.2.1.4.1,0,0,0,0,0,0,.8-.1,1.1-2.2.9-5h.1s0-1.8,0-1.8l-.7-1.6h-.2c-.6-2.5-1.6-4.2-2.4-4.1,0,0,0,0-.1,0l-3.6.6c-.6-3.2-1-5.6-1.1-6.1-.1,0-.3,0-.4.1.1,0,.3,0,.4-.1.9-.3,1.7-.5,1.7-.6-.1-.8-.3-1.5-.4-2.3,0-.4,0-1.1-.3-1.5-.3-.6-.8-.4-1.4-.2-.3,0-.6.1-.9.2h0s-1.1-9.7-8.4-10l1.3-.2c.1,0,.2-.1.2-.2l-.2-1.3c0-.1-.1-.2-.2-.2l-1.9.3-.4-2.5-2.6.4.4,2.5-2,.3c-.1,0-.2.1-.2.2l.2,1.3c0,.1.1.2.2.2l1.5-.3c-5.7,2.4-4.9,11-4.8,12.1.2,0,.5,0,.7,0-.3,0-.5,0-.7,0-1.3.1-2.2.3-2.2.6,0,.4.2,1.2.3,1.6,0,.5.2,1,.2,1.4.1.7,0,1,.9,1,.4,0,.7,0,1.1,0,0,.4.5,2.9,1.1,6.3h-.7s0,0,0,0c-.2,0-.4,0-.6,0h0c-2,.4-3.2,3.4-2.6,6.9.6,3.4,2.7,6,4.8,5.6,0,0,0,0,.1,0h0s0,0,0,0c0,0,0,0,0,0h.3c0-.1,0-.1,0-.1l.7-.2c1.5,8.8,3,17.6,3.1,18,0,0,0,0,0,0"/><polygon class="cls-45" points="109.3 71 109.2 71 109.1 72.8 108.6 72.8 108.3 72.8 108 71.2 109.3 71"/><polygon class="cls-45" points="109.8 74.4 109.8 74.4 108.6 74.5 108.3 72.8 108.6 72.8 109.1 72.8 109.7 74.4 109.8 74.4"/><polygon class="cls-45" points="108.3 72.8 108.6 74.5 108.5 74.6 107.8 73 108 71.2 108 71.2 108.3 72.8"/><path class="cls-22" d="M88.3,59.4c3-.3,6.1-.9,9.9-1.7,1-.2,2-.4,3.1-.7.3,0,.6-.1.9-.2.6-.1,1.1-.4,1.4.2.2.4.2,1,.3,1.5.1.8.3,1.5.4,2.3,0,.1-.8.4-1.7.6-1,.3-2.2.6-2.4.6-.2,0-.4,0-.6.1-3.6.8-7.1,1.4-10.9,1.9-.6,0-1.1.1-1.7.2-.7,0-1.5.1-2.3.2-.4,0-.7,0-1.1,0-.8,0-.8-.3-.9-1,0-.5-.2-1-.2-1.4,0-.4-.3-1.2-.3-1.6,0-.3.9-.5,2.2-.6.9,0,2.1-.2,3.2-.3.2,0,.4,0,.6,0Z"/><path class="cls-48" d="M106.7,73.3c-.6-3.3-.3-6.1.5-6.5l-3.6.6-1.4.2s-1.1,1.5-.2,6.5c1,5.6,2.3,6,2.3,6l1.4-.2,3.6-.6h0c-.9,0-2.1-2.6-2.7-6Z"/><path class="cls-38" d="M95.2,100.5c3.9-.4,7.4-1.1,11-2h0c0,.4.5,0,.9-.2.2,0,.3,0,.5-.1,0,0,0,0,.1.1.3.6.8.1,1.1,1.6,0,.5.2,1.1.2,1.6-4.4,1-17.9,3.5-18.1,3.1-.3-.8-.7-2.1-.7-2.9,0-.3.9-.4.9-.7,1.5,0,2.8-.2,4.2-.3Z"/><path class="cls-21" d="M97.6,56c-.2,0-.3-.2-.4-.4,0-.3-.4-1.2-.8-2.2.4.9.8,1.7,1.2,2.6Z"/><path class="cls-26" d="M89.4,47.5c0,0-.2,0-.3.1l-1.5.3c-.1,0-.2,0-.2-.2l-.2-1.3c0-.1,0-.2.2-.2l2-.3h0c0,.1,2.6-.3,2.6-.3h0c0-.1,1.9-.5,1.9-.5.1,0,.2,0,.2.2l.2,1.3c0,.1,0,.2-.2.2l-1.3.2c-.6,0-1.3,0-2,.1-.5,0-1,.2-1.5.4Z"/><path class="cls-27" d="M92.9,47h-.4c0,0-3.1.6-3.1.6,0,0,0,0,0,0,.5-.2.9-.3,1.5-.4.7-.1,1.4-.2,2-.1Z"/><path class="cls-48" d="M100,88.8c.2,1.1,1.4,7.4,1.5,8.5,0,.4-.4.7-.9.9h0c-.1-2.8-1-6.7-1.7-9.9h0c.6,0,1.1.1,1.2.6Z"/><rect class="cls-25" x="89.4" y="45.6" width="2.6" height=".1" transform="translate(-6.4 16) rotate(-9.8)"/><rect class="cls-23" x="89.1" y="43.2" width="2.6" height="2.5" transform="translate(-6.2 16) rotate(-9.8)"/><path class="cls-24" d="M89.4,47.5s0,0,0,0h-.2c0,0,.2,0,.3,0Z"/><path class="cls-17" d="M88.4,50.9c-.2,2-.4,5.7-.3,6.4,0,.1,0,.2,0,.3-.2-2.2-.1-4.5.4-6.7Z"/><path class="cls-38" d="M107,98.2c.2,0,.3,0,.5-.1-.1,0-.3,0-.5.1Z"/><path class="cls-38" d="M104.6,96.3c-.2-.9-1.2-7.6-1.5-8.5,0-.5.4-.9,1-1-.8-4.5-1.6-9.3-2.3-12.7-.2-1-.3-1.8-.5-2.6h0c-.5-3-1.3-7.2-1.7-9.6-3.6.8-7.1,1.4-10.9,1.9.2,1.1.6,3.5,1.2,6.6.3,0,2.2.7,3,5.2.7,4-.5,5.3-1,5.6,1.5,8.5,3,17.2,3.4,19.1,3.9-.4,7.4-1.1,11-2,0-.5-.2-1-.3-1.6-.6,0-1.2,0-1.3-.5ZM101.5,97.3c0,.4-.4.7-.9.9-.9.3-2.2.3-2.4-.3-.3-.9-1.1-7.7-1.5-8.5,0-.7,1.1-1.1,2.1-1.2.6,0,1.1.2,1.2.6.2,1.1,1.4,7.4,1.5,8.5Z"/><path class="cls-38" d="M98.2,57.7h0c-.2-.6-.4-1.2-.6-1.7-.2,0-.3-.2-.4-.4,0-.3-.4-1.2-.8-2.2,0,0,0,0,0,0-.5-1.1-1.1-2.2-1.6-3.3-.5-1.2-1.1-2.5-2.3-2.9h0s-3.1.5-3.1.5c-.4,1.1-.8,2.2-1,3.3-.2,2-.4,5.7-.3,6.4,0,.1,0,.2,0,.3,0,.6.2,1.2.3,1.8,3-.3,6.1-.9,9.9-1.7ZM90.6,49.1c0-.4.2-.7.6-.8,1.1,2.8,1.7,5.8,1.8,8.8h0c-.7.2-1.5,0-1.6-.3-.3-.8-.5-7-.8-7.7Z"/><path class="cls-38" d="M90.8,90.1c.3.8,1.2,7.5,1.5,8.5.2.7,1.5.7,2.1.2.2-.2.4-.4.3-.6-.1-1-1.3-7.4-1.5-8.5s-2.5-.7-2.4.4Z"/><path class="cls-52" d="M98.8,88.2h0c-.9,0-2.1.5-2.1,1.1.3.8,1.2,7.5,1.5,8.5.2.6,1.4.6,2.4.3h0c-.1-2.8-1-6.7-1.7-9.9Z"/><path class="cls-52" d="M91.3,56.8c.1.4.9.5,1.6.3h0c0-3-.7-6-1.8-8.9-.3.1-.6.4-.6.8.3.7.5,6.9.8,7.7Z"/><path class="cls-52" d="M89.9,70.6s0,0,0,0h-4c0,.2,0,.3,0,.3,1.6.6,3,2.8,3.4,5.4.5,2.7-.2,5.2-1.4,6.3,0,0,0,.1,0,.2l3.7-1.3s0,0,.2-.1c.5-.3,1.7-1.6,1-5.6-.8-4.5-2.6-5.1-3-5.2Z"/><path class="cls-45" d="M86.7,75.7c0,0,0-.1,0-.2l.4.2.2,1.5-.3.3c-.1-.6-.2-1.2-.3-1.8Z"/><path class="cls-14" d="M87.9,82.6c0,0,0,.1,0,.2l-.7.2c.2-.1.4-.2.6-.4Z"/><path class="cls-45" d="M86.7,75.7c.1.6.2,1.2.3,1.8l-.7.7h-.4c0,.1-.1-.5-.1-.5l.2-.3-.2-1.7-.4-.2v-.4c0,0,.4,0,.4,0l.8.4c0,0,0,.1,0,.2Z"/><path class="cls-15" d="M85.8,70.7c0,0,0,.1,0,.2-.2,0-.5-.2-.7-.2h.7Z"/><path class="cls-16" d="M85.1,70.7h-.6c.2,0,.4,0,.6,0Z"/><path class="cls-20" d="M86.9,83.2h.3c0,0-.2,0-.3,0Z"/><polygon class="cls-59" points="85.8 75.8 86 77.4 85.8 77.7 85.4 75.6 85.8 75.8"/><path class="cls-19" d="M86.9,83.2h0s0,0,0,0c0,0,0,0,0,0Z"/><path class="cls-43" d="M89.2,47.6c-5.7,2.4-4.9,11-4.8,12.1.9,0,2.1-.2,3.2-.3.2,0,.4,0,.6,0-.1-.6-.2-1.2-.3-1.8-.2-2.2-.1-4.5.4-6.7.2-1.1.6-2.2,1-3.3h-.2Z"/><path class="cls-43" d="M91.6,81.5l-3.7,1.3c1.5,8.8,3,17.6,3.1,18,0,0,0,0,0,0,1.5,0,2.8-.2,4.2-.3-.3-2-1.9-10.6-3.4-19.1-.1,0-.2.1-.2.1ZM94.7,98.1c0,.3-.1.5-.3.6-.6.5-1.9.5-2.1-.2-.2-.9-1.2-7.6-1.5-8.5,0-1.1,2.3-1.5,2.4-.4s1.3,7.4,1.5,8.5Z"/><path class="cls-43" d="M89.9,70.6c-.5-3.1-1-5.5-1.2-6.6-.6,0-1.1.1-1.7.2-.7,0-1.5.1-2.3.2,0,.4.5,2.9,1.1,6.3h4c0-.1,0-.1,0-.1Z"/><path class="cls-43" d="M89.3,76.3c-.5-2.7-1.9-4.8-3.4-5.4-.2,0-.5-.2-.7-.2h-.6c-2,.4-3.2,3.4-2.6,6.9.6,3.4,2.7,6,4.8,5.6,0,0,0,0,.1,0,0,0,0,0,0,0,0,0,0,0,0,0h.3c0-.1,0-.1,0-.1.2-.1.4-.2.6-.4,1.3-1.1,1.9-3.6,1.4-6.3ZM86.3,78.2h-.4c0,.1-.7.3-.7.3h0s0,0,0,0l-1-.6-.2-1.7.8-1h0s0,0,0,0h.6s.5,0,.5,0l.8.4.4.2.2,1.5-.3.3-.7.7Z"/><polygon class="cls-45" points="85.8 77.7 85.9 78.3 85.2 78.5 85.8 77.7"/><polygon class="cls-59" points="85.4 75.6 85.8 77.7 85.2 78.5 85.2 78.5 84.8 75.2 85.4 75.6"/><polygon class="cls-45" points="85.4 75.6 84.8 75.2 84.8 75.2 85.3 75.2 85.4 75.6"/><polygon class="cls-59" points="84.7 75.2 84.8 75.2 85.2 78.5 84.2 77.8 83.9 76.2 84.7 75.2"/><path class="cls-35" d="M109.9,70.9h-.2c-.6-2.5-1.6-4.2-2.4-4.1,0,0,0,0-.1,0-.8.4-1.1,3.2-.5,6.5.6,3.3,1.8,5.9,2.7,5.9,0,0,0,0,0,0,.8-.1,1.1-2.2.9-5h.1s0-1.8,0-1.8l-.7-1.6ZM109.8,74.4l-1.3.2h0s-.7-1.6-.7-1.6l.2-1.8h0s1.3-.2,1.3-.2h-.2s0,1.8,0,1.8l.7,1.6h.1s0,0,0,0Z"/><path class="cls-35" d="M108.8,97.8c0-.4-1.6-9.1-3.1-17.8l-1.4.2s-1.4-.4-2.3-6c-.9-5,.2-6.5.2-6.5l1.4-.2c-.6-3.2-1-5.6-1.1-6.1-1,.3-2.2.6-2.4.6-.2,0-.4,0-.6.1.4,2.3,1.2,6.6,1.7,9.6h0c.1.7.3,1.6.5,2.6.6,3.4,1.5,8.1,2.3,12.7-.5.1-1,.5-1,1,.3.8,1.2,7.5,1.5,8.5.1.5.7.6,1.3.5.1.6.2,1.1.3,1.6h0c0,.4.5,0,.9-.2.2-.1.3-.2.5-.1,0,0,0,0,.1.1.3.6.8.1,1.1,1.6,0,.5.2,1.1.2,1.6.8-.2,1.3-.3,1.4-.4.5-.6,0-2.3-.3-2.9-.1-.3-1.1,0-1.1-.4Z"/><path class="cls-35" d="M98.2,57.6h0c1-.2,2-.4,3.1-.7h0s-1.1-9.7-8.4-10h-.4c0,0,0,.1,0,.1,1.2.4,1.9,1.7,2.3,2.9.5,1.2,1,2.2,1.6,3.3,0,0,0,0,0,0,.4.9.8,1.7,1.2,2.6.2.5.4,1.1.6,1.7Z"/><polygon class="cls-35" points="85.2 78.5 85.2 78.5 85.2 78.5 85.2 78.5"/><path class="cls-11" d="M92.9,47c7.3.3,8.4,10,8.4,10"/><path class="cls-11" d="M84.4,59.9s0,0,0-.1c-.1-1.2-.9-9.7,4.8-12.1"/><path class="cls-11" d="M101.3,57c.3,0,.6-.1.9-.2.6-.1,1.1-.4,1.4.2.2.4.2,1,.3,1.5.1.8.3,1.5.4,2.3,0,.1-.8.4-1.7.6-1,.3-2.2.6-2.4.6-.2,0-.4,0-.6.1-3.6.8-7.1,1.4-10.9,1.9-.6,0-1.1.1-1.7.2-.7,0-1.5.1-2.3.2-.4,0-.7,0-1.1,0-.8,0-.8-.3-.9-1,0-.5-.2-1-.2-1.4,0-.4-.3-1.2-.3-1.6,0-.3.9-.5,2.2-.6.9,0,2.1-.2,3.2-.3.2,0,.4,0,.6,0,3-.3,6.1-.9,9.9-1.7,1-.2,2-.4,3.1-.7Z"/><path class="cls-11" d="M85.8,70.7c-.6-3.4-1-5.9-1.1-6.3,0,0,0,0,0,0"/><path class="cls-11" d="M105.8,79.9c1.5,8.8,3,17.4,3.1,17.8,0,.3,1,0,1.1.4.2.6.7,2.3.3,2.9,0,0-.5.2-1.4.4-4.4,1-17.9,3.5-18.1,3.1-.3-.8-.7-2.1-.7-2.9,0-.3.9-.4.9-.7,0,0,0,0,0,0,0-.4-1.6-9.2-3.1-18"/><path class="cls-11" d="M102.5,61.2s0,0,0,.1c0,.6.5,2.9,1.1,6.1"/><path class="cls-11" d="M85.1,70.7h.7s4-.2,4-.2c0,0,0,0,0,0,.3,0,2.2.7,3,5.2.7,4-.5,5.3-1,5.6-.1,0-.2.1-.2.1l-3.7,1.3-.7.2"/><polyline class="cls-11" points="86.9 83.2 86.8 83.2 86.8 83.2"/><path class="cls-11" d="M85.9,70.9c1.6.6,3,2.8,3.4,5.4.5,2.7-.2,5.2-1.4,6.3-.2.2-.4.3-.6.4,0,0,0,0,0,0,0,0-.2,0-.3.1,0,0,0,0,0,0,0,0,0,0,0,0,0,0,0,0-.1,0-2,.4-4.2-2.2-4.8-5.6-.6-3.4.6-6.5,2.6-6.9.2,0,.4,0,.6,0,.2,0,.5,0,.7.2Z"/><polyline class="cls-11" points="84.8 75.2 84.8 75.2 85.3 75.2 85.9 75.2 86.7 75.5 87.1 75.7 87.3 77.2 87 77.5 86.3 78.2 85.9 78.3 85.2 78.5 85.2 78.5 85.2 78.5"/><polygon class="cls-11" points="85.2 78.5 85.2 78.5 84.2 77.8 83.9 76.2 84.7 75.2 84.8 75.2 85.4 75.6 85.8 75.8 86 77.4 85.8 77.7 85.2 78.5"/><polyline class="cls-11" points="86.2 75.7 86.7 75.7 86.7 75.7"/><line class="cls-11" x1="86.5" y1="77.4" x2="87" y2="77.3"/><path class="cls-11" d="M109.4,79.3h0s-3.6.7-3.6.7l-1.4.2s-1.4-.4-2.3-6c-.9-5,.2-6.5.2-6.5l1.4-.2,3.6-.6"/><path class="cls-11" d="M110.3,74.3c.3,2.7,0,4.8-.9,5,0,0,0,0,0,0-.9,0-2.1-2.6-2.7-5.9-.6-3.3-.3-6.1.5-6.5,0,0,0,0,.1,0,.8-.1,1.7,1.6,2.4,4.1"/><polyline class="cls-11" points="109.8 74.4 109.8 74.4 108.6 74.5 108.5 74.6 107.8 73 108 71.2 108 71.2 109.3 71"/><polygon class="cls-11" points="109.7 70.9 109.9 70.9 110.6 72.5 110.5 74.3 110.3 74.3 109.8 74.4 109.7 74.4 109.1 72.8 109.2 71 109.3 71 109.7 70.9"/><polyline class="cls-11" points="108.2 72.8 108.3 72.8 108.6 72.8"/><polyline class="cls-11" points="89.4 45.9 88.9 43.4 91.5 42.9 92 45.4"/><line class="cls-11" x1="89.4" y1="43.4" x2="89.7" y2="45.2"/><line class="cls-11" x1="90.8" y1="43.2" x2="91.1" y2="45"/><path class="cls-11" d="M92,45.4l1.9-.3c.1,0,.2,0,.2.2l.2,1.3c0,.1,0,.2-.2.2l-1.3.2h-.4c0,0-3.1.6-3.1.6h-.2s-1.5.3-1.5.3c-.1,0-.2,0-.2-.2l-.2-1.3c0-.1,0-.2.2-.2l2-.3,2.6-.4Z"/><path class="cls-11" d="M94.7,98.1c0,.3-.1.5-.3.6-.6.5-1.9.5-2.1-.2-.2-.9-1.2-7.6-1.5-8.5,0-1.1,2.3-1.5,2.4-.4s1.3,7.4,1.5,8.5Z"/><path class="cls-11" d="M98.8,88.2c.6,0,1.1.2,1.2.6.2,1.1,1.4,7.4,1.5,8.5,0,.4-.4.7-.9.9-.9.3-2.2.3-2.4-.3-.3-.9-1.1-7.7-1.5-8.5,0-.7,1.1-1.1,2.1-1.2Z"/><path class="cls-11" d="M104.1,86.9c.6-.1,1.3,0,1.4.6.2,1.1,1.3,7.4,1.5,8.5,0,.4-.2.6-.6.8-.1,0-.3,0-.4.1-.6,0-1.2,0-1.3-.5-.2-.9-1.2-7.6-1.5-8.5,0-.5.4-.9,1-1Z"/><path class="cls-11" d="M90.9,100.9s0,0,.1,0c1.5,0,2.8-.2,4.2-.3,3.9-.4,7.4-1.1,11-2,.3,0,.6-.1.9-.2.2,0,.3,0,.5-.1.4-.1.9-.2,1.3-.4"/><path class="cls-1" d="M94.1,56.2c.1.9-2.6,1.4-2.8.6-.3-.8-.5-7-.8-7.7,0-1,1.4-1.2,1.6-.3.2,1,1.9,6.5,2,7.4Z"/><path class="cls-1" d="M88,57.2c0,.9-2.2,1.3-2.4.4-.2-.8,1.2-6.5,1.9-7.8.8-1.4,1.3-1.1,1-.1-.3.9-.6,6.6-.5,7.5Z"/><path class="cls-1" d="M97.2,55.6c.2.9,2.5.4,2.4-.4,0-.9-3.3-5.8-4.4-6.7-1.2-1-1.6-.6-1,.2.6.8,2.7,6,3,6.9Z"/><path class="cls-56" d="M242.6,56.5v2.9s0,0,0,0c0,.2-.3.4-.9.7h0s0,1.2,0,1.2l.8,16.2c-.3.3-1.6.6-3.4,1-3.3.7-8.1,1.6-11.5,2-.6,0-1.1.1-1.6.2-.7,0-1.3,0-1.7,0h0s-4.9-15.5-4.9-15.5l-.2-.8v-.5c-.2,0-.2,0-.3,0,0,0,0,0-.1,0,0,0-.1,0-.2,0,0,0,0,0,0,0,0,0-.2,0-.2,0,0,0,0,0,0,0,0,0,0,0,0,0,0,0,0,0,0,0h0s-.9-2.6-.9-2.6c0,0,0,0,0,0,0,0,0,0,0,0,0,0,0,0,0,0,.1-.2,1.5-.7,3.6-1.2.1,0,.3,0,.4-.1,2.2-.5,5.2-1.1,8.5-1.7s1.4-.2,2.1-.4c.3,0,.7-.1,1-.2,1.6-.3,3.1-.5,4.5-.7.2.6.4,1.2.5,1.6,0,.1,0,.3,0,.4.2,1.3,1,1.8,1.5,1.5.5-.2.9-1,.7-2.1s0-.3,0-.5c0-.3-.2-.8-.3-1.2,1.8-.2,2.9-.2,3,0h0Z"/><path class="cls-56" d="M239.5,58.9c0,.3,0,.5-.3.7,0,0,0,0-.1,0-.3,0-.6-.2-.6-.5s.1-.7.4-.7.2,0,.3,0c.2,0,.3.3.4.5Z"/><path class="cls-60" d="M242.6,56.5v2.9s0,0,0,0c0,.2-.3.4-.9.7h0c-.6.3-1.3.5-2.3.9,0-.2,0-.4,0-.6.5-.2.9-1,.7-2.1s0-.3,0-.5c1.7-.6,2.7-1,2.6-1.2h0Z"/><path class="cls-46" d="M239.4,60.9c1-.3,1.8-.6,2.3-.9v1.2c-.9.4-2,.7-3.1,1,0-.5,0-.9-.1-1.1.3,0,.6-.2.9-.3Z"/><path class="cls-60" d="M241.7,61.2l.8,16.2c-.3.3-1.6.6-3.4,1h0c.6-3.6-.2-12.8-.6-16.2,1.1-.3,2.1-.7,3.1-1Z"/><path class="cls-41" d="M242.5,56.5c0,.2-.9.6-2.6,1.2,0-.3-.2-.8-.3-1.2,1.8-.2,2.9-.2,3,0Z"/><path class="cls-58" d="M239.9,57.7c0-.3-.2-.8-.3-1.2-1.1-3.8-4.5-11.2-11.4-10.6-.3,0-.6,0-.9.1s-.1,0-.2,0,0,0,0,0h0s0,0,0,0c.2,0,.4,0,.6.1,5.5,1.3,8.5,7.1,9.7,10.6.2.6.4,1.2.5,1.6,0,.1,0,.3,0,.4.2,1.3,1,1.8,1.5,1.5.5-.2.9-1,.7-2.1s0-.3,0-.5ZM239.3,59.5s0,0-.1,0c-.3,0-.6-.2-.6-.5s.1-.7.4-.7.2,0,.3,0c.2,0,.3.3.4.5s0,.5-.3.7Z"/><path class="cls-50" d="M239.5,58.9c0,.3,0,.5-.3.7,0,0,0,0-.1,0-.3,0-.6-.2-.6-.5s.1-.7.4-.7.2,0,.3,0c.2,0,.3.3.4.5Z"/><path class="cls-56" d="M239.3,60.3c0,.2,0,.4,0,.6-.3,0-.6.2-.9.3-2.1.6-4.9,1.3-7.9,1.8s-6,.9-8.2,1c-.2,0-.5,0-.7,0h0c-.3-.9-.4-2.4-.4-2.9,2.4-.2,5.6-.5,9-1.1s5.4-1.1,7.4-1.6c0,.1,0,.3,0,.4.2,1.3,1,1.8,1.5,1.5Z"/><path class="cls-41" d="M238.5,61.1c0,.2,0,.6.1,1.1-5.2,1.6-11.3,2.6-15.8,2.9-.1-.4-.3-.7-.3-1v-.2c2.2-.1,5-.4,8.2-1s5.8-1.2,7.9-1.8Z"/><path class="cls-41" d="M237.7,58.4c-2,.6-4.6,1.2-7.4,1.6s-6.6,1-9,1.1c-.6,0-1.1,0-1.6,0-1.4,0-2.3,0-2.5-.2,0,0,0,0,0,0,0,0,0,0,0,0,0,0,0,0,0,0,.1-.2,1.5-.7,3.6-1.2.1,0,.3,0,.4-.1,2.2-.5,5.2-1.1,8.5-1.7s1.4-.2,2.1-.4c.3,0,.7-.1,1-.2,1.6-.3,3.1-.5,4.5-.7.2.6.4,1.2.5,1.6Z"/><path class="cls-56" d="M238.6,62.2c.4,3.5,1.2,12.6.6,16.2h0c-3.3.7-8.1,1.6-11.5,2-.8-3-3.7-11.9-4.9-15.3,4.6-.3,10.6-1.3,15.8-2.9Z"/><path class="cls-18" d="M228.2,45.9s0,0,0,0c-.3,0-.6,0-.9.1.3,0,.6-.1.9-.1Z"/><path class="cls-29" d="M227,46.1s0,0,0,0c0,0,0,0,0,0h0Z"/><path class="cls-30" d="M222.8,65.1c1.2,3.4,4.1,12.3,4.9,15.3-.6,0-1.1.1-1.6.2-.6-2.5-3.6-11.6-4.9-15.4.5,0,1.1,0,1.6,0Z"/><path class="cls-54" d="M221.1,65.2c1.3,3.8,4.3,12.9,4.9,15.4-.7,0-1.3,0-1.7,0h0s-4.9-15.5-4.9-15.5c.5,0,1.1,0,1.7,0Z"/><path class="cls-30" d="M220.7,64c-.3,0-.5,0-.7,0-.3-1-.3-2.5-.3-2.5v-.3c.5,0,1,0,1.6,0,0,.5,0,2,.4,2.8h0c-.4.1-.7.1-1,.1Z"/><path class="cls-57" d="M222.4,64.2v-.2c-.3,0-.5,0-.7,0-.4,0-.7,0-1,0-.3,0-.5,0-.7,0-.4,0-.7,0-1,0l.4,1.2c.5,0,1.1,0,1.7,0,.5,0,1.1,0,1.6,0-.1-.4-.3-.7-.3-1Z"/><path class="cls-54" d="M219,64c-.6,0-.9-.2-.9-.3h0s-.9-2.6-.9-2.6c.2.1,1.1.2,2.5.2v.3s0,1.5.3,2.5c-.4,0-.7,0-1,0Z"/><path class="cls-12" d="M239.6,56.5c1.8-.2,2.9-.2,3,0s-.9.6-2.6,1.2"/><path class="cls-12" d="M237.7,58.4c-2,.6-4.6,1.2-7.4,1.6s-6.6,1-9,1.1c-.6,0-1.1,0-1.6,0-1.4,0-2.3,0-2.5-.2,0,0,0,0,0,0,0-.2,1.3-.7,3.6-1.2,2.3-.6,5.4-1.2,8.9-1.8s5.4-.9,7.5-1.2"/><path class="cls-12" d="M241.7,60c-.6.3-1.3.5-2.3.9-.3,0-.6.2-.9.3-2.1.6-4.9,1.3-7.9,1.8s-6,.9-8.2,1c-.2,0-.5,0-.7,0-.4,0-.7,0-1,0-.3,0-.5,0-.7,0-.4,0-.7,0-1,0-.6,0-.9-.2-.9-.3"/><path class="cls-12" d="M242.6,59.4c0,.2-.3.4-.9.7"/><path class="cls-12" d="M242.6,77.4s0,0,0,0c-.3.3-1.6.6-3.4,1-3.3.7-8.1,1.6-11.5,2-.6,0-1.1.1-1.6.2-.7,0-1.3,0-1.7,0"/><polyline class="cls-12" points="217.2 61 217.2 61 218.2 63.7"/><line class="cls-12" x1="242.6" y1="56.5" x2="242.6" y2="59.3"/><polyline class="cls-12" points="224.3 80.7 224.3 80.6 219.4 65.2 219 64 219 63.9"/><polyline class="cls-12" points="242.6 77.4 241.7 61.2 241.7 60 241.7 60 241.7 59.9"/><path class="cls-3" d="M227.5,46.2c-6.2,3.4-5.4,13.2-5.4,13.2l-.9.2h-.4c0,.1-.7.3-.7.3,0,0-1-11.9,6.8-13.8.2,0,.4,0,.6.1Z"/><path class="cls-12" d="M227.1,46c.4,0,.7-.1,1.1-.2,0,0,0,0,0,0"/><path class="cls-12" d="M227.1,46c0,0,.1,0,.2,0,.3,0,.6,0,.9-.1,6.9-.6,10.3,6.8,11.4,10.6.1.5.3.9.3,1.2,0,.2,0,.3,0,.5.2,1.2-.2,1.9-.7,2.1-.6.2-1.3-.2-1.5-1.5s0-.3,0-.4c0-.4-.3-1-.5-1.6-1.2-3.5-4.2-9.2-9.7-10.6"/><path class="cls-12" d="M226.9,46.1s0,0,0,0h0s0,0,0,0"/><path class="cls-12" d="M239.2,58.4c.2,0,.3.3.4.5s0,.5-.3.7c0,0,0,0-.1,0-.3,0-.6-.2-.6-.5s.1-.7.4-.7.2,0,.2,0Z"/><path class="cls-39" d="M201,74c-.2-4.3-2.8-8.9-5.2-13.5-3.6-6.2-7.7-13.9-14.2-21.6-.2-.2-.3-.4-.5-.7-.4-.6-.8-1.3-1.2-2.1-1-2-2.2-4.5-3-6.6-.6-1.5-1.1-2.8-1.2-3.6-.3-1.5,0-3.2,0-4.7,0-1-.2-1.9-.4-2.8-.8-3.1-2.8-5.6-5.4-8.2-.2.2-.3.4-.5.6-1.8,2.3-2.9,4.7-3,7.4h0c0,0-1.8.4-3,.8h0c-2-2.6-6.9-5.6-8.5-5.8-.7-.1-1.6-.5-2.6.2,1.5,1.9,2.1,2.4,2.4,4.7.3,2.4.9,4.9,2.6,6.6h0c-.1.3-.2.6-.3.9-.5,1.5-.6,3.1,0,4.6.2.8.6,1.5.5,2.3,0,.1,0,.2,0,.3-.2.8-.8,1.3-1.4,1.9,0,0,0,0,0,0,0,0,0,0-.1,0,0,0,0,0,0,0-.3.3-.6.6-.8,1-.1.2-.2.5-.2.7,0,.4,0,.8,0,1.2,0,.2.1.4.2.6.1.2.2.4.4.7.4.5.9.9,1.4,1.2.5.3.9.5,1.5.6,0,.2,0,.5,0,.7,0,1.1.3,2.3.5,2.8.3.9.8,1.4,2.5,1.2,1-.1,1.8-.7,1.8-1.6,0-.3-.1-1.3,0-2.3h0c.7-.1.8-.2,2.1-.7,0,0-.2.2-.3.2.2.3.4.7.5,1.1.2.6.3,1.3.5,2.1.7,4.7,0,12,.7,15.9.6,3.4,1.4,6.3,2.4,9.9,1.8,5,1.4,6.5,3.2,11.5.4,1.2.9,2.5.5,3.8-.3,1-2.8,1.8-2.2,3.6.3.9.9,1.2,1.7,1.2.9,0,2-.3,3.1-.5.7-.1,1.2-.3,1.6-.6h0c1.8,0,3.6-.3,5.4-.8.3,0,.6-.2.8-.4.1-.2.2-.4.2-.6,1.9.3,3.7.1,5.3-.3.2.2.8.2,1.6.2,0,0,0,0,0,0,0,0,0,.1,0,.2.3-.1.6-.2,1-.3,1.2-.2,2.7-.5,3.8-.9,0,0,0,0,0,0,.7-.2,1.5-.3,2.2-.5,1-.2,2-.4,2.6-.6.1,0,.2-.1.3-.2.1,0,.3,0,.4-.1,1.1-.4,2.4-.8,3-1.9.7-1.4,0-3-.7-4.4-.7-1.3-1.2-2.9-1.9-4.2"/><path class="cls-42" d="M176.8,29.6c-.6-1.5-1.1-2.8-1.2-3.6-.3-1.5,0-3.2,0-4.7,0-1-.2-1.9-.4-2.8-.8-3.1-2.8-5.6-5.4-8.2-.2.2-.3.4-.5.6-1.8,2.3-2.9,4.7-3,7.4h0c0,0-1.8.4-3,.8h0c-2-2.6-6.9-5.6-8.5-5.8-.7-.1-1.6-.5-2.6.2,1.5,1.9,2.1,2.4,2.4,4.7.3,2.4.9,4.9,2.6,6.6h0c-.1.3-.2.6-.3.9-.5,1.5-.6,3.1,0,4.6.2.8.6,1.5.5,2.3,0,.1,0,.2,0,.3-.2.8-.8,1.3-1.4,1.9,1.4-1.3,4.6-.9,6.6.4.2.2.5.3.7.5.4.3.8.5,1.3.5.6,0,1.2-.4,1.7-.7.3-.2.7-.5,1-.7.3-.2.7-.5,1-.7.5-.3,1.6-1.3,2.3-1.3.8,0,.8,1.4.9,2.1,0,.7-.2,1.5-.6,2.2-.1.2-.2.4-.4.6-.4.2-.9.5-1.3.8-1.1.8-1.8,1.3-3,1.8-.2,0-.3.2-.5.3-.2,0-.4.2-.5.2,0,0-.2.2-.3.2.2.3.4.7.5,1.1h0c.4.2.9.3,1.4.3,2.3.1,5.8-1,6.6-1.4,0,0,0,0,0,0,2.5-1.1,5.2-2.2,6.3-4.9h0c-1-2-2.2-4.5-3-6.6Z"/><path class="cls-40" d="M169.9,10.2c2.6,2.6,4.6,5.1,5.4,8.2,0,1.2-.2,2.5-.3,3.9,0,.3,0,.5-.2.7-.3.4,0,.3-.6.2-.9-.1-1.9-.3-2.6-.9-.2-1.3-1.8-4-2.4-4.7-.9-1.1-1.1-1.6-1.2-3,0-1.4.4-2.3,1.4-3.8h0c.2-.2.3-.4.5-.7Z"/><path class="cls-33" d="M165,24.9c-1.8.1-1.9,1.7-2.1,2.9-.2,1.1-.3,2.4.6,3.2.8.8,1.3,1.1,2.3.4s2.4-2.2,2.6-3.3c0-.4,1.4-2.1,1.2-2.6-.5-1.1-2.6-.9-4.5-.7Z"/><path class="cls-40" d="M158.7,16.7c1,1.1,1.6,1.8,2.2,4-1.6.9-2.9,2.3-3.6,3.9h0c-1.7-1.8-2.3-4.2-2.6-6.6-.3-2.4-.9-2.8-2.4-4.7,2.5-.1,5,1.9,6.4,3.4Z"/><path class="cls-33" d="M159.6,25c-.1-.1-1.6.1-1.8.2-.2,0-.5.2-.8.3-.5,1.5-.6,3.1,0,4.6.2.8.6,1.5.5,2.3.3-.4.6-.9,1-1.3.6-.6.7-.1,1-.9.4-.9.5-5,.2-5.3Z"/><path class="cls-42" d="M201,74v.2c0,.9-.4,2.1.2,4.8h0c-.6,1.4-2,2.3-3.4,2.9-1.2.5-2.6.2-3.8.7-.2,0-.3.1-.5.2,0,0-.1,0-.2.1-1.3.9-3.1,2.6-3.1,4.1h0c-.8,0-1.5,0-1.6-.2-.9-1.2-.3-1.8.3-2.6,0,0,.1,0,.2,0,.1,0,.1-.2.1-.5.2-.5.3-1,.1-1.7-1.3-4.1-2.7-9.5-3.9-13.9-.4-1.7-.9-3.3-1.2-4.6,0-.2,0-.3-.1-.5-1.6-1.4-3.5-6.2-4.4-9.9-.6-2.7-3.4-4.5-4.4-5.5-.7-.6-1.2-2.1-1.5-3.8,1.1-.5,2.2-1,3-1.5,2.4-1.5,3.2-2.3,4.2-4.1.2.3.4.5.5.7,6.5,7.6,10.6,15.3,14.2,21.6,2.4,4.6,5,9.2,5.2,13.5Z"/><path class="cls-42" d="M191.9,86.7c1-.3,2-.5,3.1-.8,0,0,0,0,0,0-1.2.4-2.6.7-3.8.9.2,0,.5-.1.7-.2Z"/><path class="cls-42" d="M197.2,85.4c1-.2,2-.5,2.9-.8-.1,0-.2.2-.3.2-.6.2-1.6.4-2.6.6Z"/><path class="cls-44" d="M173.9,68.7c-.8-2.2-1.7-4-3.6-7.6,3.9,3.9,9.3,6.4,14.8,7,1.4,5.3,3.9,13.5,4,15.7,0,.2-.2.4-.3.5-3.1.2-5.8-1.1-7.9-2.8-2.6-2.2-4.3-4.9-4.7-6.1-1-3.1-1.6-5-2.2-6.6Z"/><path class="cls-42" d="M189.2,83.8c0,.3,0,.5-.1.5,0,0-.1,0-.2,0,.1-.2.2-.3.3-.5Z"/><path class="cls-37" d="M164.9,26.5c.5,0,1,.6,1.1,1.6.2,1,0,1.8-.5,1.9-.5,0-1-.6-1.1-1.6-.2-1,0-1.8.5-1.9Z"/><path class="cls-61" d="M184.2,63.5c0-.2,0-.3-.1-.5-1.6-1.4-3.5-6.2-4.4-9.9-.6-2.7-3.4-4.5-4.4-5.5-.7-.6-1.2-2.1-1.5-3.8-1.3.5-2.7.9-4.1,1-.2,0-.5,0-.7,0-.6,0-1.2,0-1.8-.2.2,1.3.3,2.5.4,3.6.2,2.8,0,4.8.2,6.6,0,1.3.7,3,1.4,4.1.4.8.8,1.5,1.1,2.1,3.9,3.9,9.3,6.4,14.8,7-.6-2.3-1-4-.9-4.6Z"/><path class="cls-61" d="M175,33.7c-.4.8-.9,1.5-1.5,2-.9.8-2,1.3-3,1.9.1-.2.2-.4.4-.6.4-.7.7-1.4.6-2.2,0-.7-.1-2.1-.9-2.1-.6,0-1.7.9-2.3,1.3-.3.2-.7.5-1,.7-.3.2-.7.5-1,.7-.5.3-1.1.7-1.7.7-.5,0-.9-.2-1.3-.5,1.8-2.1,4.1-4.1,5.5-6.2.9-1.4,2.2-2.2,3.9-2.3,1.8-.1,3.5,1,4,2.5.2.4.2.9.2,1.3,0,1-.5,1.9-1.1,2.8h-.8Z"/><path class="cls-44" d="M175,33.7c-.4.8-.9,1.5-1.5,2-.9.8-2,1.3-3,1.9-.4.2-.9.5-1.3.8-1.1.8-1.8,1.3-3,1.8-.2,0-.3.2-.5.3-.2,0-.4.2-.5.2,0,0-.2.2-.3.2.2.3.4.7.5,1.1h0c.4.2.9.3,1.4.3,2.3.1,5.8-1,6.6-1.4,0,0,0,0,0,0,0-1.7,0-3.3.4-4.2.4-1.1,1.2-2.1,1.9-3.1h-.8Z"/><path class="cls-31" d="M179.8,36.1h0c-1.1,2.7-3.8,3.8-6.3,4.9,0,0,0,0,0,0-.7.3-4.3,1.5-6.6,1.4-.6,0-1-.1-1.4-.4h0c.2.6.3,1.3.5,2.1h0c.4.2.9.4,1.4.5.6.1,1.2.2,1.8.2.2,0,.5,0,.7,0,1.4-.1,2.8-.5,4.1-1,1.1-.4,2.2-1,3-1.5,2.4-1.5,3.2-2.3,4.2-4.1-.4-.6-.8-1.3-1.2-2.1Z"/><path class="cls-51" d="M188.8,84.3c-3.1.2-5.8-1.1-7.9-2.8-2.6-2.2-4.3-4.9-4.7-6.1-1-3.1-1.6-5-2.2-6.6-.8-2.2-1.7-4-3.6-7.6-.3-.6-.7-1.3-1.1-2.1-.6-1.2-1.3-2.8-1.4-4.1-.1-1.8,0-3.8-.2-6.6,0-1.1-.2-2.2-.4-3.6-.5-.1-.9-.3-1.4-.5h0c.7,4.7,0,12,.7,15.9.6,3.4,1.4,6.3,2.4,9.9,1.8,5,1.4,6.5,3.2,11.5.4,1.2.9,2.5.5,3.8-.3,1-2.8,1.8-2.2,3.6.3.9.9,1.2,1.7,1.2.9,0,2-.3,3.1-.5.7-.1,1.2-.3,1.6-.6h0c1.8,0,3.6-.3,5.4-.8.3,0,.6-.2.8-.4.1-.2.2-.4.2-.6,1.9.3,3.7.1,5.3-.3-.9-1.2-.3-1.8.3-2.6Z"/><path class="cls-47" d="M163.5,40c-.5.3-1,.6-1.5.7-1.2.4-2.6.4-3.9,0,0,.2,0,.5,0,.7,0,1.1.3,2.3.5,2.8.3.9.8,1.4,2.5,1.2,1-.1,1.8-.7,1.8-1.6,0-.3-.1-1.3,0-2.3,0-.2,0-.4.1-.6,0-.3.2-.6.4-.9h0Z"/><path class="cls-37" d="M157.7,26.9c.4,0,.9.6,1.1,1.5.2.9,0,1.7-.5,1.8-.4,0-.9-.6-1.1-1.5-.2-.9,0-1.7.5-1.8Z"/><path class="cls-55" d="M155.9,34.7s0,0-.1,0c0,0,0,0,.1,0Z"/><path class="cls-55" d="M170.5,32.7c-.6,0-1.7.9-2.3,1.3-.3.2-.7.5-1,.7-.3.2-.7.5-1,.7-.5.3-1.1.7-1.7.7-.5,0-.9-.2-1.3-.5-.3-.2-.5-.3-.7-.5-2-1.3-5.1-1.7-6.6-.4,0,0,0,0,0,0,0,0,0,0-.1,0,0,0,0,0,0,0-.3.3-.6.6-.8,1-.1.2-.2.5-.2.7,0,.4,0,.8,0,1.2,0,.2.1.4.2.6.1.2.2.4.4.7.4.5.9.9,1.4,1.2.5.3.9.5,1.5.6,1.2.4,2.6.5,3.9,0,.5-.2,1-.4,1.5-.7h0c-.2.3-.3.6-.4.9,0,.2,0,.4-.1.6h0c.7-.1.8-.2,2.1-.7.2,0,.3-.1.5-.2.2,0,.4-.2.5-.3,1.1-.5,1.8-1.1,3-1.8.4-.3.8-.5,1.3-.8.1-.2.2-.4.4-.6.4-.7.7-1.4.6-2.2,0-.7-.1-2.1-.9-2.1Z"/><path class="cls-36" d="M158.9,36.4c-.3-.3-.7-.4-1.2-.4-1.1,0-2,0-3,.4,0,.4,0,.8,0,1.2,0,.2.1.4.2.6.1.2.2.4.4.7.4.5.9.9,1.4,1.2.7-.2,1.9-1.2,2.2-1.6.1-.2.2-.5.2-.8,0-.5,0-1-.2-1.3Z"/><path class="cls-37" d="M156.8,38.3c0,.2,0,.5,0,.7-.2-.1-.4-.4-.5-.6.1,0,.3,0,.4,0Z"/><path class="cls-37" d="M156,37.7c.2.2.3.4.4.7-.3,0-.5,0-.8,0-.2,0-.4,0-.6-.1,0,0,0,0,0,0,0-.2-.2-.4-.2-.6,0-.2.3-.3.6-.3.3,0,.5.2.7.3Z"/><path class="cls-37" d="M157.5,37.1c.4,0,.8.2.8.5-.5.3-1,.6-1.5.7,0-.1,0-.3,0-.4,0-.4.3-.7.7-.8Z"/><path class="cls-32" d="M163.1,40.9c0-.3.2-.6.4-.9h0c1.5-.9,3.1-2.4,4-3.4-.3,1.5-1.2,3-2.4,4.1-1.3.6-1.4.6-2.1.7h0c0-.2,0-.4.1-.6Z"/><path class="cls-34" d="M179.8,36.1c.4.8.8,1.5,1.2,2.1-1,1.8-1.8,2.6-4.2,4.1-.9.5-1.9,1.1-3,1.5-.2-.9-.3-1.9-.3-2.8,2.5-1.1,5.2-2.2,6.3-4.9h0Z"/><path class="cls-28" d="M169.7,46.1c1-.2,2,.6,2.2,1.6.2,1.1-.5,2.1-1.5,2.3-1,.2-2-.6-2.2-1.6,0,0,0-.1,0-.2,0-1,.5-1.8,1.3-2.1s.1,0,.2,0Z"/><path class="cls-28" d="M169.8,44.8c0,.3.2.8.2,1-.2,0-.3.1-.5.2,0,0,0,0-.1,0,0-.3-.2-.8-.3-1.1.2,0,.5,0,.7,0Z"/><path class="cls-49" d="M194,82.6c-.2,0-.3.1-.5.2,0,0-.1,0-.2.1-.3-.3-.6-.7-.7-1.5-.6-3.2-1.1-8.1-1.8-13.1.7.3,1.5.6,2.2.9.2,1.8.6,4.1,1.3,6,2.1,5.4,0,5.8-.4,7.4Z"/><path class="cls-49" d="M170.3,61.1c2,3.7,2.8,5.4,3.6,7.6,1.8,7,1.5,10.5,3.7,18.2.1.8,0,1.5-.8,2-.4.3-.9.5-1.6.6-1,.2-2.2.5-3.1.5-.8,0-1.4-.3-1.7-1.2-.6-1.8,1.8-2.5,2.2-3.6.4-1.2,0-2.5-.5-3.8-1.8-5-1.4-6.5-3.2-11.5-1-3.6-1.8-6.5-2.4-9.9-.7-4,0-11.3-.7-15.9h0c.4.2.9.4,1.4.5.2,1.3.3,2.5.4,3.6.2,2.8,0,4.8.2,6.6,0,1.3.7,3,1.4,4.1.4.8.8,1.5,1.1,2.1Z"/><path class="cls-53" d="M163.5,40h0c-.2.3-.3.6-.4.9-1,.3-1.7.5-2.2,1-.5.4-.3,2.5-.5,2.5-1,.3-.7-1.2-1.6-2.4-.2-.2-.4-.4-.7-.5,0-.3,0-.5,0-.7,1.2.4,2.6.5,3.9,0,.5-.2,1-.4,1.5-.7Z"/><path class="cls-4" d="M160.9,20.7c-1.6.9-2.9,2.3-3.6,3.9-.1.3-.2.6-.3.9-.5,1.5-.6,3.1,0,4.6.2.8.6,1.5.5,2.3,0,.1,0,.2,0,.3-.2.8-.8,1.3-1.4,1.9l-.2.2c-.3.3-.6.6-.8,1-.1.2-.2.5-.2.7,0,.4,0,.8,0,1.2,0,.2.1.4.2.6.1.2.2.4.4.7.4.5.9.9,1.4,1.2.5.3.9.5,1.5.6,1.2.4,2.6.5,3.9,0,.5-.2,1-.4,1.5-.7,1.5-.9,3.1-2.4,4-3.4.6-.6,1-1.1,1-1.1"/><path class="cls-4" d="M169.4,10.8c.2-.2.3-.4.5-.6,2.6,2.6,4.6,5.1,5.4,8.2.2.9.4,1.8.4,2.8,0,1.6-.3,3.2,0,4.7.2.8.6,2.1,1.2,3.6.8,2.1,2,4.6,3,6.6.4.8.8,1.5,1.2,2.1.2.3.4.5.5.7,6.5,7.6,10.6,15.3,14.2,21.6"/><path class="cls-4" d="M166.5,20.7c-.1-.9-.2-1.7-.1-2.5"/><path class="cls-4" d="M157.3,24.6c-1.7-1.8-2.3-4.2-2.6-6.6-.3-2.4-.9-2.8-2.4-4.7,2.5-.1,5,1.9,6.4,3.4,1,1.1,1.6,1.8,2.2,4"/><path class="cls-4" d="M175.6,31.3c0,.8-.2,1.7-.6,2.4-.4.8-.9,1.5-1.5,2-.9.8-2,1.3-3,1.9-.4.2-.9.5-1.3.8-1.1.8-1.8,1.3-3,1.8-.2,0-.3.2-.5.3-.2,0-.4.2-.5.2-1.3.6-1.4.6-2.1.7"/><path class="cls-4" d="M162.5,19.2c.2,0,.5-.2.8-.3,1.3-.4,2.9-.8,3-.8h0c.1-2.7,1.3-5,3-7.4"/><path class="cls-4" d="M154.7,36.5c1-.4,1.9-.5,3-.4.4,0,.9.1,1.2.4.2.2.3.8.2,1.3,0,.3,0,.6-.2.8-.3.4-1.5,1.4-2.2,1.6"/><path class="cls-4" d="M164.9,40.9s0,0,0,0c.2.3.4.7.5,1.1.2.6.3,1.3.5,2.1.7,4.7,0,12,.7,15.9.6,3.4,1.4,6.3,2.4,9.9"/><path class="cls-4" d="M184.1,63c0,0,.2.1.3.2"/><path class="cls-4" d="M163.3,18.9c-2-2.6-6.9-5.6-8.5-5.8-.7-.1-1.6-.5-2.6.2"/><path class="cls-4" d="M171.5,22.8c0-.1,0-.3,0-.5-.2-1.3-1.8-4-2.4-4.7-.9-1.1-1.1-1.6-1.2-3,0-1.4.4-2.3,1.4-3.8"/><path class="cls-4" d="M166,28.1c.2,1,0,1.8-.5,1.9-.5,0-1-.6-1.1-1.6-.2-1,0-1.8.5-1.9.5,0,1,.6,1.1,1.6Z"/><path class="cls-4" d="M157.2,28.7c.2.9.7,1.6,1.1,1.5.4,0,.7-.9.5-1.8-.2-.9-.7-1.6-1.1-1.5-.4,0-.7.9-.5,1.8Z"/><path class="cls-4" d="M179.8,36.2c-1.1,2.7-3.8,3.7-6.3,4.9,0,0,0,0,0,0-.7.3-4.3,1.5-6.6,1.4-.6,0-1-.1-1.4-.4"/><path class="cls-4" d="M165.9,44.2c.4.2.9.4,1.4.5.6.1,1.2.2,1.8.2.2,0,.5,0,.7,0,1.4-.1,2.8-.5,4.1-1,1.1-.4,2.2-1,3-1.5,2.4-1.5,3.2-2.3,4.2-4.1,0,0,0,0,0-.1"/><path class="cls-4" d="M163.5,40c-.2.3-.3.6-.4.9,0,.2,0,.4-.1.6-.2,1,0,2,0,2.3,0,.9-.8,1.5-1.8,1.6-1.7.2-2.1-.3-2.5-1.2-.2-.5-.5-2.2-.6-3.3"/><path class="cls-4" d="M169,44.7c0,0,0,.1,0,.2,0,.4.2.8.3,1.1,0,0,0,0,.1,0,.2,0,.3,0,.5-.2,0-.2-.1-.7-.2-1,0,0,0-.1,0-.2"/><path class="cls-4" d="M164.9,40.9c-.3.3-.7.5-1,.7"/><path class="cls-4" d="M169,70c1.8,5,1.4,6.5,3.2,11.5.4,1.2.9,2.5.5,3.8-.3,1-2.8,1.8-2.2,3.6.3.9.9,1.2,1.7,1.2.9,0,2-.3,3.1-.5.7-.1,1.2-.3,1.6-.6.7-.5.9-1.2.8-2-2.2-7.7-1.9-11.2-3.7-18.2-.2-.6-.3-1.3-.6-2"/><path class="cls-4" d="M188.2,55c1.1,3.3,1.9,8.3,2.6,13.3.7,5,1.3,9.9,1.8,13.1s.4,1.3.7,1.5"/><path class="cls-4" d="M195,86s0,0,0,0c-1.2.4-2.6.7-3.8.9"/><path class="cls-4" d="M190.2,87h0c-.8,0-1.5,0-1.6-.2-.9-1.2-.3-1.8.3-2.6.1-.2.2-.3.3-.5.2-.5.3-1,.1-1.7-1.3-4.1-2.7-9.5-3.9-13.9-.4-1.7-.9-3.3-1.2-4.6,0-.2,0-.3-.1-.5,0-.3-.2-.7-.3-1"/><path class="cls-4" d="M195,85.7h0"/><path class="cls-4" d="M197.2,85.4c1-.2,2-.4,2.6-.6s.2-.1.3-.2"/><path class="cls-4" d="M195.8,60.5c2.4,4.6,5,9.2,5.2,13.5"/><path class="cls-4" d="M183.1,87.1c0,0,.1,0,.2,0,1.9.3,3.7.1,5.3-.3"/><path class="cls-4" d="M193,66.3c-.2-1.1-.3.5,0,2.9.2,1.8.6,4.1,1.3,6,2.1,5.4,0,5.8-.4,7.4"/><path class="cls-4" d="M169.5,46.1c0,0,.1,0,.2,0,1-.2,2,.6,2.2,1.6.2,1.1-.5,2.1-1.5,2.3-1,.2-2-.6-2.2-1.6,0,0,0-.1,0-.2,0-1,.5-1.8,1.3-2.1Z"/><path class="cls-4" d="M172.4,88c-.5.6-.5,1.4-.2,2,0,0,0,0,0,.1"/><path class="cls-4" d="M190.2,85.5c-.2.5-.2,1.1,0,1.6,0,0,0,0,0,0"/><path class="cls-4" d="M191.5,85.3c.1.5.2.9.4,1.4"/><path class="cls-4" d="M180.7,81.6c.3.6.9,1,1.3,1.5.8.9,1,2.1,1.2,3.3,0,.2,0,.5,0,.7,0,.2,0,.4-.2.6-.2.2-.5.3-.8.4-1.7.5-3.5.8-5.4.9"/><path class="cls-10" d="M203.5,82.6c-.6,1.1-1.8,1.5-3,1.9-.1,0-.3,0-.4.1-.9.3-1.9.5-2.9.8-.7.2-1.5.3-2.2.5-1.1.2-2.1.5-3.1.8-.3,0-.5.1-.7.2-.3,0-.7,0-1,.1,0-1.4,1.9-3.2,3.1-4.1,0,0,.1,0,.2-.1.2,0,.3-.2.5-.2,1.2-.5,2.5-.2,3.8-.7,1.4-.6,2.8-1.5,3.4-2.9h0c-.6-2.7-.2-3.9-.2-4.9v-.2c.7,1.3,1.2,2.9,1.9,4.2.7,1.4,1.4,3,.7,4.4Z"/><path class="cls-5" d="M191.2,86.9c-.3,0-.7.2-1,.3,0,0,0,0,0-.1h0s0,0,0,0c.3,0,.6,0,1-.1Z"/></g></svg>