<?xml version="1.0" encoding="UTF-8"?><svg id="a" xmlns="http://www.w3.org/2000/svg" width="548" height="374" xmlns:xlink="http://www.w3.org/1999/xlink" viewBox="0 0 548 374"><defs><style>.ay{opacity:.6;stroke:#fff;}.ay,.az,.ba,.bb,.bc,.bd,.be,.bf,.bg,.bh{stroke-width:.9px;}.ay,.bg{fill:#fff;}.bi,.bj,.bk{opacity:.7;}.bi,.bl,.bm,.bn,.bo,.bp,.bq,.br,.bs,.bt,.bu,.bv,.bw,.bx,.by,.bk{stroke-width:0px;}.bj{stroke-linecap:round;stroke-width:10px;}.bj,.az,.bz,.ca,.cb,.cc,.ba,.bc,.bd,.be,.bf,.bg{stroke:#000;}.bj,.az,.cc{fill:none;}.cd{font-size:19.9px;stroke-width:.9px;}.cd,.ce{font-family:ComicSansMS-Bold, 'Comic Sans MS';font-weight:700;}.cd,.cf,.bb,.bh{stroke:#231f20;}.cd,.bd{fill:#008ed3;}.bl{fill:url(#aw);opacity:.8;}.bl,.bm,.bn,.bo,.bp{isolation:isolate;}.bz{fill:#b3b3b3;stroke-width:.5px;}.bz,.ca,.cb{stroke-miterlimit:10;}.ca,.ce,.bk{fill:#ff0;}.cb{fill:#e6c29e;}.ce{font-size:48px;opacity:.8;}.cf{stroke-width:.6px;}.cf,.bt{fill:#8c8c8c;}.bm{fill:url(#au);opacity:.7;}.cc{stroke-width:2.8px;}.bn{fill:url(#af);}.bn,.bo,.bp{opacity:.7;}.bo{fill:url(#ah);}.bp{fill:url(#aj);}.ba{fill:#f89a1c;}.bb{fill:#49494a;}.bc{fill:#838080;}.be{fill:#8bc53f;}.bf{fill:#fff100;}.bh{fill:#ebb94a;}.br{fill:#967348;}.bs{fill:#a3ce58;}.bu{fill:#edeeec;}.bv{fill:url(#ad);}.bw{fill:url(#an);}.bx{fill:url(#ar);}.by{fill:url(#b);}</style><linearGradient id="b" x1="274" y1="0" x2="274" y2="374" gradientUnits="userSpaceOnUse"><stop offset="0" stop-color="#69cbee"/><stop offset="1" stop-color="#d0ecfa"/></linearGradient><linearGradient id="ad" x1="672.5" y1="19.1" x2="742.6" y2="19.1" gradientTransform="translate(-517.2 204.2) scale(.9 -.9)" gradientUnits="userSpaceOnUse"><stop offset="0" stop-color="#9bbeaa"/><stop offset=".6" stop-color="#555d5d"/><stop offset=".7" stop-color="#575f5f"/><stop offset=".8" stop-color="#5f6666"/><stop offset=".8" stop-color="#6c7273"/><stop offset=".9" stop-color="#7f8484"/><stop offset="1" stop-color="#989b9b"/><stop offset="1" stop-color="#b6b6b7"/><stop offset="1" stop-color="#b9b9ba"/></linearGradient><linearGradient id="af" x1="540.8" y1="-67.3" x2="542.7" y2="-78" gradientTransform="translate(-399.8 80.7) scale(1 -1)" gradientUnits="userSpaceOnUse"><stop offset="0" stop-color="#edeeec"/><stop offset="1" stop-color="#edeeec"/></linearGradient><linearGradient id="ah" x1="232.3" y1="-63" x2="233.7" y2="-66.2" gradientTransform="translate(-132.8 60.7) scale(1 -1)" xlink:href="#af"/><linearGradient id="aj" x1="34.4" y1="-94.2" x2="35.7" y2="-97.5" gradientTransform="translate(142.6 17.2) scale(1 -1)" xlink:href="#af"/><linearGradient id="an" x1="416" y1="-41.4" x2="417.9" y2="-48.2" gradientTransform="translate(-232.5 145.9) scale(1 -1)" gradientUnits="userSpaceOnUse"><stop offset="0" stop-color="#cdcdcb"/><stop offset="1" stop-color="#cdcdcb"/></linearGradient><linearGradient id="ar" x1="416" y1="-84.9" x2="417.9" y2="-91.6" gradientTransform="translate(-232.5 85.4) scale(1 -1)" xlink:href="#an"/><linearGradient id="au" x1="428.5" y1="-234.6" x2="435.6" y2="-247.6" gradientTransform="translate(-247.8 -26.3) scale(1 -1)" gradientUnits="userSpaceOnUse"><stop offset="0" stop-color="#cecdcb"/><stop offset="1" stop-color="#cecdcb"/></linearGradient><linearGradient id="aw" x1="-524.3" y1="1472" x2="-517.8" y2="1464" gradientTransform="translate(-328.8 -1242.3) rotate(-180) scale(1 -1)" gradientUnits="userSpaceOnUse"><stop offset="0" stop-color="#2e2e2c"/><stop offset="1" stop-color="#888985"/></linearGradient></defs><rect class="by" width="548" height="374"/><polygon class="ca" points="363.5 373.5 342 373.5 276.2 245.1 209.4 373.5 189.7 373.5 269.2 221.6 283.2 221.6 363.5 373.5"/><circle class="bz" cx="276.2" cy="229.6" r="7.6" transform="translate(-81.5 262.6) rotate(-45)"/><path class="bq" d="m276,227.1c1.3,0,2.3,1,2.3,2.3s-1,2.3-2.3,2.3-2.3-1-2.3-2.3,1-2.3,2.3-2.3Z"/><rect class="cb" x="30.1" y="237.7" width="493" height="12.2"/><circle class="bk" cx="284" cy="92.5" r="83.1" transform="translate(17.7 227.9) rotate(-45)"/><path class="bj" d="m246.4,115.8s9.6,25.5,40.8,25.5,39.8-25.5,39.8-25.5"/><path class="bi" d="m269.2,63c0,5.7-4.6,10.3-10.3,10.3s-10.3-4.6-10.3-10.3,4.6-10.3,10.3-10.3,10.3,4.6,10.3,10.3Z"/><path class="bi" d="m329,63c0,5.7-4.6,10.3-10.3,10.3s-10.3-4.6-10.3-10.3,4.6-10.3,10.3-10.3,10.3,4.6,10.3,10.3Z"/><text class="ce" transform="translate(372.3 64)"><tspan x="0" y="0">+2</tspan></text><rect id="c" class="bh" x="79.7" y="157.4" width="121.6" height="79.8" rx="5.7" ry="5.7"/><rect id="d" class="bb" x="88.2" y="164.7" width="79.9" height="62.3" rx="5.8" ry="5.8"/><path id="e" class="bt" d="m178.2,205.5h15.1c1.3,0,2.3,1,2.3,2.3v19.1c0,1.3-1,2.3-2.3,2.3h-15.1c-1.3,0-2.3-1-2.3-2.3v-19.1c0-1.3,1-2.3,2.3-2.3Z"/><path id="f" class="bq" d="m177.8,110.6c-1.6,0-3,1.3-3,3s0,.8.2,1.2l-29.6,31.3c-.6,0-1.3,0-1.9,0-3.3,0-6.5.4-9.4,1.2l-30.9-20.6c0-.2.1-.5.1-.7,0-1.6-1.3-3-3-3s-3,1.3-3,3,1.3,3,3,3,1.2-.2,1.7-.6l29.6,19.7c-5.7,2-9.9,5.4-11.5,9.4h46.7c-2.2-5.6-9.6-10-18.9-11.1l28.5-30.1c.4.2.8.3,1.3.3,1.6,0,2.9-1.3,2.9-2.9s-1.3-3-2.9-3Z"/><path id="g" class="bq" d="m188.4,189.5h0c.5.4.5,1.2,0,1.6l-4.7,5.1c-.4.5-1.2.5-1.6,0h0c-.5-.4-.5-1.2,0-1.6l4.7-5.1c.4-.5,1.2-.5,1.6,0Z"/><path id="h" class="cc" d="m176,206.8h19.5"/><path id="i" class="cc" d="m176,227.9h19.5"/><path id="j" class="cc" d="m176,208.5h19.5"/><path id="k" class="cc" d="m176,210.3h19.5"/><path id="l" class="cc" d="m176,212.1h19.5"/><path id="m" class="cc" d="m176,213.8h19.5"/><path id="n" class="cc" d="m176,219.1h19.5"/><path id="o" class="cc" d="m176,222.6h19.5"/><path id="p" class="cc" d="m176,224.4h19.5"/><path id="q" class="cc" d="m176,215.6h19.5"/><path id="r" class="cc" d="m176,226.2h19.5"/><path id="s" class="cc" d="m176,217.3h19.5"/><path id="t" class="cc" d="m176,220.9h19.5"/><path id="u" class="bu" d="m184.5,165.7v2.4h.3v-.9c0-.2.2-.4.4-.4s.4,0,.4.4v.9h.3v-.9c0-.5-.3-.7-.7-.7s-.3,0-.4.2v-.9h-.3Zm2.3,0c-.3,0-.6.2-.6.6v1.8h.3v-1.3h.5v-.3h-.5v-.2c0-.2.1-.3.3-.3h.2v-.3h-.3Zm-4,.7l.6,1.5c0,.1.1.2.2.2s.2,0,.2-.2l.6-1.5h-.3l-.5,1.3-.5-1.3h-.3Z"/><path id="v" class="bu" d="m184.6,183.4v.3c0,0,.3,0,.3,0v2.1h.3v-2.4h-.7Z"/><path id="w" class="bu" d="m177.9,186.4l-.6.8c-.2.2-.3.4-.3.7,0,.5.4.8.8.8s.9-.4.9-.8-.3-.8-.8-.9l-.2.3c.4,0,.7.2.7.6s-.2.5-.5.5-.5-.2-.5-.5,0-.4.2-.6l.7-1h-.4Z"/><path id="x" class="bu" d="m177.4,196.4v1.2h.6c.4,0,.5.2.5.4s-.1.4-.4.4h-.8v.3h.9c.4,0,.7-.3.7-.7s-.3-.7-.9-.7h-.3v-.6h.9v-.3h-1.2Z"/><path id="y" class="bu" d="m184.3,200v.3h1l-.7.7v.2h.4c.4,0,.6.2.6.4s-.2.4-.5.4h-.8v.3h.9c.4,0,.7-.3.7-.7s-.3-.7-.8-.7l.3-.3c.2-.1.3-.2.3-.4s-.1-.3-.3-.3h-1Z"/><path id="z" class="bu" d="m192.7,196.6s0,0,0,0l-.3.5v1h-.7l.9-1.5h-.4l-.8,1.4c0,.1-.1.2-.1.2,0,.1,0,.2.2.2h.8v.5h.3v-.5h.4v-.3h-.4v-1.5s0,0,0,0Z"/><path id="aa" class="bu" d="m192.4,186.2c-.4,0-.8.3-.8.8s.2.6.5.7l.3-.2c-.2,0-.4-.2-.4-.4s.2-.5.5-.5.5.2.5.4-.1.4-.3.5l-.8.7c-.1.1-.2.2-.2.3s.1.2.3.2h1.3v-.3h-1.2s.7-.5.7-.5c.3-.2.5-.4.5-.8s-.3-.7-.8-.7Z"/><path id="ab" class="bu" d="m177.8,169.5v2.4h.3v-2.4h-.3Zm1.3,0c-.3,0-.6.2-.6.6v1.8h.3v-1.3h.5v-.3h-.5v-.2c0-.2.1-.3.3-.3h.2v-.3h-.3Zm-3.8.7v1.1c0,.3.2.6.6.6s.4,0,.5-.2c.1.2.3.2.5.2.3,0,.6-.3.6-.6v-1.1h-.3v1c0,.2-.1.3-.3.3s-.3-.1-.3-.4v-1h-.3v1c0,.3-.1.4-.3.4s-.3-.1-.3-.3v-1h-.3Z"/><path id="ac" class="bu" d="m192.4,169.2v2.4h.3v-.9c0-.2.2-.4.4-.4s.4,0,.4.4v.9h.3v-.9c0-.5-.3-.7-.7-.7s-.3,0-.4.2v-.9h-.3Zm2.3,0c-.3,0-.6.2-.6.6v1.8h.3v-1.3h.5v-.3h-.5v-.2c0-.2.1-.3.3-.3h.2v-.3h-.3Zm-4,.7v.9c0,.4.3.7.7.7s.7-.3.7-.7v-.9h-.3v.9c0,.2-.2.4-.4.4s-.4-.2-.4-.4v-.9h-.3Z"/><path id="ae" class="bv" d="m96.3,167.8h62.7c2.9,0,5.3,2.4,5.3,5.3v27c0,2.9-2.4,5.3-5.3,5.3,0,0,1.4-18.6-32.1-9-16.6,4.7-30.6,9-30.6,9-2.8.8-5.3-2.4-5.3-5.3v-27c0-2.9,2.4-5.3,5.3-5.3Z"/><path id="ag" class="bn" d="m142.3,147c-7.9,0-14.9,3.2-19.4,8.2,0,0,12.9-.4,20.9-2.6,5.1-2,17.8,2.6,17.8,2.6-4.5-5-11.5-8.2-19.4-8.2Z"/><path id="ai" class="bo" d="m102.8,125.8c0,1.4-1.1-1.2-2.5-.4-1.4.2-2.5,1.8-2.5.4s1.1-2.5,2.5-2.5,2.5,1.1,2.5,2.5Z"/><path id="ak" class="bp" d="m180.3,113.5c0,1.4-1.1-1.2-2.5-.4-1.4.2-2.5,1.8-2.5.4s1.1-2.5,2.5-2.5,2.5,1.1,2.5,2.5Z"/><g id="al"><path id="am" class="cf" d="m191.3,192.8c0,3.5-2.8,6.3-6.3,6.3s-6.3-2.8-6.3-6.3h0c0-3.5,2.8-6.3,6.3-6.3s6.3,2.8,6.3,6.3Z"/><path id="ao" class="bw" d="m190.4,192.7c0,3-.7-2.8-5.5-1-2.9,1.1-5.4,4.1-5.4,1s2.4-5.4,5.4-5.4,5.4,2.4,5.4,5.4Z"/><path id="ap" class="bq" d="m186.4,188.8h0c.6.2.9.9.7,1.5l-2.4,6.5c-.2.6-.9.9-1.5.7h0c-.6-.2-.9-.9-.7-1.5l2.4-6.5c.2-.6.9-.9,1.5-.7Z"/></g><path id="aq" class="cf" d="m191.3,175.8c0,3.5-2.8,6.3-6.3,6.3s-6.3-2.8-6.3-6.3h0c0-3.5,2.8-6.3,6.3-6.3s6.3,2.8,6.3,6.3Z"/><path id="as" class="bx" d="m190.4,175.7c0,3-.7-2.8-5.5-1-2.9,1.1-5.4,4.1-5.4,1s2.4-5.4,5.4-5.4,5.4,2.4,5.4,5.4Z"/><path id="at" class="bq" d="m184.8,171.5h0c.6,0,1.2.5,1.2,1.2v6.9c0,.6-.5,1.2-1.2,1.2h0c-.6,0-1.2-.5-1.2-1.2v-6.9c0-.6.5-1.2,1.2-1.2Z"/><path id="av" class="bm" d="m178.8,206h13.5c1.2,0,2.2,1,2.2,2.2v18.1c0,1.2-1,2.2-2.2,2.2h-13.5c-1.2,0-2.2-1-2.2-2.2v-18.1c0-1.2,1-2.2,2.2-2.2Z"/><path id="ax" class="bl" d="m192.4,228.5h-13.7c-1.2,0-2.3-1-2.3-2.2v-18c0-1.2,1-2.2,2.3-2.2h13.7c1.2,0,2.3,1,2.3,2.2v18c0,1.2-1,2.2-2.3,2.2Z"/><path class="br" d="m408.8,168.6c1.1,6.7,1.1,18.9.9,42.8,0,5.1-.3,8.3-.8,10.3-1.1,4.7-32.3,4.7-33.4-.3-1.5-15.9-.6-48.8.3-53.3,3-10.2,14.1-14.6,12.2-24h-2.2c0-.1,0-.9,0-.9h12.9v.8h-2c-2.4,10.4,9.5,14.3,12.1,24.6Z"/><path class="az" d="m409.7,211.4c0,5.1-.3,8.3-.8,10.3-1.1,4.7-32.3,4.7-33.4-.3-1.5-15.9-.6-48.8.3-53.3,3-10.2,14.1-14.6,12.2-24h-2.2c0-.1,0-.9,0-.9h12.9v.8h-2c-2.4,10.4,9.5,14.3,12.1,24.6,1.1,6.7,1.1,18.9.9,42.8Z"/><path class="be" d="m397,143.3h-9v-7c-.5-.6,9.5-.5,9,0v7Z"/><path class="bc" d="m392.6,219.9c6.2,0,16.7-.7,16.7-.7-.7,13.7-2.7,17.9-6.1,17.9s-1.1-3.3-4.5-3.3-2.5,3.2-5.9,3.2-2.1-3.4-5.6-3.4-1.5,3.4-5.6,3.4-6.5-5-6.5-17.8c0,0,11.2.7,17.5.7Z"/><path class="bs" d="m408.5,168c1.4,1.8,2,42.5,1.1,44.9-3,1.1-30.6.8-34.7,0-.3-3.2-.4-40.4.9-44.8,2.8-1.3,30.3-.9,32.7,0Z"/><path class="az" d="m409.6,212.8c-3,1.1-30.6.8-34.7,0-.3-3.2-.4-40.4.9-44.8,2.8-1.3,30.3-.9,32.7,0,1.4,1.8,2,42.5,1.1,44.9Z"/><path class="bf" d="m375.1,176.3c7.2-1.8,10.6,2.8,15.3,5.5,8.9,5.2,18.5,7,19.5,7.3.1,2.4.1,4.7,0,7.1-22.7,1.8-19.8-12-34.9-17.9v-2Z"/><path class="ba" d="m405.8,177.7c6.3,8.8-19.4,27-25.6,18.1-6.3-8.8,19.4-27,25.6-18.1Z"/><text class="cd" transform="translate(392.9 192.4) scale(1.1 1)"><tspan x="0" y="0">!</tspan></text><polygon class="bd" points="387.9 194.8 386.2 191.7 382.7 191.3 385.1 188.7 384.4 185.2 387.6 186.7 390.8 185 390.3 188.5 392.9 190.9 389.4 191.6 387.9 194.8"/><path class="bg" d="m387.3,150.9c1-3.3.8-6.8.8-6.8h-2.2c0-.1,0-.9,0-.9h12.8v.8h-2c0,.1-.4,3.7.4,7"/><path class="ay" d="m390.3,156c.2.9-1.2,1.3-2.8,3.3-3.5,4.3-1,6.1-6.1,3.4-.6-.9,5.5-7.4,6.5-7.5.4-.6,1.9.8,2.4.9Z"/><path class="br" d="m461.8,168.6c1.1,6.7,1.1,18.9.9,42.8,0,5.1-.3,8.3-.8,10.3-1.1,4.7-32.3,4.7-33.4-.3-1.5-15.9-.6-48.8.3-53.3,3-10.2,14.1-14.6,12.2-24h-2.2c0-.1,0-.9,0-.9h12.9v.8h-2c-2.4,10.4,9.5,14.3,12.1,24.6Z"/><path class="az" d="m462.7,211.4c0,5.1-.3,8.3-.8,10.3-1.1,4.7-32.3,4.7-33.4-.3-1.5-15.9-.6-48.8.3-53.3,3-10.2,14.1-14.6,12.2-24h-2.2c0-.1,0-.9,0-.9h12.9v.8h-2c-2.4,10.4,9.5,14.3,12.1,24.6,1.1,6.7,1.1,18.9.9,42.8Z"/><path class="be" d="m450,143.3h-9v-7c-.5-.6,9.5-.5,9,0v7Z"/><path class="bc" d="m445.6,219.9c6.2,0,16.7-.7,16.7-.7-.7,13.7-2.7,17.9-6.1,17.9s-1.1-3.3-4.5-3.3-2.5,3.2-5.9,3.2-2.1-3.4-5.6-3.4-1.5,3.4-5.6,3.4-6.5-5-6.5-17.8c0,0,11.2.7,17.5.7Z"/><path class="bs" d="m461.5,168c1.4,1.8,2,42.5,1.1,44.9-3,1.1-30.6.8-34.7,0-.3-3.2-.4-40.4.9-44.8,2.8-1.3,30.3-.9,32.7,0Z"/><path class="az" d="m462.6,212.8c-3,1.1-30.6.8-34.7,0-.3-3.2-.4-40.4.9-44.8,2.8-1.3,30.3-.9,32.7,0,1.4,1.8,2,42.5,1.1,44.9Z"/><path class="bf" d="m428.1,176.3c7.2-1.8,10.6,2.8,15.3,5.5,8.9,5.2,18.5,7,19.5,7.3.1,2.4.1,4.7,0,7.1-22.7,1.8-19.8-12-34.9-17.9v-2Z"/><path class="ba" d="m458.8,177.7c6.3,8.8-19.4,27-25.6,18.1-6.3-8.8,19.4-27,25.6-18.1Z"/><text class="cd" transform="translate(445.9 192.4) scale(1.1 1)"><tspan x="0" y="0">!</tspan></text><polygon class="bd" points="440.9 194.8 439.2 191.7 435.7 191.3 438.1 188.7 437.4 185.2 440.6 186.7 443.8 185 443.3 188.5 445.9 190.9 442.4 191.6 440.9 194.8"/><path class="bg" d="m440.3,150.9c1-3.3.8-6.8.8-6.8h-2.2c0-.1,0-.9,0-.9h12.8v.8h-2c0,.1-.4,3.7.4,7"/><path class="ay" d="m443.3,156c.2.9-1.2,1.3-2.8,3.3-3.5,4.3-1,6.1-6.1,3.4-.6-.9,5.5-7.4,6.5-7.5.4-.6,1.9.8,2.4.9Z"/></svg>