<?xml version="1.0" encoding="UTF-8"?><svg id="Layer_1" xmlns="http://www.w3.org/2000/svg" width="257" height="167" xmlns:xlink="http://www.w3.org/1999/xlink" viewBox="0 0 257 167"><defs><style>.cls-1{fill:url(#linear-gradient);}.cls-1,.cls-2,.cls-3,.cls-4{stroke-width:0px;}.cls-5{fill:#e5c29e;}.cls-5,.cls-6,.cls-7{stroke-miterlimit:10;}.cls-5,.cls-6,.cls-7,.cls-8{stroke:#010101;}.cls-6{fill:#b4b4b4;}.cls-7{fill:#f6eb16;}.cls-2{fill:#cfd1d2;}.cls-3{fill:#bbbdbf;}.cls-4{fill:#a4a4a5;}.cls-8{fill:none;stroke-width:.3px;}</style><linearGradient id="linear-gradient" x1="128.5" y1="0" x2="128.5" y2="167" gradientUnits="userSpaceOnUse"><stop offset="0" stop-color="#50b4d2"/><stop offset="1" stop-color="#ccecfc"/></linearGradient></defs><rect class="cls-1" width="257" height="167"/><polygon class="cls-7" points="170.2 165.2 158.7 165.2 128.1 101.2 97 165.2 86.3 165.2 123.3 89.5 132.8 89.5 170.2 165.2"/><path class="cls-6" d="M128.3,88.5c2.8,0,5.1,2.1,5.1,4.6s-2.3,4.6-5.1,4.6-5.1-2.1-5.1-4.6,2.3-4.6,5.1-4.6Z"/><rect class="cls-5" x="6.7" y="97.9" width="243.2" height="6.2" transform="translate(-8.3 11.6) rotate(-5)"/><path class="cls-3" d="M105.2,74h0s-48.3,4.1-48.3,4.1l.4,4.7v.7c0,0,2.2-.2,2.2-.2v.5s1.2,13.9,1.2,13.9l-2.1.2.4,4.2v1.2c.1,0,22.4-1.9,22.4-1.9l25.1-2.1,3-.3v-1.4c-.1,0-.5-4-.5-4l-2.1.2-.6-6.8-.3-3.1-.4-4.5,2.1-.2-.4-4.3v-1.2c0,0-2.2.2-2.2.2ZM66.1,97.3l-1.1-13.2v-1.2c-.1,0,14.9-1.3,14.9-1.3l1.2,14.4-3.3.3-11.7,1h0q0,.1,0,.1h0ZM86.5,95.5l-1.2-14.4,15-1.3h0c0,0,0,0,0,0l.5,5.7.2,2.5.5,6.3-15,1.3v.2q0,0,0,0v-.2Z"/><path class="cls-2" d="M105.1,75c-9.6.4-39.9,3.4-46.5,4.2-.3.9-1.1,2.7-1.4,3.6l-.4-4.7,48.3-4.1c0,.3,0,.7,0,1Z"/><path class="cls-3" d="M100.3,79.8l-2-1.1c-4.1.4-11,.9-15.1,1.3l1.3,15.1c.5.2,1.3.5,1.9.7v-.2c0,0,15.1-1.3,15.1-1.3l-.5-6.3-.2-2.5-.5-5.7h0ZM58.7,79.2c6.5-.8,36.8-3.8,46.5-4.2-.2,1.2-1,2.4-1.8,3.2-.4.4,1.3,14.3,1.2,14.5-.6,2.3,1.7,3.2,1.9,5.2-15.8,1.8-31.7,3.2-47.5,4.2l-.4-4.2,2.1-.2-1.2-13.9v-.5s-2.1.2-2.1.2v-.7c.3-.9,1-2.8,1.3-3.6ZM66,97.4h0c0-.1,11.7-1.1,11.7-1.1l3.3-.3-1.2-14.4v-.2c.1,0-1.7-1-1.7-1-4.1.4-11,.9-15.1,1.3l1.3,15.1c.4.2,1.2.4,1.7.6Z"/><path class="cls-4" d="M86.5,95.5l-1.2-14.4,15-1.3h0c0,0-2-1.2-2-1.2-4.1.4-11,.9-15.1,1.3l1.3,15.1c.5.2,1.3.5,1.9.7v-.2Z"/><path class="cls-4" d="M105.2,74c0,.3,0,.7,0,1-.2,1.2-1,2.4-1.8,3.2-.4.4,1.3,14.3,1.2,14.5-.6,2.3,1.7,3.2,1.9,5.2-15.8,1.8-31.7,3.2-47.5,4.2v1.2c.1,0,22.4-1.9,22.4-1.9l25.1-2.1,3-.3v-1.4c-.1,0-.5-4-.5-4l-2.1.2-.6-6.8-.3-3.1-.4-4.5,2.1-.2-.4-4.3v-1.2c0,0-2.2.2-2.2.2Z"/><path class="cls-4" d="M66.1,97.3l-1.1-13.2v-1.2c-.1,0,14.9-1.3,14.9-1.3v-.2c.1,0-1.7-1-1.7-1-4.1.4-11,.9-15.1,1.3,0,.6,1.3,15.1,1.3,15.1.4.2,1.2.4,1.7.6h0Z"/><polygon class="cls-8" points="58.9 102.1 58.6 97.9 60.7 97.7 59.5 83.8 59.4 83.3 57.3 83.5 57.3 82.8 56.9 78.1 105.2 74 107.3 73.8 107.4 74.9 107.8 79.2 105.7 79.4 106.1 83.9 106.3 87 106.9 93.8 109 93.6 109.3 97.6 109.5 99 106.4 99.3 81.3 101.4 59 103.3 58.9 102.1"/><polygon class="cls-8" points="66.1 97.3 77.8 96.3 81.1 96 79.8 81.6 64.8 82.9 64.9 84.1 66.1 97.3"/><polygon class="cls-8" points="86.5 95.5 101.5 94.2 101 88 100.7 85.5 100.3 79.8 85.3 81.1 86.5 95.5"/></svg>