<?xml version="1.0" encoding="UTF-8"?><svg id="a" xmlns="http://www.w3.org/2000/svg" width="257" height="167" xmlns:xlink="http://www.w3.org/1999/xlink" viewBox="0 0 257 167"><defs><style>.l{fill:url(#c);stroke:#000;stroke-width:.3px;}.m{fill:#e5c29e;}.m,.n,.o{stroke-miterlimit:10;}.m,.n,.o,.p,.q{stroke:#010101;}.n{fill:#b4b4b4;}.o{fill:#f6eb16;}.r{fill:#231f20;stroke-linecap:round;}.r,.s{stroke:#231f20;}.r,.s,.p{stroke-width:.3px;}.s,.p,.q{fill:none;}.t{fill:#5d5d5d;}.t,.u,.v,.w,.x,.y,.z,.aa,.ab,.ac,.ad,.ae,.af,.ag,.ah,.ai,.aj,.ak,.al,.am,.an,.ao,.ap,.aq,.ar,.as{stroke-width:0px;}.u{fill:#77502a;}.v{fill:#717272;}.w{fill:#4e4d4e;}.x{fill:#599843;}.y{fill:#171717;}.z{fill:#ac8768;}.aa{fill:#a77c58;}.ab{fill:#d97931;}.ac{fill:#db874e;}.ad{fill:#b99572;}.ae{fill:#9e754c;}.af{fill:#8d6639;}.ag{fill:#b86428;}.ah{fill:#30302f;}.ai{fill:#9a6f44;}.aj{fill:#92c952;}.ak{fill:url(#b);}.al{fill:url(#e);}.am{fill:url(#f);}.an{fill:url(#d);}.ao{fill:url(#j);}.ap{fill:url(#i);}.aq{fill:url(#h);}.ar{fill:url(#g);}.as{fill:url(#k);}.q{stroke-width:.4px;}</style><linearGradient id="b" x1="128.5" y1="0" x2="128.5" y2="167" gradientUnits="userSpaceOnUse"><stop offset="0" stop-color="#50b4d2"/><stop offset="1" stop-color="#ccecfc"/></linearGradient><linearGradient id="c" x1="26.7" y1="63.2" x2="38.5" y2="83.6" gradientTransform="translate(11.8 -3.6) rotate(9)" gradientUnits="userSpaceOnUse"><stop offset="0" stop-color="#bbbdbf"/><stop offset=".2" stop-color="#a8a9ab"/><stop offset=".5" stop-color="#787879"/><stop offset=".9" stop-color="#2c292a"/><stop offset="1" stop-color="#231f20"/></linearGradient><linearGradient id="d" x1="177.8" y1="89.1" x2="230.2" y2="89.1" gradientTransform="translate(15.9 -33.4) rotate(10.3)" gradientUnits="userSpaceOnUse"><stop offset="0" stop-color="#231f20"/><stop offset=".2" stop-color="#9c9ea1"/><stop offset=".3" stop-color="#797a7d"/><stop offset=".4" stop-color="#545557"/><stop offset=".5" stop-color="#353637"/><stop offset=".6" stop-color="#1e1e1f"/><stop offset=".7" stop-color="#0d0d0d"/><stop offset=".9" stop-color="#030303"/><stop offset="1" stop-color="#000"/></linearGradient><linearGradient id="e" x1="177.3" y1="46.5" x2="230.1" y2="46.5" xlink:href="#d"/><linearGradient id="f" x1="178.8" y1="36" x2="228.5" y2="36" xlink:href="#d"/><linearGradient id="g" x1="179" y1="100.7" x2="228.2" y2="100.7" xlink:href="#d"/><linearGradient id="h" x1="179" y1="100.7" x2="228.2" y2="100.7" xlink:href="#d"/><linearGradient id="i" x1="178.8" y1="35.9" x2="228.5" y2="35.9" xlink:href="#d"/><linearGradient id="j" x1="177.3" y1="46.5" x2="228.9" y2="46.5" xlink:href="#d"/><linearGradient id="k" x1="177.3" y1="89.1" x2="229.6" y2="89.1" xlink:href="#d"/></defs><rect class="ak" width="257" height="167"/><polygon class="o" points="170.4 164.9 158.9 164.9 128.3 100.9 97.2 164.9 86.6 164.9 123.5 89.2 133.1 89.2 170.4 164.9"/><path class="n" d="m128.5,88.2c2.8,0,5.1,2.1,5.1,4.6s-2.3,4.6-5.1,4.6-5.1-2.1-5.1-4.6,2.3-4.6,5.1-4.6Z"/><rect class="m" x="125.6" y="-20.4" width="6.2" height="243.2" transform="translate(6.8 210.4) rotate(-80)"/><path class="r" d="m95.4,72.6c0,.3-6.9-.7-15.2-2.1-8.3-1.4-15.1-2.8-15-3.1,0-.3,6.9.7,15.2,2.1,8.3,1.4,15.1,2.8,15,3.1Z"/><path class="x" d="m83.3,70.2l-3.1,1.9h-.1c0,0-.3.3-.3.3h-.1c0,0-.2.2-.2.2h-.2c0,0,0,0,0,0,0-.1,0-.3,0-.4l-2.3-2.8-10.3-12.5c.3.7,10.4,18.8,12.9,16.9,2.6,1.4,17.1-11.4,17.6-11.8l-13.9,8.3Z"/><path class="x" d="m88,65.2c4.4-5.1,9-11.1,9.2-11.4l-13.7,13.8c1.4-.9,2.9-1.7,4.5-2.4Z"/><path class="x" d="m86.8,56.8c3-9.4,5.9-19.9,6-20.4h0s-8.5,24.2-8.5,24.2c.8-1.3,1.6-2.5,2.4-3.8Z"/><path class="x" d="m83.1,65.5c.4-.4.8-.9,1.2-1.3.8-.8,1.6-1.5,2.4-2.3,4.3-7.7,8.9-17.3,9.2-17.8l-10.9,18.3-1.9,3.1Z"/><path class="x" d="m82.6,56c.6-2.1,1.2-4.3,1.8-6.4,1-8.3,1.8-15.9,1.8-16.3,0,0,0,0,0,0l-3.5,21.6c0,.4,0,.7,0,1.1Z"/><path class="x" d="m81.3,65.8c.1-.4.2-.8.4-1.2.3-1,.7-2.1,1.1-3.2.7-1.9,1.4-4,2.3-6.2,2.2-10.2,4.4-21.8,4.5-22.3h0s-6.2,25.2-6.2,25.2l-1.5,6-.4,1.8Z"/><path class="x" d="m80.6,60.3c0,1.5,0,2.9,0,4.2,0-.2,0-.4.1-.6l.9-8.6,2.3-23.2c-.1.6-2,12.2-3.3,22.5,0,1.9,0,3.9,0,5.7Z"/><path class="x" d="m79.4,59.9v-25.6c0,0,0,0,0,0,0,.6-.8,11.4-1.1,21.2.4,1.5.7,3,1,4.4Z"/><path class="x" d="m77.8,66.8l-8.3-17.6h0c.1.4,2.4,7.6,4.9,13.9,1.2,1.2,2.5,2.4,3.4,3.7Z"/><path class="x" d="m78.2,63.3c.3.6.5,1.1.7,1.6l-.7-3.6-4.2-20.8h0c0,.5,1.2,11.2,2.7,19.9.5,1,1.1,2,1.5,2.9Z"/><path class="aj" d="m88,65.2c-1.6.7-3.1,1.5-4.5,2.4l13.7-13.8s-5.6,3.8-10.5,8.2c-.8.7-1.6,1.5-2.4,2.3-.4.4-.8.9-1.2,1.3l1.9-3.1,10.9-18.3c-.1.2-4.8,6.2-9.1,12.6-.8,1.3-1.7,2.5-2.4,3.8l8.5-24.2c-.3.6-4.4,9.9-7.8,18.9-.8,2.1-1.6,4.2-2.3,6.2-.4,1.1-.7,2.2-1.1,3.2-.1.4-.2.8-.4,1.2l.4-1.8,1.5-6,6.2-25.2c-.1.4-2.7,8.3-5.1,16.7-.6,2.1-1.2,4.3-1.8,6.4,0-.4,0-.7,0-1.1l3.5-21.6c0,.4-1.5,6.4-3,13.6.4-7.9.6-14.7.6-14.7l-2.3,23.2-.9,8.6c0,.2,0,.4-.1.6,0-1.3,0-2.7,0-4.2,0-1.8,0-3.7,0-5.7-.2-9.6-1-19.9-1.1-20.4v25.6c-.4-1.4-.8-2.9-1.1-4.4-1.9-7.4-4.2-14.5-4.3-14.9l4.2,20.8.7,3.6c-.2-.5-.5-1.1-.7-1.6-.5-1-1-2-1.5-2.9-3.1-5.6-7-11-7.2-11.2l8.3,17.6c-1-1.3-2.2-2.5-3.4-3.7-3.6-3.4-7.4-6.1-7.6-6.1l10.3,12.5,2.3,2.8c0,.1,0,.3,0,.4,0,0,0,.1,0,.2h.2c0-.1.2-.2.2-.2h.1c0,0,.3-.2.3-.2h.1c0,0,3.1-2,3.1-2l13.9-8.3s-4.6,1.2-9.2,3.3Z"/><path class="s" d="m78.6,73.9c-1.3-.7-2.4-2.2-3.4-3.6-1.9-2.8-3.1-4.6-5-7.4-.8-1.2-2.9-4.4-3.5-6,3.7,2.2,7.8,5.9,10.9,9.8"/><path class="s" d="m74.3,63c-1.7-4.6-3.5-8.8-4.7-13.6,3.3,4.5,6.9,9.6,9.3,15.6"/><path class="s" d="m76.5,59.8c-.4-2.2-2.4-16.7-2.4-19,1.5,3.6,5.6,18.7,5.7,20.9"/><path class="s" d="m78.3,55.1c.1-6.7.6-14.1,1.1-20.8,0,0,0,0,0,0,.5,3.8,1.6,24.6,1.1,30"/><path class="s" d="m82.2,56.6c.9-5.7,1.3-19.3,1.5-24.5-1.2,6.3-2.3,15-3.2,21.6"/><path class="s" d="m80.3,74c1.5-.2,2.9-1.2,4.4-2.3,2.8-2,4.4-3.3,7.2-5.3,1.2-.9,4.2-3.2,5.3-4.4-4.2.9-9.3,3-13.6,5.6"/><path class="s" d="m88,65.2c3.2-3.7,6.3-7.1,9-11.2-4.7,3.1-9.7,6.7-14,11.6"/><path class="s" d="m87,61.5c1.1-1.9,7.9-14.9,8.7-17.1-2.6,2.9-11.5,15.7-12.2,17.8"/><path class="s" d="m86.9,56.4c2.1-6.4,4.1-13.5,5.9-20,0,0,0,0,0,0-1.8,3.5-9.7,23.2-11.2,27.8"/><path class="s" d="m82.2,56.6c1.3-5.6,5.7-18.7,7.1-23.6-1,6.4-2.9,14.9-4.2,21.4"/><path class="s" d="m83,47.7c.9-4.7,2.1-9.8,3.1-14.5-.4,5.1-1,10-1.7,15.6"/><path class="ag" d="m95.3,72.6s-6.5,17.7-9.9,17.1c-.9-.2-2.3-.4-3.9-.7,3.5-.9,8-10,9.5-16.8v-.2c2.4.3,4.2.6,4.2.6Z"/><path class="ab" d="m91.1,72.1v.2c-1.5,6.8-6.1,16-9.5,16.8-3.2-.6-7.4-1.3-10.3-1.8-2.2-6.2-2.6-12.4-1.8-18.9,3.6.8,8.6,1.8,10.8,2.2,2.3.4,7.2,1,10.7,1.5Z"/><path class="ac" d="m71.3,87.3c-1.1-.2-2-.3-2.6-.5-3.4-.6-3.6-19.4-3.6-19.4,0,0,1.9.4,4.4,1-.8,6.5-.4,12.7,1.8,18.9Z"/><path class="p" d="m91.1,72.1c2.4.3,4.2.6,4.2.6,0,0-6.5,17.7-9.9,17.1-.9-.2-2.3-.4-3.9-.7-3.2-.6-7.4-1.3-10.3-1.8-1.1-.2-2-.3-2.6-.5-3.4-.6-3.6-19.4-3.6-19.4,0,0,1.9.4,4.4,1,3.6.8,8.6,1.8,10.8,2.2,2.3.4,7.2,1,10.7,1.5Z"/><path class="l" d="m24,79.2c-3.2-1.4-6.9-1.7-6-8.5.8-6.2,8.7-7,13.7-6.9,5.3,0,9.9,2.1,13.5,6.3,2.2,2.6,6.1,11.6-2.6,12.1,0,0-14.7-2-18.6-3Z"/><path class="an" d="m226.7,94.1l-1,2.9h-.2c.3-1,.6-1.9.9-3h.3Z"/><path class="al" d="m233.7,52.1v3.1c0,0-.1,0-.3,0,0-1.1.1-2.1.2-3.1,0,0,0,0,0,0Z"/><path class="u" d="m233.5,55.2c-.4,5.8-1.1,12.6-2.5,20.2-1.3,7.1-2.9,13.4-4.6,18.7l-6.1-1.1c1.8-6.8,3.6-13.9,4.5-18.9,1-5.2,1.8-12.9,2.4-20.2,3.2.7,5.6,1.2,6.3,1.3Z"/><path class="y" d="m220.3,93l6.1,1.1c-.3,1-.6,2-.9,2.9l-6-1.1c.3-1,.5-2,.8-2.9Z"/><path class="y" d="m233.6,52.1c0,1,0,2-.2,3.1-.7-.1-3.1-.7-6.3-1.3,0-1,.2-2,.2-3,3.3.7,5.7,1.2,6.2,1.3Z"/><path class="u" d="m219.5,95.9l6,1.1c-1,3.1-2.1,5.9-3,8.2l-5.3-1c.7-2.5,1.5-5.3,2.3-8.3Z"/><path class="u" d="m233.8,44.5c0,2.2,0,4.8-.1,7.6-.5-.1-3-.6-6.2-1.3.2-2.8.4-5.4.6-7.7,2.9.7,5.1,1.2,5.8,1.4Z"/><path class="am" d="m233.7,41.4l.3,3.1s0,0-.2,0c0-1.1,0-2.1,0-3.1h0Z"/><path class="ar" d="m222.6,105.2l-1.2,2.9h-.1c.4-.9.8-1.9,1.2-2.9h.1Z"/><path class="y" d="m217.1,104.2l5.3,1c-.4,1.1-.8,2-1.2,2.9l-5-.9c.3-.9.5-1.9.8-2.9Z"/><path class="y" d="m233.7,41.4c0,.9,0,1.9,0,3.1-.6-.2-2.8-.7-5.8-1.4,0-1.1.2-2.2.2-3.2,3.2.8,5.3,1.5,5.5,1.5Z"/><path class="u" d="m216.3,107.2l5,.9c-1.6,3.7-2.7,5.7-2.7,5.7l-4-.7s.7-2.3,1.7-5.9Z"/><path class="u" d="m232.9,35c.2.2.6,2.5.7,6.4-.2,0-2.3-.7-5.5-1.5.2-3.8.4-6.2.4-6.2v-.2c2.7.7,4.2,1.2,4.4,1.5Z"/><path class="af" d="m224.8,74.1c-.9,5-2.7,12.1-4.5,18.9l-6.9-1.3c1.6-7.1,3.3-14.6,4.2-19.8.9-5.1,1.9-12.5,2.8-19.5,2.4.5,4.7,1,6.8,1.4-.6,7.3-1.4,15-2.4,20.2Z"/><path class="y" d="m213.4,91.7l6.9,1.3c-.3,1-.5,2-.8,2.9l-6.8-1.2c.2-1,.5-2,.7-3Z"/><path class="af" d="m212.7,94.7l6.8,1.2c-.8,3-1.6,5.8-2.3,8.3l-6.4-1.2c.6-2.5,1.3-5.3,2-8.4Z"/><path class="ah" d="m227.4,50.8c0,1-.2,2-.2,3-2-.4-4.4-.9-6.8-1.4.1-1,.3-2,.4-3,2.3.5,4.6,1,6.6,1.4Z"/><path class="af" d="m228,43.1c-.2,2.3-.3,5-.6,7.7-2-.4-4.3-.9-6.6-1.4.3-2.8.6-5.5.9-7.9,2.2.5,4.4,1,6.3,1.5Z"/><path class="y" d="m210.7,103l6.4,1.2c-.3,1.1-.6,2-.8,2.9l-6.3-1.2c.2-.9.5-1.9.7-3Z"/><path class="af" d="m210,106l6.3,1.2c-1,3.6-1.7,5.9-1.7,5.9l-6-1.1h0c0,0,.6-2.4,1.4-5.9Z"/><path class="ah" d="m228.2,39.9c0,1-.1,2-.2,3.2-1.9-.4-4-1-6.3-1.5.1-1.1.3-2.2.4-3.2,2.3.5,4.4,1.1,6.1,1.5Z"/><path class="af" d="m228.6,33.5v.2s-.2,2.4-.4,6.2c-1.8-.5-3.8-1-6.1-1.5.4-3.8.7-6.3.7-6.3h0c2.4.5,4.3,1,5.8,1.4Z"/><path class="ai" d="m217.6,72c-.9,5.2-2.6,12.7-4.2,19.8l-8.3-1.5c1.5-7.3,3.1-15,4-20.2.9-5,2-12.3,3.1-19.2,2.6.5,5.5,1.1,8.3,1.6-.9,7-1.9,14.4-2.8,19.5Z"/><path class="ah" d="m205,90.2l8.3,1.5c-.2,1-.5,2-.7,3l-8.3-1.5c.2-1,.4-2,.6-3Z"/><path class="ai" d="m204.4,93.2l8.3,1.5c-.7,3-1.4,5.9-2,8.4l-8.1-1.5c.5-2.5,1.1-5.4,1.8-8.4Z"/><path class="ah" d="m220.8,49.5c-.1,1-.2,2-.4,3-2.8-.6-5.7-1.1-8.3-1.6.1-1,.3-2.1.4-3.1,2.5.5,5.4,1.1,8.2,1.7Z"/><path class="ai" d="m221.7,41.6c-.3,2.4-.6,5-.9,7.9-2.9-.6-5.8-1.2-8.2-1.7.4-2.9.8-5.6,1.1-8,2.5.5,5.3,1.2,8,1.8Z"/><path class="y" d="m202.6,101.6l8.1,1.5c-.3,1.1-.5,2.1-.7,3l-8-1.5c.2-.9.4-1.9.6-3Z"/><path class="ai" d="m202,104.5l8,1.5c-.9,3.6-1.4,5.9-1.4,5.9h0c0,0-7.8-1.4-7.8-1.4v-.2s.5-2.3,1.3-5.8Z"/><path class="ah" d="m222.1,38.4c-.1,1-.2,2.1-.4,3.2-2.7-.6-5.5-1.3-8-1.8.2-1.1.3-2.2.4-3.2,2.8.5,5.5,1.2,7.9,1.7Z"/><path class="ai" d="m222.7,32.1s-.3,2.5-.7,6.3c-2.5-.6-5.2-1.2-7.9-1.7.5-3.7.8-6.1.8-6.1h0c3,.5,5.5,1.1,7.8,1.6h0Z"/><path class="ae" d="m209.1,70c-1,5.2-2.5,12.9-4,20.2l-9-1.6c1.2-7.3,2.4-14.9,3.3-20.1.9-5.1,2.4-12.3,3.8-19.2,1.6.3,3.1.5,4.4.7,1.3.2,2.9.5,4.6.8-1,6.9-2.1,14.1-3.1,19.2Z"/><path class="ah" d="m196.1,88.6l9,1.6c-.2,1-.4,2-.6,3l-8.8-1.6c.2-1,.3-2,.5-3Z"/><path class="ae" d="m195.6,91.6l8.8,1.6c-.6,3-1.2,5.9-1.8,8.4l-8.3-1.5c.4-2.5.8-5.4,1.3-8.5Z"/><path class="ah" d="m212.1,50.9c-1.7-.3-3.2-.6-4.6-.8-1.3-.2-2.8-.5-4.4-.7.2-1,.4-2.1.6-3.1,1.7.3,3.2.5,4.3.7,1.1.2,2.7.5,4.4.9-.1,1-.3,2-.4,3.1Z"/><path class="ae" d="m213.7,39.8c-.3,2.4-.7,5.1-1.1,8-1.8-.4-3.3-.6-4.4-.9-1.1-.2-2.6-.5-4.3-.7.6-2.8,1.1-5.5,1.6-7.9,1.7.3,3.2.5,4.5.8,1.1.2,2.4.5,3.7.8Z"/><path class="ah" d="m194.3,100l8.3,1.5c-.2,1.1-.4,2.1-.6,3l-8.2-1.5c.1-.9.3-1.9.5-3Z"/><path class="ae" d="m193.8,103l8.2,1.5c-.8,3.5-1.2,5.8-1.2,5.8v.2s-7.8-1.4-7.8-1.4h0c0-.1.3-2.4.9-6Z"/><path class="ah" d="m214.1,36.7c-.1,1-.3,2-.4,3.2-1.3-.3-2.6-.5-3.7-.8-1.3-.3-2.9-.5-4.5-.8.2-1.1.4-2.1.6-3,1.5.2,2.9.5,4.4.7,1.2.2,2.4.4,3.7.7Z"/><path class="ae" d="m215,30.5s-.3,2.4-.8,6.1c-1.2-.2-2.4-.5-3.7-.7-1.5-.3-2.9-.5-4.4-.7.8-3.7,1.3-6.1,1.3-6.1,1.3.2,2.6.4,3.9.7,1.3.2,2.5.5,3.6.7h0Z"/><path class="aa" d="m192.9,108.9h0c0,.1-9-1.5-9-1.5h0c0,0,.3-2.4.8-6l9.1,1.7c-.6,3.6-.9,5.9-.9,5.9Z"/><path class="w" d="m193.8,103l-9.1-1.7c.1-.9.3-1.9.4-3l9.2,1.7c-.2,1.1-.3,2.1-.5,3Z"/><path class="aa" d="m207.4,29.1s-.5,2.4-1.3,6.1c-3.1-.5-6.1-.9-8.8-1.3.9-3.6,1.5-5.9,1.5-5.9v-.2c2.4.3,5.3.8,8.6,1.3Z"/><path class="aa" d="m194.3,100l-9.2-1.7c.3-2.5.7-5.5,1.2-8.5l9.3,1.7c-.5,3-.9,5.9-1.3,8.5Z"/><path class="w" d="m206.1,35.2c-.2.9-.4,2-.6,3-2.8-.5-6-.9-8.9-1.3.3-1.1.5-2.1.7-3,2.7.4,5.7.8,8.8,1.3Z"/><path class="aa" d="m205.5,38.3c-.5,2.4-1.1,5.1-1.6,7.9-2.7-.5-6-1-9.1-1.5.7-2.8,1.3-5.4,1.9-7.7,3,.4,6.1.9,8.9,1.3Z"/><path class="w" d="m195.6,91.6l-9.3-1.7c.1-1,.3-2,.4-3l9.4,1.7c-.2,1-.3,2-.5,3Z"/><path class="aa" d="m196.1,88.6l-9.4-1.7c1-7.1,2.2-14.6,3.1-19.7.9-5.1,2.6-12.5,4.2-19.4,3.1.5,6.3,1.1,9.2,1.6-1.4,6.9-2.8,14.1-3.8,19.2-.9,5.2-2.2,12.8-3.3,20.1Z"/><path class="w" d="m203.8,46.2c-.2,1-.4,2-.6,3.1-2.9-.5-6.1-1-9.2-1.6.2-1,.5-2,.7-3,3.1.5,6.4,1,9.1,1.5Z"/><path class="z" d="m198.8,27.8v.2s-.6,2.3-1.5,5.9c-2.5-.3-4.8-.6-6.6-.8.6-1.8,1.3-3.8,2.1-5.9v-.2c1.5.1,3.5.3,6,.7Z"/><path class="z" d="m183.9,107.4h0c0,0-5.9-1-5.9-1,0-.5.2-2.8.5-6.1l6.2,1.1c-.5,3.6-.8,6-.8,6Z"/><path class="v" d="m197.3,34c-.2.9-.5,1.9-.7,3-2.5-.3-4.9-.6-6.8-.9.3-.9.7-1.9,1-2.9,1.8.2,4.1.5,6.6.8Z"/><path class="v" d="m184.7,101.4l-6.2-1.1c0-.9.2-1.9.3-3l6.3,1.2c-.1,1.1-.3,2.1-.4,3Z"/><path class="z" d="m185.1,98.4l-6.3-1.2c.2-2.6.5-5.5.8-8.6l6.7,1.2c-.4,3.1-.8,6-1.2,8.5Z"/><path class="z" d="m196.6,37c-.6,2.3-1.2,5-1.9,7.7-2.7-.4-5.3-.8-7.4-1.2.7-2.2,1.5-4.7,2.4-7.5,1.9.2,4.3.5,6.8.9Z"/><path class="v" d="m194.7,44.7c-.2,1-.5,2-.7,3-2.8-.5-5.4-.9-7.5-1.3.3-.9.5-1.9.9-2.9,2.1.3,4.7.7,7.4,1.2Z"/><path class="v" d="m186.3,89.9l-6.7-1.2c0-1,.2-2,.3-3l6.8,1.2c-.1,1-.3,2-.4,3Z"/><path class="z" d="m186.7,86.9l-6.8-1.2c.8-7.4,1.7-15.1,2.6-20.3,1-5.5,1.3-9.6,4-18.9,2.1.4,4.8.8,7.5,1.3-1.6,6.9-3.3,14.3-4.2,19.4-.9,5.1-2.1,12.6-3.1,19.7Z"/><path class="ad" d="m192.8,27.1v.2c-.8,2.1-1.5,4-2.1,5.9-2.3-.3-3.9-.4-4.3-.5,1.5-3.6,2.6-5.5,2.9-5.6.2-.1,1.4-.1,3.5,0Z"/><path class="ad" d="m178,106.3l-3-.6s-.4-2.2-.5-6.3l4.1.7c-.3,3.3-.5,5.6-.5,6.1Z"/><path class="t" d="m178.5,100.2l-4.1-.7c0-.9,0-2,0-3.1l4.4.8c0,1.1-.2,2.1-.3,3Z"/><path class="ad" d="m178.7,97.2l-4.4-.8c0-2.4,0-5.4.2-8.7l5,.9c-.3,3.1-.6,6-.8,8.6Z"/><path class="t" d="m190.7,33.1c-.3,1-.7,2-1,2.9-2.2-.3-3.9-.5-4.4-.6.4-1.1.8-2,1.2-2.9.4,0,2,.2,4.3.5Z"/><path class="t" d="m179.6,88.6l-5-.9c0-1,.1-2,.2-3l5.1.9c-.1,1-.2,2-.3,3Z"/><path class="ad" d="m179.9,85.6l-5.1-.9c.4-5.4,1.2-11.7,2.5-19,1.4-7.9,3.1-14.5,4.7-20,.6,0,2.3.4,4.6.8-2.6,9.2-3,13.3-4,18.9-.9,5.2-1.9,12.9-2.6,20.3Z"/><path class="ad" d="m189.7,36.1c-.9,2.8-1.7,5.3-2.4,7.5-2.4-.4-4.1-.6-4.6-.7.9-2.8,1.7-5.3,2.5-7.3.6,0,2.2.3,4.4.6Z"/><path class="t" d="m187.3,43.5c-.3,1-.6,2-.9,2.9-2.3-.4-4-.7-4.6-.8.3-1,.6-1.9.9-2.9.4,0,2.2.3,4.6.7Z"/><path class="aq" d="m174.4,99.5h-.1s-.2-3.1-.2-3.1h.2c0,1.2,0,2.2,0,3.1Z"/><path class="ap" d="m186.3,32.7s0,0,0,0c-.4.9-.7,1.8-1.2,2.9-.1,0-.2,0-.2,0l1.3-2.8Z"/><path class="ao" d="m182.6,42.8s0,0,.1,0c-.3.9-.6,1.9-.9,2.9-.2,0-.2,0-.2,0l1-2.8Z"/><path class="as" d="m174.6,87.7h-.1s.1-3.1.1-3.1h.2c0,1.1-.1,2.1-.2,3.1Z"/><path class="q" d="m174.3,96.4c0-2.4,0-5.4.2-8.7"/><path class="q" d="m221.3,108.1c-1.6,3.7-2.7,5.7-2.7,5.7l-4-.7-6-1.1-7.8-1.4-7.8-1.4-9-1.6-5.9-1.1-3-.6s-.4-2.2-.5-6.3"/><path class="q" d="m225.4,97c-1,3.1-2.1,5.9-3,8.2"/><path class="q" d="m233.5,55.2c-.4,5.8-1.1,12.6-2.5,20.2-1.3,7.1-2.9,13.4-4.6,18.7"/><path class="q" d="m233.8,44.5c0,2.2,0,4.8-.1,7.6"/><path class="q" d="m186.4,32.7c1.5-3.6,2.6-5.5,2.9-5.6.2-.1,1.4-.1,3.5,0,1.5.1,3.5.3,6,.7,2.4.3,5.3.8,8.6,1.3,1.3.2,2.6.4,3.9.7,1.3.2,2.5.5,3.6.7,3,.6,5.5,1.1,7.8,1.6,2.4.5,4.3,1,5.8,1.4,2.7.7,4.1,1.2,4.3,1.5.2.2.6,2.5.7,6.4"/><path class="q" d="m182.8,42.8c.9-2.8,1.7-5.3,2.5-7.3"/><path class="q" d="m174.8,84.7c.4-5.4,1.2-11.7,2.5-19,1.4-7.9,3.1-14.5,4.7-20"/><path class="q" d="m178.5,100.2c-.3,3.3-.5,5.6-.5,6.1,0,0,0,.1,0,.1"/><path class="q" d="m179.6,88.6c-.3,3.1-.6,6-.8,8.6"/><path class="q" d="m186.5,46.5c-2.6,9.2-3,13.3-4,18.9-.9,5.2-1.9,12.9-2.6,20.3"/><path class="q" d="m189.7,36.1c-.9,2.8-1.7,5.3-2.4,7.5"/><path class="q" d="m192.8,27.3c-.8,2.1-1.4,4-2.1,5.9"/><path class="q" d="m184.7,101.4c-.5,3.6-.8,6-.8,6"/><path class="q" d="m186.3,89.9c-.4,3.1-.8,6-1.2,8.5"/><path class="q" d="m194,47.7c-1.6,6.9-3.3,14.3-4.2,19.4-.9,5.1-2.1,12.6-3.1,19.7"/><path class="q" d="m196.6,37c-.6,2.3-1.2,5-1.9,7.7"/><path class="q" d="m198.8,28s-.6,2.3-1.5,5.9"/><path class="q" d="m193.8,103c-.6,3.6-.9,5.9-.9,5.9"/><path class="q" d="m195.6,91.6c-.5,3-.9,5.9-1.3,8.5"/><path class="q" d="m203.2,49.3c-1.4,6.9-2.8,14.1-3.8,19.2-.9,5.2-2.2,12.8-3.3,20.1"/><path class="q" d="m205.5,38.3c-.5,2.4-1.1,5.1-1.6,7.9"/><path class="q" d="m207.4,29.1s-.5,2.4-1.3,6.1"/><path class="q" d="m202,104.5c-.8,3.5-1.2,5.8-1.2,5.8"/><path class="q" d="m204.4,93.2c-.6,3-1.2,5.9-1.8,8.4"/><path class="q" d="m212.1,50.9c-1,6.9-2.1,14.1-3.1,19.2-1,5.2-2.5,12.9-4,20.2"/><path class="q" d="m213.7,39.8c-.3,2.4-.7,5.1-1.1,8"/><path class="q" d="m215,30.5s-.3,2.4-.8,6.1"/><path class="q" d="m210,106c-.9,3.6-1.4,5.9-1.4,5.9"/><path class="q" d="m212.7,94.7c-.7,3-1.4,5.9-2,8.4"/><path class="q" d="m220.4,52.5c-.9,7-1.9,14.4-2.8,19.5-.9,5.2-2.6,12.7-4.2,19.8"/><path class="q" d="m221.7,41.6c-.3,2.4-.6,5-.9,7.9"/><path class="q" d="m222.7,32.1s-.3,2.5-.7,6.3"/><path class="q" d="m216.3,107.2c-1,3.6-1.7,5.9-1.7,5.9"/><path class="q" d="m219.5,95.9c-.8,3-1.6,5.8-2.3,8.3"/><path class="q" d="m227.2,53.9c-.6,7.3-1.4,15-2.4,20.2-.9,5-2.7,12.1-4.5,18.9"/><path class="q" d="m228,43.1c-.2,2.3-.3,5-.6,7.7"/><path class="q" d="m228.5,33.7s-.1,2.4-.4,6.2"/><polygon class="q" points="222.4 105.2 222.6 105.2 221.4 108.1 221.3 108.1 216.3 107.2 210 106 202 104.5 193.8 103 184.7 101.4 178.5 100.2 174.4 99.5 174.3 99.5 174.1 96.4 174.3 96.4 178.7 97.2 185.1 98.4 194.3 100 202.6 101.6 210.7 103 217.1 104.2 222.4 105.2"/><path class="q" d="m233.8,44.5c.1,0,.2,0,.2,0l-.3-3.1h0c-.2,0-2.3-.7-5.5-1.5-1.8-.5-3.8-1-6.1-1.5-2.5-.6-5.2-1.2-7.9-1.7-1.2-.2-2.4-.5-3.7-.7-1.5-.3-2.9-.5-4.4-.7-3.1-.5-6.1-.9-8.8-1.3-2.5-.3-4.8-.6-6.6-.8-2.3-.3-3.9-.4-4.3-.5,0,0,0,0,0,0l-1.3,2.8s0,0,.2,0c.6,0,2.2.3,4.4.6,1.9.2,4.3.5,6.8.9,3,.4,6.1.9,8.9,1.3,1.7.3,3.2.5,4.5.8,1.1.2,2.4.5,3.7.8,2.5.5,5.3,1.2,8,1.8,2.2.5,4.4,1,6.3,1.5,2.9.7,5.1,1.2,5.8,1.4Z"/><path class="q" d="m233.5,55.2c.1,0,.2,0,.2,0v-3.1c0,0,0,0,0,0-.5-.1-3-.6-6.2-1.3-2-.4-4.3-.9-6.6-1.4-2.9-.6-5.8-1.2-8.2-1.7-1.8-.4-3.3-.6-4.4-.9-1.1-.2-2.6-.5-4.3-.7-2.7-.5-6-1-9.1-1.5-2.7-.4-5.3-.8-7.4-1.2-2.4-.4-4.1-.6-4.6-.7,0,0-.1,0-.1,0l-1,2.8s0,0,.2,0c.6,0,2.3.4,4.6.8,2.1.4,4.8.8,7.5,1.3,3.1.5,6.3,1.1,9.2,1.6,1.6.3,3.1.5,4.4.7,1.3.2,2.9.5,4.6.8,2.6.5,5.5,1.1,8.3,1.6,2.4.5,4.7,1,6.8,1.4,3.2.7,5.6,1.2,6.3,1.3Z"/><polygon class="q" points="226.4 94.1 226.7 94.1 225.6 97 225.4 97 219.5 95.9 212.7 94.7 204.4 93.2 195.6 91.6 186.3 89.9 179.6 88.6 174.6 87.7 174.4 87.7 174.5 84.6 174.8 84.7 179.9 85.6 186.7 86.9 196.1 88.6 205 90.2 213.4 91.7 220.3 93 226.4 94.1"/></svg>