<?xml version="1.0" encoding="UTF-8"?><svg id="a" xmlns="http://www.w3.org/2000/svg" width="257" height="167" xmlns:xlink="http://www.w3.org/1999/xlink" viewBox="0 0 257 167"><defs><style>.s{fill:url(#r);}.s,.t,.u,.v,.w,.x,.y{stroke:#010101;}.s,.y{stroke-width:.3px;}.t{fill:#d7af82;}.t,.u{stroke-width:.3px;}.t,.u,.v,.w,.x{stroke-miterlimit:10;}.u,.y{fill:none;}.v{fill:#e5c29e;}.w{fill:#b4b4b4;}.x{fill:#f6eb16;}.z{fill:#f4cc13;}.z,.aa,.ab,.ac,.ad,.ae,.af,.ag,.ah,.ai,.aj,.ak,.al,.am,.an,.ao,.ap,.aq,.ar,.as,.at,.au,.av,.aw,.ax,.ay,.az,.ba,.bb,.bc,.bd,.be,.bf,.bg,.bh,.bi,.bj,.bk,.bl,.bm,.bn,.bo,.bp,.bq,.br,.bs,.bt,.bu,.bv,.bw{stroke-width:0px;}.aa{fill:#f7c3da;}.ab{fill:#f8e27f;}.ac{fill:#4c489d;}.ad{fill:#47392e;}.ae{fill:#9a8166;}.af{fill:#5356a5;}.ag{fill:#971d20;}.ah{fill:#363230;}.ai{fill:#252626;}.aj{fill:#cf2028;}.ak{fill:#c6916b;}.al{fill:#e1e1df;}.am{fill:#d3b52a;}.an{fill:#dab280;}.ao{fill:#dc2d28;}.ap{fill:#d9dddf;}.aq{fill:#c0282d;}.ar{fill:#cdab2c;}.as{fill:#c45963;}.at{fill:#c42828;}.au{fill:#c39a6c;}.av{fill:#c2a12e;}.aw{fill:#b48a60;}.ax{fill:#bc2328;}.ay{fill:#a14a59;}.az{fill:#fbd94b;}.ba{fill:#6b5d51;}.bb{fill:#f3d12d;}.bc{fill:#e3c722;}.bd{fill:#fff;}.be{fill:#eb2127;}.bf{fill:#e4be22;}.bg{fill:#eeedee;}.bh{fill:url(#b);}.bi{fill:url(#c);}.bj{fill:url(#e);}.bk{fill:url(#f);}.bl{fill:url(#d);}.bm{fill:url(#j);}.bn{fill:url(#q);}.bo{fill:url(#i);}.bp{fill:url(#h);}.bq{fill:url(#m);}.br{fill:url(#g);}.bs{fill:url(#o);}.bt{fill:url(#p);}.bu{fill:url(#k);}.bv{fill:url(#n);}.bw{fill:url(#l);}</style><linearGradient id="b" x1="128.5" y1="0" x2="128.5" y2="167" gradientUnits="userSpaceOnUse"><stop offset="0" stop-color="#50b4d2"/><stop offset="1" stop-color="#ccecfc"/></linearGradient><linearGradient id="c" x1="81.9" y1="55.4" x2="103.7" y2="55.4" gradientTransform="translate(-7.7 22.1) rotate(-9.8)" gradientUnits="userSpaceOnUse"><stop offset="0" stop-color="#c0282d"/><stop offset="0" stop-color="#eb2127"/><stop offset=".8" stop-color="#c0282d"/><stop offset="1" stop-color="#971d20"/></linearGradient><linearGradient id="d" x1="82.7" y1="96.4" x2="101.4" y2="96.4" xlink:href="#c"/><linearGradient id="e" x1="100.2" y1="50" x2="95.6" y2="50" gradientTransform="translate(-7.7 22.1) rotate(-9.8)" gradientUnits="userSpaceOnUse"><stop offset="0" stop-color="#971d20"/><stop offset=".8" stop-color="#c0282d"/><stop offset="1" stop-color="#c0282d"/></linearGradient><linearGradient id="f" x1="89.3" y1="40.9" x2="96.3" y2="40.9" xlink:href="#c"/><linearGradient id="g" x1="89.3" y1="41.6" x2="96.2" y2="41.6" xlink:href="#c"/><linearGradient id="h" x1="89.3" y1="40.1" x2="96.3" y2="40.1" gradientTransform="translate(-2.2 5.6)" xlink:href="#c"/><linearGradient id="i" x1="91.5" y1="38.8" x2="94.1" y2="38.8" gradientTransform="translate(-2.4 5.6)" gradientUnits="userSpaceOnUse"><stop offset="0" stop-color="#c0282d"/><stop offset="0" stop-color="#eb2127"/><stop offset=".6" stop-color="#c0282d"/><stop offset=".9" stop-color="#971d20"/><stop offset="1" stop-color="#231f20"/></linearGradient><linearGradient id="j" x1="89.3" y1="41.7" x2="96.2" y2="41.7" xlink:href="#c"/><linearGradient id="k" x1="85.8" y1="48.1" x2="90.2" y2="48.1" gradientTransform="translate(-7.7 22.1) rotate(-9.8)" gradientUnits="userSpaceOnUse"><stop offset="0" stop-color="#971d20"/><stop offset=".5" stop-color="#c0282d"/><stop offset=".9" stop-color="#eb2127"/><stop offset="1" stop-color="#c0282d"/></linearGradient><linearGradient id="l" x1="83.4" y1="63.7" x2="83.4" y2="76.4" xlink:href="#c"/><linearGradient id="m" x1="83.5" y1="63.7" x2="83.5" y2="76.2" xlink:href="#c"/><linearGradient id="n" x1="78.8" y1="63.8" x2="86.2" y2="63.8" gradientTransform="translate(-7.7 22.1) rotate(-9.8)" gradientUnits="userSpaceOnUse"><stop offset="0" stop-color="#c0282d"/><stop offset="1" stop-color="#eb2127"/></linearGradient><linearGradient id="o" x1="78.8" y1="76.3" x2="86.3" y2="76.3" xlink:href="#n"/><linearGradient id="p" x1="82.7" y1="63.7" x2="82.7" y2="76.4" xlink:href="#c"/><linearGradient id="q" x1="216.3" y1="63.8" x2="228.4" y2="63.8" gradientTransform="translate(-7.7 22.1) rotate(-9.8)" gradientUnits="userSpaceOnUse"><stop offset="0" stop-color="#f7c2d9"/><stop offset="1" stop-color="#e90e8b"/></linearGradient><linearGradient id="r" x1="16.2" y1="90.8" x2="60.3" y2="90.8" gradientTransform="translate(-7.7 22.1) rotate(-9.8)" gradientUnits="userSpaceOnUse"><stop offset="0" stop-color="#9c9ea1"/><stop offset=".2" stop-color="#bebfc1"/><stop offset=".6" stop-color="#636467"/><stop offset="1" stop-color="#000"/></linearGradient></defs><rect class="bh" width="257" height="167"/><polygon class="x" points="169.9 165.3 158.3 165.3 127.7 101.2 96.6 165.3 86 165.3 122.9 89.5 132.5 89.5 169.9 165.3"/><path class="w" d="m127.9,88.6c2.8,0,5.1,2.1,5.1,4.6s-2.3,4.6-5.1,4.6-5.1-2.1-5.1-4.6,2.3-4.6,5.1-4.6Z"/><rect class="v" x="6.5" y="98.4" width="243.2" height="6.2" transform="translate(-15.7 23.8) rotate(-10)"/><polygon class="aq" points="109.3 71 109.2 71 109.1 72.8 108.6 72.7 108.3 72.8 108 71.2 109.3 71"/><polygon class="aq" points="109.8 74.3 109.8 74.4 108.6 74.5 108.3 72.8 108.6 72.7 109.1 72.8 109.7 74.4 109.8 74.3"/><path class="aq" d="m109.4,79.2h0s-3.6.7-3.6.7c-.8-4.5-1.6-9-2.2-12.4l3.6-.6c-.8.4-1.1,3.2-.5,6.5.6,3.3,1.8,5.9,2.7,5.9Z"/><polygon class="aq" points="108.3 72.8 108.6 74.5 108.5 74.5 107.8 72.9 108 71.2 108 71.2 108.3 72.8"/><path class="bi" d="m88.3,59.4c3-.4,6.1-.9,9.9-1.7,1-.2,2-.4,3.1-.7.3,0,.6-.1.9-.2.6-.1,1.1-.4,1.4.2.2.4.2,1,.3,1.5.1.8.3,1.5.4,2.3,0,.1-.8.4-1.7.6-1,.3-2.2.6-2.4.6-.2,0-.4,0-.6.1-3.6.8-7.1,1.5-10.9,1.9-.6,0-1.1.1-1.7.2-.7,0-1.5.1-2.3.2-.4,0-.7,0-1.1,0-.8,0-.8-.3-.9-1,0-.5-.2-1-.2-1.4,0-.4-.3-1.2-.3-1.6,0-.3.9-.5,2.2-.6.9,0,2.1-.2,3.2-.3.2,0,.4,0,.6,0Z"/><path class="at" d="m103.6,67.5c.6,3.5,1.4,8,2.2,12.4l-1.4.2s-1.4-.4-2.4-6c-.9-5,.2-6.5.2-6.5l1.4-.2Z"/><path class="bl" d="m95.2,100.5c3.9-.4,7.4-1.1,11-2.1h0c0,.4.5,0,.9-.2.2,0,.3,0,.5-.1,0,0,0,0,.1.1.3.6.8.1,1.1,1.6,0,.5.2,1.1.2,1.6-4.4,1-17.9,3.5-18.1,3.1-.3-.8-.7-2.1-.7-2.9,0-.3.9-.4.9-.7,1.5,0,2.8-.2,4.2-.3Z"/><path class="bj" d="m97.6,56c-.2,0-.3-.2-.4-.4,0-.3-.4-1.2-.8-2.2.4.9.8,1.7,1.2,2.6Z"/><path class="bk" d="m89.4,47.5c0,0-.2,0-.3.1l-1.5.3c-.1,0-.2,0-.2-.2l-.2-1.3c0-.1,0-.2.2-.2l2-.3h0c0,.1,2.6-.3,2.6-.3h0c0-.1,1.9-.5,1.9-.5.1,0,.2,0,.2.2l.2,1.3c0,.1,0,.2-.2.2l-1.3.2c-.6,0-1.3,0-2,.1-.5,0-1,.2-1.5.4Z"/><path class="br" d="m92.9,47h-.4c0,0-3.1.6-3.1.6,0,0,0,0,0,0,.5-.2.9-.3,1.5-.4.7-.1,1.4-.2,2-.1Z"/><path class="at" d="m100,88.8c.2,1.1,1.4,7.4,1.5,8.4,0,.4-.4.7-.9.9h0c-.1-2.8-1-6.7-1.7-9.9h0c.6,0,1.1.1,1.2.6Z"/><rect class="bp" x="89.3" y="45.6" width="2.6" height=".1" transform="translate(-6.5 16.2) rotate(-9.8)"/><rect class="bo" x="89.1" y="43.2" width="2.6" height="2.5" transform="translate(-6.3 16.1) rotate(-9.8)"/><path class="ax" d="m98.8,88.2c.7,3.2,1.6,7.1,1.7,9.8h0c-.9.4-2.2.3-2.4-.2-.3-.9-1.2-7.7-1.5-8.4,0-.7,1.1-1.1,2.1-1.2h0Z"/><path class="ax" d="m91.1,48.3c1.1,2.8,1.7,5.8,1.8,8.8h0c-.7.2-1.5.1-1.6-.3-.3-.8-.5-7-.8-7.7,0-.4.2-.7.6-.8Z"/><path class="bm" d="m89.4,47.5s0,0,0,0h-.2c0,0,.2,0,.3,0Z"/><path class="bu" d="m88.3,50.9c-.2,2-.4,5.7-.3,6.4,0,.1,0,.2,0,.3-.2-2.2-.1-4.5.4-6.7Z"/><path class="ax" d="m89.9,70.6c.3,0,2.2.7,3,5.2.7,4-.5,5.3-1,5.6-.7-3.9-1.4-7.7-1.9-10.8Z"/><path class="aj" d="m107.1,98.2c.2,0,.3,0,.5-.1-.1,0-.3,0-.5.1Z"/><path class="aj" d="m104.6,96.3c-.2-.9-1.2-7.6-1.5-8.4,0-.5.4-.9,1-1-.8-4.5-1.7-9.2-2.3-12.7-.2-1-.3-1.8-.5-2.6h0c-.5-3-1.3-7.2-1.8-9.6-3.6.8-7.1,1.5-10.9,1.9.2,1.1.7,3.5,1.2,6.6.3,0,2.2.7,3,5.2.7,4-.5,5.3-1,5.6,1.5,8.5,3,17.2,3.4,19.1,3.9-.4,7.4-1.1,11-2.1,0-.5-.2-1-.3-1.6-.6,0-1.2,0-1.3-.5Zm-3.1.9c0,.4-.4.7-.9.9-.9.3-2.2.3-2.4-.3-.3-.9-1.2-7.7-1.5-8.4,0-.7,1.1-1.1,2.1-1.2.6,0,1.1.2,1.2.6.2,1.1,1.4,7.4,1.5,8.4Z"/><path class="aj" d="m98.2,57.7h0c-.2-.6-.4-1.2-.6-1.7-.2,0-.3-.2-.4-.4,0-.3-.4-1.2-.8-2.2,0,0,0,0,0,0-.5-1.1-1.1-2.2-1.6-3.3-.5-1.2-1.1-2.5-2.4-2.9h0s-3.1.5-3.1.5c-.4,1.1-.8,2.2-1,3.3-.2,2-.4,5.7-.3,6.4,0,.1,0,.2,0,.3,0,.6.2,1.2.3,1.8,3-.4,6.1-.9,9.9-1.7Zm-7.7-8.6c0-.4.2-.7.6-.8,1.1,2.8,1.7,5.8,1.8,8.8h0c-.7.2-1.5.1-1.6-.3-.3-.8-.5-7-.8-7.7Z"/><path class="aj" d="m90.8,90.1c.3.8,1.2,7.5,1.5,8.4.2.7,1.5.7,2.1.2.2-.2.4-.4.3-.6-.1-1-1.3-7.4-1.5-8.4-.2-1.1-2.5-.7-2.4.4Z"/><path class="ax" d="m89.9,70.6c.6,3.1,1.2,6.9,1.9,10.8-.1,0-.2.1-.2.1l-3.7,1.3c0,0,0-.1,0-.2,1.3-1.1,1.9-3.6,1.4-6.3s-1.9-4.8-3.4-5.4c0,0,0-.1,0-.2h4c0-.1,0-.1,0-.1Z"/><path class="aq" d="m86.7,75.7c0,0,0-.1,0-.2l.4.2.2,1.5-.3.3c-.1-.6-.2-1.2-.3-1.8Z"/><path class="bw" d="m87.9,82.6c0,0,0,.1,0,.2l-.7.2c.2-.1.4-.2.6-.4Z"/><path class="aq" d="m86.7,75.7c.1.6.2,1.2.3,1.8l-.7.7h-.4c0,.1-.1-.5-.1-.5l.2-.3-.3-1.7-.4-.2v-.4c0,0,.4,0,.4,0l.8.4c0,0,0,.1,0,.2Z"/><path class="bq" d="m85.8,70.7c0,0,0,.1,0,.2-.2,0-.5-.2-.7-.2h.7Z"/><path class="bv" d="m85.1,70.7h-.6c.2,0,.4,0,.6,0Z"/><path class="bs" d="m86.9,83.2h.3c0,0-.2,0-.3,0Z"/><polygon class="be" points="85.8 75.8 86 77.5 85.8 77.7 85.4 75.6 85.8 75.8"/><path class="bt" d="m86.9,83.2h0s0,0,0,0c0,0,0,0,0,0Z"/><path class="ao" d="m89.1,47.6c-5.7,2.4-4.9,11-4.7,12.1.9,0,2.1-.2,3.2-.3.2,0,.4,0,.6,0-.1-.6-.2-1.2-.3-1.8-.2-2.2-.1-4.5.4-6.7.2-1.1.6-2.2,1-3.3h-.2Z"/><path class="ao" d="m91.6,81.5l-3.7,1.3c1.5,8.8,3,17.6,3.1,18,0,0,0,0,0,0,1.5,0,2.8-.2,4.2-.3-.4-2-1.9-10.6-3.4-19.1-.1,0-.2.1-.2.1Zm3.1,16.6c0,.3-.1.5-.3.6-.6.5-1.9.5-2.1-.2-.2-.9-1.2-7.6-1.5-8.4,0-1.1,2.3-1.5,2.4-.4.2,1.1,1.4,7.4,1.5,8.4Z"/><path class="ao" d="m89.9,70.6c-.5-3.1-1-5.5-1.2-6.6-.6,0-1.1.1-1.7.2-.7,0-1.5.1-2.3.2,0,.4.5,2.9,1.1,6.3h4c0-.1,0-.1,0-.1Z"/><path class="ao" d="m89.3,76.3c-.5-2.7-1.9-4.8-3.4-5.4-.2,0-.5-.2-.7-.2h-.6c-2,.4-3.2,3.5-2.6,6.9s2.7,5.9,4.8,5.6c0,0,0,0,.1,0,0,0,0,0,0,0,0,0,0,0,0,0h.3c0-.1,0-.1,0-.1.2-.1.4-.2.6-.4,1.3-1.1,1.9-3.6,1.4-6.3Zm-3,1.9h-.4c0,.1-.7.3-.7.3h0s0,0,0,0l-1-.6-.2-1.7.8-1h0s0,0,0,0h.6s.5,0,.5,0l.8.4.4.2.2,1.5-.3.3-.7.7Z"/><polygon class="aq" points="85.8 77.7 85.9 78.3 85.2 78.5 85.8 77.7"/><polygon class="be" points="85.4 75.6 85.8 77.7 85.2 78.5 85.2 78.5 84.8 75.2 85.4 75.6"/><polygon class="aq" points="85.4 75.6 84.8 75.2 84.8 75.2 85.4 75.2 85.4 75.6"/><polygon class="be" points="84.7 75.2 84.8 75.2 85.2 78.5 84.2 77.8 83.9 76.2 84.7 75.2"/><path class="ag" d="m109.9,70.9h-.2c-.7-2.5-1.6-4.2-2.4-4.1,0,0,0,0-.1,0-.8.4-1.1,3.2-.5,6.5.6,3.3,1.8,5.9,2.7,5.9,0,0,0,0,0,0,.8-.1,1.1-2.3.8-5h.1s0-1.8,0-1.8l-.7-1.6Zm0,3.5l-1.3.2h0s-.7-1.6-.7-1.6l.2-1.8h0s1.3-.2,1.3-.2h-.2s0,1.8,0,1.8l.7,1.6h.1s0,0,0,0Z"/><path class="ag" d="m108.9,97.7c0-.4-1.6-9.1-3.1-17.8l-1.4.2s-1.4-.4-2.4-6c-.9-5,.2-6.5.2-6.5l1.4-.2c-.6-3.2-1-5.6-1.1-6.1-1,.3-2.2.6-2.4.6-.2,0-.4,0-.6.1.4,2.3,1.2,6.6,1.8,9.6h0c.1.7.3,1.6.5,2.6.6,3.4,1.5,8.1,2.3,12.7-.5.1-1,.5-1,1,.3.8,1.2,7.5,1.5,8.4.1.5.7.6,1.3.5.1.6.2,1.1.3,1.6h0c0,.4.5,0,.9-.2.2-.1.3-.2.5-.1,0,0,0,0,.1.1.3.6.8.1,1.1,1.6,0,.5.2,1.1.2,1.6.8-.2,1.3-.3,1.4-.4.5-.6,0-2.3-.3-2.9-.1-.3-1.1,0-1.1-.4Z"/><path class="ag" d="m98.2,57.6h0c1-.2,2-.4,3.1-.7h0s-1.1-9.7-8.4-10h-.4c0,0,0,.1,0,.1,1.2.4,1.9,1.7,2.4,2.9.5,1.2,1,2.2,1.6,3.3,0,0,0,0,0,0,.4.9.8,1.7,1.2,2.6.2.5.4,1.1.6,1.7Z"/><polygon class="ag" points="85.2 78.5 85.2 78.5 85.2 78.5 85.2 78.5"/><path class="y" d="m92.9,47c7.3.3,8.4,9.9,8.4,9.9"/><path class="y" d="m84.4,59.9s0,0,0-.1c-.1-1.2-1-9.7,4.7-12.1"/><path class="y" d="m101.3,57c.3,0,.6-.1.9-.2.6-.1,1.1-.4,1.4.2.2.4.2,1,.3,1.5.1.8.3,1.5.4,2.3,0,.1-.8.4-1.7.6-1,.3-2.2.6-2.4.6-.2,0-.4,0-.6.1-3.6.8-7.1,1.5-10.9,1.9-.6,0-1.1.1-1.7.2-.7,0-1.5.1-2.3.2-.4,0-.7,0-1.1,0-.8,0-.8-.3-.9-1,0-.5-.2-1-.2-1.4,0-.4-.3-1.2-.3-1.6,0-.3.9-.5,2.2-.6.9,0,2.1-.2,3.2-.3.2,0,.4,0,.6,0,3-.4,6.1-.9,9.9-1.7,1-.2,2-.4,3.1-.7Z"/><path class="y" d="m85.8,70.7c-.6-3.4-1-5.9-1.1-6.3,0,0,0,0,0,0"/><path class="y" d="m105.8,79.9c1.5,8.8,3,17.4,3.1,17.8,0,.3,1,0,1.1.4.2.6.7,2.3.3,2.9,0,0-.5.2-1.4.4-4.4,1-17.9,3.5-18.1,3.1-.3-.8-.7-2.1-.7-2.9,0-.3.9-.4.9-.7,0,0,0,0,0,0,0-.4-1.6-9.2-3.1-18"/><path class="y" d="m102.5,61.2s0,0,0,.1c0,.6.5,2.9,1.1,6.1"/><path class="y" d="m85.1,70.7h.7s4-.2,4-.2c0,0,0,0,0,0,.3,0,2.2.7,3,5.2.7,4-.5,5.3-1,5.6-.1,0-.2.1-.2.1l-3.7,1.3-.7.2"/><polyline class="y" points="86.9 83.2 86.8 83.2 86.8 83.2"/><path class="y" d="m85.9,70.9c1.6.6,3,2.8,3.4,5.4s-.1,5.2-1.4,6.3c-.2.2-.4.3-.6.4,0,0,0,0,0,0,0,0-.2,0-.3.1,0,0,0,0,0,0,0,0,0,0,0,0,0,0,0,0-.1,0-2,.4-4.2-2.2-4.8-5.6-.6-3.4.6-6.5,2.6-6.9.2,0,.4,0,.6,0,.2,0,.5,0,.7.2Z"/><polyline class="y" points="84.8 75.2 84.8 75.2 85.4 75.2 85.9 75.2 86.7 75.5 87.1 75.7 87.3 77.2 87 77.5 86.3 78.2 85.9 78.3 85.2 78.5 85.2 78.5 85.2 78.5"/><polygon class="y" points="85.2 78.5 85.2 78.5 84.2 77.8 83.9 76.2 84.7 75.2 84.8 75.2 85.4 75.6 85.8 75.8 86 77.5 85.8 77.7 85.2 78.5"/><polyline class="y" points="86.2 75.7 86.7 75.7 86.7 75.7"/><line class="y" x1="86.5" y1="77.4" x2="87" y2="77.3"/><path class="y" d="m109.4,79.2h0s-3.6.7-3.6.7l-1.4.2s-1.4-.4-2.4-6c-.9-5,.2-6.5.2-6.5l1.4-.2,3.6-.6"/><path class="y" d="m110.3,74.3c.3,2.7,0,4.8-.8,5,0,0,0,0,0,0-.9,0-2.1-2.6-2.7-5.9-.6-3.3-.3-6.1.5-6.5,0,0,0,0,.1,0,.8-.1,1.7,1.6,2.4,4.1"/><polyline class="y" points="109.8 74.3 109.8 74.4 108.6 74.5 108.5 74.5 107.8 72.9 108 71.2 108 71.2 109.3 71"/><polygon class="y" points="109.7 70.9 109.9 70.9 110.6 72.5 110.5 74.2 110.3 74.3 109.8 74.3 109.7 74.4 109.1 72.8 109.2 71 109.3 71 109.7 70.9"/><polyline class="y" points="108.2 72.8 108.3 72.8 108.6 72.7"/><polyline class="y" points="89.3 45.9 88.9 43.4 91.5 42.9 91.9 45.4"/><line class="y" x1="89.4" y1="43.4" x2="89.7" y2="45.2"/><line class="y" x1="90.8" y1="43.2" x2="91.1" y2="45"/><path class="y" d="m91.9,45.4l1.9-.3c.1,0,.2,0,.2.2l.2,1.3c0,.1,0,.2-.2.2l-1.3.2h-.4c0,0-3.1.6-3.1.6h-.2s-1.5.3-1.5.3c-.1,0-.2,0-.2-.2l-.2-1.3c0-.1,0-.2.2-.2l2-.3,2.6-.5Z"/><path class="y" d="m94.7,98.1c0,.3-.1.5-.3.6-.6.5-1.9.5-2.1-.2-.2-.9-1.2-7.6-1.5-8.4,0-1.1,2.3-1.5,2.4-.4.2,1.1,1.4,7.4,1.5,8.4Z"/><path class="y" d="m98.8,88.2c.6,0,1.1.2,1.2.6.2,1.1,1.4,7.4,1.5,8.4,0,.4-.4.7-.9.9-.9.3-2.2.3-2.4-.3-.3-.9-1.2-7.7-1.5-8.4,0-.7,1.1-1.1,2.1-1.2Z"/><path class="y" d="m104.1,86.9c.6-.1,1.3,0,1.4.6.2,1.1,1.4,7.4,1.5,8.4,0,.4-.2.6-.6.8-.1,0-.3,0-.4.1-.6,0-1.2,0-1.3-.5-.2-.9-1.2-7.6-1.5-8.4,0-.5.4-.9,1-1Z"/><path class="y" d="m91.1,48.3c.4-.1,1,0,1.1.5.2,1,1.9,6.5,2,7.4,0,.4-.6.8-1.2.9-.7.2-1.5,0-1.6-.3-.3-.8-.5-7-.8-7.7,0-.4.2-.7.6-.8Z"/><path class="y" d="m88.3,50.9c-.2,2-.4,5.7-.3,6.4,0,.1,0,.2,0,.3"/><path class="y" d="m96.4,53.3c.4,1,.7,1.9.8,2.2,0,.2.2.3.4.4.3.1.7.1,1.1,0,.6-.1,1-.4,1-.8,0-.9-3.3-5.8-4.4-6.7-.8-.7-1.3-.7-1.3-.4"/><path class="y" d="m90.9,100.9h.1c1.5,0,2.8-.2,4.2-.4,3.9-.4,7.4-1.1,11-2.1.3,0,.6-.1.9-.2.2,0,.3,0,.5-.1.4-.1.9-.2,1.3-.4"/><path class="bf" d="m241.7,60h0c-.6.3-1.3.5-2.3.9,0-.2,0-.4,0-.6.5-.2.9-1,.7-2.1,0-.1,0-.3,0-.5,1.7-.5,2.7-1,2.6-1.2h0s0,2.8,0,2.8h0c0,.2-.3.4-.9.7Z"/><path class="ar" d="m239.4,60.9c1-.3,1.8-.6,2.3-.9v1.2c-.9.4-2,.7-3.1,1,0-.5,0-.9-.1-1.1.3,0,.6-.2.9-.3Z"/><path class="bf" d="m241.7,61.2l.8,16.2c-.3.3-1.6.6-3.4,1h0c.6-3.6-.1-12.8-.5-16.3,1.1-.3,2.1-.7,3.1-1Z"/><path class="am" d="m242.5,56.5c0,.2-.9.6-2.6,1.2,0-.3-.2-.8-.3-1.2,1.8-.2,2.9-.2,3,0Z"/><path class="bd" d="m239.3,59.6c.2-.1.3-.4.3-.7,0-.2-.2-.4-.4-.5,0,0-.2,0-.2,0-.3,0-.5.4-.4.7,0,.3.3.6.6.5,0,0,0,0,.1,0Zm0,.8c-.6.2-1.3-.2-1.5-1.5,0-.1,0-.3,0-.4.8-.2,1.6-.4,2.2-.6,0,.2,0,.3,0,.5.2,1.2-.2,1.9-.7,2.1Z"/><path class="bd" d="m239.6,56.5c.1.5.2.9.3,1.2-.6.2-1.4.4-2.2.6,0-.4-.2-1-.5-1.6.9-.1,1.6-.2,2.3-.3Z"/><path class="bd" d="m239.6,56.5c-.7,0-1.5.2-2.3.3-1.2-3.5-4.2-9.2-9.7-10.6.2-.1.4-.2.6-.3,6.9-.6,10.3,6.8,11.4,10.6Z"/><path class="av" d="m239.2,58.4c.2,0,.3.3.4.5,0,.3,0,.5-.3.7,0-.4,0-.8,0-1.2Z"/><path class="av" d="m239.2,58.4c0,.4,0,.8,0,1.2,0,0,0,0-.1,0-.3,0-.6-.2-.6-.5,0-.3.1-.7.4-.7,0,0,.2,0,.2,0Z"/><path class="bb" d="m238.5,61.2c-2.1.6-4.9,1.3-7.9,1.8-3.1.5-6,.9-8.2,1-.2,0-.5,0-.7,0h0c-.3-.9-.4-2.4-.4-2.9,2.4-.1,5.6-.5,9-1.1,2.8-.5,5.4-1.1,7.4-1.6,0,.1,0,.3,0,.4.2,1.3,1,1.8,1.5,1.5,0,.2,0,.4,0,.6-.3,0-.6.2-.9.3Z"/><path class="am" d="m238.5,61.2c0,.2,0,.6.1,1.1-5.2,1.5-11.3,2.6-15.9,2.9-.1-.4-.3-.7-.3-1v-.2c2.2-.1,5-.4,8.2-1,3-.5,5.8-1.2,7.9-1.8Z"/><path class="am" d="m221.3,61.1c-.6,0-1.1,0-1.6,0-1.4,0-2.3,0-2.5-.2,0,0,0,0,0,0,0-.2,1.3-.7,3.6-1.2,2.3-.5,5.4-1.2,8.9-1.8,2.8-.5,5.4-.9,7.5-1.1.2.6.4,1.2.5,1.6-2,.6-4.6,1.1-7.4,1.6-3.4.6-6.6.9-9,1.1Z"/><path class="bb" d="m238.6,62.3c.4,3.5,1.1,12.7.5,16.2h0c-3.3.7-8.1,1.5-11.5,1.9-.8-3-3.7-11.9-4.9-15.3,4.6-.3,10.6-1.3,15.9-2.9Z"/><path class="bn" d="m228.2,45.9s0,0,0,0c-.3,0-.7,0-1,.1.4,0,.7-.1,1.1-.2Z"/><path class="aa" d="m227.1,46c.4,0,.7-.1,1-.1-.2,0-.4.2-.6.3-.2,0-.4,0-.6-.1,0,0,0,0,.1,0,0,0,0,0,0,0Z"/><path class="al" d="m227,46.1c.2,0,.4,0,.6.1-6.2,3.4-5.5,13.2-5.5,13.2l-1.3.3-.7.2s-.9-11.9,6.8-13.8Z"/><path class="aa" d="m227.1,46s0,0-.1,0c0,0,0,0,0,0,0,0,0,0,.1,0Z"/><path class="ab" d="m222.7,65.1c1.2,3.4,4,12.3,4.9,15.3-.6,0-1.1.1-1.6.2-.6-2.5-3.6-11.6-4.8-15.4.5,0,1.1,0,1.6,0Z"/><path class="bc" d="m222.4,64.1c0,.2.2.6.3,1-.6,0-1.1,0-1.6,0-.2-.5-.3-.9-.4-1.2.3,0,.6,0,1,0,.2,0,.5,0,.7,0v.2Z"/><path class="az" d="m221.1,65.2c1.3,3.8,4.2,13,4.8,15.4-.7,0-1.3,0-1.7,0h0s-4.8-15.5-4.8-15.5c.5,0,1.1,0,1.7,0Z"/><path class="ab" d="m220.7,64c-.3,0-.5,0-.7,0-.3-1-.2-2.5-.2-2.5v-.3c.5,0,1,0,1.6,0,0,.5,0,2,.4,2.8h0c-.4.1-.7.1-1,.1Z"/><path class="bc" d="m220,64c.2,0,.5,0,.7,0,.1.3.2.7.4,1.2-.6,0-1.2,0-1.7,0l-.4-1.2c.3,0,.6,0,1,0Z"/><path class="az" d="m219,63.9c-.6,0-.9-.2-.9-.3h0s-.9-2.6-.9-2.6c.2.1,1.1.2,2.5.2v.3s0,1.5.3,2.5c-.4,0-.7,0-1,0Z"/><path class="y" d="m239.6,56.5c1.8-.2,2.9-.2,3,0s-.9.6-2.6,1.2"/><path class="y" d="m237.7,58.4c-2,.6-4.6,1.1-7.4,1.6-3.4.6-6.6.9-9,1.1-.6,0-1.1,0-1.6,0-1.4,0-2.3,0-2.5-.2,0,0,0,0,0,0,0-.2,1.3-.7,3.6-1.2,2.3-.5,5.4-1.2,8.9-1.8,2.8-.5,5.4-.9,7.5-1.1"/><path class="y" d="m241.7,60c-.6.3-1.3.5-2.3.9-.3,0-.6.2-.9.3-2.1.6-4.9,1.3-7.9,1.8-3.1.5-6,.9-8.2,1-.2,0-.5,0-.7,0-.4,0-.7,0-1,0-.3,0-.5,0-.7,0-.4,0-.7,0-1,0-.6,0-.9-.2-.9-.3"/><path class="y" d="m242.6,59.4c0,.2-.3.4-.9.6"/><path class="y" d="m242.5,77.5s0,0,0,0c-.3.3-1.6.6-3.4,1-3.3.7-8.1,1.5-11.5,1.9-.6,0-1.1.1-1.6.2-.7,0-1.3,0-1.7,0"/><polyline class="y" points="217.2 60.9 217.2 61 218.1 63.6"/><line class="y" x1="242.6" y1="56.5" x2="242.6" y2="59.4"/><polyline class="y" points="224.3 80.7 224.2 80.6 219.4 65.2 219 63.9 219 63.9"/><polyline class="y" points="242.5 77.5 241.7 61.2 241.7 60 241.7 60 241.7 60"/><path class="y" d="m227.5,46.2c-6.2,3.4-5.5,13.2-5.5,13.2l-1.3.3-.7.2s-.9-11.9,6.8-13.8"/><path class="y" d="m227.1,46c.4,0,.7-.1,1.1-.2,0,0,0,0,0,0"/><path class="y" d="m227.1,46s0,0-.1,0c0,0,0,0,0,0,.2,0,.4,0,.6.1,5.5,1.3,8.5,7.1,9.7,10.6.2.6.4,1.2.5,1.6,0,.1,0,.3,0,.4.2,1.3,1,1.8,1.5,1.5.5-.2.9-1,.7-2.1,0-.1,0-.3,0-.5,0-.3-.2-.8-.3-1.2-1.1-3.8-4.5-11.2-11.4-10.6-.3,0-.7,0-1,.1"/><path class="y" d="m239.2,58.4c.2,0,.3.3.4.5,0,.3,0,.5-.3.7,0,0,0,0-.1,0-.3,0-.6-.2-.6-.5,0-.3.1-.7.4-.7,0,0,.2,0,.2,0Z"/><path class="s" d="m68.1,106c.2,1.3-.4,2.6-3.2,3.1l-36.2,6.3c-2.8.5-3.8-.5-4-1.8l-1.7-9.6c-.2-1.3.4-2.6,3.2-3.1l36.2-6.3c2.8-.5,3.8.5,4,1.8l1.7,9.6Z"/><polyline class="y" points="23.1 103.2 24.2 104.1 25.1 104 25.9 102.7 26.8 102.5 27.9 103.5 28.8 103.3 29.6 102 30.5 101.9 31.6 102.9 32.5 102.7 33.2 101.4 34.2 101.2 35.3 102.2 36.2 102.1 36.9 100.8 37.8 100.6 39 101.6 39.9 101.4 40.6 100.1 41.5 100 42.7 100.9 43.6 100.8 44.3 99.5 45.2 99.3 46.3 100.3 47.3 100.1 48 98.8 48.9 98.7 50 99.7 51 99.5 51.7 98.2 52.6 98 53.7 99 54.6 98.9 55.4 97.6 56.3 97.4 57.4 98.4 58.3 98.2 59.1 96.9 60 96.8 61.1 97.7 62 97.6 62.7 96.3 63.7 96.1 64.8 97.1 65.7 96.9 66.4 95.6"/><polyline class="y" points="23.5 106 24.6 107 25.6 106.8 26.3 105.5 27.2 105.4 28.3 106.3 29.2 106.2 30 104.9 30.9 104.7 32 105.7 32.9 105.5 33.7 104.2 34.6 104.1 35.7 105.1 36.6 104.9 37.3 103.6 38.3 103.4 39.4 104.4 40.3 104.3 41 103 42 102.8 43.1 103.8 44 103.6 44.7 102.3 45.6 102.2 46.8 103.1 47.7 103 48.4 101.7 49.3 101.5 50.4 102.5 51.4 102.3 52.1 101 53 100.9 54.1 101.9 55.1 101.7 55.8 100.4 56.7 100.2 57.8 101.2 58.7 101.1 59.5 99.8 60.4 99.6 61.5 100.6 62.4 100.4 63.2 99.1 64.1 99 65.2 99.9 66.1 99.8 66.9 98.5"/><polyline class="y" points="23.9 108.7 25 109.7 25.9 109.5 26.7 108.2 27.6 108.1 28.7 109.1 29.6 108.9 30.4 107.6 31.3 107.4 32.4 108.4 33.3 108.3 34 107 35 106.8 36.1 107.8 37 107.6 37.7 106.3 38.7 106.2 39.8 107.1 40.7 107 41.4 105.7 42.3 105.5 43.5 106.5 44.4 106.3 45.1 105 46 104.9 47.2 105.9 48.1 105.7 48.8 104.4 49.7 104.2 50.8 105.2 51.8 105.1 52.5 103.8 53.4 103.6 54.5 104.6 55.5 104.4 56.2 103.1 57.1 103 58.2 103.9 59.1 103.8 59.9 102.5 60.8 102.3 61.9 103.3 62.8 103.1 63.6 101.8 64.5 101.7 65.6 102.7 66.5 102.5 67.2 101.2"/><polyline class="y" points="24.4 111.4 25.5 112.4 26.4 112.2 27.1 111 28.1 110.8 29.2 111.8 30.1 111.6 30.8 110.3 31.8 110.2 32.9 111.1 33.8 111 34.5 109.7 35.4 109.5 36.6 110.5 37.5 110.3 38.2 109 39.1 108.9 40.2 109.9 41.2 109.7 41.9 108.4 42.8 108.2 43.9 109.2 44.9 109.1 45.6 107.8 46.5 107.6 47.6 108.6 48.5 108.4 49.3 107.1 50.2 107 51.3 107.9 52.2 107.8 53 106.5 53.9 106.3 55 107.3 55.9 107.1 56.6 105.8 57.6 105.7 58.7 106.7 59.6 106.5 60.3 105.2 61.3 105 62.4 106 63.3 105.9 64 104.6 64.9 104.4 66.1 105.4 67 105.2 67.7 103.9"/><polyline class="y" points="24.8 114 25.9 114.9 26.9 114.8 27.6 113.5 28.5 113.3 29.6 114.3 30.5 114.1 31.3 112.8 32.2 112.7 33.3 113.6 34.2 113.5 35 112.2 35.9 112 37 113 37.9 112.9 38.6 111.6 39.6 111.4 40.7 112.4 41.6 112.2 42.3 110.9 43.3 110.8 44.4 111.7 45.3 111.6 46 110.3 46.9 110.1 48.1 111.1 49 110.9 49.7 109.6 50.6 109.5 51.7 110.5 52.7 110.3 53.4 109 54.3 108.8 55.4 109.8 56.4 109.7 57.1 108.4 58 108.2 59.1 109.2 60 109 60.8 107.7 61.7 107.6 62.8 108.5 63.7 108.4 64.5 107.1 65.4 106.9 66.5 107.9 67.4 107.7 68.2 106.4"/><path class="an" d="m194.2,85.8c0,0,0,.2,0,.3-1.5.4-3.4.8-4.8.9-.8,0-1.4,0-1.6-.2-.8-1.2-.2-1.8.3-2.5,0,0,.1,0,.2,0,.1,0,.1-.2.1-.5.2-.4.3-1,.1-1.7-1.2-4.1-2.5-9.4-3.6-13.8-.4-1.7-.8-3.3-1.1-4.6,0-.2,0-.3-.1-.5-1.5-1.4-3.4-6.2-4.2-9.9-.6-2.7-3.3-4.5-4.3-5.5-.7-.6-1.1-2.1-1.4-3.7,1.1-.4,2.2-1,3-1.5,2.4-1.4,3.2-2.3,4.2-4,.2.3.4.5.5.7,6.3,7.6,10.3,15.3,13.8,21.5,2.3,4.6,4.8,9.1,5,13.4,0,1-.6,2.4.4,6.1.3,1-.6,4.3-1.7,4.6-1.1.3-3.7.8-4.8.8Zm-3.9-17.3c.6,4.9,1.1,9.9,1.6,13,.2,1.4.8,1.6,1.3,2-.2-2.4,2.8-2,.5-8.1-.7-1.9-1.1-4.1-1.2-5.9-.7-.3-1.5-.6-2.2-.9Z"/><path class="au" d="m190.3,68.6c.7.3,1.5.6,2.2.9.2,1.8.5,4,1.2,5.9,2.2,6.1-.7,5.7-.5,8.1-.5-.4-1-.6-1.3-2-.5-3.1-1-8.1-1.6-13Z"/><path class="ak" d="m170.4,10.7c2.5,2.6,4.4,5.1,5.2,8.2,0,1.2-.2,2.5-.3,3.9,0,.3,0,.5-.2.7-.3.4-.1.3-.6.2-.9-.1-1.9-.4-2.6-.9-.1-1.3-1.7-4-2.3-4.7-.9-1.1-1.1-1.6-1.1-3,0-1.4.5-2.3,1.4-3.8h0c.2-.2.3-.4.5-.6Z"/><path class="an" d="m163.8,19.4c1.3-.4,2.9-.7,3-.7h0c.2-2.6,1.3-5,3.1-7.3h0c-1,1.5-1.4,2.4-1.4,3.8,0,1.4.2,1.9,1.1,3,.6.7,2.2,3.4,2.3,4.7.7.6,1.7.8,2.6.9.5,0,.3.2.6-.2.2-.2.2-.5.2-.7.1-1.4.3-2.6.3-3.9.2.9.3,1.8.4,2.8,0,1.6-.4,3.1,0,4.7.1.8.6,2.1,1.2,3.6h-.2c-.6-1.5-2.2-2.6-4-2.5-1.7.1-3,.9-3.9,2.3-1.4,2-3.7,4-5.5,6-.2-.2-.5-.3-.7-.5-2-1.3-5.1-1.8-6.5-.5.6-.6,1.2-1.1,1.5-1.9,0-.1,0-.2,0-.3.3-.4.6-.9,1-1.2.6-.6.7-.1,1-.9.4-.9.6-4.9.2-5.2-.1-.1-1.6.1-1.8.2-.2,0-.5.2-.8.3,0-.3.2-.6.3-.8.7-1.6,2-3,3.6-3.8-.5-2.2-1.1-2.9-2.1-4-1.4-1.6-3.9-3.6-6.3-3.5,1-.7,1.9-.2,2.5-.1,1.5.3,6.4,3.3,8.3,5.9h0Zm4.9,9.2c0-.4,1.4-2.1,1.2-2.5-.4-1.1-2.5-.9-4.4-.8-1.8,0-1.9,1.6-2.1,2.9-.2,1.1-.3,2.4.5,3.2.8.8,1.3,1.1,2.2.5s2.4-2.2,2.6-3.3Z"/><path class="af" d="m179.9,36.6c.4.8.8,1.5,1.2,2.1-1,1.7-1.8,2.6-4.2,4-.9.5-1.9,1-3,1.5-.1-.9-.2-1.9-.3-2.8,2.5-1.1,5.2-2.1,6.3-4.7h0Z"/><path class="an" d="m179.9,36.6h0c-1.1,2.6-3.8,3.7-6.3,4.7,0-1.7,0-3.3.4-4.1.4-1.1,1.2-2,1.9-3,.6-.9,1.1-1.8,1.1-2.8,0-.5,0-.9-.2-1.3h.2c.8,2,1.9,4.5,2.9,6.5Z"/><path class="bg" d="m175.2,34.1c-.4.8-.9,1.4-1.5,2-.9.8-2,1.3-3,1.9.1-.2.2-.4.4-.6.4-.7.7-1.4.6-2.1,0-.7,0-2.1-.9-2.1-.6,0-1.7.9-2.2,1.2-.3.2-.7.4-1,.7-.3.2-.7.4-1,.7-.5.3-1.1.7-1.7.7-.5,0-.9-.2-1.3-.5,1.8-2,4.1-4,5.5-6,.9-1.4,2.2-2.1,3.9-2.3,1.8-.1,3.4,1.1,4,2.6.2.4.2.9.2,1.3,0,1-.6,1.9-1.1,2.8h-.8Z"/><path class="ap" d="m170.6,37.9c1-.6,2.1-1.1,3-1.9.6-.6,1.2-1.3,1.5-2h.8c-.7,1.1-1.4,2-1.9,3.1-.4.9-.5,2.4-.4,4.1,0,0,0,0,0,0-.7.3-4.2,1.4-6.5,1.3,0-.5-.2-.9-.2-1.4l-.4-.7c1.1-.5,1.8-1,3-1.8.4-.3.8-.5,1.3-.7Z"/><path class="bg" d="m183.7,63.2c0,.2,0,.3.1.5,0,.6.3,2.3.9,4.6-5.5-.6-10.7-3.2-14.6-7.1-.3-.6-.7-1.3-1.1-2.1-.6-1.2-1.2-2.8-1.3-4.1-.1-1.8,0-3.8-.1-6.6h.6s0,0,0,.2c.2,1.1,1.1,1.8,2.1,1.7,1-.2,1.7-1.2,1.5-2.3-.2-1.1-1.1-1.8-2.1-1.7,0,0-.1,0-.2,0v-.2c.1,0,.3,0,.4-.1,0-.2-.1-.7-.2-1,1.4,0,2.8-.4,4-.9.3,1.7.7,3.1,1.4,3.7,1,1,3.7,2.7,4.3,5.5.8,3.7,2.6,8.5,4.2,9.9Z"/><path class="ap" d="m173.6,68.8c-.8-2.2-1.6-3.9-3.5-7.6,3.8,3.9,9.1,6.5,14.6,7.1,1.3,5.3,3.7,13.4,3.8,15.5,0,.2-.2.4-.3.5-3.1.2-5.7-1.2-7.8-2.9-2.6-2.2-4.2-4.9-4.6-6.1-1-3.1-1.5-4.9-2.1-6.5Z"/><path class="an" d="m188.5,83.8c0,.3,0,.5-.1.5,0,0-.1,0-.2,0,.1-.2.2-.3.3-.5Z"/><path class="aw" d="m188.2,84.3c-.5.8-1.1,1.4-.3,2.5-1.6.4-3.4.5-5.2.2,0-.2,0-.5,0-.7-.2-1.2-.4-2.4-1.1-3.3-.4-.5-1-.9-1.3-1.5l.2-.2c2.1,1.7,4.7,3.1,7.8,2.9Z"/><path class="ae" d="m169.9,26.1c.2.4-1.1,2.1-1.2,2.5-.2,1.1-1.6,2.6-2.6,3.3s-1.4.3-2.2-.5c-.8-.8-.7-2.1-.5-3.2.2-1.3.3-2.8,2.1-2.9,1.9,0,4-.3,4.4.8Zm-3.5,2.4c-.2-1-.7-1.7-1.1-1.6-.5,0-.7.9-.5,1.9.2,1,.7,1.7,1.1,1.6.5,0,.7-.9.5-1.9Z"/><path class="ac" d="m169.1,45.1c-.6,0-1.2,0-1.8-.2,0-.7-.2-1.4-.3-2.2,2.3.2,5.8-.9,6.5-1.3,0,0,0,0,0,0,0,.9.1,1.9.3,2.8-1.3.5-2.7.8-4,.9-.2,0-.5,0-.7,0Z"/><path class="ba" d="m167.7,36.9c.1-.4.2-.9.2-1.3l-.5-.6c.3-.2.7-.4,1-.7.5-.3,1.6-1.3,2.2-1.2.8,0,.8,1.4.9,2.1,0,.7-.3,1.5-.6,2.1-.1.2-.2.4-.4.6-.4.2-.9.5-1.3.7-1.1.7-1.8,1.2-3,1.8-.2,0-.3.2-.5.2-.2,0-.4.2-.5.2,1.2-1.1,2.1-2.5,2.4-4Z"/><path class="ai" d="m165.2,26.8c.5,0,.9.6,1.1,1.6.2,1,0,1.8-.5,1.9-.5,0-.9-.6-1.1-1.6-.2-1,0-1.8.5-1.9Z"/><path class="z" d="m169.7,46.3c1-.2,1.9.6,2.1,1.7.2,1.1-.5,2.1-1.5,2.3-1,.2-2-.6-2.1-1.7,0,0,0-.1,0-.2,0-.9.5-1.8,1.3-2,0,0,.1,0,.2,0Z"/><path class="aw" d="m182.7,87.1c0,.2,0,.4-.2.6-.2.2-.5.3-.8.4-1.7.5-3.5.8-5.3.9h0c.7-.6.9-1.3.8-2.1-2.1-7.6-1.7-11.1-3.4-18.1.6,1.6,1.1,3.5,2.1,6.5.4,1.2,2,4,4.6,6.1l-.2.2c.2.6.9,1,1.3,1.5.8.9,1,2.1,1.1,3.3,0,.2,0,.5,0,.7Z"/><path class="ba" d="m163.5,35.8c.4.3.8.5,1.3.5.6,0,1.2-.3,1.7-.7.3-.2.7-.4,1-.7l.5.6c0,.4,0,.9-.2,1.3-1,1-2.5,2.4-4,3.3-.5.3-1,.5-1.5.7-1.2.4-2.6.3-3.8,0-.5-.2-1-.4-1.4-.6.6-.2,1.9-1.1,2.2-1.5.1-.2.2-.5.2-.8,0-.5,0-1-.2-1.3-.3-.3-.7-.4-1.1-.4-1.1,0-2,0-3,.4,0-.2.1-.5.3-.7.2-.4.5-.7.8-1,0,0,0,0,0,0,0,0,0,0,.1,0,0,0,0,0,0,0,1.4-1.2,4.5-.8,6.5.5.2.2.5.3.7.5Z"/><path class="z" d="m169.8,45.1c0,.3.1.7.2,1-.2,0-.3,0-.5.1,0,0,0,0-.1,0,0-.3-.2-.8-.2-1.1.2,0,.5,0,.7,0Z"/><path class="bg" d="m169.5,46.2v.2c-.8.2-1.4,1.1-1.3,2h-.6c0-1-.1-2.2-.3-3.5.6.1,1.2.2,1.8.2,0,.4.2.8.2,1.1,0,0,0,0,.1,0Z"/><path class="ad" d="m163.3,41.1c0-.3.2-.6.4-.9h0c1.5-.9,3.1-2.3,4-3.3-.3,1.5-1.2,2.9-2.4,4-1.3.6-1.4.6-2.1.7h0c0-.2,0-.4.1-.6Z"/><path class="ak" d="m159.3,17.1c1,1.1,1.6,1.8,2.1,4-1.6.8-2.9,2.2-3.6,3.8h0c-1.7-1.8-2.3-4.2-2.5-6.6-.3-2.4-.9-2.8-2.3-4.7,2.5,0,4.9,1.9,6.3,3.5Z"/><path class="ap" d="m166.4,40.4l.4.7c0,.5.2,1,.2,1.4-.6,0-1-.2-1.4-.4h0c-.1-.4-.3-.8-.5-1.1,0,0,.2-.2.3-.2.2,0,.3-.1.5-.2.2,0,.4-.2.5-.2Z"/><path class="ac" d="m167,42.6c.1.8.2,1.5.3,2.2-.5-.1-.9-.3-1.4-.5h0c-.1-.8-.2-1.5-.4-2.1h0c.4.2.8.3,1.4.4Z"/><path class="au" d="m170.2,61.2c1.9,3.6,2.7,5.4,3.5,7.6,1.7,6.9,1.3,10.4,3.4,18.1.1.8,0,1.5-.8,2-.4.3-.9.4-1.6.5-1,.2-2.2.5-3.1.4-.8,0-1.4-.3-1.7-1.2-.6-1.8,1.8-2.5,2.2-3.5.4-1.2,0-2.5-.4-3.7-1.7-5-1.3-6.5-3-11.4-.9-3.6-1.7-6.4-2.2-9.8-.7-3.9.1-11.1-.5-15.8h0c.4.2.9.4,1.4.5.2,1.3.3,2.5.3,3.5.1,2.8,0,4.8.1,6.6,0,1.3.7,2.9,1.3,4.1.4.8.8,1.5,1.1,2.1Z"/><path class="ae" d="m160,25.3c.3.3.2,4.3-.2,5.2-.3.7-.4.3-1,.9-.4.4-.7.8-1,1.2,0-.8-.3-1.5-.5-2.3-.5-1.5-.4-3.1.1-4.6.3-.1.6-.2.8-.3.2,0,1.7-.3,1.8-.2Zm-.8,3.3c-.1-.9-.6-1.6-1.1-1.5-.4,0-.7.9-.5,1.8.1.9.6,1.6,1.1,1.5.4,0,.7-.9.5-1.8Z"/><path class="ay" d="m163.7,40.2h0c-.2.3-.3.6-.4.9-.9.3-1.7.5-2.2.9-.5.4-.4,2.4-.5,2.5-.9.2-.7-1.2-1.5-2.4-.2-.2-.4-.4-.7-.5,0-.3,0-.5,0-.7,1.2.4,2.6.5,3.8,0,.5-.2,1-.4,1.5-.7Z"/><path class="as" d="m163.3,41.1c0,.2,0,.4-.1.5-.2,1,0,2,0,2.3,0,.9-.8,1.5-1.8,1.6-1.7.2-2.1-.3-2.4-1.2-.2-.5-.5-1.7-.5-2.8.3.1.5.3.7.5.9,1.1.6,2.6,1.5,2.4.2,0,0-2.1.5-2.5.5-.4,1.2-.6,2.2-.9Z"/><path class="ai" d="m158.1,27.2c.4,0,.9.6,1.1,1.5.1.9,0,1.7-.5,1.8-.4,0-.9-.6-1.1-1.5-.1-.9,0-1.7.5-1.8Z"/><path class="ah" d="m159.2,36.6c.2.2.3.8.2,1.3h-.8c0-.4-.4-.7-.8-.6-.4,0-.6.4-.7.8,0,.1,0,.3,0,.4-.1,0-.3,0-.4,0-.1-.2-.2-.5-.4-.7-.2-.2-.4-.3-.7-.3-.2,0-.5.1-.5.3,0-.4,0-.8,0-1.2,1-.4,1.9-.5,3-.4.4,0,.9.1,1.1.4Z"/><path class="ah" d="m158.6,37.8h.8c0,.4-.1.7-.2.9-.3.4-1.5,1.4-2.2,1.5-.5-.3-1-.7-1.4-1.2-.1-.2-.3-.4-.4-.6,0,0,0,0,0,0,.2.1.4.1.6.1.3,0,.5,0,.8,0,.1.3.2.5.5.6,0-.2,0-.5,0-.7.5-.1,1.1-.3,1.5-.7Z"/><path class="ai" d="m157.8,37.2c.4,0,.8.2.8.5-.5.3-1,.5-1.5.7,0-.1,0-.3,0-.4,0-.3.4-.7.7-.8Z"/><path class="ba" d="m156.2,34.8s0,0-.1,0c0,0,0,0,.1,0Z"/><path class="ai" d="m157.1,38.4c0,.2,0,.5,0,.7-.2-.1-.3-.4-.5-.6.1,0,.3,0,.4,0Z"/><path class="ai" d="m156.3,37.8c.2.2.3.4.4.7-.3,0-.5,0-.8,0-.2,0-.4,0-.6-.1,0,0,0,0,0,0,0-.2-.1-.4-.2-.6,0-.2.3-.3.5-.3.3,0,.5.2.7.3Z"/><path class="u" d="m156.1,34.9c-.3.3-.6.6-.8,1-.1.2-.2.4-.3.7,0,.4,0,.8,0,1.2,0,.2.1.4.2.6,0,.2.2.4.4.6.4.5.8.9,1.4,1.2.4.3.9.5,1.4.6,1.2.4,2.6.5,3.8,0,.5-.2,1-.4,1.5-.7,1.5-.9,3.1-2.3,4-3.3.6-.6,1-1.1,1-1.1"/><path class="u" d="m161.4,21.1c-1.6.8-2.9,2.2-3.6,3.8-.1.3-.3.6-.3.8-.5,1.5-.6,3.1-.1,4.6.2.8.6,1.5.5,2.3,0,.1,0,.2,0,.3-.2.8-.9,1.3-1.5,1.9"/><path class="u" d="m169.9,11.4c.2-.2.3-.4.5-.6,2.5,2.6,4.4,5.1,5.2,8.2.2.9.3,1.8.4,2.8,0,1.6-.4,3.1,0,4.7.1.8.6,2.1,1.2,3.6.8,2.1,1.9,4.6,2.9,6.5.4.8.8,1.5,1.2,2.1.2.3.4.5.5.7,6.3,7.6,10.3,15.3,13.8,21.5"/><path class="u" d="m166.9,21.1c-.1-.8-.2-1.7,0-2.5"/><path class="u" d="m157.8,24.9c-1.7-1.8-2.3-4.2-2.5-6.6-.3-2.4-.9-2.8-2.3-4.7,2.5,0,4.9,1.9,6.3,3.5,1,1.1,1.6,1.8,2.1,4"/><path class="u" d="m175.8,31.7c0,.8-.2,1.6-.6,2.4-.4.8-.9,1.4-1.5,2-.9.8-2,1.3-3,1.9-.4.2-.9.5-1.3.7-1.1.7-1.8,1.2-3,1.8-.2,0-.3.2-.5.2-.2,0-.4.2-.5.2-1.3.6-1.4.6-2.1.7"/><path class="u" d="m163,19.6c.2,0,.5-.2.8-.3,1.3-.4,2.9-.7,3-.7h0c.2-2.6,1.3-5,3.1-7.3"/><path class="u" d="m155.1,36.6c1-.4,1.9-.5,3-.4.4,0,.9.1,1.1.4.2.2.3.8.2,1.3,0,.3-.1.6-.2.8-.3.4-1.5,1.4-2.2,1.5"/><path class="u" d="m165,41.1s0,0,0,0c.2.3.4.7.5,1.1.2.6.3,1.3.4,2.1.6,4.6-.2,11.8.5,15.8.6,3.4,1.3,6.3,2.2,9.8"/><path class="u" d="m183.7,63.2c0,0,.2.1.3.2"/><path class="u" d="m163.8,19.4c-1.9-2.6-6.8-5.6-8.3-5.9-.7-.1-1.6-.6-2.5.1"/><path class="u" d="m171.9,23.3c0-.1,0-.3,0-.5-.1-1.3-1.7-4-2.3-4.7-.9-1.1-1.1-1.6-1.1-3,0-1.4.5-2.3,1.4-3.8"/><path class="u" d="m166.3,28.4c.2,1,0,1.8-.5,1.9-.5,0-.9-.6-1.1-1.6-.2-1,0-1.8.5-1.9.5,0,.9.6,1.1,1.6Z"/><path class="u" d="m157.6,28.9c.1.9.6,1.6,1.1,1.5.4,0,.7-.9.5-1.8-.1-.9-.6-1.6-1.1-1.5-.4,0-.7.9-.5,1.8Z"/><path class="u" d="m179.9,36.6c-1.1,2.6-3.8,3.7-6.3,4.7,0,0,0,0,0,0-.7.3-4.2,1.4-6.5,1.3-.6,0-1-.2-1.4-.4"/><path class="u" d="m166,44.4c.4.2.9.4,1.4.5.6.1,1.2.2,1.8.2.2,0,.5,0,.7,0,1.4,0,2.8-.4,4-.9,1.1-.4,2.2-1,3-1.5,2.4-1.4,3.2-2.3,4.2-4,0,0,0,0,0-.1"/><path class="u" d="m163.7,40.2c-.2.3-.3.6-.4.9,0,.2,0,.4-.1.5-.2,1,0,2,0,2.3,0,.9-.8,1.5-1.8,1.6-1.7.2-2.1-.3-2.4-1.2-.2-.5-.5-1.7-.5-2.8"/><path class="u" d="m169.1,44.9c0,0,0,.1,0,.2,0,.4.2.8.2,1.1,0,0,0,0,.1,0,.2,0,.3,0,.5-.1,0-.2-.1-.7-.2-1,0,0,0-.1,0-.2"/><path class="u" d="m165.1,41.1c-.3.3-.7.5-1,.7"/><path class="u" d="m168.7,70c1.7,5,1.3,6.5,3,11.4.4,1.2.8,2.5.4,3.7-.4,1-2.8,1.8-2.2,3.5.3.9.9,1.2,1.7,1.2.9,0,2-.3,3.1-.4.7-.1,1.2-.3,1.6-.5.7-.5.9-1.2.8-2-2.1-7.6-1.7-11.1-3.4-18.1-.2-.6-.3-1.3-.5-2"/><path class="u" d="m183.5,62.3c0,.3.2.6.2,1,0,.2,0,.3.1.5.3,1.3.7,2.9,1.1,4.6,1.1,4.4,2.5,9.7,3.6,13.8.2.7,0,1.2-.1,1.7,0,.2-.2.4-.3.5-.5.8-1.1,1.4-.3,2.5.2.2.8.3,1.6.2,1.4-.1,3.3-.5,4.8-.9,0-.1,0-.2,0-.3-.2-1.5-.6-2-1-2.3-.5-.4-1-.6-1.3-2-.5-3.1-1-8.1-1.6-13-.6-5-1.4-10-2.4-13.2"/><path class="u" d="m195.3,60.9c2.3,4.6,4.8,9.1,5,13.4,0,1-.6,2.4.4,6.1.3,1-.6,4.3-1.7,4.6-1.1.3-3.7.8-4.8.8,0,0,0,0,0,0"/><path class="u" d="m182.5,87.1c0,0,.1,0,.2,0,1.8.3,3.7.2,5.2-.2"/><path class="u" d="m193.2,83.5c-.2-2.4,2.8-2,.5-8.1-.7-1.9-1.1-4.1-1.2-5.9-.2-2.4,0-3.9,0-2.8"/><path class="u" d="m169.6,46.3c0,0,.1,0,.2,0,1-.2,1.9.6,2.1,1.7.2,1.1-.5,2.1-1.5,2.3-1,.2-2-.6-2.1-1.7,0,0,0-.1,0-.2,0-.9.5-1.8,1.3-2Z"/><path class="u" d="m171.9,87.8c-.5.6-.5,1.4-.2,2,0,0,0,0,0,.1"/><path class="u" d="m189.5,85.5c-.2.5-.2,1.1,0,1.5,0,0,0,0,0,0"/><path class="u" d="m190.8,85.4c.1.5.2.9.3,1.4"/><path class="u" d="m180.2,81.6c.2.6.9,1,1.3,1.5.8.9,1,2.1,1.1,3.3,0,.2,0,.5,0,.7,0,.2,0,.4-.2.6-.2.2-.5.3-.8.4-1.7.5-3.5.8-5.3.9"/><path class="t" d="m200.3,74.3c.7,1.3,1.1,2.9,1.8,4.2.7,1.4,1.4,3,.6,4.4-.6,1-1.8,1.5-3,1.8-3.1.9-7.2,1.6-10.3,2.5-.1-1.5,2-3.5,3.3-4.3,1.3-.8,2.8-.3,4.2-.9,1.4-.6,2.8-1.4,3.4-2.8"/></svg>