<?xml version="1.0" encoding="UTF-8"?><svg id="a" xmlns="http://www.w3.org/2000/svg" width="257" height="167" xmlns:xlink="http://www.w3.org/1999/xlink" viewBox="0 0 257 167"><defs><style>.c{fill:#e5c29e;}.c,.d,.e{stroke-miterlimit:10;}.c,.d,.e,.f{stroke:#010101;}.d{fill:#b4b4b4;}.e{fill:#f6eb16;}.g{fill:#cfd1d2;}.g,.h,.i,.j{stroke-width:0px;}.h{fill:#bbbdbf;}.i{fill:#a4a4a5;}.j{fill:url(#b);}.f{fill:none;stroke-width:.4px;}</style><linearGradient id="b" x1="128.5" y1="0" x2="128.5" y2="167" gradientUnits="userSpaceOnUse"><stop offset="0" stop-color="#50b4d2"/><stop offset="1" stop-color="#ccecfc"/></linearGradient></defs><rect class="j" width="257" height="167"/><polygon class="e" points="170.2 165.2 158.7 165.2 128.1 101.2 97 165.2 86.3 165.2 123.3 89.5 132.8 89.5 170.2 165.2"/><path class="d" d="m128.3,88.5c2.8,0,5.1,2.1,5.1,4.6s-2.3,4.6-5.1,4.6-5.1-2.1-5.1-4.6,2.3-4.6,5.1-4.6Z"/><rect class="c" x="6.7" y="97.9" width="243.2" height="6.2" transform="translate(-8.3 11.6) rotate(-5)"/><path class="g" d="m105.5,75.3c-9.6.4-39.8,3.5-46.3,4.3-.3.9-1.1,2.7-1.4,3.6l-.4-4.7,48.2-4.2c0,.3,0,.7,0,1Z"/><path class="h" d="m100.7,80l-2-1.1c-4.1.4-11,.9-15.1,1.3,0,.6,1.3,15.1,1.3,15.1.5.2,1.3.5,1.9.7v-.2c0,0,15.1-1.3,15.1-1.3l-.5-6.3-.2-2.4-.5-5.7h0Zm-41.5-.5c6.5-.8,36.7-3.9,46.3-4.3-.2,1.2-1,2.4-1.8,3.2-.4.4,1.3,14.3,1.3,14.5-.6,2.3,1.7,3.2,1.9,5.2-15.8,1.9-31.6,3.3-47.4,4.2l-.4-4.2,2.1-.2-1.2-13.9v-.5s-2.1.2-2.1.2v-.7c.3-.9,1-2.8,1.3-3.6Zm7.4,18.2h0c0-.1,11.7-1.2,11.7-1.2l3.3-.3-1.3-14.4v-.2c.1,0-1.7-1-1.7-1-4.1.4-11,.9-15.1,1.3,0,.6,1.3,15.1,1.3,15.1.4.2,1.1.4,1.7.6Z"/><path class="i" d="m86.9,95.8l-1.3-14.4,15-1.3h0c0,0-2-1.2-2-1.2-4.1.4-11,.9-15.1,1.3,0,.6,1.3,15.1,1.3,15.1.5.2,1.3.5,1.9.7v-.2Z"/><path class="i" d="m105.5,74.3c0,.3,0,.7,0,1-.2,1.2-1,2.4-1.8,3.2-.4.4,1.3,14.3,1.3,14.5-.6,2.3,1.7,3.2,1.9,5.2-15.8,1.9-31.6,3.3-47.4,4.2v1.2c.1,0,22.4-1.9,22.4-1.9l25-2.2,3-.3v-1.4c-.1,0-.5-4-.5-4l-2.1.2-.6-6.7-.3-3.1-.4-4.5,2.1-.2-.4-4.2v-1.2c-.1,0-2.2.2-2.2.2Z"/><path class="i" d="m66.5,97.6l-1.1-13.1v-1.2c-.1,0,14.9-1.3,14.9-1.3v-.2c.1,0-1.7-1-1.7-1-4.1.4-11,.9-15.1,1.3,0,.6,1.3,15.1,1.3,15.1.4.2,1.1.4,1.7.6h0Z"/><polygon class="f" points="59.4 102.4 59.1 98.2 61.1 98 59.9 84.2 59.9 83.7 57.8 83.9 57.7 83.2 57.3 78.5 105.5 74.3 107.6 74.1 107.7 75.2 108.1 79.5 106 79.7 106.4 84.1 106.7 87.3 107.3 94 109.3 93.8 109.7 97.8 109.8 99.2 106.8 99.5 81.8 101.7 59.5 103.6 59.4 102.4"/><polygon class="f" points="66.5 97.6 78.2 96.5 81.5 96.3 80.2 81.9 65.3 83.2 65.4 84.4 66.5 97.6"/><polygon class="f" points="86.9 95.8 101.9 94.5 101.3 88.2 101.1 85.8 100.6 80.1 85.6 81.4 86.9 95.8"/></svg>