<?xml version="1.0" encoding="UTF-8"?><svg id="Layer_1" xmlns="http://www.w3.org/2000/svg" width="257" height="167" xmlns:xlink="http://www.w3.org/1999/xlink" viewBox="0 0 257 167"><defs><style>.cls-1{fill:url(#linear-gradient);}.cls-1,.cls-2,.cls-3,.cls-4,.cls-5,.cls-6,.cls-7,.cls-8,.cls-9,.cls-10,.cls-11,.cls-12,.cls-13{stroke-width:0px;}.cls-14{fill:#5dab4f;}.cls-14,.cls-15,.cls-16,.cls-17,.cls-18,.cls-19,.cls-20,.cls-21{stroke:#010101;}.cls-14,.cls-15,.cls-19,.cls-20,.cls-21{stroke-width:.3px;}.cls-15{fill:#808184;}.cls-16{fill:#e5c29e;}.cls-16,.cls-17,.cls-18,.cls-21{stroke-miterlimit:10;}.cls-17{fill:#b4b4b4;}.cls-18{fill:#f6eb16;}.cls-19{fill:#231f20;stroke-linecap:round;}.cls-20{fill:none;}.cls-2{fill:#f7bf32;}.cls-3{fill:#4a8e41;}.cls-4{fill:#793422;}.cls-5{fill:#555554;}.cls-6{fill:#949292;}.cls-7{fill:#838384;}.cls-8{fill:#cfcecd;}.cls-9{fill:#a97a4e;}.cls-10{fill:#b7b7b8;}.cls-11{fill:#9e6e47;}.cls-12{fill:#ba8b57;}.cls-13{fill:#e2e2e2;}.cls-21{fill:#c3915b;}</style><linearGradient id="linear-gradient" x1="128.5" y1="0" x2="128.5" y2="167" gradientUnits="userSpaceOnUse"><stop offset="0" stop-color="#50b4d2"/><stop offset="1" stop-color="#ccecfc"/></linearGradient></defs><rect class="cls-1" width="257" height="167"/><polygon class="cls-18" points="169.8 165.3 158.3 165.3 127.7 101.2 96.6 165.3 85.9 165.3 122.9 89.5 132.5 89.5 169.8 165.3"/><path class="cls-17" d="M127.9,88.6c2.8,0,5.1,2.1,5.1,4.6s-2.3,4.6-5.1,4.6-5.1-2.1-5.1-4.6,2.3-4.6,5.1-4.6Z"/><rect class="cls-16" x="6.3" y="98.3" width="243.2" height="6.2"/><path class="cls-19" d="M221.3,82.2c0,.2-7,.4-15.6.4s-15.6-.2-15.6-.4,7-.4,15.6-.4,15.6.2,15.6.4Z"/><path class="cls-2" d="M194,57.2c0,.6.2,1.1.6,1.3.4.2.8.1,1.1,0,1.2-.4,2.3-1.3,3.3-2.4.1-.1.2-.2.3-.4h0c0,0,0-.1-.1-.2-.2-.3-.2-.5-.2-.8-1.5,0-3.1.4-4.4,1.4-.3.2-.6.5-.7,1Z"/><path class="cls-2" d="M195,52.7c-.1.1-.2.4-.2.6,0,.3.2.5.3.6.6.6,1.4.7,2.2.7.6,0,1.2,0,1.8,0,.2-.3.5-.7.9-.9-.7-.5-1.4-.9-2.1-1.2-.8-.3-1.6-.4-2.4,0-.1,0-.3.1-.4.3Z"/><path class="cls-2" d="M197.2,60.1c0,.3-.1.6-.1.9,0,.3.2.6.3.8.3.4.7.6,1.1.5.4,0,.7-.2.9-.7.1-.4.3-1.5.4-2,.2-1.3.2-1.3.3-1.9.1-.5.3-1,.5-1.5-.3,0-.6-.1-.9-.3,0,0-.1,0-.2,0-1.1,1.1-1.8,2.5-2.3,4.3Z"/><path class="cls-2" d="M198.6,51.1c0,.3,0,.7.3.9.5.6,1.3.6,1.8,1.2.4-.2.7-.4.8-.4.2,0,.3,0,.5,0h0c-.1-.9-.5-1.5-1-1.9-.5-.4-1.2-.5-1.8-.4-.3,0-.6.3-.6.7Z"/><path class="cls-4" d="M202.2,52.7c0,0-.1,0-.2,0-.2,0-.3,0-.5,0-.1,0-.5.2-.8.4-.2.1-.4.3-.7.4-.4.3-.7.6-.9.9,0,0,0,.1,0,.2,0,.3,0,.5.2.8,0,0,0,0,.1.1,0,0,.1,0,.2.1,0,0,.1,0,.2,0,.3.1.6.2.9.3.1,0,.2,0,.4,0,0,0,0,0,.1,0,.3,0,.6,0,1,0,0,0,0,0,0,0,0,0,.2,0,.3,0,.4,0,.8-.2,1.2-.3,0,0,0,0,0,0,.1,0,.2,0,.3-.1.1,0,.2-.2.3-.3.2-.2.3-.4.3-.7,0,0,0-.1,0-.2,0-.1,0-.3,0-.4,0-.2-.1-.3-.2-.5s-.2-.2-.3-.3c0,0-.1,0-.2-.1,0,0,0,0,0,0-.5-.3-1.1-.4-1.7-.4Z"/><path class="cls-2" d="M200,60.6c-.2,1-.1,1.5-.1,1.5,0,.9.3,1.1.5,1.3.3.2.6,0,.8-.2.2-.3.4-.6.5-1,.3-1,.4-2.1.5-3.2,0-.9,0-1.5,0-2.3,0-.2,0-.4,0-.5-.3,0-.6,0-1,0,0,0,0,0-.1,0-.4,1.7-.6,2.7-1,4.4Z"/><path class="cls-2" d="M202,56.2c0,.2,0,.4,0,.5,0-.2,0-.4,0-.5,0,0,0,0,0,0Z"/><path class="cls-3" d="M202.1,56.2c0,.2,0,.4,0,.5.5,3.2.7,6.9,1.6,9.8.5,1.5,1.4,4.4,1.8,5.8.6,2.3,0,9.5.5,11.5.2-.1.4-.9.5-1.1,0-2.3,0-8.1-.2-9.9-.1-.9-.8-3-1.2-3.9-1.6-3.6-2.2-8-2.6-12.2,0-.2-.1-.4-.2-.6,0,0-.2,0-.3,0Z"/><path class="cls-2" d="M202.2,52.7c.6,0,1.1.1,1.7.4,0,0,0,0,0,0,.5-.5.9-.9,1.4-1.4.1-.1.2-.3.3-.4.1-.4,0-.9-.3-1.1-.3-.2-.6-.3-.9-.2-1,.2-1.9,1.2-2.2,2.7Z"/><path class="cls-2" d="M202.6,56.8c.2.5.3,1.1.4,1.5.2.8.2,1.7.3,2.5,0,.4.1.8.4,1.1.2.3.6.3.9.1.3-.2.5-.6.6-1,0-.4.1-.9,0-1.4-.1-1.5-.7-2.9-1.6-3.7-.4.2-.8.3-1.2.3,0,.1.1.4.2.6Z"/><path class="cls-2" d="M204.3,55.5c-.1.1-.2.2-.3.3.3.2.7.7,1,1.3.3.6.5,1.2.8,1.8.3.6.7,1,1.2,1.1.3,0,.6,0,.9-.3.2-.1.5-.3.6-.6.3-.5.3-1.4,0-2-.3-.6-.7-1-1.1-1.3-.8-.6-1.8-.8-2.7-1,0,.3-.2.5-.3.7Z"/><path class="cls-2" d="M204.1,53.3c.1,0,.2.2.3.3s.2.3.2.5c1.4.3,2.8,1.2,4.2,1,.3,0,.7-.2.8-.7.1-.4,0-.8-.2-1.1s-.5-.4-.8-.5c-.9-.3-1.8-.2-2.6-.1-.8,0-1.4,0-2,.6Z"/><path class="cls-20" d="M202.2,52.7h0c.3-1.5,1.2-2.5,2.2-2.7.3,0,.6,0,.9.2.3.2.4.7.3,1.1,0,.2-.2.3-.3.4-.5.5-.9.9-1.4,1.4"/><path class="cls-20" d="M204.1,53.4s0,0,0,0c.6-.6,1.3-.5,2-.6.9,0,1.8-.2,2.6.1.3,0,.6.2.8.5s.3.8.2,1.1c-.1.4-.5.6-.8.7-1.4.2-2.8-.7-4.2-1,0,0,0,0,0,0"/><path class="cls-20" d="M202,52.7c-.1-.9-.5-1.5-1-1.9-.5-.4-1.2-.5-1.8-.4-.3,0-.6.3-.6.7,0,.3,0,.7.3.9.5.6,1.3.6,1.8,1.2,0,0,0,0,0,0"/><path class="cls-20" d="M200,53.7s0,0,0,0c-.7-.5-1.4-.9-2.1-1.2-.8-.3-1.6-.4-2.4,0-.1,0-.3.1-.4.3-.1.1-.2.4-.2.6,0,.3.2.5.3.6.6.6,1.4.7,2.2.7.6,0,1.2,0,1.8,0,0,0,0,0,0,0"/><path class="cls-20" d="M204.6,54.8s0,0,0,0c.9.2,1.8.4,2.7,1,.4.3.9.7,1.1,1.3.3.6.3,1.4,0,2-.2.3-.4.5-.6.6-.3.2-.6.3-.9.3-.5,0-.9-.5-1.2-1.1-.3-.6-.5-1.2-.8-1.8-.3-.6-.7-1.1-1-1.3,0,0,0,0,0,0"/><path class="cls-20" d="M200.6,56.2s0,0,0,0c-.2.5-.4,1-.5,1.5-.2.6-.1.6-.3,1.9,0,.4-.2,1.6-.4,2-.2.5-.5.7-.9.7-.4,0-.8-.2-1.1-.5-.2-.2-.3-.5-.3-.8,0-.3,0-.6.1-.9.5-1.7,1.2-3.2,2.3-4.3,0,0,0,0,0,0"/><path class="cls-20" d="M203.6,55.9s0,0,0,0c.9.8,1.5,2.2,1.6,3.7,0,.5,0,.9,0,1.4-.1.4-.3.8-.6,1-.3.2-.7.2-.9-.1-.2-.3-.3-.7-.4-1.1-.1-.8-.2-1.7-.3-2.5,0-.3-.2-1-.4-1.5,0-.2-.1-.4-.2-.6,0,0,0,0,0,0"/><path class="cls-20" d="M199.1,54.8h0c-1.5,0-3.1.4-4.4,1.4-.3.2-.6.5-.7,1,0,.6.2,1.1.6,1.3.4.2.8.1,1.1,0,1.2-.4,2.3-1.3,3.3-2.4.1-.1.2-.2.3-.4"/><path class="cls-20" d="M202.1,56.2c0,.2,0,.4,0,.5,0,.8,0,1.4,0,2.3,0,1.1-.2,2.2-.5,3.2-.1.4-.3.8-.5,1-.2.3-.5.4-.8.2-.3-.2-.5-.4-.5-1.3,0,0,0-.6.1-1.5.3-1.6.5-2.7,1-4.4,0,0,0,0,0,0"/><path class="cls-20" d="M202.6,56.7s0,0,0,0c.5,4.3,1,8.6,2.6,12.2.4.9,1,3,1.2,3.9.2,1.8.2,7.6.2,9.9-.2.1-.4.9-.5,1.1-.5-2,.1-9.2-.5-11.5-.4-1.4-1.3-4.3-1.8-5.8-.9-2.9-1.1-6.6-1.6-9.8,0-.2,0-.4,0-.5h0"/><path class="cls-20" d="M200.7,53.2c.4-.2.7-.4.8-.4.2,0,.3,0,.5,0,0,0,.1,0,.2,0,.6,0,1.1.1,1.7.4,0,0,0,0,0,0,0,0,.1,0,.2.1.1,0,.2.2.3.3s.2.3.2.5c0,.1,0,.3,0,.4,0,0,0,.2,0,.2,0,.3-.2.5-.3.7-.1.1-.2.2-.3.3-.1,0-.2.1-.3.1,0,0,0,0,0,0-.4.2-.8.3-1.2.3,0,0-.2,0-.3,0,0,0,0,0,0,0-.3,0-.6,0-1,0,0,0,0,0-.1,0-.1,0-.2,0-.4,0-.3,0-.6-.1-.9-.3,0,0-.1,0-.2,0,0,0-.1,0-.2-.1,0,0,0,0-.1-.1-.2-.3-.2-.5-.2-.8,0,0,0-.1,0-.2.2-.3.5-.7.9-.9.2-.2.4-.3.7-.4Z"/><path class="cls-2" d="M191.5,76.9c0,.6.6,1,1,1.1.4,0,.8-.1,1.1-.4,1-.8,1.4-1.4,2-2.8,0-.2.2-.3.3-.5h0c0,0-.1,0-.2-.1-.3-.2-.4-.4-.4-.7-1.5.4-2.5.8-3.4,2.3-.2.3-.4.7-.3,1.1Z"/><path class="cls-2" d="M190.7,72.8c0,.2,0,.4,0,.6.1.2.3.4.5.5.8.3,1.6.2,2.3,0,.6-.2,1.1-.5,1.7-.6,0-.4.3-.8.5-1.1h0c-.8-.2-1.6-.4-2.4-.4-.9,0-1.7.2-2.3.7-.1.1-.2.2-.3.4Z"/><path class="cls-2" d="M194.9,77.7c0,.3,0,.6.2.9.1.3.3.5.6.6.4.3.8.3,1.2.2.4-.2.6-.4.6-1,0-.4-.3-1.5-.3-2-.1-1.3-.1-1.5,0-2h0c-.3,0-.6,0-.9,0,0,0-.1,0-.2,0-.7,1.3-1,1.7-1,3.3Z"/><path class="cls-2" d="M193.5,70.2c0,.3.3.6.5.7.7.4,1.4.2,2.1.6.3-.3.5-.6.7-.6.1,0,.3-.2.4-.2-.4-.7-1-1.3-1.6-1.5-.6-.2-1.3-.1-1.8.2-.2.2-.5.4-.4.8Z"/><path class="cls-4" d="M196,74.4c0,0,.1,0,.2,0,.3,0,.6,0,.9,0,.1,0,.2,0,.4,0h.1c.3-.1.6-.2,1-.4,0,0,.1,0,.2-.1.4-.2.8-.4,1.1-.7,0,0,0,0,0,0,0,0,.2-.2.3-.2,0-.1.2-.2.2-.4,0-.2.1-.5.1-.7,0,0,0-.1,0-.2,0-.1-.1-.3-.2-.4-.1-.2-.2-.3-.4-.4-.1,0-.3-.2-.4-.2s-.2,0-.2,0c0,0,0,0,0,0-.6-.1-1.2,0-1.7.1,0,0-.1,0-.2,0-.2,0-.3.1-.4.2-.1,0-.4.3-.7.6-.2.2-.3.4-.5.6-.3.4-.5.8-.5,1.1,0,0,0,.2,0,.2,0,.3.1.5.4.7,0,0,.1,0,.2,0,0,0,.1,0,.2,0Z"/><path class="cls-2" d="M197.7,77.2c.1,1,.4,1.5.4,1.5.4.8.6,1,.9,1,.3,0,.6-.1.7-.4.1-.3.1-.7.1-1.1,0-1,0-1-.3-1.6-.3-.7-.5-1.4-.8-2.1,0-.2-.1-.4-.2-.5-.3.1-.6.2-1,.3h-.1c.1,1.5,0,1.3.2,2.9Z"/><path class="cls-3" d="M198.5,73.9c0,.2.1.4.2.5h0c1.5,2.9,2.9,6.3,4.7,8.8.9,1.2,2.8,2.5,2.2,1.8-2.7-2.9-4.6-6.8-6.4-10.7-.2-.2-.3-.4-.5-.5,0,0-.1,0-.2.1Z"/><path class="cls-2" d="M197.5,70.6h0c.5-.2,1.1-.2,1.7-.1,0,0,0,0,0,0h0c.3-.6.5-1.2.8-1.8,0-.2.1-.3.1-.5,0-.4-.3-.8-.6-1-.3-.1-.6,0-.9.1-.9.5-1.4,1.9-1.3,3.3Z"/><path class="cls-2" d="M199.2,74.3c.3.4.6.8.8,1.2.4.7.6,1.7,1.2,2.2,0,0,.1.1.4.3.3.2.6.1.8-.1.2-.3.3-.7.2-1.2,0-.4-.2-.9-.4-1.3-.6-1.4-1.4-2-2.4-2.4-.4.3-.7.5-1.1.7.2.2.3.3.5.5Z"/><path class="cls-2" d="M199.5,70.5h0c.1,0,.3.1.4.2.1,0,.3.2.4.4,1.5-.2,3.1.3,4.3-.4.3-.2.6-.4.6-.9,0-.4-.3-.8-.6-1-.3-.2-.6-.3-.9-.3-.9,0-1.7.4-2.5.7-.6.3-1.3.6-1.7,1.2Z"/><path class="cls-2" d="M200.4,72.5c0,.1-.2.3-.2.4.4.1.9.4,1.3.9.4.5.8,1,1.3,1.5.5.4,1,.8,1.5.7.3,0,.6-.3.8-.6.2-.2.3-.5.4-.8.1-.6-.2-1.4-.6-1.9-.4-.5-1-.7-1.5-.8-1-.3-1.9-.2-2.9,0,0,.3,0,.5-.1.7Z"/><path class="cls-20" d="M196.2,71.5c.3-.3.5-.6.7-.6.1,0,.3-.2.4-.2,0,0,.1,0,.2,0,.5-.2,1.1-.3,1.7-.1,0,0,0,0,0,0,0,0,.2,0,.2,0,.1,0,.3.1.4.2.1,0,.3.2.4.4,0,.1.1.2.2.4,0,0,0,.2,0,.2,0,.3,0,.5-.1.7,0,.1-.2.3-.2.4,0,0-.2.2-.3.2,0,0,0,0,0,0-.4.3-.7.5-1.1.7,0,0-.1,0-.2.1-.3.1-.6.2-1,.3h-.1c-.1,0-.2,0-.4.1-.3,0-.6,0-.9,0,0,0-.1,0-.2,0,0,0-.1,0-.2,0,0,0-.1,0-.2,0-.3-.2-.4-.4-.4-.7,0,0,0-.2,0-.2,0-.4.3-.8.5-1.1.1-.2.3-.4.5-.6Z"/><path class="cls-20" d="M197.5,70.6c-.1-1.4.4-2.8,1.3-3.3.3-.2.6-.3.9-.1.3.1.6.6.6,1,0,.2,0,.4-.1.5-.3.6-.5,1.2-.8,1.8"/><path class="cls-20" d="M199.5,70.5c.4-.6,1.1-.9,1.7-1.2.8-.4,1.6-.7,2.5-.7.3,0,.6,0,.9.3.3.2.5.6.6,1,0,.5-.3.7-.6.9-1.3.7-2.9.2-4.3.4,0,0,0,0,0,0"/><path class="cls-20" d="M197.3,70.6c-.4-.7-1-1.3-1.6-1.5-.6-.2-1.3-.1-1.8.2-.2.2-.5.4-.4.8,0,.3.3.6.5.7.7.4,1.4.2,2.1.6,0,0,0,0,0,0"/><path class="cls-20" d="M195.7,72.1c-.8-.2-1.6-.4-2.4-.4-.9,0-1.7.2-2.3.7-.1.1-.2.2-.3.4,0,.2,0,.4,0,.6.1.2.3.4.5.5.8.3,1.6.2,2.3,0,.6-.2,1.1-.5,1.7-.6,0,0,0,0,0,0"/><path class="cls-20" d="M200.5,71.7s0,0,0,0c.9-.1,1.9-.2,2.9,0,.5.1,1,.4,1.5.8.4.5.7,1.2.6,1.9,0,.3-.2.6-.4.8-.2.3-.5.5-.8.6-.5,0-1-.2-1.5-.7-.5-.4-.9-1-1.3-1.5-.4-.5-.9-.8-1.3-.9h0"/><path class="cls-20" d="M197.1,74.4c0,.5,0,.7,0,2,0,.5.3,1.6.3,2,0,.5-.2.8-.6,1-.4.2-.8,0-1.2-.2-.2-.1-.4-.3-.6-.6-.1-.3-.2-.6-.2-.9,0-1.7.4-2,1-3.3,0,0,0,0,0,0"/><path class="cls-20" d="M199.8,73.1s0,0,0,0c1,.3,1.8,1,2.4,2.4.2.4.3.9.4,1.3,0,.4,0,.9-.2,1.2-.2.3-.5.4-.8.1-.3-.2-.3-.3-.4-.3-.6-.6-.8-1.5-1.2-2.2-.2-.4-.5-.8-.8-1.2-.2-.2-.3-.4-.5-.5,0,0,0,0,0,0"/><path class="cls-20" d="M195.2,73.5h0c-1.5.4-2.5.8-3.4,2.3-.2.3-.4.7-.3,1.1,0,.6.6,1,1,1.1.4,0,.8-.1,1.1-.4,1-.8,1.4-1.4,2-2.8,0-.2.2-.3.3-.5"/><path class="cls-20" d="M198.5,73.9s0,0,0,0c0,.2.1.4.2.5.3.7.5,1.4.8,2.1.2.6.3.6.3,1.6,0,.4,0,.8-.1,1.1-.1.3-.4.5-.7.4-.3,0-.6-.2-.9-1,0,0-.2-.5-.4-1.5-.2-1.6-.1-1.5-.2-2.9,0,0,0,0,0,0"/><path class="cls-20" d="M199.2,74.3s0,0,0,0c1.8,3.9,3.7,7.8,6.4,10.7.6.7-1.3-.6-2.2-1.8-1.8-2.4-3.2-5.9-4.7-8.8"/><path class="cls-14" d="M206.9,63.7c.1,0,.2,1.5.2,1.6,0,.6-.2,1.2-.4,1.7-.3.6-1.2,2.2-1.8,1.8-.7-.5-.1-2.1.1-2.7.4-1,1.1-1.9,1.8-2.4Z"/><path class="cls-14" d="M200.5,63.6c0-.1,1.2.3,1.3.4.4.2.8.5,1.2.9.4.4,1.3,1.7.7,2-.6.3-1.6-.6-2-1-.6-.7-1.1-1.5-1.2-2.2Z"/><path class="cls-2" d="M221.2,67.5c0,.5-.3.9-.7,1-.4.1-.7,0-1.1-.2-1-.5-1.9-1.4-2.7-2.5,0-.1-.1-.2-.2-.4,0,0,.1,0,.2-.1.2-.2.3-.4.3-.6h0c1.4.2,2.7.8,3.8,1.8.2.2.5.5.5.9Z"/><path class="cls-2" d="M220.9,63.6c0,.1.1.3,0,.5,0,.2-.2.4-.4.5-.7.4-1.4.3-2.1.2-.6-.1-1.1-.3-1.7-.2h0c-.1-.3-.4-.6-.7-.9.7-.3,1.4-.6,2.1-.7.8-.1,1.6,0,2.3.3.1,0,.3.2.3.3Z"/><path class="cls-2" d="M217.9,69.5c0,.3,0,.5,0,.8,0,.2-.2.4-.4.6-.3.3-.7.4-1.1.3-.4-.1-.6-.3-.7-.8,0-.4,0-1.3,0-1.7,0-1.1,0-1.2,0-1.7,0-.4-.1-.9-.3-1.3.3,0,.6,0,.8,0,0,0,0,0,.1,0h0c.8,1.1,1.4,2.4,1.6,3.9Z"/><path class="cls-2" d="M217.9,61.8c0,.3-.2.5-.4.7-.6.5-1.3.3-1.9.7h0c-.3-.2-.6-.4-.7-.5-.1,0-.3-.1-.4-.1h0c.2-.7.6-1.2,1.2-1.5.6-.3,1.2-.3,1.7,0,.2.1.5.3.5.7Z"/><path class="cls-4" d="M216.2,63.7c.3.3.6.6.7.9,0,0,0,.1,0,.2,0,.2,0,.4-.3.6,0,0,0,0-.2.1,0,0-.1,0-.2,0,0,0,0,0-.1,0-.3,0-.6,0-.8,0-.1,0-.2,0-.3,0,0,0,0,0-.1,0-.3,0-.6,0-1-.2,0,0-.1,0-.2,0-.4-.1-.8-.3-1.1-.5,0,0,0,0,0,0,0,0-.2-.1-.3-.2-.1,0-.2-.2-.3-.3-.1-.2-.2-.4-.2-.6,0,0,0-.1,0-.2,0-.1,0-.2,0-.3,0-.1.2-.3.3-.4.1,0,.2-.2.4-.2,0,0,.1,0,.2,0h0c.5-.2,1.1-.2,1.6-.1,0,0,.1,0,.2,0,.1,0,.3,0,.4.1.1,0,.4.2.7.5.2.1.4.3.5.5Z"/><path class="cls-2" d="M215.2,69.5c0,.8,0,1.3,0,1.3-.2.7-.4.9-.7,1-.3.1-.5,0-.7-.3-.2-.2-.3-.6-.3-.9-.1-.9-.1-1.8,0-2.8,0-.7.2-1.2.3-1.8,0-.2,0-.4.1-.6.3,0,.6.1,1,.2,0,0,0,0,.1,0,.2,1.5.2,2.4.3,3.8Z"/><path class="cls-3" d="M213.7,65.4c0,0,.1,0,.2,0,0,.2,0,.4-.1.6h0c-.9,2.8-1.7,6.3-3,8.6-.6,1.1-1.7,3.1-2.3,4.3-1.1,2.1-.9,3.7-1.7,5.2-.1-.1-.5-.6-.7-.7.5-1.1,1.2-4.2,1.8-5.1.5-.7,1.1-2.2,1.6-2.8,2.1-3,2.8-6,3.9-9.7,0-.1.2-.2.3-.3h0Z"/><path class="cls-2" d="M214.3,62.6h0c-.5,0-1.1,0-1.6.1h0c-.4-.5-.7-.9-1-1.4,0-.1-.2-.2-.2-.4,0-.3.1-.8.4-.9s.6-.1.8,0c.9.3,1.6,1.3,1.7,2.6Z"/><path class="cls-2" d="M213.4,65.8c-.3.4-.5.8-.6,1.2-.3.7-.4,1.4-.7,2.1-.1.3-.2.7-.5.9-.3.2-.6.2-.8,0-.2-.2-.4-.6-.4-1s0-.8.1-1.2c.3-1.3,1.1-2.4,2-2.9.4.2.8.4,1.1.5h0c0,.1-.2.2-.3.4Z"/><path class="cls-2" d="M212.4,62.8h0c-.1,0-.2.2-.4.3-.1,0-.2.2-.3.4-1.4,0-2.8.6-4.1.2-.3,0-.6-.3-.7-.7,0-.3.1-.7.3-.9.2-.2.5-.3.8-.3.8-.1,1.6,0,2.5.3.7.2,1.3.2,1.8.8Z"/><path class="cls-2" d="M211.9,64.5c0,.1.2.2.3.3-.5,0-.8.4-1.1.9-.3.5-.6,1-.9,1.4-.3.4-.8.8-1.2.7-.3,0-.6-.2-.8-.4-.2-.2-.4-.3-.5-.6-.2-.5,0-1.2.3-1.6.3-.5.8-.7,1.2-.9.9-.3,1.7-.4,2.6-.4,0,.2,0,.4.2.6Z"/><path class="cls-20" d="M215.6,63.2c-.3-.2-.6-.4-.7-.5-.1,0-.3-.1-.4-.1,0,0-.1,0-.2,0-.5,0-1.1,0-1.6.1h0c0,0-.1,0-.2.1-.1,0-.2.1-.4.2-.1,0-.2.2-.3.4,0,.1,0,.2,0,.3,0,0,0,.1,0,.2,0,.2,0,.4.2.6,0,.1.2.2.3.3,0,0,.2.1.3.2,0,0,0,0,0,0,.4.2.8.4,1.1.5,0,0,.1,0,.2,0,.3,0,.6.1,1,.2,0,0,0,0,.1,0,.1,0,.2,0,.3,0,.3,0,.6,0,.8,0,0,0,0,0,.1,0,0,0,.1,0,.2,0,0,0,.1,0,.2-.1.2-.2.3-.4.3-.6,0,0,0-.1,0-.2-.1-.3-.4-.6-.7-.9-.2-.2-.4-.3-.5-.5Z"/><path class="cls-20" d="M214.3,62.6c0-1.3-.8-2.3-1.7-2.6-.3,0-.6-.1-.8,0s-.5.6-.4.9c0,.2.1.3.2.4.4.5.7.9,1,1.4,0,0,0,0,0,0"/><path class="cls-20" d="M212.4,62.8c-.5-.6-1.1-.6-1.8-.8-.8-.2-1.6-.4-2.5-.3-.3,0-.6.1-.8.3-.2.2-.4.6-.3.9,0,.4.4.6.7.7,1.3.4,2.7-.2,4.1-.2,0,0,0,0,0,0"/><path class="cls-20" d="M214.5,62.6c.2-.7.6-1.1,1.2-1.4.6-.3,1.2-.3,1.7,0,.2.1.5.3.5.7,0,.3-.2.5-.4.7-.6.5-1.3.3-1.9.7"/><path class="cls-20" d="M216.2,63.7s0,0,0,0c.7-.3,1.4-.6,2.1-.7.8-.1,1.6,0,2.3.3.1,0,.3.2.3.3,0,.1.1.3,0,.5,0,.2-.2.4-.4.5-.7.4-1.4.3-2.1.2-.6-.1-1.1-.3-1.7-.2"/><path class="cls-20" d="M211.7,63.9s0,0,0,0c-.9,0-1.8,0-2.6.4-.4.2-.9.4-1.2.9-.3.5-.5,1.1-.3,1.6.1.3.3.5.5.6.2.2.5.4.8.4.5,0,.9-.3,1.2-.7.3-.4.6-.9.9-1.4.3-.5.7-.8,1.1-.9h0"/><path class="cls-20" d="M215.3,65.7s0,0,0,0c.1.4.2.9.3,1.3,0,.5,0,.5,0,1.7,0,.4,0,1.3,0,1.7,0,.5.4.7.7.8.4.1.7,0,1.1-.3.2-.1.3-.3.4-.6,0-.3,0-.5,0-.8-.2-1.5-.7-2.9-1.6-3.9"/><path class="cls-20" d="M212.6,65s0,0,0,0c-.9.5-1.7,1.6-2,2.9,0,.4-.2.8-.1,1.2s.2.8.4,1c.2.2.6.2.8,0,.2-.2.4-.6.5-.9.2-.7.4-1.4.7-2.1.2-.4.4-.9.6-1.2,0-.1.2-.2.3-.3"/><path class="cls-20" d="M216.9,64.8c1.4.2,2.7.8,3.8,1.9.2.2.5.5.5.9,0,.5-.3.9-.7,1-.4.1-.7,0-1.1-.2-1-.5-1.9-1.4-2.7-2.5,0-.1-.1-.2-.2-.4,0,0,0,0,0,0"/><path class="cls-20" d="M213.9,65.5s0,0,0,0c0,.2,0,.4-.1.6-.1.6-.2,1.1-.3,1.8-.1.9-.2,1.9,0,2.8,0,.3.1.7.3.9.2.2.5.4.7.3.3-.1.5-.3.7-1,0,0,.1-.5,0-1.3,0-1.4-.1-2.4-.3-3.8,0,0,0,0,0,0"/><path class="cls-20" d="M213.4,65.8s0,0,0,0c-1.1,3.7-1.8,6.8-3.9,9.7-.5.7-1.1,2.2-1.6,2.8-.6.9-1.3,4-1.8,5.1.1.1.5.6.7.7.8-1.6.6-3.2,1.7-5.2.6-1.1,1.6-3.1,2.3-4.3,1.3-2.3,2-5.9,3-8.6"/><path class="cls-14" d="M213.9,73.7c.1,0-.6,1.4-.7,1.5-.3.5-.8.9-1.2,1.2-.6.4-2.2,1.2-2.5.5-.3-.8,1-1.8,1.5-2.2.9-.6,1.9-1,2.8-1Z"/><path class="cls-14" d="M209.6,69.8c0,0,.8.9.9,1,.2.4.4.9.5,1.4,0,.6.1,2.1-.5,2-.7,0-1-1.4-1.1-1.9-.1-.9,0-1.8.2-2.5Z"/><path class="cls-21" d="M202.4,84.9c-.7.2-1.4.4-1.9,1.2.8.1,1.5.2,2.3.2,1.5,0,3.1,0,4.6,0,.6,0,1.2,0,1.7,0,.1,0,.2,0,.3,0,0,0,.2-.3.1-.4,0,0-.1-.1-.2-.2l-.9-.6c-1.9-1.2-4-.5-6.1,0Z"/><path class="cls-9" d="M215.8,82.4h-25.9s3.5,15.6,6.9,15.6h17.3c3.5,0,6.9-15.6,6.9-15.6h-5.4Z"/><path class="cls-11" d="M215.8,82.4h5.4s-3.5,15.6-6.9,15.6h-2.4c3-5.5,3.6-9.4,4-15.6h0Z"/><path class="cls-9" d="M215.8,82.4h0c-.4,6.2-1,10.1-4,15.5h0c-3.4.1-8.5.1-12,.1h0c-3.6-4.5-5-9.8-4.3-15.5h0c0-.1,20.4-.1,20.4-.1Z"/><path class="cls-12" d="M199.8,97.9h0c-1.2.1-2.2.1-2.9.1-3.5,0-6.9-15.6-6.9-15.6h5.5c-.7,5.8.7,11.1,4.3,15.5Z"/><path class="cls-20" d="M215.8,82.4h5.4s-3.5,15.6-6.9,15.6h-17.3c-3.5,0-6.9-15.6-6.9-15.6h25.9Z"/><path class="cls-10" d="M83.4,71.5c0-.5-7.1-1-15.8-1s-15.8.4-15.8,1,0,0,0,0l.6,3.1h0c0,.1.2.2.5.4l.2,1.6,2.7,20.7c0,.1.8.3,2.2.3.6,0,1.3,0,2.1.1,4.2.2,10.7.2,15.1,0,2.7,0,4.5-.3,4.5-.5l2.6-20.7.2-1.7h0c.3-.1.4-.2.4-.3h0l.6-3.2h0Z"/><path class="cls-7" d="M83.4,71.5l-.6,3.2h0c0,0-.1.2-.4.3-.5.2-1.6.5-3.1.7,0-.3,0-.6,0-.9.3,0,.6-.4.6-.8s-.2-.6-.4-.8c0-.3,0-.6,0-.9,2.4-.3,3.8-.6,3.8-.9h0Z"/><path class="cls-7" d="M79.3,75.7c1.5-.2,2.6-.4,3.1-.7h0s-.2,1.7-.2,1.7c-1.4.3-2.8.5-4.2.7,0-.7,0-1.2,0-1.5.4,0,.8-.1,1.2-.2Z"/><path class="cls-6" d="M82.2,76.7l-2.6,20.7c0,.2-1.8.4-4.5.5h0c1.6-4.4,2.6-16,2.9-20.5,1.4-.2,2.8-.4,4.2-.7Z"/><path class="cls-7" d="M56.3,72.4c-.8,0-1.4-.2-2-.3-1.4-.2-2.3-.4-2.5-.6,0,0,0,0,0,0,0-.5,7.1-1,15.8-1s15.8.4,15.8,1-1.4.6-3.8.9c-2.8.4-7,.6-11.8.6s-8.6-.3-11.5-.6Z"/><path class="cls-10" d="M78.1,75.8c-2.7.3-6.5.6-10.6.6s-7.7-.2-10.4-.5c-.3,0-.6,0-.9-.1v-.2c-.2-.9,0-2.3.1-3.1,3,.3,7.1.6,11.5.6s8.9-.3,11.8-.6c0,.3,0,.6,0,.9,0,0-.2,0-.2,0-.4,0-.7.4-.7.8s.3.8.7.8,0,0,0,0c0,.3,0,.6,0,.9-.4,0-.8.1-1.2.2Z"/><path class="cls-5" d="M79.5,73.2c.3.1.4.4.4.8s-.3.7-.6.8c0-.5,0-1,.1-1.6Z"/><path class="cls-5" d="M79.5,73.2c0,.5,0,1-.1,1.6,0,0,0,0,0,0-.4,0-.7-.4-.7-.8s.3-.8.7-.8.2,0,.2,0Z"/><path class="cls-6" d="M78.1,75.8c0,.3,0,.8,0,1.5-7.1.9-14.9.8-20.7,0,0-.6-.2-1.1-.2-1.4v-.2c2.7.3,6.4.5,10.5.5s7.8-.2,10.6-.6Z"/><path class="cls-10" d="M78,77.4c-.3,4.6-1.3,16.1-2.9,20.5h0c-4.3.2-10.8.2-15.1,0h0c-.4-4-2-15.8-2.8-20.4,5.8.8,13.6.8,20.7,0Z"/><path class="cls-13" d="M60.1,97.9h0c-.8,0-1.5,0-2.1,0h0c-.2-3.2-2-15.5-2.8-20.6.7.1,1.4.2,2.1.3.7,4.6,2.4,16.4,2.8,20.4Z"/><path class="cls-8" d="M58,97.7h0c-1.4,0-2.2-.2-2.2-.3l-2.7-20.7h0c.7.2,1.4.3,2.1.4h0c.8,5.1,2.5,17.5,2.8,20.6Z"/><path class="cls-10" d="M57.1,75.8v.2c0,.3.1.8.2,1.4-.7,0-1.4-.2-2.1-.3h0c-.1-.7-.2-1.2-.3-1.6.4,0,.8.1,1.2.2.3,0,.6,0,.9.1Z"/><path class="cls-13" d="M54.9,75.5c-.3,0-.6-.1-.9-.2,0-1.2.2-2.9.2-3.2.6,0,1.3.2,2,.3-.1.8-.3,2.3,0,3.1v.2c-.5,0-.9-.1-1.3-.2Z"/><path class="cls-10" d="M54,75.4c.3,0,.6.1.9.2,0,.4.2.9.3,1.6-.8-.1-1.5-.3-2.1-.4h0s-.2-1.6-.2-1.6c.3.1.7.2,1.2.3Z"/><path class="cls-8" d="M52.8,75c-.3-.1-.5-.2-.5-.4h0l-.6-3.1c.2.2,1.1.4,2.5.6,0,.3-.3,2-.2,3.2-.5-.1-.9-.2-1.2-.3Z"/><path class="cls-20" d="M83.4,71.5c0,.2-1.4.6-3.8.9-2.8.4-7,.6-11.8.6s-8.6-.3-11.5-.6c-.8,0-1.4-.2-2-.3-1.4-.2-2.3-.4-2.5-.6,0,0,0,0,0,0,0-.5,7.1-1,15.8-1s15.8.4,15.8,1Z"/><path class="cls-20" d="M82.8,74.7c0,0-.1.2-.4.3-.5.2-1.6.5-3.1.7-.4,0-.8.1-1.2.2-2.7.3-6.5.6-10.6.6s-7.7-.2-10.4-.5c-.3,0-.6,0-.9-.1-.4,0-.9-.1-1.2-.2-.3,0-.6-.1-.9-.2-.5-.1-.9-.2-1.2-.3-.3-.1-.5-.2-.5-.4"/><path class="cls-20" d="M79.6,97.4c0,.2-1.8.4-4.5.5-4.3.2-10.8.2-15.1,0-.8,0-1.5,0-2.1-.1-1.4,0-2.2-.2-2.2-.3"/><polyline class="cls-20" points="51.8 71.5 51.8 71.5 52.3 74.7"/><line class="cls-20" x1="83.4" y1="71.5" x2="82.8" y2="74.7"/><polyline class="cls-20" points="55.8 97.4 53 76.7 52.8 75 52.8 75"/><polyline class="cls-20" points="79.6 97.4 82.2 76.7 82.4 75"/><path class="cls-20" d="M79.5,73.2c.3.1.4.4.4.8s-.3.7-.6.8c0,0,0,0,0,0-.4,0-.7-.4-.7-.8s.3-.8.7-.8.2,0,.2,0Z"/><path class="cls-15" d="M79.7,73.3l-.9.2c0-7.1-1.5-12.6-4.4-15.5-1.8-1.8-4.2-2.8-7-2.8-4,0-6.6,2.9-8.1,5.3-1.8,2.9-2.9,6.8-2.9,10.3h-.8c.1-6.6,3.9-16.4,11.8-16.4s5.6,1,7.6,3c3.1,3.1,4.7,8.7,4.7,16Z"/></svg>