<?xml version="1.0" encoding="UTF-8"?><svg xmlns="http://www.w3.org/2000/svg" width="257" height="167" xmlns:xlink="http://www.w3.org/1999/xlink" viewBox="0 0 257 167"><defs><style>.cls-1,.cls-2,.cls-3{fill:none;}.cls-1,.cls-3,.cls-4,.cls-5,.cls-6,.cls-7,.cls-8,.cls-9,.cls-10,.cls-11,.cls-12,.cls-13,.cls-14,.cls-15,.cls-16,.cls-17,.cls-18{stroke:#010101;}.cls-1,.cls-7,.cls-8,.cls-9,.cls-10,.cls-11,.cls-12,.cls-13,.cls-14,.cls-15,.cls-16,.cls-17,.cls-18{stroke-linejoin:round;stroke-width:.3px;}.cls-1,.cls-7,.cls-8,.cls-9,.cls-10,.cls-11,.cls-12,.cls-13,.cls-14,.cls-15,.cls-16,.cls-17,.cls-18,.cls-19{stroke-linecap:round;}.cls-20{fill:url(#linear-gradient-2);stroke:#000;stroke-width:.3px;}.cls-21{fill:url(#linear-gradient);}.cls-21,.cls-22,.cls-23,.cls-24,.cls-25,.cls-26{stroke-width:0px;}.cls-2,.cls-3,.cls-19{stroke-width:.3px;}.cls-2,.cls-19{stroke:#231f20;}.cls-4{fill:#e5c29e;}.cls-4,.cls-5,.cls-6{stroke-miterlimit:10;}.cls-5{fill:#b4b4b4;}.cls-6{fill:#f6eb16;}.cls-7{fill:#4e4d4e;}.cls-8{fill:#77502a;}.cls-9{fill:#5d5d5d;}.cls-10{fill:#717272;}.cls-11{fill:#9a6f44;}.cls-12{fill:#8d6639;}.cls-13{fill:#9e754c;}.cls-14{fill:#b99572;}.cls-15{fill:#30302f;}.cls-16{fill:#a77c58;}.cls-17{fill:#ac8768;}.cls-18{fill:#171717;}.cls-22{fill:#599843;}.cls-23{fill:#d97931;}.cls-24{fill:#db874e;}.cls-25{fill:#b86428;}.cls-26{fill:#92c952;}.cls-19{fill:#231f20;}</style><linearGradient id="linear-gradient" x1="128.5" y1="0" x2="128.5" y2="167" gradientUnits="userSpaceOnUse"><stop offset="0" stop-color="#50b4d2"/><stop offset="1" stop-color="#ccecfc"/></linearGradient><linearGradient id="linear-gradient-2" x1="26.7" y1="63.2" x2="38.5" y2="83.6" gradientTransform="translate(11.8 -3.6) rotate(9)" gradientUnits="userSpaceOnUse"><stop offset="0" stop-color="#bbbdbf"/><stop offset=".2" stop-color="#a8a9ab"/><stop offset=".5" stop-color="#787879"/><stop offset=".9" stop-color="#2c292a"/><stop offset="1" stop-color="#231f20"/></linearGradient></defs><g id="Layer_2"><rect class="cls-21" width="257" height="167"/></g><g id="Layer_1"><polygon class="cls-6" points="170.4 164.9 158.9 164.9 128.3 100.9 97.2 164.9 86.6 164.9 123.5 89.2 133.1 89.2 170.4 164.9"/><path class="cls-5" d="M128.5,88.2c2.8,0,5.1,2.1,5.1,4.6s-2.3,4.6-5.1,4.6-5.1-2.1-5.1-4.6,2.3-4.6,5.1-4.6Z"/><rect class="cls-4" x="125.6" y="-20.4" width="6.2" height="243.2" transform="translate(6.8 210.4) rotate(-80)"/><path class="cls-20" d="M24,79.2c-3.2-1.4-6.9-1.7-6-8.5.8-6.2,8.7-7,13.7-6.9,5.3,0,9.9,2.1,13.5,6.3,2.2,2.6,6.1,11.6-2.6,12.1,0,0-14.7-2-18.6-3Z"/><path class="cls-19" d="M95.3,72.3c0,.3-7-.7-15.5-2.1-8.5-1.5-15.4-2.9-15.3-3.2s7,.7,15.5,2.1c8.5,1.5,15.4,2.9,15.3,3.2Z"/><path class="cls-22" d="M97.2,53.1s-5.7,3.9-10.8,8.3c4.3-7.8,9.1-17.6,9.3-18.2-.1.2-4.9,6.3-9.3,12.9,3-9.6,6-20.3,6.2-20.8h0c-.3.6-4.5,10.1-8,19.3,2.3-10.4,4.5-22.2,4.5-22.8h0c-.1.5-2.7,8.4-5.2,17,1-8.5,1.8-16.2,1.8-16.7,0,0,0,0,0,0,0,.4-1.5,6.5-3,13.8.4-8.1.6-15,.6-15-.1.6-2,12.4-3.3,23-.2-9.8-1-20.3-1.1-20.8h0c0,.5-.8,11.6-1.2,21.6-1.9-7.5-4.3-14.8-4.4-15.2h0c0,.5,1.3,11.4,2.7,20.2-3.1-5.7-7.1-11.2-7.3-11.5h0c.1.4,2.5,7.7,5,14.1-3.6-3.4-7.6-6.2-7.7-6.3.3.8,10.6,19.1,13.1,17.2,2.6,1.4,17.5-11.6,17.9-12.1,0,0-4.7,1.2-9.4,3.3,4.5-5.2,9.2-11.3,9.4-11.7Z"/><path class="cls-26" d="M87.8,64.8c-1.6.7-3.2,1.5-4.6,2.4l14-14.1s-5.7,3.9-10.8,8.3c-.8.8-1.7,1.5-2.5,2.3-.4.4-.9.9-1.3,1.3l1.9-3.2,11.2-18.6c-.1.2-4.9,6.3-9.3,12.9-.9,1.3-1.7,2.6-2.5,3.9l8.7-24.7c-.3.6-4.5,10.1-8,19.2-.8,2.2-1.6,4.3-2.3,6.3-.4,1.2-.8,2.3-1.1,3.3-.1.4-.3.8-.4,1.2l.4-1.8,1.5-6.1,6.3-25.7c-.1.4-2.7,8.4-5.2,17-.6,2.2-1.2,4.4-1.8,6.5,0-.4,0-.7,0-1.1l3.6-22c0,.4-1.5,6.5-3,13.8.4-8.1.6-15,.6-15l-2.4,23.6-.9,8.8c0,.2,0,.4-.1.6,0-1.3,0-2.8,0-4.3,0-1.8,0-3.8,0-5.8-.2-9.8-1-20.3-1.1-20.8v26.1c-.4-1.5-.8-3-1.2-4.5-1.9-7.5-4.3-14.8-4.4-15.2l4.3,21.2.7,3.6c-.2-.5-.5-1.1-.7-1.7-.5-1-1-2-1.5-3-3.1-5.7-7.1-11.2-7.3-11.5l8.5,17.9c-1-1.3-2.2-2.6-3.5-3.8-3.6-3.4-7.6-6.2-7.7-6.3l10.5,12.7,2.3,2.8c0,.1,0,.3,0,.4,0,0,0,.1,0,.2h.2c0-.1.2-.2.2-.2h.1c0,0,.3-.2.3-.2h.1c0,0,3.2-2,3.2-2l14.1-8.4s-4.7,1.2-9.4,3.3Z"/><path class="cls-2" d="M78.2,73.6c-1.4-.7-2.4-2.2-3.4-3.7-2-2.9-3.1-4.7-5.1-7.6-.9-1.3-3-4.5-3.6-6.1,3.8,2.3,7.9,6.1,11.1,10"/><path class="cls-2" d="M73.9,62.5c-1.8-4.7-3.6-9-4.8-13.9,3.4,4.6,7,9.7,9.5,15.9"/><path class="cls-2" d="M76.1,59.3c-.4-2.2-2.5-17-2.5-19.3,1.6,3.6,5.7,19.1,5.8,21.4"/><path class="cls-2" d="M77.9,54.4c.1-6.9.7-14.3,1.2-21.2,0,0,0,0,0,0,.5,3.9,1.6,25.1,1.2,30.6"/><path class="cls-2" d="M81.9,55.9c.9-5.8,1.3-19.7,1.6-24.9-1.2,6.5-2.3,15.3-3.3,22"/><path class="cls-2" d="M80,73.7c1.5-.2,3-1.3,4.5-2.3,2.8-2.1,4.5-3.4,7.3-5.4,1.2-.9,4.3-3.2,5.4-4.5-4.3.9-9.5,3.1-13.8,5.7"/><path class="cls-2" d="M87.8,64.7c3.2-3.8,6.4-7.3,9.2-11.5-4.7,3.2-9.9,6.8-14.3,11.8"/><path class="cls-2" d="M86.8,61c1.1-1.9,8-15.2,8.8-17.4-2.7,2.9-11.7,16-12.5,18.2"/><path class="cls-2" d="M86.6,55.8c2.2-6.5,4.2-13.7,6-20.4,0,0,0,0,0,0-1.8,3.5-9.9,23.6-11.4,28.3"/><path class="cls-2" d="M81.9,55.9c1.3-5.8,5.8-19.1,7.3-24.1-1,6.5-2.9,15.2-4.3,21.8"/><path class="cls-2" d="M82.7,46.9c.9-4.8,2.1-10,3.2-14.7-.4,5.2-1.1,10.2-1.7,15.9"/><path class="cls-23" d="M90.9,71.7c-3.6-.5-8.6-1.2-11-1.6-2.3-.4-7.3-1.4-11-2.2-2.6-.5-4.5-1-4.5-1,0,0,.2,19.2,3.6,19.8.7.1,1.6.3,2.7.5,3,.5,7.2,1.2,10.5,1.8,1.6.3,3,.5,4,.7,3.4.6,10.1-17.4,10.1-17.4,0,0-1.8-.2-4.3-.6Z"/><path class="cls-25" d="M95.2,72.3s-6.6,18-10.1,17.4c-.9-.2-2.3-.4-4-.7,3.5-.9,8.1-10.2,9.7-17.2v-.2c2.5.3,4.3.6,4.3.6Z"/><path class="cls-23" d="M90.9,71.8v.2c-1.6,7-6.2,16.3-9.7,17.2-3.3-.6-7.5-1.3-10.5-1.8-2.2-6.3-2.7-12.6-1.8-19.3,3.7.8,8.7,1.8,11,2.2,2.3.4,7.3,1.1,11,1.6Z"/><path class="cls-24" d="M70.7,87.3c-1.1-.2-2-.3-2.7-.5-3.4-.6-3.6-19.8-3.6-19.8,0,0,1.9.4,4.5,1-.9,6.6-.4,13,1.8,19.3Z"/><path class="cls-3" d="M90.9,71.8c2.5.3,4.3.6,4.3.6,0,0-6.6,18-10.1,17.4-.9-.2-2.3-.4-4-.7-3.3-.6-7.5-1.3-10.5-1.8-1.1-.2-2-.3-2.7-.5-3.4-.6-3.6-19.8-3.6-19.8,0,0,1.9.4,4.5,1,3.7.8,8.7,1.8,11,2.2,2.3.4,7.3,1.1,11,1.6Z"/><path class="cls-14" d="M186.9,43.5c-2.4-.4-4.1-.6-4.6-.7.9-2.8,1.7-5.3,2.5-7.4.6,0,2.2.2,4.5.5-.9,2.8-1.7,5.3-2.3,7.5Z"/><path class="cls-14" d="M179.9,85.8l-5.2-.9c.5-10.7,3.8-29.2,6.8-39.3.6,0,2.3.4,4.6.7-4.2,17.2-4.4,22.6-6.2,39.4Z"/><path class="cls-14" d="M178.9,97.5l-4.4-.8c0-2.5,0-5.4.1-8.8l5,.9c-.3,3.1-.5,6.1-.7,8.6Z"/><path class="cls-14" d="M178.2,106.7l-3.1-.5s-.4-2.2-.6-6.3l4.1.7c-.2,3.3-.4,5.6-.4,6.2Z"/><path class="cls-14" d="M190.3,32.9c-2.4-.2-3.9-.4-4.3-.4,1.5-3.6,2.6-5.5,2.8-5.7.3-.1,1.4-.1,3.5,0-.6,2.2-1.4,4.2-2,6.1Z"/><path class="cls-17" d="M198.3,27.7c-.4,1.8-.9,3.9-1.4,6-2.5-.3-4.8-.6-6.6-.8.6-1.9,1.4-3.9,2-6.1,1.5.1,3.5.3,6,.6v.2Z"/><path class="cls-17" d="M194.4,44.5c-2.7-.4-5.3-.8-7.4-1.1.7-2.2,1.4-4.7,2.3-7.5,1.9.2,4.4.5,6.9.8-.6,2.6-1.2,5.2-1.8,7.8Z"/><path class="cls-17" d="M186.8,87l-6.9-1.2c1.8-16.8,2-22.3,6.2-39.4,2.1.3,4.8.7,7.6,1.2-3.1,13.1-5.3,26.1-6.9,39.4Z"/><path class="cls-17" d="M185.3,98.6l-6.4-1.1c.2-2.6.4-5.6.7-8.6l6.8,1.2c-.4,2.9-.8,5.8-1.1,8.6Z"/><path class="cls-17" d="M184.1,107.7h0c0,0-5.9-1-5.9-1,0-.6.2-2.9.4-6.2l6.3,1.1c-.2,1.9-.5,4.2-.7,6Z"/><path class="cls-16" d="M205.8,34.9c-3.1-.5-6.1-.9-8.9-1.2.5-2.2,1-4.3,1.4-6.2,2.4.3,5.3.7,8.7,1.3-.4,1.7-.9,4.3-1.2,6.1Z"/><path class="cls-16" d="M203.6,45.9c-2.7-.4-6-.9-9.2-1.4.6-2.6,1.2-5.2,1.8-7.8,3,.4,6.1.8,9,1.2-.5,2.7-1,5.3-1.6,8Z"/><path class="cls-16" d="M196.2,88.6l-9.5-1.6c1.7-13.3,3.9-26.4,6.9-39.4,3.1.5,6.4,1,9.3,1.5-2.6,13.2-4.9,26.3-6.8,39.6Z"/><path class="cls-16" d="M193.3,109.2h0c0,.1-9.1-1.4-9.1-1.4.2-1.9.5-4.1.7-6.1l9.2,1.6c-.3,2-.6,4-.8,5.9Z"/><path class="cls-16" d="M194.5,100.2l-9.3-1.6c.4-2.8.7-5.7,1.1-8.6l9.4,1.6c-.4,2.9-.8,5.7-1.2,8.5Z"/><path class="cls-13" d="M210.2,35.6c-1.5-.2-3-.5-4.4-.7.4-2,.9-4.3,1.2-6.1,2.4.4,5.2.9,7.6,1.3,0,0-.3,2.4-.8,6.2-1.2-.2-2.4-.4-3.7-.6Z"/><path class="cls-13" d="M207.9,46.7c-1.1-.2-2.6-.4-4.3-.7.5-2.7,1-5.3,1.6-8,3.2.5,5.3.8,8.3,1.5-.3,2.4-.7,5.2-1.1,8-1.8-.3-3.3-.6-4.5-.8Z"/><path class="cls-13" d="M194.1,103.2l8.2,1.4c-.8,3.8-1.2,5.7-1.2,6l-7.9-1.4c.3-2,.6-4.1.9-6.1Z"/><path class="cls-13" d="M204.7,93.2c-.6,3-1.2,5.9-1.7,8.5l-8.4-1.4c.4-2.8.8-5.7,1.2-8.5l8.9,1.5Z"/><path class="cls-13" d="M209.1,69.9c-.9,5.3-2.4,13-3.9,20.3l-9-1.6c1.9-13.3,4.1-26.4,6.8-39.6,3.4.5,5.6.9,9,1.5-.9,6.9-2,14.2-2.9,19.3Z"/><path class="cls-11" d="M221.9,37.9c-2.5-.6-5.2-1.1-8-1.7.5-3.8.8-6.1.8-6.2,3,.5,5.6,1.1,7.8,1.5-.1,1.3-.3,3-.6,6.3Z"/><path class="cls-11" d="M212.4,47.5c.4-2.9.7-5.6,1.1-8,2.5.5,5.4,1.1,8.1,1.7-.2,2.4-.5,5.1-.8,7.9-2.9-.6-5.8-1.1-8.3-1.6Z"/><path class="cls-11" d="M213,94.6c-.6,2.8-1.3,5.6-1.9,8.4l-8.1-1.4c.5-2.5,1.1-5.4,1.7-8.5l8.3,1.4Z"/><path class="cls-11" d="M202.3,104.6l8,1.4c-.4,1.6-1.2,5.1-1.4,6l-7.9-1.4c0-.3.5-2.2,1.2-6Z"/><path class="cls-11" d="M217.7,71.7c-1.2,6.6-2.6,13.3-4.1,19.9l-8.4-1.4c3.1-15.5,4.7-24.2,6.7-39.6,2.6.5,5.5,1,8.4,1.5-.7,6.5-1.5,13.3-2.6,19.6Z"/><path class="cls-12" d="M221.9,37.9c.3-3.3.5-5.1.6-6.3,2.4.5,4.4,1,5.9,1.4-.2,2-.2,4.3-.4,6.4-1.8-.4-3.9-1-6.2-1.5Z"/><path class="cls-12" d="M225,73.8c-1.1,6.4-2.7,12.8-4.4,19.1l-7-1.2c3-13.1,5.3-26.2,6.7-39.5,2.4.5,4.8.9,6.8,1.3-.5,6.8-1.1,13.6-2.2,20.4Z"/><path class="cls-12" d="M210.4,106l6.4,1.1c-.5,1.8-1.3,4.4-1.7,5.9l-6.1-1c.2-.8,1-4.4,1.4-6Z"/><path class="cls-12" d="M219.8,95.8c-.7,2.8-1.5,5.6-2.3,8.4l-6.5-1.1c.6-2.8,1.3-5.6,1.9-8.4l6.8,1.2Z"/><path class="cls-12" d="M220.7,49c.3-2.8.6-5.5.8-7.9,2.3.5,4.4,1,6.3,1.4-.1,2.6-.3,5.1-.5,7.8-2-.4-4.3-.8-6.7-1.3Z"/><path class="cls-8" d="M228.1,37.1c.1-1.3,0-2.9.2-4.2,2.7.7,4.1,1.2,4.4,1.5.2.2.6,2.5.8,6.4-.1,0-2.3-.6-5.5-1.5,0-.8,0-1.5.1-2.3Z"/><path class="cls-8" d="M225.8,96.8c-1,3.2-2,5.9-2.9,8.2l-5.3-.9c.8-2.8,1.5-5.6,2.3-8.4l6,1Z"/><path class="cls-8" d="M216.7,107.1l5,.9c-1.6,3.7-2.6,5.8-2.6,5.8l-4-.7c.4-1.5,1.2-4.1,1.7-5.9Z"/><path class="cls-8" d="M231.2,75c-1.2,7.2-2.8,13.5-4.4,18.9l-6.1-1.1c3.6-12.9,5.8-26.1,6.5-39.4,3.2.6,5.7,1.1,6.3,1.2-.3,5.8-1,12.7-2.3,20.3Z"/><path class="cls-8" d="M227.7,44.8c0-.8,0-1.5.1-2.2,3,.7,5.2,1.2,5.8,1.3,0,2.2,0,4.8,0,7.7-.5,0-3-.6-6.3-1.2.1-1.9.2-3.7.4-5.6Z"/><path class="cls-1" d="M178.2,106.8s0,0,0-.1"/><path class="cls-9" d="M178.6,100.6l-4.1-.7c0-.9,0-2-.1-3.1l4.4.8c0,1.1-.2,2.1-.2,3Z"/><path class="cls-1" d="M174.4,96.8c0,1.1,0,2.2.1,3.1h-.1s-.2-3.1-.2-3.1h.2Z"/><path class="cls-10" d="M184.9,101.6l-6.3-1.1c0-.9.2-2,.2-3l6.4,1.1c-.1,1-.3,2-.4,3Z"/><path class="cls-7" d="M194.1,103.2l-9.2-1.6c.1-1,.3-2,.4-3l9.3,1.6c-.1,1-.3,2-.4,3Z"/><path class="cls-15" d="M203,101.7c-.2,1.1-.4,2.1-.6,3l-8.2-1.4c.1-1,.3-2,.4-3l8.4,1.4Z"/><path class="cls-18" d="M211.1,103.1c-.2,1.1-.5,2.1-.7,3l-8-1.4c.2-.9.4-1.9.6-3l8.1,1.4Z"/><path class="cls-18" d="M217.6,104.2c-.3,1.1-.6,2.1-.8,3l-6.4-1.1c.2-.9.4-1.9.7-3l6.5,1.1Z"/><path class="cls-18" d="M222.9,105.1c-.4,1.1-.8,2-1.2,2.9l-5-.9c.3-.9.5-1.9.8-3l5.3.9Z"/><path class="cls-1" d="M223.1,105.1l-1.2,2.9h-.1c.4-.9.8-1.9,1.2-2.9h.1Z"/><path class="cls-9" d="M190.3,32.9c-.3,1-.7,2-1,3-2.3-.3-3.9-.4-4.5-.5.4-1.1.8-2,1.1-2.9.4,0,2,.2,4.3.4Z"/><path class="cls-1" d="M185.8,32.5s0,0,0,0c-.4.9-.7,1.8-1.1,2.9-.1,0-.2,0-.2,0l1.2-2.9Z"/><path class="cls-10" d="M196.9,33.7c-.2.9-.5,1.9-.7,3-2.5-.3-4.9-.6-6.9-.8.3-.9.6-1.9,1-3,1.8.2,4.1.4,6.6.8Z"/><path class="cls-7" d="M205.8,34.9c-.2.9-.4,2-.6,3.1-2.8-.4-6-.8-9-1.2.2-1.1.5-2.1.7-3,2.7.3,5.8.7,8.9,1.2Z"/><path class="cls-15" d="M213.5,39.4c-3-.6-5.1-1-8.3-1.5.2-1,.4-2.1.6-3.1,2.7.4,5.4.8,8.1,1.3-.1,1-.3,2-.4,3.2Z"/><path class="cls-1" d="M205.3,37.1c.2-.8.3-1.5.4-2.3-.1.7-.3,1.5-.4,2.3Z"/><path class="cls-15" d="M221.5,41.1c-2.7-.6-5.5-1.2-8.1-1.7.1-1.1.3-2.2.4-3.2,2.8.5,5.5,1.1,8,1.7-.1,1.1-.2,2.1-.3,3.2Z"/><path class="cls-15" d="M227.8,42.6c-1.9-.4-4.1-.9-6.3-1.4.1-1.1.2-2.2.3-3.2,2.3.5,4.4,1,6.2,1.5,0,1.1-.1,2.1-.2,3.2Z"/><path class="cls-18" d="M233.7,43.9c-.6-.1-2.9-.7-5.8-1.3,0-1.1.1-2.1.2-3.2,3.3.8,5.4,1.4,5.5,1.5,0,.9,0,2,.1,3.1Z"/><path class="cls-1" d="M233.9,43.9s0,0-.2,0c0-1.1,0-2.1-.1-3.1h0s.3,3.1.3,3.1Z"/><path class="cls-9" d="M186.9,43.5c-.3,1-.6,2-.8,2.9-2.3-.4-4-.6-4.6-.7.3-1,.6-2,.8-2.9.5,0,2.2.3,4.6.7Z"/><path class="cls-1" d="M182.2,42.8s0,0,.1,0c-.3.9-.6,1.9-.8,2.9-.2,0-.2,0-.2,0l1-2.9Z"/><path class="cls-10" d="M194.4,44.5c-.2,1-.5,2-.7,3-2.8-.4-5.5-.9-7.6-1.2.3-.9.5-1.9.8-2.9,2.1.3,4.7.7,7.4,1.1Z"/><path class="cls-7" d="M203.6,45.9c-.2,1-.4,2.1-.6,3.1-2.9-.5-6.2-1-9.3-1.5.2-1,.5-2,.7-3,3.2.5,6.5,1,9.2,1.4Z"/><path class="cls-15" d="M212,50.6c-3.4-.6-5.6-1-9-1.5.2-1,.4-2.1.6-3.1,3.7.6,5.1.8,8.8,1.5-.1,1-.3,2.1-.4,3.1Z"/><path class="cls-15" d="M220.3,52.1c-2.8-.5-5.8-1.1-8.4-1.5.1-1,.3-2.1.4-3.1,2.5.5,5.4,1,8.3,1.6-.1,1-.2,2-.3,3.1Z"/><path class="cls-15" d="M227.1,53.4c-2-.4-4.4-.8-6.8-1.3.1-1,.2-2.1.3-3.1,2.4.5,4.7.9,6.7,1.3,0,1-.1,2-.2,3.1Z"/><path class="cls-18" d="M233.5,54.7c-.7-.1-3.1-.6-6.3-1.2,0-1,.1-2.1.2-3.1,3.3.6,5.7,1.1,6.3,1.2,0,1,0,2-.1,3.1Z"/><path class="cls-1" d="M233.7,54.7s0,0-.2,0c0-1.1,0-2.1.1-3.1,0,0,0,0,0,0v3.1Z"/><path class="cls-9" d="M179.6,88.9l-5-.9c0-1,0-2,.2-3.1l5.2.9c0,1-.2,2-.3,3Z"/><path class="cls-1" d="M174.7,84.9c0,1.1-.1,2.1-.2,3.1h-.1s.1-3.1.1-3.1h.2Z"/><path class="cls-10" d="M186.4,90l-6.8-1.2c0-1,.2-2,.3-3l6.9,1.2c-.1,1-.3,2-.4,3Z"/><path class="cls-7" d="M195.8,91.7l-9.4-1.6c.1-1,.3-2,.4-3l9.5,1.6c-.2,1-.3,2-.4,3Z"/><path class="cls-15" d="M205.2,90.2c-.2,1-.4,2-.6,3l-8.9-1.5c.1-1,.3-2,.4-3l9,1.6Z"/><path class="cls-15" d="M213.7,91.6c-.2,1-.4,2-.7,3l-8.3-1.4c.2-1,.4-2,.6-3l8.4,1.4Z"/><path class="cls-18" d="M220.6,92.8c-.3,1-.5,2-.8,3l-6.8-1.2c.2-1,.4-2,.7-3l7,1.2Z"/><path class="cls-18" d="M226.8,93.9c-.3,1-.6,2-.9,3l-6-1c.3-1,.5-2,.8-3l6.1,1.1Z"/><path class="cls-1" d="M227,93.9l-1,2.9h-.2c.3-1,.6-2,.9-3h.3Z"/></g></svg>