<?xml version="1.0" encoding="UTF-8"?><svg xmlns="http://www.w3.org/2000/svg" width="257" height="167" xmlns:xlink="http://www.w3.org/1999/xlink" viewBox="0 0 257 167"><defs><style>.cls-1{fill:url(#linear-gradient);}.cls-1,.cls-2,.cls-3,.cls-4,.cls-5,.cls-6,.cls-7,.cls-8,.cls-9,.cls-10,.cls-11,.cls-12,.cls-13{stroke-width:0px;}.cls-14{fill:#5dab4f;}.cls-14,.cls-15,.cls-16,.cls-17,.cls-18,.cls-19,.cls-20,.cls-21{stroke:#010101;}.cls-14,.cls-18,.cls-19{stroke-width:.33px;}.cls-15{fill:#e5c29e;}.cls-15,.cls-16,.cls-17{stroke-miterlimit:10;}.cls-16{fill:#b4b4b4;}.cls-17{fill:#f6eb16;}.cls-18{fill:#231f20;stroke-linecap:round;}.cls-19,.cls-20{fill:none;}.cls-20,.cls-21{stroke-width:.33px;}.cls-21{fill:#808184;}.cls-2{fill:#f7bf32;}.cls-3{fill:#4a8e41;}.cls-4{fill:#793422;}.cls-5{fill:#555554;}.cls-6{fill:#949292;}.cls-7{fill:#838384;}.cls-8{fill:#cfcecd;}.cls-9{fill:#a97a4e;}.cls-10{fill:#b7b7b8;}.cls-11{fill:#9e6e47;}.cls-12{fill:#ba8b57;}.cls-13{fill:#e2e2e2;}</style><linearGradient id="linear-gradient" x1="128.5" y1="0" x2="128.5" y2="167" gradientUnits="userSpaceOnUse"><stop offset="0" stop-color="#50b4d2"/><stop offset="1" stop-color="#ccecfc"/></linearGradient></defs><g id="Layer_2"><rect class="cls-1" width="257" height="167"/></g><g id="Layer_1"><polygon class="cls-17" points="169.82 165.26 158.3 165.26 127.66 101.24 96.59 165.26 85.94 165.26 122.92 89.54 132.45 89.54 169.82 165.26"/><path class="cls-16" d="M127.88,88.58c2.81,0,5.09,2.07,5.09,4.62s-2.28,4.62-5.09,4.62-5.09-2.06-5.09-4.62,2.28-4.62,5.09-4.62Z"/><rect class="cls-15" x="6.29" y="98.31" width="243.19" height="6.21"/><path class="cls-18" d="M221.27,82.24c0,.24-6.99.43-15.61.43s-15.61-.19-15.61-.43,6.99-.43,15.61-.43,15.61.19,15.61.43Z"/><path class="cls-2" d="M194.03,57.2c-.09.55.2,1.12.56,1.32.37.2.77.12,1.15-.02,1.19-.42,2.28-1.31,3.26-2.38.11-.12.22-.25.34-.36v-.03s-.08-.08-.12-.14c-.2-.25-.23-.52-.16-.78-1.52-.05-3.05.38-4.39,1.42-.28.22-.58.51-.65.96Z"/><path class="cls-2" d="M195.05,52.7c-.12.15-.2.37-.18.59.02.27.18.47.34.61.64.58,1.42.67,2.16.67.6,0,1.2-.06,1.78.04.16-.34.49-.66.85-.94-.69-.47-1.38-.92-2.11-1.19-.8-.3-1.65-.39-2.43-.06-.15.06-.3.14-.42.29Z"/><path class="cls-2" d="M197.24,60.13c-.08.29-.14.59-.11.9.03.3.16.57.32.77.29.38.68.6,1.07.55.39-.05.7-.23.88-.74.14-.41.29-1.52.35-1.97.18-1.33.17-1.35.33-1.92.14-.53.29-.99.5-1.51-.29-.05-.59-.13-.87-.25-.05-.02-.11-.05-.17-.08-1.06,1.05-1.85,2.52-2.31,4.27Z"/><path class="cls-2" d="M198.55,51.15c-.05.32.09.65.27.87.52.63,1.31.63,1.84,1.22.37-.21.69-.36.84-.39.16-.04.33-.07.49-.09h0c-.11-.88-.49-1.49-1.03-1.91-.54-.43-1.17-.53-1.77-.36-.27.08-.58.26-.64.66Z"/><path class="cls-4" d="M202.17,52.75c-.06,0-.12,0-.18.01-.17.01-.33.04-.49.09-.15.04-.47.18-.84.39-.21.12-.44.27-.66.43-.36.28-.69.61-.85.94-.03.07-.06.14-.08.2-.07.26-.04.53.16.78.04.05.08.1.13.14.06.05.12.09.19.13.05.03.11.06.17.08.28.13.58.2.87.25.12.02.24.03.36.05.04,0,.09,0,.13,0,.32.02.63.02.95,0,.02,0,.03,0,.05,0,.1-.01.2-.02.3-.03.41-.06.82-.16,1.22-.31.02,0,.04-.01.06-.02.11-.04.22-.09.33-.15.12-.07.24-.16.35-.27.16-.16.29-.4.34-.67.02-.07.03-.15.03-.23,0-.14-.01-.28-.05-.41-.05-.18-.13-.35-.22-.48-.1-.14-.21-.24-.33-.33-.07-.05-.14-.1-.22-.14-.01,0-.03-.02-.04-.03-.53-.3-1.11-.45-1.68-.43Z"/><path class="cls-2" d="M199.99,60.61c-.18.97-.14,1.55-.14,1.55.08.91.29,1.11.55,1.3.25.19.57.08.8-.18.22-.25.37-.62.49-1,.3-1,.43-2.1.46-3.2.03-.9,0-1.5-.04-2.3-.03-.18-.05-.36-.08-.54-.32.03-.64.03-.95,0-.04,0-.09,0-.13,0-.41,1.67-.64,2.73-.95,4.37Z"/><path class="cls-2" d="M202.02,56.25c.03.18.06.36.08.54-.01-.17-.02-.35-.03-.54-.02,0-.03,0-.05,0Z"/><path class="cls-3" d="M202.08,56.24c.01.19.02.37.03.54.49,3.24.68,6.92,1.62,9.83.47,1.45,1.38,4.38,1.76,5.78.61,2.26-.04,9.52.5,11.48.17-.11.37-.95.54-1.05.04-2.32.07-8.15-.16-9.92-.12-.94-.78-3.04-1.16-3.89-1.61-3.6-2.16-7.96-2.62-12.23-.08-.23-.15-.44-.21-.59-.1.01-.2.02-.3.03Z"/><path class="cls-2" d="M202.17,52.75c.57-.02,1.15.13,1.68.43.01,0,.03.02.04.03.48-.51.87-.9,1.36-1.41.12-.12.24-.25.31-.44.14-.39,0-.9-.26-1.13-.26-.24-.58-.25-.88-.19-1.04.22-1.93,1.25-2.25,2.71Z"/><path class="cls-2" d="M202.58,56.8c.17.5.34,1.11.41,1.46.15.83.22,1.68.34,2.52.06.41.14.85.36,1.12.24.3.61.34.9.14.29-.2.49-.6.59-1.04.1-.44.11-.92.07-1.38-.12-1.54-.73-2.95-1.65-3.72-.4.15-.81.25-1.22.31.06.15.13.35.21.59Z"/><path class="cls-2" d="M204.34,55.46c-.11.11-.22.2-.35.27.32.2.73.68.99,1.26.27.59.47,1.24.76,1.8.29.56.7,1.04,1.18,1.1.32.04.63-.1.92-.28.24-.15.47-.32.64-.61.3-.54.26-1.37,0-1.96-.26-.59-.68-.97-1.12-1.26-.84-.56-1.76-.82-2.68-.99-.05.27-.18.51-.34.67Z"/><path class="cls-2" d="M204.1,53.34c.12.09.24.2.33.33.1.14.18.3.22.48,1.42.32,2.8,1.23,4.23,1.02.33-.05.71-.21.85-.65.12-.38,0-.85-.2-1.14-.21-.29-.49-.43-.77-.53-.86-.29-1.75-.21-2.63-.14-.75.07-1.4.05-2.04.61Z"/><path class="cls-19" d="M202.17,52.75h0c.32-1.47,1.2-2.49,2.25-2.71.3-.07.62-.05.88.19.25.23.4.75.26,1.13-.07.19-.19.32-.31.44-.48.51-.87.9-1.36,1.41"/><path class="cls-19" d="M204.1,53.35s0,0,0,0c.64-.57,1.29-.55,2.04-.61.88-.08,1.77-.16,2.63.14.28.1.56.24.77.53.21.29.32.76.2,1.14-.14.45-.51.61-.85.65-1.43.21-2.81-.7-4.23-1.02-.01,0-.02,0-.03,0"/><path class="cls-19" d="M201.99,52.75c-.11-.87-.49-1.48-1.03-1.9-.54-.43-1.17-.53-1.77-.36-.27.08-.58.26-.64.66-.05.32.09.65.27.87.52.63,1.31.63,1.84,1.22,0,0,0,0,.01.01"/><path class="cls-19" d="M200.05,53.7s-.03-.02-.04-.03c-.69-.47-1.38-.92-2.11-1.19-.8-.3-1.65-.39-2.43-.06-.15.06-.3.14-.42.29-.12.15-.2.37-.18.59.02.27.18.47.34.61.64.58,1.42.67,2.16.67.6,0,1.2-.06,1.78.04.02,0,.03,0,.05,0"/><path class="cls-19" d="M204.65,54.79s.02,0,.04,0c.92.17,1.83.43,2.68.99.44.29.86.67,1.12,1.26.26.59.3,1.42,0,1.96-.16.29-.4.47-.64.61-.29.18-.61.32-.92.28-.48-.06-.89-.55-1.18-1.1-.29-.56-.49-1.21-.76-1.8-.26-.58-.67-1.06-.99-1.26,0,0,0,0-.01,0"/><path class="cls-19" d="M200.59,56.18s0,.01,0,.01c-.22.53-.36.99-.5,1.51-.15.57-.15.59-.33,1.92-.06.45-.21,1.56-.35,1.97-.18.51-.49.69-.88.74-.39.05-.78-.17-1.07-.55-.15-.2-.29-.47-.32-.77-.03-.3.03-.61.11-.9.46-1.75,1.25-3.21,2.31-4.27,0,0,.01,0,.02-.02"/><path class="cls-19" d="M203.59,55.89s.01,0,.02.01c.91.77,1.52,2.18,1.65,3.72.04.46.03.94-.07,1.38-.1.44-.31.84-.59,1.04-.29.2-.66.17-.9-.14-.22-.27-.3-.71-.36-1.12-.12-.84-.19-1.69-.34-2.52-.06-.35-.24-.96-.41-1.46-.08-.23-.15-.44-.21-.59,0,0,0,0,0-.02"/><path class="cls-19" d="M199.09,54.81h-.02c-1.52-.05-3.05.38-4.39,1.42-.28.22-.58.51-.65.96-.09.55.2,1.12.56,1.32.37.2.77.12,1.15-.02,1.19-.42,2.28-1.31,3.26-2.38.11-.12.22-.25.34-.36"/><path class="cls-19" d="M202.08,56.24c.01.19.02.37.03.54.04.8.07,1.4.04,2.3-.03,1.09-.16,2.2-.46,3.2-.12.38-.26.75-.49,1-.22.25-.54.36-.8.18-.26-.19-.47-.39-.55-1.3,0,0-.04-.58.14-1.55.31-1.65.54-2.7.95-4.37,0,0,0,0,0-.02"/><path class="cls-19" d="M202.58,56.7s0,.06,0,.09c.45,4.27,1.01,8.62,2.62,12.23.38.85,1.04,2.96,1.16,3.89.23,1.77.2,7.59.16,9.92-.17.11-.37.95-.54,1.05-.54-1.96.11-9.22-.5-11.48-.37-1.4-1.28-4.33-1.76-5.78-.95-2.91-1.14-6.59-1.62-9.83-.03-.18-.05-.36-.08-.54,0-.01,0-.03,0-.04"/><path class="cls-19" d="M200.66,53.23c.37-.21.69-.36.84-.39.16-.04.33-.07.49-.09.06,0,.12-.01.18-.01.57-.02,1.15.13,1.68.43.01,0,.03.02.04.03.07.04.15.09.22.14.12.09.24.2.33.33.1.14.18.3.22.48.04.13.05.27.05.41,0,.08-.01.16-.03.23-.05.27-.18.51-.34.67-.11.11-.22.2-.35.27-.11.06-.22.11-.33.15-.02,0-.04.01-.06.02-.4.15-.81.25-1.22.31-.1.01-.2.02-.3.03-.02,0-.03,0-.05,0-.32.03-.64.03-.95,0-.04,0-.09,0-.13,0-.12-.01-.24-.03-.36-.05-.29-.05-.59-.13-.87-.25-.05-.02-.11-.05-.17-.08-.06-.04-.13-.08-.19-.13-.05-.04-.09-.08-.13-.14-.2-.25-.23-.52-.16-.78.02-.07.04-.14.08-.2.16-.34.49-.66.85-.94.22-.16.44-.31.66-.43Z"/><path class="cls-2" d="M191.45,76.92c.09.55.55,1,.96,1.07.41.07.77-.14,1.08-.39.99-.79,1.43-1.44,2.01-2.77.08-.17.19-.32.28-.48v-.02c-.06-.02-.13-.05-.2-.1-.27-.18-.39-.42-.41-.69-1.47.4-2.48.82-3.43,2.26-.2.3-.38.67-.31,1.12Z"/><path class="cls-2" d="M190.69,72.85c-.07.17-.07.41.02.61.11.25.32.38.51.47.79.34,1.56.18,2.27-.07.6-.21,1.08-.49,1.71-.57.05-.37.26-.78.51-1.14h0c-.84-.23-1.57-.41-2.39-.44-.85-.03-1.69.16-2.33.73-.12.11-.23.23-.3.41Z"/><path class="cls-2" d="M194.94,77.7c-.01.29.06.61.19.88.13.27.34.48.55.62.4.27.84.35,1.19.18.35-.17.59-.45.59-.99,0-.43-.25-1.53-.3-1.98-.15-1.35-.13-1.51-.1-2.05h0c-.29.04-.59.06-.9.03-.06,0-.13-.01-.19-.03-.67,1.31-.97,1.65-1.03,3.33Z"/><path class="cls-2" d="M193.51,70.23c.06.33.3.59.53.74.7.43,1.44.18,2.14.56.28-.32.54-.56.67-.64.15-.1.29-.18.45-.24-.39-.72-.99-1.26-1.6-1.47-.64-.23-1.28-.12-1.79.23-.24.16-.46.44-.4.83Z"/><path class="cls-4" d="M195.97,74.38c.06.01.13.02.19.03.31.03.6,0,.9-.04.12-.02.24-.05.36-.07.04-.01.09-.02.13-.03.33-.09.65-.2.95-.33.07-.03.15-.07.22-.1.4-.2.79-.44,1.15-.74,0,0,0,0,.01-.01.09-.08.18-.16.26-.25.1-.11.18-.23.25-.37.1-.21.14-.47.11-.74,0-.07-.02-.15-.05-.22-.04-.13-.1-.26-.18-.37-.1-.16-.23-.29-.37-.39-.14-.1-.28-.17-.43-.21-.08-.02-.15-.04-.23-.06-.02,0-.05,0-.07-.01-.6-.11-1.2-.07-1.73.14-.05.02-.1.04-.15.06-.15.07-.3.15-.45.24-.13.08-.39.32-.67.64-.16.18-.32.39-.47.62-.25.37-.45.77-.51,1.14-.01.08-.02.16-.01.24.02.27.13.51.41.69.07.04.13.07.2.1.06.03.12.04.18.05Z"/><path class="cls-2" d="M197.66,77.19c.14.97.37,1.51.37,1.51.37.83.64.95.94,1.05.3.09.57-.11.7-.42.13-.31.15-.71.14-1.11-.04-1.05-.1-1.03-.31-1.63-.25-.71-.5-1.43-.77-2.14-.07-.18-.13-.35-.21-.53-.31.14-.63.25-.95.33-.04.01-.09.02-.13.03.1,1.43,0,1.26.24,2.9Z"/><path class="cls-3" d="M198.51,73.92c.07.17.14.35.21.53h0c1.5,2.9,2.87,6.31,4.71,8.76.91,1.22,2.81,2.48,2.17,1.8-2.71-2.91-4.56-6.75-6.38-10.68-.16-.19-.32-.36-.49-.51-.07.04-.15.07-.22.1Z"/><path class="cls-2" d="M197.45,70.58h0c.54-.2,1.13-.25,1.73-.13.02,0,.05,0,.07.01h0c.27-.6.54-1.19.81-1.78.07-.15.14-.32.15-.52.01-.41-.3-.85-.61-.99-.32-.14-.63-.05-.89.11-.89.53-1.39,1.85-1.26,3.29Z"/><path class="cls-2" d="M199.21,74.33c.3.36.56.77.8,1.2.41.73.57,1.67,1.21,2.23.09.07.14.14.43.33.33.21.59.13.8-.15.21-.28.27-.73.23-1.18-.05-.45-.19-.9-.38-1.32-.6-1.38-1.4-2.03-2.43-2.36-.36.3-.74.54-1.15.74.17.15.33.32.49.51Z"/><path class="cls-2" d="M199.48,70.51h0c.14.05.29.12.43.22.14.1.27.23.37.39,1.45-.15,3.05.26,4.34-.4.3-.15.6-.43.59-.89-.01-.4-.27-.81-.55-1.01-.29-.21-.6-.25-.9-.25-.91,0-1.73.36-2.54.72-.64.29-1.31.59-1.74,1.23Z"/><path class="cls-2" d="M200.4,72.45c-.06.14-.15.26-.25.37.44.11.91.41,1.35.87.44.47.84,1.02,1.3,1.46.46.43,1,.76,1.48.66.31-.06.57-.3.79-.56.18-.21.35-.46.4-.78.11-.61-.2-1.38-.63-1.85-.44-.47-.96-.7-1.47-.83-.98-.25-1.93-.2-2.85-.07.03.27-.01.54-.11.74Z"/><path class="cls-19" d="M196.18,71.53c.28-.32.54-.56.67-.64.15-.1.29-.18.45-.24.05-.02.1-.04.15-.06.54-.2,1.13-.25,1.73-.14.02,0,.05,0,.07.01.08.02.15.04.23.06.14.04.29.11.43.21.14.1.27.23.37.39.08.11.14.23.18.37.02.08.04.15.05.22.03.27-.01.54-.11.74-.06.14-.15.26-.25.37-.08.09-.17.17-.26.25,0,0,0,0-.01.01-.36.3-.74.54-1.15.74-.07.04-.15.07-.22.1-.31.14-.63.25-.95.33-.04.01-.09.02-.13.03-.12.03-.24.05-.36.07-.29.05-.59.07-.9.04-.06,0-.13-.01-.19-.03-.06-.01-.12-.03-.18-.05-.07-.02-.13-.05-.2-.1-.27-.18-.39-.42-.41-.69,0-.08,0-.16.01-.24.05-.37.26-.78.51-1.14.15-.22.31-.43.47-.62Z"/><path class="cls-19" d="M197.45,70.58c-.13-1.44.37-2.76,1.26-3.29.26-.16.57-.25.89-.11.32.14.63.58.61.99,0,.2-.08.36-.15.52-.27.59-.54,1.18-.81,1.77"/><path class="cls-19" d="M199.48,70.51c.43-.64,1.1-.95,1.74-1.23.81-.36,1.63-.72,2.54-.72.3,0,.61.04.9.25.29.21.54.61.55,1.01.01.46-.29.74-.59.89-1.29.66-2.89.25-4.34.4,0,0-.02,0-.02,0"/><path class="cls-19" d="M197.3,70.65c-.39-.72-.99-1.26-1.6-1.47-.64-.23-1.28-.12-1.79.23-.24.16-.46.44-.4.83.06.33.3.59.53.74.7.43,1.44.18,2.14.56.02,0,.03.02.05.02"/><path class="cls-19" d="M195.71,72.15c-.84-.23-1.57-.41-2.39-.44-.85-.03-1.69.16-2.33.73-.12.11-.23.23-.3.41-.07.17-.07.41.02.61.11.25.32.38.51.47.79.34,1.56.18,2.27-.07.6-.21,1.08-.49,1.71-.57,0,0,0,0,.01,0"/><path class="cls-19" d="M200.45,71.71s.03,0,.05,0c.93-.13,1.88-.18,2.85.07.51.13,1.04.36,1.47.83.43.47.75,1.24.63,1.85-.06.33-.23.57-.4.78-.22.26-.47.5-.79.56-.47.1-1.02-.23-1.48-.66-.46-.44-.86-.99-1.3-1.46-.44-.47-.91-.76-1.35-.87,0,0-.01,0-.02,0"/><path class="cls-19" d="M197.06,74.37c-.03.54-.05.7.1,2.05.05.45.31,1.55.3,1.98,0,.54-.24.81-.59.99-.35.17-.8.09-1.19-.18-.21-.14-.42-.35-.55-.62-.13-.28-.2-.59-.19-.88.07-1.67.37-2.01,1.03-3.33,0,0,.01-.02.02-.03"/><path class="cls-19" d="M199.82,73.06s.04.01.05.02c1.03.33,1.83.98,2.43,2.36.18.42.33.88.38,1.32.05.45-.02.9-.23,1.18-.21.28-.47.36-.8.15-.3-.19-.34-.26-.43-.33-.64-.55-.8-1.49-1.21-2.23-.24-.43-.51-.85-.8-1.2-.16-.19-.32-.36-.49-.51,0,0,0,0-.01-.01"/><path class="cls-19" d="M195.21,73.53s-.02,0-.02,0c-1.47.4-2.48.82-3.43,2.26-.2.3-.38.67-.31,1.12.09.55.55,1,.96,1.07.41.07.77-.14,1.08-.39.99-.79,1.43-1.44,2.01-2.77.08-.17.19-.32.28-.48"/><path class="cls-19" d="M198.49,73.87s.01.03.02.05c.07.17.14.35.21.53.27.71.52,1.43.77,2.14.22.6.28.58.31,1.63.01.4,0,.79-.14,1.11-.13.31-.4.51-.7.42-.3-.09-.57-.21-.94-1.05,0,0-.23-.54-.37-1.51-.24-1.64-.14-1.47-.24-2.9,0-.02,0-.04,0-.06"/><path class="cls-19" d="M199.21,74.32s0,0,0,.01c1.82,3.92,3.67,7.76,6.38,10.68.64.68-1.26-.58-2.17-1.8-1.83-2.44-3.2-5.86-4.71-8.76"/><path class="cls-14" d="M206.94,63.66c.11-.07.22,1.46.21,1.6-.03.6-.16,1.19-.38,1.71-.26.63-1.19,2.23-1.8,1.76-.65-.52-.14-2.06.11-2.66.44-1.03,1.08-1.89,1.85-2.4Z"/><path class="cls-14" d="M200.52,63.59c-.02-.1,1.18.33,1.29.38.44.23.85.53,1.16.87.39.42,1.28,1.67.72,1.96-.62.32-1.61-.59-1.98-1-.63-.68-1.06-1.46-1.19-2.22Z"/><path class="cls-2" d="M221.16,67.52c.01.47-.34.91-.7,1.02-.37.11-.73-.02-1.06-.19-1.04-.54-1.93-1.45-2.69-2.49-.1-.13-.13-.24-.23-.36.05-.03.1-.06.15-.1.22-.18.29-.4.26-.63h.02c1.42.18,2.68.76,3.77,1.84.23.23.46.52.47.91Z"/><path class="cls-2" d="M220.9,63.61c.09.14.13.34.09.52-.06.22-.23.36-.39.46-.67.39-1.4.35-2.09.23-.57-.1-1.07-.26-1.65-.25h0c-.11-.3-.36-.62-.66-.91.7-.28,1.4-.56,2.12-.68.78-.13,1.58-.08,2.26.32.13.08.26.16.34.3Z"/><path class="cls-2" d="M217.85,69.51c.03.25.05.52-.02.77-.07.25-.23.45-.4.6-.32.27-.72.4-1.07.3-.35-.1-.62-.3-.71-.76-.08-.36-.06-1.32-.05-1.71.02-1.15.02-1.16-.04-1.66-.06-.44-.13-.9-.25-1.35.28,0,.56-.02.83-.08.04-.01.09-.02.13-.03h0c.85,1.05,1.4,2.37,1.59,3.92Z"/><path class="cls-2" d="M217.88,61.77c0,.28-.18.54-.37.69-.57.45-1.29.33-1.87.74h0c-.31-.23-.59-.4-.72-.46-.14-.06-.28-.1-.42-.14v-.03c.23-.72.63-1.15,1.19-1.42.55-.27,1.16-.26,1.69-.03.24.11.5.31.5.65Z"/><path class="cls-4" d="M216.19,63.67c.3.29.55.61.66.91.02.07.04.13.05.19.03.23-.04.44-.26.63-.05.04-.1.07-.15.1-.07.04-.14.06-.21.08-.04.01-.09.02-.13.03-.28.06-.56.08-.83.08-.11,0-.23,0-.34-.02-.04,0-.08,0-.12-.01-.32-.03-.64-.09-.95-.17-.07-.02-.14-.04-.21-.06-.39-.11-.78-.27-1.15-.47-.01,0-.02-.01-.03-.02-.09-.05-.18-.1-.26-.16-.11-.08-.22-.17-.31-.29-.12-.16-.21-.38-.22-.61,0-.07,0-.13,0-.2.02-.12.05-.23.1-.33.07-.15.17-.27.28-.37.11-.1.23-.17.35-.23.07-.03.14-.06.21-.09.02,0,.04-.01.05-.02.53-.17,1.07-.21,1.59-.11.07.01.14.03.21.05.14.03.28.08.42.14.13.06.41.22.72.46.18.13.37.29.55.46Z"/><path class="cls-2" d="M215.23,69.5c.03.84-.08,1.32-.08,1.32-.2.75-.42.89-.69,1-.26.12-.54-.02-.71-.27-.17-.25-.26-.58-.31-.92-.14-.89-.11-1.83.01-2.75.09-.69.18-1.19.3-1.77.04-.19.09-.39.13-.6.31.08.63.14.95.17.04,0,.08,0,.12.01.15,1.46.22,2.39.27,3.82Z"/><path class="cls-3" d="M213.68,65.45c.07.02.14.04.21.06-.05.22-.09.42-.13.6h0c-.93,2.78-1.69,6.33-2.97,8.63-.64,1.15-1.69,3.14-2.28,4.25-1.11,2.09-.91,3.67-1.68,5.24-.14-.12-.55-.61-.68-.73.51-1.06,1.18-4.16,1.82-5.1.45-.67,1.11-2.19,1.57-2.85,2.12-2.97,2.81-6,3.88-9.73.08-.12.17-.24.27-.35v-.02Z"/><path class="cls-2" d="M214.29,62.55h0c-.52-.09-1.06-.05-1.59.12-.02,0-.04.01-.05.02-.37-.5-.67-.89-1.05-1.39-.09-.12-.19-.25-.22-.42-.08-.35.13-.75.4-.91.27-.16.57-.12.84-.02.93.35,1.6,1.33,1.69,2.61Z"/><path class="cls-2" d="M213.4,65.82c-.25.37-.45.8-.62,1.24-.25.67-.44,1.38-.66,2.06-.11.34-.25.69-.49.89-.26.22-.61.19-.85-.02-.24-.21-.37-.58-.41-.96-.03-.38.03-.78.13-1.17.32-1.25,1.09-2.36,2.02-2.88.37.2.75.35,1.15.47v.02c-.1.11-.19.23-.27.35Z"/><path class="cls-2" d="M212.43,62.75v.02c-.12.06-.24.13-.35.23-.11.1-.21.23-.28.37-1.36.06-2.76.6-4.05.21-.3-.09-.63-.28-.69-.68-.06-.34.11-.71.34-.92.23-.21.51-.29.78-.33.83-.11,1.65.09,2.45.29.69.17,1.28.23,1.8.81Z"/><path class="cls-2" d="M211.92,64.52c.09.12.2.21.31.29-.45.1-.78.44-1.11.89-.32.45-.6.96-.95,1.39-.35.42-.79.77-1.25.75-.3-.02-.57-.18-.82-.38-.2-.16-.39-.34-.5-.61-.2-.5-.05-1.19.27-1.64.32-.45.77-.71,1.21-.89.86-.34,1.74-.42,2.61-.42.01.23.1.45.22.61Z"/><path class="cls-19" d="M215.64,63.21c-.31-.24-.59-.4-.72-.46-.14-.06-.28-.1-.42-.14-.07-.02-.14-.03-.21-.05-.52-.1-1.06-.06-1.59.11-.02,0-.04.01-.05.02-.07.03-.14.05-.21.09-.12.06-.24.13-.35.23-.11.1-.21.23-.28.37-.05.1-.08.21-.1.33,0,.07-.01.13,0,.2.01.23.1.45.22.61.09.12.2.21.31.29.08.06.18.11.26.16.01,0,.02.01.03.02.37.2.75.35,1.15.47.07.02.14.04.21.06.31.08.63.14.95.17.04,0,.08,0,.12.01.11,0,.23.01.34.02.28,0,.56-.02.83-.08.04-.01.09-.02.13-.03.07-.02.15-.05.21-.08.05-.03.1-.06.15-.1.22-.18.29-.4.26-.63,0-.06-.02-.13-.05-.19-.11-.31-.36-.63-.66-.91-.18-.17-.37-.33-.55-.46Z"/><path class="cls-19" d="M214.29,62.55c-.09-1.28-.75-2.26-1.69-2.61-.27-.1-.57-.14-.84.02-.27.16-.48.57-.4.91.04.17.13.3.22.42.37.5.67.89,1.05,1.39,0,0,0,0,0,0"/><path class="cls-19" d="M212.43,62.75c-.52-.58-1.11-.64-1.8-.81-.8-.2-1.62-.4-2.45-.29-.27.04-.55.12-.78.33-.23.21-.4.59-.34.92.07.4.39.59.69.68,1.29.39,2.69-.16,4.05-.21.02,0,.03,0,.05,0"/><path class="cls-19" d="M214.51,62.58c.22-.72.63-1.15,1.18-1.42.55-.27,1.16-.26,1.69-.03.24.11.5.31.5.65,0,.28-.18.54-.37.69-.57.45-1.29.33-1.87.74"/><path class="cls-19" d="M216.17,63.68s.01,0,.02,0c.7-.28,1.4-.56,2.12-.68.78-.13,1.58-.08,2.26.32.13.08.26.16.34.3.09.14.13.34.09.52-.06.22-.23.36-.39.46-.67.39-1.4.35-2.09.23-.57-.1-1.07-.26-1.65-.25"/><path class="cls-19" d="M211.75,63.9s-.03,0-.05,0c-.88,0-1.76.08-2.61.42-.44.17-.89.43-1.21.89-.32.45-.48,1.14-.27,1.64.11.27.3.45.5.61.25.19.52.36.82.38.45.02.9-.32,1.25-.75.35-.43.62-.94.95-1.39.33-.45.66-.8,1.11-.89h0"/><path class="cls-19" d="M215.3,65.68s0,.01,0,.02c.12.45.2.91.25,1.35.06.5.05.52.04,1.66,0,.39-.02,1.34.05,1.71.1.45.36.65.71.76.35.1.75-.02,1.07-.3.17-.15.33-.35.4-.6.07-.25.05-.52.02-.77-.19-1.55-.74-2.87-1.59-3.92"/><path class="cls-19" d="M212.57,64.96s-.03.02-.04.02c-.93.52-1.7,1.63-2.02,2.88-.1.38-.16.78-.13,1.17.03.38.17.75.41.96.24.21.58.24.85.02.24-.2.38-.55.49-.89.23-.68.41-1.39.66-2.06.17-.44.37-.87.62-1.24.08-.12.17-.24.27-.35"/><path class="cls-19" d="M216.91,64.77c1.42.19,2.68.76,3.77,1.85.23.23.46.52.47.91.01.47-.34.91-.7,1.02-.37.11-.73-.02-1.06-.19-1.04-.54-1.93-1.45-2.69-2.49-.1-.13-.13-.24-.23-.36,0,0-.01-.02-.02-.02"/><path class="cls-19" d="M213.89,65.48s0,.01,0,.02c-.05.22-.09.42-.13.6-.12.59-.21,1.08-.3,1.77-.12.92-.15,1.87-.01,2.75.05.34.14.67.31.92.17.25.45.38.71.27.26-.12.49-.26.69-1,0,0,.12-.48.08-1.32-.06-1.43-.12-2.35-.27-3.82,0,0,0-.01,0-.02"/><path class="cls-19" d="M213.41,65.8s0,.01,0,.02c-1.06,3.73-1.75,6.77-3.88,9.73-.47.66-1.12,2.18-1.57,2.85-.64.94-1.31,4.04-1.82,5.1.14.11.55.61.68.73.77-1.56.57-3.15,1.68-5.24.59-1.11,1.64-3.1,2.28-4.25,1.28-2.3,2.04-5.85,2.97-8.63"/><path class="cls-14" d="M213.86,73.74c.13,0-.6,1.35-.68,1.46-.35.49-.78.91-1.24,1.23-.56.39-2.21,1.24-2.46.51-.27-.79.99-1.81,1.53-2.18.92-.63,1.93-1.01,2.85-1.03Z"/><path class="cls-14" d="M209.59,69.76c.04-.1.8.93.86,1.03.24.43.41.91.48,1.37.09.56.14,2.1-.49,2.03-.69-.08-1.01-1.39-1.09-1.93-.15-.92-.07-1.81.24-2.51Z"/><path class="cls-9" d="M215.79,82.37h-25.85s3.47,15.61,6.94,15.61h17.34c3.47,0,6.94-15.61,6.94-15.61h-5.37Z"/><path class="cls-11" d="M215.79,82.37h5.37s-3.47,15.61-6.94,15.61h-2.43v-.12c2.98-5.36,3.64-9.32,4-15.44v-.05Z"/><path class="cls-9" d="M215.79,82.37v.05c-.36,6.12-1.03,10.08-4,15.44v.12h-12.01v-.12c-3.61-4.42-5.03-9.71-4.34-15.38v-.1h20.35Z"/><path class="cls-12" d="M199.78,97.86v.12h-2.9c-3.47,0-6.94-15.61-6.94-15.61h5.5v.1c-.69,5.67.73,10.96,4.34,15.38Z"/><path class="cls-19" d="M215.79,82.37h5.37s-3.47,15.61-6.94,15.61h-17.34c-3.47,0-6.94-15.61-6.94-15.61h25.85Z"/><path class="cls-10" d="M83.4,71.45c0-.53-7.09-.96-15.84-.96s-15.84.43-15.84.96c0,.03.01.05.05.07l.56,3.14h-.03c0,.11.18.24.52.36l.22,1.65,2.75,20.73c0,.15.84.26,2.19.35.61.04,1.31.07,2.1.11,4.25.16,10.74.16,15.07,0,2.67-.09,4.52-.25,4.52-.46l2.58-20.72.21-1.68v-.03c.24-.11.38-.2.38-.3h.03l.57-3.22h-.03Z"/><path class="cls-6" d="M82.24,76.69l-2.58,20.72c0,.21-1.85.37-4.52.46h0c1.58-4.45,2.58-15.97,2.89-20.53,1.44-.18,2.85-.4,4.21-.65Z"/><path class="cls-7" d="M83.4,71.45c0-.53-7.09-.96-15.84-.96s-15.84.43-15.84.96c0,.03.01.05.05.07.2.18,1.09.4,2.49.61.59.09,1.28.17,2.04.26,2.95.32,7.06.58,11.54.58,4.76,0,8.95-.29,11.78-.65-.03.29-.05.57-.08.86.26.11.44.41.44.75,0,.41-.25.74-.58.8-.03.3-.05.6-.08.9-.37.05-.77.11-1.19.16-.01.32-.05.85-.09,1.54,1.44-.18,2.85-.4,4.21-.65l.21-1.68v-.03c.24-.11.38-.2.38-.3h.03l.57-3.22h-.03Z"/><path class="cls-10" d="M78.12,75.8c-2.75.32-6.49.55-10.59.55s-7.72-.23-10.44-.54c-.32-.04-.61-.07-.9-.11l.03-.18c-.18-.86-.03-2.31.08-3.14,2.95.32,7.06.58,11.54.58,4.76,0,8.95-.29,11.78-.65-.03.29-.05.57-.08.86-.07-.03-.15-.05-.23-.05-.38,0-.68.36-.68.8s.3.81.68.81c.03,0,.07,0,.09,0-.03.3-.05.6-.08.9-.37.05-.77.11-1.19.16Z"/><path class="cls-5" d="M79.53,73.19c-.07-.03-.15-.05-.23-.05-.38,0-.68.36-.68.8s.3.81.68.81c.03,0,.07,0,.09,0,.33-.06.58-.4.58-.8,0-.34-.18-.64-.44-.75Z"/><path class="cls-6" d="M78.12,75.8c-.01.32-.05.85-.09,1.54-7.13.9-14.88.84-20.73.08-.1-.59-.18-1.05-.24-1.38l.03-.22c2.72.31,6.39.54,10.44.54s7.84-.24,10.59-.55Z"/><path class="cls-10" d="M78.03,77.34c-.31,4.55-1.31,16.08-2.89,20.52h0c-4.33.16-10.82.16-15.07,0h0c-.38-4.02-2.03-15.83-2.77-20.44,5.85.76,13.61.82,20.73-.08Z"/><path class="cls-13" d="M60.07,97.85h0c-.78-.03-1.49-.06-2.1-.1h0c-.24-3.18-1.95-15.51-2.76-20.65.66.11,1.36.22,2.08.31.74,4.61,2.4,16.42,2.77,20.43Z"/><path class="cls-8" d="M57.97,97.75h0c-1.36-.09-2.19-.2-2.19-.34l-2.75-20.73h.04c.66.15,1.38.3,2.14.44h0c.81,5.13,2.52,17.46,2.76,20.64Z"/><path class="cls-13" d="M54.94,75.52c-.34-.06-.65-.11-.92-.17-.09-1.19.18-2.89.24-3.22.59.09,1.28.17,2.04.26-.11.83-.26,2.27-.08,3.14l-.03.18c-.45-.06-.86-.12-1.25-.18Z"/><path class="cls-10" d="M57.06,76.04l.03-.22c-.32-.04-.61-.07-.9-.11-.45-.06-.86-.12-1.25-.18-.34-.06-.65-.11-.92-.17-.51-.11-.92-.21-1.21-.32l.22,1.65h.04c.66.15,1.38.3,2.14.44h0c.66.11,1.36.22,2.08.31-.1-.59-.18-1.05-.24-1.38Z"/><path class="cls-8" d="M52.81,75.02c-.34-.12-.52-.24-.52-.36h.03l-.56-3.14c.2.18,1.09.4,2.49.61-.05.33-.32,2.03-.24,3.22-.51-.11-.92-.21-1.21-.32Z"/><path class="cls-20" d="M83.4,71.45c0,.24-1.42.58-3.79.87-2.83.36-7.02.65-11.78.65-4.48,0-8.58-.26-11.54-.58-.76-.09-1.44-.17-2.04-.26-1.4-.21-2.29-.43-2.49-.61-.03-.02-.05-.05-.05-.07,0-.53,7.09-.96,15.84-.96s15.84.43,15.84.96Z"/><path class="cls-20" d="M82.82,74.67c0,.1-.13.2-.39.3-.54.23-1.63.46-3.12.67-.37.05-.77.11-1.19.16-2.75.32-6.49.55-10.59.55s-7.72-.23-10.44-.54c-.32-.04-.61-.07-.9-.11-.45-.06-.86-.12-1.25-.18-.34-.06-.65-.11-.92-.17-.51-.11-.92-.21-1.21-.32-.34-.12-.52-.24-.52-.36"/><path class="cls-20" d="M79.65,97.4c0,.21-1.85.37-4.52.46-4.33.15-10.82.15-15.07,0-.78-.03-1.49-.07-2.1-.11-1.36-.09-2.19-.2-2.19-.35"/><polyline class="cls-20" points="51.75 71.45 51.76 71.52 52.32 74.67"/><line class="cls-20" x1="83.43" y1="71.45" x2="82.86" y2="74.67"/><polyline class="cls-20" points="55.78 97.4 53.03 76.67 52.81 75.02 52.81 74.99"/><polyline class="cls-20" points="79.65 97.4 82.24 76.69 82.45 75.01"/><path class="cls-20" d="M79.53,73.19c.26.11.44.41.44.75,0,.41-.25.74-.58.8-.03,0-.06,0-.09,0-.38,0-.68-.36-.68-.81s.3-.8.68-.8c.08,0,.16.02.23.05Z"/><path class="cls-21" d="M79.67,73.32l-.89.17c1.25-23.42-21.43-24.36-22.44-2.69l-.79.02c1-22.81,25.3-21.83,24.12,2.5Z"/></g></svg>