<?xml version="1.0" encoding="UTF-8"?><svg id="Layer_1" xmlns="http://www.w3.org/2000/svg" width="548" height="374" xmlns:xlink="http://www.w3.org/1999/xlink" viewBox="0 0 548 374"><defs><style>.cls-1{stroke:#231f20;}.cls-1,.cls-2{stroke-linecap:round;stroke-linejoin:round;}.cls-1,.cls-2,.cls-3,.cls-4{fill:none;}.cls-2,.cls-5,.cls-6,.cls-7,.cls-3{stroke:#000;}.cls-8{fill:url(#linear-gradient);}.cls-8,.cls-9,.cls-10,.cls-11,.cls-12,.cls-13,.cls-14,.cls-15,.cls-16,.cls-17,.cls-18,.cls-19,.cls-20,.cls-21,.cls-22,.cls-23,.cls-24,.cls-25,.cls-26,.cls-27,.cls-28,.cls-29,.cls-30,.cls-31,.cls-32,.cls-33,.cls-34{stroke-width:0px;}.cls-9{fill:url(#radial-gradient);}.cls-10{fill:url(#linear-gradient-11);}.cls-11{fill:url(#linear-gradient-12);}.cls-12{fill:url(#linear-gradient-10);}.cls-5{fill:#b3b3b3;stroke-width:.5px;}.cls-5,.cls-6,.cls-7{stroke-miterlimit:10;}.cls-6{fill:#ff0;}.cls-7{fill:#e6c29e;}.cls-13{fill:url(#radial-gradient-2);}.cls-14{fill:url(#linear-gradient-4);}.cls-15{fill:url(#linear-gradient-2);}.cls-16{fill:url(#linear-gradient-3);}.cls-17{fill:url(#linear-gradient-8);}.cls-18{fill:url(#linear-gradient-9);}.cls-19{fill:url(#linear-gradient-7);}.cls-20{fill:url(#linear-gradient-5);}.cls-21{fill:url(#linear-gradient-6);}.cls-4{stroke:#fff;}.cls-23{fill:#5e0f10;}.cls-24{fill:#959595;}.cls-25{fill:#383838;}.cls-26{fill:#adadad;}.cls-27{fill:#bf3b47;}.cls-28{fill:#bfbebe;}.cls-29{fill:#cececd;}.cls-30{fill:#9c9ea1;}.cls-31{fill:#9b1f25;}.cls-32{fill:#8b8a8a;}.cls-33{fill:#fff;}.cls-34{fill:#68151a;}</style><linearGradient id="linear-gradient" x1="274" y1="0" x2="274" y2="374" gradientUnits="userSpaceOnUse"><stop offset="0" stop-color="#69cbee"/><stop offset="1" stop-color="#d0ecfa"/></linearGradient><linearGradient id="linear-gradient-2" x1="441" y1="128.4" x2="451.9" y2="128.4" gradientTransform="translate(-28.9 81) rotate(-15.1)" gradientUnits="userSpaceOnUse"><stop offset="0" stop-color="#1a180e"/><stop offset=".5" stop-color="#b19b50"/><stop offset="1" stop-color="#ebc63f"/></linearGradient><linearGradient id="linear-gradient-3" x1="430.9" y1="128.8" x2="452" y2="128.8" xlink:href="#linear-gradient-2"/><linearGradient id="linear-gradient-4" x1="457.3" y1="219" x2="464.9" y2="218.2" gradientTransform="translate(-28.9 81) rotate(-15.1)" gradientUnits="userSpaceOnUse"><stop offset="0" stop-color="#971b1e"/><stop offset="1" stop-color="#f29c9d"/></linearGradient><linearGradient id="linear-gradient-5" x1="433.5" y1="124.7" x2="447.1" y2="124.7" xlink:href="#linear-gradient-2"/><linearGradient id="linear-gradient-6" x1="433.5" y1="126.1" x2="445.2" y2="126.1" xlink:href="#linear-gradient-2"/><linearGradient id="linear-gradient-7" x1="434.8" y1="120" x2="448.5" y2="120" xlink:href="#linear-gradient-2"/><linearGradient id="linear-gradient-8" x1="434.9" y1="123.4" x2="448.5" y2="123.4" xlink:href="#linear-gradient-2"/><linearGradient id="linear-gradient-9" x1="431.1" y1="128.5" x2="441.4" y2="128.5" xlink:href="#linear-gradient-2"/><linearGradient id="linear-gradient-10" x1="432.9" y1="121.7" x2="434.4" y2="108.7" xlink:href="#linear-gradient-2"/><radialGradient id="radial-gradient" cx="369.9" cy="134.5" fx="369.9" fy="134.5" r="49.9" gradientTransform="translate(-105.7 -204.3) rotate(-15.1) scale(1 3.2)" gradientUnits="userSpaceOnUse"><stop offset="0" stop-color="#858485"/><stop offset="1" stop-color="#000"/></radialGradient><radialGradient id="radial-gradient-2" cx="357.9" cy="134.5" fx="357.9" fy="134.5" r="59.5" gradientTransform="translate(-105.7 -204.3) rotate(-15.1) scale(1 3.2)" xlink:href="#radial-gradient"/><linearGradient id="linear-gradient-11" x1="73.5" y1="72" x2="154.4" y2="72" gradientTransform="translate(-28.9 81) rotate(-15.1)" gradientUnits="userSpaceOnUse"><stop offset="0" stop-color="#fff"/><stop offset=".8" stop-color="#626366"/><stop offset="1" stop-color="#bbbdbf"/></linearGradient><linearGradient id="linear-gradient-12" x1="84.3" y1="154.6" x2="100.6" y2="154.6" gradientTransform="translate(-28.9 81) rotate(-15.1)" gradientUnits="userSpaceOnUse"><stop offset="0" stop-color="#626366"/><stop offset=".7" stop-color="#bbbdbf"/><stop offset=".8" stop-color="#fff"/><stop offset="1" stop-color="#bbbdbf"/></linearGradient></defs><rect class="cls-8" width="548" height="374"/><polygon class="cls-6" points="363.5 373.2 342 373.2 276.2 244.8 209.4 373.2 189.7 373.2 269.2 221.4 283.2 221.4 363.5 373.2"/><circle class="cls-5" cx="276.2" cy="229.4" r="7.6" transform="translate(-81.3 262.5) rotate(-45)"/><path class="cls-22" d="M276,226.9c1.3,0,2.3,1,2.3,2.3s-1,2.3-2.3,2.3-2.3-1-2.3-2.3,1-2.3,2.3-2.3Z"/><rect class="cls-7" x="31.8" y="237.5" width="493" height="12.2" transform="translate(-53.6 80.3) rotate(-15)"/><path class="cls-31" d="M441,93c-1,0-1.7-.4-1.9-1.1-.2-.5-.4-.9-.6-1.2l-3.2.9-8.5,2.3-2.8.8c0,.3,0,.7,0,1,.2,1.2-1,2-2.4,2.8-2.8,1.5-6.7,2.9-5.9,6.5l.9,3.4,20.5,73.6,1.6,5.6c.9,0,1.8,0,2.7,0,1.4,0,2.8,0,4.2-.2.5,0,.9,0,1.3-.1,2.5-.3,4.9-.7,7.2-1.3,1.6-.4,3.2-.9,4.7-1.4,2.4-.8,4.6-1.7,6.8-2.7.7-.3,1.5-.7,2.2-1,.8-.4,1.6-.8,2.4-1.2.9-.5,1.8-1,2.7-1.5l-1.4-5.1-19.6-73.8-1.1-4c-1-3.7-6.8-1.7-9.9-2ZM451.5,131.9c.2,1.4-1.8,4.7-5.2,5.5h-.3c.8-.5,3-2.6,2.3-4.5,0,0-.6.8-1.6.8.3-.9,1.5-4.2.3-4.9,0,0-1.3,2.9-1.7,2.6-.4-.3-.4-3.7-1-4.2,0,0-.4,2.6-.8,2.5-.6-.2-1.9-2.9-2.2-3.3,0,0,.9,3.7.3,3.4-.6-.3-1.9-1.6-2.2-2-.8.7.8,4.6,1.5,5.6-1.5-.5-2.3-1.5-3.5-1.9,0,0,.6,2.9,2.3,3.6,0,0-.7.4-1.5.4.1.7,2.6,2.8,4.7,2.9-3,.6-6.7-.3-7.9-4.1-1-3.2-2.9-4-2.9-4,2.4-.9,2.8.6,3.4.5,0,0-.1-2.9-1.7-3.8,2.2-.9,3.2,1.5,3.4.9-.1-.7-.5-3.7-2.5-5.1,0,0,1.3-.3,4,1-.6-1.1-1.4-3.3,0-7.2.3,1.1,1.3,3.4,2.6,4.6,1.6,1.6,1.3,4,2.3,3.8.8-.1.4-3.8.3-4.8.9-.2,1.9,5.7,2.8,5.8.7,0,.9-2.4,1-3.5,0-.5,1.9,3.6,1.3,5.6-.5,1.4,1.5-1.4,3.6-1.9-.9.8-1.3,2.8-1,5.7Z"/><path class="cls-23" d="M446.6,61.3c2.3,0,3.5,4.9,4.4,8l-20.8.9-.9-1.8c5.6-2.3,12.1-6.9,17.3-7.1Z"/><path class="cls-27" d="M441,93c-.9.5-1.9,1-2.9,1.5,2.7,1.3,6,.6,7.2,3.7.4,1.1.7,2.1,1.1,3.1,1,3,1.9,5.9,2.8,9.1,1.5,5.2,2.9,10.4,4.3,15.6,4.5,16.4,8.8,32.8,13,49.2,0,.2.1.4.2.7.4,1.6.8,3.2,1.2,4.9.8-.4,1.6-.8,2.4-1.2.9-.5,1.8-1,2.7-1.5l-1.4-5.1-19.6-73.8-1.1-4c-1-3.7-6.8-1.7-9.9-2Z"/><path class="cls-33" d="M448.9,128c-.5,1.4,1.5-1.4,3.6-1.9-.9.8-1.3,2.8-1,5.7.2,1.4-1.8,4.7-5.2,5.5h-.3c.8-.5,3-2.6,2.3-4.5,0,0-.6.8-1.6.8.3-.9,1.5-4.2.3-4.9,0,0-1.3,2.9-1.7,2.6-.4-.3-.4-3.7-1-4.2,0,0-.4,2.6-.8,2.5-.6-.2-1.9-2.9-2.2-3.3,0,0,.9,3.7.3,3.4s-1.9-1.6-2.2-2c-.8.7.8,4.6,1.5,5.6-1.5-.5-2.3-1.5-3.5-1.9,0,0,.6,2.9,2.3,3.6,0,0-.7.4-1.5.4.1.7,2.6,2.8,4.7,2.9-3,.6-6.7-.3-7.9-4.1-1-3.2-2.9-4-2.9-4,2.4-.9,2.8.6,3.4.5,0,0-.1-2.9-1.7-3.8,2.2-.9,3.2,1.5,3.4.9-.1-.7-.5-3.7-2.5-5.1,0,0,1.3-.3,4,1-.6-1.1-1.4-3.3,0-7.2.3,1.1,1.3,3.4,2.6,4.6,1.6,1.6,1.3,4,2.3,3.8.8-.1.4-3.8.3-4.8.9-.2,1.9,5.7,2.8,5.8.7,0,.9-2.4,1-3.5,0-.5,1.9,3.6,1.3,5.6Z"/><path class="cls-15" d="M439.9,85.2l1.3,4.7-2.7.7c-1.6-2.3-5.2-2.8-8.4-2l-.2-.7,1.3-.4.9-.3,7.8-2.1Z"/><path class="cls-16" d="M435.2,91.5l-8.5,2.3-2.8.8c.1-2.9,2.9-5.1,6.1-5.9s6.8-.4,8.4,2l-3.2.9Z"/><path class="cls-14" d="M451,180.2l9.4-2.6c-3,1.1-6.1,2-9.4,2.6Z"/><polygon class="cls-20" points="435.6 86.4 432.2 87.4 431.2 87.6 422.4 90.1 424.5 86.7 427.4 85.9 429.7 85.3 429.7 85.3 435.6 86.4"/><polygon class="cls-21" points="431.2 87.6 429.9 88 422.3 90.1 422.4 90.1 431.2 87.6"/><polygon class="cls-19" points="428 79 429.7 85.3 429.7 85.3 429.6 85.3 427.4 85.9 424.7 86.6 424.3 85.1 422.9 80.1 428 79"/><polygon class="cls-17" points="429.7 85.3 427.4 85.9 429.6 85.3 429.7 85.3"/><path class="cls-18" d="M429.9,88l.2.7c-3.2.8-5.9,3-6.1,5.9l-2.4.7-1.2-4.7,2.1-.6h0c0,0,7.5-2,7.5-2Z"/><path class="cls-31" d="M453.4,125.9c-1.4-5.2-2.9-10.4-4.3-15.6-.9-3.2-1.8-6.1-2.8-9.1-.3-1-.7-2-1.1-3.1-1.1-3.1-4.4-2.4-7.2-3.7-4.1,1.8-8.6,3-13.1,3.6-1,1.2-1.9,2.5-1.4,4.9.3,1.5.6,2.9.9,4.2.6,2.7,1.2,5.3,2,8.2,1.3,5,2.6,10.1,4,15.2,4.4,16.9,8.9,34.1,13.5,50.7,0,.3.2.6.2.8.5,1.7,1,3.5,1.5,5.2.5,0,.9,0,1.3-.1,2.5-.3,4.9-.7,7.2-1.3,1.6-.4,3.2-.9,4.7-1.4,2.4-.8,4.6-1.7,6.8-2.7.7-.3,1.5-.7,2.2-1-.4-1.6-.8-3.2-1.2-4.9,0-.2-.1-.4-.2-.7-4.2-16.4-8.5-32.8-13-49.2ZM435.5,130.6s-.1-2.9-1.7-3.8c2.2-.9,3.2,1.5,3.4.9-.1-.7-.5-3.7-2.5-5.1,0,0,1.3-.3,4,1-.6-1.1-1.4-3.3,0-7.2.3,1.1,1.3,3.4,2.6,4.6,1.6,1.6,1.3,4,2.3,3.8.8-.1.4-3.8.3-4.8.9-.2,1.9,5.7,2.8,5.8.7,0,.9-2.4,1-3.5,0-.5,1.9,3.6,1.3,5.6-.5,1.4,1.5-1.4,3.6-1.9-.9.8-1.3,2.8-1,5.7.2,1.4-1.8,4.7-5.2,5.5h-.3c.8-.5,3-2.6,2.3-4.5,0,0-.6.8-1.6.8.3-.9,1.5-4.2.3-4.9,0,0-1.3,2.9-1.7,2.6-.4-.3-.4-3.7-1-4.2,0,0-.4,2.6-.8,2.5-.6-.2-1.9-2.9-2.2-3.3,0,0,.9,3.7.3,3.4-.6-.3-1.9-1.6-2.2-2-.8.7.8,4.6,1.5,5.6-1.5-.5-2.3-1.5-3.5-1.9,0,0,.6,2.9,2.3,3.6,0,0-.7.4-1.5.4.1.7,2.6,2.8,4.7,2.9-3,.6-6.7-.3-7.9-4.1-1-3.2-2.9-4-2.9-4,2.4-.9,2.8.6,3.4.5Z"/><path class="cls-31" d="M439.1,91.9c-.2-.5-.4-.9-.6-1.2l-3.2.9c.7,1.6,1.7,2.4,2.9,2.9,1-.4,2-.9,2.9-1.5-1,0-1.7-.4-1.9-1.1Z"/><path class="cls-12" d="M423,81.1l1.1,4-6.3,1.7v-.5c-.1,0-.1,0,0,0l-.9-3.3h0s0-.3,0-.3l6.2-1.6Z"/><path class="cls-25" d="M451.5,69.2h-.5s-20.8.9-20.8.9l-.9-1.8-.2-.4c-3.3.8-5.5,1.5-8.6,2.3-1.9.5-2,2.1-2.3,3.2-1.5.4-2.5.9-2.2,2.1.3,1.3,1.6,1.4,3.1,1l1.4,4.1,2.4-.6,5-1.2.7-.2,1.3-2.9,3.2-.9c1.6.7,3.8,1.6,5.5,1.9,3.8.5,5.6.7,9.4.6,1.5,0,2.3,1.2,2.8,1.2.7.1,1.6,0,1.8-.8.5-2.6-.2-5.7-1.1-8.7Z"/><path class="cls-25" d="M467.8,180.7c-.7.4-1.4.7-2.2,1,1.4,2.2,3.2,4.7,5.1,3.7,1.1-.6.4-3.4-.5-5.9-.8.4-1.6.8-2.4,1.2Z"/><path class="cls-25" d="M457.5,188.9c1.3-.4,1.4-2.4,1.3-4.4-1.5.5-3.1,1-4.7,1.4,1,1.8,1.9,3.5,3.4,3.1Z"/><path class="cls-25" d="M441.4,187.5c.5,2.6,1.2,5.2,2.3,5.2,2.7-.6,2.9-3.1,3.2-5.5-.4,0-.9,0-1.3.1-1.4.1-2.8.2-4.2.2Z"/><path class="cls-34" d="M435.2,91.5l-8.5,2.3-2.8.8c0,.3,0,.7,0,1,.2,1.2-1,2-2.4,2.8-2.8,1.5-6.7,2.9-5.9,6.5l.9,3.4,20.5,73.6,1.6,5.6c.9,0,1.8,0,2.7,0,1.4,0,2.8,0,4.2-.2-.5-1.7-1-3.5-1.5-5.2,0-.3-.2-.6-.2-.8-4.6-16.6-9.1-33.8-13.5-50.7-1.3-5.1-2.7-10.2-4-15.2-.7-2.9-1.4-5.5-2-8.2-.3-1.4-.6-2.8-.9-4.2-.5-2.3.5-3.6,1.4-4.9,4.4-.6,9-1.8,13.1-3.6-1.1-.5-2.1-1.4-2.9-2.9Z"/><path class="cls-9" d="M416.9,83.1l.9,3.3h0s-.9-3.3-.9-3.3h0Z"/><path class="cls-13" d="M416.8,83.1l.9,3.3c-12.9,3.7-23.5,14.6-23.6,25.9-.2,18.4,21.9,24.6,26.7,40.1l16.3,35.8.8,1.7c-6.6,3.4-12.3,5.2-18.8,4.7l-3.4-40.3c-4.5-15.3-25.2-18.5-25.6-43-.3-14.7,12.8-25,26.7-28.2Z"/><path class="cls-2" d="M454.1,185.8c1,1.8,1.9,3.5,3.4,3.1,1.3-.4,1.4-2.4,1.3-4.4"/><path class="cls-2" d="M441.4,187.5c.5,2.6,1.2,5.2,2.3,5.2,2.7-.6,2.9-3.1,3.2-5.5"/><path class="cls-2" d="M465.7,181.7c1.4,2.2,3.2,4.7,5.1,3.7,1.1-.6.4-3.4-.5-5.9"/><path class="cls-2" d="M424,94.6c0,.3,0,.7,0,1,.2,1.2-1,2-2.4,2.8-2.8,1.5-6.7,2.9-5.9,6.5l.9,3.4,20.5,73.6,1.6,5.6c.9,0,1.8,0,2.7,0,1.4,0,2.8,0,4.2-.2.5,0,.9,0,1.3-.1,2.5-.3,4.9-.7,7.2-1.3,1.6-.4,3.2-.9,4.7-1.4,2.4-.8,4.6-1.7,6.8-2.7.7-.3,1.5-.7,2.2-1,.8-.4,1.6-.8,2.4-1.2.9-.5,1.8-1,2.7-1.5l-1.4-5.1-19.6-73.8-1.1-4c-1-3.7-6.8-1.7-9.9-2-1,0-1.7-.4-1.9-1.1-.2-.5-.4-.9-.6-1.2"/><path class="cls-2" d="M460.4,177.5c2-.7,4-1.5,6-2.4,1.6-.7,3.3-1.5,5-2.3"/><path class="cls-2" d="M437.5,181.8c2.3-.1,4.4-.3,6.4-.5,2.5-.3,4.9-.6,7.1-1.1,3.3-.7,6.4-1.6,9.4-2.6"/><path class="cls-2" d="M417,108.2c2.5-.3,5-.6,7.4-1,7.7-1.3,15-3.2,21.9-5.9,1.9-.7,3.8-1.5,5.7-2.3"/><polyline class="cls-2" points="422.4 90.1 420.3 90.6 421.6 95.3 424 94.6 426.8 93.9 435.2 91.5 438.5 90.6 441.2 89.9 439.9 85.2 432.2 87.4"/><polyline class="cls-2" points="427.4 85.9 424.5 86.7 422.4 90.1 422.3 90.1 429.9 88 431.2 87.6 432.2 87.4 435.6 86.4 429.7 85.3"/><path class="cls-1" d="M429.3,68.4c5.6-2.3,12.1-6.9,17.3-7.1,2.3,0,3.5,4.9,4.4,8"/><polyline class="cls-2" points="422.9 80.1 424.3 85.1 424.7 86.6 427.4 85.9 429.7 85.3 429.7 85.3 428 79"/><path class="cls-2" d="M422.9,80.1l-2.4.6-1.4-4.1c-1.5.4-2.8.3-3.1-1-.3-1.2.7-1.7,2.2-2.1.3-1,.3-2.7,2.3-3.2,3.1-.8,5.3-1.5,8.6-2.3l.2.4.9,1.8,20.8-.9h.5c1,3,1.7,6,1.1,8.6-.1.7-1.1.9-1.8.8-.5,0-1.3-1.3-2.8-1.2-3.8.2-5.5,0-9.4-.6-1.7-.2-3.9-1.2-5.5-1.9l-3.2.9-1.3,2.9-.7.2-5,1.2Z"/><polyline class="cls-2" points="417.7 86.4 417.9 86.9 424.1 85.2 423 81.1 416.7 82.8 416.8 83.1"/><path class="cls-3" d="M417.7,86.4h0s-.9-3.3-.9-3.3h0c-13.9,3.2-27,13.6-26.7,28.3.4,24.4,21.1,27.7,25.6,43l3.4,40.3c6.5.5,12.2-1.3,18.8-4.7l-.8-1.7-16.3-35.8c-4.8-15.5-26.9-21.7-26.7-40.1.1-11.3,10.7-22.3,23.6-25.9Z"/><path class="cls-4" d="M452.6,126.2c-2.1.4-4.1,3.2-3.6,1.9.7-1.9-1.2-6.1-1.3-5.6-.2,1.1-.3,3.6-1,3.5-.9-.1-2-6-2.8-5.8.1,1,.5,4.7-.3,4.8-.9.2-.6-2.3-2.3-3.8-1.4-1.3-2.3-3.6-2.6-4.6-1.4,3.8-.6,6.1,0,7.2-2.6-1.4-4-1-4-1,2.1,1.4,2.4,4.4,2.5,5.1-.2.6-1.2-1.8-3.4-.9,1.5,1,1.7,3.8,1.7,3.8-.7.2-1-1.4-3.4-.5,0,0,2,.9,2.9,4,1.1,3.8,4.9,4.7,7.9,4.1-2.1-.1-4.6-2.1-4.7-2.9.8,0,1.5-.4,1.5-.4-1.7-.6-2.3-3.6-2.3-3.6,1.2.4,2,1.4,3.5,1.9-.7-1-2.3-4.8-1.5-5.6.3.5,1.6,1.7,2.2,2s-.3-3.4-.3-3.4c.3.3,1.6,3.1,2.2,3.3.4.1.8-2.5.8-2.5.6.5.6,3.9,1,4.2.4.3,1.7-2.6,1.7-2.6,1.2.7,0,4-.3,4.9,1,0,1.6-.8,1.6-.8.8,1.9-1.4,4-2.3,4.6h.3c3.5-.9,5.4-4.2,5.2-5.6-.3-2.9.1-4.9,1-5.7Z"/><line class="cls-4" x1="437.7" y1="143.1" x2="453.5" y2="138.8"/><path class="cls-26" d="M143.3,122.8v-.2c0,0-14.5-6.7-35.6-3.6l-1.3-5c-.1-.5-.6-.7-1.1-.6l-3.6,1-6.4,1.7-2.8.7c-.5.1-.7.6-.6,1.1l1.3,4.7h0c-20.8,7.3-28.8,21.2-29.6,22.5-1.5.3-2.3.4-2.3.4.3,2.6.5,5.3,1.1,7.7,1.6,0,3.2-.2,4.8-.4,1.7,5.2,3.4,10.5,5.1,15.7,1.5,4.5,2.9,9,4.4,13.4,6.4,19.5,12.8,39,19.2,58.5,2.7,8.3,5.4,16.5,8.2,24.8,1,2.9,4,14.1,5.2,15.1.5.4,3.3.1,7.4-.7,1.5-.3,3.2-.7,5-1.1,1.4-.3,3-.7,4.5-1.1,2.1-.5,4.3-1.1,6.5-1.7,5.9-1.5,12.2-3.2,17.8-4.9,2.2-.6,4.4-1.3,6.4-1.8,2.7-.8,5.1-1.5,7.1-2.2,3.9-1.2,6.3-2.1,6.5-2.3.4-.6,0-2.8,0-3.9,0-1-.4-2.1-.7-3.1-1.4-7-2.9-14-4.3-21-4.2-20.3-8.4-40.6-12.5-61-2.9-14.2-5.9-28.5-8.8-42.8,0-.3-.1-.6-.2-.9,1.1-.5,2.3-1.1,3.5-1.7-.6-2.4-1.5-5.9-2.1-8.4-.2,0-.9.3-2.2.8Z"/><path class="cls-32" d="M139.7,147.6c-3,.9-2.6,3.2-2.6,3.2l13.5,59.4-17.5-73.5c.9-.4,1.8-.7,2.7-1.1l-.5-2.3-1.5-7c-2.1.8-4.4,1.6-7,2.5-.4.1-.7.3-1.1.4l1.1,6.4.6,3.3c-.7.2-1.4.5-2,.7l3,12.4,27.5,112.5,1.1,4.6c2.7-.8,5.1-1.5,7.1-2.2l-1.4-5.9,2.9-.8-24.5-112.1v-.8c-.4,0-.9,0-1.4.2ZM157.8,264.1l-26.6-112.8c1.9,0,2.5,1.7,2.5,1.7l25.7,110.7-1.6.4Z"/><path class="cls-24" d="M143.3,122.8v-.2c0,0-14.5-6.7-35.6-3.6v.3c.2.5,0,.9-.5,1.1l-2.8.7c7.7,1.3,16.1,4,22.5,7.8,2.6-.9,4.9-1.7,7-2.5l1.5,7,.5,2.3c-.9.4-1.8.8-2.7,1.1l17.5,73.5-13.5-59.4s-.4-2.4,2.6-3.2c.5-.2,1-.2,1.4-.2,1.9,0,2.5,1.7,2.5,1.7l23.7,110.7-1.7.5-2.9.8,1.4,5.9c3.9-1.2,6.3-2.1,6.5-2.3.4-.6,0-2.8,0-3.9,0-1-.4-2.1-.7-3.1-1.4-7-2.9-14-4.3-21-4.2-20.3-8.4-40.6-12.5-61-2.9-14.2-5.9-28.5-8.8-42.8,0-.3-.1-.6-.2-.9,1.1-.5,2.3-1.1,3.5-1.7-.6-2.4-1.5-5.9-2.1-8.4-.2,0-.9.3-2.2.8Z"/><path class="cls-24" d="M127.1,154.7l27.1,110.3,1.7-.5-27.5-112.5c-1.5,1-1.3,2.6-1.3,2.6Z"/><path class="cls-24" d="M105.3,113.4l-3.6,1c.3,1.8.7,3.7,1,5.5,1.7-.4,3.4-.7,5-.9l-1.3-5c-.1-.5-.6-.7-1.1-.6Z"/><path class="cls-30" d="M100.1,120.5c-.5.1-1,.2-1.5.4.2-.2.5-.3.7-.5h.8Z"/><path class="cls-10" d="M98.4,120.9h.2c-.5.2-.9.5-1.4.9,0-.1-.1-.3-.2-.5.5-.2.9-.3,1.4-.4Z"/><path class="cls-30" d="M102.7,119.9c-.3-1.8-.7-3.7-1-5.5l-6.4,1.7c.6,1.7,1.2,3.5,1.8,5.2-1.4.4-2.7.8-4,1.3l.2.6c.1.5.6.7,1.1.6h0s5.9-1.6,5.9-1.6l4.1-1.1,2.8-.7c.5-.1.7-.6.6-1.1v-.3c-1.7.2-3.4.5-5.1.9Z"/><path class="cls-11" d="M117.1,247.4l-25.6-84.6c.3.4.5.7.5.7l25.1,83.8Z"/><path class="cls-26" d="M141.2,147.4v.8s24.5,112.1,24.5,112.1l1.7-.5-23.7-110.7s-.7-1.6-2.5-1.7Z"/><path class="cls-26" d="M131.1,151.3l26.6,112.8,1.6-.4-25.7-110.7s-.7-1.6-2.5-1.7Z"/><path class="cls-26" d="M125.3,139.7c.7-.2,1.4-.5,2-.7l-.6-3.3-1.1-6.4c.4-.1.8-.3,1.1-.4-6.3-3.9-14.7-6.5-22.5-7.8l-4.1,1.1-5.9,1.6c-6.1,4.6-11.4,10.9-13.7,17.8,1.6-.3,3.2-.7,4.8-1l1.4,5.8.8,3.1h-.2s0,.2,0,.2l4,13.1c.3.4.5.7.5.7l25.1,83.8,8,26.4,1.1,3.7c2.1-.5,4.3-1.1,6.5-1.7,5.9-1.5,12.2-3.2,17.8-4.9,2.2-.6,4.4-1.3,6.4-1.8l-1.1-4.6-1.7.5-27.1-110.3s-.3-1.6,1.3-2.6l-3-12.4ZM131.7,271.9l-31.5-111.4c1.6.3,2.1,1.6,2.1,1.6l31,109.4-1.6.4ZM142.3,269.4l-1.9.5-30.6-112.3c2.5-.4,3.3,1.6,3.3,1.6l29.2,110.2ZM151.1,265.8l.2.8-1.7.5-28.5-112.4c2.3-.2,3.1,1.7,3.1,1.7l26.9,109.5Z"/><path class="cls-26" d="M88,162.1c-1.2.4-1.9,1-2.2,1.5-.5.9-.4,1.7-.4,1.7l25.3,80.5h0c0,0,8.8,28.2,8.8,28.2v.2c0,0,0,0,0,0l3.2-.9-34-111.4c-.3,0-.5,0-.8.2Z"/><path class="cls-26" d="M101.1,234.7c-8-23.3-15.4-46.9-22.2-70.6-.3,0-.6,0-.9.2-3,.9-2.6,3.3-2.6,3.3l36.1,107.8,3.3-.9c-2.6-7.4-5.2-14.8-7.7-22.2-2-5.9-4.1-11.7-6.1-17.6Z"/><path class="cls-29" d="M119.6,274.2h0s0-.2,0-.2c-3.8-8.7-6.3-18.9-8.8-28.1h0c0,0-25.3-80.6-25.3-80.6,0,0-.2-.8.4-1.7-1.3-4.2-2.5-8.5-3.8-12.8-.7.1-1.4.2-2.1.4l-.7-2.7-1.7-6.2c-2.8.6-5.4,1.1-7.7,1.6h0c.3,2.4.8,4.6,1.5,6.8.2.6.4,1.2.7,1.8,1.1-.1,2.3-.3,3.5-.5h0s0,.2,0,.2c1.1,4,2.3,8,3.4,12,6.8,23.7,14.2,47.3,22.2,70.6,2,5.9,4,11.7,6.1,17.6,2.6,7.4,5.2,14.8,7.7,22.2.6,1.7,1.2,3.5,1.8,5.2,1.5-.3,3.2-.7,5-1.1-.8-1.4-1.5-2.9-2.1-4.4Z"/><path class="cls-28" d="M121.1,154.6l28.5,112.4,1.7-.5-.2-.8-26.9-109.5s-.8-1.9-3.1-1.7Z"/><path class="cls-28" d="M109.8,157.5l30.6,112.3,1.9-.5-29.2-110.2s-.8-2-3.3-1.6Z"/><path class="cls-28" d="M95.2,116.1l-2.8.7c-.5.1-.7.6-.6,1.1l1.3,4.7c1.3-.5,2.6-.9,4-1.3-.6-1.7-1.2-3.5-1.8-5.2Z"/><path class="cls-28" d="M63.5,145.1c-1.5.3-2.3.4-2.3.4.3,2.6.5,5.3,1.1,7.7,1.6,0,3.2-.2,4.8-.4,1.7,5.2,3.4,10.5,5.1,15.7,1.5,4.5,2.9,9,4.4,13.4,6.4,19.5,12.8,39,19.2,58.5,2.7,8.3,5.4,16.5,8.2,24.8,1,2.9,4,14.1,5.2,15.1.5.4,3.3.1,7.4-.7-.6-1.7-1.2-3.5-1.8-5.2l-3.3.9-36.1-107.8s-.4-2.4,2.6-3.3c.3,0,.6-.1.9-.2-1.1-4-2.3-8-3.4-12v-.2s0,0,0,0c-1.2.2-2.3.3-3.5.5-.2-.6-.4-1.2-.7-1.8-.7-2.2-1.3-4.4-1.5-6.7h0c2.3-.6,4.9-1.1,7.7-1.7l1.7,6.2.7,2.7c.7-.1,1.4-.3,2.1-.4,1.2,4.3,2.5,8.6,3.8,12.8.3-.6,1-1.2,2.2-1.5.3,0,.6-.1.8-.2l34,111.4-3.2.9c.7,1.5,1.4,3,2.1,4.4,1.4-.3,3-.7,4.5-1.1l-1.1-3.7-8-26.4-25.6-84.6-4-13.1v-.2c0,0,.1,0,.1,0l-.8-3.1-1.4-5.8c-1.6.4-3.2.7-4.8,1,2.2-7,7.6-13.2,13.7-17.8h0c-.5.1-.9-.1-1.1-.6l-.2-.6c-20.8,7.3-28.8,21.2-29.6,22.5Z"/><path class="cls-28" d="M100.3,160.5l31.5,111.4,1.6-.4-31-109.4s-.6-1.3-2.1-1.6Z"/><path class="cls-28" d="M119.5,274.1l-8.8-28.1c2.5,9.2,5,19.4,8.8,28.1Z"/><path class="cls-3" d="M93.1,122.6l-1.3-4.7c-.1-.5.1-.9.6-1.1l2.8-.7,6.4-1.7,3.6-1c.5-.1.9.1,1.1.6l1.3,5"/><path class="cls-3" d="M144.1,132c0,.3.1.6.2.9,2.9,14.3,5.9,28.5,8.8,42.8,4.2,20.3,8.4,40.6,12.5,61,1.4,7,2.9,14,4.3,21,.2,1,.6,2.1.7,3.2,0,1.1.4,3.3,0,3.9-.2.2-2.6,1.1-6.5,2.3-2,.6-4.4,1.4-7.1,2.2-2,.6-4.1,1.2-6.4,1.8-5.7,1.6-12,3.3-17.8,4.9-2.3.6-4.5,1.1-6.5,1.7-1.6.4-3.1.8-4.5,1.1-1.8.4-3.5.8-5,1.1-4.1.8-6.9,1.1-7.4.7-1.3-1-4.3-12.2-5.2-15.1-2.7-8.3-5.4-16.5-8.2-24.8-6.4-19.5-12.8-39-19.2-58.5-1.5-4.5-2.9-9-4.4-13.4-1.7-5.2-3.4-10.5-5.1-15.7"/><path class="cls-3" d="M63.5,145.1c.7-1.3,8.8-15.2,29.6-22.5,1.3-.5,2.6-.9,4-1.3.5-.2.9-.3,1.4-.4h.2c.5-.2,1-.3,1.5-.4.9-.2,1.7-.4,2.6-.6,1.7-.4,3.4-.7,5-.9,21-3,35.5,3.6,35.5,3.6"/><path class="cls-3" d="M91.2,125c-7.5,3.8-12.2,7.5-18.5,13.5"/><path class="cls-3" d="M96.4,124.4c-5.7,4.5-7,5.8-12.3,12.4"/><path class="cls-3" d="M105.2,121.9c6.4,1.1,6.4,1,13.3,4.5"/><path class="cls-3" d="M100.6,123.4c-1.2,2.4-1.7,5.3-2.2,10.4"/><path class="cls-3" d="M112.5,119.9c8.4-.4,14.3.8,20.7,3"/><path class="cls-3" d="M144.1,132c1.1-.5,2.3-1.1,3.5-1.7-.6-2.4-1.5-5.9-2.1-8.4-.2,0-.9.3-2.2.8-2,.8-5.2,2-9.4,3.6-2.1.8-4.4,1.6-7,2.5-.4.1-.7.3-1.1.4-6,2.1-13,4.4-20.9,6.6-1.7.5-3.6,1-5.5,1.4-4.4,1.1-9.2,2.2-13.9,3.2-1.6.4-3.2.7-4.8,1-1.1.2-2.2.5-3.2.7-2.8.6-5.4,1.1-7.7,1.6-2.6.5-4.8.9-6.3,1.2-1.5.3-2.3.4-2.3.4.3,2.6.5,5.3,1.1,7.7,1.6,0,3.2-.2,4.8-.4s3.2-.3,4.9-.5c1.1-.1,2.3-.3,3.5-.5h0c1.5-.2,2.9-.4,4.4-.7.7-.1,1.4-.3,2.1-.4,1.8-.3,3.6-.7,5.5-1.1,6-1.2,12.4-2.8,19.5-4.7s12.6-3.5,18.3-5.4c.7-.2,1.4-.5,2-.7,1.9-.7,3.9-1.4,5.8-2.2.9-.4,1.8-.7,2.7-1.1,2.6-1.1,5.3-2.3,8.2-3.6Z"/><path class="cls-3" d="M100.3,160.5c1.6.3,2.1,1.6,2.1,1.6l31,109.4-1.6.4-3.5,1-32.4-109s-.4-2.4,2.6-3.3c.7-.2,1.3-.2,1.9-.1Z"/><path class="cls-3" d="M109.8,157.5c2.5-.4,3.3,1.6,3.3,1.6l29.2,110.2-1.9.5-3.3.9-30.5-109.8s-.4-2.4,2.6-3.3c.2,0,.4-.1.6-.1Z"/><path class="cls-3" d="M151.1,265.8l.2.8-1.7.5-3.5.9-28.5-109.9s-.4-2.4,2.6-3.3c.3,0,.6-.2.9-.2,2.3-.2,3.1,1.7,3.1,1.7l26.9,109.5Z"/><path class="cls-3" d="M131.1,151.3c1.9,0,2.5,1.7,2.5,1.7l25.7,110.7-1.6.4-1.9.5-1.7.5-27.1-110.3s-.3-1.6,1.3-2.6c.3-.2.8-.4,1.3-.6s1-.2,1.4-.2Z"/><path class="cls-3" d="M110.7,245.9l-25.3-80.5s-.2-.8.4-1.7c.3-.6,1-1.2,2.2-1.5.3,0,.6-.1.8-.2,1.4-.2,2.2.4,2.7.9.3.4.5.7.5.7l25.1,83.8,7.6,25.4-2,.5-3.2.9h0s0-.2,0-.2l-8.8-28.1"/><path class="cls-3" d="M78.9,164.1c2.3-.2,3.1,1.7,3.1,1.7l34.8,108.2-1.9.5-3.3.9-36.1-107.8s-.4-2.4,2.6-3.3c.3,0,.6-.1.9-.2Z"/><path class="cls-3" d="M110.7,245.9h0c2.5,9.3,5,19.4,8.8,28.2,0,0,0,.1,0,.2"/><path class="cls-3" d="M167.5,259.9l-5.2,1.4-25-110.4s-.4-2.4,2.6-3.2c3-.9,4,1.5,4,1.5l23.7,110.7Z"/></svg>