<?xml version="1.0" encoding="UTF-8"?><svg id="a" xmlns="http://www.w3.org/2000/svg" width="548" height="374" xmlns:xlink="http://www.w3.org/1999/xlink" viewBox="0 0 548 374"><defs><style>.s{fill:#b3b3b3;stroke-width:.5px;}.s,.t,.u,.v,.w{stroke:#000;}.s,.u,.v{stroke-miterlimit:10;}.t,.x,.y,.w{fill:none;stroke-width:1px;}.x{stroke:#fff;}.u{fill:#ff0;}.v{fill:#e6c29e;}.y{stroke:#231f20;}.y,.w{stroke-linecap:round;stroke-linejoin:round;}.z,.aa,.ab,.ac,.ad,.ae,.af,.ag,.ah,.ai,.aj,.ak,.al,.am,.an,.ao,.ap,.aq,.ar,.as,.at,.au,.av,.aw,.ax,.ay,.az,.ba,.bb,.bc{stroke-width:0px;}.aa{fill:#5e0f10;}.ab{fill:#959595;}.ac{fill:#383838;}.ad{fill:#adadad;}.ae{fill:#bf3b47;}.af{fill:#bfbebe;}.ag{fill:#cececd;}.ah{fill:#9c9ea1;}.ai{fill:#9b1f25;}.aj{fill:#8b8a8a;}.ak{fill:#fff;}.al{fill:#68151a;}.am{fill:url(#b);}.an{fill:url(#c);}.ao{fill:url(#e);}.ap{fill:url(#f);}.aq{fill:url(#d);}.ar{fill:url(#j);}.as{fill:url(#q);}.at{fill:url(#r);}.au{fill:url(#i);}.av{fill:url(#h);}.aw{fill:url(#m);}.ax{fill:url(#g);}.ay{fill:url(#o);}.az{fill:url(#p);}.ba{fill:url(#k);}.bb{fill:url(#n);}.bc{fill:url(#l);}</style><linearGradient id="b" x1="274" y1="0" x2="274" y2="374" gradientUnits="userSpaceOnUse"><stop offset="0" stop-color="#69cbee"/><stop offset="1" stop-color="#d0ecfa"/></linearGradient><linearGradient id="c" x1="442.5" y1="170.8" x2="453.5" y2="170.8" gradientTransform="translate(-40.7 37.2) rotate(-14.8)" gradientUnits="userSpaceOnUse"><stop offset="0" stop-color="#1a180e"/><stop offset=".5" stop-color="#b19b50"/><stop offset="1" stop-color="#ebc63f"/></linearGradient><linearGradient id="d" x1="432.4" y1="171.3" x2="453.6" y2="171.3" xlink:href="#c"/><linearGradient id="e" x1="459" y1="262.1" x2="466.6" y2="261.3" gradientTransform="translate(-40.7 37.2) rotate(-14.8)" gradientUnits="userSpaceOnUse"><stop offset="0" stop-color="#971b1e"/><stop offset="1" stop-color="#f29c9d"/></linearGradient><linearGradient id="f" x1="434.9" y1="167.1" x2="448.7" y2="167.1" xlink:href="#c"/><linearGradient id="g" x1="434.9" y1="168.5" x2="446.8" y2="168.5" xlink:href="#c"/><linearGradient id="h" x1="436.3" y1="162.4" x2="450.1" y2="162.4" xlink:href="#c"/><linearGradient id="i" x1="436.4" y1="165.8" x2="450.1" y2="165.8" xlink:href="#c"/><linearGradient id="j" x1="432.6" y1="170.9" x2="443" y2="170.9" xlink:href="#c"/><linearGradient id="k" x1="434.4" y1="164.1" x2="435.9" y2="151" xlink:href="#c"/><radialGradient id="l" cx="370.7" cy="177" fx="370.7" fy="177" r="50.4" gradientTransform="translate(-140 -338.6) rotate(-14.8) scale(1 3.2)" gradientUnits="userSpaceOnUse"><stop offset="0" stop-color="#858485"/><stop offset="1" stop-color="#000"/></radialGradient><radialGradient id="m" cx="358.8" cy="177" fx="358.8" fy="177" r="59.9" gradientTransform="translate(-140 -338.6) rotate(-14.8) scale(1 3.2)" xlink:href="#l"/><linearGradient id="n" x1="73.6" y1="116.1" x2="156.7" y2="116.1" gradientTransform="translate(-40.7 37.2) rotate(-14.8)" gradientUnits="userSpaceOnUse"><stop offset="0" stop-color="#fff"/><stop offset=".8" stop-color="#626366"/><stop offset="1" stop-color="#bbbdbf"/></linearGradient><linearGradient id="o" x1="73.2" y1="116.1" x2="157" y2="116.1" xlink:href="#n"/><linearGradient id="p" x1="74.3" y1="115.5" x2="155.8" y2="115.5" xlink:href="#n"/><linearGradient id="q" x1="73.4" y1="116.1" x2="156.9" y2="116.1" xlink:href="#n"/><linearGradient id="r" x1="85.2" y1="198.7" x2="101.6" y2="198.7" gradientTransform="translate(-40.7 37.2) rotate(-14.8)" gradientUnits="userSpaceOnUse"><stop offset="0" stop-color="#626366"/><stop offset=".7" stop-color="#bbbdbf"/><stop offset=".8" stop-color="#fff"/><stop offset="1" stop-color="#bbbdbf"/></linearGradient></defs><rect class="am" width="548" height="374"/><polygon class="u" points="363.5 373.2 342 373.2 276.2 244.8 209.4 373.2 189.7 373.2 269.2 221.4 283.2 221.4 363.5 373.2"/><circle class="s" cx="276.2" cy="229.4" r="7.6" transform="translate(-81.3 262.5) rotate(-45)"/><path class="z" d="m276,226.9c1.3,0,2.3,1,2.3,2.3s-1,2.3-2.3,2.3-2.3-1-2.3-2.3,1-2.3,2.3-2.3Z"/><rect class="v" x="31.8" y="237.5" width="493" height="12.2" transform="translate(-53.6 80.3) rotate(-15)"/><path class="aa" d="m447.4,60.1c2.4,0,3.5,4.9,4.3,8l-21,.8-.8-1.8c5.6-2.3,12.2-6.9,17.5-7.1Z"/><path class="ae" d="m441.6,92c-.9.5-1.9,1-3,1.5,2.7,1.3,6.1.6,7.2,3.8.4,1.1.7,2.1,1.1,3.1,1,3,1.9,5.9,2.8,9.2,1.4,5.2,2.9,10.4,4.3,15.7,4.5,16.5,8.8,33,12.9,49.6,0,.2.1.5.2.7.4,1.6.8,3.3,1.2,4.9.8-.4,1.6-.8,2.4-1.2.9-.5,1.9-1,2.8-1.5l-1.4-5.2-19.4-74.5-1-4c-1-3.7-6.9-1.7-10-2Z"/><path class="ak" d="m449.4,127.3c-.5,1.4,1.5-1.4,3.6-1.9-.9.8-1.3,2.9-1,5.8.2,1.4-1.8,4.7-5.3,5.5-.1,0-.2,0-.3,0,.9-.5,3.1-2.7,2.3-4.6,0,0-.6.8-1.6.8.3-.9,1.5-4.2.3-4.9,0,0-1.3,2.9-1.7,2.6-.4-.3-.4-3.8-1-4.2,0,0-.4,2.6-.8,2.5-.6-.2-1.9-3-2.2-3.3,0,0,.9,3.8.3,3.5s-1.9-1.6-2.2-2.1c-.8.7.8,4.6,1.5,5.6-1.5-.5-2.3-1.5-3.5-1.9,0,0,.5,3,2.3,3.6,0,0-.7.4-1.5.4.1.7,2.6,2.8,4.7,2.9-3,.6-6.8-.3-7.9-4.1-1-3.2-2.9-4.1-2.9-4.1,2.5-.9,2.8.7,3.4.5,0,0-.1-2.9-1.6-3.9,2.3-.9,3.2,1.5,3.4.9-.1-.7-.4-3.7-2.5-5.1,0,0,1.3-.3,4,1-.6-1.1-1.4-3.4,0-7.2.3,1.1,1.3,3.4,2.6,4.7,1.6,1.6,1.3,4,2.3,3.9.8-.1.4-3.8.3-4.9.9-.1,1.9,5.8,2.8,5.9.7.1.9-2.4,1-3.5,0-.5,1.9,3.7,1.3,5.6Z"/><path class="an" d="m440.5,84.2l1.3,4.7-2.7.7c-1.6-2.4-5.2-2.9-8.5-2l-.2-.7,1.3-.4,1-.3,7.8-2.1Z"/><path class="aq" d="m435.8,90.5l-8.5,2.3-2.8.8c.2-3,3-5.1,6.2-6,3.2-.8,6.8-.4,8.5,2l-3.3.9Z"/><path class="ao" d="m451.3,179.8l9.5-2.6c-3.1,1.1-6.1,2-9.5,2.6Z"/><polygon class="ap" points="436.2 85.3 432.7 86.3 431.8 86.5 422.9 88.9 425.1 85.6 427.9 84.8 430.2 84.2 430.2 84.2 436.2 85.3"/><polygon class="ax" points="431.8 86.5 430.4 86.9 422.8 89 422.9 88.9 431.8 86.5"/><polygon class="av" points="428.5 77.8 430.2 84.2 430.2 84.2 430.1 84.2 427.9 84.8 425.2 85.5 424.8 84 423.5 78.9 428.5 77.8"/><polygon class="au" points="430.2 84.2 427.9 84.8 430.1 84.2 430.2 84.2"/><path class="ar" d="m430.4,86.9l.2.7c-3.2.8-6,3-6.2,6l-2.4.7-1.2-4.7,2.1-.6h0c0,0,7.6-2,7.6-2Z"/><path class="ai" d="m454,125.2c-1.4-5.2-2.8-10.5-4.3-15.7-.9-3.2-1.8-6.1-2.8-9.2-.3-1-.7-2.1-1.1-3.1-1.1-3.1-4.5-2.5-7.2-3.8-4.1,1.8-8.7,3-13.2,3.6-1,1.2-1.9,2.5-1.5,4.9.3,1.5.6,2.9.9,4.3.6,2.7,1.2,5.4,2,8.3,1.3,5.1,2.6,10.2,3.9,15.4,4.3,17,8.8,34.3,13.4,51.1,0,.3.1.6.2.8.5,1.8,1,3.5,1.4,5.2.5,0,.9,0,1.4-.1,2.5-.3,4.9-.7,7.2-1.3,1.6-.4,3.2-.9,4.8-1.4,2.4-.8,4.7-1.7,6.9-2.7.7-.3,1.5-.7,2.2-1-.4-1.6-.8-3.3-1.2-4.9,0-.2-.1-.5-.2-.7-4.1-16.6-8.4-33.1-12.9-49.6Zm-18.1,4.7s-.1-2.9-1.6-3.9c2.3-.9,3.2,1.5,3.4.9-.1-.7-.4-3.7-2.5-5.1,0,0,1.3-.3,4,1-.6-1.1-1.4-3.4,0-7.2.3,1.1,1.3,3.4,2.6,4.7,1.6,1.6,1.3,4,2.3,3.9.8-.1.4-3.8.3-4.9.9-.1,1.9,5.8,2.8,5.9.7.1.9-2.4,1-3.5,0-.5,1.9,3.7,1.3,5.6-.5,1.4,1.5-1.4,3.6-1.9-.9.8-1.3,2.9-1,5.8.2,1.4-1.8,4.7-5.3,5.5-.1,0-.2,0-.3,0,.9-.5,3.1-2.7,2.3-4.6,0,0-.6.8-1.6.8.3-.9,1.5-4.2.3-4.9,0,0-1.3,2.9-1.7,2.6-.4-.3-.4-3.8-1-4.2,0,0-.4,2.6-.8,2.5-.6-.2-1.9-3-2.2-3.3,0,0,.9,3.8.3,3.5s-1.9-1.6-2.2-2.1c-.8.7.8,4.6,1.5,5.6-1.5-.5-2.3-1.5-3.5-1.9,0,0,.5,3,2.3,3.6,0,0-.7.4-1.5.4.1.7,2.6,2.8,4.7,2.9-3,.6-6.8-.3-7.9-4.1-1-3.2-2.9-4.1-2.9-4.1,2.5-.9,2.8.7,3.4.5Z"/><path class="ai" d="m439.7,90.8c-.2-.5-.4-.9-.6-1.2l-3.3.9c.7,1.6,1.7,2.5,2.9,3,1-.4,2-.9,3-1.5-1,0-1.7-.4-1.9-1.2Z"/><path class="ba" d="m423.5,79.9l1.1,4.1-6.3,1.7v-.5c-.1,0-.1,0,0,0l-.9-3.4s0,0,0,0v-.3c0,0,6.2-1.6,6.2-1.6Z"/><path class="ac" d="m452.2,68.1h-.5s-21,.9-21,.9l-.8-1.8-.2-.4c-3.4.8-5.6,1.5-8.7,2.3-1.9.5-2,2.1-2.3,3.2-1.5.4-2.5.9-2.2,2.1.3,1.3,1.6,1.4,3.1,1l1.4,4.1,2.5-.6,5.1-1.1.7-.2,1.3-3,3.3-.9c1.6.7,3.9,1.7,5.6,1.9,3.8.6,5.6.7,9.4.6,1.5,0,2.3,1.2,2.8,1.3.7.1,1.6,0,1.8-.8.5-2.7-.1-5.7-1.1-8.7Z"/><path class="ac" d="m468.2,180.4c-.7.4-1.5.7-2.2,1,1.4,2.2,3.2,4.8,5.1,3.7,1.1-.6.4-3.4-.5-6-.8.4-1.6.8-2.4,1.2Z"/><path class="ac" d="m457.8,188.6c1.3-.4,1.4-2.4,1.4-4.5-1.6.5-3.1,1-4.8,1.4,1,1.9,1.9,3.5,3.4,3.1Z"/><path class="ac" d="m441.6,187.2c.5,2.7,1.2,5.2,2.3,5.2,2.7-.5,2.9-3.1,3.3-5.5-.4,0-.9,0-1.4.1-1.4.1-2.8.2-4.2.2Z"/><path class="al" d="m435.8,90.5l-8.5,2.3-2.8.8c0,.3,0,.7,0,1,.2,1.2-1,2-2.5,2.8-2.8,1.5-6.8,2.9-6,6.5l.9,3.4,20.3,74.2,1.5,5.6c.9,0,1.9,0,2.8,0,1.4,0,2.9,0,4.2-.2-.5-1.7-1-3.5-1.4-5.2,0-.3-.2-.6-.2-.8-4.6-16.8-9.1-34.1-13.4-51.1-1.3-5.2-2.6-10.3-3.9-15.4-.7-2.9-1.4-5.5-2-8.3-.3-1.4-.6-2.8-.9-4.3-.5-2.3.5-3.6,1.5-4.9,4.5-.6,9.1-1.8,13.2-3.6-1.1-.5-2.1-1.4-2.9-3Z"/><path class="bc" d="m417.3,81.8l.9,3.4s0,0,0,0l-.9-3.4s0,0,0,0Z"/><path class="aw" d="m417.3,81.9l.9,3.4c-13,3.6-23.7,14.6-23.9,26-.3,18.5,21.9,24.9,26.7,40.5l16.3,36.1.8,1.7c-6.6,3.4-12.4,5.2-18.9,4.7l-3.2-40.6c-4.4-15.4-25.3-18.8-25.6-43.4-.2-14.8,13-25.1,27-28.3Z"/><path class="w" d="m454.4,185.5c1,1.9,1.9,3.5,3.4,3.1,1.3-.4,1.4-2.4,1.4-4.5"/><path class="w" d="m441.6,187.2c.5,2.7,1.2,5.2,2.3,5.2,2.7-.5,2.9-3.1,3.3-5.5"/><path class="w" d="m466,181.4c1.4,2.2,3.2,4.8,5.1,3.7,1.1-.6.4-3.4-.5-6"/><path class="w" d="m424.5,93.5c0,.3,0,.7,0,1,.2,1.2-1,2-2.5,2.8-2.8,1.5-6.8,2.9-6,6.5l.9,3.4,20.3,74.2,1.5,5.6c.9,0,1.9,0,2.8,0,1.4,0,2.9,0,4.2-.2.5,0,.9,0,1.4-.1,2.5-.3,4.9-.7,7.2-1.3,1.6-.4,3.2-.9,4.8-1.4,2.4-.8,4.7-1.7,6.9-2.7.7-.3,1.5-.7,2.2-1,.8-.4,1.6-.8,2.4-1.2.9-.5,1.9-1,2.8-1.5l-1.4-5.2-19.4-74.5-1-4c-1-3.7-6.9-1.7-10-2-1,0-1.7-.4-1.9-1.2-.2-.5-.4-.9-.6-1.2"/><path class="w" d="m460.8,177.2c2-.7,4-1.5,6.1-2.4,1.6-.7,3.3-1.5,5.1-2.3"/><path class="w" d="m437.7,181.4c2.3-.1,4.4-.3,6.4-.5,2.6-.3,4.9-.6,7.1-1.1,3.4-.7,6.4-1.5,9.5-2.6"/><path class="w" d="m417.4,107.2c2.5-.3,5-.6,7.5-1,7.8-1.3,15.2-3.2,22.1-5.8,1.9-.7,3.8-1.5,5.7-2.3"/><polyline class="w" points="422.9 88.9 420.8 89.5 422 94.2 424.5 93.5 427.2 92.8 435.8 90.5 439.1 89.6 441.8 88.8 440.5 84.2 432.7 86.3"/><polyline class="w" points="427.9 84.8 425.1 85.6 422.9 88.9 422.8 89 430.4 86.9 431.8 86.5 432.7 86.3 436.2 85.3 430.2 84.2"/><path class="y" d="m429.9,67.1c5.6-2.3,12.2-6.9,17.5-7.1,2.4,0,3.5,4.9,4.3,8"/><polyline class="w" points="423.5 78.9 424.8 84 425.2 85.5 427.9 84.8 430.2 84.2 430.2 84.2 428.5 77.8"/><path class="w" d="m423.5,78.9l-2.5.6-1.4-4.1c-1.5.4-2.8.3-3.1-1-.3-1.2.7-1.7,2.2-2.1.3-1,.4-2.7,2.3-3.2,3.1-.8,5.3-1.5,8.7-2.3l.2.4.8,1.8,21-.8h.5c1,3,1.6,6.1,1.1,8.7-.1.7-1.1.9-1.8.8-.5,0-1.3-1.3-2.8-1.3-3.8.1-5.6,0-9.4-.6-1.7-.2-4-1.2-5.6-1.9l-3.3.9-1.3,3-.7.2-5.1,1.1Z"/><polyline class="w" points="418.2 85.2 418.3 85.7 424.6 84 423.5 79.9 417.2 81.5 417.3 81.9"/><path class="t" d="m418.2,85.2s0,0,0,0l-.9-3.4s0,0,0,0c-14,3.2-27.2,13.5-27,28.3.3,24.6,21.2,28,25.6,43.4l3.2,40.6c6.6.5,12.3-1.2,18.9-4.7l-.8-1.7-16.3-36.1c-4.8-15.6-27-22-26.7-40.5.2-11.4,10.9-22.4,23.9-26Z"/><path class="x" d="m453.1,125.4c-2.1.4-4.1,3.2-3.6,1.9.7-1.9-1.2-6.1-1.3-5.6-.2,1.1-.3,3.6-1,3.5-.9-.1-1.9-6-2.8-5.9.1,1,.5,4.7-.3,4.9-1,.1-.6-2.3-2.3-3.9-1.4-1.3-2.3-3.6-2.6-4.7-1.4,3.9-.6,6.1,0,7.2-2.6-1.4-4-1-4-1,2.1,1.4,2.4,4.5,2.5,5.1-.2.6-1.2-1.8-3.4-.9,1.5,1,1.6,3.9,1.6,3.9-.7.2-1-1.4-3.4-.5,0,0,2,.9,2.9,4.1,1.1,3.8,4.9,4.7,7.9,4.1-2.1-.1-4.6-2.2-4.7-2.9.9,0,1.5-.4,1.5-.4-1.7-.6-2.3-3.6-2.3-3.6,1.2.4,2,1.4,3.5,1.9-.7-1-2.3-4.9-1.5-5.6.3.5,1.6,1.8,2.2,2.1s-.3-3.5-.3-3.5c.3.3,1.6,3.2,2.2,3.3.4.1.8-2.5.8-2.5.6.5.6,3.9,1,4.2.4.3,1.7-2.6,1.7-2.6,1.2.7,0,4.1-.3,4.9,1,0,1.6-.8,1.6-.8.8,1.9-1.4,4-2.3,4.6,0,0,.2,0,.3,0,3.5-.8,5.4-4.1,5.3-5.5-.3-2.9.2-4.9,1-5.8Z"/><line class="x" x1="438.1" y1="142.4" x2="454" y2="138.2"/><path class="aj" d="m140.2,146.6c-3,.9-2.6,3.3-2.6,3.3l13.3,59.9-17.3-74.1c.9-.3,1.8-.7,2.8-1.1l-.5-2.3-1.5-7c-2.1.8-4.5,1.6-7,2.5-.4.1-.8.3-1.1.4l1,6.4.5,3.3c-.7.2-1.4.5-2.1.7l3,12.5,27.2,113.5,1.1,4.7c2.7-.8,5.1-1.5,7.2-2.1l-1.4-6,3-.8-24.2-113v-.8c-.4,0-.9,0-1.5.2Zm17.6,117.4l-26.3-113.8c1.9,0,2.6,1.7,2.6,1.7l25.4,111.6-1.6.4Z"/><path class="bb" d="m103,118.5c1.7-.4,3.4-.6,5-.9v.3c.2.5,0,.9-.5,1.1l-2.8.7c-1.5-.3-2.9-.5-4.4-.6.9-.2,1.8-.4,2.6-.6Z"/><path class="ab" d="m143.9,121.6v-.2c0,0-14.6-6.8-35.8-3.8v.3c.2.5,0,.9-.5,1.1l-2.8.7c7.8,1.4,16.2,4.1,22.6,8,2.6-.9,4.9-1.7,7-2.5l1.5,7,.5,2.3c-.9.4-1.8.7-2.8,1.1l17.3,74.1-13.3-59.9s-.4-2.4,2.6-3.3c.5-.2,1-.2,1.5-.2,1.9,0,2.6,1.7,2.6,1.7l23.3,111.7-1.7.5-3,.8,1.4,6c3.9-1.2,6.4-2.1,6.5-2.3.4-.6,0-2.9,0-3.9,0-1.1-.4-2.1-.6-3.2-1.4-7.1-2.8-14.1-4.3-21.2-4.1-20.5-8.2-41-12.4-61.5-2.9-14.4-5.8-28.7-8.7-43.1,0-.3-.1-.6-.2-.9,1.1-.5,2.3-1.1,3.5-1.7-.6-2.5-1.5-6-2.1-8.4-.2,0-.9.3-2.2.8Z"/><path class="ab" d="m127.5,153.7l26.8,111.3,1.7-.5-27.2-113.5c-1.6,1-1.3,2.7-1.3,2.7Z"/><path class="ab" d="m105.7,111.9l-3.7,1c.3,1.9.7,3.7,1,5.6,1.7-.4,3.4-.6,5-.9l-1.3-5.1c-.1-.5-.6-.7-1.1-.6Z"/><path class="ay" d="m97.5,120.4c.5-.3.9-.6,1.4-.9.5-.1,1-.3,1.5-.4,1.4.2,2.9.4,4.4.6l-4.1,1.1-6,1.6c.9-.7,1.9-1.4,2.9-2Z"/><path class="ah" d="m102,112.9c.3,1.9.7,3.7,1,5.6-.9.2-1.7.4-2.6.6-.3,0-.5,0-.8,0-.2.1-.5.3-.7.5,0,0-.1,0-.2,0-.5.1-.9.3-1.4.4-.6-1.8-1.2-3.5-1.8-5.3l6.5-1.7Z"/><path class="ah" d="m100.4,119.1c-.5.1-1,.2-1.5.4.2-.2.5-.3.7-.5.3,0,.5,0,.8,0Z"/><path class="az" d="m98.7,119.5c0,0,.1,0,.2,0-.5.3-.9.6-1.4.9,0-.2-.1-.3-.2-.5.5-.2.9-.3,1.4-.4Z"/><path class="as" d="m97.3,119.9c0,.2.1.3.2.5-1,.6-1.9,1.3-2.9,2h0c-.5.1-.9-.1-1.1-.6l-.2-.6c1.3-.5,2.6-.9,4-1.3Z"/><path class="at" d="m117,247l-25.5-85.3c.3.4.5.7.5.7l25,84.6Z"/><path class="ad" d="m141.7,146.4v.8s24.1,113,24.1,113l1.7-.5-23.3-111.7s-.7-1.6-2.6-1.7Z"/><path class="ad" d="m131.5,150.2l26.3,113.8,1.6-.4-25.4-111.6s-.7-1.6-2.6-1.7Z"/><path class="ad" d="m125.7,138.5c.7-.2,1.4-.5,2.1-.7l-.5-3.3-1-6.4c.4-.1.8-.3,1.1-.4-6.4-3.9-14.8-6.6-22.6-8l-4.1,1.1-6,1.6c-6.1,4.7-11.6,10.9-13.9,17.9,1.6-.3,3.2-.7,4.8-1l1.4,5.9.8,3.1h-.2s0,.2,0,.2l3.9,13.2c.3.4.5.7.5.7l25,84.6,7.9,26.6,1.1,3.8c2.1-.5,4.3-1,6.6-1.6,5.9-1.5,12.3-3.2,18-4.8,2.2-.6,4.4-1.2,6.4-1.8l-1.1-4.7-1.7.5-26.8-111.3s-.3-1.6,1.3-2.7l-3-12.5Zm5.9,133.3l-31.2-112.4c1.6.3,2.1,1.6,2.1,1.6l30.7,110.3-1.7.4Zm10.7-2.5l-1.9.5-30.4-113.3c2.5-.4,3.4,1.7,3.4,1.7l28.9,111.1Zm8.8-3.6l.2.8-1.7.5-28.2-113.4c2.4-.2,3.1,1.7,3.1,1.7l26.6,110.4Z"/><path class="ad" d="m88,160.9c-1.2.4-1.9,1-2.2,1.5-.5.9-.4,1.7-.4,1.7l25.1,81.2h0c0,0,8.7,28.4,8.7,28.4v.2c0,0,0,0,0,0l3.2-.9-33.7-112.4c-.3,0-.5,0-.8.2Z"/><path class="ad" d="m100.9,234.2c-7.9-23.5-15.3-47.3-22-71.2-.3,0-.6,0-.9.2-3,.9-2.6,3.3-2.6,3.3l35.9,108.8,3.3-.9c-2.6-7.5-5.1-14.9-7.7-22.4-2-5.9-4.1-11.8-6.1-17.7Z"/><path class="ag" d="m119.3,274h0s0-.2,0-.2c-3.8-8.8-6.3-19.1-8.7-28.4h0c0,0-25.1-81.3-25.1-81.3,0,0-.2-.9.4-1.7-1.3-4.2-2.5-8.5-3.7-12.9-.7.1-1.4.2-2.1.4-.2-.9-.5-1.8-.7-2.7-.6-2.1-1.1-4.2-1.7-6.3-2.8.6-5.5,1.1-7.8,1.5h0c.3,2.4.8,4.7,1.5,6.8.2.6.4,1.2.6,1.8,1.2-.1,2.3-.3,3.5-.5h0s0,.2,0,.2c1.1,4,2.2,8.1,3.4,12.1,6.8,23.9,14.1,47.7,22,71.2,2,5.9,4,11.8,6.1,17.7,2.6,7.5,5.1,14.9,7.7,22.4.6,1.8,1.2,3.5,1.8,5.3,1.5-.3,3.2-.7,5.1-1.1-.8-1.4-1.5-2.9-2.1-4.5Z"/><path class="af" d="m121.4,153.6l28.2,113.4,1.7-.5-.2-.8-26.6-110.4s-.8-1.9-3.1-1.7Z"/><path class="af" d="m110.1,156.5l30.4,113.3,1.9-.5-28.9-111.1s-.8-2-3.4-1.7Z"/><path class="af" d="m95.5,114.6l-2.8.7c-.5.1-.7.6-.6,1.1l1.3,4.7c1.3-.5,2.6-.9,4-1.3-.6-1.8-1.2-3.5-1.8-5.3Z"/><path class="af" d="m63.5,143.7c-1.5.3-2.4.4-2.4.4.3,2.6.5,5.3,1.1,7.8,1.6,0,3.2-.2,4.9-.3,1.7,5.3,3.4,10.6,5.1,15.8,1.5,4.5,2.9,9,4.4,13.6,6.4,19.7,12.7,39.3,19.1,59,2.7,8.3,5.4,16.7,8.1,25,.9,2.9,3.9,14.2,5.2,15.2.5.4,3.3.1,7.5-.7-.6-1.8-1.2-3.5-1.8-5.3l-3.3.9-35.9-108.8s-.4-2.4,2.6-3.3c.3,0,.6-.1.9-.2-1.1-4-2.3-8.1-3.4-12.1v-.2s0,0,0,0c-1.2.2-2.3.3-3.5.5-.2-.6-.4-1.2-.6-1.8-.7-2.2-1.2-4.4-1.5-6.7h0c2.3-.6,4.9-1.1,7.8-1.7.6,2.1,1.1,4.2,1.7,6.3.2.9.5,1.8.7,2.7.7-.1,1.4-.2,2.1-.4,1.2,4.4,2.5,8.6,3.7,12.9.4-.6,1-1.2,2.2-1.5.3,0,.6-.1.8-.2l33.7,112.4-3.2.9c.7,1.5,1.4,3,2.1,4.5,1.4-.3,3-.7,4.6-1.1l-1.1-3.8-7.9-26.6-25.5-85.3-3.9-13.2v-.2c0,0,.1,0,.1,0l-.8-3.1-1.4-5.9c-1.6.3-3.2.7-4.8,1,2.3-7,7.7-13.2,13.9-17.9h0c-.5.1-.9-.1-1.1-.6l-.2-.6c-21,7.3-29.1,21.2-29.9,22.5Z"/><path class="af" d="m100.4,159.4l31.2,112.4,1.7-.4-30.7-110.3s-.6-1.3-2.1-1.6Z"/><path class="af" d="m119.3,273.9l-8.7-28.4c2.4,9.3,4.9,19.5,8.7,28.4Z"/><path class="t" d="m93.3,121.2l-1.3-4.7c-.1-.5.1-.9.6-1.1l2.8-.7,6.5-1.7,3.7-1c.5-.1.9.1,1.1.6l1.3,5.1"/><path class="t" d="m144.7,130.9c0,.3.1.6.2.9,2.9,14.4,5.8,28.8,8.7,43.1,4.1,20.5,8.2,41,12.4,61.5,1.4,7.1,2.8,14.1,4.3,21.2.2,1,.6,2.1.6,3.2,0,1.1.4,3.3,0,3.9-.2.2-2.6,1.1-6.5,2.3-2,.6-4.5,1.4-7.2,2.1-2,.6-4.2,1.2-6.4,1.8-5.7,1.6-12.1,3.3-18,4.8-2.3.6-4.5,1.1-6.6,1.6-1.6.4-3.1.7-4.6,1.1-1.8.4-3.5.8-5.1,1.1-4.1.8-6.9,1.1-7.5.7-1.3-1-4.2-12.3-5.2-15.2-2.7-8.3-5.4-16.7-8.1-25-6.4-19.7-12.7-39.3-19.1-59-1.5-4.5-2.9-9-4.4-13.6-1.7-5.3-3.4-10.6-5.1-15.8"/><path class="t" d="m63.5,143.7c.7-1.3,8.9-15.2,29.9-22.5,1.3-.5,2.6-.9,4-1.3.5-.2.9-.3,1.4-.4,0,0,.1,0,.2,0,.5-.1,1-.3,1.5-.4.9-.2,1.8-.4,2.6-.6,1.7-.4,3.4-.6,5-.9,21.2-3,35.7,3.8,35.7,3.8"/><path class="t" d="m91.5,123.6c-7.5,3.8-12.4,7.5-18.7,13.5"/><path class="t" d="m96.7,123c-5.7,4.5-7.1,5.8-12.4,12.4"/><path class="t" d="m105.6,120.5c6.4,1.1,6.4,1,13.4,4.6"/><path class="t" d="m101,122c-1.3,2.4-1.8,5.3-2.3,10.5"/><path class="t" d="m112.9,118.5c8.4-.4,14.4.9,20.8,3.1"/><path class="t" d="m144.7,130.9c1.1-.5,2.3-1.1,3.5-1.7-.6-2.5-1.5-6-2.1-8.4-.2,0-.9.3-2.2.8-2,.8-5.2,2-9.5,3.6-2.1.8-4.5,1.6-7,2.5-.4.1-.8.3-1.1.4-6,2.1-13.2,4.3-21.1,6.5-1.7.5-3.6,1-5.5,1.4-4.4,1.1-9.3,2.2-14,3.2-1.6.3-3.2.7-4.8,1-1.1.2-2.2.5-3.2.7-2.8.6-5.5,1.1-7.8,1.5-2.6.5-4.8.9-6.3,1.2-1.5.3-2.4.4-2.4.4.3,2.6.5,5.3,1.1,7.8,1.6,0,3.2-.2,4.9-.3,1.6-.1,3.3-.3,4.9-.5,1.2-.1,2.3-.3,3.5-.5h0c1.5-.2,3-.4,4.5-.7.7-.1,1.4-.2,2.1-.4,1.8-.3,3.7-.7,5.6-1,6.1-1.2,12.5-2.8,19.6-4.6,6.9-1.8,12.7-3.5,18.5-5.4.7-.2,1.4-.5,2.1-.7,1.9-.7,3.9-1.4,5.9-2.2.9-.3,1.8-.7,2.8-1.1,2.6-1.1,5.3-2.3,8.3-3.6Z"/><path class="t" d="m100.4,159.4c1.6.3,2.1,1.6,2.1,1.6l30.7,110.3-1.7.4-3.6.9-32.1-109.9s-.4-2.4,2.6-3.3c.7-.2,1.4-.2,1.9-.1Z"/><path class="t" d="m110.1,156.5c2.5-.4,3.4,1.7,3.4,1.7l28.9,111.1-1.9.5-3.3.9-30.3-110.8s-.4-2.4,2.6-3.3c.2,0,.5-.1.6-.1Z"/><path class="t" d="m151.1,265.7l.2.8-1.7.5-3.5.9-28.2-110.9s-.4-2.4,2.6-3.3c.3,0,.6-.1.9-.2,2.4-.2,3.1,1.7,3.1,1.7l26.6,110.4Z"/><path class="t" d="m131.5,150.2c1.9,0,2.6,1.7,2.6,1.7l25.4,111.6-1.6.4-1.9.5-1.7.5-26.8-111.3s-.3-1.6,1.3-2.7c.3-.2.8-.4,1.3-.6.5-.2,1-.2,1.4-.2Z"/><path class="t" d="m141.7,146.4c1.9,0,2.6,1.7,2.6,1.7l23.3,111.7-1.7.5-3,.8h-.5c0,.1-11.4-51.2-11.4-51.2"/><path class="t" d="m110.5,245.4l-25.1-81.2s-.2-.9.4-1.7c.4-.6,1-1.2,2.2-1.5.3,0,.6-.1.8-.2,1.4-.2,2.2.4,2.7.9.3.4.5.7.5.7l25,84.6,7.6,25.6-2,.5-3.2.9h0s0-.2,0-.2l-8.7-28.4"/><path class="t" d="m78.8,163c2.3-.2,3.1,1.7,3.1,1.7l34.5,109.1-1.9.5-3.3.9-35.9-108.8s-.4-2.4,2.6-3.3c.3,0,.6-.1.9-.2Z"/><path class="t" d="m110.5,245.4h0c2.4,9.4,4.9,19.6,8.7,28.4,0,0,0,.1,0,.2"/></svg>