<?xml version="1.0" encoding="UTF-8"?><svg id="a" xmlns="http://www.w3.org/2000/svg" width="220" height="86" xmlns:xlink="http://www.w3.org/1999/xlink" viewBox="0 0 220 86"><defs><style>.c{fill:#f5ea14;}.c,.d,.e,.f,.g,.h{stroke:#000;stroke-miterlimit:10;}.c,.d,.e,.f,.h{stroke-width:.5px;}.d{fill:#f3ca7f;}.e{fill:#c7c7c7;}.f{fill:#dbdbdb;}.g,.h{fill:none;}.i,.j,.k{stroke-width:0px;}.j{fill:#8cc353;}.k{fill:url(#b);}</style><linearGradient id="b" x1="110" y1="0" x2="110" y2="78" gradientUnits="userSpaceOnUse"><stop offset="0" stop-color="#50b3d2"/><stop offset="1" stop-color="#cbebfb"/></linearGradient></defs><rect class="k" width="220" height="78"/><rect class="j" y="78" width="220" height="8"/><polygon class="c" points="88.3 78 94.6 78 111.4 42.9 128.4 78 134.2 78 114 36.5 108.8 36.5 88.3 78"/><rect class="d" x="108.3" y="-59.6" width="3.4" height="203.2" transform="translate(33.4 131.4) rotate(-70.3)"/><line class="h" x1="100.6" y1="36.8" x2="99.4" y2="40"/><line class="g" x1="89.9" y1="33" x2="88.7" y2="36.2"/><line class="h" x1="79.1" y1="29.2" x2="78" y2="32.4"/><line class="g" x1="68.4" y1="25.3" x2="67.3" y2="28.5"/><line class="h" x1="57.7" y1="21.5" x2="56.6" y2="24.7"/><line class="g" x1="47" y1="17.7" x2="45.9" y2="20.9"/><line class="h" x1="36.3" y1="13.9" x2="35.2" y2="17"/><line class="g" x1="25.6" y1="10" x2="24.4" y2="13.2"/><line class="h" x1="14.9" y1="6.2" x2="13.7" y2="9.4"/><line class="h" x1="206.3" y1="74.6" x2="205.1" y2="77.8"/><line class="g" x1="195.5" y1="70.8" x2="194.4" y2="74"/><line class="h" x1="184.8" y1="66.9" x2="183.7" y2="70.1"/><line class="g" x1="174.1" y1="63.1" x2="173" y2="66.3"/><line class="h" x1="163.4" y1="59.3" x2="162.3" y2="62.5"/><line class="g" x1="152.7" y1="55.4" x2="151.6" y2="58.6"/><line class="h" x1="142" y1="51.6" x2="140.9" y2="54.8"/><line class="g" x1="131.3" y1="47.8" x2="130.1" y2="51"/><line class="h" x1="120.6" y1="44" x2="119.4" y2="47.2"/><rect class="e" x="108.2" y="38.7" width="4.2" height="5" transform="translate(200.2 117.2) rotate(-160.3)"/><path class="f" d="m111.3,36c-1.5,0-2.8,1.1-2.8,2.5s1.2,2.5,2.8,2.5,2.8-1.1,2.8-2.5-1.2-2.5-2.8-2.5Z"/><path class="i" d="m111.3,38c-.3,0-.6.3-.6.6s.3.6.6.6.6-.3.6-.6-.3-.6-.6-.6Z"/></svg>