<?xml version="1.0" encoding="UTF-8"?><svg id="a" xmlns="http://www.w3.org/2000/svg" width="220" height="86" xmlns:xlink="http://www.w3.org/1999/xlink" viewBox="0 0 220 86"><defs><style>.c{fill:#f5ea14;}.c,.d,.e,.f,.g,.h{stroke:#000;stroke-miterlimit:10;}.c,.d,.e,.f,.h{stroke-width:.5px;}.d{fill:#f3ca7f;}.e{fill:#c7c7c7;}.f{fill:#dbdbdb;}.g,.h{fill:none;}.i,.j,.k{stroke-width:0px;}.j{fill:#8cc353;}.k{fill:url(#b);}</style><linearGradient id="b" x1="110" y1="0" x2="110" y2="78" gradientUnits="userSpaceOnUse"><stop offset="0" stop-color="#50b3d2"/><stop offset="1" stop-color="#cbebfb"/></linearGradient></defs><rect class="k" width="220" height="78"/><rect class="j" y="78" width="220" height="8"/><polygon class="c" points="133 78 126.7 78 109.9 42.9 92.9 78 87 78 107.3 36.5 112.5 36.5 133 78"/><rect class="d" x="8.4" y="41.3" width="203.2" height="3.4"/><rect class="e" x="107.9" y="39.7" width="4.2" height="5"/><path class="f" d="m110,36c1.5,0,2.8,1.1,2.8,2.5s-1.2,2.5-2.8,2.5-2.8-1.1-2.8-2.5,1.2-2.5,2.8-2.5Z"/><path class="i" d="m110,38c.3,0,.6.3.6.6s-.3.6-.6.6-.6-.3-.6-.6.3-.6.6-.6Z"/><line class="h" x1="120.6" y1="41.3" x2="120.6" y2="44.7"/><line class="g" x1="132" y1="41.3" x2="132" y2="44.7"/><line class="h" x1="143.4" y1="41.3" x2="143.4" y2="44.7"/><line class="g" x1="154.7" y1="41.3" x2="154.7" y2="44.7"/><line class="h" x1="166.1" y1="41.3" x2="166.1" y2="44.7"/><line class="g" x1="177.5" y1="41.3" x2="177.5" y2="44.7"/><line class="h" x1="188.9" y1="41.3" x2="188.9" y2="44.7"/><line class="g" x1="200.2" y1="41.3" x2="200.2" y2="44.7"/><line class="h" x1="211.6" y1="41.3" x2="211.6" y2="44.7"/><line class="h" x1="8.4" y1="41.3" x2="8.4" y2="44.7"/><line class="g" x1="19.8" y1="41.3" x2="19.8" y2="44.7"/><line class="h" x1="31.1" y1="41.3" x2="31.1" y2="44.7"/><line class="g" x1="42.5" y1="41.3" x2="42.5" y2="44.7"/><line class="h" x1="53.9" y1="41.3" x2="53.9" y2="44.7"/><line class="g" x1="65.3" y1="41.3" x2="65.3" y2="44.7"/><line class="h" x1="76.6" y1="41.3" x2="76.6" y2="44.7"/><line class="g" x1="88" y1="41.3" x2="88" y2="44.7"/><line class="h" x1="99.4" y1="41.3" x2="99.4" y2="44.7"/></svg>