<?xml version="1.0" encoding="UTF-8"?><svg id="USA" xmlns="http://www.w3.org/2000/svg" width="138" height="203.8" viewBox="0 0 138 203.8"><defs><style>.cls-1{stroke-linecap:round;stroke-linejoin:round;}.cls-1,.cls-2{fill:none;stroke:#000;}.cls-2{stroke-miterlimit:10;}.cls-3{fill:#4c2f21;}.cls-3,.cls-4,.cls-5,.cls-6,.cls-7,.cls-8,.cls-9,.cls-10,.cls-11{stroke-width:0px;}.cls-4{fill:#604231;}.cls-5{fill:#262262;}.cls-6{fill:#2b3990;}.cls-7{fill:#724e2b;}.cls-8{fill:#c6926e;}.cls-9{fill:#b59d68;}.cls-10{fill:#fff;}.cls-11{fill:#010101;}</style></defs><path class="cls-4" d="m126.4,72.3c11.9-13.5,12.4-30.3,9.4-45.7.3,0,.7.2,1.1.3-2-8.8-12.9-20.7-21-21.7-1.2-.1,3.3-1.2,1.7-2.4-2.7-2-12.2-3.4-15.9,0-4.2-2.7-16.2-2.2-21.3-1,1.6,1.5,3.3,2.1,4.1,2.9h0c-11.5,1.5-21,7.9-22.3,21.8.9-.8,1.7-1.4,2.7-1.4-1.9,5-1.1,12.9,0,17.9,1.7-4.1,3.8-10.1,8.1-12.2,1.1,2,2.3,3.9,3.2,6,2.7-4.2,6-7.2,10.1-10.3-.3,5,1.5,7.3,2.3,12.1,2.4-6.3,4.4-9.4,10.2-13.8.3,2.7,2,4.9,2.4,7.6,8.2-9.5,7-5.4,10.5,3.7,1.8-3.2,1.9-3.4,3.6-6.4,5,5,2.8,18.7,3,25.4,2.8-5.2,2.6-7.7,5.4-12.5-1,13.9-2,14.9-6.1,26.7,2.2-1.6,3.6-6.4,5.8-8-1.3,4.1-2.7,6.8-4.7,10.6,4.3-3.9,7.1-7.4,9-11,.4,3.1-.1,8.4-1.3,11.1Z"/><path class="cls-9" d="m83.9,195.1c-2.9-3.8-11.4-15.1-17.6-32h0c.1.3.3.6.4.9,9.7-7.1,18.7-15.3,27.2-20.8,10.8,13.6,23.4,29.8,27.4,33.2,4.1.8,3.7,1.3,7.3,2.3-.9,10.2-4.7,23.5-15.4,24.6-8,.6-24.9,1.9-29.4-8.3Z"/><path class="cls-5" d="m131.4,127.5c-.2-5.1-.5-11.9-1.1-18.7-3.1,2.9-5.3,2.4-11.3,3.1,0,0,0,0,0,0-5.7,2.7-11,4.2-15.1,5.4-5.9.6-15.3,10.6-17.3,4.9h.7c0-.7,0-1.3-.1-1.9-3.7.9-7,2.3-9.8,3.2,1.9,1.6,7.4,8.5,10.2,11.9,13.7,4.1,34.6,2.3,43.9-3.8,0-1.1,0-2.4,0-3.9Z"/><path class="cls-11" d="m105.5,43.1c2.6,0,2.6,7.8,0,7.7-2.6.1-2.7-7.8,0-7.7Z"/><path class="cls-10" d="m105.6,65.2c-5,8.9-18.3,11.3-23.2,2.5h0c6.9,2.3,21.8-1.2,23.1-2.5Z"/><path class="cls-6" d="m131.5,131.4c-9.3,6.2-30.2,7.9-43.9,3.8,9.9,12.3,29.2,37.3,33.8,41.2,4.2.8,4.2,1.6,8,2.5,1.5.4,1.8-8.7,1.8-12.6,0-11.3.3-24.6.2-35Z"/><path class="cls-6" d="m88.3,124.2c5.1-1.3,9-5.2,15.7-7,4.1-1.1,9.4-2.6,15.1-5.4,0,0,0,0,0,0,6-.7,8.3-.1,11.3-3.1-1-10.5-2.6-20.9-5.2-24.2-3.2-4.1-8.6-5-8.7-6.7h0c-.7.5-1.4,1-2.1,1.5-.8-1.1-2.4-2.6-2.8-3.3-.5.4-.9.8-1.4,1.2-.7,7.7-10.9,12.6-16.1,15v-.2c-2.9.3-5.8-2-4.5-10-.3-.1-.6-.3-1-.4-.5,1-.9,2-1.8,2.7-1.3-1.4-2.8-2.8-4.2-4.2-7.6,4.8-20.9,18.9-29.3,27.1,7.3-3.7,10.6-.9,14.7.9l.3.6c5.1-2.3,10.6-5.3,14.2-7,2.9,6.1,4.9,13.9,5.3,20.3h-.7c.6,1,1.3,2.3,1.6,2.2Z"/><path class="cls-11" d="m77.7,43.3c2.2,0,2.2,6.8,0,6.7-2.2,0-2.2-6.8,0-6.7Z"/><path class="cls-3" d="m127.7,61.2c-1.9,3.6-4.6,7.1-9,11,2-3.8,3.4-6.5,4.7-10.6-3.5,4.7-7.5,11-12.1,14.4.5.8,2,2.2,2.8,3.3,4.9-3.1,12.8-11.4,12.5-12.4h1c.2-1.9.3-4.1,0-5.8Z"/><path class="cls-3" d="m78.7,74.7c-7.1-4-9.6-22-9-26.1-1.1-4.9-1.6-7-1.9-11.5l-.3-.2c-1.1,2.1-2,4.4-2.7,6.3-.6-2.6-1-5.9-1.1-9.2h-.6c-2.4,10.2.2,23.8,3.7,32.7.2-2.5.8-5.3,2.1-7.5,2.1,7.5,4.5,14.8,9.7,20.8-.1-1.5.9-2.3,1.1-3.4h0c1.7,2.9,4.6,5,6.8,7.5.9-.7,1.3-1.7,1.8-2.7-3.2-1.5-6.6-4.2-9.6-6.8Z"/><path class="cls-10" d="m39.3,180.8c-.2,0-.5,0-.7,0,1.1-3.8,1.3-6.2.6-7.4h0c1-3.8,1-7.1.6-10.7,6,2.6,10.9,3.8,17.7,3.7-1.3,5.9-3.3,13.5-3,14.5-2.6,1.1-7.8,3.9-15.4.1v-.3Z"/><path class="cls-8" d="m118.3,55.4c-.2-6.7,2-20.4-3-25.4-1.7,3-1.8,3.2-3.6,6.4-3.5-9.2-2.3-13.2-10.5-3.7-.5-2.7-2.1-4.9-2.4-7.6-5.8,4.4-7.7,7.5-10.2,13.8-.8-4.7-2.7-7.1-2.3-12.1-4.1,3.2-7.4,6.1-10.1,10.3-.8-2.1-2.1-4.1-3.2-6-2.3,1.1-4,3.4-5.3,5.9l.3.2c3,18.4-.3,34.7,21.4,44.8-1.3,8,1.7,10.3,4.4,10v.2c5.4-2.3,15.5-7.3,16.2-15,11.6-9.3,12.1-19.1,13.8-34.3-2.8,4.8-2.6,7.4-5.4,12.5Zm-40.6-5.5c-2.2,0-2.2-6.8,0-6.7,2.2,0,2.2,6.8,0,6.7Zm27.8-6.8c2.6,0,2.6,7.8,0,7.7-2.6.1-2.7-7.8,0-7.7Zm-23.1,24.6h0c6.9,2.3,21.8-1.2,23.1-2.5-5,8.9-18.3,11.3-23.2,2.5Z"/><path class="cls-8" d="m83.5,130.1c-2.8-3.5-5-6-6-6.8,2.8-.9,6.1-2.3,9.8-3.2-.6-5.7-2.5-13.1-5.2-18.5-3.6,1.7-9.1,4.7-14.2,7l-.3-.6c-4.1-1.8-7.3-4.6-14.7-.9-5.1,2.5-4.1,3.1-5.7,6.6,0,0,0,0,0,0-5.5.8-8.7,2.1-11.6,6.7-1.4,1.8-.8,7-.3,8.4,1.1.9,3.5,1.4,6.2,1.6h0c-1.5,0-3.4.2-4.6.6h.5c-.9.3-1.6.8-.8,2,.4.6,2.2.6,3.9.7-2.4.8-6.6,1-2.9,3.5.5.3,2.1.4,3.6.5-2.5.2-6.6-1.1-5.5,2.2.4,1.2,1.9,1.3,3.5,1.4-5-.5-4.9,2.7-.5,3.2-.6,7.5.5,13.1,1,18.3,6,2.6,10.9,3.8,17.7,3.7,2-8.3,3.3-12.9,1.6-23.5h.2c1.9,7.3,4.7,15.2,7.4,21.1,9.7-7.1,18.7-15.3,27.2-20.8-3.6-4.6-7.1-8.9-10.5-13.1Z"/><path class="cls-7" d="m57.7,198.1h0c1.6-3.4.5-13.5-1.3-16.7-.6-2.8-8.4,5.1-17.3-.3v-.3c0,0-.3,0-.6,0,1.1-5.1,2.3-8.4-2.2-8.6-1.7-.7-.7,5.5-3.5,6.7-13.4,5.1-33.8.4-32.2,21.1,11.5,5,39.7,3.1,57,3.1.5.3.1-4.1,0-5Z"/><path class="cls-2" d="m67.9,37.1c.2,4.6.8,6.6,1.9,11.5-.4-.4.7,13.3,2.6,17,2.4,7.2,10.4,13.1,16.9,16.3,8.4,5,21.5-3.6,28.4-12.3"/><path class="cls-2" d="m75,39.3c1.3-2.8,3.7-2.5,4.9-1"/><path class="cls-2" d="m103.8,38.6c2.3-2.3,5.5-1.2,5.9.7"/><path class="cls-2" d="m79.4,46.6c0,4.3-3.4,4.3-3.3,0,0-4.3,3.4-4.3,3.3,0Z"/><path class="cls-2" d="m107.6,47c0,5-4.1,5-4.1,0,0-5,4.1-5,4.1,0Z"/><path class="cls-2" d="m88.9,54.1c0,1.5-3.2,2.7-3.4,3.4,0,1.2,1.1,3.8,2.9,4.5"/><path class="cls-2" d="m81.9,67.4c6.8,2.8,22.3-.9,23.7-2.2-5,8.9-18.3,11.3-23.2,2.5"/><path class="cls-2" d="m67.9,18.5c-3.9,6.4-5.4,16.3-3,24.7,1.7-4.1,3.8-10.1,8.1-12.2,1.1,2,2.3,3.9,3.2,6,2.7-4.2,6-7.2,10.1-10.3-.3,5,1.5,7.3,2.3,12.1,2.4-6.3,4.4-9.4,10.2-13.8.3,2.7,2,4.9,2.4,7.6,8.2-9.5,7-5.4,10.5,3.7,1.8-3.2,1.9-3.4,3.6-6.4,5,5,2.8,18.7,3,25.4,2.8-5.2,2.6-7.7,5.4-12.5-1,13.9-2,14.9-6.1,26.7,2.2-1.6,3.6-6.4,5.8-8-1.3,4.1-2.7,6.8-4.7,10.6,10.8-9.6,11.9-17.1,14.2-31.7.8,1.8,1.1,4.3.9,6.6,4-14.8-1.1-19.9-7.4-30.4"/><path class="cls-2" d="m84.5,5c-11.5,1.4-21,7.8-22.3,21.7.8-.8,1.5-1.2,2.3-1.4"/><path class="cls-2" d="m101.7,3c-4.2-2.7-16.2-2.2-21.3-1,2.1,2.2,4.4,1.9,4.7,4.4"/><path class="cls-2" d="m101.7,3c3.7-3.4,13.2-2,15.9,0,1.6,1.2-2.9,2.2-1.7,2.4,8.1,1,19,12.9,21,21.7-1.9-.9-4.2,0-5.1-2"/><path class="cls-2" d="m90.2,8.4c-5.6,2.4-11.1,8.7-13.8,14.2,3.6-2.2,8.3-3.3,11.8-5"/><path class="cls-2" d="m63.1,34.1c-2.4,10.2.2,23.8,3.7,32.7.2-2.5.8-5.3,2.1-7.5,2.1,7.5,4.5,14.8,9.7,20.8-.1-1.5.9-2.3,1.1-3.4"/><path class="cls-2" d="m88.2,81.8c-.4,1-.9,1.8-1.7,2.4-2.4-2.6-5.5-4.9-7.1-8.2"/><path class="cls-2" d="m111.2,75.7c.4,1.1,2.1,2.4,3,3.6,4.9-3.2,12.8-11.3,12.4-12.4"/><path class="cls-2" d="m127.5,59.8c.9,3.6.2,9.2-1,12.5,11.1-13.1,13.2-29.8,9.1-44.7"/><line class="cls-2" x1="67.7" y1="108" x2="67.9" y2="108.6"/><line class="cls-1" x1="39.3" y1="180.8" x2="39.3" y2="180.8"/><path class="cls-2" d="m116.3,77.9c.2,1.8,5.5,2.6,8.7,6.7,5.3,8.6,6.2,35.8,6.4,48,0,9.8-.2,22.9-.2,33.8,0,3.9-.4,13-1.8,12.6-3.8-1-3.9-1.7-8-2.5"/><path class="cls-2" d="m81.1,98.5c.3-2.2,1.1-5,1.4-6.6"/><path class="cls-2" d="m82.5,101.5c-3.8,1.8-9.3,4.8-14.6,7.2h0c-11.9,6.8-37.4,1-32.3,20.5"/><path class="cls-2" d="m109.2,84.6c-9.1,4.7-20.4,10-29.7,14.6"/><path class="cls-2" d="m86.7,120.2c-15.2,4.2-36,14.6-51.3,8.5"/><path class="cls-2" d="m119.8,111.5c-5.6,2.8-11.7,4.6-15.8,5.7-6.7,1.8-10.5,5.7-15.7,7-.5.2-1.6-2.7-2.3-2.9"/><path class="cls-2" d="m82.4,79.9c-7.7,4.8-21,18.9-29.5,27.2"/><path class="cls-2" d="m121.4,176.5c-7.7-6.8-32.2-40.9-44.1-53.3"/><path class="cls-2" d="m93.7,92c-2.8.3-5.7-2.1-4.4-10.1"/><path class="cls-2" d="m110,77.3c.6,3.9-7.2,10.3-8.9,11.5"/><path class="cls-2" d="m80,99c5.2,6,6.6,15.6,7.4,23"/><path class="cls-2" d="m67.7,108c-4.1-1.8-7.3-4.6-14.7-.9-5.1,2.5-4.1,3.1-5.7,6.6"/><path class="cls-2" d="m59.2,142.9c2.9,13-3.4,28.1-4.7,37.8"/><path class="cls-2" d="m83.4,194.5h-.1"/><path class="cls-2" d="m128.7,177.8c-.8,10.4-4.4,24.4-15.5,25.5-8,.6-24.9,1.9-29.4-8.3"/><path class="cls-2" d="m38.8,144c-1.4,12,2.9,18.9.4,29.4"/><path class="cls-2" d="m58,137c1.6,8.9,5.3,19.6,8.7,27,9.8-7.2,18.8-15.3,27.4-20.9"/><path class="cls-2" d="m83.9,195.2c-3-3.8-11.4-15.1-17.6-32"/><path class="cls-1" d="m56.4,181.4c1.8,3.2,2.9,13.4,1.3,16.7"/><path class="cls-1" d="m39,181.1c9,5.4,16.7-2.5,17.4.3"/><path class="cls-1" d="m57.8,199.4c-14.1-.5-40.9,2-56.6-2.7"/><path class="cls-1" d="m40.7,181.1c-6.9-.8-19.1,3.9-24.9,4.7"/><path class="cls-1" d="m1,196c.5-6.2,3.1-12,14.7-13.5,0,3.9-.2,12.1-.9,16.2"/><path class="cls-1" d="m35.3,181c1.7-1.6,3.8-7.4,1-8.7-1.7-.7-.7,5.5-3.5,6.7-2.5,1.1-11.9,3.3-17.2,3.5"/><path class="cls-1" d="m.7,200.1c11.5,5,39.7,3.1,57,3.1.5.3.1-4.1,0-5"/><path class="cls-1" d="m1.2,194.4c-1.1,2-.7,3.3-.5,5.6"/><path class="cls-1" d="m38.5,181.1c1.3-5.2,2.4-9-2.6-8.8"/><path class="cls-2" d="m39.3,141.3c-1.6,0-3.1-.1-3.5-1.4-1.2-3.3,2.9-2,5.5-2.2.7,0,1.3-.2,1.7-.7,1.9-2.7,0-3.1-2.3-3.3-3.8.5-6.4-2.3-2.1-2.7"/><path class="cls-2" d="m37,131c1.7-.6,9.7-1.5,4.6,2.3-2,1.3-8.1,1-3.9,3.9,1.3.9,9.3-.4,5.1,3.5-1.1,1.3-9.4-.6-6.8,2.8,1.2,1.3,8.1,1.9,7.7-.6-.2-1.7-2.3-1.6-4.3-1.6"/><path class="cls-2" d="m39.4,162.6c6.1,2.5,10.9,4.1,17.8,3.8"/><path class="cls-2" d="m130.4,108.7c-3.1,3-5.4,2.5-11.5,3.2"/><path class="cls-2" d="m87.6,135.2c14,4.1,34.9,2.4,44.4-4.2"/></svg>