<?xml version="1.0" encoding="UTF-8"?><svg id="a" xmlns="http://www.w3.org/2000/svg" width="548" height="374" xmlns:xlink="http://www.w3.org/1999/xlink" viewBox="0 0 548 374"><defs><style>.c{stroke-linecap:round;stroke-linejoin:round;}.c,.d,.e,.f,.g,.h{stroke:#000;}.c,.g,.h{fill:none;}.d{fill:#b3b3b3;stroke-width:.5px;}.d,.e,.f,.g{stroke-miterlimit:10;}.e{fill:#ff0;}.f{fill:#e6c29e;}.i,.j,.k,.l,.m,.n,.o,.p,.q,.r,.s,.t,.u{stroke-width:0px;}.j{fill:#f3b51a;}.k{fill:#f7bc34;}.l{fill:#636567;}.m{fill:#957346;}.n{fill:#debea3;}.o{fill:#e2a025;}.p{fill:#b22b33;}.q{fill:#fbd00d;}.r{fill:#fff;}.s{fill:#0054a5;}.t{fill:#008ed3;}.u{fill:url(#b);}</style><linearGradient id="b" x1="274" y1="0" x2="274" y2="374" gradientUnits="userSpaceOnUse"><stop offset="0" stop-color="#69cbee"/><stop offset="1" stop-color="#d0ecfa"/></linearGradient></defs><rect class="u" width="548" height="374"/><polygon class="e" points="363.5 374 342 374 276.2 245.5 209.4 374 189.7 374 269.2 222.1 283.2 222.1 363.5 374"/><circle class="d" cx="276.2" cy="230.1" r="7.6" transform="translate(-81.8 262.7) rotate(-45)"/><path class="i" d="m276,227.6c1.3,0,2.3,1,2.3,2.3s-1,2.3-2.3,2.3-2.3-1-2.3-2.3,1-2.3,2.3-2.3Z"/><rect class="f" x="266.4" y="-3" width="12.2" height="493" transform="translate(-33.3 443.7) rotate(-75)"/><path class="l" d="m162.1,200.9c5.9-4,18.4-18.5,21.7-23.3-.6-9.1-7.2-16.3-12.7-22.2-11.5,8.5-29.8,22.7-34.3,24.9-3.2-.2-3,.3-6,.3-1.4,8-1.2,15.8,6.5,19.8,6.3,3.2,18.1,7,24.9.5h0Z"/><path class="i" d="m177.7,83c-1.9-.6-3.3,5-1.4,5.4,1.9.6,3.3-5,1.4-5.4Z"/><path class="r" d="m173.5,98.6c1.9,7.2,10.9,11.4,16,6.1h0c-5.3.3-15.3-4.9-16-6.1Z"/><path class="q" d="m152.2,110.5c5.6-4,7.1-2.7,12.8-2.7.5,8.5,4.9,10.7,9.2,14.6v-.2c2.1.8,5.9-.9,5.8-8.1,1.2,0,2.3-.1,3.4-.4,6.4,5.8,12.9,18.9,18.5,27.9-4.8-4.2-7.8-2.8-11.2-2.2l-.2.3c-3.3-2.7-6.8-6-9.1-7.9-3.4,3.2-6.4,9-7.9,12.9,2.7,1.3,4.9,3.1,6.8,4.3-10.8,6.7-37.8,28.7-43.5,31.3-8.9,0-7.7,2.5-5.4-9.5,5.1-18,9.9-46.4,20.8-60.3Z"/><path class="m" d="m151.3,78.4c7.3-14.8,16.3-31.1,33.4-27,6.8,4.8,7.3,0,12.1,1.8,14,8,18.6,23.1,17.5,38.7-1.2-2.1-2.7-3.9-4.6-5.4-5,6.2-7.1,26.3-5.4,31.8-5.3,1.3-14.2-2.1-18.7-4.9v-.2c9.5-2.8,16.4-10.7,16.3-19.5,1.7-3.3,3.5-6.3,4.5-9.5-5.9-3.6-13.3-5.4-19.4-7.2,1-4.1.7-8-.2-11.8.7,3.7-1.8,7.7-3.7,11-4.4-1.6-8.5-2.6-12-3.4-6.5,11.5-9.6,23.4-5.1,35-5.4,0-9.5-.5-14.9-.5-1.5-11.2-4.6-17,0-28.9Z"/><path class="i" d="m197.4,88.2c-1.5-.5-2.8,4.4-1.2,4.7,1.5.5,2.8-4.4,1.2-4.7Z"/><path class="n" d="m166.2,107.8c-.4,0-.8,0-1.2,0,.5,8.5,4.9,10.7,9.2,14.6v-.2c2.1.8,5.9-.9,5.8-8.1,7.6-.8,16.3-4.7,19.8-12.1,2.2-4.3,2.2-8.5,2.2-8.5,1.7-3.3,3.5-6.3,4.5-9.5-5.9-3.6-13.3-5.4-19.4-7.2,1-4.1.7-8-.2-11.8.7,3.7-1.8,7.7-3.7,11-4.4-1.6-8.5-2.6-12-3.4v.7c-7,11.2-9.3,23.1-5.1,34.3Zm10.1-19.4c-1.9-.4-.4-6,1.4-5.4,1.9.4.4,6-1.4,5.4Zm21.1-.2c1.5.3.3,5.2-1.2,4.7-1.6-.3-.3-5.2,1.2-4.7Zm-23.8,10.3c.7,1.2,10.6,6.5,16,6h0c-1.8,1.9-3.4,2.8-6.3,2.4-4.8-.9-7.9-2.9-9.7-8.4Z"/><path class="n" d="m173.5,144.7c1.5-3.8,4.5-9.7,7.9-12.9,2.3,1.9,5.8,5.2,9.1,7.9l.2-.3c3.5-.6,6.4-2,11.2,2.2,3.3,2.9,2.5,3.1,3,6,5.8,2.2,11.4,7.5,7,13.6h0c-1.8.6-4.1.6-6.3.2,0,.2-.1.7,0,.9,1,.3,2,.7,2.7,1.1l-1.1-.3c2.8.9.9,2.8-1.6,1.7,0,0,0,.1,0,.2,1.7.9,3.9,1.9,1,2.9-.2,0-.7,0-1.2,0,0,0,0,0,0,0,3.8.1,2.9,3.7-.4,2.8,0,0,0,0,0,0,3.5.6,2.5,2.9-.5,2.4-1.7,7-4.5,12.4-4.3,19.1h.4c-1.2.9-1.9,3.3-2.1,6.9-.2,0-.4-.2-.5-.2v.3c-6.5.8-9.6-2.6-11.2-4,.5-.9,3.2-13.6,2.8-16.2-.2-1-.8-9.3,0-11.8l-.4-.2c-1.4,3.8-2.5,7.1-5.2,10.3-.6-9.1-7.2-16.3-12.7-22.2,4.5-3.3,8-5.8,9.3-6.4-2-1.2-4.2-3-6.8-4.3Z"/><path class="p" d="m179.8,207.1h0c-.3-2.9,3.1-10.1,5.2-12,1.1-1.9,4.8,5.9,12.8,4.2v-.3c.1,0,.3.1.5.2.5-4.3.8-8,4.4-7.1.9.6-1.3,5.6.3,7.1,7.7,6.8,24.1,8.6,18.6,22.3-11.5-.5-29.8-6.6-42.9-9.7-.5.1,1.1-4.7,1.2-4.9Z"/><path class="g" d="m184.7,51.3c6.8,4.8,7.3,0,12.1,1.8,14,8,18.6,23.1,17.5,38.7-5.4-9.4-17.9-12.1-27.2-14.8,1-4.1.7-8-.2-11.8.7,3.7-1.8,7.7-3.7,11-6.2-2.2-11.5-3.3-17.1-4.3,2.4-6.5,6.1-12.8,12.8-15.2"/><path class="g" d="m185.7,113.2c4.5,2.7,13.3,6.2,18.7,4.9-1.7-5.3.4-25.4,5.2-31.6"/><path class="g" d="m171.1,73.4c-6.9,11.2-9.2,23.1-5,34.3-5.4,0-9.5-.5-14.9-.5-1.5-11.2-4.6-17,0-28.9,7.3-14.8,16.3-31.1,33.5-27"/><path class="g" d="m206.5,84.1c-1,3.2-2.8,6.2-4.5,9.5,0,0,0,4.2-2.2,8.5-2.5,6.1-8.6,8.7-14.2,11-8.9,2.9-12.5.2-21-10.9"/><path class="g" d="m200.1,85.9c-.4-2.2-2.1-2.5-3.3-1.6"/><path class="g" d="m179.8,80.1c-1.2-2.1-3.7-1.8-4.3-.6"/><path class="g" d="m195.6,90.3c-.8,3.1,1.6,3.7,2.4.6.8-3.1-1.6-3.7-2.4-.6Z"/><path class="g" d="m175.5,85.3c-1,3.5,2,4.3,2.9.8,1-3.5-2-4.3-2.9-.8Z"/><path class="g" d="m188.3,94.7c-.2,1.1.5,1.5,1.5,1.6-.2.8-1.3,3.2-2.7,3.3"/><path class="g" d="m189.9,104.6c-5.3.7-15.7-4.8-16.4-6,1.9,7.2,10.9,11.4,16,6.1"/><path class="g" d="m158.6,107.5c-16.3,2.8-22.1,48.1-27.2,63.2-2.3,12-3.5,9.6,5.4,9.5"/><path class="g" d="m182.5,129c.2-1.7.2-3.4.2-4.6"/><path class="g" d="m181.2,131.7c3.7,3.1,10.8,10.1,15.5,12.3,7.9,3.7,21.5,7.3,15,17.6"/><path class="g" d="m164.1,113.6c5.8,5.2,13.6,11.7,19.5,16.8"/><path class="g" d="m174,144.8c10.3,5.9,25.6,19.2,37.8,16.4"/><path class="g" d="m173.3,145.2s0,0,0,0"/><path class="g" d="m173.3,145.2s0,0,0,0"/><path class="g" d="m173.3,145.2c.2,0,0,0,0,0h0Z"/><path class="g" d="m173.3,145.2s0,0,0,0"/><path class="g" d="m173.3,145.2s0,0,0,0"/><path class="g" d="m150.8,131.7c7.5,6.5,15,9.6,22.4,13.4"/><path class="g" d="m183.4,113.7c6.4,5.9,13,18.9,18.5,27.9"/><path class="g" d="m136.8,180.3c5.7-2.6,32.8-24.7,43.7-31.4"/><path class="g" d="m174.3,122.2c2,.8,5.8-1,5.7-8.1"/><path class="g" d="m165,107.7c.2,5.4,2.7,9.1,4.5,10.6"/><path class="g" d="m183.6,130.4c-5.2,2.8-8.3,10-10.2,14.8"/><path class="g" d="m190.7,139.4c3.5-.6,6.4-2,11.2,2.2,3.3,2.9,2.5,3.1,3,6.1"/><path class="g" d="m189.5,167.2c-1,2.6-.3,10.9-.1,12,.5,2.5-2.5,15.2-2.7,16"/><path class="g" d="m130.8,180.7c-1.4,7.9-1.2,15.7,6.5,19.8,6.3,3.2,18.1,7,24.9.5"/><path class="g" d="m204.3,173.4c-1.7,7-4.5,12.4-4.3,19.2"/><path class="g" d="m204.8,170.9s0,0,0,0"/><path class="g" d="m205.2,168s0,0,0,0"/><path class="g" d="m205.5,165c0,0,0,.1,0,.2"/><path class="g" d="m205.4,162.1c0,0,0,.2,0,.3"/><path class="g" d="m190.8,162.7c-2.4,5.3-3.2,10.3-7.1,14.9-.6-9-7.1-16.1-12.4-22"/><path class="g" d="m161.2,201.5c6.5-3.9,19-18.8,22.6-23.9"/><path class="c" d="m185,195.2c-2.1,1.9-5.6,9.1-5.2,12"/><path class="c" d="m197.9,199.4c-8,1.7-11.7-6.1-12.8-4.2"/><path class="c" d="m179.1,209.2c10.6,2,30.1,9.6,42.9,9.9"/><path class="c" d="m196.7,199c5.3,1.2,13,7.7,17,9.8"/><path class="c" d="m222,220.1c1.2-4.7.8-9.6-7.3-13.7-.9,2.3-2.4,7-2.9,10"/><path class="c" d="m202.5,192.2c1.3.5-1.3,5.6.4,7.2,1.6,1.4,7.9,5.4,11.7,7"/><path class="c" d="m200.6,200.3c-.8-1.6-.6-8,1.9-8.1"/><path class="c" d="m221.6,221.7c-11.5-.5-29.8-6.6-42.9-9.7-.5.1,1.1-4.7,1.2-4.9"/><path class="c" d="m222.2,218.9c.3,1.6,0,1.1-.7,2.8"/><path class="c" d="m198.3,199.5c.5-4.3.8-8.4,4.5-7.2"/><path class="g" d="m203.7,167.7c-.5-.2-1-.4-1.1-.8-1.1-2.7,1.2-2.3,2.9-1.9,2.5,1.1,4.4-.9,1.6-1.7"/><path class="g" d="m204.4,170.8c1.1.3,2.4.5,2.9-.3,1.6-2.4-2.2-2.2-3.7-2.8"/><path class="g" d="m208.2,163.5c-1.2-.8-7-3-3.9.8,1.1,1.3,5.9,2.4,2.2,3.7-.7.2-1.9-.2-2.8-.3,0,0,0,0,0,0-3.8-1-2.4,2.8.8,3.1,0,0,0,0,0,0,3.5.6,3.5,2.9-.1,2.5-4.9-.3-4.5-4.2.1-2.5"/><path class="j" d="m437.5,255.9c.2,0,0,0,0,0h0Z"/><path class="s" d="m488.2,236.3l-10.2-2.8c-1.6-.7-2.8-1.3-3-1.8h.2c1.5.2,11.5,2.7,14.4.1,1.9-1.7,3.9-4.9,4.2-7.4.1-.8,0-1.6-.4-2.3,1.6-.6,3.2-1.1,5.1-1.1,2.5-.1,2.9,1.6,3.1,1.3.9,1.9.7,4.4,0,6.4-.9,2.7-4.4,6.8-8.1,7.8-.3,0-.7.1-1.1.1-1.1,0-2.5-.1-4.1-.4Z"/><path class="j" d="m460.1,286l6.1-22.2,18.8,5.2c-2.2,6.8-5,13.9-7.6,20.3l-.4,1.3-16.9-4.7Z"/><path class="o" d="m485,269l6.9,1.9-5.3,19.4c-.4,1.5-2,2.4-3.6,2l-6-1.7.4-1.3c2.7-6.3,5.5-13.5,7.6-20.3Z"/><path class="o" d="m494.2,262.8l-7.1-2c.2-1.4.5-2.9.9-4.5,1.4-4.8,2.7-9.6,4.1-14.3.4-1.3.7-2.6.6-3.9,0-.2,0-.4-.1-.6l5.2,1.4c1.6.4,2.5,2,2,3.6l-5.6,20.3Z"/><path class="k" d="m439.6,247.7l-6.6-1.8,5.6-20.3c.4-1.5,2-2.4,3.6-2l9,2.5c-3.7,1.2-6.3,5-7.6,8.8-1.4,4.2-1.9,8.6-3.7,12.6,0,0-.2.2-.2.3Z"/><path class="s" d="m437.4,255.9l-6.7-1.9,2.2-8.1,6.6,1.8c-1.8,2.2-1.9,5.3-2.1,8.2-.1,0-.1,0,0,0Z"/><path class="j" d="m474.9,232.6l3.1.9c.8.3,1.7.6,2.6.9l-5.8-1.6v-.2Z"/><path class="j" d="m475.7,246.5l3.1-4.2,4.6,2.3-2.1-9.9c2.2.7,4.7,1.3,6.9,1.7l4.4,1.2c0,.2.1.4.1.6.1,1.3-.2,2.6-.6,3.9-1.4,4.8-2.8,9.6-4.1,14.3-.5,1.6-.7,3.1-.9,4.5l-18.5-5.1,5.1-18.4,2.1,9.2Z"/><path class="s" d="m487,260.8l7.1,2-2.2,8.1-6.9-1.9c.4-1.1.7-2.3,1-3.4.5-1.7.7-3.3,1-4.8Z"/><rect class="s" x="489.3" y="266.5" width="8.4" height="1" transform="translate(104.8 671.7) rotate(-74.6)"/><path class="s" d="m478,233.5l10.2,2.8c-2.2-.4-4.7-1-6.9-1.7h0s-.6-.2-.6-.2h-.1c-.9-.3-1.8-.7-2.6-1Z"/><path class="j" d="m459.4,253.2l-19.8-5.5c0-.1.2-.2.2-.3,1.8-4,2.3-8.5,3.7-12.6,1.3-3.8,3.9-7.6,7.6-8.8l8.4,2.3-6.9,7.4,5.1.4.5,5.2,6.1-6.4-5,18.2Z"/><path class="j" d="m430.7,254l6.7,1.9s0,0,0,0c-2.2,7.4-3.8,14.9-5,22.4l-5.1-1.4c-1.6-.4-2.5-2-2-3.6l5.3-19.4Z"/><path class="j" d="m451.1,283.5l-18.6-5.1c1.2-7.6,2.9-15.1,5-22.4,0,0,.2,0,0,0l19.7,5.4-6.1,22.2Z"/><path class="s" d="m499,219.8c-.2,0-.6-.2-1-.4.3.1.7.2,1,.4Z"/><path class="s" d="m466.4,213c.7.7,1.2,2.1,1.7,3.1,1.1,2.5,2,6.1,1.2,8.8l-2.5,3c-1.3-1.5-2.1-2.9-3.8-4.1-1.2-.9-2.3-1.5-3.4-2.5-.7-.6-2.7-2.3-2.6-3.2,0-.5.8-1.2,1.6-1.8t0,0c2.2-1.3,2.4-1.5,6-3.7.7-.2,1.3-.1,1.9.4Z"/><path class="s" d="m501.3,221.9c-.4-.6-1.4-1.6-1.9-2,.2,0,.3.2.4.3.7.4,1.1,1,1.5,1.7Z"/><path class="s" d="m481.3,234.6h0c-.2,0-.4,0-.6-.2l.6.2Z"/><path class="t" d="m468.5,255.7l5.1-18.4,2.1,9.2,3.1-4.2,4.6,2.3-2.1-9.9c-.2,0-.4-.1-.6-.2h-.1s-5.8-1.6-5.8-1.6v-.2c0,0,.1-.2.1-.2l-9.1-2.5h0c0,.1-6.2-1.6-6.2-1.6h0c0,0-6.9,7.5-6.9,7.5l5.1.4.5,5.2,6.1-6.4-5,18.2-19.8-5.5c-1.8,2.2-1.9,5.3-2.1,8.2l19.7,5.4-6.1,22.2-.3,1,9.1,2.5.3-1,6.1-22.2,18.8,5.2c.4-1.1.7-2.3,1-3.4.5-1.7.7-3.3,1-4.8l-18.5-5.1Z"/><path class="t" d="m460.9,227.9c1.5.4,3,.7,4.5,1,0-.1.1-.3.1-.4-1.1-1.1-2.5-1.5-3.9-2.1-1.7-.7-3.2-1.6-4.9-2.3-5.2-2-3-5.1,0-6.9.7-.4,1.2-.7,1.6-1t0,0c2.2-1.3,2.4-1.5,6-3.7.3-.2.6-.3.9-.5-1.3-2.3-9.5-4.2-12.2-3.7-4.1.8-7.4,4.3-8.2,8.3-1,5.1,0,6.3,4.4,7.5,3.9,1.1,7.5,2.7,11.5,3.8Z"/><rect class="t" x="427.3" y="249.6" width="8.4" height=".6" transform="translate(75.8 599.3) rotate(-74.6)"/><path class="t" d="m437.4,255.9h0c-.1,0-.1,0,0,0Z"/><path class="t" d="m501.3,221.9c-.4-.6-1.4-1.6-1.9-2,0,0,0,0,0,0,0,0-.1,0-.2,0t0,0s0,0,0,0c-.2,0-.6-.2-1-.4-2-.8-5.6-2.5-6.9-2.6-2.7-.2-3.9,3.8-5.1,5.7-1,1.6-2.4,3-3.9,4.2-.5.4-1.2.9-1.8,1.2-.7.3-2.6,1.7-2.6,1.7,2.7,1,6.7-1.9,8.7-3.4,2.3-1.6,4.5-3.1,6.8-4,1.6-.6,3.2-1.1,5.1-1.1,2.5-.1,2.9,1.6,3.1,1.3h0c0,0,0-.2-.2-.4Z"/><polygon class="t" points="475 231.7 475.1 231.5 477.5 229.3 478.9 227.9 470.4 225.1 467 228.1 465.7 229.3 465.5 229.4 474.4 232.2 475 231.7"/><path class="h" d="m488.2,236.3l4.4,1.2,5.2,1.4c1.6.4,2.5,2,2,3.6l-5.6,20.3"/><line class="h" x1="474.9" y1="232.6" x2="478" y2="233.5"/><path class="h" d="m432.9,245.9l5.6-20.3c.4-1.5,2-2.4,3.6-2l9,2.5,8.4,2.3"/><path class="h" d="m451.1,283.5l-18.6-5.1-5.1-1.4c-1.6-.4-2.5-2-2-3.6l5.3-19.4"/><path class="h" d="m491.9,270.9l-5.3,19.4c-.4,1.5-2,2.4-3.6,2l-6-1.7-16.9-4.7"/><polyline class="h" points="466.2 263.8 460.1 286 459.8 287 450.8 284.5 451.1 283.5 457.2 261.3"/><line class="h" x1="473.6" y1="237.3" x2="468.5" y2="255.7"/><polyline class="h" points="465.8 230 465.8 229.9 474.9 232.4 474.9 232.6 474.8 232.8"/><line class="h" x1="459.4" y1="253.2" x2="464.4" y2="235"/><polygon class="h" points="494.2 262.8 495.1 263.1 492.9 271.2 491.9 270.9 485 269 466.2 263.8 457.2 261.3 437.5 255.9 437.4 255.9 430.7 254 430.1 253.9 432.4 245.8 432.9 245.9 439.6 247.7 459.4 253.2 468.5 255.7 487 260.8 494.2 262.8"/><polyline class="h" points="481.3 234.6 483.4 244.6 478.8 242.3 475.7 246.5 473.6 237.3 472.4 232.1 474.8 232.8 480.6 234.4"/><path class="h" d="m501.5,222.3c.9,1.9.7,4.4,0,6.4-.9,2.7-4.4,6.8-8.1,7.8-.3,0-.7.1-1.1.1-1.1,0-2.5-.1-4.1-.4-2.2-.4-4.7-1-6.9-1.7-.2,0-.4-.1-.6-.2h-.1c-.9-.3-1.8-.7-2.6-1-1.6-.7-2.8-1.3-3-1.8"/><path class="h" d="m499.3,219.9c.2,0,.3.2.4.3.7.4,1.1,1,1.5,1.7"/><path class="h" d="m498,219.3c.3.1.7.2,1,.4"/><path class="h" d="m475.1,231.5c1.5.3,11.5,2.8,14.4.2,1.9-1.7,3.9-4.9,4.2-7.4.1-.8,0-1.6-.4-2.3"/><path class="h" d="m499,219.8c-.2,0-.6-.2-1-.4-2-.8-5.6-2.5-6.9-2.6-2.7-.2-3.9,3.8-5.1,5.7-1,1.6-2.4,3-3.9,4.2-.5.4-1.2.9-1.8,1.2-.7.3-2.6,1.7-2.6,1.7,2.7,1,6.7-1.9,8.7-3.4,2.3-1.6,4.5-3.1,6.8-4,1.6-.6,3.2-1.1,5.1-1.1,2.5-.1,2.9,1.6,3.1,1.3"/><path class="h" d="m501.5,222.3c0,0,0-.2-.2-.4-.4-.6-1.4-1.6-1.9-2"/><polygon class="h" points="475 231.7 474.4 232.2 465.5 229.4 465.7 229.3 467 228.1 470.4 225.1 478.9 227.9 477.5 229.3 475.1 231.5 475 231.7"/><path class="h" d="m458.5,216.2c-.8.6-1.5,1.3-1.6,1.8-.1.8,2,2.6,2.6,3.2,1.1,1,2.2,1.6,3.4,2.5,1.7,1.2,2.5,2.7,3.8,4.1l2.5-3c.9-2.7,0-6.2-1.2-8.8-.4-.9-.9-2.3-1.7-3.1-.6-.6-1.2-.6-1.9-.4-.5.1-1,.4-1.5.6-1.2.5-1.6.8-2.6,1.7-.4.3-1.1.8-1.9,1.4"/><path class="h" d="m464.5,212.6c.3-.2.6-.3.9-.5-1.3-2.3-9.5-4.2-12.2-3.7-4.1.8-7.4,4.3-8.2,8.3-1,5.1,0,6.3,4.4,7.5,3.9,1.1,7.5,2.7,11.5,3.8,1.5.4,3,.7,4.5,1,0-.1.1-.3.1-.4-1.1-1.1-2.5-1.5-3.9-2.1-1.7-.7-3.2-1.6-4.9-2.3-5.2-2-3-5.1,0-6.9.7-.4,1.2-.7,1.6-1t0,0c2.2-1.3,2.4-1.5,6-3.7Z"/><polygon class="h" points="459.6 228.4 452.7 235.8 457.8 236.2 458.3 241.4 464.4 235 468.4 230.8 468.5 230.7 465.8 230 459.6 228.3 459.6 228.4"/></svg>