<?xml version="1.0" encoding="UTF-8"?><svg id="USA" xmlns="http://www.w3.org/2000/svg" width="164.1" height="244" viewBox="0 0 164.1 244"><defs><style>.cls-1{fill:none;stroke:#000;stroke-miterlimit:10;}.cls-2{fill:#606161;}.cls-2,.cls-3,.cls-4,.cls-5,.cls-6,.cls-7,.cls-8,.cls-9,.cls-10,.cls-11{stroke-width:0px;}.cls-3{fill:#282c2d;}.cls-4{fill:#46494c;}.cls-5{fill:#35393f;}.cls-6{fill:#d29bc6;}.cls-7{fill:#bfbfc1;}.cls-8{fill:#c0977f;}.cls-9{fill:#a09f9f;}.cls-10{fill:#fff;}.cls-11{fill:#010101;}</style></defs><path class="cls-3" d="m159.5,66.5c.1,1.4,2.6,4.4,2.6,5.1-.2,2.8-1.4,2.7-1.8,4.2-.1.6-2.3.3-2.5.9-.4,1,.3,2.3,0,3.1-.9,2.1,2.4,11.4-3.4,4.7,0,0-.5,0-.5,0,.9-3.2-.7-4.5-.6-8.7,0-4.4,2.5-6.2,2.9-10.1.4-4-1.4-7.4-1.2-11.5.1-3.5,2.2-6.9,1.7-10.7-.5-3.9-3.8-6.4-4.7-10-1-4.1.9-6.5-1-10.6-2-4.5-7.4-5-9.8-9.4-3.4-6.2-2.7-9-10.2-8.3-3.3.3-2.8.5-6.7,0-.5,0-1.2.3-2,.9,2.3-2.2,5.5-3.8,9.7-3.3.3-.5.3-1.2.6-1.7,4,.7,7.8,5.4,11.1,8.2,4.2-3.4,13.9,13.4,14.6,18.6.8,5.5-1.5,7.1,1.2,12.3,1,2,8.7,9.5,0,8.9-.2,6.3,1.1,11.1,0,17.4Z"/><path class="cls-9" d="m63.4,179.5h0c-.6,17-2.1,37.5-1.6,43.2.1.6-29.2,0-32.5.5,1.1-20.6,3.2-38.1,4.1-60.4,9.2,3.1,11.5-4.5,1.8-4.9,6.2,1.7,11.6-4.1,3.6-5.2,1.2,0,2.1,0,2.7-.7,3.6-3.9.6-4.9-2.9-5.6,7.2-2.2,5.4-5.4-1.2-5.2v-.8c.2,0,.4-1.8.5-1.5,6.3,1.6,30-1,47-4.6,1.7,2.4,6.4,10.3,7.5,12.2-.7,57.9-6.9,77.5,52.9,68.2,2.1,35.3-23.2,29.6-48.8,28.4-14.5-1.4-29.4-42.8-32.9-63.5h-.1Z"/><path class="cls-8" d="m127.9,85c-18.3,9.5-36.5,4-40.1-18.4-1.4-6.7-.5-12.7-.5-12.7-1-4.2-1.2-5.8-1.1-9.1h.1c.5-5.4,7.3-8.1,11.6-12.9,1.2-1.3,5.1.9,7.1-.6,4.4-6.3,8.2-9.3,17.1-7.8,6.3,4.9,6.1,11.9,13.9,16.7,0,0,0,0,0,0,1.4,6.5.1,8.6,1.7,13.7-.2,4.4-2,7.8-1.5,12.1,2.9,6.7-2.4,9.2-3.2,16h-.2c-1.7,1.1-3.3,2.1-4.8,2.9Zm-2.4-30.5c0-4.8-4.1-4.8-4.1,0,0,4.8,4.1,4.8,4.1,0Zm-7.3,24.3c2.3-1.4,3-4.5,5.8-8.4-1.3,1.3-18.6,3.5-25.2.8,2.3,10.6,11.6,11.4,19.4,7.6Zm-20.8-24.6c0-4.2-3.4-4.2-3.3,0,0,4.2,3.4,4.2,3.3,0Z"/><path class="cls-3" d="m135.9,90.6c.1,3.9-2.8,3.9-6.8,3.2-.3-2.9-1.2-5.6-1.2-8.9,1.6-.9,3.2-1.8,4.8-3h.2c-.6,3.3-1,7.1-.4,9.2.5-.4,2-.4,3.4-.5Z"/><path class="cls-6" d="m128.3,89.3c-6.4,1.7-13.3,4.4-19.8,7l-.4-1.1c2.8-.9,1.6-5.1,1.5-5.9,5.3.5,11.4-.7,18.3-4.4,0,1.7.2,3.1.4,4.4Z"/><path class="cls-11" d="m123.4,50.7c2.7,0,2.6,7.5,0,7.4-2.6,0-2.6-7.5,0-7.4Z"/><path class="cls-10" d="m124,70.4c-2.8,3.9-3.5,6.9-5.8,8.4-7.8,3.9-17,3.1-19.4-7.6,6.6,2.7,23.8.5,25.2-.8Z"/><path class="cls-3" d="m121.5,6.9c-.5.5-.9,1-1.4,1.6-16.7-5.2-13.3-6-28.4,1.9-3.5,2.7-1.4,5-3.5,8.5-2.1,3.4-6.6,3.6-8.1,7.2-1.7,8.1,2.7,8-4.3,15.3.8,7.6-.5,10-2.9,16.6.1,8.4,1.9,16.9,1.7,25-3.1,0-4.1-2-5.4-5.1-.6-1.5.8-3.5,0-5.4-1-2.2-4.4-3.1-5-4.6-2.7-6.8,4.4-15.9,5.1-22.4.3-10.9,3.9-21.4,10-30.2,1.2-2-.3-1.9,2.1-4,1.5-1.3,3.8,0,5-.9,2.7-1.9,2.6-5.2,5.5-6.8.6-.3,13.6-2.7,14.4-2.7,2.9,0,13.7,3.5,15.1,6Z"/><path class="cls-4" d="m146.5,70.2c4.6-14.5,2.8-18.9-.1-33.5-.3-4.1,1.4-7.4-2.9-10.6-2.7-2-6.3-.6-9.2-3.5-2.5-2.5-2.4-6.8-5.5-9.2-2.1-1.6-11.2-2.4-15.2-2.3h0c-4.2-3.3-6.2,1-9,2.9-2.4,1.3-6.1,2-8.2,4-8.3,16-12,7.2-11.8,24.9l1.7.4c0,.5,0,1,0,1.4h.1c.5-5.4,7.3-8.1,11.6-12.9,1.2-1.3,5.1.9,7.1-.6,4.4-6.3,8.2-9.3,17.1-7.8,6.3,4.9,6.1,11.9,13.9,16.7,0,0,0,0,0,0,1.4,6.5.1,8.6,1.7,13.7-.2,4.4-2,7.8-1.5,12.1.2,1.9,1.3,2.7.7,6.2-2.9,4.8-5.7,13.4-4.4,18.9.9-.8,4.9,0,5.9-1.2.2,3.1,1.4,4.1,3.6,2.5l-.6-.2c.3-2.4,1.9-3.7,3.3-5.4,3.9-4.6.8-11.3,1.8-16.7Z"/><path class="cls-4" d="m146.3,93.4c-.3-.6-.5-1.2-.9-1.7,0,.9.2,1.6.9,1.7Z"/><path class="cls-3" d="m109.2,94.4c-2.6,3.1-14.6.3-15.8-2.3h0s0,0,0,0h0c1.6-2,3-7.1,1.7-9l.3-.3c3.6,3.4,8.4,6,14.3,6.5-.2.9,1.3,2.8-.4,5Z"/><path class="cls-7" d="m148.9,118.7c.3-10.8.2-16.3-2.6-25.3-1.8-1.1-.2-4.6-1.6-6.5-1.3,1.7-2.9,3-3.3,5.4l.6.2c-2.2,1.6-3.4.6-3.6-2.5-.4.5-1.4.6-2.5.7.1,3.9-2.8,3.9-6.8,3.2-.1-1.4-.5-2.9-.8-4.5-6.4,1.7-13.3,4.4-19.8,7l-.4-1.1c-1.6.6-4.5.5-7.2,0-8.5,5.4-24.1,11.8-32.4,13.7,1.3.3,2.8.8,4.3,1.4-8.6,2.6-19.4,5.7-26.2,7.1-4.5.9-10.5,1.8-13,6.5-1.9,4-.3,14.9,3.8,16.3.2.2.4-1.8.5-1.4,7.7,1.9,39.2-2,55.6-6.7-2.3,18.5-2.2,66.3,1.5,72.9,11.3,18.2,34.3,10.2,52.4,9.4-4.6-32.8-5.7-63.3,1.4-95.6Z"/><path class="cls-11" d="m95.7,50.9c2.2,0,2.2,6.5,0,6.4-2.1,0-2.1-6.5,0-6.4Z"/><path class="cls-5" d="m156.8,43.4c-.5-3.9-3.8-6.4-4.7-10-1-4.1.9-6.5-1-10.6-2-4.5-7.4-5-9.8-9.4-3.4-6.2-2.7-9-10.2-8.3-4.6,1-7.7-1.9-11,3.3-6.1-1-12.1-5.2-15.7-4-1.3.4-11.5,5.1-12.7,6-3.5,2.7-1.4,5-3.5,8.5-2.1,3.4-6.6,3.6-8.1,7.2-1.3,3.2.6,7.4-.5,10.7-4,4.8-4.6,3.8-3.4,10.5-2.2,9.4-4.9,11.3-2.2,21.2.2,7.2.7,13.1.9,19.9.1,3.8-1.7,7.7,3.6,6.7,1.3-.2,5.3-6.7,5.6-7.7l.5-.2c1.4,1.5,3.1,2.6,2.8,5.6,1.9,2.8,4.1,2.4,6-.7h0c1.6-2,3-7.1,1.7-9l.3-.3c-5.5-2.4-9.8-23.8-8-29-1.1-4.7-1.2-6.5-1-10.5l-1.7-.4c-.1-17.7,3.5-8.9,11.8-24.9,2.1-2.1,5.8-2.7,8.2-4,2.7-2,4.8-6.3,9-3h0c28.5,0,8.6,10.3,29.9,15,4.3,3.2,2.6,6.5,2.9,10.6.3,4.2,1.3,7.3,2.3,11.5,2.4,9.1-.7,13.7-2.2,22-1,5.4,2.1,12.1-1.8,16.7,1.2,2.3.2,4.6,1.6,6.5,3.7.1,2.4-3.8,3.2-5.8,1.7-1.3,4.3-.4,4.5-3.2.9-3.2-.7-4.5-.6-8.7,0-4.4,2.5-6.2,2.9-10.1.4-4-1.4-7.4-1.2-11.5.1-3.5,2.2-6.9,1.7-10.7Z"/><path class="cls-6" d="m93.5,132c-.5,2.9-.8,8-1.1,14.3-1.1-1.9-5.8-9.8-7.5-12.2,2.8-.6,5.4-1.3,8.6-2.1Z"/><path class="cls-9" d="m68.5,109c1.3.3,2.8.8,4.3,1.4-8.6,2.6-19.4,5.7-26.2,7.1,6.4-7.5,12.4-10.9,21.9-8.5Z"/><path class="cls-2" d="m61.8,222.7c3.7,3.6,3.6,13.8,3.1,19-8.2,3.9-22.8,1.5-31.8,2-5.6,0-19.6.1-27.7-.7-1.4-11.8,13.6-20,23.6-19.7,3.3-.7,32.7,0,32.8-.6Z"/><path class="cls-8" d="m41.5,151.9c3.6-3.9.6-4.9-2.9-5.6,10.9-3.9.2-6.1-5-5l2.3.3c-2.1-.2-4.5,0-3.3,2.8.5,1.1,3.4,1.4,6,1.9-3.9.7-10.6.2-5.3,4.8,1,.6,6.5,2.5,8.2.8Z"/><path class="cls-8" d="m29.3,160.6c.4.7,2.1,1.6,4.1,2.1h0c3.6,1,8.1,1.2,8.1-1.5,0-2.6-3.3-2.9-6.3-3.4-3.9-.4-7.9-.9-5.8,2.7Z"/><path class="cls-8" d="m29.7,155c.6,3.2,8.8,3.6,10.9,2.7,4.4-3.2,1.6-4.3-1.8-5-4-.2-10.2-3.1-9.1,2.3Z"/><path class="cls-1" d="m134.4,117.2c-25.9,11.4-73.4,23.9-96.5,20.7-.1-.4-.4,1.7-.5,1.4-4.1-1.4-5.7-12.3-3.8-16.3,2.5-4.7,8.5-5.5,13-6.5,6.8-1.5,17.6-4.6,26.2-7.1,16.1-3.7,35.6-15.6,55.5-21"/><path class="cls-1" d="m143.6,88.5c10.4,15.6,3.4,36.6,1.1,54.3-2.4,24.3-.2,46.1,2.8,70.8-18.1.8-41.1,8.8-52.4-9.4"/><path class="cls-1" d="m93.7,130.3c-2.6,18.6-2.4,66.9,1.4,73.8"/><path class="cls-1" d="m61.8,221.8c0,.7-29.4,0-32.8.6-10.1-.3-25,7.9-23.6,19.7,8.1.9,22.1.7,27.7.7,9-.6,23.6,1.9,31.8-2,.5-5.3.6-15.4-3.1-19"/><path class="cls-1" d="m33.3,162.1c-.7,22.2-2.8,39.4-4,59.9"/><path class="cls-1" d="m61.8,221.8c-.5-5.7,1.1-26.2,1.6-43.2h0c1.3-10-2.2-21.9,2-27.6"/><path class="cls-1" d="m73,109.6c-10.7-4.7-19.8-1.7-26.9,7.6"/><path class="cls-1" d="m145.3,213.9c1.9,35.2-23.3,29.3-48.9,28.1-14.5-1.4-29.4-42.8-32.9-63.5"/><line class="cls-1" x1="135.9" y1="89.8" x2="135.9" y2="90.2"/><line class="cls-1" x1="109.6" y1="88.8" x2="109.6" y2="88.5"/><path class="cls-1" d="m95.1,82.2s.3-.3.3-.3"/><line class="cls-1" x1="93.4" y1="91.2" x2="93.4" y2="91.2"/><path class="cls-1" d="m141.4,91.4s.6.2.6.2"/><line class="cls-1" x1="153.9" y1="83.5" x2="154.5" y2="83.6"/><line class="cls-1" x1="135.9" y1="39.4" x2="136" y2="39.4"/><path class="cls-1" d="m132.7,81.1s.2,0,.2,0"/><line class="cls-1" x1="111.4" y1="9" x2="113.5" y2="10.2"/><line class="cls-1" x1="86.2" y1="43.9" x2="86.3" y2="43.9"/><line class="cls-1" x1="84.5" y1="42.1" x2="86.3" y2="42.5"/><path class="cls-1" d="m84.1,86.5s.5-.2.5-.2"/><path class="cls-1" d="m86.3,42.5c-.2,4-.1,5.8,1,10.5,0,0-.8,6,.5,12.7,3.5,25.1,27.1,28.3,44.9,15.4"/><path class="cls-1" d="m93,46.2c1.2-2.7,3.6-2.4,4.8-1"/><path class="cls-1" d="m121.7,45.5c2.4-2.3,5.5-1.1,5.9.6"/><path class="cls-1" d="m129.1,93c-.3-2.9-1.2-5.6-1.2-8.9"/><path class="cls-1" d="m109.6,88.8c.1.5,1.2,4-1,5.4"/><path class="cls-1" d="m97.4,53.2c0,4.2-3.4,4.2-3.3,0,0-4.2,3.4-4.2,3.3,0Z"/><path class="cls-1" d="m125.5,53.5c0,4.8-4.1,4.8-4.1,0,0-4.8,4.1-4.8,4.1,0Z"/><path class="cls-1" d="m106.6,55.5c-2.4,6.5-3.9,6.5-3.9,6.5,0,1.1,4.9,5.6,8.2,3.3"/><path class="cls-1" d="m98.9,70.3c6.6,2.7,23.8.5,25.2-.8-2.8,3.9-3.5,6.9-5.8,8.4-7.8,3.9-17,3.1-19.4-7.6Z"/><path class="cls-1" d="m111.4,9c-4.3-.2-4.1,2.6-6.9,4.1-7.5,2.5-9.4,4.6-12.8,11.6-7.4,6.1-7.3,7.9-7.3,17.3-1,4.8-2.7,5.6-2.1,10.8,1.1,6.8.4,12.4,2,19.3.6,4-1.9,7.4-1.2,11.2.7,3.8,5,4.3,4.2,8.9,1.2,1.1.5.2.8-.4"/><path class="cls-1" d="m141.4,91.4c.3-2.4,1.9-3.7,3.3-5.4,3.9-4.6.8-11.3,1.8-16.7,4.5-14.5,2.8-18.9-.1-33.5-.3-4.1,1.4-7.4-2.9-10.6-21.7-4.8-.7-15.6-31.5-14.8"/><path class="cls-1" d="m122.4,5.2c-3,2.7-5.2,6.5-6.1,10.4"/><path class="cls-1" d="m144.3,85.4c2,1.9,0,5.9,2,7.2,3.7.1,2.4-3.8,3.2-5.8,1.7-1.3,4.3-.4,4.5-3.2.9-3.2-.7-4.5-.6-8.7,0-4.4,2.5-6.2,2.9-10.1.4-4-1.4-7.4-1.2-11.5.1-3.5,2.2-6.9,1.7-10.7-.5-3.9-3.8-6.4-4.7-10-1-4.1.9-6.5-1-10.6-2-4.5-7.4-5-9.8-9.4-3.4-6.2-2.7-9-10.2-8.3-3.3.3-2.8.5-6.7,0-.5,0-1.2.3-2,.9"/><path class="cls-1" d="m120.3,7.7c-6.1-.9-12.3-5.2-15.9-4.1-1.3.4-11.5,5.1-12.7,6-3.5,2.7-1.4,5-3.5,8.5-2.1,3.4-6.6,3.6-8.1,7.2-1.3,3.2.6,7.4-.5,10.7-4,4.8-4.6,3.8-3.4,10.5-2.2,9.4-4.9,11.3-2.2,21.2.2,7.2.7,13.1.9,19.9.1,3.8-1.7,7.7,3.6,6.7,1.3-.2,5.3-6.7,5.6-7.7"/><path class="cls-1" d="m154.5,83.6c5.8,6.7,2.5-2.5,3.4-4.7.3-.8-.4-2.1,0-3.1.2-.6,2.3-.3,2.5-.9,3.2-4.8,1.3-4.1-.8-9.3,1.2-6.2-.1-11,0-17.4,8.6.6,1-6.9,0-8.9-2.8-5.2-.4-6.8-1.2-12.3-.7-5.2-10.5-22-14.6-18.6-3.3-2.9-7-7.6-11.1-8.2-.3.5-.3,1.2-.6,1.7-7.8-1-12.5,5.5-14.8,11.4"/><path class="cls-1" d="m76,82c-3.7.7-5.4-1.3-6.8-5-.6-1.5.8-3.5,0-5.4-1-2.2-4.4-3.1-5-4.6-2.7-6.8,4.4-15.9,5.1-22.4.3-10.9,3.9-21.4,10-30.2,1.2-2-.3-1.9,2.1-4,1.5-1.3,3.8,0,5-.9,2.7-1.9,2.6-5.2,5.5-6.8.6-.3,13.6-2.7,14.4-2.7,3,.1,14,3.5,15.2,6.3"/><path class="cls-1" d="m122.1,22.6c-8.9-1.5-12.7,1.5-17.1,7.8-2,1.5-5.9-.7-7.1.6-4.3,4.8-11,7.4-11.6,12.9"/><path class="cls-1" d="m116.3,15c3.1,2,3.1,5.7,5.8,7.6,2.5,1.8,6.1,6.8,7.1,9.9,1.9,4.7,15.4,11.2,14.8,17.1"/><path class="cls-1" d="m135.9,39.4c1.4,6.5.1,8.6,1.7,13.7-.2,4.4-2,7.8-1.5,12.1.2,1.9,1.3,2.7.7,6.2-2.9,4.8-5.7,13.4-4.4,18.9.9-.8,4.9,0,5.9-1.2.2,3.4,1.7,4.1,3.9,2.3"/><path class="cls-1" d="m87.1,91.5c1.8,3,4.3,3,6.3-.4h0c1.6-2,3-7.1,1.7-9"/><path class="cls-1" d="m109.4,92.9c-1.5,4.4-14.9.8-16-1.7"/><path class="cls-1" d="m129.1,93c3.9.6,6.6.9,6.9-2.7"/><path class="cls-1" d="m102,93.7c-8.9,5.9-24.9,12.4-33.8,14.5"/><path class="cls-1" d="m92.7,145.9s0,0,0,0"/><path class="cls-1" d="m84.7,133.1c2,2.7,6.6,10.6,7.9,12.8"/><path class="cls-1" d="m38.6,145.4c-2.6-.5-5.5-.8-6-1.9-1.2-2.7,1.2-3,3.3-2.8"/><path class="cls-1" d="m33.6,140.4c5.3-1.1,15.9,1.1,5,5-3.9.7-10.6.2-5.3,4.8,1.9,1.7,14.7,1.2,7.3,6.5-2.1,1.8-14.6-2.9-11.3,2.9.4.7,2.1,1.6,4.1,2.1h0c9.2,3.2,11.5-4.5,1.8-4.9-2.6-.4-5-.8-5.4-2.9-1.4-7,8.4-.3,11.8-3.1,3.6-3.9.6-4.9-2.9-5.6"/><line class="cls-1" x1="35.9" y1="140.7" x2="33.6" y2="140.4"/></svg>